<svg width="101" height="101" viewBox="0 0 101 101" fill="none" xmlns="http://www.w3.org/2000/svg">
<g id="finance-markting-money-coin-dollar-molecule-svgrepo-com 1" clip-path="url(#clip0_3445_5891)">
<g id="Group">
<path id="Vector" d="M48.1167 58.7832C46.8667 58.7832 46.0334 57.9499 46.0334 56.6999C46.0334 55.4499 46.8667 54.6165 48.1167 54.6165H52.2834C53.5334 54.6165 54.3667 53.7832 54.3667 52.5332C54.3667 51.2832 53.5334 50.4499 52.2834 50.4499H50.2V48.3665C50.2 47.1165 49.3667 46.2832 48.1167 46.2832C46.8667 46.2832 46.0334 47.1165 46.0334 48.3665V50.8665C43.5334 51.6999 41.8667 54.1999 41.8667 56.6999C41.8667 60.0332 44.7834 62.9499 48.1167 62.9499C49.3667 62.9499 50.2 63.7832 50.2 65.0332C50.2 66.2832 49.3667 67.1165 48.1167 67.1165H43.95C42.7 67.1165 41.8667 67.9499 41.8667 69.1999C41.8667 70.4499 42.7 71.2832 43.95 71.2832H46.0334V73.3665C46.0334 74.6165 46.8667 75.4499 48.1167 75.4499C49.3667 75.4499 50.2 74.6165 50.2 73.3665V70.8665C52.7 70.0332 54.3667 67.5332 54.3667 65.0332C54.3667 61.6999 51.45 58.7832 48.1167 58.7832Z" fill="white"/>
<path id="Vector_2" d="M87.7002 75.4502C84.3669 75.4502 81.0335 77.1169 78.5335 79.2002L68.1169 72.1169C69.7835 68.7835 71.0335 65.0335 71.0335 60.8669C71.0335 58.3669 70.6169 55.8669 69.7835 53.3669L77.2835 50.0335C79.3669 52.5335 82.2835 54.6169 85.6169 54.6169C91.4502 54.6169 96.0335 50.0335 96.0335 44.2002C96.0335 38.3669 91.4502 33.7835 85.6169 33.7835C85.2002 33.7835 84.3669 33.7835 83.9502 33.7835L81.4502 27.9502C82.7002 26.7002 83.5335 25.0335 83.5335 23.3669C83.5335 20.0335 80.6169 17.1169 77.2835 17.1169C73.9502 17.1169 71.0335 20.0335 71.0335 23.3669C71.0335 26.7002 73.9502 29.6169 77.2835 29.6169H77.7002L80.2002 35.4502C77.2835 37.5335 75.2002 40.4502 75.2002 44.2002C75.2002 45.0335 75.2002 45.8669 75.6169 46.2835L68.1169 49.6169C64.3669 42.5335 56.8669 37.9502 48.1169 37.9502C41.8669 37.9502 36.4502 40.4502 32.2835 44.2002L26.8669 39.6169C28.5335 37.5335 29.3669 34.6169 29.3669 31.7002C29.3669 29.2002 28.5335 27.1169 27.7002 25.0335L36.8669 18.3669C38.5335 20.0335 41.0335 21.2835 43.9502 21.2835C49.3669 21.2835 53.9502 16.7002 54.3669 11.2835L63.5335 9.61686C64.3669 11.7002 66.4502 12.9502 68.9502 12.9502C72.2835 12.9502 75.2002 10.0335 75.2002 6.7002C75.2002 3.36686 72.2835 0.450195 68.9502 0.450195C66.0335 0.450195 63.5335 2.53353 62.7002 5.4502L53.5335 7.11686C52.2835 3.36686 48.5335 0.450195 43.9502 0.450195C38.1169 0.450195 33.5335 5.03353 33.5335 10.8669C33.5335 12.5335 33.9502 13.7835 34.3669 15.0335L25.2002 21.7002C22.7002 18.7835 18.9502 17.1169 14.7835 17.1169C6.86686 17.1169 0.200195 23.7835 0.200195 31.7002C0.200195 39.6169 6.86686 46.2835 14.7835 46.2835C18.5335 46.2835 21.8669 45.0335 24.3669 42.5335L29.7835 47.1169C26.8669 50.8669 25.2002 55.4502 25.2002 60.4502C25.2002 65.0335 26.4502 68.7835 28.5335 72.5335L21.4502 77.9502C19.7835 76.2835 17.2835 75.4502 14.3669 75.4502C8.9502 75.4502 4.36686 80.0335 4.36686 85.8669C4.36686 91.7002 8.9502 96.2835 14.7835 96.2835C20.6169 96.2835 25.2002 91.7002 25.2002 85.8669C25.2002 84.2002 24.7835 82.9502 24.3669 81.2835L31.4502 75.8669C35.6169 80.4502 41.8669 83.3669 48.5335 83.3669C55.6169 83.3669 61.8669 80.0335 66.0335 75.0335L76.4502 82.1169C75.6169 84.2002 75.2002 86.2835 75.2002 87.9502C75.2002 95.0335 80.6169 100.45 87.7002 100.45C94.7835 100.45 100.2 95.0335 100.2 87.9502C100.2 80.8669 94.7835 75.4502 87.7002 75.4502ZM75.2002 23.3669C75.2002 22.1169 76.0335 21.2835 77.2835 21.2835C78.5335 21.2835 79.3669 22.1169 79.3669 23.3669C79.3669 24.6169 78.5335 25.4502 77.2835 25.4502C76.0335 25.4502 75.2002 24.6169 75.2002 23.3669ZM85.6169 37.9502C88.9502 37.9502 91.8669 40.8669 91.8669 44.2002C91.8669 47.5335 88.9502 50.4502 85.6169 50.4502C82.2835 50.4502 79.3669 47.5335 79.3669 44.2002C79.3669 40.8669 82.2835 37.9502 85.6169 37.9502ZM68.9502 4.61686C70.2002 4.61686 71.0335 5.4502 71.0335 6.7002C71.0335 7.9502 70.2002 8.78353 68.9502 8.78353C67.7002 8.78353 66.8669 7.9502 66.8669 6.7002C66.8669 5.4502 67.7002 4.61686 68.9502 4.61686ZM43.9502 4.61686C47.2835 4.61686 50.2002 7.53353 50.2002 10.8669C50.2002 14.2002 47.2835 17.1169 43.9502 17.1169C40.6169 17.1169 37.7002 14.2002 37.7002 10.8669C37.7002 7.53353 40.6169 4.61686 43.9502 4.61686ZM14.7835 92.1169C11.4502 92.1169 8.53353 89.2002 8.53353 85.8669C8.53353 82.5335 11.4502 79.6169 14.7835 79.6169C18.1169 79.6169 21.0335 82.5335 21.0335 85.8669C21.0335 89.2002 18.1169 92.1169 14.7835 92.1169ZM14.7835 42.1169C8.9502 42.1169 4.36686 37.5335 4.36686 31.7002C4.36686 25.8669 8.9502 21.2835 14.7835 21.2835C20.6169 21.2835 25.2002 25.8669 25.2002 31.7002C25.2002 37.5335 20.6169 42.1169 14.7835 42.1169ZM48.1169 79.6169C37.7002 79.6169 29.3669 71.2835 29.3669 60.8669C29.3669 50.4502 37.7002 42.1169 48.1169 42.1169C58.5335 42.1169 66.8669 50.4502 66.8669 60.8669C66.8669 71.2835 58.5335 79.6169 48.1169 79.6169ZM87.7002 96.2835C83.1169 96.2835 79.3669 92.5335 79.3669 87.9502C79.3669 83.3669 83.1169 79.6169 87.7002 79.6169C92.2835 79.6169 96.0335 83.3669 96.0335 87.9502C96.0335 92.5335 92.2835 96.2835 87.7002 96.2835Z" fill="white"/>
</g>
</g>
<defs>
<clipPath id="clip0_3445_5891">
<rect width="100" height="100" fill="white" transform="translate(0.200195 0.450195)"/>
</clipPath>
</defs>
</svg>
