<svg width="15" height="16" viewBox="0 0 15 16" fill="none" xmlns="http://www.w3.org/2000/svg">
<path d="M7.50013 7.95028C8.53556 7.95028 9.41932 7.58394 10.1517 6.85157C10.8841 6.1192 11.2503 5.23544 11.2503 4.20015C11.2503 3.16503 10.8841 2.28124 10.1517 1.5487C9.41908 0.816363 8.53528 0.450195 7.50013 0.450195C6.46497 0.450195 5.58104 0.816363 4.84871 1.5487C4.11624 2.28124 3.75 3.165 3.75 4.20015C3.75 5.23544 4.11624 6.1192 4.84871 6.85157C5.58125 7.58394 6.46494 7.95028 7.50013 7.95028Z" fill="#3B7C93"/>
<path d="M14.341 11.9102C14.3181 11.5815 14.2725 11.2266 14.2043 10.8457C14.1359 10.4648 14.0495 10.1118 13.9453 9.78609C13.8411 9.46066 13.7011 9.14324 13.5253 8.83396C13.3496 8.52471 13.1478 8.26109 12.9198 8.04289C12.6918 7.82476 12.4135 7.65073 12.085 7.52054C11.756 7.39039 11.3931 7.3252 10.9959 7.3252C10.9374 7.3252 10.8006 7.39518 10.5857 7.53518C10.3711 7.67518 10.1285 7.83147 9.85833 8.00407C9.58818 8.17636 9.23641 8.33275 8.80365 8.47251C8.37068 8.61251 7.93617 8.68253 7.49981 8.68253C7.06363 8.68253 6.62908 8.61251 6.19618 8.47251C5.76332 8.33275 5.41165 8.17636 5.14146 8.00407C4.87131 7.83147 4.62883 7.67522 4.41402 7.53518C4.19911 7.39518 4.06246 7.3252 4.00386 7.3252C3.60674 7.3252 3.24376 7.39039 2.91501 7.52054C2.58619 7.65073 2.3079 7.8249 2.07999 8.04289C1.85215 8.26109 1.6503 8.52471 1.47459 8.83396C1.29888 9.14324 1.15891 9.4608 1.05472 9.78609C0.950566 10.1118 0.864266 10.4648 0.795924 10.8457C0.727513 11.2266 0.681952 11.5813 0.659137 11.9102C0.636356 12.2391 0.625 12.576 0.625 12.9211C0.625 13.7022 0.862692 14.3192 1.33791 14.7717C1.81322 15.2241 2.44479 15.4502 3.23254 15.4502H11.7679C12.5556 15.4502 13.1871 15.2241 13.6624 14.7717C14.1379 14.3192 14.3754 13.7023 14.3754 12.9211C14.3754 12.576 14.364 12.2391 14.341 11.9102Z" fill="#3B7C93"/>
</svg>
