<svg width="101" height="101" viewBox="0 0 101 101" fill="none" xmlns="http://www.w3.org/2000/svg">
<g clip-path="url(#clip0_1_320)">
<path d="M2.33337 29.7628C2.33337 28.6582 3.22881 27.7628 4.33338 27.7628H96.3334C97.4379 27.7628 98.3334 28.6582 98.3334 29.7628V43.5253C98.3334 44.4534 97.6949 45.2595 96.7915 45.4721L62.4019 53.5644C61.9815 53.6633 61.5787 53.3443 61.5787 52.9123C61.5787 50.3333 59.4879 48.2425 56.9089 48.2425H43.4985C40.9194 48.2425 38.8287 50.3333 38.8287 52.9123C38.8287 53.3443 38.4259 53.6633 38.0054 53.5643L3.87526 45.5331C2.97185 45.3205 2.33337 44.5143 2.33337 43.5862V29.7628Z" stroke="#ED7424" stroke-width="4"/>
<path d="M55.5787 77.2425C58.8924 77.2425 61.5787 74.5562 61.5787 71.2425V65.8419C61.5787 64.9137 62.2172 64.1076 63.1206 63.895L95.8753 56.1886C97.1307 55.8932 98.3334 56.8457 98.3334 58.1354V95.2003C98.3334 96.3049 97.4379 97.2003 96.3334 97.2003H4.33337C3.22881 97.2003 2.33337 96.3049 2.33337 95.2003V58.1965C2.33337 56.9068 3.53601 55.9543 4.79141 56.2497L37.2867 63.895C38.1902 64.1076 38.8287 64.9138 38.8287 65.8419V71.2425C38.8287 74.5562 41.515 77.2425 44.8287 77.2425H55.5787Z" stroke="#ED7424" stroke-width="4"/>
<path d="M49.5162 56.9301H50.8912C51.9958 56.9301 52.8912 57.8255 52.8912 58.9301V66.5551C52.8912 67.6596 51.9958 68.5551 50.8912 68.5551H49.5162C48.4117 68.5551 47.5162 67.6596 47.5162 66.5551V58.9301C47.5162 57.8255 48.4117 56.9301 49.5162 56.9301Z" stroke="#F7921E" stroke-width="4"/>
<path d="M33.5674 11.5369H33.5674V11.5447V14.576C33.5674 15.6805 32.672 16.576 31.5674 16.576H31.1309C30.0263 16.576 29.1309 15.6805 29.1309 14.576L29.1309 11.5447L29.1309 11.5424C29.1284 9.38945 30.0133 7.40687 31.4257 5.99801L31.4293 5.99443C32.8364 4.58375 34.8193 3.69834 36.9733 3.69959H36.9744L63.6926 3.69959L63.6937 3.69959C65.8481 3.69834 67.8306 4.58387 69.2354 5.99373L69.2404 5.99864C70.6532 7.40666 71.5374 9.38907 71.5361 11.5436V11.5447V14.576C71.5361 15.6805 70.6407 16.576 69.5361 16.576H69.0996C67.995 16.576 67.0996 15.6805 67.0996 14.576V11.5447V11.537L67.0996 11.5292C67.0922 10.5785 66.7184 9.76837 66.1219 9.1545L66.1019 9.13386L66.0812 9.11381C65.4681 8.5181 64.6581 8.14357 63.7082 8.13617L63.7004 8.13611H63.6926H36.9744H36.9666L36.9588 8.13617C36.0086 8.14357 35.1988 8.51821 34.5858 9.11381L34.5649 9.13411L34.5446 9.15502C33.953 9.76428 33.5711 10.5753 33.5674 11.5369Z" stroke="#F7921E" stroke-width="4"/>
</g>
<defs>
<clipPath id="clip0_1_320">
<rect width="100" height="100" fill="white" transform="translate(0.333374 0.449951)"/>
</clipPath>
</defs>
</svg>
