<svg width="15" height="16" viewBox="0 0 15 16" fill="none" xmlns="http://www.w3.org/2000/svg">
<g clip-path="url(#clip0_2658_10800)">
<path d="M2.34375 9.8247H3.90625C4.165 9.8247 4.37499 9.6147 4.37499 9.35595V7.79346C4.37499 7.53471 4.165 7.32471 3.90625 7.32471H2.34375C2.085 7.32471 1.875 7.53471 1.875 7.79346V9.35595C1.875 9.6147 2.085 9.8247 2.34375 9.8247Z" fill="#3B7C93"/>
<path d="M2.34375 13.5747H3.90625C4.165 13.5747 4.37499 13.3647 4.37499 13.106V11.5435C4.37499 11.2847 4.165 11.0747 3.90625 11.0747H2.34375C2.085 11.0747 1.875 11.2847 1.875 11.5435V13.106C1.875 13.3647 2.085 13.5747 2.34375 13.5747Z" fill="#3B7C93"/>
<path d="M6.71924 9.8247H8.28173C8.54048 9.8247 8.75048 9.6147 8.75048 9.35595V7.79346C8.75048 7.53471 8.54048 7.32471 8.28173 7.32471H6.71924C6.46049 7.32471 6.25049 7.53471 6.25049 7.79346V9.35595C6.25049 9.6147 6.46049 9.8247 6.71924 9.8247Z" fill="#3B7C93"/>
<path d="M6.71924 13.5747H8.28173C8.54048 13.5747 8.75048 13.3647 8.75048 13.106V11.5435C8.75048 11.2847 8.54048 11.0747 8.28173 11.0747H6.71924C6.46049 11.0747 6.25049 11.2847 6.25049 11.5435V13.106C6.25049 13.3647 6.46049 13.5747 6.71924 13.5747Z" fill="#3B7C93"/>
<path d="M11.0933 9.8247H12.6558C12.9145 9.8247 13.1245 9.6147 13.1245 9.35595V7.79346C13.1245 7.53471 12.9145 7.32471 12.6558 7.32471H11.0933C10.8345 7.32471 10.6245 7.53471 10.6245 7.79346V9.35595C10.6245 9.6147 10.8345 9.8247 11.0933 9.8247Z" fill="#3B7C93"/>
<path d="M13.125 2.3252H12.5V1.0752C12.5 0.730195 12.22 0.450195 11.875 0.450195H11.25C10.905 0.450195 10.625 0.730195 10.625 1.0752V2.3252H4.375V1.0752C4.375 0.730195 4.095 0.450195 3.75 0.450195H3.125C2.78 0.450195 2.5 0.730195 2.5 1.0752V2.3252H1.875C0.84125 2.3252 0 3.16645 0 4.2002V13.5752C0 14.6089 0.84125 15.4502 1.875 15.4502H13.125C14.1588 15.4502 15 14.6089 15 13.5752V4.2002C15 3.16645 14.1588 2.3252 13.125 2.3252ZM13.75 13.5752C13.75 13.9196 13.4694 14.2002 13.125 14.2002H1.875C1.53062 14.2002 1.25 13.9196 1.25 13.5752V6.7252H13.75V13.5752Z" fill="#3B7C93"/>
</g>
<defs>
<clipPath id="clip0_2658_10800">
<rect width="15" height="15" fill="white" transform="translate(0 0.450195)"/>
</clipPath>
</defs>
</svg>
