<svg width="15" height="16" viewBox="0 0 15 16" fill="none" xmlns="http://www.w3.org/2000/svg">
<path d="M13.5244 7.18484L6.34232 14.3665C6.21811 14.4911 6.00096 14.4911 5.87643 14.3665L1.47841 9.96853C1.28532 9.77544 0.972627 9.77544 0.779564 9.96853C0.5865 10.1615 0.5865 10.4745 0.779564 10.6674L5.17761 15.0654C5.42653 15.3145 5.7575 15.4515 6.10958 15.4515C6.46165 15.4515 6.79262 15.3145 7.04138 15.0654L14.2233 7.88368C14.4164 7.69075 14.4164 7.37774 14.2233 7.18484C14.0301 6.99177 13.7175 6.99177 13.5244 7.18484Z" fill="#3B7C93"/>
<path d="M5.44028 13.5052C5.76186 13.8269 6.28344 13.8269 6.60518 13.5052L13.787 6.32331C14.1402 5.97011 14.2989 5.29958 14.1417 4.82562L13.3417 2.41375C13.1846 1.93978 12.6699 1.43731 12.1921 1.29136L9.60996 0.503222C9.13239 0.357428 8.45887 0.525457 8.10567 0.878689L1.04196 7.94212C0.720388 8.26385 0.720388 8.78527 1.04196 9.10701L5.44028 13.5052ZM10.0085 2.79102C10.4912 2.30831 11.2736 2.30831 11.7561 2.79102C12.2388 3.27373 12.2388 4.05611 11.7561 4.53879C11.2734 5.02151 10.491 5.02151 10.0085 4.53879C9.52594 4.05611 9.52594 3.27373 10.0085 2.79102Z" fill="#3B7C93"/>
</svg>
