<?xml version="1.0" encoding="utf-8"?>
<!-- Generator: Adobe Illustrator 27.1.1, SVG Export Plug-In . SVG Version: 6.00 Build 0)  -->
<svg version="1.1" id="Layer_1" xmlns="http://www.w3.org/2000/svg" xmlns:xlink="http://www.w3.org/1999/xlink" x="0px" y="0px"
	 viewBox="0 0 100 72" style="enable-background:new 0 0 100 72;" xml:space="preserve">
<style type="text/css">
	.st0{fill:none;stroke:#F7921E;stroke-width:4;}
	.st1{fill:none;stroke:#ED7424;stroke-width:4;}
</style>
<path class="st0" d="M16.2,36.1c0.5,0.2,0.8,0.7,0.8,1.2v17.4c0,0.8-0.6,1.4-1.4,1.4H8.3c-3.5,0-6.3-2.8-6.3-6.3v-7.6
	C2,38.8,4.8,36,8.3,36c1.4,0,2.6-1,2.9-2.3C15.1,15.8,31,2.4,50,2.4c19,0,34.9,13.4,38.9,31.2c0.3,1.3,1.5,2.3,2.9,2.3h0
	c3.4,0,6.3,2.8,6.3,6.3v7.6c0,3.5-2.8,6.3-6.3,6.3h-7.3c-0.8,0-1.4-0.6-1.4-1.4V37.4c0-0.5,0.3-1,0.8-1.2c1-0.5,2.4-1.8,1.8-3.7
	C81.3,16.8,67,5.2,50,5.2c-17,0-31.3,11.5-35.7,27.2C13.8,34.3,15.2,35.7,16.2,36.1"/>
<path class="st1" d="M54,63.5c2.9,0,5.6-1.2,7.3-3.1h9.3c-5,5.7-12.3,9.3-20.5,9.3c-15.1,0-27.4-12.3-27.4-27.4
	c0-15.1,12.3-27.4,27.4-27.4s27.4,12.3,27.4,27.4c0,3.2-0.5,6.2-1.5,9H61.2c-1.7-1.9-4.4-3.1-7.3-3.1c-4.6,0-9.1,3-9.1,7.7
	C44.9,60.4,49.4,63.5,54,63.5z"/>
</svg>
