<?xml version="1.0" encoding="utf-8"?>
<!-- Generator: Adobe Illustrator 27.1.1, SVG Export Plug-In . SVG Version: 6.00 Build 0)  -->
<svg version="1.1" id="Layer_1" xmlns="http://www.w3.org/2000/svg" xmlns:xlink="http://www.w3.org/1999/xlink" x="0px" y="0px"
	 viewBox="0 0 100 83" style="enable-background:new 0 0 100 83;" xml:space="preserve">
<style type="text/css">
	.st0{fill:none;stroke:#ED7424;stroke-width:4;}
	.st1{fill:none;stroke:#F7921E;stroke-width:4;}
</style>
<path class="st0" d="M40.9,44.3L40.9,44.3L40.9,44.3c-8.1,0-16,2.9-22.1,8.3C12.9,57.6,9,64.4,7.6,72c-0.3,1.9,1.1,3.5,2.9,3.5h30.3
	c0.7,0,1.3,0.3,1.8,0.7c0.5,0.5,0.7,1.1,0.7,1.8s-0.3,1.3-0.7,1.8c-0.5,0.5-1.1,0.7-1.8,0.7H4.5c-0.7,0-1.3-0.3-1.8-0.7
	C2.3,79.4,2,78.7,2,78.1c0-7.7,2.3-15.3,6.7-21.7c4-6,9.7-10.7,16.3-13.7c2-0.9,2.4-3.4,1-4.9c-3-3.2-4.9-7.2-5.5-11.6
	c-0.6-4.8,0.4-9.7,3-13.9C26,8.1,30,5,34.6,3.5s9.7-1.4,14.2,0.4c4.5,1.8,8.3,5.1,10.7,9.4c2.3,4.3,3.1,9.2,2.2,14
	c-0.9,4.8-3.5,9.1-7.3,12.2C50.6,42.6,45.8,44.3,40.9,44.3z"/>
<path class="st0" d="M49.6,10.6C47,8.8,44,7.9,40.9,7.9c-4.1,0-8.1,1.6-11.1,4.6c-2.9,2.9-4.6,6.9-4.6,11c0,3.1,0.9,6.1,2.6,8.7
	c1.7,2.6,4.2,4.6,7,5.8c2.9,1.2,6,1.5,9,0.9c3-0.6,5.8-2.1,8-4.3c2.2-2.2,3.7-5,4.3-8c0.6-3,0.3-6.2-0.9-9S52.2,12.3,49.6,10.6z"/>
<path class="st1" d="M98,48.5v22.7c0,0.1,0,0.1-0.1,0.2c-0.1,0.1-0.1,0.1-0.2,0.1h-3.5c-1.7,0-3,1.3-3,3v3.9l-7.8-6.3
	c-0.5-0.4-1.2-0.7-1.9-0.7H61.4c-0.1,0-0.1,0-0.2-0.1c-0.1-0.1-0.1-0.1-0.1-0.2V48.5c0-0.1,0-0.1,0.1-0.2c0.1-0.1,0.1-0.1,0.2-0.1
	h36.4c0.1,0,0.1,0,0.2,0.1C98,48.4,98,48.5,98,48.5z"/>
</svg>
