<svg width="101" height="101" viewBox="0 0 101 101" fill="none" xmlns="http://www.w3.org/2000/svg">
<g id="cloud-computing-data-svgrepo-com 1" clip-path="url(#clip0_3445_5925)">
<g id="Group">
<g id="Group_2">
<path id="Vector" d="M67.5688 51.1836L52.5688 36.1836C51.592 35.207 50.0104 35.207 49.0338 36.1836L34.0338 51.1836C33.0571 52.1604 33.0571 53.742 34.0338 54.7186C35.0106 55.6951 36.5922 55.6953 37.5688 54.7186L48.3004 43.9869V97.9502C48.3004 99.3318 49.4188 100.45 50.8004 100.45C52.1821 100.45 53.3004 99.3318 53.3004 97.9502V43.9852L64.0321 54.7186C64.5204 55.2068 65.1604 55.4502 65.8004 55.4502C66.4405 55.4502 67.0805 55.2068 67.5688 54.7186C68.5454 53.7418 68.5454 52.1602 67.5688 51.1836Z" fill="white"/>
</g>
</g>
<g id="Group_3">
<g id="Group_4">
<path id="Vector_2" d="M78.526 20.9487C77.7413 20.7972 77.0984 20.2277 76.8535 19.4669C73.2649 8.31783 62.8805 0.450195 50.8003 0.450195C38.72 0.450195 28.337 8.31793 24.7472 19.4672C24.5023 20.2278 23.8593 20.7972 23.0747 20.9487C10.4004 23.3952 0.800293 34.5719 0.800293 47.9502C0.800293 63.1135 13.137 75.4502 28.3003 75.4502H41.3003C42.4049 75.4502 43.3003 74.5548 43.3003 73.4502V72.4502C43.3003 71.3456 42.4047 70.4502 41.3001 70.4502C36.3987 70.4502 31.8545 70.4502 28.3003 70.4502C15.8735 70.4502 5.80029 60.377 5.80029 47.9502C5.80029 35.5234 15.8735 25.4502 28.3003 25.4502V25.4502C28.4427 25.4502 28.5622 25.366 28.5795 25.2246C29.9373 14.0984 39.3081 5.4502 50.8003 5.4502C62.2925 5.4502 71.6633 14.0984 73.0211 25.2246C73.0384 25.366 73.1579 25.4502 73.3003 25.4502V25.4502C85.7271 25.4502 95.8003 35.5236 95.8003 47.9502C95.8003 60.3768 85.7271 70.4502 73.3003 70.4502C69.746 70.4502 65.2019 70.4502 60.3005 70.4502C59.1959 70.4502 58.3003 71.3456 58.3003 72.4502V73.4502C58.3003 74.5548 59.1957 75.4502 60.3003 75.4502H73.3003C88.4636 75.4502 100.8 63.1135 100.8 47.9502C100.8 34.572 91.2003 23.3953 78.526 20.9487Z" fill="white"/>
</g>
</g>
</g>
<defs>
<clipPath id="clip0_3445_5925">
<rect width="100" height="100" fill="white" transform="translate(0.800293 0.450195)"/>
</clipPath>
</defs>
</svg>
