<svg width="101" height="101" viewBox="0 0 101 101" fill="none" xmlns="http://www.w3.org/2000/svg">
<g id="email-svgrepo-com (1) 1" clip-path="url(#clip0_3444_5810)">
<path id="Vector" fill-rule="evenodd" clip-rule="evenodd" d="M0.333374 87.1434C0.333374 88.248 1.2288 89.1434 2.33337 89.1434H98.3334C99.4379 89.1434 100.333 88.248 100.333 87.1434V14.6729C100.333 13.5683 99.4379 12.6729 98.3334 12.6729H2.33337C1.2288 12.6729 0.333374 13.5683 0.333374 14.6729V87.1434ZM6.21572 20.5199V20.5199C6.21572 19.4348 7.09538 18.5551 8.18051 18.5551H93.1021C93.8471 18.5551 94.4511 19.1591 94.4511 19.9041V19.9041C94.4511 20.2952 94.2814 20.6671 93.9859 20.9233L51.6437 57.6424C50.8918 58.2945 49.7749 58.2945 49.0231 57.6424L6.21576 20.5199C6.21574 20.5199 6.21572 20.5199 6.21572 20.5199V20.5199ZM94.451 28.3082C94.4511 28.3082 94.4511 28.3082 94.4511 28.3082V72.1128C94.4511 74.0033 92.0704 74.8384 90.8894 73.3622L77.4107 56.5149C76.7213 55.6532 75.4642 55.5127 74.6016 56.201L73.128 57.3768C72.2639 58.0664 72.1231 59.3262 72.8136 60.1894L88.6696 80.0118C89.7171 81.3213 88.7848 83.2611 87.1078 83.2611H13.559C11.882 83.2611 10.9497 81.3213 11.9972 80.0118L27.8532 60.1894C28.5437 59.3262 28.4029 58.0664 27.5388 57.3768L26.0652 56.201C25.2026 55.5127 23.9455 55.6532 23.2561 56.5149L9.77741 73.3622C8.59637 74.8384 6.21572 74.0033 6.21572 72.1128V32.6899C6.21572 30.9757 8.23103 30.0558 9.52604 31.1789L49.0231 65.4307C49.7749 66.0827 50.8918 66.0827 51.6437 65.4307L94.451 28.3082C94.451 28.3082 94.451 28.3082 94.451 28.3082V28.3082Z" fill="white"/>
</g>
<defs>
<clipPath id="clip0_3444_5810">
<rect width="100" height="100" fill="white" transform="translate(0.333374 0.902344)"/>
</clipPath>
</defs>
</svg>
