<svg width="101" height="101" viewBox="0 0 101 101" fill="none" xmlns="http://www.w3.org/2000/svg">
<g id="website-theme-svgrepo-com 1" clip-path="url(#clip0_3444_5945)">
<path id="Vector" d="M58.6668 50.902C56.0102 50.902 53.8135 51.9487 52.4002 53.5453C50.9868 55.1453 50.3335 57.2053 50.3335 59.2353C50.3335 61.8353 48.4402 63.962 47.6335 64.592C46.3935 65.572 47.0835 67.5653 48.6668 67.5687H57.0002C59.6202 67.5687 62.0568 66.802 63.9068 65.362C65.7568 63.922 67.0002 61.7287 67.0002 59.2353C67.0002 56.9587 66.3568 54.8353 64.9002 53.2853C63.4335 51.7353 61.2435 50.902 58.6668 50.902ZM58.6668 54.2353C60.5668 54.2353 61.7135 54.7687 62.4668 55.5687C63.2235 56.3687 63.6668 57.5753 63.6668 59.2353C63.6668 60.6753 63.0335 61.822 61.8668 62.7353C60.6902 63.642 58.9602 64.2353 57.0002 64.2353H52.2568C53.0468 62.902 53.6635 61.2353 53.6635 59.2353C53.6635 57.9353 54.0968 56.662 54.8902 55.7587C55.6902 54.8587 56.8368 54.2353 58.6668 54.2353ZM97.9468 17.602C97.5268 17.652 97.1702 17.762 96.7735 17.902C95.9802 18.1687 95.0635 18.602 93.9802 19.1487C91.8135 20.2487 89.0568 21.8587 86.1468 23.6987C80.3135 27.3754 73.9468 31.8887 70.6735 35.1587C67.5568 38.272 65.2868 41.1053 64.2202 43.9487C63.1535 46.7887 63.6002 49.872 65.8135 52.082C68.0302 54.2987 71.1135 54.7487 73.9535 53.682C76.7968 52.6153 79.6302 50.342 82.7435 47.2287C86.0102 43.952 90.5268 37.5854 94.2102 31.762C96.0502 28.842 97.6602 26.082 98.7602 23.9187C99.3102 22.8387 99.7368 21.9187 100.01 21.1254C100.144 20.7254 100.25 20.372 100.297 19.952C100.34 19.532 100.454 18.862 99.7402 18.152C99.0268 17.4354 98.3635 17.552 97.9402 17.5954L97.9468 17.602ZM95.7902 22.4154C94.7668 24.4254 93.1902 27.1354 91.3902 29.982C87.7902 35.692 83.1902 42.0754 80.3902 44.8753C77.4302 47.832 74.7968 49.8087 72.7802 50.5653C70.7668 51.3153 69.6002 51.1553 68.1702 49.732C66.7468 48.2987 66.5868 47.132 67.3368 45.1187C68.0968 43.1054 70.0702 40.472 73.0368 37.5187C75.8368 34.7187 82.2168 30.1187 87.9235 26.5187C90.7768 24.712 93.4835 23.1354 95.4968 22.112C95.9435 21.992 95.9302 22.1854 95.7968 22.412L95.7902 22.4154ZM8.66683 27.5687H65.3335C66.2568 27.5687 67.0002 28.312 67.0002 29.2354C67.0002 30.1587 66.2568 30.902 65.3335 30.902H8.66683C7.7435 30.902 7.00016 30.1587 7.00016 29.2354C7.00016 28.312 7.7435 27.5687 8.66683 27.5687ZM23.6668 22.5687C23.6668 23.4887 22.9202 24.2354 22.0002 24.2354C21.0802 24.2354 20.3335 23.4887 20.3335 22.5687C20.3335 21.6487 21.0802 20.902 22.0002 20.902C22.9202 20.902 23.6668 21.6487 23.6668 22.5687ZM17.0002 22.5687C17.0002 23.4887 16.2535 24.2354 15.3335 24.2354C14.4135 24.2354 13.6668 23.4887 13.6668 22.5687C13.6668 21.6487 14.4135 20.902 15.3335 20.902C16.2535 20.902 17.0002 21.6487 17.0002 22.5687ZM10.3335 22.5687C10.3335 23.4887 9.58683 24.2354 8.66683 24.2354C7.74683 24.2354 7.00016 23.4887 7.00016 22.5687C7.00016 21.6487 7.74683 20.902 8.66683 20.902C9.58683 20.902 10.3335 21.6487 10.3335 22.5687ZM5.3335 14.2354C2.5935 14.2354 0.333496 16.4954 0.333496 19.2354V82.5687C0.333496 85.3087 2.5935 87.5687 5.3335 87.5687H88.6668C91.4068 87.5687 93.6668 85.3087 93.6668 82.5687V42.5687C93.6668 40.342 90.3335 40.352 90.3335 42.5687V82.5687C90.3335 83.522 89.6202 84.2353 88.6668 84.2353H5.3335C4.38016 84.2353 3.66683 83.522 3.66683 82.5687V19.2354C3.66683 18.282 4.38016 17.5687 5.3335 17.5687H88.6668C90.8835 17.5687 90.8568 14.2354 88.6668 14.2354H5.3335Z" fill="white"/>
</g>
<defs>
<clipPath id="clip0_3444_5945">
<rect width="100" height="100" fill="white" transform="translate(0.333496 0.902344)"/>
</clipPath>
</defs>
</svg>
