<svg width="101" height="101" viewBox="0 0 101 101" fill="none" xmlns="http://www.w3.org/2000/svg">
<g id="database-svgrepo-com (1) 1" clip-path="url(#clip0_3444_5931)">
<g id="Group">
<path id="Vector" d="M98.6933 74.7629C98.4898 74.1191 97.9319 73.6507 97.2653 73.556L83.6227 71.6456L77.532 59.7519C76.932 58.5801 75.0094 58.5801 74.4112 59.7519L68.3205 71.6456L54.6778 73.556C54.0095 73.6507 53.4534 74.1173 53.2499 74.7629C53.0464 75.4084 53.2288 76.1101 53.7218 76.5715L63.5542 85.811L61.2351 98.8397C61.1194 99.494 61.3825 100.157 61.9158 100.555C62.4508 100.954 63.1648 101.017 63.756 100.711L75.9742 94.5225L88.1907 100.711C88.4415 100.84 88.7134 100.901 88.9836 100.901C89.3537 100.901 89.7221 100.785 90.0309 100.555C90.5642 100.159 90.8273 99.4958 90.7115 98.8397L88.3942 85.811L98.2266 76.5715C98.7143 76.1101 98.8985 75.4084 98.6933 74.7629ZM85.2962 83.9042C84.8646 84.3094 84.6664 84.9058 84.7699 85.4883L86.6364 95.9908L76.7636 90.9878C76.2637 90.7334 75.6777 90.7334 75.1778 90.9878L65.3032 95.9908L67.1715 85.4883C67.2767 84.9058 67.0767 84.3094 66.6452 83.9042L58.788 76.5241L69.7081 74.9944C70.2729 74.9155 70.7659 74.5664 71.0255 74.0577L75.9689 64.4024L80.9124 74.0577C81.172 74.5664 81.6649 74.9155 82.2298 74.9944L93.1499 76.5241L85.2962 83.9042Z" fill="white"/>
<path id="Vector_2" d="M46.4137 72.8259C44.9629 72.8259 43.542 72.7978 42.1474 72.7487C41.2948 72.7171 40.4721 72.6627 39.6406 72.6136C39.1266 72.5838 38.5968 72.5645 38.0916 72.5276C36.9864 72.4487 35.9128 72.3452 34.8515 72.2347C34.6515 72.2136 34.4428 72.1996 34.2446 72.1785C33.0289 72.0452 31.8448 71.8926 30.6905 71.7242C30.6607 71.7207 30.6308 71.7172 30.601 71.7119C24.6629 70.8348 19.5669 69.4963 15.583 67.907C15.562 67.9 15.5409 67.8912 15.5199 67.8824C14.7849 67.5877 14.0954 67.2825 13.4394 66.972C13.3639 66.9351 13.2832 66.9001 13.2078 66.8632C12.6184 66.579 12.0728 66.2878 11.5501 65.9914C11.4273 65.9212 11.2974 65.8528 11.1782 65.7809C10.7238 65.5142 10.3098 65.2423 9.91336 64.9687C9.76249 64.8634 9.60637 64.7581 9.46252 64.6529C9.12746 64.4055 8.82749 64.1564 8.53979 63.9056C8.38367 63.767 8.22579 63.6302 8.08369 63.4916C7.84863 63.2635 7.64163 63.0337 7.44691 62.8039C7.31008 62.6425 7.17851 62.4794 7.06273 62.318C6.90836 62.1022 6.77679 61.8865 6.6575 61.6707C6.56277 61.497 6.47857 61.3234 6.40665 61.1497C6.32069 60.9374 6.25227 60.7252 6.20316 60.5147C6.13649 60.2305 6.06457 59.9445 6.06457 59.6639V45.2669C6.11369 45.3125 6.17509 45.3563 6.22596 45.4019C6.60838 45.737 6.99782 46.0721 7.43638 46.3948C14.0463 51.3997 27.261 55.2835 46.4137 55.2835C65.4857 55.2835 78.667 51.4312 85.3032 46.4633C85.833 46.0773 86.3102 45.6791 86.7592 45.2739L86.761 60.5462C86.761 61.5163 87.5451 62.3005 88.5152 62.3005C89.4853 62.3005 90.2695 61.5163 90.2695 60.5462V39.4954V38.6183V17.5675V16.6904C90.2695 16.3712 90.1607 16.0887 90.0133 15.8309C87.9819 8.3052 72.8622 0.902344 46.4137 0.902344C19.9634 0.902344 4.84363 8.3052 2.81398 15.8309C2.66487 16.0887 2.55786 16.3712 2.55786 16.6904V17.5675V38.6183V39.4954V59.6691V60.5462V81.597C2.55786 81.8794 2.63154 82.1461 2.7596 82.3829C4.75767 90.8611 21.5141 95.8554 37.5109 97.0553C37.5548 97.0588 37.6004 97.0606 37.6443 97.0606C38.5547 97.0606 39.3231 96.3606 39.3915 95.4379C39.4634 94.4713 38.7407 93.6293 37.7741 93.5574C18.2775 92.0943 6.91537 86.158 6.12246 81.3128C6.10843 81.2339 6.08913 81.1585 6.06633 81.083V66.3229C6.11544 66.3685 6.17684 66.4124 6.22771 66.458C6.61014 66.7931 6.99958 67.1281 7.43814 67.4509C14.0463 72.4505 27.261 76.3343 46.4137 76.3343C47.3838 76.3343 48.1679 75.5502 48.1679 74.5801C48.1679 73.61 47.382 72.8259 46.4137 72.8259ZM7.12062 25.1055C7.64689 25.5195 8.21526 25.9282 8.83099 26.3264C8.95905 26.4089 9.1029 26.4896 9.23622 26.572C9.75197 26.893 10.2975 27.2071 10.8712 27.5158C11.0834 27.6298 11.2957 27.7421 11.515 27.8544C12.1553 28.1807 12.8271 28.4964 13.5341 28.8052C13.6499 28.856 13.7551 28.9087 13.8727 28.9578C14.6954 29.3069 15.569 29.6402 16.4777 29.9612C16.7285 30.0507 16.9917 30.1349 17.2496 30.2226C17.9723 30.4664 18.7196 30.6997 19.4932 30.926C19.7721 31.0067 20.0458 31.0909 20.3317 31.1699C21.358 31.454 22.4175 31.7242 23.5297 31.9733C23.6823 32.0084 23.8472 32.0382 24.0016 32.0715C24.9822 32.2856 25.9997 32.4838 27.0452 32.668C27.3995 32.7311 27.7592 32.7908 28.1205 32.8504C29.1152 33.0136 30.1397 33.1644 31.1904 33.3013C31.4606 33.3363 31.7185 33.3749 31.9921 33.41C33.2973 33.5679 34.648 33.703 36.0356 33.8188C36.3777 33.8468 36.7338 33.8679 37.0811 33.8924C38.1916 33.9731 39.3266 34.0398 40.4879 34.0924C40.9106 34.1117 41.3317 34.131 41.7632 34.145C43.2771 34.1977 44.8173 34.2328 46.4119 34.2328C48.0065 34.2328 49.5485 34.1959 51.0606 34.145C51.4904 34.131 51.9114 34.11 52.336 34.0924C53.4973 34.0398 54.6322 33.9731 55.7427 33.8924C56.09 33.8661 56.4444 33.8468 56.7882 33.8188C58.1758 33.7047 59.5266 33.5679 60.8317 33.41C61.1054 33.3767 61.3632 33.3363 61.6334 33.3013C62.6842 33.1644 63.7069 33.0136 64.7033 32.8504C65.0647 32.7908 65.4243 32.7311 65.7786 32.668C66.8242 32.4838 67.8416 32.2856 68.8222 32.0715C68.9766 32.0382 69.1415 32.0084 69.2941 31.9733C70.4063 31.7242 71.4659 31.454 72.4921 31.1699C72.778 31.0909 73.0517 31.0085 73.3306 30.926C74.1042 30.7015 74.8515 30.4664 75.5743 30.2226C75.8321 30.1349 76.0953 30.0507 76.3461 29.9612C77.2548 29.6384 78.1302 29.3051 78.9512 28.9578C79.0687 28.9087 79.1739 28.8543 79.2897 28.8052C79.9967 28.4964 80.6686 28.1807 81.3089 27.8544C81.5281 27.7421 81.7421 27.6298 81.9527 27.5158C82.5263 27.2088 83.0719 26.8948 83.5876 26.572C83.7209 26.4896 83.8648 26.4089 83.9928 26.3264C84.6086 25.9282 85.1769 25.5212 85.7032 25.1055C85.8348 25.0002 85.9523 24.895 86.0804 24.7897C86.3084 24.6003 86.5487 24.4126 86.7592 24.2214V38.6183C86.7592 38.9008 86.6873 39.185 86.6207 39.4691C86.5715 39.6814 86.5031 39.8919 86.4172 40.1042C86.347 40.2778 86.261 40.4515 86.1663 40.6252C86.0488 40.8409 85.9172 41.0567 85.7611 41.2725C85.6453 41.4339 85.5137 41.597 85.3769 41.7584C85.1822 41.9882 84.9752 42.218 84.7401 42.4461C84.598 42.5847 84.4419 42.7215 84.284 42.8601C83.9963 43.1109 83.6964 43.36 83.3613 43.6074C83.2175 43.7144 83.0631 43.8179 82.9105 43.9231C82.514 44.1968 82.1 44.4687 81.6457 44.7353C81.5264 44.8073 81.3983 44.8757 81.2738 44.9458C80.751 45.2406 80.2054 45.5318 79.616 45.8177C79.5406 45.8545 79.4616 45.8896 79.3845 45.9265C78.7266 46.237 78.039 46.5422 77.3039 46.8369C77.2829 46.8457 77.2618 46.8527 77.2408 46.8615C73.2569 48.4526 68.1609 49.791 62.2228 50.6664C62.193 50.6699 62.1632 50.6734 62.1333 50.6787C60.9791 50.8488 59.7949 51.0015 58.5793 51.133C58.381 51.1541 58.1723 51.1681 57.9723 51.1892C56.911 51.2997 55.8374 51.4014 54.7322 51.4821C54.227 51.519 53.6972 51.5383 53.1832 51.5681C52.3517 51.6172 51.529 51.6716 50.6764 51.7031C49.2853 51.747 47.8627 51.7751 46.4137 51.7751C44.9647 51.7751 43.542 51.747 42.1474 51.6979C41.2948 51.6663 40.4721 51.6119 39.6406 51.5628C39.1266 51.533 38.5968 51.5137 38.0916 51.4769C36.9864 51.3979 35.9128 51.2944 34.8515 51.1839C34.6515 51.1628 34.4428 51.1488 34.2446 51.1278C33.0289 50.9944 31.8448 50.8418 30.6905 50.6734C30.6607 50.6699 30.6308 50.6664 30.601 50.6611C24.6629 49.784 19.5669 48.4455 15.583 46.8562C15.562 46.8492 15.5409 46.8404 15.5199 46.8316C14.7849 46.5369 14.0954 46.2317 13.4394 45.9212C13.3639 45.8844 13.2832 45.8493 13.2078 45.8124C12.6184 45.5283 12.0728 45.2371 11.5501 44.9406C11.4273 44.8704 11.2974 44.802 11.1782 44.7301C10.7238 44.4634 10.3098 44.1915 9.91336 43.9179C9.76249 43.8126 9.60637 43.7074 9.46252 43.6021C9.12746 43.3548 8.82749 43.1057 8.53979 42.8548C8.38367 42.7162 8.22579 42.5794 8.08369 42.4408C7.84863 42.2128 7.64163 41.983 7.44691 41.7531C7.31008 41.5918 7.17851 41.4286 7.06273 41.2672C6.90836 41.0515 6.77679 40.8357 6.6575 40.6199C6.56277 40.4462 6.47857 40.2726 6.40665 40.0989C6.32069 39.8866 6.25227 39.6744 6.20316 39.4639C6.13649 39.1797 6.06457 38.8937 6.06457 38.6131V24.2161C6.27508 24.4073 6.51541 24.595 6.74346 24.7845C6.87152 24.895 6.98905 25.0002 7.12062 25.1055ZM46.4137 4.41081C70.1923 4.41081 86.761 11.3435 86.761 17.5675C86.761 23.7916 70.1923 30.7243 46.4137 30.7243C22.635 30.7243 6.06633 23.7916 6.06633 17.5675C6.06633 11.3435 22.635 4.41081 46.4137 4.41081Z" fill="white"/>
</g>
</g>
<defs>
<clipPath id="clip0_3444_5931">
<rect width="100" height="100" fill="white" transform="translate(0.666748 0.902344)"/>
</clipPath>
</defs>
</svg>
