<svg width="101" height="101" viewBox="0 0 101 101" fill="none" xmlns="http://www.w3.org/2000/svg">
<g id="design-studio-svgrepo-com (1) 1" clip-path="url(#clip0_3445_5819)">
<path id="Vector" d="M73.7273 23.1818V69.9057L80.5455 76.774L87.3636 69.9057V23.1818H73.7273ZM73.7273 18.6364H87.3636V9.61236H73.7273V18.6364ZM91.9091 27.7273V70.8422C91.9091 71.4421 91.6719 72.0176 91.2493 72.4433L82.1584 81.6012C81.2695 82.4966 79.8214 82.4966 78.9325 81.6012L69.8416 72.4433C69.419 72.0176 69.1818 71.4421 69.1818 70.8422V59.5455H66.9091C63.1435 59.5455 60.0909 56.4928 60.0909 52.7273V39.0909C60.0909 35.3253 63.1435 32.2727 66.9091 32.2727H69.1818V27.7273H23.7273V61.8182C23.7273 63.0734 22.7097 64.0909 21.4545 64.0909H19.1818C11.6507 64.0909 5.54545 70.1961 5.54545 77.7273C5.54545 85.2584 11.6507 91.3636 19.1818 91.3636H96.4545V27.7273H91.9091ZM91.9091 23.1818H98.7273C99.9825 23.1818 101 24.1994 101 25.4545V93.6364C101 94.8916 99.9825 95.9091 98.7273 95.9091H19.1818C9.14028 95.9091 1 87.7688 1 77.7273V25.4545C1 14.1578 10.1578 5 21.4545 5C22.7097 5 23.7273 6.01753 23.7273 7.27273V23.1818H69.1818V7.33963C69.1818 6.08444 70.1994 5.0669 71.4545 5.0669H89.6364C90.8916 5.0669 91.9091 6.08444 91.9091 7.33963V23.1818ZM69.1818 36.8182H66.9091C65.6539 36.8182 64.6364 37.8357 64.6364 39.0909V52.7273C64.6364 53.9825 65.6539 55 66.9091 55H69.1818V36.8182ZM5.54545 65.7008C8.87702 61.9262 13.7514 59.5455 19.1818 59.5455V9.70657C11.4721 10.8094 5.54545 17.4398 5.54545 25.4545V65.7008ZM35.0909 32.2727H48.7273C52.4928 32.2727 55.5455 35.3253 55.5455 39.0909V52.7273C55.5455 56.4928 52.4928 59.5455 48.7273 59.5455H35.0909C31.3253 59.5455 28.2727 56.4928 28.2727 52.7273V39.0909C28.2727 35.3253 31.3253 32.2727 35.0909 32.2727ZM35.0909 36.8182C33.8357 36.8182 32.8182 37.8357 32.8182 39.0909V52.7273C32.8182 53.9825 33.8357 55 35.0909 55H48.7273C49.9825 55 51 53.9825 51 52.7273V39.0909C51 37.8357 49.9825 36.8182 48.7273 36.8182H35.0909ZM30.5455 73.1818C29.2903 73.1818 28.2727 72.1643 28.2727 70.9091C28.2727 69.6539 29.2903 68.6364 30.5455 68.6364H62.3636C63.6188 68.6364 64.6364 69.6539 64.6364 70.9091C64.6364 72.1643 63.6188 73.1818 62.3636 73.1818H30.5455ZM30.5455 82.2727C29.2903 82.2727 28.2727 81.2552 28.2727 80C28.2727 78.7448 29.2903 77.7273 30.5455 77.7273H66.9091C68.1643 77.7273 69.1818 78.7448 69.1818 80C69.1818 81.2552 68.1643 82.2727 66.9091 82.2727H30.5455Z" fill="white"/>
</g>
<defs>
<clipPath id="clip0_3445_5819">
<rect width="100" height="100" fill="white" transform="translate(0.666748 0.354492)"/>
</clipPath>
</defs>
</svg>
