<svg width="101" height="101" viewBox="0 0 101 101" fill="none" xmlns="http://www.w3.org/2000/svg">
<g id="users-svgrepo-com 1">
<path id="Vector" d="M50.6003 68.9377C35.6097 69.0002 23.0815 79.4658 19.8597 93.4877L19.819 93.7002C19.7847 93.8502 19.7659 94.0221 19.7659 94.2002C19.7659 95.4939 20.8159 96.5439 22.1097 96.5439C23.2253 96.5439 24.1597 95.7627 24.394 94.7158L24.3972 94.7002C27.1315 82.5596 37.8253 73.6252 50.6034 73.6252C63.3815 73.6252 74.0753 82.5596 76.7753 94.5221L76.8097 94.7002C77.0472 95.7627 77.9784 96.5439 79.0972 96.5439H79.1003C79.2784 96.5439 79.4503 96.5221 79.6159 96.4846L79.6003 96.4877C80.6628 96.2502 81.444 95.3158 81.444 94.1971C81.444 94.0189 81.4253 93.8471 81.3878 93.6814L81.3909 93.6971C78.1253 79.4658 65.594 69.0002 50.6128 68.9346H50.6066L50.6003 68.9377ZM29.2378 33.5814C37.3065 33.5814 43.8503 27.0408 43.8503 18.9689C43.8503 10.8971 37.3097 4.35645 29.2378 4.35645C21.169 4.35645 14.6253 10.8971 14.6253 18.9689C14.6347 27.0346 21.1753 33.5721 29.2378 33.5814ZM29.2378 9.04395C34.719 9.04395 39.1628 13.4877 39.1628 18.9689C39.1628 24.4502 34.719 28.8939 29.2378 28.8939C23.7565 28.8939 19.3128 24.4502 19.3128 18.9689C19.319 13.4908 23.7628 9.0502 29.2378 9.04395ZM72.244 33.5814C80.3128 33.5814 86.8565 27.0408 86.8565 18.9689C86.8565 10.8971 80.3159 4.35645 72.244 4.35645C64.1753 4.35645 57.6315 10.8971 57.6315 18.9689C57.6409 27.0346 64.1784 33.5721 72.2409 33.5814H72.244ZM72.244 9.04395C77.7253 9.04395 82.169 13.4877 82.169 18.9689C82.169 24.4502 77.7253 28.8939 72.244 28.8939C66.7628 28.8939 62.319 24.4502 62.319 18.9689C62.3253 13.4908 66.7659 9.0502 72.244 9.04395ZM96.919 62.4502C94.1753 50.2814 83.4565 41.3283 70.6503 41.3283C69.3284 41.3283 68.0284 41.4252 66.7565 41.6064L66.9003 41.5877C66.7472 41.6252 66.6128 41.6752 66.4847 41.7346L66.4972 41.7283C64.1503 35.0752 57.919 30.3939 50.594 30.3939C43.3003 30.3939 37.0909 35.0346 34.7565 41.5221L34.719 41.6408C34.6659 41.6283 34.6253 41.5971 34.5722 41.5877C33.4503 41.4221 32.1565 41.3252 30.8378 41.3252C30.8315 41.3252 30.8222 41.3252 30.8159 41.3252C18.0284 41.3814 7.34404 50.3064 4.59092 62.2658L4.55654 62.4471C4.52217 62.5971 4.50342 62.7689 4.50342 62.9471C4.50342 64.2408 5.55342 65.2908 6.84717 65.2908C7.96279 65.2908 8.89717 64.5096 9.13154 63.4627L9.13467 63.4471C11.4378 53.4252 20.2597 46.0564 30.8128 46.0127H30.819C31.8659 46.0127 32.894 46.0877 33.8972 46.2314L33.7815 46.2189C33.7565 46.5908 33.669 46.9439 33.669 47.3252C33.6878 56.6596 41.2597 64.2189 50.5972 64.2189C59.9347 64.2189 67.5065 56.6596 67.5222 47.3252V47.3221C67.5222 46.9471 67.4347 46.5939 67.4097 46.2221C67.4597 46.2158 67.5065 46.2377 67.5565 46.2252C68.4753 46.0877 69.5378 46.0127 70.619 46.0127C70.6315 46.0127 70.6409 46.0127 70.6534 46.0127C81.2128 46.0533 90.0347 53.4221 92.3066 63.2971L92.3347 63.4471C92.5722 64.5096 93.5065 65.2877 94.6222 65.2908C94.8003 65.2908 94.9722 65.2689 95.1378 65.2314L95.1222 65.2346C96.1847 64.9971 96.9659 64.0627 96.9659 62.9439C96.9659 62.7658 96.9472 62.5939 96.9097 62.4283L96.9128 62.4439L96.919 62.4502ZM50.6003 59.5627C50.6003 59.5627 50.6003 59.5627 50.5972 59.5627C43.8378 59.5627 38.3565 54.0846 38.3565 47.3221C38.3565 40.5596 43.8378 35.0814 50.5972 35.0814C57.3565 35.0814 62.8378 40.5627 62.8378 47.3221C62.8378 47.3221 62.8378 47.3221 62.8378 47.3252C62.8284 54.0814 57.3565 59.5533 50.6003 59.5627Z" fill="white"/>
</g>
</svg>
