<svg width="101" height="101" viewBox="0 0 101 101" fill="none" xmlns="http://www.w3.org/2000/svg">
<g id="image-svgrepo-com (4) 1" clip-path="url(#clip0_3445_5811)">
<path id="Vector" d="M97.4543 7H2.54229C1.13894 7 0 8.13894 0 9.54229V90.8955C0 90.97 0.0372869 91.0344 0.0440663 91.109C0.0847429 91.4582 0.179655 91.7802 0.322023 92.0717L0.315244 92.0547C0.48473 92.3496 0.688112 92.6039 0.928782 92.8174L0.932172 92.8208C0.989797 92.8717 1.02369 92.9395 1.0881 92.9835C1.13894 93.0174 1.19996 93.0039 1.2508 93.0344C1.6135 93.275 2.05756 93.4242 2.53212 93.4377H2.53551L2.54229 93.4411H97.4577C98.8611 93.4411 100 92.3022 100 90.8989V9.54568C100 8.14233 98.8611 7.00339 97.4577 7.00339L97.4543 7ZM94.912 12.0846V62.1541L72.4552 28.4705C71.9671 27.823 71.201 27.4095 70.3366 27.4095C69.4722 27.4095 68.7061 27.823 68.2214 28.4637L68.218 28.4705L42.6426 66.8353L27.8601 55.0119C27.4296 54.6662 26.8771 54.456 26.2737 54.456C25.4161 54.456 24.6568 54.8831 24.1958 55.534L24.189 55.5407L5.08457 82.8313V12.0846H94.912ZM7.42348 88.3532L26.7991 60.6795L41.6291 72.5435C42.0393 72.8961 42.5782 73.1096 43.168 73.1096C43.324 73.1096 43.4765 73.0961 43.6256 73.0656L43.6121 73.0689C44.3375 72.9571 44.9476 72.5503 45.3307 71.9775L45.3374 71.9673L70.34 34.4669L94.9154 71.3334V88.3532H7.42348ZM22.8806 39.2023C28.0296 39.2023 32.2023 35.0296 32.2023 29.8806C32.2023 24.7316 28.0296 20.5589 22.8806 20.5589C17.7316 20.5589 13.5589 24.7316 13.5589 29.8806C13.5656 35.0262 17.735 39.1955 22.8806 39.2023ZM22.8806 25.6434C25.2195 25.6434 27.1177 27.5417 27.1177 29.8806C27.1177 32.2195 25.2195 34.1177 22.8806 34.1177C20.5417 34.1177 18.6434 32.2195 18.6434 29.8806C18.6468 27.5417 20.5417 25.6468 22.8806 25.6434Z" fill="white"/>
</g>
<defs>
<clipPath id="clip0_3445_5811">
<rect width="100" height="100" fill="white" transform="translate(0.333496 0.354492)"/>
</clipPath>
</defs>
</svg>
