<svg width="100" height="101" viewBox="0 0 100 101" fill="none" xmlns="http://www.w3.org/2000/svg">
<path d="M3.33333 15.6873C3.33333 14.5828 4.22876 13.6873 5.33333 13.6873H24.9257C26.8714 13.6873 27.905 16.4976 26.773 18.0801C24.6246 21.0836 23.3333 24.7496 23.3333 28.6873V35.354C23.3333 38.9464 24.2006 42.1671 26.0418 45.0161C26.5388 45.7851 27.5843 45.9158 28.3168 45.3664C29.0623 44.8073 29.2036 43.7541 28.7265 42.9536C27.3533 40.6493 26.6667 38.1161 26.6667 35.354V28.6873C26.6667 20.354 33.3333 13.6873 41.6667 13.6873C50 13.6873 56.6667 20.354 56.6667 28.6873V35.354C56.6667 38.1161 55.9801 40.6493 54.6068 42.9536C54.1298 43.7541 54.271 44.8073 55.0165 45.3664C55.749 45.9158 56.7946 45.7851 57.2915 45.0161C59.1328 42.1671 60 38.9464 60 35.354V28.6873C60 24.7944 58.8045 21.1672 56.7069 18.183C55.5783 16.5774 56.6269 13.6873 58.5895 13.6873H78C79.1046 13.6873 80 14.5828 80 15.6873V38.6873C80 39.6078 80.7462 40.354 81.6667 40.354C82.5871 40.354 83.3333 39.6078 83.3333 38.6873V12.0207C83.3333 11.0207 82.6667 10.354 81.6667 10.354H1.66667C0.666667 10.354 0 11.0207 0 12.0207V52.0207C0 53.0207 0.666667 53.6873 1.66667 53.6873H13.3333C14.2538 53.6873 15 52.9411 15 52.0207C15 51.1002 14.2538 50.354 13.3333 50.354H5.33334C4.22877 50.354 3.33333 49.4586 3.33333 48.354V15.6873Z" fill="#3B7C93"/>
<path d="M98.3333 47.0207H18.3333C17.3333 47.0207 16.6667 47.6873 16.6667 48.6873V88.6873C16.6667 89.6873 17.3333 90.354 18.3333 90.354H98.3333C99.3333 90.354 100 89.6873 100 88.6873V48.6873C100 47.6873 99.3333 47.0207 98.3333 47.0207ZM22 87.0207C20.8954 87.0207 20 86.1252 20 85.0207V52.354C20 51.2494 20.8954 50.354 22 50.354H41.5924C43.5381 50.354 44.5717 53.1643 43.4397 54.7468C41.2912 57.7503 40 61.4162 40 65.354V72.0207C40 75.9136 41.1955 79.5408 43.2931 82.525C44.4217 84.1306 43.3731 87.0207 41.4106 87.0207H22ZM58.3333 50.354C66.6667 50.354 73.3333 57.0207 73.3333 65.354V72.0207C73.3333 80.354 66.6667 87.0207 58.3333 87.0207C50 87.0207 43.3333 80.354 43.3333 72.0207V65.354C43.3333 57.0207 50 50.354 58.3333 50.354ZM96.6667 85.0207C96.6667 86.1252 95.7712 87.0207 94.6667 87.0207H75.0743C73.1286 87.0207 72.095 84.2104 73.227 82.6279C75.3755 79.6244 76.6667 75.9584 76.6667 72.0207V65.354C76.6667 61.4611 75.4711 57.8339 73.3735 54.8497C72.2449 53.2441 73.2935 50.354 75.2561 50.354H94.6667C95.7712 50.354 96.6667 51.2494 96.6667 52.354V85.0207Z" fill="#3B7C93"/>
<path d="M6.66667 18.6873V23.6873C6.66667 24.6078 7.41286 25.354 8.33333 25.354C9.25381 25.354 10 24.6078 10 23.6873V22.354C10 21.2494 10.8954 20.354 12 20.354H13.3333C14.2538 20.354 15 19.6078 15 18.6873C15 17.7669 14.2538 17.0207 13.3333 17.0207H8.33333C7.33333 17.0207 6.66667 17.6873 6.66667 18.6873Z" fill="#3B7C93"/>
<path d="M76.6667 18.6873C76.6667 17.6873 76 17.0207 75 17.0207H70C69.0795 17.0207 68.3333 17.7669 68.3333 18.6873C68.3333 19.6078 69.0795 20.354 70 20.354H71.3333C72.4379 20.354 73.3333 21.2494 73.3333 22.354V23.6873C73.3333 24.6078 74.0795 25.354 75 25.354C75.9205 25.354 76.6667 24.6078 76.6667 23.6873V18.6873Z" fill="#3B7C93"/>
<path d="M23.3333 55.354V60.354C23.3333 61.2745 24.0795 62.0207 25 62.0207C25.9205 62.0207 26.6667 61.2745 26.6667 60.354V59.0207C26.6667 57.9161 27.5621 57.0207 28.6667 57.0207H30C30.9205 57.0207 31.6667 56.2745 31.6667 55.354C31.6667 54.4335 30.9205 53.6873 30 53.6873H25C24 53.6873 23.3333 54.354 23.3333 55.354Z" fill="#3B7C93"/>
<path d="M90 60.354C90 61.2745 90.7462 62.0207 91.6667 62.0207C92.5871 62.0207 93.3333 61.2745 93.3333 60.354V55.354C93.3333 54.354 92.6667 53.6873 91.6667 53.6873H86.6667C85.7462 53.6873 85 54.4335 85 55.354C85 56.2745 85.7462 57.0207 86.6667 57.0207H88C89.1046 57.0207 90 57.9161 90 59.0207V60.354Z" fill="#3B7C93"/>
<path d="M93.3333 82.0207V77.0207C93.3333 76.1002 92.5871 75.354 91.6667 75.354C90.7462 75.354 90 76.1002 90 77.0207V78.354C90 79.4586 89.1046 80.354 88 80.354H86.6667C85.7462 80.354 85 81.1002 85 82.0207C85 82.9411 85.7462 83.6873 86.6667 83.6873H91.6667C92.6667 83.6873 93.3333 83.0207 93.3333 82.0207Z" fill="#3B7C93"/>
<path d="M26.6667 77.0207C26.6667 76.1002 25.9205 75.354 25 75.354C24.0795 75.354 23.3333 76.1002 23.3333 77.0207V82.0207C23.3333 83.0207 24 83.6873 25 83.6873H30C30.9205 83.6873 31.6667 82.9411 31.6667 82.0207C31.6667 81.1002 30.9205 80.354 30 80.354H28.6667C27.5621 80.354 26.6667 79.4586 26.6667 78.354V77.0207Z" fill="#3B7C93"/>
<path d="M76.6667 40.354C76.6667 39.4335 75.9205 38.6873 75 38.6873C74.0795 38.6873 73.3333 39.4335 73.3333 40.354V42.0207C73.3333 42.9411 74.0795 43.6873 75 43.6873C75.9205 43.6873 76.6667 42.9411 76.6667 42.0207V40.354Z" fill="#3B7C93"/>
<path d="M10 40.354C10 39.4335 9.25381 38.6873 8.33333 38.6873C7.41286 38.6873 6.66667 39.4335 6.66667 40.354V45.354C6.66667 46.354 7.33333 47.0207 8.33333 47.0207H13.3333C14.2538 47.0207 15 46.2745 15 45.354C15 44.4335 14.2538 43.6873 13.3333 43.6873H12C10.8954 43.6873 10 42.7919 10 41.6873V40.354Z" fill="#3B7C93"/>
<path d="M51 73.6873C51.6443 74.3317 52.689 74.3317 53.3333 73.6873L53.8654 73.1553C54.2159 72.8048 54.2159 72.2365 53.8654 71.8861C53.3 71.3207 53.7004 70.354 54.5 70.354H68.3333C69.2538 70.354 70 69.6078 70 68.6873C70 67.7669 69.2538 67.0207 68.3333 67.0207H54.5C53.7004 67.0207 53.3 66.054 53.8654 65.4886C54.2159 65.1381 54.2159 64.5699 53.8654 64.2194L53.3333 63.6873C52.689 63.043 51.6443 63.043 51 63.6873L47.1667 67.5207C46.5 68.1873 46.5 69.1873 47.1667 69.854L51 73.6873Z" fill="#3B7C93"/>
<path d="M46.6667 35.354C47.311 35.9983 48.3557 35.9983 49 35.354L52.8333 31.5207C53.5 30.854 53.5 29.854 52.8333 29.1873L49 25.354C48.3557 24.7097 47.311 24.7097 46.6667 25.354L46.1346 25.8861C45.7841 26.2365 45.7841 26.8048 46.1346 27.1553C46.7 27.7206 46.2996 28.6873 45.5 28.6873H31.6667C30.7462 28.6873 30 29.4335 30 30.354C30 31.2745 30.7462 32.0207 31.6667 32.0207H45.5C46.2996 32.0207 46.7 32.9874 46.1346 33.5527C45.7841 33.9032 45.7841 34.4715 46.1346 34.8219L46.6667 35.354Z" fill="#3B7C93"/>
<path d="M6.66667 58.6873C6.66667 57.7669 5.92047 57.0207 5 57.0207C4.07953 57.0207 3.33333 57.7669 3.33333 58.6873C3.33333 59.6078 4.07953 60.354 5 60.354C5.92047 60.354 6.66667 59.6078 6.66667 58.6873Z" fill="#3B7C93"/>
<path d="M13.3333 58.6873C13.3333 57.7669 12.5871 57.0207 11.6667 57.0207C10.7462 57.0207 10 57.7669 10 58.6873C10 59.6078 10.7462 60.354 11.6667 60.354C12.5871 60.354 13.3333 59.6078 13.3333 58.6873Z" fill="#3B7C93"/>
<path d="M6.66667 65.354C6.66667 64.4335 5.92047 63.6873 5 63.6873C4.07953 63.6873 3.33333 64.4335 3.33333 65.354C3.33333 66.2745 4.07953 67.0207 5 67.0207C5.92047 67.0207 6.66667 66.2745 6.66667 65.354Z" fill="#3B7C93"/>
<path d="M13.3333 65.354C13.3333 64.4335 12.5871 63.6873 11.6667 63.6873C10.7462 63.6873 10 64.4335 10 65.354C10 66.2745 10.7462 67.0207 11.6667 67.0207C12.5871 67.0207 13.3333 66.2745 13.3333 65.354Z" fill="#3B7C93"/>
<path d="M6.66667 72.0207C6.66667 71.1002 5.92047 70.354 5 70.354C4.07953 70.354 3.33333 71.1002 3.33333 72.0207C3.33333 72.9411 4.07953 73.6873 5 73.6873C5.92047 73.6873 6.66667 72.9411 6.66667 72.0207Z" fill="#3B7C93"/>
<path d="M13.3333 72.0207C13.3333 71.1002 12.5871 70.354 11.6667 70.354C10.7462 70.354 10 71.1002 10 72.0207C10 72.9411 10.7462 73.6873 11.6667 73.6873C12.5871 73.6873 13.3333 72.9411 13.3333 72.0207Z" fill="#3B7C93"/>
<path d="M6.66667 78.6873C6.66667 77.7669 5.92047 77.0207 5 77.0207C4.07952 77.0207 3.33333 77.7669 3.33333 78.6873C3.33333 79.6078 4.07952 80.354 5 80.354C5.92047 80.354 6.66667 79.6078 6.66667 78.6873Z" fill="#3B7C93"/>
<path d="M13.3333 78.6873C13.3333 77.7669 12.5871 77.0207 11.6667 77.0207C10.7462 77.0207 10 77.7669 10 78.6873C10 79.6078 10.7462 80.354 11.6667 80.354C12.5871 80.354 13.3333 79.6078 13.3333 78.6873Z" fill="#3B7C93"/>
<path d="M6.66667 85.354C6.66667 84.4335 5.92047 83.6873 5 83.6873C4.07952 83.6873 3.33333 84.4335 3.33333 85.354C3.33333 86.2745 4.07952 87.0207 5 87.0207C5.92047 87.0207 6.66667 86.2745 6.66667 85.354Z" fill="#3B7C93"/>
<path d="M13.3333 85.354C13.3333 84.4335 12.5871 83.6873 11.6667 83.6873C10.7462 83.6873 10 84.4335 10 85.354C10 86.2745 10.7462 87.0207 11.6667 87.0207C12.5871 87.0207 13.3333 86.2745 13.3333 85.354Z" fill="#3B7C93"/>
<path d="M90 15.354C90 14.4335 89.2538 13.6873 88.3333 13.6873C87.4129 13.6873 86.6667 14.4335 86.6667 15.354C86.6667 16.2745 87.4129 17.0207 88.3333 17.0207C89.2538 17.0207 90 16.2745 90 15.354Z" fill="#3B7C93"/>
<path d="M96.6667 15.354C96.6667 14.4335 95.9205 13.6873 95 13.6873C94.0795 13.6873 93.3333 14.4335 93.3333 15.354C93.3333 16.2745 94.0795 17.0207 95 17.0207C95.9205 17.0207 96.6667 16.2745 96.6667 15.354Z" fill="#3B7C93"/>
<path d="M90 22.0207C90 21.1002 89.2538 20.354 88.3333 20.354C87.4129 20.354 86.6667 21.1002 86.6667 22.0207C86.6667 22.9411 87.4129 23.6873 88.3333 23.6873C89.2538 23.6873 90 22.9411 90 22.0207Z" fill="#3B7C93"/>
<path d="M96.6667 22.0207C96.6667 21.1002 95.9205 20.354 95 20.354C94.0795 20.354 93.3333 21.1002 93.3333 22.0207C93.3333 22.9411 94.0795 23.6873 95 23.6873C95.9205 23.6873 96.6667 22.9411 96.6667 22.0207Z" fill="#3B7C93"/>
<path d="M90 28.6873C90 27.7669 89.2538 27.0207 88.3333 27.0207C87.4129 27.0207 86.6667 27.7669 86.6667 28.6873C86.6667 29.6078 87.4129 30.354 88.3333 30.354C89.2538 30.354 90 29.6078 90 28.6873Z" fill="#3B7C93"/>
<path d="M96.6667 28.6873C96.6667 27.7669 95.9205 27.0207 95 27.0207C94.0795 27.0207 93.3333 27.7669 93.3333 28.6873C93.3333 29.6078 94.0795 30.354 95 30.354C95.9205 30.354 96.6667 29.6078 96.6667 28.6873Z" fill="#3B7C93"/>
<path d="M90 35.354C90 34.4335 89.2538 33.6873 88.3333 33.6873C87.4129 33.6873 86.6667 34.4335 86.6667 35.354C86.6667 36.2745 87.4129 37.0207 88.3333 37.0207C89.2538 37.0207 90 36.2745 90 35.354Z" fill="#3B7C93"/>
<path d="M96.6667 35.354C96.6667 34.4335 95.9205 33.6873 95 33.6873C94.0795 33.6873 93.3333 34.4335 93.3333 35.354C93.3333 36.2745 94.0795 37.0207 95 37.0207C95.9205 37.0207 96.6667 36.2745 96.6667 35.354Z" fill="#3B7C93"/>
<path d="M90 42.0207C90 41.1002 89.2538 40.354 88.3333 40.354C87.4129 40.354 86.6667 41.1002 86.6667 42.0207C86.6667 42.9411 87.4129 43.6873 88.3333 43.6873C89.2538 43.6873 90 42.9411 90 42.0207Z" fill="#3B7C93"/>
<path d="M96.6667 42.0207C96.6667 41.1002 95.9205 40.354 95 40.354C94.0795 40.354 93.3333 41.1002 93.3333 42.0207C93.3333 42.9411 94.0795 43.6873 95 43.6873C95.9205 43.6873 96.6667 42.9411 96.6667 42.0207Z" fill="#3B7C93"/>
</svg>
