<svg width="108" height="106" viewBox="0 0 108 106" fill="none" xmlns="http://www.w3.org/2000/svg">
<g clip-path="url(#clip0_3446_7358)" filter="url(#filter0_d_3446_7358)">
<path d="M83.7414 11.3948H83.7244C82.8449 11.3948 82.1406 12.1077 82.1406 12.9872C82.1406 13.8667 82.8621 14.5795 83.7414 14.5795C84.6207 14.5795 85.3338 13.8667 85.3338 12.9872C85.3338 12.1077 84.6207 11.3948 83.7414 11.3948Z" fill="#3B7C93"/>
<path d="M60.8187 76.4524L45.6627 70.1376C44.9879 69.8565 44.5521 69.2026 44.5521 68.4716V65.2567L47.3859 63.6825C49.8139 62.3335 51.4135 59.8769 51.6648 57.1108L51.6711 57.0423H53.1508C55.902 57.0423 58.1402 54.804 58.1402 52.0528V48.9858C58.5863 47.9071 59.8387 44.4546 59.8387 39.6915C59.8387 33.1104 57.2607 26.9011 52.5799 22.2069C50.7889 20.411 48.7631 18.9183 46.5654 17.754C46.4889 12.3638 41.0926 7.99756 34.4674 7.99756C27.8422 7.99756 22.4459 12.3638 22.3691 17.754C20.1715 18.9181 18.1457 20.4108 16.3547 22.2069C11.6738 26.9011 9.0959 33.1103 9.0959 39.6915C9.0959 44.4546 10.3482 47.9069 10.7943 48.9858V52.0528C10.7943 54.804 13.0326 57.0423 15.7838 57.0423H17.2635L17.2695 57.1108C17.5209 59.8769 19.1207 62.3337 21.5486 63.6825L24.3824 65.2567V68.4716C24.3824 69.2024 23.9465 69.8563 23.2719 70.1376L8.11582 76.4524C5.61543 77.4942 4 79.9175 4 82.6259V92.8169C4 95.5681 6.23828 97.8063 8.98945 97.8063H59.9449C62.6961 97.8063 64.9344 95.5681 64.9344 92.8169V82.6259C64.9342 79.9175 63.3187 77.4942 60.8187 76.4524ZM54.9555 52.0526C54.9555 53.0478 54.1459 53.8573 53.1508 53.8573H51.9607L52.5977 46.8509H53.1508C54.1459 46.8509 54.9555 47.6604 54.9555 48.6556V52.0526ZM34.4672 11.1823C38.6381 11.1823 42.1479 13.3413 43.1176 16.2474C40.3898 15.2907 37.474 14.7917 34.4672 14.7917C31.4604 14.7917 28.5447 15.2907 25.8168 16.2474C26.7863 13.3413 30.2961 11.1823 34.4672 11.1823ZM15.7834 53.8573C14.7883 53.8573 13.9787 53.0478 13.9787 52.0526V48.6556C13.9787 47.6604 14.7883 46.8509 15.7834 46.8509H16.3365L16.9734 53.8573H15.7834ZM23.0953 60.8985C21.5893 60.0618 20.5969 58.538 20.441 56.8224L19.2287 43.4878C21.3115 43.4747 24.9637 43.2974 29.2346 42.4124C37.9689 40.6028 45.0947 36.6548 49.8414 30.9954C50.4066 30.3218 50.3186 29.3173 49.6445 28.7522C48.9707 28.187 47.9664 28.2751 47.4012 28.9491C37.0418 41.3007 17.8451 40.2888 17.5826 40.2728V40.2745C17.5021 40.2696 17.4207 40.2687 17.3379 40.2763C16.4621 40.356 15.8166 41.1304 15.8963 42.0061L16.0471 43.6665H15.7834C14.6686 43.6665 13.6379 44.0343 12.8063 44.6544C12.5176 43.3138 12.2801 41.6255 12.2801 39.6915C12.2801 33.9595 14.5279 28.5489 18.6094 24.4558C22.776 20.2774 28.4076 17.9763 34.467 17.9763C40.5264 17.9763 46.1578 20.2772 50.3246 24.4558C54.4061 28.5485 56.6539 33.9595 56.6539 39.6915C56.6539 41.6253 56.4166 43.314 56.1277 44.6546C55.2961 44.0343 54.2656 43.6665 53.1506 43.6665H52.8869L53.0379 42.006C53.0809 41.5354 52.9121 41.07 52.5779 40.7358L49.1809 37.3388C48.559 36.7169 47.5508 36.7169 46.9291 37.3388C46.3072 37.9606 46.3072 38.9687 46.9291 39.5905L49.7988 42.4603L48.665 54.9319C47.3646 56.0821 43.2402 58.953 34.467 58.953C33.5875 58.953 32.8746 59.6659 32.8746 60.5454C32.8746 61.4249 33.5875 62.1378 34.467 62.1378C40.5635 62.1378 44.7354 60.8612 47.4412 59.5138C47.0137 60.0722 46.4725 60.5468 45.8391 60.8987L36.9932 65.8132C35.4113 66.6919 33.5227 66.6919 31.941 65.8132L23.0953 60.8985ZM24.4967 73.077C26.3619 72.2999 27.567 70.4921 27.567 68.4716V67.0259L30.3943 68.5968C31.6695 69.305 33.0682 69.6595 34.4672 69.6595C35.8662 69.6595 37.2648 69.3054 38.54 68.5968L41.3674 67.0259V68.4716C41.3674 70.4925 42.5725 72.3001 44.4377 73.077L46.108 73.7729C43.1209 77.2409 40.234 78.964 38.2787 79.8065C36.116 80.7384 34.6186 80.8149 34.467 80.8206C34.3154 80.8151 32.818 80.7384 30.6553 79.8065C28.7 78.9642 25.8133 77.2409 22.826 73.7729L24.4967 73.077ZM14.191 94.6218H8.98945C7.99434 94.6218 7.18477 93.8122 7.18477 92.8171V82.6261C7.18477 82.187 7.26621 81.7624 7.41699 81.369L12.8764 85.7368C13.7121 86.4052 14.191 87.4022 14.191 88.4724V94.6218ZM51.5584 88.472V94.6216H17.3758V88.472C17.3758 86.429 16.4609 84.5257 14.8658 83.2495L9.80312 79.1993L19.749 75.0552C24.9961 81.545 30.2998 83.3306 32.8746 83.8206V89.2077C32.8746 90.0872 33.5875 90.8001 34.467 90.8001C35.3465 90.8001 36.0594 90.0872 36.0594 89.2077V83.8206C38.6344 83.3306 43.9379 81.545 49.185 75.0552L59.1309 79.1993L54.0682 83.2495C52.4732 84.5257 51.5584 86.4292 51.5584 88.472ZM61.7494 92.8171C61.7494 93.8122 60.9398 94.6218 59.9447 94.6218H54.743V88.4722C54.743 87.4021 55.2221 86.4052 56.0576 85.7364L61.517 81.3689C61.6678 81.7622 61.7492 82.1868 61.7492 82.6259V92.8171H61.7494Z" fill="#3B7C93"/>
<path d="M32.5044 47.9646C31.7435 46.3855 29.9083 45.3647 27.8288 45.3647C25.7493 45.3647 23.9142 46.3853 23.1533 47.9646C22.7716 48.7567 23.1044 49.7085 23.8968 50.0903C24.689 50.4722 25.6408 50.139 26.0226 49.3468C26.2087 48.9604 26.9052 48.5495 27.829 48.5495C28.7529 48.5495 29.4492 48.9603 29.6355 49.3468C29.9097 49.9165 30.4788 50.2485 31.0712 50.2485C31.3031 50.2485 31.5386 50.1976 31.7613 50.0903C32.5533 49.7085 32.8861 48.7569 32.5044 47.9646Z" fill="#3B7C93"/>
<path d="M45.7809 47.9646C45.0201 46.3855 43.185 45.3647 41.1053 45.3647C39.0256 45.3647 37.1906 46.3853 36.4297 47.9646C36.0479 48.7569 36.3809 49.7085 37.1733 50.0903C37.9654 50.4722 38.9172 50.139 39.299 49.3468C39.4852 48.9604 40.1817 48.5495 41.1055 48.5495C42.0293 48.5495 42.7256 48.9603 42.9119 49.3468C43.1862 49.9165 43.7553 50.2485 44.3477 50.2485C44.5795 50.2485 44.8151 50.1976 45.0377 50.0903C45.8297 49.7085 46.1627 48.7569 45.7809 47.9646Z" fill="#3B7C93"/>
<path d="M83.7242 2.9021C72.544 2.9021 63.4482 11.9978 63.4482 23.1781C63.4482 29.0443 65.9322 34.5023 70.31 38.3583C68.1133 41.9544 65.7293 44.0269 65.7049 44.048C65.1803 44.496 65.0039 45.231 65.268 45.8683C65.516 46.4666 66.099 46.8511 66.7385 46.8511C66.7803 46.8511 66.8225 46.8494 66.8648 46.8462C67.1268 46.8253 73.1062 46.3148 78.4105 42.748C80.1393 43.2167 81.923 43.4542 83.7244 43.4542C94.9047 43.4542 104 34.3585 104 23.1783C104 11.9978 94.9045 2.9021 83.7242 2.9021ZM83.7242 40.2693C81.9801 40.2693 80.2561 40.0058 78.6 39.4859C78.118 39.3347 77.5926 39.4209 77.1844 39.7191C75.2238 41.1501 73.0719 42.0738 71.224 42.6652C72.0506 41.575 72.9334 40.2644 73.7609 38.7515C74.1375 38.063 73.9564 37.2029 73.3342 36.7246C69.0754 33.4529 66.633 28.5152 66.633 23.1781C66.633 13.7539 74.3 6.08687 83.7242 6.08687C93.1484 6.08687 100.815 13.7539 100.815 23.1781C100.815 32.6023 93.1484 40.2693 83.7242 40.2693Z" fill="#3B7C93"/>
<path d="M85.4221 31.7768H85.3158V21.3735H85.4221C86.3016 21.3735 87.0145 20.6606 87.0145 19.7811C87.0145 18.9016 86.3016 18.1887 85.4221 18.1887H82.025C81.1455 18.1887 80.4326 18.9016 80.4326 19.7811C80.4326 20.6606 81.1455 21.3735 82.025 21.3735H82.1312V31.7768H82.025C81.1455 31.7768 80.4326 32.4897 80.4326 33.3692C80.4326 34.2487 81.1455 34.9616 82.025 34.9616H85.4221C86.3016 34.9616 87.0145 34.2487 87.0145 33.3692C87.0145 32.4899 86.3016 31.7768 85.4221 31.7768Z" fill="#3B7C93"/>
</g>
<defs>
<filter id="filter0_d_3446_7358" x="0" y="0.354248" width="108" height="108" filterUnits="userSpaceOnUse" color-interpolation-filters="sRGB">
<feFlood flood-opacity="0" result="BackgroundImageFix"/>
<feColorMatrix in="SourceAlpha" type="matrix" values="0 0 0 0 0 0 0 0 0 0 0 0 0 0 0 0 0 0 127 0" result="hardAlpha"/>
<feOffset dy="4"/>
<feGaussianBlur stdDeviation="2"/>
<feComposite in2="hardAlpha" operator="out"/>
<feColorMatrix type="matrix" values="0 0 0 0 0 0 0 0 0 0 0 0 0 0 0 0 0 0 0.25 0"/>
<feBlend mode="normal" in2="BackgroundImageFix" result="effect1_dropShadow_3446_7358"/>
<feBlend mode="normal" in="SourceGraphic" in2="effect1_dropShadow_3446_7358" result="shape"/>
</filter>
<clipPath id="clip0_3446_7358">
<rect width="100" height="100" fill="white" transform="translate(4 0.354248)"/>
</clipPath>
</defs>
</svg>
