<svg width="100" height="101" viewBox="0 0 100 101" fill="none" xmlns="http://www.w3.org/2000/svg">
<path d="M99.0908 79.8997L74.5455 35.3542C72.9547 31.945 69.5455 29.8997 65.9092 29.8997C65 29.8997 63.8637 30.1271 62.9547 30.3542C61.8184 30.8087 61.1365 31.9452 61.591 33.3087C62.0455 34.445 63.1818 35.1269 64.5455 34.6724C66.8182 33.9905 69.5455 34.8997 70.6818 37.3997L74.7727 44.6724L73.8635 45.1269C72.7271 45.5813 71.5908 45.8087 70.6816 45.8087H68.1816C66.818 45.8087 65.909 46.7179 65.909 48.0813C65.909 49.4448 66.8182 50.3542 68.1818 50.3542H70.6818C72.5 50.3542 74.091 49.8997 75.6818 49.2179L76.591 48.7634L95 82.1724C95.2273 82.6269 95.4545 83.0815 95.4545 83.7632C95.4545 85.5813 94.0908 86.945 92.2727 86.945H7.72734C5.90918 86.7177 4.54551 85.354 4.54551 83.5358C4.54551 83.0814 4.77285 82.3995 5 81.9448L23.6363 46.263L26.8182 48.5356C30 51.0356 35 50.5812 37.7273 47.8538L41.3637 44.2175C42.5 43.0812 44.5455 43.3083 45.4545 44.4448L48.6363 48.763C50.4545 51.0356 52.9545 52.3993 55.909 52.3993H60.2271L73.409 80.5812C73.8635 81.7175 75.2271 82.172 76.3635 81.7175C77.4998 81.263 77.9543 79.8993 77.4998 78.763L49.5455 19.4452C47.9547 16.036 44.5455 13.9907 40.9092 13.9907C37.2729 13.9907 33.8637 16.0362 32.5 19.2181L0.90918 79.8997C0.227344 81.036 0 82.1724 0 83.536C0 87.8542 3.40918 91.2634 7.72734 91.2634H92.2729C96.591 91.2634 100 87.8542 100 83.536C100 82.1724 99.7727 81.036 99.0908 79.8997ZM36.5908 21.2634C37.2727 19.6726 39.0908 18.536 40.909 18.536C42.7271 18.536 44.5453 19.6724 45.2271 21.2634L57.9545 48.0815H55.6818C54.3182 48.0815 52.9545 47.3997 52.0455 46.2634L48.8637 41.9452C47.5 40.1271 45.2273 38.9907 43.1818 38.9907C41.1363 38.9907 39.3182 39.6726 37.9545 41.0362L34.3182 44.6726C32.9545 46.0362 30.909 46.0362 29.3182 45.1271L25.6818 42.3997L36.5908 21.2634Z" fill="#3B7C93"/>
<path d="M75.0003 9.44507C66.364 9.44507 58.864 15.5814 57.0458 23.9906C56.8185 25.3542 57.7277 26.4906 58.864 26.7179C60.0003 26.9453 61.364 26.2634 61.5913 24.8998C62.955 18.5361 68.4095 13.9906 75.0005 13.9906C82.5005 13.9906 88.6368 20.1269 88.6368 27.6269C88.6368 31.9451 86.5913 36.0361 83.1823 38.5361C82.2732 39.2179 82.046 40.8087 82.7279 41.7179C83.1823 42.3998 83.8642 42.6271 84.546 42.6271C85.0005 42.6271 85.4552 42.3998 85.9097 42.1726C90.4552 38.7634 93.1823 33.3089 93.1823 27.6271C93.1822 17.6269 85.0003 9.44507 75.0003 9.44507Z" fill="#3B7C93"/>
</svg>
