<svg width="100" height="101" viewBox="0 0 100 101" fill="none" xmlns="http://www.w3.org/2000/svg">
<g clip-path="url(#clip0_3446_7228)">
<path d="M59.9575 3.25776C58.2286 1.41264 55.7868 0.354248 53.2579 0.354248H46.6408C44.1123 0.354248 41.6705 1.41264 39.9416 3.25776C38.2125 5.10326 37.3154 7.60853 37.4802 10.1318L37.7744 14.6413L38.4611 25.1718C38.7181 29.1149 40.9388 32.6059 44.4011 34.5106C46.1382 35.4659 48.0437 35.9434 49.9494 35.9434C51.855 35.9434 53.7607 35.4657 55.498 34.5104C58.9605 32.6061 61.181 29.1149 61.438 25.1718L62.2228 13.1384L62.4189 10.132C62.5831 7.60873 61.6862 5.10326 59.9575 3.25776ZM41.6171 12.345L41.4558 9.87278C41.3615 8.42357 41.8562 7.04154 42.8492 5.98178C43.8419 4.92201 45.1888 4.33842 46.641 4.33842H52.4624L51.165 7.79837C50.8406 8.29544 48.5124 11.4646 41.6171 12.345ZM57.4624 24.9128C57.2943 27.4913 55.8421 29.7741 53.5781 31.0196C51.3056 32.2692 48.5927 32.269 46.3212 31.0198C44.057 29.7741 42.6046 27.4913 42.4367 24.9128L41.8767 16.3251C47.2986 15.6751 50.6173 13.7589 52.5204 12.1341C52.963 12.5075 53.4947 12.855 54.1134 13.1749C54.9923 13.629 56.3187 14.0827 58.1382 14.5513L57.4624 24.9128ZM58.4433 9.87278L58.4025 10.4982C56.9603 10.0966 56.263 9.8013 55.9425 9.63587C55.3993 9.35521 55.1163 9.12708 54.9743 8.98665L56.3382 5.34916C56.5907 5.53646 56.8294 5.74682 57.0499 5.98197C58.0429 7.04173 58.5378 8.42357 58.4433 9.87278Z" fill="#3B7C93"/>
<path d="M79.2244 57.5201L78.1283 51.4711C76.8308 44.3094 71.1574 38.5934 64.0104 37.2479C62.9311 37.0445 61.8275 36.9414 60.7301 36.9414H56.258C55.7285 36.9414 55.2209 37.1523 54.8471 37.5271L49.9346 42.4562L44.9006 37.5123C44.5282 37.1465 44.027 36.9416 43.5047 36.9416H39.1688C38.0711 36.9416 36.9674 37.0447 35.8883 37.248C35.8881 37.248 35.8878 37.2482 35.8876 37.2482C28.7411 38.5945 23.0679 44.3099 21.7704 51.4713L20.6745 57.5205C20.5692 58.1013 20.7272 58.6992 21.1056 59.1523C21.4843 59.6052 22.0442 59.8673 22.6347 59.8673H77.264C77.8545 59.8673 78.4144 59.6054 78.7931 59.1523C79.1716 58.6988 79.3297 58.1011 79.2244 57.5201ZM42.6903 40.9252L48.5539 46.684C49.3348 47.4508 50.5879 47.4439 51.3608 46.6691L57.0854 40.9254H59.1047L49.9498 50.0804L40.7948 40.9254L42.6903 40.9252ZM25.0204 55.8832L25.6909 52.1812C26.6346 46.9717 30.5673 42.7498 35.6258 41.391L48.541 54.3062C48.9301 54.6951 49.4399 54.8896 49.9496 54.8896C50.4594 54.8896 50.9692 54.6951 51.3582 54.3062L64.2732 41.391C69.3322 42.7498 73.2644 46.9717 74.2082 52.181C74.2082 52.181 74.2082 52.181 74.2082 52.1812L74.8789 55.8832H25.0204Z" fill="#3B7C93"/>
<path d="M58.0465 68.6362H56.8318C55.7318 68.6362 54.8398 69.5282 54.8398 70.6282C54.8398 71.7282 55.7318 72.6202 56.8318 72.6202H58.0463C59.1463 72.6202 60.0383 71.7282 60.0383 70.6282C60.0383 69.5282 59.1465 68.6362 58.0465 68.6362Z" fill="#3B7C93"/>
<path d="M51.9417 85.7109V65.5674C51.9417 64.4674 51.0497 63.5754 49.9497 63.5754C48.8497 63.5754 47.9577 64.4674 47.9577 65.5674V68.6364H18.3193C13.2861 68.6364 9.1914 72.7313 9.1914 77.7641V85.7107C6.04355 86.5844 3.72559 89.4736 3.72559 92.8963C3.72559 97.0084 7.07109 100.354 11.1834 100.354C15.2957 100.354 18.6412 97.0084 18.6412 92.8963C18.6412 89.474 16.3232 86.5848 13.1754 85.7109V77.7643C13.1754 74.928 15.483 72.6207 18.3191 72.6207H47.9575V85.7111C44.8097 86.5848 42.4917 89.474 42.4917 92.8967C42.4917 97.009 45.8374 100.354 49.9495 100.354C54.0616 100.354 57.4073 97.0088 57.4073 92.8967C57.4075 89.4738 55.0895 86.5846 51.9417 85.7109ZM14.657 92.8963C14.657 94.8117 13.0988 96.3699 11.1834 96.3699C9.26796 96.3699 7.70976 94.8115 7.70976 92.8963C7.70976 90.9809 9.26815 89.4227 11.1834 89.4227C13.0986 89.4227 14.657 90.9809 14.657 92.8963ZM49.9497 96.3701C48.0343 96.3701 46.4761 94.8117 46.4761 92.8965C46.4761 90.981 48.0345 89.4229 49.9497 89.4229C51.8651 89.4229 53.4233 90.981 53.4233 92.8965C53.4233 94.8119 51.8651 96.3701 49.9497 96.3701Z" fill="#3B7C93"/>
<path d="M90.7074 85.6819V77.7639C90.7074 72.7309 86.6126 68.6362 81.5795 68.6362H65.1316C64.0316 68.6362 63.1396 69.5282 63.1396 70.6282C63.1396 71.7282 64.0316 72.6202 65.1316 72.6202H81.5795C84.4158 72.6202 86.7232 74.9276 86.7232 77.7638V85.7393C83.6269 86.6465 81.3587 89.5102 81.3587 92.8959C81.3587 97.0082 84.7042 100.354 88.8165 100.354C92.9288 100.354 96.2743 97.008 96.2743 92.8959C96.2743 89.437 93.9068 86.5212 90.7074 85.6819ZM88.8164 96.37C86.9009 96.37 85.3427 94.8116 85.3427 92.8963C85.3427 90.9809 86.9009 89.4227 88.8164 89.4227C90.7318 89.4227 92.29 90.9809 92.29 92.8963C92.29 94.8118 90.7318 96.37 88.8164 96.37Z" fill="#3B7C93"/>
</g>
<defs>
<clipPath id="clip0_3446_7228">
<rect width="100" height="100" fill="white" transform="translate(0 0.354248)"/>
</clipPath>
</defs>
</svg>
