<svg width="101" height="101" viewBox="0 0 101 101" fill="none" xmlns="http://www.w3.org/2000/svg">
<g id="coding-html-svgrepo-com 1" clip-path="url(#clip0_3444_6052)">
<g id="Group">
<g id="Group_2">
<path id="Vector" d="M37.483 72.6605L29.9205 61.3146L37.483 49.9687C38.1205 49.0103 37.858 47.7187 36.9039 47.0812C35.9539 46.4437 34.658 46.6978 34.0164 47.6603L25.683 60.1603C25.2164 60.8603 25.2164 61.7728 25.683 62.4728L34.0164 74.9728C34.4205 75.5769 35.0789 75.9019 35.7498 75.9019C36.1498 75.9019 36.5498 75.7894 36.9039 75.5478C37.8621 74.9105 38.1205 73.6187 37.483 72.6605Z" fill="white"/>
</g>
</g>
<g id="Group_3">
<g id="Group_4">
<path id="Vector_2" d="M57.3165 42.7021C56.2499 42.298 55.0374 42.8396 54.6331 43.9187L42.1331 77.2521C41.7247 78.3312 42.2706 79.5313 43.3497 79.9355C43.5913 80.0271 43.8372 80.0689 44.0831 80.0689C44.9247 80.0689 45.7206 79.5523 46.0331 78.7189L58.5331 45.3855C58.9415 44.3063 58.3956 43.1063 57.3165 42.7021Z" fill="white"/>
</g>
</g>
<g id="Group_5">
<g id="Group_6">
<path id="Vector_3" d="M74.9832 60.1652L66.6498 47.6652C66.0082 46.7027 64.7123 46.4486 63.7623 47.0861C62.8039 47.7236 62.5457 49.0152 63.1832 49.9736L70.7457 61.3195L63.1832 72.6654C62.5457 73.6238 62.8082 74.9154 63.7623 75.5529C64.1164 75.7904 64.5164 75.9029 64.9164 75.9029C65.5873 75.9029 66.2455 75.5779 66.6498 74.9779L74.9832 62.4779C75.4498 61.7777 75.4498 60.8652 74.9832 60.1652Z" fill="white"/>
</g>
</g>
<g id="Group_7">
<g id="Group_8">
<path id="Vector_4" d="M85.7498 0.902344H39.9166C39.6375 0.902344 39.3625 0.960742 39.1082 1.06484C39.0291 1.09824 38.9707 1.16074 38.8998 1.20645C38.7414 1.29805 38.5748 1.38145 38.4414 1.51055L13.4414 26.5105C13.3455 26.6064 13.2914 26.7355 13.2164 26.848C13.1414 26.9605 13.0455 27.0564 12.9955 27.1814C12.8914 27.4355 12.833 27.7064 12.833 27.9855V98.8189C12.8332 99.9689 13.7666 100.902 14.9166 100.902H85.75C86.9 100.902 87.8334 99.9689 87.8334 98.8189V2.98574C87.8332 1.83574 86.8998 0.902344 85.7498 0.902344ZM37.8332 8.01484V25.9023H19.9457L37.8332 8.01484ZM83.6666 96.7357H16.9998V30.0689H39.9164C41.0664 30.0689 41.9998 29.1355 41.9998 27.9855V5.06895H83.6664V96.7357H83.6666Z" fill="white"/>
</g>
</g>
</g>
<defs>
<clipPath id="clip0_3444_6052">
<rect width="100" height="100" fill="white" transform="translate(0.333008 0.902344)"/>
</clipPath>
</defs>
</svg>
