<svg width="100" height="101" viewBox="0 0 100 101" fill="none" xmlns="http://www.w3.org/2000/svg">
<g id="hierarchical-structure-boss-svgrepo-com 1" clip-path="url(#clip0_3446_6231)">
<g id="Vector">
<path d="M58.0645 8.51471C58.0645 4.06794 54.4468 0.450195 50 0.450195C45.5532 0.450195 41.9355 4.06794 41.9355 8.51471C41.9355 12.9615 45.5532 16.5792 50 16.5792C54.4468 16.5792 58.0645 12.9615 58.0645 8.51471ZM50 13.3534C47.3323 13.3534 45.1613 11.1825 45.1613 8.51471C45.1613 5.84697 47.3323 3.676 50 3.676C52.6677 3.676 54.8387 5.84697 54.8387 8.51471C54.8387 11.1825 52.6677 13.3534 50 13.3534Z" fill="#3B7C93"/>
<path d="M96.5983 88.3392C95.7957 87.9082 95.1613 87.14 95.1613 86.2291V79.8695C95.1613 78.765 94.2659 77.8695 93.1613 77.8695H89.0968C87.9922 77.8695 87.0968 76.9741 87.0968 75.8695V71.805C87.0968 70.7005 87.9922 69.805 89.0968 69.805H91.5484C92.653 69.805 93.5484 68.9096 93.5484 67.805V55.676C93.5484 54.5714 92.653 53.676 91.5484 53.676H89.0968C87.9922 53.676 87.0968 52.7806 87.0968 51.676V44.3857C87.0968 43.2811 86.2013 42.3857 85.0968 42.3857H53.6129C52.5083 42.3857 51.6129 41.4902 51.6129 40.3857V34.7083C51.6129 33.6037 52.5083 32.7083 53.6129 32.7083H57.6774C58.782 32.7083 59.6774 31.8128 59.6774 30.7083V24.6437C59.6774 20.197 56.0597 16.5792 51.6129 16.5792H50H48.3871C43.9403 16.5792 40.3226 20.197 40.3226 24.6437V30.7083C40.3226 31.8128 41.218 32.7083 42.3226 32.7083H46.3871C47.4917 32.7083 48.3871 33.6037 48.3871 34.7083V40.3857C48.3871 41.4902 47.4917 42.3857 46.3871 42.3857H14.9032C13.7987 42.3857 12.9032 43.2811 12.9032 44.3857V51.676C12.9032 52.7806 12.0078 53.676 10.9032 53.676H8.45161C7.34704 53.676 6.45161 54.5714 6.45161 55.676V67.805C6.45161 68.9096 7.34704 69.805 8.45161 69.805H10.9032C12.0078 69.805 12.9032 70.7005 12.9032 71.805V75.8695C12.9032 76.9741 12.0078 77.8695 10.9032 77.8695H6.83871C5.73414 77.8695 4.83871 78.765 4.83871 79.8695V86.2291C4.83871 87.14 4.20428 87.9082 3.40175 88.3392C1.38018 89.4248 0 91.546 0 93.9986C0 97.5566 2.89355 100.45 6.45161 100.45C10.0097 100.45 12.9032 97.5566 12.9032 93.9986C12.9032 91.546 11.523 89.4248 9.50147 88.3392C8.69894 87.9082 8.06452 87.14 8.06452 86.2291V83.0954C8.06452 81.9908 8.95995 81.0954 10.0645 81.0954H18.9677C20.0723 81.0954 20.9677 81.9908 20.9677 83.0954V86.2291C20.9677 87.14 20.3333 87.9082 19.5308 88.3392C17.5092 89.4248 16.129 91.546 16.129 93.9986C16.129 97.5566 19.0226 100.45 22.5806 100.45C26.1387 100.45 29.0323 97.5566 29.0323 93.9986C29.0323 91.546 27.6521 89.4248 25.6305 88.3392C24.828 87.9082 24.1935 87.14 24.1935 86.2291V79.8695C24.1935 78.765 23.2981 77.8695 22.1935 77.8695H18.129C17.0245 77.8695 16.129 76.9741 16.129 75.8695V71.805C16.129 70.7005 17.0245 69.805 18.129 69.805H20.5806C21.6852 69.805 22.5806 68.9096 22.5806 67.805V55.676C22.5806 54.5714 21.6852 53.676 20.5806 53.676H18.129C17.0245 53.676 16.129 52.7806 16.129 51.676V47.6115C16.129 46.5069 17.0245 45.6115 18.129 45.6115H46.3871C47.4917 45.6115 48.3871 46.5069 48.3871 47.6115V51.676C48.3871 52.7806 47.4917 53.676 46.3871 53.676H43.9355C42.8309 53.676 41.9355 54.5714 41.9355 55.676V67.805C41.9355 68.9096 42.8309 69.805 43.9355 69.805H46.3871C47.4917 69.805 48.3871 70.7005 48.3871 71.805V75.8695C48.3871 76.9741 47.4917 77.8695 46.3871 77.8695H42.3226C41.218 77.8695 40.3226 78.765 40.3226 79.8695V86.2291C40.3226 87.14 39.6882 87.9082 38.8856 88.3392C36.8641 89.4248 35.4839 91.546 35.4839 93.9986C35.4839 97.5566 38.3774 100.45 41.9355 100.45C45.4936 100.45 48.3871 97.5566 48.3871 93.9986C48.3871 91.546 47.0069 89.4248 44.9853 88.3392C44.1828 87.9082 43.5484 87.14 43.5484 86.2291V83.0954C43.5484 81.9908 44.4438 81.0954 45.5484 81.0954H54.4516C55.5562 81.0954 56.4516 81.9908 56.4516 83.0954V86.2291C56.4516 87.14 55.8172 87.9082 55.0147 88.3392C52.9931 89.4248 51.6129 91.546 51.6129 93.9986C51.6129 97.5566 54.5065 100.45 58.0645 100.45C61.6226 100.45 64.5161 97.5566 64.5161 93.9986C64.5161 91.546 63.136 89.4248 61.1144 88.3392C60.3118 87.9082 59.6774 87.14 59.6774 86.2291V79.8695C59.6774 78.765 58.782 77.8695 57.6774 77.8695H53.6129C52.5083 77.8695 51.6129 76.9741 51.6129 75.8695V71.805C51.6129 70.7005 52.5083 69.805 53.6129 69.805H56.0645C57.1691 69.805 58.0645 68.9096 58.0645 67.805V55.676C58.0645 54.5714 57.1691 53.676 56.0645 53.676H53.6129C52.5083 53.676 51.6129 52.7806 51.6129 51.676V47.6115C51.6129 46.5069 52.5083 45.6115 53.6129 45.6115H81.871C82.9755 45.6115 83.871 46.5069 83.871 47.6115V51.676C83.871 52.7806 82.9755 53.676 81.871 53.676H79.4194C78.3148 53.676 77.4194 54.5714 77.4194 55.676V67.805C77.4194 68.9096 78.3148 69.805 79.4194 69.805H81.871C82.9755 69.805 83.871 70.7005 83.871 71.805V75.8695C83.871 76.9741 82.9755 77.8695 81.871 77.8695H77.8065C76.7019 77.8695 75.8064 78.765 75.8064 79.8695V86.2291C75.8064 87.14 75.172 87.9082 74.3695 88.3392C72.3479 89.4248 70.9677 91.546 70.9677 93.9986C70.9677 97.5566 73.8613 100.45 77.4194 100.45C80.9774 100.45 83.871 97.5566 83.871 93.9986C83.871 91.546 82.4908 89.4248 80.4692 88.3392C79.6667 87.9082 79.0323 87.14 79.0323 86.2291V83.0954C79.0323 81.9908 79.9277 81.0954 81.0323 81.0954H89.9355C91.0401 81.0954 91.9355 81.9908 91.9355 83.0954V86.2291C91.9355 87.14 91.3011 87.9082 90.4985 88.3392C88.477 89.4248 87.0968 91.546 87.0968 93.9986C87.0968 97.5566 89.9903 100.45 93.5484 100.45C97.1065 100.45 100 97.5566 100 93.9986C100 91.546 98.6198 89.4248 96.5983 88.3392ZM9.67742 93.9986C9.67742 95.7776 8.23065 97.2244 6.45161 97.2244C4.67258 97.2244 3.22581 95.7776 3.22581 93.9986C3.22581 92.2196 4.67258 90.7728 6.45161 90.7728C8.23065 90.7728 9.67742 92.2196 9.67742 93.9986ZM25.8065 93.9986C25.8065 95.7776 24.3597 97.2244 22.5806 97.2244C20.8016 97.2244 19.3548 95.7776 19.3548 93.9986C19.3548 92.2196 20.8016 90.7728 22.5806 90.7728C24.3597 90.7728 25.8065 92.2196 25.8065 93.9986ZM17.3548 56.9018C18.4594 56.9018 19.3548 57.7972 19.3548 58.9018V64.5792C19.3548 65.6838 18.4594 66.5792 17.3548 66.5792H11.6774C10.5728 66.5792 9.67742 65.6838 9.67742 64.5792V58.9018C9.67742 57.7972 10.5729 56.9018 11.6774 56.9018H17.3548ZM45.1613 93.9986C45.1613 95.7776 43.7145 97.2244 41.9355 97.2244C40.1565 97.2244 38.7097 95.7776 38.7097 93.9986C38.7097 92.2196 40.1565 90.7728 41.9355 90.7728C43.7145 90.7728 45.1613 92.2196 45.1613 93.9986ZM61.2903 93.9986C61.2903 95.7776 59.8436 97.2244 58.0645 97.2244C56.2855 97.2244 54.8387 95.7776 54.8387 93.9986C54.8387 92.2196 56.2855 90.7728 58.0645 90.7728C59.8436 90.7728 61.2903 92.2196 61.2903 93.9986ZM52.8387 56.9018C53.9433 56.9018 54.8387 57.7972 54.8387 58.9018V64.5792C54.8387 65.6838 53.9433 66.5792 52.8387 66.5792H47.1613C46.0567 66.5792 45.1613 65.6838 45.1613 64.5792V58.9018C45.1613 57.7972 46.0567 56.9018 47.1613 56.9018H52.8387ZM45.5484 29.4825C44.4438 29.4825 43.5484 28.587 43.5484 27.4825V24.6437C43.5484 22.5303 44.9109 20.7286 46.8036 20.0712C47.6451 19.7789 48.3871 20.5272 48.3871 21.4179V21.4179C48.3871 22.3087 49.1092 23.0308 50 23.0308V23.0308C50.8908 23.0308 51.6129 22.3087 51.6129 21.4179V21.4179C51.6129 20.5272 52.3549 19.7789 53.1964 20.0712C55.0891 20.7286 56.4516 22.5303 56.4516 24.6437V27.4825C56.4516 28.587 55.5562 29.4825 54.4516 29.4825H45.5484ZM80.6452 93.9986C80.6452 95.7776 79.1984 97.2244 77.4194 97.2244C75.6403 97.2244 74.1936 95.7776 74.1936 93.9986C74.1936 92.2196 75.6403 90.7728 77.4194 90.7728C79.1984 90.7728 80.6452 92.2196 80.6452 93.9986ZM82.6452 66.5792C81.5406 66.5792 80.6452 65.6838 80.6452 64.5792V58.9018C80.6452 57.7972 81.5406 56.9018 82.6452 56.9018H88.3226C89.4271 56.9018 90.3226 57.7972 90.3226 58.9018V64.5792C90.3226 65.6838 89.4271 66.5792 88.3226 66.5792H82.6452ZM93.5484 97.2244C91.7694 97.2244 90.3226 95.7776 90.3226 93.9986C90.3226 92.2196 91.7694 90.7728 93.5484 90.7728C95.3274 90.7728 96.7742 92.2196 96.7742 93.9986C96.7742 95.7776 95.3274 97.2244 93.5484 97.2244Z" fill="#3B7C93"/>
</g>
</g>
<defs>
<clipPath id="clip0_3446_6231">
<rect width="100" height="100" fill="white" transform="translate(0 0.450195)"/>
</clipPath>
</defs>
</svg>
