<svg width="101" height="101" viewBox="0 0 101 101" fill="none" xmlns="http://www.w3.org/2000/svg">
<g clip-path="url(#clip0_1_255)">
<mask id="mask0_1_255" style="mask-type:alpha" maskUnits="userSpaceOnUse" x="11" y="-1" width="79" height="101">
<path d="M38.069 27.2126C40.261 24.8702 43.1555 23.2069 46.3753 22.4541C46.4635 22.4468 46.5523 22.4335 46.6415 22.4141C48.4842 22.0121 50.1117 20.9239 51.1483 19.3549C52.1899 17.7782 52.5398 15.8561 52.1036 14.0183C51.668 12.1832 50.4934 10.6165 48.8738 9.64168C47.257 8.66856 45.3145 8.35387 43.4676 8.75325L43.4658 8.75363C37.2447 10.1046 31.6043 13.2736 27.3343 17.8368C23.0631 22.4012 20.3759 28.1343 19.6628 34.244L19.6617 34.2536C19.4525 36.1246 20.0313 37.985 21.2449 39.4263C22.4555 40.8642 24.1942 41.7655 26.069 41.9642L26.0773 41.9651C26.339 41.9917 26.6019 42.0051 26.8649 42.0054L26.8702 42.0053C28.623 42.0021 30.3273 41.3834 31.6552 40.2463C32.9851 39.1075 33.8475 37.5236 34.0492 35.7876C34.4217 32.6134 35.8206 29.6154 38.069 27.2126ZM67.5366 68.9648C65.4787 69.9872 64.0002 72.0815 64.0002 74.5293V76.0016C64.0002 77.1062 63.1048 78.0016 62.0002 78.0016H38.5717C37.4671 78.0016 36.5717 77.1062 36.5717 76.0016V74.5293C36.5717 72.0815 35.0932 69.9872 33.0354 68.9648C26.2233 65.5802 20.667 60.2691 17.1402 53.7517C13.2244 46.5156 12.0421 38.223 13.7828 30.2626C15.5238 22.3008 20.0882 15.1345 26.7325 9.97969C33.3786 4.82354 41.6956 1.99976 50.286 1.99976C58.8763 1.99976 67.1934 4.82354 73.8394 9.97969C80.4838 15.1345 85.0481 22.3008 86.7891 30.2626C88.5298 38.223 87.3475 46.5156 83.4318 53.7517C79.9049 60.2691 74.3487 65.5802 67.5366 68.9648ZM36.5717 94.0007C36.5717 92.8961 37.4671 92.0007 38.5717 92.0007H62.0002C63.1048 92.0007 64.0002 92.8961 64.0002 94.0007V95.0002C64.0002 95.7649 63.6828 96.5182 63.0851 97.0887C62.4843 97.6622 61.6502 97.9998 60.7621 97.9998H39.8098C38.9217 97.9998 38.0877 97.6622 37.4868 97.0887C36.8891 96.5182 36.5717 95.7649 36.5717 95.0002V94.0007Z" stroke="black" stroke-width="4"/>
</mask>
<g mask="url(#mask0_1_255)">
<rect x="1.00024" y="-0.000244141" width="100" height="100" fill="#ED7424"/>
<rect x="1.00024" y="-0.000244141" width="100" height="84" fill="#F7921E"/>
</g>
</g>
<defs>
<clipPath id="clip0_1_255">
<rect width="100" height="100" fill="white" transform="translate(0.666748 0.449951)"/>
</clipPath>
</defs>
</svg>
