<svg width="100" height="101" viewBox="0 0 100 101" fill="none" xmlns="http://www.w3.org/2000/svg">
<g id="chat-svgrepo-com (5) 1" clip-path="url(#clip0_3444_5804)">
<path id="Vector" fill-rule="evenodd" clip-rule="evenodd" d="M35.2959 0.900391V16.5534C35.2959 17.6579 36.1913 18.5534 37.2959 18.5534H39.1783C40.2829 18.5534 41.1783 17.6579 41.1783 16.5534V8.78862C41.1783 7.68405 42.0737 6.78862 43.1783 6.78862H92.1194C93.224 6.78862 94.1194 7.68405 94.1194 8.78862V45.9592C94.1194 47.0638 93.224 47.9592 92.1194 47.9592H84.3489C83.2443 47.9592 82.3489 48.8547 82.3489 49.9592V56.6587C82.3489 58.4407 80.1941 59.333 78.9343 58.0726L69.4112 48.5453C69.0361 48.1701 68.5273 47.9592 67.9967 47.9592H66.7018C65.5973 47.9592 64.7018 47.0638 64.7018 45.9592V26.4357C64.7018 25.3311 63.8064 24.4357 62.7018 24.4357H2.00183C0.897259 24.4357 0.00183105 25.3311 0.00183105 26.4357V75.3768C0.00183105 76.4814 0.897261 77.3768 2.00183 77.3768H15.643C16.7475 77.3768 17.643 78.2723 17.643 79.3768V94.3587C17.643 96.1416 19.7994 97.0335 21.0587 95.7714L38.8276 77.9642C39.2027 77.5882 39.7121 77.3768 40.2433 77.3768H62.7018C63.8064 77.3768 64.7018 76.4814 64.7018 75.3768V55.0478C64.7018 54.3816 65.2419 53.8416 65.9081 53.8416V53.8416C66.228 53.8416 66.5348 53.9687 66.761 54.1949L84.8229 72.2568C86.0829 73.5167 88.2371 72.6244 88.2371 70.8425V55.8416C88.2371 54.737 89.1326 53.8416 90.2371 53.8416H98.0018C99.1064 53.8416 100.002 52.9462 100.002 51.8416V2.90044C100.002 1.79587 99.1064 0.900443 98.0018 0.900443H35.2959C35.2959 0.900443 35.2959 0.900419 35.2959 0.900391V0.900391ZM17.6472 47.961H45.0589C46.1635 47.961 47.0589 47.0656 47.0589 45.961V44.0787C47.0589 42.9742 46.1635 42.0787 45.0589 42.0787H19.6471C18.5426 42.0787 17.6471 42.9742 17.6471 44.0787V47.961C17.6471 47.961 17.6472 47.961 17.6472 47.961V47.961ZM17.6472 59.7258H33.3001C34.4046 59.7258 35.3001 58.8303 35.3001 57.7258V55.8375C35.3001 54.733 34.4046 53.8375 33.3001 53.8375H19.6471C18.5426 53.8375 17.6471 54.733 17.6471 55.8375V59.7257C17.6471 59.7257 17.6472 59.7258 17.6472 59.7258V59.7258ZM5.88425 30.3122C5.88424 30.3122 5.88425 30.3122 5.88426 30.3122H56.8254C57.9299 30.3122 58.8254 31.2076 58.8254 32.3122V69.4946C58.8254 70.5991 57.9299 71.4946 56.8254 71.4946H37.8324C37.3007 71.4946 36.7909 71.7062 36.4157 72.0828L26.9421 81.5895C25.6832 82.8528 23.5254 81.9612 23.5254 80.1777V73.4946C23.5254 72.39 22.63 71.4946 21.5254 71.4946H7.88428C6.77971 71.4946 5.88428 70.5991 5.88428 69.4946V30.3122C5.88428 30.3122 5.88426 30.3122 5.88425 30.3122V30.3122Z" fill="white"/>
</g>
<defs>
<clipPath id="clip0_3444_5804">
<rect width="100" height="100" fill="white" transform="translate(6.10352e-05 0.902344)"/>
</clipPath>
</defs>
</svg>
