<svg width="100" height="101" viewBox="0 0 100 101" fill="none" xmlns="http://www.w3.org/2000/svg">
<g id="marketing-hand-give-bar-chart-statistic-svgrepo-com 1" clip-path="url(#clip0_3446_6291)">
<path id="Vector" d="M97.5 55.8669C95.8333 55.0335 93.3333 54.6169 91.6667 55.4502L87.5 57.1169V7.11686C87.5 3.36686 84.5833 0.450195 81.25 0.450195H72.9167C69.5833 0.450195 66.6667 3.36686 66.6667 6.7002V12.9502H56.25C52.9167 12.9502 50 15.8669 50 19.2002V33.7835H39.5833C36.25 33.7835 33.3333 36.7002 33.3333 40.0335V61.7002L20.8333 64.6169V63.3669C20.8333 60.8669 19.5833 58.7835 17.5 57.9502L12.5 55.4502C11.6667 52.5335 9.16667 50.4502 6.25 50.4502H2.08333C0.833333 50.4502 0 51.2835 0 52.5335V98.3669C0 99.6169 0.833333 100.45 2.08333 100.45H6.25C9.16667 100.45 11.6667 98.3669 12.5 95.4502L17.5 92.9502C19.1667 92.1169 20.4167 90.0335 20.8333 87.9502L40.8333 99.6169C41.6667 100.034 42.9167 100.45 44.1667 100.45C45 100.45 46.25 100.034 47.0833 99.6169L97.0833 72.9502C99.1667 71.7002 100.417 69.6169 100.417 67.5335V61.2835C100 59.2002 99.1667 57.1169 97.5 55.8669ZM8.33333 94.2002C8.33333 95.4502 7.5 96.2835 6.25 96.2835H4.16667V54.6169H6.25C7.5 54.6169 8.33333 55.4502 8.33333 56.7002V94.2002ZM16.6667 87.5335C16.6667 88.3669 16.25 89.2002 15.4167 89.2002L12.5 90.8669V60.0335L15.4167 61.7002C16.25 62.1169 16.6667 62.5335 16.6667 63.3669V87.5335ZM70.8333 6.7002C70.8333 5.4502 71.6667 4.61686 72.9167 4.61686H81.25C82.5 4.61686 83.3333 5.4502 83.3333 6.7002V58.3669L70.8333 62.9502V6.7002ZM54.1667 19.2002C54.1667 17.9502 55 17.1169 56.25 17.1169H66.6667V64.6169L60.8333 66.7002L59.5833 62.1169C58.75 59.6169 56.6667 57.9502 54.5833 57.5335V19.2002H54.1667ZM37.5 40.0335C37.5 38.7835 38.3333 37.9502 39.5833 37.9502H50V57.9502L37.5 60.8669V40.0335ZM95.8333 67.1169C95.8333 67.9502 95.4167 68.7835 94.5833 68.7835L44.5833 95.8669C44.1667 96.2835 43.3333 96.2835 42.5 95.8669L20.8333 83.3669V68.7835L52.9167 61.7002C54.1667 61.2835 55 62.1169 55.4167 63.3669L57.5 70.0335C57.5 70.4502 57.5 71.2835 57.5 71.7002C57.0833 72.1169 56.6667 72.5335 56.25 72.5335L43.75 75.4502C42.5 75.8669 42.0833 76.7002 42.0833 77.9502C42.5 78.7835 43.3333 79.6169 44.1667 79.6169H44.5833L57.0833 76.7002C58.75 76.2835 60 75.0335 60.8333 73.7835C61.25 72.9502 61.6667 72.1169 61.6667 71.2835L93.3333 59.6169C94.1667 59.2002 94.5833 59.6169 95.4167 60.0335C95.8333 60.4502 96.25 60.8669 96.25 61.7002V67.1169H95.8333Z" fill="#3B7C93"/>
</g>
<defs>
<clipPath id="clip0_3446_6291">
<rect width="100" height="100" fill="white" transform="translate(0 0.450195)"/>
</clipPath>
</defs>
</svg>
