<svg width="101" height="101" viewBox="0 0 101 101" fill="none" xmlns="http://www.w3.org/2000/svg">
<g id="marketing-speaker-svgrepo-com 1" clip-path="url(#clip0_3444_5966)">
<g id="Group">
<g id="Group_2">
<path id="Vector" d="M70.7085 14.2637H65.698C63.3396 14.2637 61.3652 15.9365 60.8974 18.1578C57.0509 20.0822 38.1738 29.0203 13.3166 32.292C11.9207 32.4758 10.722 33.2344 9.94702 34.3053H5.5728C2.86753 34.3055 0.666748 36.5063 0.666748 39.2115V49.2324C0.666748 51.9377 2.86753 54.1385 5.5728 54.1385H9.94741C10.7222 55.2094 11.921 55.9682 13.3167 56.1518C13.5666 56.1848 13.8146 56.2193 14.0634 56.2535L21.7564 83.9484C22.3441 86.0639 24.2878 87.5414 26.4835 87.5414H35.6298C35.6316 87.5414 35.6332 87.5418 35.6349 87.5418C35.6371 87.5418 35.6388 87.5414 35.641 87.5414H37.3058C38.1705 87.5414 38.8716 86.8404 38.8716 85.9756C38.8716 85.1107 38.1707 84.4098 37.3058 84.4098H36.8259L29.8394 59.2598C46.2667 63.2627 57.9613 68.8172 60.8976 70.2861C61.3652 72.5074 63.3398 74.1803 65.6982 74.1803H70.7085C73.4138 74.1803 75.6146 71.9795 75.6146 69.2742V19.1697C75.6146 16.4645 73.4138 14.2637 70.7085 14.2637ZM9.01753 51.0068H5.5728C4.59429 51.0068 3.79819 50.2107 3.79819 49.2322V39.2113C3.79819 38.2328 4.59429 37.4367 5.5728 37.4367H9.01753V51.0068ZM33.5755 84.4098H26.4835C25.6894 84.4098 24.9865 83.8754 24.774 83.1102L17.4529 56.7564C20.5357 57.2502 23.5125 57.8248 26.3652 58.4537L33.5755 84.4098ZM72.483 69.2742C72.483 70.2527 71.6869 71.0488 70.7084 71.0488H65.698C64.7195 71.0488 63.9234 70.2527 63.9234 69.2742V69.2723C63.9234 69.2688 63.9234 69.2652 63.9234 69.2615V32.5316C63.9234 31.667 63.2224 30.9658 62.3576 30.9658C61.4927 30.9658 60.7917 31.6668 60.7917 32.5316V66.7535C54.6271 63.8262 36.6556 56.0652 13.7251 53.0471C12.8263 52.9289 12.1488 52.1717 12.1488 51.2859V37.158C12.1488 36.2723 12.8265 35.5152 13.7251 35.3969C36.6556 32.3789 54.6271 24.6178 60.7917 21.6906V25.851C60.7917 26.7156 61.4927 27.4168 62.3576 27.4168C63.2224 27.4168 63.9234 26.7158 63.9234 25.851V19.1807C63.9234 19.1787 63.9234 19.1768 63.9234 19.1748V19.1697C63.9234 18.1912 64.7195 17.3951 65.698 17.3951H70.7084C71.6869 17.3951 72.483 18.1912 72.483 19.1697V69.2742Z" fill="white"/>
</g>
</g>
<g id="Group_3">
<g id="Group_4">
<path id="Vector_2" d="M99.1009 42.6562H82.3993C81.5347 42.6562 80.8335 43.3572 80.8335 44.2221C80.8335 45.0867 81.5345 45.7879 82.3993 45.7879H99.1009C99.9655 45.7879 100.667 45.0869 100.667 44.2221C100.667 43.3572 99.9657 42.6562 99.1009 42.6562Z" fill="white"/>
</g>
</g>
<g id="Group_5">
<g id="Group_6">
<path id="Vector_3" d="M95.5295 26.9034C95.1889 26.1085 94.2684 25.7405 93.4737 26.0811L91.8033 26.7969C91.0086 27.1376 90.6403 28.0581 90.9811 28.8528C91.2356 29.4466 91.8137 29.802 92.4209 29.802C92.6268 29.802 92.836 29.7612 93.0369 29.6751L94.7073 28.9593C95.502 28.6186 95.8701 27.6983 95.5295 26.9034Z" fill="white"/>
</g>
</g>
<g id="Group_7">
<g id="Group_8">
<path id="Vector_4" d="M88.8491 29.7666C88.5084 28.9719 87.5879 28.6038 86.7932 28.9444L81.7828 31.0918C80.9881 31.4325 80.6198 32.353 80.9606 33.1477C81.2151 33.7413 81.7932 34.0969 82.4004 34.0969C82.6063 34.0969 82.8155 34.0561 83.0164 33.97L88.0268 31.8225C88.8215 31.4819 89.1899 30.5614 88.8491 29.7666Z" fill="white"/>
</g>
</g>
<g id="Group_9">
<g id="Group_10">
<path id="Vector_5" d="M94.707 59.4835L93.032 58.7658C92.2373 58.4249 91.3167 58.7933 90.9761 59.588C90.6355 60.3827 91.0037 61.3033 91.7984 61.6439L93.4734 62.3617C93.6744 62.4478 93.8835 62.4886 94.0894 62.4886C94.697 62.4886 95.2747 62.1329 95.5292 61.5392C95.8701 60.7447 95.5021 59.8242 94.707 59.4835Z" fill="white"/>
</g>
</g>
<g id="Group_11">
<g id="Group_12">
<path id="Vector_6" d="M88.0244 56.6199L83.0164 54.4736C82.2216 54.1332 81.3009 54.5011 80.9605 55.2959C80.6199 56.0908 80.988 57.0111 81.7828 57.3517L86.7908 59.498C86.9917 59.5841 87.2009 59.625 87.4068 59.625C88.0144 59.625 88.5921 59.2693 88.8466 58.6757C89.1874 57.881 88.8191 56.9605 88.0244 56.6199Z" fill="white"/>
</g>
</g>
</g>
<defs>
<clipPath id="clip0_3444_5966">
<rect width="100" height="100" fill="white" transform="translate(0.666748 0.902344)"/>
</clipPath>
</defs>
</svg>
