<svg width="101" height="101" viewBox="0 0 101 101" fill="none" xmlns="http://www.w3.org/2000/svg">
<g clip-path="url(#clip0_1_277)">
<path d="M2.00439 34.5371V34.4913L2.0023 34.4456C1.97661 33.8845 2.13737 33.3306 2.4595 32.8704C2.77864 32.4145 3.23838 32.076 3.76813 31.9064L71.356 12.0806C71.5389 12.027 71.7285 11.9998 71.919 11.9998H72.7076C73.3823 11.9998 74.0294 12.2678 74.5065 12.7449C74.9835 13.2219 75.2516 13.869 75.2516 14.5437V74.9783C75.2516 75.653 74.9835 76.3 74.5065 76.7771C74.0294 77.2542 73.3823 77.5222 72.7076 77.5222H71.919C71.7285 77.5222 71.5389 77.495 71.356 77.4414L3.84181 57.6372C3.31998 57.4183 2.87022 57.056 2.54513 56.5916L0.906661 57.7385L2.54512 56.5916C2.20933 56.1119 2.02143 55.5445 2.00439 54.9595V34.5371ZM19.4879 85.6769L19.4827 85.6272L19.4751 85.5779L17.4901 72.7519C17.2653 71.2995 18.6315 70.1088 20.0396 70.5299L36.0132 75.3071C36.7128 75.5163 37.2428 76.0902 37.3958 76.8042L38.9223 83.9277C38.9958 84.6814 38.919 85.4425 38.6961 86.1669C38.4643 86.9202 38.0795 87.6175 37.5657 88.2151L37.5579 88.2243L37.5502 88.2335C37.1484 88.7123 36.6484 89.0993 36.084 89.368L36.9439 91.1737L36.084 89.368C35.524 89.6347 34.9136 89.7788 34.2936 89.7909L24.0873 89.7909L24.0766 89.7909C22.9375 89.797 21.8369 89.3793 20.9888 88.6189C20.1407 87.8585 19.6057 86.8098 19.4879 85.6769Z" stroke="#ED7424" stroke-width="4"/>
<path d="M86.527 29.1375L86.4559 29.1308L86.3845 29.1292C85.8958 29.1183 85.4186 28.9782 85.0014 28.7233C84.5918 28.4729 84.2543 28.1205 84.0219 27.7008C83.8764 27.4068 83.7891 27.0875 83.7648 26.7603C83.7399 26.4245 83.7819 26.087 83.8884 25.7676C83.9948 25.4481 84.1637 25.1529 84.3852 24.8992C84.6066 24.6455 84.8762 24.4383 85.1783 24.2896L85.1783 24.2896L85.1895 24.284L94.2774 19.7401C94.8876 19.435 95.594 19.3848 96.2412 19.6005C96.8884 19.8162 97.4234 20.2802 97.7285 20.8904C98.0336 21.5006 98.0838 22.207 97.868 22.8542C97.6523 23.5014 97.1883 24.0364 96.5781 24.3415L87.4902 28.8854L87.4299 28.9156L87.3718 28.9497C87.1169 29.0994 86.8213 29.1651 86.527 29.1375Z" stroke="#F7921E" stroke-width="4"/>
<path d="M96.5781 65.4071L96.6101 65.4231L96.6426 65.438C96.928 65.5681 97.184 65.7549 97.3951 65.987C97.6062 66.219 97.7679 66.4915 97.8705 66.788C97.9732 67.0844 98.0145 67.3986 97.9921 67.7115C97.9701 68.018 97.8874 68.317 97.7488 68.5911C97.5163 69.0133 97.1777 69.3677 96.7662 69.6192C96.3491 69.8741 95.8719 70.0142 95.3831 70.0251L95.3117 70.0267L95.2406 70.0334C94.9463 70.061 94.6508 69.9953 94.3959 69.8456L94.3377 69.8115L94.2774 69.7813L85.1895 65.2374L85.1895 65.2374L85.1783 65.2318C84.8762 65.0831 84.6066 64.8759 84.3852 64.6222C84.1637 64.3685 83.9948 64.0733 83.8884 63.7539C83.7819 63.4344 83.7399 63.097 83.7648 62.7611C83.7878 62.451 83.8675 62.148 83.9996 61.867C84.3584 61.3148 84.9028 60.9077 85.5359 60.7201C86.1895 60.5265 86.8913 60.5806 87.5073 60.8717L96.5781 65.4071Z" stroke="#F7921E" stroke-width="4"/>
<path d="M95.4269 47.3047H86.339C85.6643 47.3047 85.0172 47.0367 84.5401 46.5596C84.0631 46.0825 83.795 45.4355 83.795 44.7607C83.795 44.086 84.0631 43.439 84.5401 42.9619C85.0172 42.4848 85.6643 42.2168 86.339 42.2168H95.4269C96.1016 42.2168 96.7487 42.4848 97.2257 42.9619C97.7028 43.439 97.9708 44.086 97.9708 44.7607C97.9708 45.4355 97.7028 46.0825 97.2257 46.5596C96.7487 47.0367 96.1016 47.3047 95.4269 47.3047Z" stroke="#F7921E" stroke-width="4"/>
</g>
<defs>
<clipPath id="clip0_1_277">
<rect width="100" height="100" fill="white" transform="translate(0.333374 0.449951)"/>
</clipPath>
</defs>
</svg>
