<svg width="100" height="101" viewBox="0 0 100 101" fill="none" xmlns="http://www.w3.org/2000/svg">
<g id="mobile-phone-svgrepo-com 1" clip-path="url(#clip0_3444_5939)">
<path id="Vector" d="M68.153 76.8656C70.3625 76.8656 72.153 75.0751 72.153 72.8656V20.9656C72.153 18.7562 70.3625 16.9656 68.153 16.9656H32.053C29.8435 16.9656 28.053 18.7562 28.053 20.9656V72.8656C28.053 75.0751 29.8435 76.8656 32.053 76.8656H68.153ZM68.153 80.8656H32.053C27.6344 80.8656 24.053 77.2842 24.053 72.8656V20.9656C24.053 16.5471 27.6344 12.9656 32.053 12.9656H68.153C72.5715 12.9656 76.153 16.5471 76.153 20.9656V72.8656C76.153 77.2842 72.5715 80.8656 68.153 80.8656ZM42.165 11.0156H58.04C59.1446 11.0156 60.04 10.1202 60.04 9.01562C60.04 7.91103 59.1446 7.01562 58.04 7.01562H42.165C41.0604 7.01562 40.165 7.91103 40.165 9.01562C40.165 10.1202 41.0604 11.0156 42.165 11.0156Z" fill="white"/>
<path id="Vector_2" d="M74.205 96.8653C78.6234 96.8653 82.205 93.2838 82.205 88.8653V12.9023C82.205 8.48389 78.6234 4.90234 74.205 4.90234H26C21.5815 4.90234 18 8.48389 18 12.9023V88.8653C18 93.2838 21.5815 96.8653 26 96.8653H74.205ZM74.205 100.865H26C19.3725 100.865 14 95.4929 14 88.8653V12.9023C14 6.2748 19.3725 0.902344 26 0.902344H74.205C80.8325 0.902344 86.205 6.2748 86.205 12.9023V88.8653C86.205 95.4929 80.8325 100.865 74.205 100.865Z" fill="white"/>
<path id="Vector_3" d="M52.1025 88.8652C52.1025 87.7608 51.2069 86.8652 50.1025 86.8652C48.9981 86.8652 48.1025 87.7608 48.1025 88.8652C48.1025 89.9696 48.9981 90.8652 50.1025 90.8652C51.2069 90.8652 52.1025 89.9696 52.1025 88.8652ZM56.1025 88.8652C56.1025 92.1788 53.4161 94.8652 50.1025 94.8652C46.789 94.8652 44.1025 92.1788 44.1025 88.8652C44.1025 85.5517 46.789 82.8652 50.1025 82.8652C53.4161 82.8652 56.1025 85.5517 56.1025 88.8652Z" fill="white"/>
</g>
<defs>
<clipPath id="clip0_3444_5939">
<rect width="100" height="100" fill="white" transform="translate(0 0.902344)"/>
</clipPath>
</defs>
</svg>
