<svg width="101" height="101" viewBox="0 0 101 101" fill="none" xmlns="http://www.w3.org/2000/svg">
<g id="timelapse-svgrepo-com (1) 1" clip-path="url(#clip0_3445_5789)">
<path id="Vector" d="M50.6446 0C49.1813 0 48.0282 1.1975 48.0282 2.66085V19.1131C48.0282 20.6209 49.1813 21.7738 50.6446 21.7738C52.1524 21.7738 53.3053 20.6209 53.3053 19.1131V2.66085C53.3053 1.1975 52.1524 0 50.6446 0ZM37.5625 1.1975C36.0992 1.50781 35.3009 2.79386 35.7001 4.47896L37.1635 10.0665C37.5625 11.4413 38.9816 12.1953 40.6224 11.7073C42.1747 11.2195 42.751 9.97794 42.352 8.55887L40.7999 3.1929C40.3564 1.59655 39.026 0.931287 37.5625 1.1975ZM63.771 1.33052C62.3519 0.842737 60.9329 1.55208 60.5338 3.1929L59.026 8.64742C58.627 10.0665 59.3808 11.53 60.7998 11.8848C62.2632 12.2396 63.6822 11.4856 64.0815 10.0222L65.5448 4.5677C65.9439 3.05989 65.1456 1.72956 63.771 1.33052ZM25.6779 6.65183C24.3919 7.40583 23.9926 9.00219 24.7023 10.2884L32.9505 24.5677C33.6603 25.898 35.3009 26.2972 36.5427 25.5432C37.8287 24.8337 38.272 23.2373 37.474 21.9513L29.2699 7.62758C28.516 6.3858 26.964 5.98676 25.6779 6.65183ZM75.7 6.6963C74.414 5.98676 72.7732 6.3858 72.0636 7.62758L63.8153 21.9513C63.0614 23.2373 63.505 24.8337 64.791 25.5432C66.0326 26.2972 67.6291 25.898 68.383 24.5677L76.5869 10.2884C77.3409 9.00219 76.9416 7.45029 75.7 6.6963ZM14.9462 14.3237C13.8819 15.3437 14.0149 17.0288 14.9904 18.0488L18.9373 22.04C20.0459 23.1486 21.5537 23.1929 22.7068 22.0843C23.6823 21.0645 23.7711 19.4679 22.6623 18.3149L18.7156 14.3682C17.5625 13.2151 16.0549 13.2594 14.9462 14.3237ZM86.3429 14.3682C85.323 13.3039 83.6383 13.3926 82.6624 14.3682L78.6269 18.3593C77.5182 19.5122 77.5182 21.02 78.5825 22.0843C79.6912 23.1929 81.2876 23.1929 82.3076 22.1288L86.2547 18.1376C87.3627 16.9845 87.4074 15.4325 86.3429 14.3682ZM7.36304 24.9669C6.65351 26.2528 7.05255 27.8493 8.29433 28.6031L22.5736 36.8515C23.9041 37.6053 25.5004 37.162 26.21 35.9202C26.964 34.6341 26.5649 33.0378 25.2344 32.2838L10.9552 24.0356C9.66894 23.3261 8.11704 23.7251 7.36304 24.9669ZM93.9708 25.0112C93.2607 23.7251 91.6649 23.3261 90.3789 24.0356L76.0991 32.2838C74.7688 33.0378 74.3697 34.6341 75.1235 35.9202C75.8331 37.162 77.3851 37.6053 78.7155 36.8515L92.9945 28.6031C94.2806 27.8493 94.6802 26.2972 93.9708 25.0112ZM99.4246 36.9845C99.0704 35.5212 97.5628 34.6786 96.2323 35.0777L90.6886 36.5855C89.2699 36.9845 88.3827 38.3593 88.915 40.0001C89.2699 41.153 90.5115 42.0843 92.0636 41.6852L97.4738 40.1774C98.9815 39.7784 99.7797 38.3593 99.4246 36.9845ZM1.86425 36.9402C1.55376 38.3593 2.44077 39.7784 3.7711 40.1774L9.22562 41.7295C10.689 42.0843 12.1523 41.286 12.4628 39.8226C12.7733 38.4036 12.108 36.8958 10.6447 36.541L5.19017 35.1664C3.59362 34.7672 2.13028 35.5654 1.86425 36.9402ZM100.667 49.9779C100.667 48.5145 99.469 47.3615 98.0061 47.3615H81.5093C80.0015 47.3615 78.8929 48.5145 78.8929 49.9779C78.8929 51.4857 80.0015 52.6385 81.5093 52.6385H98.0061C99.469 52.6385 100.667 51.4857 100.667 49.9779ZM0.666748 49.9779C0.666748 51.4857 1.81979 52.6385 3.28332 52.6385H19.7799C21.2877 52.6385 22.4405 51.4857 22.4405 49.9779C22.4405 48.5145 21.2877 47.3615 19.7799 47.3615H3.28332C1.81979 47.3615 0.666748 48.5145 0.666748 49.9779ZM99.4246 63.193C99.8242 61.6852 99.1148 60.3104 97.5628 59.8671L92.0636 58.3148C90.6004 57.9158 89.2255 58.7583 88.8268 60.1774C88.4716 61.6409 89.2699 63.1485 90.6886 63.5033L96.0989 64.9223C97.6509 65.3216 99.0259 64.5233 99.4246 63.193ZM1.86425 63.06C2.21883 64.479 3.7711 65.2328 5.1457 64.9223L10.6002 63.5477C12.1523 63.1485 12.9063 61.7739 12.4628 60.3104C12.0638 58.8913 10.6447 58.0488 9.22562 58.4035L3.85984 59.8671C2.26329 60.3104 1.55376 61.6852 1.86425 63.06ZM93.9708 74.9888C94.6802 73.7472 94.2806 72.1509 92.9945 71.3969L78.7155 63.1485C77.3851 62.3947 75.8331 62.8382 75.0791 64.0798C74.3697 65.3659 74.7688 66.9624 76.0991 67.7162L90.3789 75.9646C91.6649 76.6741 93.217 76.2749 93.9708 74.9888ZM7.36304 74.9888C8.07258 76.2749 9.66894 76.6741 10.9552 75.9646L25.2344 67.7162C26.5649 66.9624 26.964 65.3659 26.21 64.1243C25.5004 62.8382 23.9041 62.3947 22.5736 63.1485L8.29433 71.3969C7.05255 72.1509 6.65351 73.703 7.36304 74.9888ZM25.6779 93.3037C26.9195 94.0132 28.516 93.6142 29.2699 92.3281L37.474 78.0487C38.272 76.7627 37.8287 75.1663 36.5869 74.4125C35.3009 73.703 33.6603 74.102 32.9505 75.4323L24.7023 89.7118C23.9926 90.9978 24.3919 92.5499 25.6779 93.3037ZM75.6558 93.3037C76.9416 92.5944 77.3409 90.9978 76.5869 89.7118L68.383 75.4323C67.6291 74.102 66.0326 73.703 64.791 74.4125C63.505 75.1663 63.0614 76.7627 63.8153 78.0487L72.0636 92.3281C72.7732 93.6142 74.3697 94.0132 75.6558 93.3037ZM86.2984 85.7206C87.4073 84.612 87.3627 82.9269 86.3873 81.9512L82.3519 77.9602C81.2433 76.9402 79.6468 76.8071 78.5382 77.9602C77.5182 79.0688 77.5626 80.5766 78.5825 81.6409L82.5736 85.6318C83.6818 86.7406 85.2784 86.7849 86.2984 85.7206ZM14.9904 85.6763C16.0992 86.7406 17.6513 86.7406 18.6713 85.7651L22.7068 81.7739C23.7711 80.6208 23.8153 79.113 22.751 78.0487C21.6867 76.9844 20.0459 76.9402 18.9816 78.0045L15.0349 81.9956C13.9261 83.1485 13.8819 84.612 14.9904 85.6763ZM50.6446 100C52.1524 100 53.3053 98.8027 53.3053 97.3393V80.8869C53.3053 79.3792 52.1524 78.2262 50.6446 78.2262C49.1813 78.2262 48.0282 79.3792 48.0282 80.8869V97.3393C48.0282 98.8027 49.1813 100 50.6446 100ZM63.771 98.8027C65.4561 98.4035 65.9439 96.9401 65.5891 95.5653L64.17 89.9778C63.771 88.5587 62.2632 87.7604 60.8441 88.1597C59.2478 88.6032 58.627 90.0665 59.026 91.3969L60.5781 96.8071C61.0216 98.2706 62.1744 99.1132 63.771 98.8027ZM37.3409 98.7584C38.9816 99.2905 40.4451 98.3149 40.7999 96.9401L42.3075 91.4856C42.7067 90.0665 41.9084 88.6032 40.4894 88.2484C39.026 87.8937 37.607 88.6475 37.2077 90.1108L35.7887 95.5653C35.3896 97.0731 35.8774 98.3149 37.3409 98.7584Z" fill="white"/>
</g>
<defs>
<clipPath id="clip0_3445_5789">
<rect width="100" height="100" fill="white" transform="translate(0.666748 0.354492)"/>
</clipPath>
</defs>
</svg>
