<svg width="101" height="101" viewBox="0 0 101 101" fill="none" xmlns="http://www.w3.org/2000/svg">
<g clip-path="url(#clip0_3446_5998)">
<path d="M93.0309 24.9996L98.9337 19.0968C99.289 18.8032 99.5493 18.4109 99.6817 17.9695C99.8141 17.528 99.8128 17.0572 99.6777 16.6166C99.4799 16.131 99.1333 15.7206 98.6877 15.4444C98.2421 15.1681 97.7204 15.0401 97.1976 15.0789H84.7967V2.67798C84.8354 2.15511 84.7075 1.63341 84.4312 1.1878C84.1549 0.742194 83.7445 0.395603 83.259 0.197801C82.8105 0.00262319 82.3128 -0.0497105 81.8335 0.0479148C81.3543 0.14554 80.9167 0.388387 80.5804 0.74344L74.8759 6.84468C67.3454 2.46643 58.7849 0.172213 50.0742 0.197801C39.0745 0.159683 28.3705 3.75703 19.6264 10.4305C10.8824 17.104 4.5883 26.4796 1.72289 37.0995C-1.14252 47.7195 -0.418693 58.9886 3.78181 69.1547C7.98232 79.3208 15.4241 87.8141 24.9501 93.3141C34.476 98.8141 45.5523 101.012 56.4567 99.5675C67.3611 98.1224 77.4825 93.115 85.2471 85.3237C93.0118 77.5324 97.9845 67.3939 99.3921 56.4846C100.8 45.5753 98.5635 34.5067 93.0309 24.9996ZM82.3165 20.0392H91.1955L81.2748 29.96H69.9156V18.6007L79.8363 8.68002V17.5591C79.8363 18.2168 80.0976 18.8477 80.5627 19.3128C81.0279 19.7779 81.6587 20.0392 82.3165 20.0392ZM79.8363 49.8014C79.854 56.3565 77.707 62.734 73.7288 67.9439C69.7506 73.1538 64.1637 76.9046 57.8354 78.614C51.5071 80.3234 44.7915 79.8957 38.7311 77.3974C32.6708 74.8991 27.6048 70.4699 24.3196 64.7974C21.0344 59.125 19.7138 52.5266 20.5628 46.0267C21.4118 39.5268 24.383 33.4891 29.015 28.8508C33.647 24.2125 39.6808 21.2332 46.1795 20.3754C52.6782 19.5175 59.2783 20.8292 64.9552 24.1067V31.3985L62.1774 34.1763C58.1895 31.0841 53.1732 29.6276 48.1494 30.1031C43.1255 30.5787 38.4717 32.9506 35.1348 36.7362C31.798 40.5218 30.0289 45.4366 30.1877 50.4804C30.3464 55.5242 32.421 60.318 35.9893 63.8863C39.5576 67.4545 44.3514 69.5291 49.3952 69.6879C54.439 69.8466 59.3537 68.0775 63.1393 64.7407C66.9249 61.4039 69.2968 56.75 69.7724 51.7262C70.248 46.7023 68.7915 41.686 65.6993 37.6981L68.4771 34.9203H75.7688C78.409 39.437 79.812 44.5697 79.8363 49.8014ZM64.9552 49.8014C64.9552 52.7446 64.0825 55.6217 62.4473 58.0689C60.8122 60.5161 58.4881 62.4234 55.7689 63.5497C53.0497 64.676 50.0576 64.9707 47.171 64.3965C44.2844 63.8223 41.6328 62.4051 39.5516 60.3239C37.4705 58.2427 36.0532 55.5912 35.479 52.7045C34.9048 49.8179 35.1995 46.8258 36.3258 44.1066C37.4521 41.3875 39.3595 39.0634 41.8067 37.4282C44.2538 35.7931 47.131 34.9203 50.0742 34.9203C53.1531 34.9362 56.1514 35.9067 58.6556 37.6981L48.338 48.0653C48.1008 48.2879 47.9117 48.5569 47.7824 48.8555C47.6531 49.1541 47.5864 49.476 47.5864 49.8014C47.5864 50.1268 47.6531 50.4487 47.7824 50.7473C47.9117 51.0459 48.1008 51.3148 48.338 51.5375C48.5607 51.7748 48.8296 51.9639 49.1282 52.0931C49.4268 52.2224 49.7488 52.2891 50.0742 52.2891C50.3995 52.2891 50.7215 52.2224 51.0201 52.0931C51.3187 51.9639 51.5876 51.7748 51.8103 51.5375L62.1774 41.22C63.9688 43.7242 64.9394 46.7224 64.9552 49.8014ZM50.0742 94.4446C43.2774 94.4718 36.5642 92.9468 30.4463 89.9857C24.3284 87.0247 18.9674 82.7058 14.772 77.3584C10.5766 72.0109 7.65752 65.7762 6.23742 59.1294C4.81732 52.4826 4.93364 45.5993 6.57752 39.0043C8.22141 32.4093 11.3494 26.2767 15.7231 21.0741C20.0968 15.8715 25.6007 11.7362 31.8152 8.98354C38.0296 6.23089 44.7906 4.93354 51.5825 5.19041C58.3744 5.44728 65.0181 7.25158 71.0069 10.4657L65.6993 15.8229C65.461 16.0444 65.2717 16.3133 65.1436 16.6123C65.0154 16.9113 64.9513 17.2338 64.9552 17.5591V18.4519C57.5622 14.9407 49.1666 14.1538 41.2499 16.2302C33.3332 18.3065 26.4044 23.1126 21.6864 29.8003C16.9683 36.488 14.7642 44.6273 15.4632 52.7819C16.1621 60.9364 19.719 68.582 25.5063 74.3692C31.2936 80.1565 38.9391 83.7135 47.0937 84.4124C55.2482 85.1113 63.3876 82.9072 70.0752 78.1892C76.7629 73.4711 81.569 66.5423 83.6454 58.6257C85.7217 50.709 84.9348 42.3133 81.4236 34.9203H82.3165C82.6418 34.9243 82.9643 34.8601 83.2633 34.732C83.5623 34.6038 83.8312 34.4145 84.0526 34.1763L89.4098 28.8687C93.0174 35.6643 94.8074 43.277 94.6064 50.9682C94.4053 58.6594 92.2199 66.1681 88.2622 72.766C84.3045 79.3638 78.7088 84.8269 72.0179 88.6252C65.327 92.4235 57.768 94.4281 50.0742 94.4446Z" fill="#ED7424"/>
</g>
<defs>
<clipPath id="clip0_3446_5998">
<rect width="100" height="100" fill="white" transform="translate(0.25 0.450195)"/>
</clipPath>
</defs>
</svg>
