<svg width="101" height="101" viewBox="0 0 101 101" fill="none" xmlns="http://www.w3.org/2000/svg">
<g clip-path="url(#clip0_3446_6051)">
<path d="M38.5 15H23.5C22.837 15 22.2011 15.2634 21.7322 15.7322C21.2634 16.2011 21 16.837 21 17.5C21 18.163 21.2634 18.7989 21.7322 19.2678C22.2011 19.7366 22.837 20 23.5 20H38.5C39.163 20 39.7989 19.7366 40.2678 19.2678C40.7366 18.7989 41 18.163 41 17.5C41 16.837 40.7366 16.2011 40.2678 15.7322C39.7989 15.2634 39.163 15 38.5 15Z" fill="#ED7424"/>
<path d="M38.5 30H23.5C22.837 30 22.2011 30.2634 21.7322 30.7322C21.2634 31.2011 21 31.837 21 32.5C21 33.163 21.2634 33.7989 21.7322 34.2678C22.2011 34.7366 22.837 35 23.5 35H38.5C39.163 35 39.7989 34.7366 40.2678 34.2678C40.7366 33.7989 41 33.163 41 32.5C41 31.837 40.7366 31.2011 40.2678 30.7322C39.7989 30.2634 39.163 30 38.5 30Z" fill="#ED7424"/>
<path d="M38.5 45H23.5C22.837 45 22.2011 45.2634 21.7322 45.7322C21.2634 46.2011 21 46.837 21 47.5C21 48.163 21.2634 48.7989 21.7322 49.2678C22.2011 49.7366 22.837 50 23.5 50H38.5C39.163 50 39.7989 49.7366 40.2678 49.2678C40.7366 48.7989 41 48.163 41 47.5C41 46.837 40.7366 46.2011 40.2678 45.7322C39.7989 45.2634 39.163 45 38.5 45Z" fill="#ED7424"/>
<path d="M86 70H81C81.1301 66.4557 82.5119 63.0722 84.9 60.45C91 55.9 96 50.6 96 42.5C95.9954 36.7302 93.7793 31.1817 89.8078 26.9963C85.8363 22.8109 80.4116 20.307 74.65 20L55.25 0.75C54.9479 0.393349 54.5482 0.132681 54.1 0H13.5C11.5109 0 9.60322 0.790177 8.1967 2.1967C6.79018 3.60322 6 5.51088 6 7.5V92.5C6 94.4891 6.79018 96.3968 8.1967 97.8033C9.60322 99.2098 11.5109 100 13.5 100H68.5C70.4891 100 72.3968 99.2098 73.8033 97.8033C75.2098 96.3968 76 94.4891 76 92.5V90H93.5C94.163 90 94.7989 89.7366 95.2678 89.2678C95.7366 88.7989 96 88.163 96 87.5V80C96 77.3478 94.9464 74.8043 93.0711 72.9289C91.1957 71.0536 88.6522 70 86 70ZM91 42.5C90.6587 45.3757 89.6662 48.1358 88.098 50.5704C86.5298 53.005 84.4272 55.05 81.95 56.55C78.3004 60.0941 76.1675 64.9155 76 70H71C70.8723 64.9367 68.7945 60.1183 65.2 56.55C62.6949 55.0668 60.563 53.0291 58.9682 50.5935C57.3733 48.1579 56.358 45.3892 56 42.5C56 37.8587 57.8437 33.4075 61.1256 30.1256C64.4075 26.8437 68.8587 25 73.5 25C78.1413 25 82.5925 26.8437 85.8744 30.1256C89.1563 33.4075 91 37.8587 91 42.5ZM67.45 20H56V8.55L67.45 20ZM71 92.5C71 93.163 70.7366 93.7989 70.2678 94.2678C69.7989 94.7366 69.163 95 68.5 95H13.5C12.837 95 12.2011 94.7366 11.7322 94.2678C11.2634 93.7989 11 93.163 11 92.5V7.5C11 6.83696 11.2634 6.20107 11.7322 5.73223C12.2011 5.26339 12.837 5 13.5 5H51V22.5C51 23.163 51.2634 23.7989 51.7322 24.2678C52.2011 24.7366 52.837 25 53.5 25H59.55C56.8939 27.0802 54.7444 29.7359 53.2634 32.7672C51.7825 35.7985 51.0085 39.1263 51 42.5C51 50.6 56.25 55.9 61.95 60.45C64.3603 63.0715 65.7909 66.4451 66 70H61C58.3478 70 55.8043 71.0536 53.9289 72.9289C52.0536 74.8043 51 77.3478 51 80V87.5C51 88.163 51.2634 88.7989 51.7322 89.2678C52.2011 89.7366 52.837 90 53.5 90H71V92.5ZM91 85H56V80C56 78.6739 56.5268 77.4021 57.4645 76.4645C58.4021 75.5268 59.6739 75 61 75H86C87.3261 75 88.5979 75.5268 89.5355 76.4645C90.4732 77.4021 91 78.6739 91 80V85Z" fill="#ED7424"/>
<path d="M31 60C29.0222 60 27.0888 60.5865 25.4443 61.6853C23.7998 62.7841 22.5181 64.3459 21.7612 66.1732C21.0043 68.0004 20.8063 70.0111 21.1921 71.9509C21.578 73.8907 22.5304 75.6725 23.9289 77.0711C25.3275 78.4696 27.1093 79.422 29.0491 79.8078C30.9889 80.1937 32.9996 79.9957 34.8268 79.2388C36.6541 78.4819 38.2159 77.2002 39.3147 75.5557C40.4135 73.9112 41 71.9778 41 70C41 67.3478 39.9464 64.8043 38.0711 62.9289C36.1957 61.0536 33.6522 60 31 60ZM31 75C30.0111 75 29.0444 74.7068 28.2221 74.1573C27.3999 73.6079 26.759 72.827 26.3806 71.9134C26.0022 70.9998 25.9031 69.9945 26.0961 69.0246C26.289 68.0546 26.7652 67.1637 27.4645 66.4645C28.1637 65.7652 29.0546 65.289 30.0245 65.0961C30.9945 64.9031 31.9998 65.0022 32.9134 65.3806C33.827 65.759 34.6079 66.3999 35.1573 67.2221C35.7068 68.0444 36 69.0111 36 70C36 71.3261 35.4732 72.5979 34.5355 73.5355C33.5979 74.4732 32.3261 75 31 75Z" fill="#ED7424"/>
</g>
<defs>
<clipPath id="clip0_3446_6051">
<rect width="100" height="100" fill="white" transform="translate(0.75 0.450195)"/>
</clipPath>
</defs>
</svg>
