<svg width="100" height="101" viewBox="0 0 100 101" fill="none" xmlns="http://www.w3.org/2000/svg">
<path d="M2 94.8946V41.3391H25.7778V98.4502H5.55556C4.61257 98.4502 3.7082 98.0756 3.0414 97.4088C2.3746 96.742 2 95.8376 2 94.8946ZM96.9586 3.49159C97.6254 4.15839 98 5.06276 98 6.00575L98 26.228H2V6.00575C2 5.06276 2.3746 4.15839 3.0414 3.49159C3.70819 2.8248 4.61256 2.4502 5.55556 2.4502H94.4444C95.3874 2.4502 96.2918 2.8248 96.9586 3.49159ZM96.9586 97.4088C96.2918 98.0756 95.3874 98.4502 94.4444 98.4502H40.8889V41.3391H98V94.8946C98 95.8376 97.6254 96.742 96.9586 97.4088Z" stroke="#ED7424" stroke-width="4"/>
</svg>
