<svg width="100" height="101" viewBox="0 0 100 101" fill="none" xmlns="http://www.w3.org/2000/svg">
<path d="M24.9479 31.9199H11.5868C10.722 31.9199 10.021 32.6207 10.021 33.4857V46.8469C10.021 47.7117 10.7218 48.4127 11.5868 48.4127H24.9479C25.8128 48.4127 26.5138 47.7119 26.5138 46.8469V33.4857C26.5136 32.6209 25.8128 31.9199 24.9479 31.9199ZM23.3821 45.2811H13.1524V35.0514H23.3821V45.2811Z" fill="#ED7424"/>
<path d="M44.9895 31.9199H31.6283C30.7635 31.9199 30.0625 32.6207 30.0625 33.4857V46.8469C30.0625 47.7117 30.7633 48.4127 31.6283 48.4127H44.9895C45.8543 48.4127 46.5553 47.7119 46.5553 46.8469V33.4857C46.5551 32.6207 45.8543 31.9199 44.9895 31.9199ZM43.4236 45.2811H33.1939V35.0514H43.4236V45.2811Z" fill="#ED7424"/>
<path d="M24.9479 51.9619H11.5868C10.722 51.9619 10.021 52.6627 10.021 53.5277V66.8889C10.021 67.7537 10.7218 68.4547 11.5868 68.4547H24.9479C25.8128 68.4547 26.5138 67.7539 26.5138 66.8889V53.5277C26.5136 52.6631 25.8128 51.9619 24.9479 51.9619ZM23.3821 65.3232H13.1524V55.0936H23.3821V65.3232Z" fill="#ED7424"/>
<path d="M76.618 42.892V13.4441C76.618 12.5793 75.9172 11.8783 75.0521 11.8783H68.2672V3.42324C68.2672 2.5584 67.5664 1.85742 66.7014 1.85742H60.0207C59.1559 1.85742 58.4549 2.5582 58.4549 3.42324V11.8783H43.2148V3.42324C43.2148 2.5584 42.5141 1.85742 41.649 1.85742H34.9688C34.1039 1.85742 33.4029 2.5582 33.4029 3.42324V11.8783H18.1629V3.42324C18.1629 2.5584 17.4621 1.85742 16.5971 1.85742H9.91641C9.05156 1.85742 8.35059 2.5582 8.35059 3.42324V11.8783H1.56582C0.700781 11.8783 0 12.5791 0 13.4441V73.5693C0 74.4342 0.700781 75.1352 1.56582 75.1352H43.7633C44.7551 81.5064 47.9021 87.3531 52.7227 91.7217C57.932 96.4428 64.676 99.0428 71.7119 99.0428C87.31 99.0428 100 86.3527 100 70.7547C100 56.9783 90.0422 45.2375 76.618 42.892ZM61.5867 13.4441V4.98906H65.1357V13.4441V21.8992H61.5867V13.4441ZM36.5344 13.4441V4.98906H40.0834V13.4441V21.8992H36.5344V13.4441ZM11.4822 13.4441V4.98906H15.0312V13.4441V21.8992H11.4822V13.4441ZM44.9896 51.9619H31.6285C30.7637 51.9619 30.0627 52.6627 30.0627 53.5277V66.8889C30.0627 67.7537 30.7635 68.4547 31.6285 68.4547H43.5203C43.4586 69.2176 43.4238 69.9844 43.4238 70.7549C43.4238 71.1693 43.4352 71.5863 43.4535 72.0037H3.13145V15.0098H8.35059V23.4648C8.35059 24.3297 9.05137 25.0307 9.91641 25.0307H16.5971C17.4619 25.0307 18.1629 24.3299 18.1629 23.4648V15.0098H33.4029V23.4648C33.4029 24.3297 34.1037 25.0307 34.9688 25.0307H41.6494C42.5143 25.0307 43.2152 24.3299 43.2152 23.4648V15.0098H58.4553V23.4648C58.4553 24.3297 59.1561 25.0307 60.0211 25.0307H66.7018C67.5666 25.0307 68.2676 24.3299 68.2676 23.4648V15.0098H73.4867V42.5219C72.8951 42.4852 72.3021 42.4666 71.7121 42.4666C69.991 42.4666 68.2783 42.6242 66.5973 42.9311V33.4859C66.5973 32.6211 65.8965 31.9201 65.0314 31.9201H51.6703C50.8055 31.9201 50.1045 32.6209 50.1045 33.4859V46.8471C50.1045 47.7119 50.8053 48.4129 51.6703 48.4129H54.365C51.773 50.4272 49.5359 52.8834 47.7682 55.6865C47.3307 56.3803 46.9289 57.0924 46.5555 57.8172V53.5275C46.5553 52.6629 45.8545 51.9619 44.9896 51.9619ZM43.4238 55.0934V65.323H33.1941V55.0934H43.4238ZM63.4656 35.0516V43.6906C62.0783 44.1137 60.7189 44.6463 59.4064 45.2812H53.2359V35.0516H63.4656ZM71.7119 95.9113C58.7943 95.9113 48.04 86.2387 46.6947 73.4113C46.6945 73.4094 46.6943 73.4076 46.6941 73.4059C46.6021 72.5258 46.5553 71.6336 46.5553 70.7547C46.5553 61.1686 51.8848 52.5449 60.4641 48.2482C60.4646 48.2479 60.4654 48.2477 60.4662 48.2475C62.0518 47.4537 63.7187 46.8291 65.4209 46.391L65.4215 46.3908C67.4643 45.8646 69.5809 45.598 71.7117 45.598C72.7602 45.598 73.8187 45.6639 74.858 45.7934H74.8584C87.4064 47.3582 96.8684 58.0893 96.8684 70.7545C96.8686 84.6262 85.5834 95.9113 71.7119 95.9113Z" fill="#ED7424"/>
<path d="M93.4477 63.0217C93.1571 62.207 92.2606 61.7824 91.4469 62.0728C90.6325 62.3635 90.2077 63.2594 90.4981 64.0736C91.262 66.2152 91.6495 68.4629 91.6495 70.7549C91.6495 71.6197 92.3503 72.3207 93.2153 72.3207C94.0801 72.3207 94.7811 71.6199 94.7811 70.7549C94.7809 68.1035 94.3325 65.5018 93.4477 63.0217Z" fill="#ED7424"/>
<path d="M90.6858 57.6458C87.6282 53.2333 83.1166 50.0038 77.9821 48.5518C77.1494 48.3161 76.2846 48.8001 76.0493 49.6325C75.8139 50.4647 76.2977 51.33 77.1299 51.5653C81.567 52.82 85.4672 55.613 88.1117 59.4294C88.4158 59.8682 88.9041 60.1034 89.4002 60.1034C89.7076 60.1034 90.0186 60.0128 90.2907 59.8245C91.0012 59.3321 91.1782 58.3565 90.6858 57.6458Z" fill="#ED7424"/>
<path d="M71.7121 53.0137C61.9295 53.0137 53.9707 60.9723 53.9707 70.7551C53.9707 80.5379 61.9293 88.4967 71.7121 88.4967C81.4949 88.4967 89.4535 80.5379 89.4535 70.7551C89.4535 60.9723 81.4947 53.0137 71.7121 53.0137ZM71.7121 85.3652C63.6562 85.3652 57.1023 78.8111 57.1023 70.7553C57.1023 62.6994 63.6564 56.1455 71.7121 56.1455C79.7678 56.1455 86.3219 62.6996 86.3219 70.7553C86.3219 78.8115 79.768 85.3652 71.7121 85.3652Z" fill="#ED7424"/>
<path d="M80.8978 70.3334H73.2776V62.7133C73.2776 61.8484 72.5769 61.1475 71.7118 61.1475C70.847 61.1475 70.146 61.8482 70.146 62.7133V71.899C70.146 72.7639 70.8468 73.4648 71.7118 73.4648H80.8976C81.7624 73.4648 82.4634 72.7641 82.4634 71.899C82.4636 71.0344 81.7628 70.3334 80.8978 70.3334Z" fill="#ED7424"/>
</svg>
