<svg width="100" height="101" viewBox="0 0 100 101" fill="none" xmlns="http://www.w3.org/2000/svg">
<g clip-path="url(#clip0_3446_6223)">
<path fill-rule="evenodd" clip-rule="evenodd" d="M36.6663 3.78353C36.6663 1.94258 38.1587 0.450195 39.9997 0.450195H49.9997H59.9997C61.8406 0.450195 63.333 1.94258 63.333 3.78353C63.333 5.62448 61.8406 7.11686 59.9997 7.11686H53.333V14.5783C60.6553 15.1441 67.4598 17.5583 73.2798 21.355C73.4105 21.1736 73.5571 21.0003 73.7198 20.8373L79.0531 15.5039C80.6805 13.8767 83.3185 13.8767 84.9458 15.5039C86.5731 17.1311 86.5731 19.7693 84.9458 21.3965L79.7798 26.5623C87.7298 34.3119 92.6665 45.1378 92.6665 57.1167C92.6665 80.6809 73.5638 99.7835 49.9997 99.7835C26.4355 99.7835 7.33301 80.6809 7.33301 57.1167C7.33301 34.6743 24.6601 16.2789 46.6663 14.5783V7.11686H39.9997C38.1587 7.11686 36.6663 5.62448 36.6663 3.78353ZM13.9997 57.1167C13.9997 37.2345 30.1174 21.1167 49.9997 21.1167C69.8818 21.1167 85.9998 37.2345 85.9998 57.1167C85.9998 76.9989 69.8818 93.1169 49.9997 93.1169C30.1174 93.1169 13.9997 76.9989 13.9997 57.1167ZM53.333 30.4502C53.333 28.6093 51.8406 27.1169 49.9997 27.1169C48.1587 27.1169 46.6663 28.6093 46.6663 30.4502V63.7835C46.6663 65.6245 48.1587 67.1169 49.9997 67.1169C51.8406 67.1169 53.333 65.6245 53.333 63.7835V30.4502Z" fill="#ED7424"/>
</g>
<defs>
<clipPath id="clip0_3446_6223">
<rect width="100" height="100" fill="white" transform="translate(0 0.450195)"/>
</clipPath>
</defs>
</svg>
