<?xml version="1.0" encoding="utf-8"?>
<!-- Generator: Adobe Illustrator 27.1.1, SVG Export Plug-In . SVG Version: 6.00 Build 0)  -->
<svg version="1.1" id="Layer_1" xmlns="http://www.w3.org/2000/svg" xmlns:xlink="http://www.w3.org/1999/xlink" x="0px" y="0px"
	 viewBox="0 0 100 100" style="enable-background:new 0 0 100 100;" xml:space="preserve">
<style type="text/css">
	.st0{fill:none;stroke:#ED7424;stroke-width:4;}
	.st1{fill:none;stroke:#F7921E;stroke-width:4;}
</style>
<g>
	<path class="st0" d="M66.7,69.9L66.7,69.9l15.7-15.7c2.3-2.3,2.3-6.1,0-8.5L66.7,30.1c0,0,0,0,0,0c0,0,0-0.1,0-0.2l5.5-5.5
		c0,0,0,0,0,0c0,0,0,0,0.1,0c0,0,0.1,0,0.1,0c0,0,0,0,0,0L98,50c0,0,0,0.1,0,0.2L72.4,75.6c0,0-0.1,0-0.1,0c0,0-0.1,0-0.1,0
		l-5.5-5.5C66.7,70.1,66.7,70,66.7,69.9z M72.3,24.4C72.3,24.4,72.3,24.4,72.3,24.4L72.3,24.4z"/>
	<path class="st0" d="M33.3,70L33.3,70c0,0,0,0.1,0,0.2l0,0l-5.5,5.5c0,0-0.1,0-0.1,0c0,0-0.1,0-0.1,0l0,0L2,50.1c0,0,0,0,0,0
		c0,0,0-0.1,0-0.2v0l25.5-25.5l0,0c0,0,0.1,0,0.1,0c0,0,0.1,0,0.1,0l5.5,5.5l0,0c0,0,0,0,0,0.1c0,0,0,0.1,0,0.1c0,0,0,0,0,0
		L17.6,45.8c-2.3,2.3-2.3,6.1,0,8.5L33.3,70z"/>
	<path class="st1" d="M62.8,15.4L62.8,15.4C62.8,15.4,62.8,15.5,62.8,15.4C62.8,15.5,62.8,15.5,62.8,15.4L42,86v0c0,0,0,0,0,0.1
		c0,0,0,0-0.1,0c0,0,0,0,0,0l0,0l-4.5-1.3c0,0,0,0,0,0c0,0-0.1,0-0.1-0.1l0,0c0,0,0-0.1,0-0.1c0,0,0,0,0,0l20.8-70.5v0
		c0-0.1,0.1-0.1,0.1-0.1l0,0L62.8,15.4C62.7,15.3,62.7,15.3,62.8,15.4C62.7,15.3,62.7,15.3,62.8,15.4C62.8,15.4,62.8,15.4,62.8,15.4
		z"/>
</g>
</svg>
