<svg width="106" height="98" viewBox="0 0 106 98" fill="none" xmlns="http://www.w3.org/2000/svg">
<path id="Vector" d="M54.2334 2.4502H79.5667C80.6713 2.4502 81.5667 3.34563 81.5667 4.45019V29.7835C81.5667 30.8881 80.6713 31.7835 79.5667 31.7835H54.2334C53.1288 31.7835 52.2334 30.8881 52.2334 29.7835V4.4502C52.2334 3.34563 53.1288 2.4502 54.2334 2.4502ZM29.5667 81.7835H4.2334C3.12883 81.7835 2.2334 80.8881 2.2334 79.7835V54.4502C2.2334 53.3456 3.12883 52.4502 4.2334 52.4502H29.5667C30.6713 52.4502 31.5667 53.3456 31.5667 54.4502V79.7835C31.5667 80.8881 30.6713 81.7835 29.5667 81.7835ZM29.5667 31.7835H4.2334C3.12883 31.7835 2.2334 30.8881 2.2334 29.7835V4.4502C2.2334 3.34562 3.12883 2.4502 4.2334 2.4502H29.5667C30.6713 2.4502 31.5667 3.34563 31.5667 4.45019V29.7835C31.5667 30.8881 30.6713 31.7835 29.5667 31.7835ZM74.8001 94.1235L50.0361 55.5303C49.182 54.1992 50.1378 52.4502 51.7194 52.4502H101.247C102.829 52.4502 103.785 54.1992 102.931 55.5303L78.1667 94.1236C77.3796 95.3501 75.5872 95.3501 74.8001 94.1235Z" stroke="white" stroke-width="4"/>
</svg>
