<svg width="100" height="101" viewBox="0 0 100 101" fill="none" xmlns="http://www.w3.org/2000/svg">
<g id="checked-tick-svgrepo-com (1) 1" clip-path="url(#clip0_3444_6026)">
<g id="Group">
<g id="Group_2">
<path id="Vector" d="M85.3553 15.5469C75.9115 6.10313 63.3557 0.902344 50 0.902344C36.6443 0.902344 24.0885 6.10313 14.6449 15.5469C5.20078 24.9908 0 37.5469 0 50.9023C0 64.2578 5.20078 76.8139 14.6449 86.2578C24.0885 95.7016 36.6443 100.902 50 100.902C63.3557 100.902 75.9115 95.7016 85.3553 86.2578C94.7992 76.8139 100 64.2578 100 50.9023C100 37.5469 94.7992 24.9908 85.3553 15.5469ZM50 96.9184C24.6268 96.9184 3.98398 76.2758 3.98398 50.9023C3.98398 25.5289 24.6268 4.88633 50 4.88633C75.3732 4.88633 96.016 25.5291 96.016 50.9023C96.016 76.2756 75.3732 96.9184 50 96.9184Z" fill="white"/>
</g>
</g>
<g id="Group_3">
<g id="Group_4">
<path id="Vector_2" d="M78.436 29.4382C75.7177 26.7198 71.2944 26.7198 68.5761 29.4382L39.2431 58.771L29.6312 49.1595C26.9128 46.4411 22.4896 46.4411 19.7712 49.1595C17.0528 51.8778 17.0528 56.3011 19.7712 59.0196L34.3132 73.5614C35.6302 74.8782 37.381 75.6032 39.2431 75.6032C41.1052 75.6032 42.856 74.878 44.1731 73.5612L78.436 39.2983C81.1542 36.5798 81.1542 32.1563 78.436 29.4382ZM75.6188 36.481L41.3562 70.7438C40.7917 71.3081 40.0413 71.6192 39.2433 71.6192C38.4452 71.6192 37.6948 71.3083 37.1306 70.7438L22.5888 56.2021C21.4235 55.0368 21.4235 53.1413 22.5886 51.9763C23.171 51.3938 23.9362 51.1026 24.7015 51.1026C25.4665 51.1026 26.2319 51.394 26.8142 51.9765L37.8345 62.9968C38.6128 63.7747 39.8737 63.7747 40.6519 62.9968L71.3931 32.2552C72.5583 31.0901 74.454 31.0901 75.619 32.2552C76.7839 33.4202 76.7839 35.3157 75.6188 36.481Z" fill="white"/>
</g>
</g>
<g id="Group_5">
<g id="Group_6">
<path id="Vector_3" d="M90.2598 59.1316C89.1926 58.8597 88.1092 59.504 87.8379 60.5702C83.4326 77.8663 67.8732 89.9462 49.9998 89.9462C48.8998 89.9462 48.0078 90.838 48.0078 91.9382C48.0078 93.0384 48.8998 93.9302 49.9998 93.9302C69.6965 93.9302 86.8436 80.6165 91.6986 61.5534C91.9701 60.4876 91.3262 59.403 90.2598 59.1316Z" fill="white"/>
</g>
</g>
<g id="Group_7">
<g id="Group_8">
<path id="Vector_4" d="M91.036 48.9102C89.936 48.9102 89.044 49.802 89.044 50.9021C89.044 51.4717 89.0317 52.0457 89.0073 52.609C88.9596 53.708 89.8122 54.6377 90.9114 54.6852C90.9407 54.6863 90.9698 54.6869 90.9989 54.6869C92.0594 54.6869 92.9413 53.8506 92.9875 52.7809C93.0145 52.1607 93.028 51.5287 93.028 50.9021C93.028 49.802 92.136 48.9102 91.036 48.9102Z" fill="white"/>
</g>
</g>
</g>
<defs>
<clipPath id="clip0_3444_6026">
<rect width="100" height="100" fill="white" transform="translate(0 0.902344)"/>
</clipPath>
</defs>
</svg>
