<svg width="100" height="101" viewBox="0 0 100 101" fill="none" xmlns="http://www.w3.org/2000/svg">
<g id="sales-amount-svgrepo-com 1" clip-path="url(#clip0_3446_6250)">
<path id="Vector" d="M13.3737 89.2014C13.9262 89.2014 14.3737 88.7539 14.3737 88.2014V60.0944C14.3737 59.542 13.9262 59.0944 13.3737 59.0944H5.37373C5.2424 59.0944 5.11236 59.1202 4.99102 59.1705C4.86968 59.2207 4.75943 59.2944 4.66657 59.3872C4.57371 59.4801 4.50005 59.5904 4.4498 59.7117C4.39956 59.833 4.37371 59.9631 4.37373 60.0944V88.2014C4.37373 88.7539 4.82129 89.2014 5.37373 89.2014H13.3737ZM13.3737 93.2014H5.37373C2.61221 93.2014 0.373733 90.963 0.373733 88.2014V60.0944C0.373733 57.3329 2.61221 55.0944 5.37373 55.0944H13.3737C16.1353 55.0944 18.3737 57.3329 18.3737 60.0944V88.2014C18.3737 90.963 16.1353 93.2014 13.3737 93.2014ZM40.5626 89.2014C41.115 89.2014 41.5626 88.7539 41.5626 88.2014V54.2904C41.5626 53.738 41.115 53.2904 40.5626 53.2904H32.5626C32.4313 53.2904 32.3012 53.3162 32.1799 53.3665C32.0585 53.4167 31.9483 53.4904 31.8554 53.5832C31.7626 53.6761 31.6889 53.7864 31.6387 53.9077C31.5884 54.029 31.5626 54.1591 31.5626 54.2904V88.2014C31.5626 88.7539 32.0102 89.2014 32.5626 89.2014H40.5626ZM40.5626 93.2014H32.5626C29.8011 93.2014 27.5626 90.963 27.5626 88.2014V54.2904C27.5626 51.5289 29.8011 49.2904 32.5626 49.2904H40.5626C43.3241 49.2904 45.5626 51.5289 45.5626 54.2904V88.2014C45.5626 90.963 43.3241 93.2014 40.5626 93.2014ZM67.7515 89.2618C68.3039 89.2618 68.7515 88.8142 68.7515 88.2618V48.5458C68.7515 47.9939 68.3034 47.5458 67.7515 47.5458H59.7515C59.1995 47.5458 58.7515 47.9939 58.7515 48.5458V88.2618C58.7515 88.8142 59.199 89.2618 59.7515 89.2618H67.7515ZM67.7515 93.2618H59.7515C56.9899 93.2618 54.7515 91.0233 54.7515 88.2618V48.5458C54.7515 45.7849 56.9901 43.5458 59.7515 43.5458H67.7515C70.5128 43.5458 72.7515 45.7849 72.7515 48.5458V88.2618C72.7515 91.0233 70.513 93.2618 67.7515 93.2618ZM94.9403 89.262C95.4928 89.262 95.9403 88.8144 95.9403 88.262V43.546C95.9403 42.9935 95.4928 42.546 94.9403 42.546H86.9403C86.809 42.546 86.679 42.5718 86.5576 42.622C86.4363 42.6723 86.326 42.746 86.2332 42.8388C86.1403 42.9317 86.0667 43.0419 86.0164 43.1633C85.9662 43.2846 85.9403 43.4147 85.9403 43.546V88.262C85.9403 88.8144 86.3879 89.262 86.9403 89.262H94.9403ZM94.9403 93.262H86.9403C84.1788 93.262 81.9403 91.0235 81.9403 88.262V43.546C81.9403 40.7845 84.1788 38.546 86.9403 38.546H94.9403C97.7019 38.546 99.9403 40.7845 99.9403 43.546V88.262C99.9403 91.0235 97.7019 93.262 94.9403 93.262ZM94.3344 11.045C66.1502 26.9238 34.694 36.2913 1.8793 38.2762C0.776761 38.3429 -0.0629856 39.2907 0.00371366 40.3932C0.0704129 41.4958 1.01826 42.3355 2.1208 42.2688C35.5442 40.2472 67.5886 30.7045 96.2978 14.53C97.2601 13.9878 97.6007 12.7681 97.0585 11.8057C96.5163 10.8433 95.2968 10.5028 94.3344 11.045Z" fill="#3B7C93"/>
<path id="Vector_2" d="M88.0087 11.4502L98.0077 11.4652C99.1123 11.4669 100.009 10.5729 100.011 9.46826C100.012 8.36367 99.1184 7.4669 98.0138 7.46524L88.0147 7.4502C86.9102 7.44854 86.0134 8.34258 86.0117 9.44717C86.0101 10.5518 86.9041 11.4485 88.0087 11.4502Z" fill="#3B7C93"/>
<path id="Vector_3" d="M96.0109 9.4588L95.981 19.4028C95.9776 20.5074 96.8703 21.4056 97.9749 21.4089C99.0795 21.4122 99.9776 20.5195 99.981 19.4149L100.011 9.47091C100.014 8.36632 99.1216 7.46817 98.017 7.46485C96.9124 7.46153 96.0143 8.35421 96.0109 9.4588Z" fill="#3B7C93"/>
</g>
<defs>
<clipPath id="clip0_3446_6250">
<rect width="100" height="100" fill="white" transform="translate(0 0.450195)"/>
</clipPath>
</defs>
</svg>
