<svg width="100" height="101" viewBox="0 0 100 101" fill="none" xmlns="http://www.w3.org/2000/svg">
<g id="rocket2-svgrepo-com 1" clip-path="url(#clip0_3446_6282)">
<g id="Group">
<path id="Vector" d="M32.0092 37.9252C21.1873 36.5408 10.228 40.2283 2.51234 47.9439C2.11234 48.3439 1.72172 48.7564 1.34359 49.1689C-0.131409 50.7908 -0.415784 53.0689 0.615466 54.9783C1.65922 56.9095 3.75297 57.9314 5.93734 57.5814C13.403 56.3845 20.9342 57.8502 27.3655 61.6408C24.3092 65.2627 22.1498 69.5345 21.1905 74.1783C20.8998 75.5845 21.3405 77.0408 22.3748 78.0752C23.1967 78.9002 24.2905 79.3439 25.4123 79.3439C25.6967 79.3439 25.9873 79.3158 26.2717 79.2564C30.9186 78.2939 35.1905 76.1345 38.8092 73.0814C42.603 79.5158 44.0623 87.047 42.8717 94.5095C42.5217 96.7002 43.5436 98.7908 45.4748 99.8345C46.2311 100.25 47.053 100.45 47.8686 100.45C49.0936 100.45 50.3061 99.9939 51.278 99.1064C51.6936 98.7314 52.0998 98.3408 52.503 97.9408C59.7373 90.7033 63.778 79.5814 62.303 68.6033C66.7155 65.5627 70.8936 62.122 74.6998 58.3158C88.8436 44.1689 97.8217 25.4439 99.9717 5.59079C100.125 4.20017 99.6342 2.82204 98.628 1.81892C97.6248 0.815793 96.2498 0.334543 94.8561 0.475168C75.003 2.62829 56.278 11.6064 42.1311 25.7533C38.3873 29.497 35.0061 33.6033 32.0092 37.9252ZM95.1936 3.58454C95.628 3.52204 96.0873 3.69704 96.4186 4.03142C96.7498 4.36579 96.9123 4.80954 96.8655 5.25954C94.7592 24.6845 86.3311 42.2689 72.4905 56.1095C69.153 59.447 65.4905 62.4533 61.6623 65.1845C60.2936 59.5533 57.3967 54.0689 52.6217 49.2939C52.0123 48.6845 51.0217 48.6845 50.4123 49.2939C49.803 49.9033 49.803 50.8939 50.4123 51.5033C61.253 62.3439 64.1717 81.8533 50.2936 95.7283C49.928 96.0939 49.5561 96.447 49.178 96.7939C48.228 97.6658 47.2373 97.2408 46.9561 97.0877C46.3623 96.7658 45.7873 96.0502 45.953 95.0064C47.3623 86.1814 45.428 77.2439 40.503 69.8439C40.4748 69.8002 40.428 69.7783 40.3967 69.7377C40.3686 69.7033 40.3592 69.6627 40.328 69.6314C40.2905 69.5939 40.2405 69.5783 40.203 69.5439C40.1092 69.4658 40.0155 69.397 39.9092 69.3408C39.8373 69.3033 39.7686 69.2752 39.6905 69.2502C39.5717 69.2095 39.4561 69.1845 39.3311 69.1752C39.2592 69.1689 39.1873 69.1689 39.1155 69.1752C38.9905 69.1814 38.8717 69.2033 38.7498 69.2408C38.6717 69.2658 38.603 69.297 38.528 69.3314C38.4655 69.3627 38.3967 69.3689 38.3373 69.4095C38.2873 69.4408 38.2623 69.4908 38.2186 69.5283C38.1873 69.5533 38.1467 69.5627 38.1186 69.5939C34.6561 72.9408 30.3373 75.2283 25.6342 76.2002C25.0811 76.3064 24.7186 76.0064 24.5842 75.8689C24.4467 75.7314 24.1405 75.3533 24.253 74.8158C25.2248 70.1158 27.5092 65.797 30.8592 62.3314C30.8998 62.2908 30.9123 62.2377 30.9467 62.1939C30.9717 62.1627 31.0123 62.147 31.0373 62.1127C31.0717 62.0595 31.078 62.0002 31.1061 61.947C31.153 61.8564 31.1905 61.7658 31.2186 61.6689C31.2467 61.5689 31.2623 61.472 31.2717 61.3689C31.2811 61.272 31.2811 61.1783 31.2686 61.0783C31.2592 60.9783 31.2373 60.8845 31.2061 60.7877C31.178 60.6939 31.1405 60.6064 31.0936 60.5158C31.0436 60.4252 30.9842 60.3439 30.9186 60.2595C30.8811 60.2158 30.8655 60.1595 30.8217 60.1189C30.7842 60.0845 30.7373 60.072 30.6998 60.0408C30.6623 60.0095 30.6405 59.9689 30.5998 59.9408C23.203 55.022 14.2655 53.0845 5.44359 54.4908C4.39359 54.672 3.68422 54.0845 3.36234 53.4908C3.21234 53.2095 2.78422 52.2252 3.65297 51.2689C3.99672 50.8908 4.34984 50.522 4.71547 50.1564C11.9436 42.9252 22.2873 39.5252 32.4123 41.0845C32.4311 41.0877 32.4436 41.0752 32.4592 41.0752C32.4686 41.0752 32.4811 41.0752 32.4905 41.0752C32.5155 41.0752 32.5373 41.0845 32.5592 41.0877C32.7342 41.1064 32.9092 41.1127 33.0811 41.072C33.1592 41.0533 33.228 41.0158 33.303 40.9877C33.4123 40.9439 33.5217 40.9095 33.6186 40.8408C33.7123 40.7752 33.7811 40.6908 33.8561 40.6064C33.9092 40.547 33.978 40.5095 34.0248 40.4408C37.0373 35.9908 40.5123 31.7908 44.3436 27.9595C57.9873 14.3158 76.0436 5.65954 95.1936 3.58454Z" fill="#3B7C93"/>
<path id="Vector_2" d="M69.1872 40.6342C71.6903 40.6342 74.0466 39.6592 75.8185 37.8904C79.4716 34.2342 79.4716 28.2873 75.8185 24.6311C72.2747 21.0904 66.0997 21.0904 62.5591 24.6311C58.9028 28.2873 58.9028 34.2342 62.5591 37.8904C64.3278 39.6623 66.6841 40.6342 69.1872 40.6342ZM64.7685 26.8404C65.9497 25.6592 67.5185 25.0092 69.1872 25.0092C70.856 25.0092 72.4278 25.6592 73.6091 26.8404C76.0435 29.2779 76.0435 33.2436 73.6091 35.6811C71.2466 38.0373 67.1278 38.0373 64.7685 35.6811C62.331 33.2436 62.331 29.2811 64.7685 26.8404Z" fill="#3B7C93"/>
<path id="Vector_3" d="M17.0062 81.2346L11.8218 86.4221C11.2124 87.0314 11.2124 88.0221 11.8218 88.6314C12.128 88.9377 12.528 89.0877 12.928 89.0877C13.328 89.0877 13.728 88.9346 14.0343 88.6314L19.2187 83.4439C19.828 82.8346 19.828 81.8439 19.2187 81.2346C18.6093 80.6252 17.6155 80.6221 17.0062 81.2346Z" fill="#3B7C93"/>
<path id="Vector_4" d="M16.9936 65.6436L4.01855 78.6154C3.40918 79.2248 3.40918 80.2154 4.01855 80.8248C4.3248 81.1311 4.7248 81.2811 5.1248 81.2811C5.5248 81.2811 5.9248 81.1279 6.23105 80.8248L19.2061 67.8529C19.8154 67.2436 19.8154 66.2529 19.2061 65.6436C18.5967 65.0342 17.6029 65.0342 16.9936 65.6436Z" fill="#3B7C93"/>
<path id="Vector_5" d="M19.2872 96.0943C19.5935 96.4006 19.9935 96.5506 20.3935 96.5506C20.7935 96.5506 21.1935 96.3975 21.4997 96.0943L34.4747 83.1225C35.0841 82.5131 35.0841 81.5225 34.4747 80.9131C33.8653 80.3037 32.8747 80.3037 32.2653 80.9131L19.2903 93.885C18.6778 94.4975 18.6778 95.485 19.2872 96.0943Z" fill="#3B7C93"/>
</g>
</g>
<defs>
<clipPath id="clip0_3446_6282">
<rect width="100" height="100" fill="white" transform="translate(0 0.450195)"/>
</clipPath>
</defs>
</svg>
