<svg width="72" height="101" viewBox="0 0 72 101" fill="none" xmlns="http://www.w3.org/2000/svg">
<g id="sign 1" clip-path="url(#clip0_3445_5876)">
<g id="Layer 1">
<path id="Vector" d="M67.9656 59.0006L57.457 50.6038C57.4484 50.598 57.4412 50.5908 57.4325 50.5851C55.5626 49.1369 53.2665 48.3394 50.969 48.3394H38.3012V37.9273H61.3337C67.0745 37.9273 71.7458 33.256 71.7458 27.5151V10.7201C71.7458 5.00516 67.0745 0.355469 61.3337 0.355469H21.6976C19.3986 0.355469 17.104 1.15297 15.2341 2.60114C15.2254 2.6069 15.2182 2.6141 15.2096 2.61985L4.7039 11.0123C2.20775 12.9989 0.776855 15.96 0.776855 19.1399C0.776855 22.3199 2.20775 25.281 4.70102 27.2647L15.2024 35.6557C17.0177 37.1197 19.3238 37.9258 21.6976 37.9258H34.269V48.338H11.3329C5.59209 48.338 0.920809 52.9877 0.920809 58.7026V75.4976C0.920809 81.2385 5.59209 85.9098 11.3329 85.9098H34.269V96.3219H21.889C20.7763 96.3219 19.8737 97.2245 19.8737 98.3372C19.8737 99.45 20.7763 100.353 21.889 100.353H50.6797C51.7924 100.353 52.695 99.45 52.695 98.3372C52.695 97.2245 51.7924 96.3219 50.6797 96.3219H38.2997V85.9098H50.9676C53.3414 85.9098 55.6475 85.1036 57.4556 83.6454L67.9613 75.2515C70.4574 73.2663 71.8898 70.3038 71.8898 67.1239C71.8898 63.9439 70.4574 60.9828 67.9656 58.9991V59.0006ZM17.7259 32.5132L7.21444 24.1135C5.68566 22.8971 4.80755 21.0847 4.80755 19.1414C4.80755 17.198 5.68422 15.3856 7.21732 14.1663L17.7144 5.77963C18.8963 4.8684 20.2739 4.3876 21.699 4.3876H61.3337C64.8533 4.3876 67.7151 7.22924 67.7151 10.7215V27.5166C67.7151 31.0362 64.8519 33.898 61.3337 33.898H21.6976C20.2408 33.898 18.8329 33.4086 17.7259 32.5161V32.5132ZM65.4493 72.1003L54.9335 80.5029C53.8323 81.3911 52.4244 81.8791 50.969 81.8791H11.3329C7.81329 81.8791 4.9515 79.0158 4.9515 75.4976V58.7026C4.9515 55.2103 7.81473 52.3687 11.3329 52.3687H50.9676C52.3913 52.3687 53.7675 52.8495 54.9493 53.7592L65.4522 62.1517C66.981 63.3681 67.8591 65.1805 67.8591 67.1239C67.8591 69.0672 66.9824 70.8796 65.4493 72.0989V72.1003Z" fill="white"/>
</g>
</g>
<defs>
<clipPath id="clip0_3445_5876">
<rect width="71.1129" height="100" fill="white" transform="translate(0.776855 0.354492)"/>
</clipPath>
</defs>
</svg>
