<svg width="100" height="101" viewBox="0 0 100 101" fill="none" xmlns="http://www.w3.org/2000/svg">
<g id="text 1" clip-path="url(#clip0_3444_5819)">
<g id="Layer 1">
<path id="Vector" d="M58.4072 100.902C57.4655 100.902 56.6146 100.342 56.243 99.4744L39.7985 61.1018L1.426 44.6574C0.554928 44.2841 -0.0067277 43.4248 -1.27944e-06 42.4781C0.00672514 41.5296 0.581834 40.6788 1.45795 40.3172L96.6973 1.1005C96.8285 1.04333 96.9647 0.997924 97.1043 0.964292C97.2842 0.922251 97.4658 0.900391 97.6441 0.900391C97.824 0.900391 98.0056 0.92057 98.1856 0.964292C98.4546 1.02819 98.7153 1.13918 98.9524 1.29893C99.0768 1.38133 99.1911 1.4755 99.2954 1.57808C99.2954 1.57808 99.2988 1.58144 99.3005 1.58312C99.4098 1.69243 99.5107 1.8135 99.5981 1.94467C99.7579 2.18346 99.8705 2.4441 99.9327 2.71316C99.9748 2.89309 99.9966 3.07471 99.9966 3.25464C99.9966 3.43457 99.9765 3.61618 99.9327 3.7978C99.9008 3.93569 99.8554 4.0719 99.7982 4.20306L60.5815 99.4424C60.22 100.319 59.3691 100.894 58.4206 100.9H58.4038L58.4072 100.902ZM44.3826 59.8474L58.3635 92.4688L90.9849 13.2434L44.3826 59.8457V59.8474ZM8.43157 42.5386L41.053 56.5195L87.657 9.91547L8.43157 42.5386Z" fill="white"/>
</g>
</g>
<defs>
<clipPath id="clip0_3444_5819">
<rect width="100" height="100" fill="white" transform="translate(0 0.902344)"/>
</clipPath>
</defs>
</svg>
