<svg width="100" height="101" viewBox="0 0 100 101" fill="none" xmlns="http://www.w3.org/2000/svg">
<g id="social-media-svgrepo-com (2) 1" clip-path="url(#clip0_3444_5830)">
<g id="Group">
<path id="Vector" d="M18.0387 45.1009L12.9236 45.0856C12.794 45.0856 12.6886 44.98 12.6886 44.8501V19.3754C12.6886 18.7705 12.3468 18.2175 11.8057 17.9471L6.00656 15.0474L11.8057 12.1479C12.3466 11.8775 12.6886 11.3245 12.6886 10.7195V4.3316C12.6886 4.20193 12.794 4.09653 12.9236 4.09653H83.5634C83.6931 4.09653 83.7985 4.20214 83.7985 4.3316V40.31C83.7985 41.1919 84.5133 41.907 85.3954 41.907C86.2776 41.907 86.9924 41.1919 86.9924 40.31V4.33139C86.9924 2.44056 85.454 0.902344 83.5634 0.902344H12.9236C11.0328 0.902344 9.49459 2.44077 9.49459 4.33139V9.73239L1.72131 13.619C1.18047 13.8895 0.838501 14.4424 0.838501 15.0474C0.838501 15.6523 1.18004 16.2053 1.72131 16.4757L9.49459 20.3623V44.8501C9.49459 46.7411 11.033 48.2796 12.9189 48.2796L18.0291 48.2949C18.9136 48.2949 19.6282 47.5831 19.6308 46.7026C19.6335 45.8206 18.9204 45.1035 18.0387 45.1009Z" fill="white"/>
<path id="Vector_2" d="M99.1613 53.2736C99.1613 48.7669 95.4948 45.1006 90.9883 45.1006L70.9953 45.1008C74.5221 38.616 76.4417 30.5627 76.4417 22.0919C76.4417 17.5852 72.7752 13.9189 68.2688 13.9189C63.7623 13.9189 60.0958 17.5852 60.0958 22.0919C60.0958 34.779 49.7742 45.1006 37.0871 45.1006H24.4215C23.5393 45.1006 22.8245 45.8156 22.8245 46.6976V99.3051C22.8245 100.187 23.5393 100.902 24.4215 100.902H37.0871C37.9693 100.902 38.6841 100.187 38.6841 99.3051V48.2445C52.3913 47.4162 63.2898 36.0038 63.2898 22.0919C63.2898 19.3464 65.5232 17.1129 68.2688 17.1129C71.0143 17.1129 73.2477 19.3464 73.2477 22.0919C73.2477 31.0623 70.9751 39.4914 66.8487 45.8263C66.5289 46.3173 66.5036 46.944 66.7827 47.459C67.0619 47.9741 67.6008 48.295 68.1868 48.295L90.9881 48.2946C93.7336 48.2946 95.9671 50.5282 95.9671 53.2736C95.9671 56.0189 93.7336 58.2525 90.9881 58.2525H82.9078C82.0256 58.2525 81.3108 58.9676 81.3108 59.8495C81.3108 60.7315 82.0256 61.4465 82.9078 61.4465H88.2947C91.0403 61.4465 93.2737 63.6799 93.2737 66.4255C93.2737 69.171 91.0403 71.4044 88.2947 71.4044H82.9078C82.0256 71.4044 81.3108 72.1195 81.3108 73.0014C81.3108 73.8834 82.0256 74.5984 82.9078 74.5984H85.6011C88.3467 74.5984 90.5801 76.8319 90.5801 79.5774C90.5801 82.3229 88.3467 84.5564 85.6011 84.5564H82.9078C82.0256 84.5564 81.3108 85.2714 81.3108 86.1533C81.3108 87.0353 82.0256 87.7503 82.9078 87.7503C85.6533 87.7503 87.8868 89.9838 87.8868 92.7293C87.8868 95.4748 85.6533 97.7083 82.9078 97.7083H43.4755C42.5933 97.7083 41.8785 98.4233 41.8785 99.3053C41.8785 100.187 42.5933 100.902 43.4755 100.902H82.908C87.4145 100.902 91.0809 97.236 91.0809 92.7293C91.0809 90.5451 90.2196 88.5582 88.8188 87.0905C91.7304 85.8388 93.7743 82.9423 93.7743 79.5774C93.7743 77.3931 92.913 75.4063 91.5121 73.9385C94.4237 72.6869 96.4677 69.7904 96.4677 66.4257C96.4677 64.2414 95.6064 62.2546 94.2055 60.7868C97.1173 59.5348 99.1613 56.6383 99.1613 53.2736ZM35.4905 97.7081H26.0189V48.2946H35.4905V97.7081Z" fill="white"/>
<path id="Vector_3" d="M78.117 92.9176V53.0862C78.117 52.2043 77.4022 51.4893 76.52 51.4893C75.6378 51.4893 74.923 52.2043 74.923 53.0862V92.9176C74.923 93.7996 75.6378 94.5146 76.52 94.5146C77.4022 94.5146 78.117 93.7996 78.117 92.9176Z" fill="white"/>
</g>
</g>
<defs>
<clipPath id="clip0_3444_5830">
<rect width="100" height="100" fill="white" transform="translate(0 0.902344)"/>
</clipPath>
</defs>
</svg>
