<svg width="100" height="101" viewBox="0 0 100 101" fill="none" xmlns="http://www.w3.org/2000/svg">
<g id="line-graph-statistics-svgrepo-com 1" clip-path="url(#clip0_3445_5906)">
<g id="Group">
<g id="Group_2">
<path id="Vector" d="M98.008 91.4961H11.9422L22.8031 79.4115C23.7568 79.9172 24.8434 80.2049 25.9961 80.2049C28.6496 80.2049 30.9535 78.6852 32.0875 76.4715L43.1848 79.2736C43.4783 82.7771 46.4219 85.5389 50.0002 85.5389C53.7725 85.5389 56.8414 82.4699 56.8414 78.6977C56.8414 76.6174 55.907 74.7521 54.4371 73.4965L63.4869 51.8674L69.9316 68.3016C68.3912 69.5572 67.4051 71.4682 67.4051 73.6057C67.4051 77.3779 70.4742 80.4469 74.2465 80.4469C78.0187 80.4469 81.0877 77.3779 81.0877 73.6057C81.0877 72.835 80.9576 72.0943 80.7215 71.4025L88.6266 63.4971C89.4045 62.7191 89.4045 61.4578 88.6266 60.6797C87.8486 59.9019 86.5873 59.9019 85.8094 60.6797L78.352 68.1371C77.2076 67.2756 75.7854 66.7643 74.2459 66.7643C74.0346 66.7643 73.8258 66.7752 73.6191 66.7941L65.6951 46.5877L73.6555 27.5625C73.8502 27.5793 74.0467 27.5896 74.2457 27.5896C77.4135 27.5896 80.0842 25.4254 80.8592 22.4979H93.4002C94.5004 22.4979 95.3922 21.6059 95.3922 20.5059C95.3922 19.4059 94.5004 18.5139 93.4002 18.5139H80.7105C79.7822 15.8357 77.2359 13.9068 74.2459 13.9068C70.4736 13.9068 67.4045 16.9758 67.4045 20.7482C67.4045 22.8988 68.4029 24.8195 69.9594 26.0748L63.6059 41.2596L54.3246 17.5922C55.7191 16.3389 56.5982 14.5225 56.5982 12.5041C56.5982 8.73164 53.5291 5.6627 49.7568 5.6627C45.9846 5.6627 42.916 8.73164 42.916 12.5041C42.916 14.1361 43.4914 15.6361 44.4486 16.8133L28.0268 41.6949C27.315 41.4434 26.55 41.3051 25.7533 41.3051C24.9359 41.3051 24.152 41.4496 23.4248 41.7137L9.31816 23.1521V2.80645C9.31816 1.70645 8.42637 0.814453 7.32617 0.814453C6.22598 0.814453 5.33398 1.70645 5.33398 2.80645V22.3938H1.99199C0.891797 22.3936 0 23.2857 0 24.3857C0 25.4857 0.891797 26.3777 1.99199 26.3777H5.33418V46.3977H1.99199C0.891797 46.3977 0 47.2896 0 48.3896C0 49.4896 0.891797 50.3816 1.99199 50.3816H5.33418V70.8867H1.99199C0.891797 70.8867 0 71.7787 0 72.8787C0 73.9787 0.891797 74.8707 1.99199 74.8707H5.33418V93.4881C5.33418 94.5881 6.22598 95.4801 7.32617 95.4801H24.4889V98.0947C24.4889 99.1947 25.3807 100.087 26.4809 100.087C27.5811 100.087 28.4729 99.1947 28.4729 98.0947V95.4801H48.4928V98.0947C48.4928 99.1947 49.3846 100.087 50.4848 100.087C51.585 100.087 52.4768 99.1947 52.4768 98.0947V95.4801H72.9814V98.0947C72.9814 99.1947 73.8732 100.087 74.9734 100.087C76.0736 100.087 76.9654 99.1947 76.9654 98.0947V95.4801H98.0074C99.1076 95.4801 99.9994 94.5881 99.9994 93.4881C99.9994 92.3881 99.1082 91.4961 98.008 91.4961ZM74.2467 70.7486C75.8219 70.7486 77.1039 72.0305 77.1039 73.6061C77.1039 75.1812 75.8221 76.4633 74.2467 76.4633C72.6711 76.4633 71.3893 75.1814 71.3893 73.6061C71.3893 72.0305 72.6711 70.7486 74.2467 70.7486ZM74.2465 17.8914C75.8221 17.8914 77.1037 19.1732 77.1037 20.7488C77.1037 22.3244 75.8219 23.6063 74.2465 23.6063C72.6709 23.6063 71.3891 22.3244 71.3891 20.7488C71.3891 19.1732 72.6709 17.8914 74.2465 17.8914ZM25.9961 76.2207C24.4205 76.2207 23.1389 74.9389 23.1389 73.3633C23.1389 71.7879 24.4207 70.5061 25.9961 70.5061C27.5715 70.5061 28.8533 71.7879 28.8533 73.3633C28.8531 74.9391 27.5715 76.2207 25.9961 76.2207ZM50 81.5549C48.4244 81.5549 47.1428 80.273 47.1428 78.6977C47.1428 77.1221 48.4246 75.8402 50 75.8402C51.5754 75.8402 52.8572 77.1221 52.8572 78.6977C52.8572 80.273 51.5756 81.5549 50 81.5549ZM49.7576 9.64766C51.3332 9.64766 52.615 10.9295 52.615 12.5051C52.615 14.0807 51.3332 15.3625 49.7576 15.3625C48.182 15.3625 46.9004 14.0807 46.9004 12.5051C46.9004 10.9295 48.182 9.64766 49.7576 9.64766ZM25.7533 45.29C27.3291 45.29 28.6107 46.5717 28.6107 48.1473C28.6107 49.7229 27.3289 51.0047 25.7533 51.0047C24.1777 51.0047 22.8961 49.7229 22.8961 48.1473C22.8963 46.5719 24.1781 45.29 25.7533 45.29ZM9.31836 29.7373L20.2383 44.1057C19.4057 45.2389 18.9123 46.6363 18.9123 48.1471C18.9123 51.9195 21.9813 54.9885 25.7535 54.9885C29.5258 54.9885 32.5949 51.9195 32.5949 48.1471C32.5949 46.6174 32.0902 45.2035 31.2385 44.0629L47.75 19.0453C48.3852 19.2406 49.0592 19.3463 49.7574 19.3463C50.0797 19.3463 50.3965 19.3223 50.707 19.2789L61.3975 46.5395L50.785 71.9027C50.5272 71.8732 50.2654 71.8562 49.9998 71.8562C47.4324 71.8562 45.1918 73.2785 44.0219 75.376L32.7855 72.5385C32.3768 69.1541 29.4887 66.5219 25.9957 66.5219C22.2234 66.5219 19.1545 69.5908 19.1545 73.3631C19.1545 74.534 19.4506 75.6369 19.9713 76.6016L9.31836 88.4551V29.7373Z" fill="white"/>
</g>
</g>
<g id="Group_3">
<g id="Group_4">
<path id="Vector_2" d="M95.4158 53.6489C94.6378 52.8709 93.3765 52.8709 92.5986 53.6489L91.0224 55.2251C90.2445 56.0032 90.2445 57.2643 91.0224 58.0424C91.4115 58.4313 91.9212 58.6258 92.431 58.6258C92.9408 58.6258 93.4507 58.4313 93.8396 58.0424L95.4158 56.4663C96.1935 55.6881 96.1935 54.427 95.4158 53.6489Z" fill="white"/>
</g>
</g>
</g>
<defs>
<clipPath id="clip0_3445_5906">
<rect width="100" height="100" fill="white" transform="translate(0 0.450195)"/>
</clipPath>
</defs>
</svg>
