<svg width="100" height="101" viewBox="0 0 100 101" fill="none" xmlns="http://www.w3.org/2000/svg">
<g id="web-design-svgrepo-com (3) 1">
<g id="Group">
<g id="Group_2">
<path id="Vector" d="M98.3238 86.452H80.076V36.9262C80.076 34.473 78.0803 32.4773 75.6275 32.4773H42.5766V30.9322H44.7832C45.7092 30.9322 46.4594 30.1816 46.4594 29.2561V4.93789C46.4594 4.01211 45.7092 3.26172 44.7832 3.26172H36.584C35.658 3.26172 34.9078 4.0123 34.9078 4.93789V29.2561C34.9078 30.1818 35.658 30.9322 36.584 30.9322H39.2242V32.4773H4.44844C1.9957 32.4775 0 34.473 0 36.9262V90.1133C0 94.1576 3.29063 97.448 7.33477 97.448H26.6781H78.3994H93.2455C96.9699 97.448 99.9998 94.4182 99.9998 90.6938V88.1281C100 87.2025 99.2494 86.452 98.3238 86.452ZM38.2604 27.5799V6.61426H43.1072V27.5801H38.2604V27.5799ZM42.5766 43.1357V41.5191H71.034V80.7627H9.0418V41.5191H39.224V43.1357C39.224 43.7619 38.7145 44.2715 38.0879 44.2715H18.8773C16.4023 44.2715 14.3889 46.285 14.3889 48.76V55.3717C14.3889 57.8467 16.4023 59.86 18.8773 59.86H20.7584V70.7715C20.7584 72.5783 21.674 74.2176 23.2074 75.1568C24.7795 76.1199 26.7094 76.1885 28.3705 75.341C28.6275 75.2098 29.0551 75.0354 29.7934 75.0354C31.0168 75.0354 31.5324 75.4738 32.3869 76.2004C33.3613 77.0291 34.6961 78.1643 37.1521 78.1643C39.608 78.1643 40.9428 77.0291 41.9172 76.2004C42.7717 75.4738 43.2875 75.0354 44.5107 75.0354C45.7344 75.0354 46.2502 75.4738 47.1047 76.2006C48.0793 77.0293 49.4141 78.1643 51.8703 78.1643C54.3266 78.1643 55.6613 77.0293 56.6359 76.2006C56.9781 75.9096 57.3016 75.6348 57.635 75.4361C59.6525 74.2353 60.9061 72.0117 60.9061 69.6334V67.0676H62.6223C65.4172 67.0676 67.6908 64.7939 67.6908 61.999V54.3686C67.6908 51.574 65.4172 49.3 62.6223 49.3H25.8268C23.0318 49.3 20.7582 51.5736 20.7582 54.3686V56.5076H18.8771C18.2506 56.5076 17.741 55.998 17.741 55.3715V48.7598C17.741 48.1334 18.2506 47.6236 18.8771 47.6236H38.0877C40.5629 47.624 42.5766 45.6104 42.5766 43.1357ZM24.6695 56.5076H24.1107V54.3686C24.1107 53.4225 24.8805 52.6525 25.8268 52.6525C26.773 52.6525 27.5428 53.4223 27.5428 54.3686V61.999C27.5428 62.9451 26.773 63.715 25.8268 63.715C24.8805 63.715 24.1107 62.9453 24.1107 61.999V59.8602H24.6695C25.5955 59.8602 26.3457 59.1096 26.3457 58.184C26.3459 57.258 25.5953 56.5076 24.6695 56.5076ZM30.5957 52.6525H62.6225C63.5686 52.6525 64.3385 53.4223 64.3385 54.3686V61.999C64.3385 62.9451 63.5688 63.715 62.6225 63.715H30.5957C30.7893 63.1789 30.8951 62.6012 30.8951 61.999V54.3686C30.8951 53.7664 30.7889 53.1887 30.5957 52.6525ZM57.5537 67.0674V69.6332C57.5537 70.8359 56.9279 71.9557 55.9203 72.5551C55.3445 72.8979 54.8768 73.2955 54.4643 73.6465C53.6096 74.373 53.0937 74.8115 51.8703 74.8115C50.6469 74.8115 50.1309 74.3731 49.2764 73.6463C48.3018 72.8176 46.967 71.6826 44.5107 71.6826C42.0547 71.6826 40.7199 72.8178 39.7455 73.6465C38.891 74.373 38.3752 74.8115 37.152 74.8115C35.9285 74.8115 35.4129 74.373 34.5584 73.6465C33.584 72.8178 32.2492 71.6826 29.7932 71.6826C28.6967 71.6826 27.7328 71.9023 26.8463 72.3547C26.2334 72.6678 25.5273 72.6467 24.958 72.2977C24.4195 71.9678 24.1107 71.4117 24.1107 70.7713V66.768C24.6469 66.9615 25.2246 67.0674 25.8266 67.0674H57.5537ZM3.35254 36.9262C3.35254 36.3217 3.84434 35.8299 4.44863 35.8299H39.2242V38.1668H7.36563C6.43965 38.1668 5.68945 38.9174 5.68945 39.843V82.4389C5.68945 83.3646 6.43965 84.115 7.36563 84.115H72.7102C73.6361 84.115 74.3863 83.3645 74.3863 82.4389V39.8428C74.3863 38.917 73.6361 38.1666 72.7102 38.1666H42.5766V35.8297H75.6273C76.2316 35.8297 76.7234 36.3213 76.7234 36.926V86.4518H3.35254V36.9262ZM7.33477 94.0955C5.13887 94.0955 3.35254 92.3088 3.35254 90.1129V89.8043H19.924V90.6936C19.924 91.9336 20.2613 93.0955 20.8469 94.0955H7.33477ZM93.2457 94.0955H78.3996H26.6781C24.8023 94.0955 23.2764 92.5695 23.2764 90.6936V89.8043H78.3994H96.6473V90.6936C96.6473 92.5695 95.1215 94.0955 93.2457 94.0955Z" fill="white"/>
</g>
</g>
</g>
</svg>
