<svg width="100" height="101" viewBox="0 0 100 101" fill="none" xmlns="http://www.w3.org/2000/svg">
<g id="video-camera-svgrepo-com (3) 1">
<g id="Group">
<g id="Group_2">
<g id="Group_3">
<path id="Vector" d="M10.904 60.9707C9.75317 60.9707 8.82056 61.9035 8.82056 63.0541V63.1041C8.82056 64.2543 9.75337 65.1875 10.904 65.1875C12.0547 65.1875 12.9874 64.2543 12.9874 63.1041V63.0541C12.9874 61.9035 12.0547 60.9707 10.904 60.9707Z" fill="white"/>
<path id="Vector_2" d="M97.9166 42.0217H89.5826C88.4318 42.0217 87.4992 42.9545 87.4992 44.1051V46.1881H83.3332V44.1051C83.3332 42.9543 82.4002 42.0217 81.2498 42.0217H75.9752V32.1914C75.9752 28.4217 72.9088 25.3549 69.1395 25.3549H67.6422V23.2719C67.6422 19.8256 64.8385 17.0219 61.3924 17.0219H48.8867C46.9846 14.4932 43.96 12.8545 40.559 12.8545H19.726C13.982 12.8545 9.30879 17.5277 9.30879 23.2719C9.30879 29.0152 13.982 33.6883 19.726 33.6883H40.5592C43.9594 33.6883 46.984 32.05 48.8865 29.5219H55.1424V42.0217H28.0588C26.908 42.0217 25.9754 42.9545 25.9754 44.1051V50.3551H20.1924L2.97324 42.2209C2.32793 41.9164 1.57129 41.9629 0.968359 42.3451C0.36543 42.7273 0 43.3914 0 44.1053V77.4385C0 78.1523 0.36543 78.8162 0.968359 79.1984C1.30742 79.4129 1.69473 79.5221 2.08379 79.5221C2.38672 79.5221 2.69102 79.4559 2.97324 79.3223L20.1924 71.1885H25.9752V77.4377C25.9752 77.882 26.1176 78.315 26.3809 78.6732L32.5182 87.0072C32.9109 87.5404 33.5338 87.8553 34.1959 87.8553H68.9738C69.6359 87.8553 70.259 87.5402 70.6516 87.0072L76.1645 79.5213H81.2494C82.4 79.5213 83.3328 78.5883 83.3328 77.4379V58.6883H87.4988V60.7713C87.4988 61.9215 88.4316 62.8547 89.5822 62.8547H97.9162C99.067 62.8547 99.9996 61.9215 99.9996 60.7713V44.1055C100 42.9545 99.0672 42.0217 97.9166 42.0217ZM46.0084 26.3258C45.9754 26.3777 45.9443 26.4311 45.9164 26.4859C44.8221 28.3029 42.8303 29.5211 40.5592 29.5211H19.726C16.2795 29.5211 13.4758 26.7178 13.4758 23.2719C13.4758 19.8254 16.2795 17.0215 19.726 17.0215H40.5592C42.8293 17.0215 44.8199 18.2387 45.9146 20.0543C45.9453 20.1143 45.9791 20.1723 46.0148 20.2287C46.5197 21.1301 46.8086 22.1678 46.8086 23.2721C46.8086 24.3807 46.517 25.4223 46.0084 26.3258ZM17.6416 67.7848L4.16699 74.15V47.3936L8.82129 49.5922V57.0699C8.82129 58.2203 9.7541 59.1533 10.9047 59.1533C12.0555 59.1533 12.9881 58.2201 12.9881 57.0699V51.5604L17.6416 53.7586V67.7848ZM25.9754 67.0213H21.8086V54.5221H25.9754V67.0213ZM69.1393 29.5219C70.6107 29.5219 71.808 30.7195 71.808 32.1914V42.0217H59.3092V29.5219H65.5586H69.1393ZM50.7658 25.3549C50.9029 24.6816 50.9754 23.985 50.9754 23.2719C50.9754 22.559 50.9029 21.8621 50.7658 21.1889H61.3922C62.5408 21.1889 63.475 22.1232 63.475 23.2719V25.3549H57.2256H50.7658ZM75.1115 75.3541C74.4492 75.3541 73.8266 75.6687 73.434 76.2021L67.9209 83.6881H35.2494L30.1424 76.7531V69.1049V52.4387V46.1887H57.2258H73.8916H79.1662V48.2717V56.6043V75.3539H75.1115V75.3541ZM87.499 54.5209H83.333V50.3553H87.499V54.5209ZM95.833 58.6875H91.666V56.6045V48.2719V46.1887H95.833V58.6875Z" fill="white"/>
<path id="Vector_3" d="M72.916 50.3545H36.3917C35.241 50.3545 34.3083 51.2873 34.3083 52.4379V60.7719C34.3083 61.9221 35.2412 62.8553 36.3917 62.8553H72.916C74.0667 62.8553 74.9994 61.9221 74.9994 60.7719V52.4379C74.9994 51.2873 74.0666 50.3545 72.916 50.3545ZM70.8324 58.6885H38.4751V54.5215H70.8324V58.6885Z" fill="white"/>
<path id="Vector_4" d="M72.9161 68.0312H64.1178C62.967 68.0312 62.0344 68.9641 62.0344 70.1147C62.0344 71.2648 62.9672 72.198 64.1178 72.198H72.9161C74.0668 72.198 74.9995 71.2648 74.9995 70.1147C74.9995 68.9641 74.0666 68.0312 72.9161 68.0312Z" fill="white"/>
<path id="Vector_5" d="M58.1329 68.0312H58.0829C56.9323 68.0312 55.9995 68.9641 55.9995 70.1147C55.9995 71.2648 56.9325 72.198 58.0829 72.198H58.1329C59.2835 72.198 60.2163 71.2648 60.2163 70.1147C60.2165 68.9641 59.2835 68.0312 58.1329 68.0312Z" fill="white"/>
</g>
</g>
</g>
</g>
</svg>
