<svg width="101" height="101" viewBox="0 0 101 101" fill="none" xmlns="http://www.w3.org/2000/svg">
<g id="mic-svgrepo-com 1" clip-path="url(#clip0_3444_5800)">
<path id="Vector" fill-rule="evenodd" clip-rule="evenodd" d="M50.6831 5.94495C40.9509 5.94495 33.034 13.8618 33.034 23.594V48.8069C33.034 58.5391 40.9509 66.4559 50.6831 66.4559C60.4153 66.4559 68.3321 58.5391 68.3321 48.8069V23.594C68.3321 13.8618 60.4153 5.94495 50.6831 5.94495ZM20.9489 37.8806C22.0534 37.8806 22.9489 38.7761 22.9489 39.8806V50.0383C22.9489 65.3274 35.394 77.7725 50.6831 77.7725C65.9721 77.7725 78.4172 65.3274 78.4172 50.0383V39.8806C78.4172 38.7761 79.3127 37.8806 80.4172 37.8806H81.4598C82.5644 37.8806 83.4598 38.7761 83.4598 39.8806V50.0383C83.4598 66.6312 71.0649 80.3847 55.0483 82.5256C54.012 82.6641 53.2046 83.5265 53.2046 84.572L53.2044 93.8597C53.2043 94.9643 54.0998 95.8597 55.2044 95.8597H63.8108C64.9153 95.8597 65.8108 96.7552 65.8108 97.8597V98.9023C65.8108 100.007 64.9154 100.902 63.8108 100.902H37.5553C36.4507 100.902 35.5553 100.007 35.5553 98.9023V97.8597C35.5553 96.7552 36.4507 95.8597 37.5553 95.8597H46.1617C47.2663 95.8597 48.1617 94.9643 48.1617 93.8597L48.1615 84.572C48.1615 83.5266 47.3541 82.6641 46.3179 82.5256C30.3012 80.3846 17.9062 66.6312 17.9062 50.0383V39.8806C17.9062 38.7761 18.8017 37.8806 19.9063 37.8806H20.9489ZM50.6831 0.902344C63.1937 0.902344 73.3747 11.0833 73.3747 23.594V48.8069C73.3747 61.3176 63.1937 71.4985 50.683 71.4985C38.1724 71.4985 27.9914 61.3176 27.9914 48.8069V23.594C27.9914 11.0833 38.1724 0.902344 50.6831 0.902344Z" fill="white"/>
</g>
<defs>
<clipPath id="clip0_3444_5800">
<rect width="100" height="100" fill="white" transform="translate(0.666687 0.902344)"/>
</clipPath>
</defs>
</svg>
