<?xml version="1.0" standalone="no"?>
<!DOCTYPE svg PUBLIC "-//W3C//DTD SVG 1.1//EN" "http://www.w3.org/Graphics/SVG/1.1/DTD/svg11.dtd" >
<svg xmlns="http://www.w3.org/2000/svg" xmlns:xlink="http://www.w3.org/1999/xlink" version="1.1">
<metadata>
Created by FontForge 20170731 at Mon Jan 24 22:28:25 2022
 By Aleksey,,,
Copyright (c) Niskala Huruf
</metadata>
<defs>
<font id="GlossySheen-Shadow" horiz-adv-x="474" >
  <font-face 
    font-family="Glossy Sheen Shadow"
    font-weight="400"
    font-stretch="normal"
    units-per-em="1000"
    panose-1="0 0 0 0 0 0 0 0 0 0"
    ascent="800"
    descent="-200"
    x-height="599"
    cap-height="600"
    bbox="-110 -287 5213 833"
    underline-thickness="50"
    underline-position="-175"
    unicode-range="U+000D-FB02"
  />
<missing-glyph horiz-adv-x="338" 
 />
    <glyph glyph-name="uniE000" unicode="GLOSSY&#x20;SHEEN" horiz-adv-x="5217" 
d="M3029 270q-26 26 -42 60t-16 82q0 47 18 85t48.5 65t71 42t85.5 15q42 0 85.5 -17t74.5 -49l50 -50q28 -28 41 -63q0 24 2 51.5t11 50t27.5 37.5t51.5 15q23 0 42.5 -5t33.5 -18l50 -50q20 -20 20 -59q0 -26 -1 -52.5t-2 -52.5q3 0 6 0.5t6 0.5q0 26 -1.5 51.5t-1.5 51.5
q0 25 3.5 50.5t13.5 45.5t29 33t49 13q25 0 41 -5.5t27 -16.5l50 -50q5 -5 8 -10t6 -11q3 29 17 52.5t46 28.5q53 9 114 12.5t115 3.5q17 0 32 -15l50 -50q9 -9 15 -21q5 26 19 45.5t43 24.5q53 9 114 12.5t115 3.5q17 0 32 -15l50 -50q6 -6 11 -14.5t10 -16.5q7 37 27.5 63
t62.5 26q49 0 82 -36l45 -45q2 -2 3 -2.5t2 -2.5q14 -15 29 -46.5t29 -68.5q-1 27 -1.5 54t-0.5 54q0 41 20.5 67.5t63.5 26.5q21 0 41.5 -7.5t34.5 -21.5l50 -50q24 -24 24 -59q0 -57 1 -113.5t1 -113.5q0 -62 -1 -124t-12 -123q-4 -22 -9.5 -36t-15 -22.5t-24.5 -12
t-38 -3.5q-20 0 -37 9.5t-32 24.5l-50 50q-23 23 -40.5 51.5t-32.5 57.5q1 -29 1 -56.5v-56.5q0 -85 -84 -85q-23 0 -42 5t-32 18l-41 40q-6 -21 -18.5 -34t-29 -19.5t-36 -9t-39.5 -3.5t-39 -1h-39h-79q-44 0 -66 22l-43 42q-6 -20 -19 -32t-29.5 -19t-35.5 -9t-38 -3
q-20 -1 -39 -1h-39h-79q-44 0 -66 22l-50 50q-10 10 -16 25q0 -50 -22 -71.5t-72 -21.5q-42 0 -64 24l-50 50q-15 15 -22 35t-9 41q1 -6 1 -11.5v-10.5q0 -26 -2.5 -49t-12 -40.5t-27.5 -27.5t-48 -10q-23 0 -44.5 5t-35.5 19l-50 50q-15 15 -18 37q-15 -27 -38.5 -47.5
t-51 -34t-58.5 -20t-61 -6.5q-46 0 -90.5 19t-77.5 52l-50 50q-27 26 -43 60.5t-16 74.5q0 38 23 56.5t60 18.5q7 0 10 -1zM484 260l9 -3v219q0 11 0.5 27.5t3.5 33.5q4 23 11.5 36.5t19 20.5t27.5 9t37 2q49 0 68 -19l50 -50q11 -11 15 -29.5t4 -44.5v-65l1 -130v-65v-20
t-1 -22q18 3 35 3q11 0 18.5 -4t13.5 -10l42 -42q-10 37 -13 80t-3 90q0 73 9 135t36 107t77.5 70t133.5 25q54 0 93 -15t65 -41l50 -50q15 -15 26 -33.5t19 -38.5q5 43 25 77t50 57.5t68 36t79 12.5q42 0 85.5 -17t74.5 -49l50 -50q11 -10 19 -21.5t15 -24.5q8 39 29 69
t50 50.5t65 31.5t74 11q42 0 85.5 -17t74.5 -49l50 -50q17 -15 29 -37q0 6 -0.5 11.5t-0.5 11.5q0 26 3.5 47t14 35.5t28.5 22.5t46 8q48 0 72 -25l50 -50q25 -25 25 -71q0 -25 -2.5 -49t-4.5 -49q15 8 18 25.5t3 32.5q0 27 -3.5 54t-3.5 54q0 22 9 37t24 24t33.5 13t37.5 4
q20 0 37.5 -5.5t29.5 -17.5l50 -50q19 -17 19 -51q0 -63 -4.5 -125.5t-4.5 -125.5q0 -29 2 -58.5t2 -58.5q0 -57 -16.5 -96t-46.5 -63t-73 -35t-97 -11q-19 0 -40.5 4t-43 12t-41.5 19.5t-36 27.5l-50 50q-5 4 -8.5 8.5t-7.5 9.5q-13 -31 -36.5 -54t-52.5 -38t-61.5 -22.5
t-64.5 -7.5q-46 0 -90.5 19t-77.5 52l-50 50q-11 10 -21 23q-10 -36 -33 -63t-53.5 -45t-66 -27t-70.5 -9q-46 0 -90.5 19t-77.5 52l-50 50q-11 10 -19 21t-16 23q-22 -92 -80 -131t-152 -39q-63 0 -105 15t-69 42l-50 50q-8 7 -15 17q1 -9 1.5 -17.5t0.5 -15.5
q0 -41 -16 -60t-55 -21q-9 -1 -20 -1h-22q-23 0 -46.5 -1t-46.5 -1h-46q-29 0 -45.5 10.5t-24.5 29.5l-50 50q-7 16 -9 38q-1 9 -1 19v21v43q-4 -3 -13 -5l2 -32q0 -91 -52 -139t-142 -48q-58 0 -98 15t-66 41l-50 50q-24 24 -37.5 55t-21 66.5t-9.5 74.5t-2 79
q0 62 8 121.5t33 106t70 75t118 28.5q100 0 151 -51l50 -50q51 -51 51 -149q0 -20 -7 -38t-24 -29q3 -4 5.5 -8t4.5 -9zM1865 235q-32 0 -52.5 -15t-20.5 -50q0 -42 19 -78t49.5 -62t69.5 -41t79 -15t79.5 11.5t70.5 34.5t50 57t19 78q0 45 -19.5 76.5t-49 53t-64 36.5
t-64 28.5t-49 27t-19.5 32.5q0 22 18 33t37 11q20 0 30 -3.5t15 -11t5.5 -18.5t0.5 -27q0 -34 19.5 -43.5t48.5 -9.5q23 0 38 8.5t23.5 22.5t12 32t3.5 38q0 38 -18 69t-47 53t-64 34t-70 12q-43 0 -81.5 -14t-68 -39.5t-46.5 -62t-17 -81.5t15 -77.5t39.5 -57.5t57 -44.5
t67.5 -37.5q3 -1 16.5 -8t27.5 -14.5t25.5 -14.5t11.5 -9q0 -7 -5.5 -12t-13 -7t-15.5 -3t-13 -1q-30 0 -47.5 8t-27.5 20t-16 26.5t-12.5 26.5t-17 20t-29.5 8zM1403 235q-32 0 -52.5 -15t-20.5 -50q0 -42 19 -78t49.5 -62t69.5 -41t79 -15t79.5 11.5t70.5 34.5t50 57
t19 78q0 45 -19.5 76.5t-49 53t-64 36.5t-64 28.5t-49 27t-19.5 32.5q0 22 18 33t37 11q20 0 30 -3.5t15 -11t5.5 -18.5t0.5 -27q0 -34 19.5 -43.5t48.5 -9.5q23 0 38 8.5t23.5 22.5t12 32t3.5 38q0 38 -18 69t-47 53t-64 34t-70 12q-43 0 -81.5 -14t-68 -39.5t-46.5 -62
t-17 -81.5t15 -77.5t39.5 -57.5t57 -44.5t67.5 -37.5q3 -1 16.5 -8t27.5 -14.5t25.5 -14.5t11.5 -9q0 -7 -5.5 -12t-13 -7t-15.5 -3t-13 -1q-30 0 -47.5 8t-27.5 20t-16 26.5t-12.5 26.5t-17 20t-29.5 8zM3044 235q-32 0 -52.5 -15t-20.5 -50q0 -42 19 -78t49.5 -62
t69.5 -41t79 -15t79.5 11.5t70.5 34.5t50 57t19 78q0 45 -19.5 76.5t-49 53t-64 36.5t-64 28.5t-49 27t-19.5 32.5q0 22 18 33t37 11q20 0 30 -3.5t15 -11t5.5 -18.5t0.5 -27q0 -34 19.5 -43.5t48.5 -9.5q23 0 38 8.5t23.5 22.5t12 32t3.5 38q0 38 -18 69t-47 53t-64 34
t-70 12q-43 0 -81.5 -14t-68 -39.5t-46.5 -62t-17 -81.5t15 -77.5t39.5 -57.5t57 -44.5t67.5 -37.5q3 -1 16.5 -8t27.5 -14.5t25.5 -14.5t11.5 -9q0 -7 -5.5 -12t-13 -7t-15.5 -3t-13 -1q-30 0 -47.5 8t-27.5 20t-16 26.5t-12.5 26.5t-16.5 20t-30 8zM426 301
q-20 0 -40.5 -1t-40.5 -1h-85q-13 0 -20.5 -5.5t-11 -14t-4 -19t-0.5 -20.5q0 -37 12 -48t47 -11q1 -6 1.5 -11.5t0.5 -10.5q0 -20 -11 -27t-30 -7q-25 0 -38.5 16.5t-20 40t-7.5 49t-1 42.5t1.5 45.5t8 56t20 47.5t38.5 20q20 0 28.5 -7.5t10.5 -18.5t2 -24.5t4 -24.5
t14.5 -18.5t34.5 -7.5q37 0 61.5 16.5t24.5 57.5q0 190 -192 190q-72 0 -115 -28.5t-66.5 -74t-30.5 -103t-7 -115.5q0 -63 6 -121t29 -102.5t67.5 -71t121.5 -26.5q85 0 134.5 45t49.5 132q0 20 -3 41q23 0 32.5 18t9.5 38q0 8 -1.5 19t-5 21t-10.5 17t-18 7zM1062 -31
q80 0 127 26t71.5 70.5t31.5 104.5t7 128q0 59 -8 114.5t-32 98t-67.5 68t-113.5 25.5q-81 0 -129.5 -24.5t-74.5 -68t-34 -103.5t-8 -131q0 -67 7 -123.5t31 -97.5t69.5 -64t122.5 -23zM4456 -34h47t47 1q41 1 64.5 9t36.5 24t16.5 42t3.5 64q0 33 -20 50t-52 17
q-13 0 -21.5 -6.5t-15 -15t-13 -15t-17.5 -6.5h-54l-6 89h109q14 0 22 9t12.5 21.5t6 26t1.5 23.5q0 27 -11 47.5t-42 20.5h-98l-5 62l136 11q16 2 25.5 8.5t14.5 17t6.5 23.5t1.5 26q0 9 -4.5 23t-12 27t-17.5 22.5t-21 9.5q-57 0 -114 -4t-113 -12q-20 -3 -31.5 -14.5
t-17 -28t-7 -35t-1.5 -34.5q0 -104 0.5 -207t0.5 -207q0 -43 17 -66t63 -23h63zM4068 -34h47t47 1q41 1 64.5 9t36.5 24t16.5 42t3.5 64q0 33 -20 50t-52 17q-13 0 -21.5 -6.5t-15 -15t-13 -15t-17.5 -6.5h-54l-6 89h109q14 0 22 9t12.5 21.5t6 26t1.5 23.5q0 27 -11 47.5
t-42 20.5h-98l-5 62l136 11q16 2 25.5 8.5t14.5 17t6.5 23.5t1.5 26q0 9 -4.5 23t-12 27t-17.5 22.5t-21 9.5q-57 0 -114 -4t-113 -12q-20 -3 -31.5 -14.5t-17 -28t-7 -35t-1.5 -34.5q0 -104 0.5 -207t0.5 -207q0 -43 17 -66t63 -23h63zM619 -24q23 0 46.5 1t46.5 1
t41.5 0.5t32.5 7t21.5 21.5t7.5 43q0 12 -2 29.5t-7.5 34t-15.5 28t-26 11.5q-24 0 -54 -7t-55 -11q5 11 8 26t4.5 31t2 32t0.5 28v65l-1 130v65q0 24 -3 39.5t-11.5 25.5t-23.5 14t-39 4q-14 0 -30 -1t-29 -9q-14 -8 -20.5 -27t-8.5 -41.5t-1.5 -44.5t0.5 -35v-353
q0 -21 1 -40.5t8 -34.5t21 -24t40 -9h46zM3455 41q0 -22 7 -35.5t19 -21t28.5 -10.5t35.5 -3q29 0 45 10t23.5 26t9.5 37.5t2 43.5q0 28 -3.5 55t-3.5 55l78 2q0 -20 -2 -41t-2 -41q0 -24 1.5 -50t10 -48t26 -36t49.5 -14q40 0 62 16t22 59v110l3 221v110q0 24 -2.5 43.5
t-10.5 33.5t-24.5 22t-44.5 8t-45 -12.5t-26 -31.5t-11.5 -42.5t-2.5 -45.5v-28l3 -57v-28q-21 -1 -41.5 -1.5t-41.5 -0.5q0 42 2 83t2 83q0 43 -24 57.5t-62 14.5q-37 0 -54.5 -22t-23.5 -53.5t-4.5 -66t1.5 -59.5q0 -38 -0.5 -75t-0.5 -75v-192zM2427 197q26 0 49.5 10.5
t42.5 27.5q1 -5 1 -10v-10q0 -14 -1.5 -32.5t-6.5 -34.5t-16 -27t-31 -11q-30 0 -48 11t-30 23.5t-21.5 23.5t-22.5 11t-27.5 -6t-26.5 -16.5t-19.5 -24t-7.5 -27.5q0 -34 18.5 -60t47 -44t61.5 -27t62 -9q51 0 92 10t70 32.5t45 60t16 92.5q0 11 -0.5 22t-0.5 22l-2 29
q0 11 -0.5 22t-0.5 22q0 63 4.5 125.5t4.5 125.5q0 35 -22 49.5t-54 14.5q-16 0 -33 -3.5t-30.5 -11t-22 -20.5t-8.5 -33q0 -27 3.5 -54t3.5 -54q0 -14 -2 -27.5t-8 -23.5t-16.5 -16t-27.5 -6t-27.5 4.5t-10.5 24.5q0 34 4 67t4 67q0 44 -22.5 65t-64.5 21q-27 0 -43 -7.5
t-24.5 -21t-11.5 -32.5t-3 -42q0 -14 1 -28t1 -28q0 -48 2.5 -91t17.5 -75.5t48 -51t94 -18.5zM4788 -30q74 0 74 75q0 110 -3 221q11 -33 25.5 -65t31.5 -62q11 -19 25.5 -47t33 -54t41 -44.5t47.5 -18.5q21 0 34 2.5t21.5 10t13.5 20.5t8 33q10 61 11.5 123.5t1.5 123.5
v28.5t-1 28.5l-1 112v56q0 19 -7.5 33.5t-20 24.5t-29 15t-33.5 5q-39 0 -56.5 -23.5t-17.5 -60.5q0 -59 2 -117.5t2 -117.5q-14 24 -30.5 66t-33 85.5t-33 80.5t-30.5 53t-34 24.5t-41 8.5q-33 0 -50.5 -18t-25.5 -45t-9.5 -57t-2.5 -54l-4 -108t-2 -109q0 -40 0.5 -81
t5.5 -82q5 -38 28 -52t59 -14zM4558 576q13 5 27 -1t24 -25q8 -17 2.5 -28t-16.5 -11q-18 1 -21 11t-8 21q-2 4 -5 8.5t-8 12.5q-2 4 0.5 7.5t4.5 4.5zM4170 576q13 5 27 -1t24 -25q8 -17 2.5 -28t-16.5 -11q-18 1 -21 11t-8 21q-2 4 -5 8.5t-8 12.5q-2 4 0.5 7.5t4.5 4.5z
M3261 562q10 8 30.5 -3.5t36.5 -37.5q13 -22 12 -39.5t-13 -19.5q-9 -1 -14 2.5t-8.5 10t-6.5 14t-9 13.5q-9 10 -17 21t-13 19q-4 5 -3 11t5 9zM2082 562q10 8 30.5 -3.5t36.5 -37.5q13 -22 12 -39.5t-13 -19.5q-9 -1 -14 2.5t-8.5 10t-6.5 14t-9 13.5q-9 10 -17 21t-13 19
q-4 5 -3 11t5 9zM1620 562q10 8 30.5 -3.5t36.5 -37.5q13 -22 12 -39.5t-13 -19.5q-9 -1 -14 2.5t-8.5 10t-6.5 14t-9 13.5q-9 10 -17 21t-13 19q-4 5 -3 11t5 9zM309 554q11 7 30 -7.5t31 -42.5q10 -23 6.5 -40t-15.5 -18q-9 0 -13.5 4.5t-7 11t-4.5 14.5t-7 15
q-8 11 -14 22.5t-11 20.5q-3 6 -1 12t6 8zM3577 549q7 0 11 -5t6.5 -11t3.5 -12t1 -8q0 -31 -14 -31q-4 0 -8.5 2t-4.5 7q0 7 -3 19t-7 21q-3 8 1 13t14 5zM1137 546q8 5 21 1t27 -14t27 -25.5t20 -33.5q8 -20 5.5 -36t-16.5 -16q-7 0 -11.5 4.5t-7.5 11t-5.5 14.5t-5.5 14
q-7 12 -16.5 21.5t-18.5 16t-16.5 12t-9.5 10.5q-3 5 -0.5 11t7.5 9zM2386 548q12 0 16 -17.5t2 -33.5q-1 -7 -4.5 -17t-17.5 -9q-6 0 -9.5 5t-4.5 11t-0.5 12.5t0.5 9.5v10.5t1 12.5t4.5 11t12.5 5zM2635 546q7 0 11.5 -8.5t7 -21t3 -28t-0.5 -28.5q0 -6 -1 -13.5
t-3.5 -14.5t-7.5 -12t-13 -4q-7 0 -11 8.5t-5.5 19t-1 21.5t0.5 16v16.5t1.5 21t5.5 18.5t14 9zM619 544q7 1 11.5 -9t6.5 -23.5t3 -26t1 -17.5q0 -6 -0.5 -13.5t-2.5 -14.5t-6.5 -12t-12.5 -5q-7 0 -11 6.5t-5 15.5t-1 18.5v14.5q0 6 -1 16.5t0 21t4.5 19t13.5 9.5z
M4820 543q7 3 13.5 -2.5t12.5 -13t9.5 -15.5t4.5 -10q6 -18 6.5 -26.5t-8.5 -11.5q-4 -1 -9.5 -1t-7.5 4q-4 8 -12.5 25.5t-16.5 25.5q-13 16 8 25zM3814 537q7 1 11.5 -9t6.5 -23.5t3 -26t1 -17.5q0 -6 -0.5 -13.5t-2.5 -14.5t-6.5 -12t-12.5 -5q-7 0 -11 6.5t-5 15.5
t-1 18.5v14.5q0 6 -1 16.5t0 21t4.5 19t13.5 9.5zM5106 535q7 0 11.5 -8.5t7 -21t3 -28t-0.5 -28.5q0 -6 -1 -13.5t-3.5 -14.5t-7.5 -12t-13 -4q-7 0 -11 8.5t-5.5 19t-1 21.5t0.5 16v16.5t1.5 21t5.5 18.5t14 9zM4203 491q3 17 16 11q7 -3 7 -15q-1 -6 -6 -10t-10 -2
q-4 2 -6 6.5t-1 9.5zM4591 491q3 17 16 11q7 -3 7 -15q-1 -6 -6 -10t-10 -2q-4 2 -6 6.5t-1 9.5zM3329 434q0 25 20 18q14 -3 14 -19q1 -10 -6 -16.5t-15 -4.5q-13 5 -13 22zM2150 434q0 25 20 18q14 -3 14 -19q1 -10 -6 -16.5t-15 -4.5q-13 5 -13 22zM1688 434q0 25 20 18
q14 -3 14 -19q1 -10 -6 -16.5t-15 -4.5q-13 5 -13 22zM359 418q3 25 23 15q13 -5 11 -21q-1 -10 -8.5 -16t-15.5 -2q-5 2 -8 9t-2 15zM1000 256v14q0 16 1 43.5t7 54.5t19 46.5t37 19.5q27 0 41.5 -22t21 -51.5t7 -60t0.5 -48.5t-2 -39t-9 -39t-21 -30t-38 -12
q-25 0 -38 12.5t-19 31.5t-6.5 40.5t-0.5 39.5zM1220 395q2 10 7.5 13.5t13.5 -1.5q5 -2 7.5 -8t1.5 -12q-2 -8 -8.5 -13t-13.5 -1q-5 2 -7.5 8.5t-0.5 13.5zM627 405q7 0 10.5 -6.5t3.5 -12.5q0 -9 -6.5 -15.5t-15.5 -6.5q-14 0 -14 14q0 9 6 18t16 9zM2638 398
q7 -1 9.5 -7.5t2.5 -11.5q-1 -10 -7.5 -16.5t-15.5 -5.5q-13 1 -13 16q1 9 7.5 17.5t16.5 7.5zM3822 398q7 0 10.5 -6.5t3.5 -12.5q0 -9 -6.5 -15.5t-15.5 -6.5q-14 0 -14 14q0 9 6 18t16 9zM4654 166q6 -4 7 -5l24 -25q0 66 1 130t4 129q-6 -6 -15 -10t-21 -5
q-17 -2 -32.5 -3t-32.5 -2q14 -4 24 -14l50 -50q11 -11 15.5 -28t4.5 -34q0 -20 -5.5 -45t-23.5 -38zM4266 166q6 -4 7 -5l30 -31q0 66 -0.5 132.5t-0.5 132.5q-7 -6 -15.5 -10t-20.5 -5q-17 -2 -32.5 -3t-32.5 -2q14 -4 24 -14l50 -50q11 -11 15.5 -28t4.5 -34
q0 -20 -5.5 -45t-23.5 -38zM2075 348q-15 13 -16 44q-14 -2 -23.5 -9.5t-11.5 -18.5q14 -7 29.5 -13t32.5 -14zM1613 348q-15 13 -16 44q-14 -2 -23.5 -9.5t-11.5 -18.5q14 -7 29.5 -13t32.5 -14zM3254 348q-15 13 -16 44q-14 -2 -23.5 -9.5t-11.5 -18.5q14 -7 29.5 -13
t32.5 -14zM5109 387q7 -1 9.5 -7.5t2.5 -11.5q-1 -10 -7.5 -16.5t-15.5 -5.5q-13 1 -13 16q1 9 7.5 17.5t16.5 7.5zM329 309l-38 37q-11 13 -13 32q-17 -10 -24.5 -32.5t-10.5 -39.5q8 3 17 3h69zM4565 351q8 2 17 -4t14 -21q4 -14 -0.5 -21.5t-12.5 -7.5q-9 0 -9.5 9.5
t-5.5 17.5q-3 6 -4 9l-3 9q-1 3 0.5 5.5t3.5 3.5zM4177 351q8 2 17 -4t14 -21q4 -14 -0.5 -21.5t-12.5 -7.5q-9 0 -9.5 9.5t-5.5 17.5q-3 6 -4 9l-3 9q-1 3 0.5 5.5t3.5 3.5zM4970 342q3 -7 5.5 -13t5.5 -12zM1850 270q-14 14 -25.5 31t-19.5 37q-11 -33 -32.5 -45.5
t-54.5 -12.5q4 -3 10 -9l50 -50q3 -3 6 -6.5t6 -6.5q11 21 31.5 29t43.5 8q7 0 10 -1zM3445 233v52t1 52q-11 -32 -33 -44.5t-54 -12.5q4 -3 10 -9l50 -50q16 -16 26 -33v45zM2300 228q-19 19 -27.5 42.5t-12.5 49.5q-13 -25 -33.5 -32.5t-46.5 -7.5q4 -3 10 -9l50 -50
q13 -13 23 -28t16 -32q13 12 28.5 19.5t31.5 8.5zM1388 270q-17 17 -31 39q1 -18 1.5 -36t0.5 -36q21 8 44 8q7 0 10 -1zM410 287q8 3 17 -3.5t14 -21.5q4 -14 -0.5 -21.5t-12.5 -7.5q-9 0 -9.5 9.5t-5.5 17.5q-3 6 -4 9l-3 9q-1 3 0.5 5.5t3.5 3.5zM239 175q2 -21 6 -40
q21 0 26 8zM3205 137q-29 14 -61 33l9 -15l7 -15q7 -2 15 -3t19 -1q7 0 11 1zM1564 137q-29 14 -61 33l9 -15l7 -15q7 -2 15 -3t19 -1q7 0 11 1zM2026 137q-29 14 -61 33l9 -15l7 -15q7 -2 15 -3t19 -1q7 0 11 1zM1584 149q-5 3 -11.5 6.5t-13.5 7.5zM2046 149
q-5 3 -11.5 6.5t-13.5 7.5zM3225 149q-5 3 -11.5 6.5t-13.5 7.5zM4556 159h-23l1 -18l9 3zM4168 159h-23l1 -18l9 3zM2397 149l5 -5zM2497 139q-5 -1 -10 -1.5t-10 -0.5q-44 0 -77 11l13 -13q10 -7 22.5 -11t29.5 -4q21 0 32 19zM3678 138l2 -28t3 -28q-1 9 -1 18.5v17.5v10
t1 10h-5zM757 126q7 0 11 -8t6.5 -18t3.5 -19t1 -11q0 -31 -14 -31q-4 0 -8.5 2t-4.5 7q0 3 -1 11.5t-2.5 17.5l-3 18t-3.5 13q-3 8 1 13t14 5z" />
    <glyph glyph-name="fi" unicode="fi" horiz-adv-x="672" 
d="M18 503q0 47 18 68t65 26q48 5 96 8t96 3q29 0 45 -16l28 -28q7 13 18 22t26 9l203 5q16 0 27 -11l50 -50q13 -13 19 -37.5t6 -41.5q0 -21 -5 -41t-19 -34q-15 -17 -41 -18q6 -75 6 -150q0 -47 -3 -95l44 -44q22 -22 22 -65q0 -48 -26 -74.5t-74 -26.5q-22 0 -43 1t-43 2
q-31 2 -57.5 8t-43.5 23l-50 50q-25 23 -25 75q0 37 15 56.5t53 21.5q-1 17 -1 34.5v34.5q0 40 1 79t2 79q-2 1 -4 3l-24 25q-6 -12 -16.5 -21t-26.5 -10q-27 -2 -54 -3t-53 -2l-1 -26q5 1 14 1q33 0 51 -18l50 -50q15 -16 19.5 -39t4.5 -45q0 -40 -18.5 -54.5t-54.5 -20.5
q-10 -2 -19 -3.5t-19 -3.5l-29 -4q1 -20 3.5 -40.5t2.5 -41.5q0 -29 -3.5 -50.5t-13.5 -36t-29 -22t-51 -7.5q-51 0 -69 19l-50 50q-19 19 -19 71v456zM28 47q0 -46 15.5 -63t62.5 -17q30 0 47.5 6.5t26 20t11 33.5t2.5 46q0 23 -3 46t-3 46q19 0 37.5 4.5t37.5 6.5
q32 5 48.5 17.5t16.5 47.5q0 17 -2.5 33.5t-9 29.5t-19.5 21t-34 8q-20 0 -39 -4.5t-37 -11.5l3 110l116 6q14 1 23 9.5t14 20.5t6.5 26t1.5 25q0 15 -2 30t-8 27t-17 19.5t-30 7.5q-48 0 -95.5 -3t-95.5 -8q-32 -3 -47.5 -13.5t-21 -27.5t-5 -40t0.5 -51q0 -103 -0.5 -204
t-0.5 -204zM410 585q-15 0 -24 -10t-14.5 -24.5t-7 -29.5t-1.5 -26q0 -42 16 -58.5t58 -16.5q0 -51 -1.5 -101t-1.5 -101v-39.5t2 -39.5q-38 0 -53.5 -13.5t-15.5 -54.5q0 -30 8.5 -48.5t24.5 -28.5t37.5 -14t46.5 -5q21 -1 42.5 -2t42.5 -1q44 0 67 24t23 67q0 34 -16 54.5
t-52 20.5q2 32 3.5 64.5t1.5 64.5q0 40 -1.5 79.5t-5.5 79.5q38 0 52 24.5t14 59.5q0 9 -2 22.5t-7 26.5t-13 22t-20 9z" />
    <glyph glyph-name="fl" unicode="fl" horiz-adv-x="716" 
d="M18 503q0 47 18 68t65 26q48 5 96 8t96 3q29 0 45 -16l44 -44q8 29 20.5 40t40.5 16q8 1 16 1h16q49 0 68 -19l50 -50q11 -11 15 -29.5t4 -44.5q0 -66 0.5 -130t0.5 -130v-20t-1 -22q18 3 35 3q11 0 18.5 -4t13.5 -10l50 -50q9 -9 14.5 -21t8.5 -25.5t4.5 -27.5t1.5 -25
q0 -58 -35 -73q-8 -4 -17 -5.5t-19 -2.5q-9 -1 -20 -1h-22q-23 0 -46.5 -1t-46.5 -1h-46q-29 0 -45.5 10.5t-24.5 29.5l-50 50q-7 16 -9 37q-1 10 -1 20v21v61q-8 -8 -14.5 -12.5t-13 -7.5t-15 -5t-19.5 -4q-10 -2 -19 -3.5t-19 -3.5l-29 -4q1 -20 3.5 -40.5t2.5 -41.5
q0 -29 -3.5 -50.5t-13.5 -36t-29 -22t-51 -7.5q-51 0 -69 19l-50 50q-19 19 -19 71v456zM28 47q0 -46 15.5 -63t62.5 -17q30 0 47.5 6.5t26 20t11 33.5t2.5 46q0 23 -3 46t-3 46q19 0 37.5 4.5t37.5 6.5q32 5 48.5 17.5t16.5 47.5q0 17 -2.5 33.5t-9 29.5t-19.5 21t-34 8
q-20 0 -39 -4.5t-37 -11.5l3 110l116 6q14 1 23 9.5t14 20.5t6.5 26t1.5 25q0 15 -2 30t-8 27t-17 19.5t-30 7.5q-48 0 -95.5 -3t-95.5 -8q-32 -3 -47.5 -13.5t-21 -27.5t-5 -40t0.5 -51q0 -103 -0.5 -204t-0.5 -204zM502 -24q23 0 46.5 1t46.5 1t41.5 0.5t32.5 7t21.5 21.5
t7.5 43q0 12 -2 29.5t-7.5 34t-15.5 28t-26 11.5q-24 0 -54 -7t-55 -11q5 11 8 26t4.5 31t2 32t0.5 28v65l-1 130v65q0 24 -3 39.5t-11.5 25.5t-23.5 14t-39 4q-14 0 -30 -1t-29 -9q-14 -8 -20.5 -27t-8.5 -41.5t-1.5 -44.5t0.5 -35v-353q0 -21 1 -40.5t8 -34.5t21 -24
t40 -9h46zM363 275q4 -5 7.5 -9.5t5.5 -9.5v122q-5 -2 -10 -3l-10 -2q-27 -2 -54 -3t-53 -2l-1 -26q5 1 14 1q33 0 51 -18z" />
    <glyph glyph-name=".notdef" horiz-adv-x="338" 
 />
    <glyph glyph-name="uni0000" horiz-adv-x="0" 
 />
    <glyph glyph-name="uni0000" horiz-adv-x="0" 
 />
    <glyph glyph-name="uni000D" unicode="&#xd;" horiz-adv-x="250" 
 />
    <glyph glyph-name="space" unicode=" " horiz-adv-x="265" 
 />
    <glyph glyph-name="exclam" unicode="!" horiz-adv-x="294" 
d="M147 625q22 0 44 -5.5t37 -20.5l50 -50q19 -17 19 -52q0 -55 -4.5 -109.5t-10.5 -108.5q-2 -26 -5.5 -52.5t-3.5 -53.5q0 -49 -42 -70l34 -33q24 -24 24 -61q0 -19 -6.5 -37t-18.5 -32t-28.5 -22.5t-36.5 -8.5q-36 0 -60 24l-50 50q-27 29 -27 69q0 31 14.5 56.5
t45.5 34.5l-22 22q-11 10 -15.5 25t-4.5 32q0 28 -3 56l-6 56q-5 52 -8.5 104t-3.5 105q0 18 6 32t16 25q27 25 66 25zM69 543q0 -53 3.5 -104.5t8.5 -103.5q3 -28 6 -56.5t3 -56.5q0 -29 13.5 -47t44.5 -18q30 0 47.5 18t17.5 48q0 26 3.5 53.5t5.5 53.5q6 54 10.5 108.5
t4.5 108.5q0 20 -7.5 33.5t-20 21t-29 10.5t-33.5 3q-33 0 -55.5 -18.5t-22.5 -53.5zM229 59q0 35 -23.5 56t-57.5 21q-38 0 -57 -24.5t-19 -59.5q0 -34 21 -58.5t56 -24.5q17 0 32 8t25.5 21t16.5 29t6 32z" />
    <glyph glyph-name="quotedbl" unicode="&#x22;" horiz-adv-x="393" 
d="M106 642q41 0 65 -24l31 -31q17 55 78 55q41 0 65 -24l50 -50q23 -23 23 -62q0 -18 -1.5 -39.5t-6 -42.5t-12.5 -40.5t-21 -33.5q-9 -8 -20.5 -13.5t-25.5 -5.5q-17 0 -29.5 5.5t-21.5 14.5l-49 50q-8 -26 -25.5 -48t-48.5 -22q-17 0 -29.5 5.5t-21.5 14.5l-50 50
q-12 12 -18.5 29.5t-10 36.5t-4 39t-0.5 36q0 44 18 72t65 28zM33 542q0 -20 1 -46t8 -49.5t22 -39.5t43 -16q26 0 41 19t23 45t10.5 54.5t2.5 46.5q0 36 -21.5 56t-56.5 20q-43 0 -58 -26t-15 -64zM207 542q0 -20 1 -46t8 -49.5t22 -39.5t43 -16q26 0 41 19t23 45
t10.5 54.5t2.5 46.5q0 36 -21.5 56t-56.5 20q-43 0 -58 -26t-15 -64z" />
    <glyph glyph-name="numbersign" unicode="#" horiz-adv-x="608" 
d="M356 529q19 -19 19 -55q0 -8 -0.5 -16t-1.5 -16q3 17 6.5 39t10.5 44q3 12 8.5 24.5t13 23t18.5 17.5t25 7q41 0 60 -19l50 -50q19 -19 19 -62q0 -17 -1.5 -33t-5.5 -32l32 -32q19 -19 19 -52q0 -41 -15.5 -60t-56.5 -23l38 -38q18 -18 18 -58q0 -39 -12.5 -57.5
t-50.5 -21.5h-33q-3 -21 -10 -41.5t-19 -37t-30 -26.5t-42 -10q-23 0 -37 14l-50 50q-11 11 -15.5 26.5t-4.5 29.5h-2l-5 -31q-4 -17 -9.5 -33.5t-14.5 -30t-23 -21.5t-34 -8q-15 0 -32.5 7t-30.5 20l-50 50q-8 9 -13.5 20t-5.5 24q0 8 0.5 15.5t1.5 15.5l-38 38
q-18 18 -18 59q0 35 13.5 54.5t49.5 23.5l-37 37q-9 9 -14 23t-5 36q0 15 3.5 29t11 25.5t19.5 18.5t28 7h25.5t26.5 -1q2 16 5.5 36t9.5 40.5t14 38.5t19 30q7 6 15 10t18 4q21 0 39 -5t31 -17zM135 259q-21 0 -38 -1.5t-29 -8.5t-18 -21t-6 -39q0 -35 13.5 -50.5
t48.5 -15.5q-3 -16 -5.5 -31t-2.5 -31q0 -13 7 -24t17.5 -19t23 -13t24.5 -5q24 0 37.5 13t21.5 32t12 40.5t7 38.5h15q16 0 31 -0.5t30 -0.5q-2 -14 -4.5 -28t-2.5 -28q0 -23 10.5 -43t37.5 -20q24 0 40.5 10.5t27 27t16 37t8.5 40.5h9l17 -1q41 0 55 14.5t14 55.5t-19 54
t-57 14l4 37q22 0 38.5 2.5t27.5 10t16.5 22t5.5 39.5q0 29 -14 43.5t-42 19.5q5 21 8.5 42.5t3.5 43.5q0 38 -15.5 54.5t-53.5 16.5q-21 0 -34.5 -19t-21.5 -45.5t-11.5 -53.5t-6.5 -42h-39t-39 1q5 24 8.5 48t3.5 48q0 39 -22 53t-57 14q-19 0 -32.5 -19.5t-21.5 -46
t-12.5 -53.5t-6.5 -41q-15 2 -30 2h-30q-14 0 -24 -6.5t-16 -16.5t-9 -22.5t-3 -24.5q0 -24 6.5 -37.5t18 -20.5t27.5 -9t36 -2q-2 -9 -2.5 -17.5t-1.5 -17.5zM276 297q20 0 40 -0.5t40 -1.5l-5 -38h-80z" />
    <glyph glyph-name="dollar" unicode="$" horiz-adv-x="470" 
d="M89 271q-23 23 -37 53t-14 72q0 60 31.5 103t85.5 64q0 10 -0.5 20t-0.5 20q0 22 3 40.5t12 32t24.5 21t39.5 7.5q18 0 34 -5.5t27 -16.5l50 -50q19 -19 19 -50v-26t-1 -27q3 -2 8 -7l50 -50q20 -20 33 -46t13 -55q0 -22 -5 -43.5t-20 -35.5q-11 -11 -25 -15t-29 -4
q2 -1 2.5 -2t2.5 -3l44 -44q19 -19 30.5 -43.5t11.5 -57.5q0 -57 -34.5 -97t-86.5 -58q1 -11 2 -20.5t1 -20.5q0 -38 -22.5 -60t-60.5 -22t-58 22l-50 50q-12 11 -18 27.5t-6 36.5v11t1 11q-5 4 -8.5 7t-7.5 7l-50 50q-23 23 -36.5 53t-13.5 66q0 38 22 52t56 14zM103 242
q-28 0 -45.5 -13t-17.5 -43q0 -57 33 -97t84 -60q-1 -12 -1.5 -24t-0.5 -24q0 -34 18.5 -55t53.5 -21q32 0 52.5 19.5t20.5 52.5q0 12 -1.5 24t-2.5 24q52 16 87 53.5t35 94.5q0 39 -17 66t-42.5 46t-55.5 32t-55.5 24t-42.5 23t-17 29q0 19 15.5 28.5t32.5 9.5t26 -3
t13 -9.5t4.5 -16t0.5 -23.5q0 -29 16.5 -37.5t42.5 -8.5q20 0 33 7.5t20.5 19.5t10.5 28t3 33q0 23 -9 43.5t-23.5 38.5t-33.5 31.5t-39 20.5q1 20 1.5 38.5t0.5 38.5q0 32 -20.5 47t-49.5 15q-31 0 -45.5 -13.5t-19.5 -34t-4 -45t1 -45.5q-53 -18 -85 -60.5t-32 -99.5
q0 -39 13 -67.5t34.5 -50t50 -38.5t58.5 -33q3 -1 14 -7t23.5 -12.5t22.5 -12.5t10 -8q0 -6 -4.5 -10t-11.5 -6.5t-13.5 -3t-11.5 -0.5q-26 0 -41 7t-24 17.5t-13.5 23t-10.5 23t-15 17.5t-26 7zM290 334q-16 11 -19 35q-16 -5 -21 -18q9 -4 19 -8t21 -9zM233 157
q-8 5 -16 9t-16 9l8 -16q5 -1 10.5 -1.5t13.5 -0.5z" />
    <glyph glyph-name="percent" unicode="%" horiz-adv-x="929" 
d="M37 438q0 46 12 84t36 65t60 42t84 15q45 0 78.5 -13t56.5 -36l50 -50q35 -35 47 -93q14 25 29 49.5t29 49.5q8 13 17.5 27t21.5 26q13 13 29.5 21.5t37.5 8.5q32 0 56 -24l50 -50q23 -23 23 -54q0 -15 -5 -28.5t-11 -24.5q-11 -21 -22 -41.5t-23 -40.5q7 1 14.5 1.5
t15.5 0.5q43 0 75 -12.5t55 -35.5l50 -50q29 -29 42.5 -70t13.5 -90q0 -94 -51 -150t-147 -56q-42 0 -74.5 12.5t-55.5 35.5l-50 50q-21 21 -33.5 48.5t-17.5 59.5q-20 -30 -39 -60.5t-39 -61.5l-16 -25l-23 -28q-12 -14 -27 -24.5t-33 -10.5q-37 0 -59 24l-50 50
q-24 22 -24 59q0 11 9 31.5t21.5 42.5t25.5 43t21 33q-6 0 -12.5 -0.5t-13.5 -0.5q-42 0 -74 13t-55 36l-50 50q-27 27 -41 66.5t-14 85.5zM221 247q45 0 79.5 15t58 42t35.5 63.5t12 79.5q0 85 -44.5 136t-132.5 51q-92 0 -137 -54t-45 -142q0 -41 11 -76t33 -60.5
t54.5 -40t75.5 -14.5zM694 556q0 28 -20.5 48t-48.5 20q-18 0 -32.5 -7t-26 -18t-21 -25t-17.5 -28q-47 -78 -92 -156.5t-96 -154.5q-9 -13 -27 -40.5t-36.5 -58t-32.5 -58t-14 -40.5q0 -32 20.5 -52.5t52.5 -20.5q14 0 27.5 9t25.5 22.5t21.5 28t16.5 24.5
q33 51 65.5 102.5t64.5 102.5q40 63 80 125.5t75 127.5q6 11 10.5 24t4.5 25zM181 435q0 12 2 26t7 27t14.5 21.5t24.5 8.5q14 0 22.5 -8t14 -20t7.5 -25.5t2 -24.5t-2.5 -25.5t-8.5 -27t-15.5 -21t-23.5 -8.5t-22.5 8t-13.5 20t-6.5 25.5t-1.5 23.5zM711 -31q92 0 140 53
t48 143q0 42 -10.5 78.5t-32 63t-55 41.5t-78.5 15q-46 0 -81 -15.5t-58.5 -43t-35 -65t-11.5 -81.5q0 -41 11 -76t32.5 -60t54.5 -39t76 -14zM669 164q0 13 2 28t8 27.5t16.5 20.5t26.5 8q15 0 24 -8.5t14.5 -20.5t7 -26t1.5 -26q0 -13 -2 -27t-8 -25.5t-16 -19t-27 -7.5
q-15 0 -24.5 7.5t-14.5 18.5t-6.5 24.5t-1.5 25.5z" />
    <glyph glyph-name="ampersand" unicode="&#x26;" horiz-adv-x="573" 
d="M519 298q15 -15 15 -41q0 -33 -3 -66t-11 -66l49 -49q15 -12 27 -28t12 -35q0 -18 -6.5 -36t-18 -32.5t-27.5 -23.5t-36 -9q-9 0 -22 6.5t-26.5 16t-26.5 19.5t-21 18q-30 -24 -67 -39t-78 -15q-44 0 -86.5 17.5t-74.5 48.5l-50 51q-23 23 -37.5 54t-14.5 67
q0 44 20.5 84t57.5 65q-18 32 -26.5 68t-8.5 72q0 47 16.5 81.5t45 57.5t66.5 34t82 11q43 0 83.5 -11.5t67.5 -39.5l50 -50q18 -18 28.5 -43t10.5 -59q0 -24 -16.5 -42t-38.5 -25q4 -2 7.5 -5t7.5 -6zM456 160q10 36 14 73t4 74q0 29 -19.5 40t-44.5 11q-27 0 -40 -10
t-18 -26t-4.5 -36t-0.5 -40q-16 14 -37 35.5t-40 46.5t-32.5 51t-13.5 48q0 19 12.5 34t32.5 15q22 0 31.5 -9.5t17 -21.5t19.5 -21.5t39 -9.5q13 0 26 4.5t23.5 12.5t17 19.5t6.5 25.5q0 39 -15 66.5t-40.5 44.5t-57.5 24.5t-67 7.5q-42 0 -78.5 -10.5t-63.5 -31.5
t-42.5 -54t-15.5 -78q0 -38 9 -74t29 -68q-38 -29 -59.5 -63t-21.5 -84q0 -39 18 -72t47 -56.5t65 -36.5t73 -13q41 0 78 16t68 42q5 -6 18 -16.5t27.5 -21.5t28.5 -18.5t21 -7.5q17 0 31.5 8t25 21t16 29.5t5.5 32.5q0 15 -10.5 29t-25 26.5t-30 23t-26.5 18.5zM299 453
q-1 2 -5 6zM383 365q-8 5 -13.5 11.5t-10.5 13.5l-24 24h-2q-3 1 -6 1.5t-8 0.5q-14 0 -24.5 -11.5t-10.5 -27.5q0 -23 15.5 -50.5t37.5 -54.5q0 9 1 14q0 26 8.5 48.5t36.5 30.5zM174 159q0 9 6 20t11 19q17 -19 34 -37t36 -34q-5 -5 -12 -7t-14 -2q-9 0 -19.5 2.5t-19.5 8
t-15.5 13t-6.5 17.5zM242 131q-1 -1 -1 -1.5t-1 -1.5l4 1z" />
    <glyph glyph-name="quotesingle" unicode="'" horiz-adv-x="225" 
d="M106 642q41 0 65 -24l50 -50q23 -23 23 -62q0 -18 -1.5 -39.5t-6 -42.5t-12.5 -40.5t-21 -33.5q-9 -8 -20.5 -13.5t-25.5 -5.5q-17 0 -29.5 5.5t-21.5 14.5l-50 50q-12 12 -18.5 29.5t-10 36.5t-4 39t-0.5 36q0 44 18 72t65 28zM33 542q0 -20 1 -46t8 -49.5t22 -39.5
t43 -16q26 0 41 19t23 45t10.5 54.5t2.5 46.5q0 36 -21.5 56t-56.5 20q-43 0 -58 -26t-15 -64z" />
    <glyph glyph-name="parenleft" unicode="(" horiz-adv-x="371" 
d="M182 627q25 22 51.5 38.5t63.5 16.5q27 0 45 -18l50 -50q14 -14 20 -34.5t6 -38.5q0 -20 -11 -35.5t-25 -27.5q-13 -11 -28 -21t-26 -20q-17 -14 -29 -38.5t-20 -52t-11.5 -56.5t-3.5 -52q0 -48 11.5 -89.5t37.5 -76.5l7 -5q6 -5 12 -9.5t11 -9.5l50 -50q13 -13 15.5 -26
t2.5 -28q0 -14 -4.5 -30t-13.5 -29.5t-21.5 -22t-29.5 -8.5q-15 0 -35.5 9.5t-41 22.5t-38.5 27.5t-27 23.5l-50 50q-29 30 -48.5 66t-31.5 75t-17 80t-5 81q0 47 7 93.5t23 90t41.5 83t62.5 71.5zM58 289q0 -40 5 -80t16.5 -78t30.5 -73t47 -64q9 -9 26.5 -23t37 -26.5
t39 -21.5t32.5 -9q14 0 25 8t18.5 20t11.5 26t4 26q0 13 -2 25.5t-13 21.5t-22 17t-22 18q-49 45 -68.5 96.5t-19.5 115.5q0 23 3.5 52.5t12 59t21.5 55t31 40.5q11 9 25.5 19t28 22t23 25.5t9.5 29.5q0 14 -3.5 28.5t-11 26t-19 19t-27.5 7.5q-35 0 -59 -15t-50 -37
q-36 -31 -60.5 -69.5t-40 -81.5t-22.5 -88.5t-7 -91.5zM327 55q5 -6 10.5 -11.5l10.5 -10.5z" />
    <glyph glyph-name="parenright" unicode=")" horiz-adv-x="356" 
d="M267 577q37 -32 62.5 -71.5t41.5 -83t23 -90t7 -93.5q0 -40 -5 -81t-17 -80t-31.5 -75t-48.5 -66q-9 -9 -27 -23.5t-38.5 -27.5t-41 -22.5t-35.5 -9.5q-23 0 -40 17l-50 50q-15 15 -22 35.5t-7 37.5q0 29 9 42.5t31 29.5l21 16q47 42 66.5 92.5t19.5 113.5q0 18 -2 40
t-7 44.5t-12 43.5t-18 39q-8 5 -15 11t-15 12l-16 16l-34 34q-14 12 -24.5 27.5t-10.5 35.5q0 34 21 59t56 25q38 0 61 -12.5t48 -35.5zM341 289q0 46 -7 92t-22.5 88.5t-40.5 81t-61 69.5q-25 23 -46 34t-56 11q-31 0 -49 -22t-18 -52q0 -16 9.5 -29.5t23 -25.5t28 -22
t25.5 -19q18 -15 31 -40.5t21.5 -55t12 -59t3.5 -52.5q0 -65 -20 -117t-69 -97q-11 -9 -22 -16.5t-21 -16.5q-11 -9 -13 -21.5t-2 -25.5q0 -12 4 -26t11.5 -26t18.5 -20t25 -8q13 0 32.5 9t39 21.5t36.5 26.5t26 23q57 59 78.5 137t21.5 158z" />
    <glyph glyph-name="asterisk" unicode="*" horiz-adv-x="398" 
d="M31 427q0 17 9.5 28.5t21.5 18.5q-13 7 -23 18.5t-10 28.5q0 16 5 31t15 27t23.5 19t30.5 7q2 0 3.5 -0.5t3.5 -0.5q5 -2 9 -5t9 -6q1 -1 2 -1q4 28 18.5 43.5t43.5 15.5q30 0 45 -17l33 -32q2 2 4 2q8 5 16 5q25 0 43 -20l50 -50q13 -12 20 -28.5t7 -30.5q0 -17 -7 -28
t-18 -18q11 -5 18 -14.5t7 -26.5q0 -14 -4.5 -30t-13.5 -29t-21.5 -21.5t-29.5 -8.5q-11 0 -19.5 4t-16.5 9q-4 -31 -18.5 -44.5t-46.5 -13.5q-28 0 -41 13l-32 33q-13 -5 -22 -5q-10 0 -19 4.5t-17 12.5l-50 50q-13 13 -20.5 30t-7.5 30zM95 360q10 0 25.5 7t23.5 12
q0 -26 7.5 -43t38.5 -17q37 0 46 18t10 50q9 -8 20 -15.5t25 -7.5t25 8t18.5 19.5t11.5 25.5t4 26q0 21 -13.5 29t-31.5 11q19 5 32 15t13 32q0 11 -5 23.5t-13 22.5t-19 16.5t-23 6.5q-10 0 -22 -11.5t-20 -17.5q0 29 -11.5 50t-44.5 21q-32 0 -42 -22t-10 -49q-2 2 -7 6.5
t-11 8.5t-11 7t-8 3q-29 0 -46.5 -23.5t-17.5 -50.5q0 -20 17 -31.5t35 -13.5q-17 -6 -33.5 -17t-16.5 -32q0 -9 4.5 -21t12 -22t17.5 -17t20 -7z" />
    <glyph glyph-name="plus" unicode="+" horiz-adv-x="491" 
d="M175 174q-36 2 -53 19l-50 50q-19 19 -19 60q0 45 18 64.5t61 19.5q11 1 22 0.5t23 -0.5q0 11 -0.5 21.5t-0.5 21.5q0 42 19 58.5t60 16.5q21 0 36.5 -3.5t25.5 -13.5l50 -50q16 -16 17 -49q36 -3 51 -18l50 -50q18 -18 18 -64q0 -44 -17 -63t-62 -19q-10 0 -19.5 0.5
t-19.5 0.5v-12q0 -23 -3 -41.5t-11.5 -31.5t-24.5 -20t-42 -7q-20 0 -36 3.5t-27 14.5l-50 50q-13 13 -16 42zM186 235q-1 -13 -1 -26v-26q0 -38 17.5 -48.5t51.5 -10.5q29 0 43.5 9.5t20.5 25t6.5 35.5t0.5 42q13 0 25 -0.5t24 -0.5q40 0 54.5 16t14.5 56q0 32 -8.5 47
t-23 20t-34.5 4.5t-44 -0.5h-10q1 14 1 27.5v27.5q0 38 -16.5 50t-52.5 12q-32 0 -46.5 -10t-19 -26.5t-3 -37.5t1.5 -44h-49q-42 0 -59 -15.5t-17 -58.5q0 -31 11 -46t28 -19.5t39.5 -3.5t44.5 1z" />
    <glyph glyph-name="comma" unicode="," horiz-adv-x="274" 
d="M28 78q0 20 9 38.5t23.5 32.5t33.5 22t39 8q47 0 76 -29l50 -50q31 -31 31 -82q0 -23 -11.5 -50.5t-30.5 -51.5t-43.5 -40.5t-49.5 -16.5q-7 0 -16 2t-16.5 7t-13 13t-5.5 21l-41 18q-6 6 -8 13.5t-2 15.5q0 11 2.5 19.5t6.5 16.5q2 5 4.5 9.5t4.5 9.5q-23 9 -33 30
t-10 44zM85 11q-6 -16 -14 -30.5t-8 -31.5q0 -18 13.5 -24t28.5 -6q23 0 45.5 15.5t40 38t28.5 48.5t11 47q0 45 -26 73t-71 28q-18 0 -35 -7.5t-30.5 -20t-21.5 -29t-8 -34.5q0 -24 10.5 -43t36.5 -24z" />
    <glyph glyph-name="hyphen" unicode="-" horiz-adv-x="388" 
d="M387 294q11 -11 15 -28.5t4 -35.5q0 -20 -2.5 -40t-16.5 -34q-14 -16 -47 -16h-177q-36 0 -55 19l-50 50q-21 21 -21 64q0 45 16.5 65t62.5 20q15 0 29.5 -0.5t28.5 -0.5h30l58 3h30q29 0 45 -16zM262 350l-58 -3h-30q-28 0 -51.5 1.5t-40.5 -4t-26 -21t-9 -50.5
t14.5 -54t51.5 -19h177q20 0 31 6.5t16.5 17t7 25.5t1.5 31q0 25 -4.5 39t-15 21t-26 8.5t-38.5 1.5z" />
    <glyph glyph-name="period" unicode="." horiz-adv-x="276" 
d="M265 109q26 -26 26 -78q0 -53 -25.5 -85.5t-81.5 -32.5q-44 0 -70 26l-50 50q-15 14 -22 36t-7 48q0 23 6 43.5t18.5 36t31 24.5t43.5 9q54 0 81 -27zM231 81q0 95 -97 95q-45 0 -67 -30t-22 -73q0 -45 20.5 -72.5t68.5 -27.5q51 0 74 29.5t23 78.5z" />
    <glyph glyph-name="slash" unicode="/" horiz-adv-x="424" 
d="M422 572q11 -11 17 -25t6 -30q0 -21 -12 -63.5t-28 -88.5q-16 -48 -31.5 -91t-23.5 -66q-19 -54 -37 -108.5t-35 -108.5q-3 -8 -5.5 -16.5t-6.5 -17.5q-4 -10 -8.5 -20t-9.5 -19q-10 -19 -27 -33t-39 -14q-16 0 -38.5 8.5t-38.5 24.5l-50 50q-18 18 -18 40q0 18 11.5 62
t29.5 101.5t40.5 122t43.5 122.5t39 103.5t27 65.5q13 29 33 52t54 23q33 0 57 -24zM315 636q-31 0 -48.5 -21.5t-29.5 -47.5q-6 -14 -17.5 -43t-26.5 -68t-31.5 -84.5t-32.5 -92.5t-31 -92.5t-26 -84t-18 -67t-7 -41.5q0 -14 9 -25.5t22 -19.5t27.5 -13t26.5 -5h5
q18 3 31.5 15t22.5 29t15.5 35.5t11.5 33.5q18 54 36 108.5t36 108.5q5 15 14 39.5t19.5 54.5t21.5 62.5t20 61.5t14.5 52.5t5.5 35.5q0 28 -21.5 48.5t-48.5 20.5z" />
    <glyph glyph-name="zero" unicode="0" horiz-adv-x="1479" 
d="M1459 318q0 -80 -45 -126t-125 -46t-125 46t-45 126t45 126t125 46t125 -46.5t45 -125.5zM332 317q0 -60 -34.5 -103.5t-92.5 -55.5q-17 -4 -34.5 -4.5t-34.5 -0.5h-116v330h119q41 0 76 -9t61 -29t41 -51.5t15 -76.5zM397 153v330h239v-64h-154v-57h143v-63h-143v-82
h154v-64h-239zM969 153v221l-61 -144h-59l-62 144v-221h-80v330h99l74 -166l75 166h99v-330h-85zM1289 208q23 0 39 10t25.5 25.5t13.5 35.5t4 39q0 20 -4 39.5t-13.5 35t-25.5 25.5t-39 10t-39 -10t-25.5 -25.5t-13.5 -35t-4 -39.5q0 -19 4 -39t13.5 -35.5t25.5 -25.5
t39 -10zM244 319q0 29 -8.5 48.5t-23.5 31.5t-37 17t-49 5h-21v-206h21q55 0 86.5 22t31.5 82z" />
    <glyph glyph-name="one" unicode="1" horiz-adv-x="1479" 
d="M1459 318q0 -80 -45 -126t-125 -46t-125 46t-45 126t45 126t125 46t125 -46.5t45 -125.5zM332 317q0 -60 -34.5 -103.5t-92.5 -55.5q-17 -4 -34.5 -4.5t-34.5 -0.5h-116v330h119q41 0 76 -9t61 -29t41 -51.5t15 -76.5zM397 153v330h239v-64h-154v-57h143v-63h-143v-82
h154v-64h-239zM969 153v221l-61 -144h-59l-62 144v-221h-80v330h99l74 -166l75 166h99v-330h-85zM1289 208q23 0 39 10t25.5 25.5t13.5 35.5t4 39q0 20 -4 39.5t-13.5 35t-25.5 25.5t-39 10t-39 -10t-25.5 -25.5t-13.5 -35t-4 -39.5q0 -19 4 -39t13.5 -35.5t25.5 -25.5
t39 -10zM244 319q0 29 -8.5 48.5t-23.5 31.5t-37 17t-49 5h-21v-206h21q55 0 86.5 22t31.5 82z" />
    <glyph glyph-name="two" unicode="2" horiz-adv-x="1479" 
d="M1459 318q0 -80 -45 -126t-125 -46t-125 46t-45 126t45 126t125 46t125 -46.5t45 -125.5zM332 317q0 -60 -34.5 -103.5t-92.5 -55.5q-17 -4 -34.5 -4.5t-34.5 -0.5h-116v330h119q41 0 76 -9t61 -29t41 -51.5t15 -76.5zM397 153v330h239v-64h-154v-57h143v-63h-143v-82
h154v-64h-239zM969 153v221l-61 -144h-59l-62 144v-221h-80v330h99l74 -166l75 166h99v-330h-85zM1289 208q23 0 39 10t25.5 25.5t13.5 35.5t4 39q0 20 -4 39.5t-13.5 35t-25.5 25.5t-39 10t-39 -10t-25.5 -25.5t-13.5 -35t-4 -39.5q0 -19 4 -39t13.5 -35.5t25.5 -25.5
t39 -10zM244 319q0 29 -8.5 48.5t-23.5 31.5t-37 17t-49 5h-21v-206h21q55 0 86.5 22t31.5 82z" />
    <glyph glyph-name="three" unicode="3" horiz-adv-x="1479" 
d="M1459 318q0 -80 -45 -126t-125 -46t-125 46t-45 126t45 126t125 46t125 -46.5t45 -125.5zM332 317q0 -60 -34.5 -103.5t-92.5 -55.5q-17 -4 -34.5 -4.5t-34.5 -0.5h-116v330h119q41 0 76 -9t61 -29t41 -51.5t15 -76.5zM397 153v330h239v-64h-154v-57h143v-63h-143v-82
h154v-64h-239zM969 153v221l-61 -144h-59l-62 144v-221h-80v330h99l74 -166l75 166h99v-330h-85zM1289 208q23 0 39 10t25.5 25.5t13.5 35.5t4 39q0 20 -4 39.5t-13.5 35t-25.5 25.5t-39 10t-39 -10t-25.5 -25.5t-13.5 -35t-4 -39.5q0 -19 4 -39t13.5 -35.5t25.5 -25.5
t39 -10zM244 319q0 29 -8.5 48.5t-23.5 31.5t-37 17t-49 5h-21v-206h21q55 0 86.5 22t31.5 82z" />
    <glyph glyph-name="four" unicode="4" horiz-adv-x="1479" 
d="M1459 318q0 -80 -45 -126t-125 -46t-125 46t-45 126t45 126t125 46t125 -46.5t45 -125.5zM332 317q0 -60 -34.5 -103.5t-92.5 -55.5q-17 -4 -34.5 -4.5t-34.5 -0.5h-116v330h119q41 0 76 -9t61 -29t41 -51.5t15 -76.5zM397 153v330h239v-64h-154v-57h143v-63h-143v-82
h154v-64h-239zM969 153v221l-61 -144h-59l-62 144v-221h-80v330h99l74 -166l75 166h99v-330h-85zM1289 208q23 0 39 10t25.5 25.5t13.5 35.5t4 39q0 20 -4 39.5t-13.5 35t-25.5 25.5t-39 10t-39 -10t-25.5 -25.5t-13.5 -35t-4 -39.5q0 -19 4 -39t13.5 -35.5t25.5 -25.5
t39 -10zM244 319q0 29 -8.5 48.5t-23.5 31.5t-37 17t-49 5h-21v-206h21q55 0 86.5 22t31.5 82z" />
    <glyph glyph-name="five" unicode="5" horiz-adv-x="1479" 
d="M1459 318q0 -80 -45 -126t-125 -46t-125 46t-45 126t45 126t125 46t125 -46.5t45 -125.5zM332 317q0 -60 -34.5 -103.5t-92.5 -55.5q-17 -4 -34.5 -4.5t-34.5 -0.5h-116v330h119q41 0 76 -9t61 -29t41 -51.5t15 -76.5zM397 153v330h239v-64h-154v-57h143v-63h-143v-82
h154v-64h-239zM969 153v221l-61 -144h-59l-62 144v-221h-80v330h99l74 -166l75 166h99v-330h-85zM1289 208q23 0 39 10t25.5 25.5t13.5 35.5t4 39q0 20 -4 39.5t-13.5 35t-25.5 25.5t-39 10t-39 -10t-25.5 -25.5t-13.5 -35t-4 -39.5q0 -19 4 -39t13.5 -35.5t25.5 -25.5
t39 -10zM244 319q0 29 -8.5 48.5t-23.5 31.5t-37 17t-49 5h-21v-206h21q55 0 86.5 22t31.5 82z" />
    <glyph glyph-name="six" unicode="6" horiz-adv-x="1479" 
d="M1459 318q0 -80 -45 -126t-125 -46t-125 46t-45 126t45 126t125 46t125 -46.5t45 -125.5zM332 317q0 -60 -34.5 -103.5t-92.5 -55.5q-17 -4 -34.5 -4.5t-34.5 -0.5h-116v330h119q41 0 76 -9t61 -29t41 -51.5t15 -76.5zM397 153v330h239v-64h-154v-57h143v-63h-143v-82
h154v-64h-239zM969 153v221l-61 -144h-59l-62 144v-221h-80v330h99l74 -166l75 166h99v-330h-85zM1289 208q23 0 39 10t25.5 25.5t13.5 35.5t4 39q0 20 -4 39.5t-13.5 35t-25.5 25.5t-39 10t-39 -10t-25.5 -25.5t-13.5 -35t-4 -39.5q0 -19 4 -39t13.5 -35.5t25.5 -25.5
t39 -10zM244 319q0 29 -8.5 48.5t-23.5 31.5t-37 17t-49 5h-21v-206h21q55 0 86.5 22t31.5 82z" />
    <glyph glyph-name="seven" unicode="7" horiz-adv-x="1479" 
d="M1459 318q0 -80 -45 -126t-125 -46t-125 46t-45 126t45 126t125 46t125 -46.5t45 -125.5zM332 317q0 -60 -34.5 -103.5t-92.5 -55.5q-17 -4 -34.5 -4.5t-34.5 -0.5h-116v330h119q41 0 76 -9t61 -29t41 -51.5t15 -76.5zM397 153v330h239v-64h-154v-57h143v-63h-143v-82
h154v-64h-239zM969 153v221l-61 -144h-59l-62 144v-221h-80v330h99l74 -166l75 166h99v-330h-85zM1289 208q23 0 39 10t25.5 25.5t13.5 35.5t4 39q0 20 -4 39.5t-13.5 35t-25.5 25.5t-39 10t-39 -10t-25.5 -25.5t-13.5 -35t-4 -39.5q0 -19 4 -39t13.5 -35.5t25.5 -25.5
t39 -10zM244 319q0 29 -8.5 48.5t-23.5 31.5t-37 17t-49 5h-21v-206h21q55 0 86.5 22t31.5 82z" />
    <glyph glyph-name="eight" unicode="8" horiz-adv-x="1479" 
d="M1459 318q0 -80 -45 -126t-125 -46t-125 46t-45 126t45 126t125 46t125 -46.5t45 -125.5zM332 317q0 -60 -34.5 -103.5t-92.5 -55.5q-17 -4 -34.5 -4.5t-34.5 -0.5h-116v330h119q41 0 76 -9t61 -29t41 -51.5t15 -76.5zM397 153v330h239v-64h-154v-57h143v-63h-143v-82
h154v-64h-239zM969 153v221l-61 -144h-59l-62 144v-221h-80v330h99l74 -166l75 166h99v-330h-85zM1289 208q23 0 39 10t25.5 25.5t13.5 35.5t4 39q0 20 -4 39.5t-13.5 35t-25.5 25.5t-39 10t-39 -10t-25.5 -25.5t-13.5 -35t-4 -39.5q0 -19 4 -39t13.5 -35.5t25.5 -25.5
t39 -10zM244 319q0 29 -8.5 48.5t-23.5 31.5t-37 17t-49 5h-21v-206h21q55 0 86.5 22t31.5 82z" />
    <glyph glyph-name="nine" unicode="9" horiz-adv-x="1479" 
d="M1459 318q0 -80 -45 -126t-125 -46t-125 46t-45 126t45 126t125 46t125 -46.5t45 -125.5zM332 317q0 -60 -34.5 -103.5t-92.5 -55.5q-17 -4 -34.5 -4.5t-34.5 -0.5h-116v330h119q41 0 76 -9t61 -29t41 -51.5t15 -76.5zM397 153v330h239v-64h-154v-57h143v-63h-143v-82
h154v-64h-239zM969 153v221l-61 -144h-59l-62 144v-221h-80v330h99l74 -166l75 166h99v-330h-85zM1289 208q23 0 39 10t25.5 25.5t13.5 35.5t4 39q0 20 -4 39.5t-13.5 35t-25.5 25.5t-39 10t-39 -10t-25.5 -25.5t-13.5 -35t-4 -39.5q0 -19 4 -39t13.5 -35.5t25.5 -25.5
t39 -10zM244 319q0 29 -8.5 48.5t-23.5 31.5t-37 17t-49 5h-21v-206h21q55 0 86.5 22t31.5 82z" />
    <glyph glyph-name="colon" unicode=":" horiz-adv-x="297" 
d="M265 537q26 -26 26 -78q0 -53 -26 -85.5t-81 -32.5q-45 0 -70 25l-50 50q-15 15 -22 37t-7 48q0 46 25 79.5t74 33.5q54 0 81 -27zM231 509q0 95 -97 95q-22 0 -39 -8.5t-28 -22.5t-16.5 -32.5t-5.5 -39.5q0 -45 20.5 -72.5t68.5 -27.5q51 0 74 30t23 78zM265 109
q26 -26 26 -78q0 -53 -26 -85.5t-81 -32.5q-45 0 -70 25l-50 50q-15 15 -22 37t-7 48q0 46 25 79.5t74 33.5q54 0 81 -27zM231 81q0 95 -97 95q-22 0 -39 -8.5t-28 -22.5t-16.5 -32.5t-5.5 -39.5q0 -45 20.5 -72.5t68.5 -27.5q51 0 74 30t23 78z" />
    <glyph glyph-name="semicolon" unicode=";" horiz-adv-x="278" 
d="M265 537q26 -26 26 -78q0 -53 -26 -85.5t-81 -32.5q-45 0 -70 25l-50 50q-15 15 -22 37t-7 48q0 46 25 79.5t74 33.5q54 0 81 -27zM231 509q0 95 -97 95q-22 0 -39 -8.5t-28 -22.5t-16.5 -32.5t-5.5 -39.5q0 -45 20.5 -72.5t68.5 -27.5q51 0 74 30t23 78zM35 78
q0 20 9 38.5t23.5 32.5t33.5 22t39 8q47 0 76 -29l50 -50q31 -31 31 -82q0 -23 -11.5 -50.5t-30.5 -51.5t-43 -40.5t-50 -16.5q-7 0 -16 1.5t-17 6t-13.5 12t-5.5 20.5q-12 7 -21 10t-19 12q-6 6 -8 13t-2 15q0 13 4.5 25.5t10.5 23.5l3 6q-24 8 -33.5 29.5t-9.5 44.5z
M92 11q-5 -16 -13.5 -30.5t-8.5 -31.5q0 -18 13.5 -24t28.5 -6q23 0 45.5 15.5t40 38t28.5 48.5t11 47q0 45 -26 73t-71 28q-18 0 -35 -7.5t-30.5 -20t-21.5 -29t-8 -34.5q0 -23 10.5 -43t36.5 -24z" />
    <glyph glyph-name="less" unicode="&#x3c;" horiz-adv-x="506" 
d="M67 269q0 28 14.5 52.5t36 45.5t46.5 38t46 30q13 8 35.5 19.5t47 23t48.5 19.5t40 8q23 0 38 -15l50 -50q14 -14 19 -36t5 -38q0 -18 -11.5 -34t-28 -29.5t-35.5 -24.5t-34 -18q11 -5 21 -11.5t18 -14.5l50 -50q10 -10 16 -23t6 -31q0 -13 -2.5 -28t-8.5 -29
q-7 -14 -19 -24t-31 -10q-20 0 -58 9t-80 25.5t-82 38.5t-66 47l-50 50q-14 14 -22.5 29t-8.5 31zM384 99q15 0 25 8.5t15.5 20.5t8 26t2.5 26q0 30 -18 46.5t-44 27t-53.5 18t-47.5 17.5q16 10 43 23t53.5 28.5t45.5 34.5t19 41q0 12 -2.5 26t-8.5 26t-16 19.5t-25 7.5
q-14 0 -37 -8t-47.5 -19t-46.5 -22.5t-35 -19.5q-19 -12 -43 -28t-45 -36t-35.5 -43.5t-14.5 -49.5q0 -21 17.5 -42t45.5 -39.5t63 -35t69 -28t64 -18.5t48 -7z" />
    <glyph glyph-name="equal" unicode="=" horiz-adv-x="531" 
d="M517 394q11 -11 15 -28.5t4 -35.5q0 -16 -1 -30t-6 -26t-15 -20.5t-27 -12.5l30 -30q11 -11 15 -28.5t4 -35.5q0 -20 -2.5 -40t-16.5 -34q-14 -16 -47 -16h-307q-36 0 -55 19l-50 50q-21 21 -21 64q0 32 10 55.5t46 28.5l-35 35q-21 21 -21 64q0 36 13 60t53 24h80l159 3
h80q29 0 45 -16zM422 450q-80 0 -159.5 -1.5t-159.5 -1.5q-36 0 -46 -21t-10 -53q0 -35 14.5 -54t51.5 -19h307q20 0 31 6.5t16.5 17t7 25.5t1.5 31q0 29 -10 49.5t-44 20.5zM422 267q-80 0 -159.5 -1.5t-159.5 -1.5q-36 0 -46 -21t-10 -53q0 -35 14.5 -54t51.5 -19h307
q20 0 31 6.5t16.5 17t7 25.5t1.5 31q0 29 -10 49.5t-44 20.5z" />
    <glyph glyph-name="greater" unicode="&#x3e;" horiz-adv-x="532" 
d="M443 316q23 -23 37.5 -48t14.5 -49q0 -23 -18.5 -45.5t-47.5 -42.5t-65.5 -37t-71.5 -29t-65.5 -19t-48.5 -7q-19 0 -31 10.5t-18 24.5q-6 5 -14 8.5t-14 8.5q-19 19 -26.5 41t-7.5 48q0 32 20 52t48 31q12 5 25 9t25 8q-11 7 -22.5 14.5t-20.5 17.5l-50 50
q-23 21 -23 47q0 15 3 31t10.5 28.5t19 21t29.5 8.5q23 0 56.5 -10.5t70.5 -28.5t72.5 -42t62.5 -51zM128 99q19 0 48.5 7t64 18.5t69 28t62.5 35t45.5 39.5t17.5 42q0 25 -17 50.5t-44 50t-60.5 46t-67.5 37.5t-64.5 25.5t-50.5 9.5q-15 0 -25 -7.5t-16 -19.5t-8.5 -26
t-2.5 -26q0 -22 19.5 -40t45.5 -32.5t53 -26.5t43 -21q-19 -10 -47 -17.5t-54 -18t-44 -27t-18 -46.5q0 -12 2.5 -26t8 -26t15.5 -20.5t25 -8.5z" />
    <glyph glyph-name="question" unicode="?" horiz-adv-x="467" 
d="M157 289q-34 2 -60 27l-50 50q-26 26 -26 61q0 42 18 77t47 60t66.5 39t77.5 14q52 0 97 -11.5t75 -41.5l50 -50q21 -21 32.5 -51t11.5 -72q0 -34 -8 -57.5t-23 -41.5t-35.5 -33t-45.5 -32l-24 -17q-10 -9 -15.5 -18.5t-5.5 -22.5q0 -10 -1 -21t-4 -21.5t-9 -19
t-17 -12.5l29 -30q24 -22 24 -58q0 -18 -7 -36t-19.5 -31.5t-29 -22t-35.5 -8.5q-34 0 -57 23l-50 50q-13 13 -20 31t-7 38q0 28 12 51.5t38 34.5l-23 23q-18 18 -18 46q0 26 3.5 46t8.5 37zM234 469q21 0 36 -5.5t15 -30.5q0 -16 -9.5 -26.5t-24 -21t-31.5 -22.5t-31.5 -32
t-24 -50t-9.5 -75q0 -29 20.5 -43.5t47.5 -14.5q37 0 46.5 20t9.5 51q0 21 11.5 35t29 26t38 24.5t38 30t29 43t11.5 63.5q0 49 -16 81t-44 51t-65.5 26.5t-80.5 7.5q-38 0 -74 -13t-63.5 -37t-44.5 -57t-17 -73q0 -32 24 -55t55 -23q19 0 28.5 9t15 22t9 29t11 29t21.5 22
t39 9zM261 406q-12 -3 -20 -11q-2 -2 -3.5 -4.5t-3.5 -4.5q14 9 24 18q1 0 3 2zM301 57q0 34 -25 55t-57 21q-36 0 -54.5 -24t-18.5 -58q0 -33 19.5 -57.5t54.5 -24.5q17 0 31.5 7.5t25.5 20t17.5 28.5t6.5 32z" />
    <glyph glyph-name="at" unicode="@" horiz-adv-x="729" 
d="M694 487q32 -32 50.5 -78t18.5 -108q0 -22 -5 -48t-14.5 -52t-23.5 -50.5t-32 -45.5l34 -34q5 -6 8.5 -13t3.5 -16q0 -29 -17.5 -50.5t-45 -37t-62 -26t-69 -16t-66 -8t-52.5 -2.5q-79 0 -148.5 24t-117.5 73l-50 50q-38 38 -60 90.5t-22 119.5q0 78 30 144t81.5 114.5
t120 75.5t144.5 27q74 0 137 -19.5t107 -63.5zM34 259q0 -74 27 -129.5t73.5 -93t107.5 -56t130 -18.5q18 0 47.5 2t63 7.5t67.5 15t61.5 24t45 34.5t17.5 47q0 14 -10.5 23t-24.5 9q-13 0 -26 -8q-54 -29 -116 -39.5t-123 -10.5q-49 0 -90 12t-71 37t-47 63t-17 90
q0 56 20 102t55 78.5t82 50t102 17.5q34 0 67.5 -8t60.5 -25.5t44 -45t17 -66.5q0 -13 -1.5 -38.5t-7.5 -50.5t-18 -44t-33 -19q-8 0 -9 10t-1 15q0 34 7.5 66.5t7.5 66.5q0 26 -11.5 45.5t-29.5 32t-41 19t-46 6.5q-44 0 -83 -18.5t-68 -49.5t-46 -71t-17 -84
q0 -26 8 -55.5t23.5 -54t39 -41t53.5 -16.5q33 0 59 20.5t43 46.5q14 -25 38 -39.5t53 -14.5q42 0 76.5 25t59 62.5t37.5 81t13 79.5q0 69 -23.5 118t-65 80.5t-96.5 46t-118 14.5q-74 0 -140.5 -26.5t-116.5 -73t-79.5 -111t-29.5 -140.5zM408 367q0 -9 -4.5 -30.5t-12 -44
t-17 -40t-21.5 -17.5q-5 0 -8.5 4t-5.5 9.5t-3 11.5t-1 10q0 13 6 30t16 32t23 25t28 10z" />
    <glyph glyph-name="A" unicode="A" 
d="M-5 66q0 21 5 55t13.5 74t19.5 83.5t23 84.5t24 76t23 57q20 49 53.5 78t90.5 29q23 0 46 -4t45 -18l50 -50q28 -17 46 -52.5t29 -74.5q12 -39 18.5 -78.5t11.5 -67.5q5 -32 11.5 -66.5t11.5 -69.5t9 -70t4 -67q0 -22 -8 -36t-21.5 -22.5t-31.5 -11.5t-37 -3
q-35 0 -54.5 12.5t-29.5 33.5l-50 50q-7 15 -12 33h-50l-5 -32q-3 -20 -8.5 -36t-19.5 -32q-9 -9 -22.5 -14.5t-32.5 -5.5q-54 0 -79 24l-50 50q-11 12 -17 29t-6 42zM97 -19q26 0 41 11.5t22.5 29t10 39t5.5 40.5h107q6 -25 10 -48t13 -41t26 -29t49 -11q17 0 32.5 2.5
t28 9t20 19t7.5 32.5q0 26 -4 61.5t-9.5 73t-11.5 73.5t-11 63q-4 27 -11 66t-18 78t-28.5 72.5t-43.5 50.5q-19 12 -41 16t-44 4q-38 0 -63 -13.5t-42.5 -35.5t-29.5 -51t-23 -60q-6 -18 -15 -47.5t-18.5 -64t-18.5 -72t-16 -72t-11.5 -64t-4.5 -47.5q0 -48 23 -66.5
t69 -18.5zM203 247q0 7 4 29.5t10 47t13.5 44t15.5 19.5q6 0 10 -17.5t6 -39t3 -42t1 -26.5v-15h-63z" />
    <glyph glyph-name="B" unicode="B" horiz-adv-x="464" 
d="M17 418q0 47 5.5 83t23 60.5t49 37t82.5 12.5q31 0 62.5 -1t61 -6t55 -15.5t44.5 -29.5l50 -50q20 -20 31.5 -50.5t11.5 -75.5q0 -32 -15 -68.5t-43 -59.5l31 -31q22 -22 31.5 -53.5t9.5 -63.5q0 -52 -20 -90t-54 -62t-77.5 -35t-91.5 -11q-54 0 -90 11.5t-58 33.5
l-50 50q-29 29 -39 75t-10 108v231zM214 -31q45 0 87 10.5t74.5 33t52 58t19.5 86.5q0 25 -5.5 49t-18 43.5t-32.5 31.5t-48 13q21 5 37.5 20t28.5 35t18 42t6 42q0 61 -21.5 95t-57.5 50t-82 19.5t-95 3.5q-50 0 -80 -12.5t-45.5 -36t-20 -57.5t-4.5 -77v-231q0 -54 7 -95
t27.5 -68t57 -41t95.5 -14zM186 399v22t2 22q8 2 16.5 2h16.5q6 0 15.5 -1t18.5 -4t15 -8.5t6 -14.5q0 -14 -8 -23.5t-20 -15t-25.5 -8t-24.5 -2.5q-3 0 -6 0.5t-6 0.5v30zM187 231q15 0 32.5 -3.5t33 -11t25.5 -20t10 -31.5q0 -17 -10 -26t-24 -12.5t-29 -3.5
q-14 0 -24.5 1t-11.5 18z" />
    <glyph glyph-name="C" unicode="C" horiz-adv-x="437" 
d="M0 284q0 62 8 121.5t33 106t70 75t118 28.5q55 0 91.5 -13t60.5 -36l50 -50q35 -35 45.5 -89.5t10.5 -121.5q0 -19 -5.5 -32.5t-14.5 -23.5q-14 -13 -33 -18.5t-40 -6.5q14 -4 24 -14l50 -50q12 -12 16 -30t4 -40q0 -46 -15 -81.5t-42 -58.5t-64.5 -35t-82.5 -12
q-58 0 -98 15t-66 41l-50 50q-24 24 -37.5 55t-21 66.5t-9.5 74.5t-2 79zM234 -37q42 0 77.5 11t61.5 33t40.5 55.5t14.5 77.5q0 35 -12 56.5t-52 21.5q-28 0 -41.5 -7t-19 -17t-7 -22.5t-6 -22.5t-15.5 -17t-35 -7q-25 0 -38.5 16.5t-20 40t-7.5 49t-1 42.5t1.5 45.5t8 56
t20 47.5t38.5 20q18 0 24.5 -11.5t7.5 -29.5t1 -38t4.5 -38t18 -29.5t42.5 -11.5q36 0 62 15t26 56q0 57 -7 103t-28.5 78.5t-60.5 50.5t-102 18q-72 0 -115 -28.5t-66.5 -74t-30.5 -103t-7 -115.5q0 -63 6 -121t29 -102.5t67.5 -71t121.5 -26.5zM360 228q-13 4 -25 14
l-50 50q-14 14 -17.5 36t-3.5 41q-11 -11 -17 -30t-9 -40t-4 -41.5t-1 -34.5q0 -17 1 -41t7 -47q17 0 24.5 3.5t11.5 7.5l6 11l4 17q5 32 23.5 42.5t49.5 11.5z" />
    <glyph glyph-name="D" unicode="D" horiz-adv-x="487" 
d="M25 92q-2 30 -2 60.5v60.5q-2 60 -3 120.5t-1 120.5q0 37 5.5 65.5t20 48t40 29.5t65.5 10q87 0 151 -16.5t105 -58.5l50 -50q35 -35 53 -90t18 -134q0 -74 -13.5 -138t-46 -110.5t-87 -73t-136.5 -26.5q-42 0 -76.5 7.5t-57.5 30.5l-50 50q-31 32 -35 94zM194 -30
q80 0 133 26t84 71.5t43.5 107.5t12.5 133q0 83 -20 138.5t-59.5 89t-99 47.5t-138.5 14q-37 0 -61 -9t-37 -27t-18 -45t-5 -62q0 -91 2 -180.5t4 -180.5q1 -37 13.5 -61t34 -38t50 -19t61.5 -5zM191 439q67 -3 91 -38.5t24 -97.5q0 -20 -3.5 -51t-13 -59.5t-27 -49
t-45.5 -20.5q-9 0 -17 3.5t-8 14.5z" />
    <glyph glyph-name="E" unicode="E" horiz-adv-x="388" 
d="M46 572q15 15 38 19q53 9 114 12.5t115 3.5q17 0 32 -15l50 -50q16 -16 24.5 -39.5t8.5 -37.5q0 -17 -3 -36.5t-17 -32.5q-12 -13 -37 -16q-17 -2 -32.5 -3t-32.5 -2q14 -4 24 -14l50 -50q11 -11 15.5 -28t4.5 -34q0 -27 -5 -45.5t-24 -37.5q6 -4 7 -5l50 -50
q9 -10 14.5 -23.5t5.5 -31.5q0 -41 -4.5 -69t-18.5 -45t-40 -25.5t-68 -9.5q-20 -1 -39 -1h-39h-79q-44 0 -66 22l-50 50q-13 13 -18.5 32.5t-5.5 44.5v104l-1 207v103q0 28 3.5 54.5t23.5 48.5zM173 -34h47t47 1q41 1 64.5 9t36.5 24t16.5 42t3.5 64q0 33 -20 50t-52 17
q-13 0 -21.5 -6.5t-15 -15t-13 -15t-17.5 -6.5h-54l-6 89h109q14 0 22 9t12.5 21.5t6 26t1.5 23.5q0 27 -11 47.5t-42 20.5h-98l-5 62l136 11q16 2 25.5 8.5t14.5 17t6.5 23.5t1.5 26q0 9 -4.5 23t-12 27t-17.5 22.5t-21 9.5q-57 0 -114 -4t-113 -12q-20 -3 -31.5 -14.5
t-17 -28t-7 -35t-1.5 -34.5q0 -104 0.5 -207t0.5 -207q0 -43 17 -66t63 -23h63zM273 159h-23l1 -18l9 3z" />
    <glyph glyph-name="F" unicode="F" horiz-adv-x="358" 
d="M18 503q0 47 18 68t65 26q48 5 96 8t96 3q29 0 45 -16l50 -50q14 -15 18 -36.5t4 -41.5q0 -13 -2 -28.5t-8 -29t-16.5 -22.5t-27.5 -11q-27 -2 -54 -3t-53 -2l-1 -26q5 1 14 1q33 0 51 -18l50 -50q15 -16 19.5 -39t4.5 -45q0 -40 -18.5 -54.5t-54.5 -20.5
q-10 -2 -19 -3.5t-19 -3.5l-29 -4q1 -20 3.5 -40.5t2.5 -41.5q0 -29 -3.5 -50.5t-13.5 -36t-29 -22t-51 -7.5q-51 0 -69 19l-50 50q-19 19 -19 71v456zM28 47q0 -46 15.5 -63t62.5 -17q30 0 47.5 6.5t26 20t11 33.5t2.5 46q0 23 -3 46t-3 46q19 0 37.5 4.5t37.5 6.5
q32 5 48.5 17.5t16.5 47.5q0 17 -2.5 33.5t-9 29.5t-19.5 21t-34 8q-20 0 -39 -4.5t-37 -11.5l3 110l116 6q14 1 23 9.5t14 20.5t6.5 26t1.5 25q0 15 -2 30t-8 27t-17 19.5t-30 7.5q-48 0 -95.5 -3t-95.5 -8q-32 -3 -47.5 -13.5t-21 -27.5t-5 -40t0.5 -51q0 -103 -0.5 -204
t-0.5 -204z" />
    <glyph glyph-name="G" unicode="G" horiz-adv-x="475" 
d="M484 260q12 -3 19 -11.5t11 -17.5q4 -11 5.5 -23.5t1.5 -20.5q0 -9 -2 -19.5t-6.5 -20t-12.5 -16.5t-20 -9l2 -32q0 -91 -52 -139t-142 -48q-58 0 -98 15t-66 41l-50 50q-24 24 -37.5 55t-21 66.5t-9.5 74.5t-2 79q0 62 8 121.5t32.5 106t69.5 75t119 28.5q100 0 151 -51
l50 -50q51 -51 51 -149q0 -20 -5.5 -34t-15.5 -25q-2 -2 -5 -4t-5 -4q3 -4 5.5 -8t4.5 -9zM426 301q-20 0 -40.5 -1t-40.5 -1h-85q-13 0 -20.5 -5.5t-11 -14t-4 -19t-0.5 -20.5q0 -37 12 -48t47 -11q1 -6 1.5 -11.5t0.5 -10.5q0 -20 -11 -27t-30 -7q-25 0 -38.5 16.5t-20 40
t-7.5 49t-1 42.5t1.5 45.5t8 56t20 47.5t38.5 20q20 0 28.5 -7.5t10.5 -18.5t2 -24.5t4 -24.5t14.5 -18.5t34.5 -7.5q37 0 61.5 16.5t24.5 57.5q0 190 -192 190q-72 0 -115 -28.5t-66.5 -74t-30.5 -103t-7 -115.5q0 -63 6 -121t29 -102.5t67.5 -71t121.5 -26.5
q85 0 134.5 45t49.5 132q0 20 -3 41q23 0 32.5 18t9.5 38q0 8 -1.5 19t-5 21t-10.5 17t-18 7zM322 372l-7 6q3 -2 7 -6zM329 309l-38 37q-11 13 -13 32q-18 -12 -25 -32t-10 -40q8 3 17 3h69zM239 175q2 -21 6 -40q21 0 26 8z" />
    <glyph glyph-name="H" unicode="H" horiz-adv-x="473" 
d="M23 448q0 25 2.5 51t12 47t28 34.5t49.5 13.5q23 0 42.5 -5t33.5 -18l50 -50q20 -20 20 -59q0 -26 -1 -52.5t-2 -52.5q3 0 6 0.5t6 0.5q0 26 -1.5 51.5t-1.5 51.5q0 25 3.5 50t14 45.5t29 33.5t48.5 13q25 0 41 -5.5t27 -16.5l50 -50q16 -16 20 -41t4 -54v-110l-3 -221
v-110q0 -47 -24.5 -66t-69.5 -19q-42 0 -64 24l-50 50q-16 14 -22 35t-9 41q1 -6 1 -11.5v-10.5q0 -26 -2.5 -49t-12 -40.5t-27.5 -27.5t-48 -10q-23 0 -44.5 5t-35.5 19l-50 50q-9 9 -14.5 22.5t-5.5 33.5v192v38l1 76v38v16l-1 32v15zM33 41q0 -22 7 -35.5t19 -21
t28.5 -10.5t35.5 -3q29 0 45 10t23.5 26t9.5 37.5t2 43.5q0 28 -3.5 55t-3.5 55l78 2q0 -20 -2 -41t-2 -41q0 -24 1.5 -50t10 -48t26 -36t49.5 -14q40 0 62 16t22 59v110l3 221v110q0 24 -2.5 43.5t-10.5 33.5t-24.5 22t-44.5 8t-45 -12.5t-26 -31.5t-11.5 -42.5t-2.5 -45.5
v-28l3 -57v-28q-21 -1 -41.5 -1.5t-41.5 -0.5q0 42 2 83t2 83q0 43 -24 57.5t-62 14.5q-37 0 -54.5 -22t-23.5 -53.5t-4.5 -66t1.5 -59.5q0 -38 -0.5 -75t-0.5 -75v-192zM256 138l2 -28t3 -28q-1 9 -1 18.5v17.5v10t1 10h-5z" />
    <glyph glyph-name="I" unicode="I" horiz-adv-x="314" 
d="M332 539q13 -13 19 -37.5t6 -41.5q0 -21 -5 -41t-19 -34q-15 -17 -41 -18q6 -75 6 -150q0 -47 -3 -95l44 -44q22 -22 22 -65q0 -48 -26 -74.5t-74 -26.5q-22 0 -43 1t-43 2q-31 2 -57.5 8t-43.5 23l-50 50q-25 23 -25 75q0 37 15 56.5t53 21.5q-1 17 -1 34.5v34.5
q0 40 1 79t2 79q-2 1 -4 3l-50 50q-20 20 -20 66q0 13 2.5 30.5t8.5 33t17 26t29 10.5l203 5q16 0 27 -11zM52 585q-15 0 -24 -10t-14.5 -24.5t-7 -29.5t-1.5 -26q0 -42 16 -58.5t58 -16.5q0 -51 -1.5 -101t-1.5 -101v-39.5t2 -39.5q-38 0 -53.5 -13.5t-15.5 -54.5
q0 -30 8.5 -48.5t24.5 -28.5t37.5 -14t46.5 -5q21 -1 42.5 -2t42.5 -1q44 0 67 24t23 67q0 34 -16 54.5t-52 20.5q2 32 3.5 64.5t1.5 64.5q0 40 -1.5 79.5t-5.5 79.5q38 0 52 24.5t14 59.5q0 9 -2 22.5t-7 26.5t-13 22t-20 9z" />
    <glyph glyph-name="J" unicode="J" horiz-adv-x="358" 
d="M83 187q20 0 30 -11t15 -22l18 -19q2 0 2.5 -0.5t1.5 -0.5l4 9q2 5 2.5 11t1.5 11v25q0 75 -4.5 149.5t-4.5 149.5q0 50 19.5 82t74.5 32q23 0 43 -5t34 -18l50 -50q9 -10 14.5 -24.5t5.5 -34.5q0 -96 -2 -190t-2 -190q0 -38 -13.5 -73.5t-38 -63t-58 -44t-73.5 -16.5
q-32 0 -60.5 12t-50.5 33l-50 50q-20 20 -31 46t-11 57q0 18 6 35t16.5 30.5t26 21.5t34.5 8zM10 92q0 -30 11.5 -55t31 -43.5t45.5 -29t55 -10.5q38 0 69.5 15.5t54.5 42t36 60t13 69.5q0 96 2 190t2 190q0 43 -24.5 57.5t-62.5 14.5q-25 0 -41.5 -8t-26 -21.5t-13 -32.5
t-3.5 -42q0 -71 4.5 -141t4.5 -141v-33.5t-4 -33.5q-2 -10 -6 -14t-15 -4q-10 0 -15 8.5t-9.5 19t-12 19t-23.5 8.5q-17 0 -30.5 -7.5t-23 -19.5t-14.5 -27t-5 -31zM140 133l-4 3v1q3 -4 4 -4zM150 134v-1h-1h2z" />
    <glyph glyph-name="K" unicode="K" horiz-adv-x="484" 
d="M18 512q0 20 6 35t17 26q28 26 71 26q24 0 40.5 -6t27.5 -17l50 -50q15 -17 22 -43q8 19 16 37.5t18 37.5q5 8 9 13.5t9 10.5q11 12 26 16t35 4q17 0 37 -8.5t35 -23.5l50 -50q11 -11 17 -23.5t6 -27.5l-2 -14l-3 -11q-9 -29 -22 -62.5t-29.5 -66t-37.5 -61.5t-47 -50
q5 -9 11 -19t14 -21q5 -2 11 -4q20 -5 33.5 -10t21.5 -13l50 -50q11 -11 14.5 -26.5t3.5 -40.5q0 -53 -25 -80.5t-79 -27.5q-35 0 -55.5 9.5t-40.5 37.5l-19 18q-11 7 -23.5 22t-25.5 35q1 -11 1.5 -21t0.5 -21q0 -24 -7.5 -39t-21 -23.5t-32 -11t-39.5 -2.5q-49 0 -71 23
l-50 50q-23 22 -23 72v451zM112 -24q18 0 34.5 2t29 9t19.5 20t7 35q0 33 -5 66t-7 66q9 -16 24 -44t32.5 -57.5t35.5 -53.5t32 -33t28.5 -11.5t31.5 -2.5q49 0 71.5 25t22.5 73q0 21 -2.5 34.5t-10 22.5t-20 14.5t-32.5 8.5q-14 2 -28.5 14.5t-27.5 29t-24 34t-17 29.5
q27 19 48.5 47.5t38.5 61t30 67t22 64.5q2 5 3.5 10.5t1.5 11.5q0 15 -8 28.5t-20.5 23t-27.5 15.5t-29 6q-26 0 -42 -7.5t-28 -31.5t-22 -48.5t-21.5 -48.5t-26 -45.5t-35.5 -39.5q4 21 6.5 42.5t2.5 43.5q0 25 -2 49t-10 42.5t-25.5 29.5t-49.5 11q-36 0 -60 -19.5
t-24 -57.5v-451q0 -45 19.5 -65t64.5 -20z" />
    <glyph glyph-name="L" unicode="L" horiz-adv-x="358" 
d="M371 99q9 -9 14.5 -21t8.5 -25.5t4.5 -27.5t1.5 -25q0 -58 -35 -73q-8 -4 -17 -5.5t-19 -2.5q-9 -1 -20 -1h-22q-23 0 -46.5 -1t-46.5 -1h-46q-29 0 -45.5 10.5t-24.5 29.5l-50 50q-7 16 -9 37q-1 10 -1 20v21v98v196v98q0 13 0.5 30.5t4 34.5t10.5 31.5t20 21.5
q8 5 16 6.5t16 3.5q8 1 16 1h16q49 0 68 -19l50 -50q11 -11 15 -29.5t4 -44.5q0 -66 0.5 -130t0.5 -130v-20t-1 -22q18 3 35 3q11 0 18.5 -4t13.5 -10zM144 -24q23 0 46.5 1t46.5 1t41.5 0.5t32.5 7t21.5 21.5t7.5 43q0 12 -2 29.5t-7.5 34t-15.5 28t-26 11.5q-24 0 -54 -7
t-55 -11q5 11 8 26t4.5 31t2 32t0.5 28v65l-1 130v65q0 24 -3 39.5t-11.5 25.5t-23.5 14t-39 4q-14 0 -30 -1t-29 -9q-14 -8 -20.5 -27t-8.5 -41.5t-1.5 -44.5t0.5 -35v-353q0 -21 1 -40.5t8 -34.5t21 -24t40 -9h46z" />
    <glyph glyph-name="M" unicode="M" horiz-adv-x="674" 
d="M36 422q2 13 3 27.5t3 29.5q5 31 15 59q5 12 11.5 22.5t15.5 18.5q25 27 68 27q24 0 39.5 -3t29.5 -17l50 -50q13 -13 25 -35.5t22.5 -48t19 -50t14.5 -41.5q2 -6 2 -7q5 24 12 51.5t15.5 55t19 53t23.5 44.5q16 23 36 35t49 12q28 0 46.5 -4.5t32.5 -18.5l50 -50
q17 -17 27 -49q8 -21 14 -58t10.5 -82.5t8 -95.5t5.5 -96.5t3 -85.5t1 -64q0 -51 -23.5 -69.5t-72.5 -18.5q-21 0 -35.5 5.5t-25.5 15.5l-50 50q-11 13 -15.5 25.5t-8.5 28.5q-13 -38 -26.5 -69.5t-27.5 -37.5q-14 -7 -32 -7q-14 0 -24.5 5.5t-20.5 15.5l-42 42
q-11 8 -25 34.5t-28 60.5q1 -17 1 -33.5v-33.5q0 -33 -4.5 -54.5t-17.5 -33.5q-21 -22 -84 -22q-38 0 -56 18l-50 50q-13 13 -17 32.5t-4 42.5q0 94 5 187t13 187zM28 48q0 -37 12 -60t55 -23q31 0 49.5 4.5t29 15.5t14 30.5t3.5 49.5q0 56 -2 110.5t-3 110.5
q5 -13 13.5 -38t19 -55t23 -62t24.5 -60t23 -48.5t20 -27.5q14 -11 31 -11q6 0 14.5 1.5t13.5 4.5q8 4 18.5 25t21 51t21.5 64.5t20.5 67t16.5 59t11 38.5l5 -191q1 -23 2 -46.5t8.5 -42t23 -30.5t45.5 -12q44 0 65 15.5t21 62.5q0 24 -1 63.5t-3.5 86t-5.5 96.5t-7.5 95
t-10.5 81.5t-13 56.5q-13 40 -34.5 52.5t-62.5 12.5q-49 0 -77 -43q-14 -21 -25 -49t-19.5 -57.5t-15.5 -59t-12 -54.5q-4 -20 -7.5 -40.5t-10.5 -40.5q-12 35 -24.5 75.5t-26 81t-28 79t-32.5 69.5q-15 27 -32 33.5t-47 6.5q-34 0 -54.5 -17.5t-31 -44t-14.5 -57t-6 -56.5
q-8 -94 -13 -186.5t-5 -186.5z" />
    <glyph glyph-name="N" unicode="N" horiz-adv-x="510" 
d="M20 35q-5 41 -5.5 82t-0.5 82q0 68 2 135.5t6 135.5q2 23 7 46.5t15.5 42t28 30t45.5 11.5q49 0 82 -36l45 -45q2 -2 3 -2.5t2 -2.5q14 -15 29 -46.5t29 -68.5q-1 27 -1.5 54t-0.5 54q0 41 20.5 67.5t63.5 26.5q21 0 41.5 -7.5t34.5 -21.5l50 -50q24 -24 24 -59
q0 -57 1 -113.5t1 -113.5q0 -62 -1 -124t-12 -123q-4 -22 -9.5 -36.5t-15 -22.5t-24.5 -11.5t-38 -3.5q-20 0 -37 9.5t-32 24.5l-50 50q-8 8 -14.5 16.5t-13.5 16.5q-9 14 -17.5 27.5t-16.5 27.5q-2 5 -5 10.5t-6 10.5q1 -29 1 -56.5v-56.5q0 -85 -84 -85q-23 0 -42 5
t-32 18l-50 50q-9 9 -15 21.5t-8 30.5zM117 -30q74 0 74 75q0 110 -3 221q11 -33 25.5 -65t31.5 -62q11 -19 25.5 -47t33 -54t41 -44.5t47.5 -18.5q21 0 34 2.5t21.5 10t13.5 20.5t8 33q10 61 11.5 123.5t1.5 123.5v28.5t-1 28.5l-1 112v56q0 19 -7.5 33.5t-20 24.5t-29 15
t-33.5 5q-39 0 -56.5 -23.5t-17.5 -60.5q0 -59 2 -117.5t2 -117.5q-14 24 -30.5 66t-33 85.5t-33 80.5t-30.5 53t-34 24.5t-41 8.5q-33 0 -50.5 -18t-25.5 -45t-9.5 -57t-2.5 -54l-4 -108t-2 -109q0 -40 0.5 -81t5.5 -82q5 -38 28 -52t59 -14zM299 342q3 -7 5.5 -13t5.5 -13
z" />
    <glyph glyph-name="O" unicode="O" horiz-adv-x="507" 
d="M10 277q0 73 9 134.5t36 106.5t77.5 70.5t133.5 25.5q55 0 93.5 -15t64.5 -41l50 -50q23 -22 37 -52t22 -63.5t11 -70.5t3 -74q0 -70 -8 -132t-34 -108t-74.5 -72.5t-130.5 -26.5q-63 0 -105 15t-69 42l-50 50q-22 22 -35 50t-20 61.5t-9 71.5t-2 78zM250 -31
q80 0 127 26t71.5 70.5t31.5 104.5t7 128q0 59 -8 114.5t-32 98t-67.5 68t-113.5 25.5q-81 0 -129.5 -24.5t-74.5 -68t-34 -103.5t-8 -131q0 -67 7 -123.5t31 -97.5t69.5 -64t122.5 -23zM188 270q0 16 1 43.5t7 54.5t19 46.5t37 19.5q27 0 41.5 -22t21 -51.5t7 -60
t0.5 -48.5t-2 -39t-9 -39t-21 -30t-38 -12q-25 0 -38 12.5t-19 31.5t-6.5 40.5t-0.5 39.5v14z" />
    <glyph glyph-name="P" unicode="P" horiz-adv-x="446" 
d="M47 566q15 24 29.5 28.5t41.5 4.5l45 2h22q71 0 122.5 -10t83.5 -42l50 -50q25 -25 37.5 -65.5t12.5 -103.5q0 -61 -9.5 -109t-33.5 -80t-66.5 -49t-108.5 -17l-22 1q2 -17 4 -32.5t2 -32.5q0 -25 -2.5 -44.5t-11 -32.5t-25 -19.5t-44.5 -6.5q-23 0 -46 5.5t-39 21.5
l-50 50q-21 21 -21 56v81l-1 163v82q0 21 1 47.5t4 53.5t9 53t16 45zM28 41q0 -22 8 -36t21.5 -22.5t31 -11.5t35.5 -3q26 0 41 6t22 18t8.5 29.5t1.5 39.5q0 19 -3 37.5t-3 38.5q8 -1 16 -1.5t16 -0.5q65 0 105.5 16.5t63.5 47.5t31 77t8 104q0 74 -18 116.5t-52.5 63.5
t-84 26t-113.5 5l-45 -2h-22q-20 0 -33.5 -18t-21 -46.5t-10.5 -63t-3.5 -67t0 -59t0.5 -39.5v-255zM199 267q0 25 0.5 49.5t0.5 48.5q0 19 -0.5 37.5t-2.5 36.5q8 1 15.5 1h15.5q33 0 48.5 -23t15.5 -53q0 -49 -22 -72t-71 -25zM228 430h-20h20z" />
    <glyph glyph-name="Q" unicode="Q" horiz-adv-x="523" 
d="M470 509q27 -27 42.5 -63.5t23 -77t9.5 -83.5t2 -83q0 -39 -10 -77t-29 -73l29 -30q9 -9 11.5 -23.5t2.5 -36.5q0 -25 -13 -39t-36 -21q-10 -2 -20 -3l-20 -2h-35q-54 0 -99.5 3t-82 10.5t-65.5 21t-51 34.5l-50 50q-36 36 -52.5 98.5t-16.5 162.5q0 73 9 134.5t36 106.5
t77.5 70.5t133.5 25.5q54 0 91 -14.5t63 -40.5zM430 76q27 38 42 83t15 93q0 62 -5.5 124.5t-27.5 113t-66 82.5t-122 32q-81 0 -129.5 -24.5t-74.5 -68t-34 -103.5t-8 -131q0 -98 16.5 -160t54.5 -97.5t101 -49t156 -13.5h51.5t51.5 5q18 4 29 18t11 32q0 21 -2.5 34
t-9 19.5t-18.5 8.5t-31 2zM188 270q0 16 1 43.5t7 54.5t19 46.5t37 19.5q27 0 41.5 -22t21 -51.5t7 -60t0.5 -48.5t-2 -39t-9 -39t-21 -30t-38 -12q-25 0 -38 12.5t-19 31.5t-6.5 40.5t-0.5 39.5v14z" />
    <glyph glyph-name="R" unicode="R" horiz-adv-x="464" 
d="M257 27v-16q0 -25 -2.5 -44.5t-11 -32.5t-25 -19.5t-44.5 -6.5q-23 0 -46 5.5t-39 21.5l-50 50q-21 21 -21 56v255q0 20 0.5 39t0.5 39v24.5t1 31.5q0 20 3 49t12 55.5t25.5 45.5t44.5 19h20l40 2h20q71 0 122.5 -10t83.5 -42l50 -50q25 -25 37.5 -65.5t12.5 -103.5
q0 -52 -15 -100t-53 -86q20 -6 31 -16l50 -50q16 -17 16 -58q0 -53 -25 -80.5t-79 -27.5q-35 0 -55 9.5t-41 36.5l-19 19q-10 6 -21.5 19.5t-22.5 30.5zM28 41q0 -22 8 -36t21.5 -22.5t31 -11.5t35.5 -3q26 0 41 6t22 18t8.5 29.5t1.5 39.5q0 23 -3 46t-3 46h3
q8 -15 21.5 -39.5t29.5 -50t32 -47.5t29 -30q14 -9 29 -11.5t31 -2.5q49 0 71.5 25t22.5 73q0 19 -3.5 31t-11 19.5t-19 12t-28.5 7.5q-18 3 -32.5 15t-26.5 25q26 16 43.5 38.5t28 49t15.5 55.5t5 57q0 74 -17.5 116t-51.5 63t-83.5 26.5t-113.5 5.5l-40 -2h-20
q-31 0 -46.5 -26.5t-22 -62t-7 -71.5t-0.5 -56q0 -19 -0.5 -38t-0.5 -39v-255zM199 283v22l1 44q0 23 -0.5 45t-2.5 45q8 1 15.5 1h15.5q33 0 48.5 -23t15.5 -53q0 -25 -6 -40.5t-17.5 -24t-29 -12t-40.5 -4.5zM228 430h-20h20z" />
    <glyph glyph-name="S" unicode="S" horiz-adv-x="462" 
d="M69 270q-26 26 -42 60t-16 82q0 47 18 85t48.5 65t71 42t85.5 15q42 0 85.5 -17t74.5 -49l50 -50q23 -22 36 -50t13 -62q0 -25 -5.5 -49t-22.5 -40q-14 -14 -30.5 -18t-35.5 -4q4 -3 10 -9l50 -50q21 -21 34.5 -49.5t13.5 -66.5q0 -46 -20 -81.5t-52 -60t-73.5 -37
t-83.5 -12.5q-46 0 -90.5 19t-77.5 52l-50 50q-27 26 -43 60.5t-16 74.5q0 38 23 56.5t60 18.5q7 0 10 -1zM84 235q-32 0 -52.5 -15t-20.5 -50q0 -42 19 -78t49.5 -62t69.5 -41t79 -15t79.5 11.5t70.5 34.5t50 57t19 78q0 45 -19.5 76.5t-49 53t-64 36.5t-64 28.5t-49 27
t-19.5 32.5q0 22 18 33t37 11q20 0 30 -3.5t15 -11t5.5 -18.5t0.5 -27q0 -34 19.5 -43.5t48.5 -9.5q23 0 38 8.5t23.5 22.5t12 32t3.5 38q0 38 -18 69t-47 53t-64 34t-70 12q-43 0 -81.5 -14t-68 -39.5t-46.5 -62t-17 -81.5t15 -77.5t39.5 -57.5t57 -44.5t67.5 -37.5
q3 -1 16.5 -8t27.5 -14.5t25.5 -14.5t11.5 -9q0 -7 -5.5 -12t-13 -7t-15.5 -3t-13 -1q-30 0 -47.5 8t-27.5 20t-16 26.5t-12.5 26.5t-17 20t-29.5 8zM294 348q-15 13 -16 44q-14 -2 -23.5 -9.5t-11.5 -18.5q14 -7 29.5 -13t32.5 -14zM245 137q-29 14 -61 33l9 -15l7 -15
q7 -2 15 -3t19 -1q7 0 11 1zM265 149q-5 3 -11.5 6.5t-13.5 7.5z" />
    <glyph glyph-name="T" unicode="T" horiz-adv-x="393" 
d="M112 361q-32 3 -47 18l-50 50q-13 13 -16.5 33t-3.5 46q0 23 3 40t11 28t23.5 16.5t40.5 5.5q48 0 96 1.5t96 1.5h74q22 0 34.5 -10t17.5 -25l18 -18q24 -7 32 -32q5 -11 6 -29t1 -30q0 -33 -7 -52t-21.5 -28.5t-35.5 -12t-48 -2.5v-19q0 -86 5 -171t5 -171
q0 -26 -6.5 -43t-19 -26.5t-31 -13t-42.5 -3.5q-22 0 -42.5 5t-34.5 19l-50 50q-19 19 -19 54v8q4 78 5.5 155t5.5 155zM126 422q-7 -93 -8.5 -185t-6.5 -186v-8q0 -40 25 -54t61 -14q45 0 67 14t22 62q0 86 -5 171t-5 171v29h39q44 0 58.5 22.5t14.5 62.5q0 14 -1 29
t-5.5 27t-14.5 20t-28 8h-74h-48l-96 -2q-12 -1 -24 -1h-24q-22 0 -35.5 -4.5t-21 -14t-9.5 -24.5t-2 -37q0 -39 8 -57t23 -24.5t37.5 -5.5t52.5 1z" />
    <glyph glyph-name="U" unicode="U" horiz-adv-x="477" 
d="M23 197l-4 134t-2 135q0 28 2.5 52.5t12 42.5t29 28t52.5 10q45 0 66 -23l50 -50q14 -13 19.5 -32.5t5.5 -44.5v-280q13 4 20 23t10.5 42.5t4.5 45.5t1 32q0 20 -0.5 40.5t-0.5 40.5l-2 55q0 20 -0.5 40.5t-0.5 40.5q0 36 25 53t58 17q17 0 29.5 -5.5t22.5 -15.5l50 -50
q14 -14 21.5 -33.5t11.5 -41.5t4.5 -43.5t0.5 -39.5v-85.5t-2 -85.5q-2 -64 -10 -117t-31 -91.5t-66.5 -60t-116.5 -21.5q-51 0 -87.5 13.5t-60.5 37.5l-50 50q-32 32 -46 79.5t-16 107.5zM233 -31q71 0 112.5 21.5t63.5 59t29.5 89t8.5 110.5q2 43 2 85.5v85.5
q0 21 -1.5 50t-9 55.5t-23.5 45t-46 18.5q-29 0 -51 -14t-22 -46q0 -20 0.5 -40.5t0.5 -40.5l2 -55q0 -20 0.5 -40.5t0.5 -40.5q0 -17 -1 -44t-7 -52.5t-19.5 -44t-38.5 -18.5q-12 0 -19.5 6t-12 15t-6.5 19.5t-2 19.5v286q0 42 -18 66t-63 24q-31 0 -48.5 -10t-26 -26.5
t-10 -39t-1.5 -47.5q0 -68 2 -134.5t4 -134.5q2 -51 12 -93t33.5 -72t61 -46.5t93.5 -16.5z" />
    <glyph glyph-name="V" unicode="V" horiz-adv-x="483" 
d="M134 13q-5 9 -15.5 46.5t-23.5 90t-27 113t-25 114t-18.5 93.5t-7.5 51q0 26 5.5 42t16.5 24.5t29 11.5t42 3t39 -3.5t28 -16.5l50 -50q9 -7 20 -27q6 -11 13 -47.5t14 -81.5q8 42 16.5 83t19.5 83q5 18 10.5 30t14 18.5t21.5 9t32 2.5q17 0 38.5 -7.5t36.5 -22.5l50 -50
q19 -19 19 -43q0 -12 -8 -51.5t-20.5 -92.5t-28 -112.5t-30 -112.5t-26 -92t-17.5 -50t-11.5 -19.5t-12.5 -14.5q-16 -16 -35 -20.5t-48 -4.5q-30 0 -51 4t-38 21l-50 50q-5 5 -10.5 12.5t-11.5 16.5zM245 -31q37 0 59.5 9.5t38.5 44.5q6 12 17.5 50.5t26 91t29.5 111.5
t27.5 111.5t20.5 91t8 50.5q0 15 -8.5 26.5t-21 19.5t-27 12.5t-27.5 4.5q-17 0 -28.5 -2t-19 -7.5t-12 -16t-8.5 -27.5q-20 -84 -36.5 -167.5t-36.5 -167.5q-3 15 -7.5 44t-9.5 65t-10.5 74.5t-11 72t-11 58t-9.5 32.5q-15 28 -31 35t-47 7q-22 0 -37.5 -2t-25.5 -9
t-15 -21.5t-5 -38.5q0 -11 7.5 -50.5t18.5 -92.5t25 -112.5t26.5 -111.5t23 -89.5t15.5 -46.5q9 -17 19.5 -27t22.5 -15t26.5 -6t33.5 -1z" />
    <glyph glyph-name="W" unicode="W" horiz-adv-x="603" 
d="M5 481q0 28 3 56.5t23 51.5q9 8 21 13t29 5q23 0 41.5 -6.5t33.5 -26.5l32 -32q9 -6 18 -18q6 -8 10.5 -31t8.5 -52q11 32 20.5 57.5t17.5 30.5q11 8 19.5 10.5t21.5 2.5q12 0 20.5 -2t19.5 -10l50 -50q6 -5 13 -17.5t14 -29.5q1 17 2 35t3 35q3 22 7.5 41t14 32.5
t26 21.5t41.5 8q43 0 62 -19l50 -50q20 -20 20 -66q0 -115 -17 -227t-36 -224q-2 -9 -3.5 -18.5t-3.5 -17.5q-8 -32 -26 -50.5t-54 -18.5q-47 0 -83 27l-6 6l-44 44q-13 10 -25.5 40.5t-23.5 65.5q-3 -9 -5.5 -18t-4.5 -18l-12 -38t-12.5 -35.5t-13 -29t-13.5 -17.5
q-17 -14 -34 -20.5t-40 -6.5q-38 0 -61 23l-50 50q-17 19 -29.5 55.5t-21 83t-13 98t-7 100t-3 89.5t-0.5 67zM140 -25q22 0 36.5 5.5t31.5 19.5q11 8 23 41.5t23.5 73.5t21.5 77.5t15 54.5q4 -11 10 -32.5t13 -47t15.5 -52.5t17.5 -50.5t17 -41t16 -23.5q17 -14 36.5 -19.5
t40.5 -5.5q23 0 37 8t22 21.5t11.5 31t6.5 36.5q19 112 36 224t17 225q0 40 -15.5 57.5t-56.5 17.5q-23 0 -37.5 -7t-23 -20t-12.5 -30t-6 -37q-3 -26 -4 -57t-1.5 -62.5t-0.5 -63t-1 -58.5l-9 33t-14 49.5t-17 57t-18 55t-17.5 43.5t-15.5 23q-8 6 -15.5 8t-18.5 2t-19 -2
t-16 -9q-5 -4 -12.5 -22.5t-16.5 -45t-18.5 -57t-18 -59t-14.5 -51t-9 -32.5q0 12 -1 38t-2.5 58.5t-4.5 67.5t-6.5 66t-8 54t-9.5 30q-12 18 -29.5 23.5t-37.5 5.5q-24 0 -37.5 -11t-20 -28.5t-7.5 -38t-1 -38.5q0 -48 1.5 -105t6.5 -115t13.5 -113.5t21.5 -100.5
q10 -32 28.5 -52t53.5 -20z" />
    <glyph glyph-name="X" unicode="X" horiz-adv-x="493" 
d="M58 173q22 29 43 56.5t35 47.5q-13 20 -34 51.5t-42 66.5q-23 35 -40.5 70.5t-17.5 58.5q0 35 24.5 56.5t59.5 21.5q19 0 35.5 -9t30.5 -23l50 -50q11 -11 20.5 -23.5t17.5 -25.5l15 -27q8 15 14.5 30t14.5 30q5 8 8.5 16t7.5 16q8 14 16.5 25t18.5 19t22.5 12.5
t30.5 4.5q41 0 63 -24l50 -50q22 -20 22 -57q0 -22 -18 -57t-41 -70q-21 -33 -42.5 -63.5t-35.5 -49.5q9 -17 19 -37t22 -40q3 -6 7 -12q11 -5 19.5 -10.5t15.5 -13.5l50 -50q24 -22 24 -63q0 -45 -21 -67q-22 -21 -65 -21q-32 0 -54 5.5t-41 25.5l-50 50q-10 9 -20 25
q-13 20 -24 42q-8 -16 -15.5 -33t-17.5 -33q-8 -14 -17 -27t-20 -24q-12 -13 -26.5 -20.5t-31.5 -7.5q-46 0 -68 23l-50 50q-22 22 -22 65q0 26 18 57.5t40 62.5zM10 53q0 -41 20 -59.5t60 -18.5q27 0 48 21.5t38.5 51.5t31 61.5t24.5 51.5q19 -34 33 -70t35 -68t45 -41.5
t62 -9.5q40 0 58 18t18 60q0 58 -54 78q-16 6 -31.5 24.5t-28.5 41t-24.5 45t-20.5 37.5q12 18 35.5 50t46.5 68t40 69.5t17 52.5q0 34 -21 52.5t-54 18.5q-21 0 -35.5 -7.5t-25 -20t-18.5 -28t-16 -32.5q-13 -26 -25 -51.5t-26 -50.5q-12 21 -27 54t-34 64.5t-42.5 54
t-52.5 22.5q-30 0 -52 -18t-22 -50q0 -20 17 -53.5t39.5 -70t45 -70t34.5 -53.5q-12 -20 -35.5 -49t-46 -60.5t-39.5 -61.5t-17 -53z" />
    <glyph glyph-name="Y" unicode="Y" horiz-adv-x="452" 
d="M33 263q-8 17 -12.5 36.5t-6.5 41.5q-2 21 -2 44.5v47.5v14l-1 28q-1 4 -1 14q0 26 3.5 47t14 35.5t28.5 22.5t46 8q48 0 72 -25l50 -50q25 -25 25 -71q0 -25 -2.5 -49t-4.5 -49q15 10 18 25.5t3 32.5q0 27 -3.5 54t-3.5 54q0 17 5.5 29t13.5 21q17 16 40.5 22t44.5 6
q20 0 37.5 -5.5t29.5 -17.5l50 -50q19 -19 19 -51q0 -63 -4.5 -125.5t-4.5 -125.5q0 -11 0.5 -22t0.5 -22l2 -29q0 -11 0.5 -22t0.5 -22q0 -57 -16.5 -96t-46.5 -63.5t-73 -35t-97 -10.5q-19 0 -40.5 4t-43 12t-41.5 19.5t-36 27.5l-50 50q-17 17 -27.5 39t-10.5 48
q0 16 8 30.5t20.5 26.5t28 19t30.5 8l-39 39q-16 16 -24 35zM184 197q26 0 49.5 10.5t42.5 27.5q1 -5 1 -10v-10q0 -14 -1.5 -32.5t-6.5 -34.5t-16 -27t-31 -11q-30 0 -48 11t-30 23.5t-21.5 23.5t-22.5 11t-27.5 -6t-26.5 -16.5t-19.5 -24t-7.5 -27.5q0 -34 18.5 -60
t47 -44t61.5 -27t62 -9q51 0 92 10t70 32.5t45 60t16 92.5q0 11 -0.5 22t-0.5 22l-2 29q0 11 -0.5 22t-0.5 22q0 63 4.5 125.5t4.5 125.5q0 35 -22 49.5t-54 14.5q-16 0 -33 -3.5t-30.5 -11t-22 -20.5t-8.5 -33q0 -27 3.5 -54t3.5 -54q0 -14 -2 -27.5t-8 -23.5t-16.5 -16
t-27.5 -6t-27.5 4.5t-10.5 24.5q0 34 4 67t4 67q0 44 -22.5 65t-64.5 21q-27 0 -43 -7.5t-24.5 -21t-11.5 -32.5t-3 -42q0 -14 1 -28t1 -28q0 -48 2.5 -91t17.5 -75.5t48 -51t94 -18.5zM154 149l5 -5zM254 139q-5 -1 -10 -1.5t-10 -0.5q-44 0 -77 11l13 -13q10 -7 22.5 -11
t29.5 -4q21 0 32 19z" />
    <glyph glyph-name="Z" unicode="Z" horiz-adv-x="448" 
d="M5 69q0 34 9.5 63.5t27.5 57.5q28 46 61 88.5t69 83.5q-7 -1 -14 -1h-15q-35 0 -54 19l-50 50q-14 14 -19 35.5t-5 44.5q0 19 3 36.5t10.5 30.5t21.5 20.5t36 7.5q49 0 97.5 -1t96.5 -3q19 -1 37 -2t36 -3q36 -5 57 -26l50 -50q24 -24 24 -64q0 -29 -4.5 -63t-18.5 -61
q-20 -42 -51 -88.5t-66 -91.5q11 2 21 2h20q23 0 38 -15l50 -50q11 -11 15 -25q6 -15 7.5 -32t1.5 -31q0 -19 -2.5 -34.5t-9.5 -27t-20 -17.5t-34 -6q-75 0 -148.5 -5t-148.5 -5q-30 0 -49 19l-50 50q-18 18 -24 45t-6 49zM84 -34q75 0 148.5 5t148.5 5q19 0 30 5.5t17 15.5
t7.5 24t1.5 30q0 14 -1.5 30t-6.5 30t-15.5 23.5t-28.5 9.5q-21 0 -46 -2t-50.5 -6t-49.5 -10.5t-43 -14.5q28 26 57 59.5t56.5 70t51 74t41.5 71.5q13 24 17.5 58.5t4.5 61.5q0 33 -19.5 55t-52.5 25q-66 6 -133 7.5t-133 1.5q-20 0 -32 -7t-18.5 -18.5t-8.5 -27t-2 -32.5
q0 -18 3 -34t10.5 -28.5t20.5 -19.5t34 -7q42 0 82.5 5t82.5 12q-57 -58 -110.5 -121t-97.5 -132q-17 -26 -26 -55t-9 -61q0 -16 3 -34.5t11 -33.5t21 -25t34 -10z" />
    <glyph glyph-name="bracketleft" unicode="[" horiz-adv-x="341" 
d="M341 19q13 -5 20.5 -15t11.5 -22t5.5 -25.5t1.5 -25.5q0 -38 -16.5 -56t-55.5 -18q-17 0 -34.5 1t-34.5 1h-18l-35 -2h-17q-34 0 -50 16l-50 50q-13 13 -15.5 33t-2.5 41q0 146 4 290.5t4 290.5q0 21 2.5 39.5t10 31.5t22 20.5t39.5 7.5h135q15 0 26 -4.5t19 -12.5
l50 -50q12 -13 17.5 -30.5t5.5 -34.5q0 -13 -3.5 -27t-10.5 -25.5t-18 -19t-26 -7.5q-17 0 -33.5 1t-33.5 2q-1 -80 -3.5 -159t-2.5 -160v-39t1 -39h14q20 0 32.5 -9.5t18.5 -23.5zM258 -83q35 0 48.5 15t13.5 49q0 13 -1.5 27.5t-6.5 26.5t-15 19.5t-27 7.5h-57
q-5 0 -9 -2.5t-5 -7.5q-2 37 -3 74t-1 74q0 83 2.5 165t3.5 165q20 -1 38.5 -2.5t38.5 -1.5q13 0 22 6.5t15 17t8.5 22.5t2.5 23q0 27 -13.5 49.5t-44.5 22.5h-135q-25 0 -38 -7.5t-19 -21t-6.5 -30.5t-0.5 -37q0 -144 -4 -287t-4 -287q0 -24 2.5 -39.5t10 -24.5t22.5 -12.5
t40 -3.5l35 2h18q17 0 34.5 -1t34.5 -1z" />
    <glyph glyph-name="backslash" unicode="\" horiz-adv-x="416" 
d="M116 646q33 0 54 -23l50 -50q11 -11 19 -24.5t14 -27.5q10 -20 28 -66t39 -104t43 -122.5t40 -122t29.5 -102t11.5 -62.5q0 -15 -10 -28t-24.5 -22.5t-31 -15t-29.5 -5.5h-7q-13 3 -23.5 9t-18.5 14l-50 50q-12 14 -20 29.5t-15 32.5l-6 18t-5 17q-18 54 -36 108.5
t-36 108.5q-8 23 -24 66.5t-32 90.5q-16 46 -28 88.5t-12 63.5q0 16 6.5 30.5t17.5 25t25.5 17t30.5 6.5zM46 567q0 -12 5.5 -35.5t14.5 -52.5t20 -61.5t21.5 -62.5t19.5 -54.5t14 -39.5q18 -54 36 -108.5t36 -108.5q5 -15 11.5 -33.5t15.5 -35t22 -29t32 -15.5h5
q11 0 25.5 4.5t28 13t22.5 19.5t9 24q0 19 -11.5 63.5t-30 102t-41 122t-43.5 122t-38 102t-26 63.5q-6 13 -13 25.5t-16 22t-21 15.5t-28 6q-27 0 -48.5 -20.5t-21.5 -48.5z" />
    <glyph glyph-name="bracketright" unicode="]" horiz-adv-x="330" 
d="M328 609q14 -14 16.5 -35.5t2.5 -44.5q0 -146 4 -290.5t4 -290.5q0 -12 -1 -27.5t-5.5 -29t-13.5 -23t-26 -9.5h-40l-81 -2h-40q-37 0 -54 17l-50 50q-18 17 -18 57q0 16 2 32t8.5 29t18.5 21.5t32 8.5h56h6q3 63 3 128q0 67 -1.5 133.5t-3.5 132.5h-19q-11 0 -19.5 4
t-15.5 10l-50 50q-13 13 -18 32t-5 33q0 17 5.5 34.5t18.5 29.5q16 18 45 18h134q20 0 33.5 -5t21.5 -13zM287 579q0 19 -1.5 35t-7.5 28t-19 18.5t-36 6.5h-134q-31 0 -45 -22.5t-14 -49.5q0 -11 2.5 -23t8.5 -22.5t15 -17t22 -6.5q20 0 38.5 1.5t38.5 2.5q3 -83 5 -165
t2 -165q0 -35 -1 -70.5t-3 -70.5q-7 3 -15 3h-56q-17 0 -27 -7.5t-15.5 -19.5t-7 -26.5t-1.5 -27.5q0 -34 14 -49t48 -15h40l81 2h40q13 0 20.5 9t11 21.5t4 26t0.5 22.5q0 146 -4 290.5t-4 290.5z" />
    <glyph glyph-name="asciicircum" unicode="^" horiz-adv-x="439" 
d="M38 367q0 8 5 20.5t12.5 28.5t18 33.5t20.5 35.5l22 36t21 33.5t18 28t12 19.5q11 18 24 29.5t36 11.5q12 0 21 -5.5t17 -13.5l46 -46l21 -26q11 -15 32.5 -48t43 -69t38 -69t16.5 -48q0 -12 -5.5 -24t-15 -21.5t-21.5 -15.5t-24 -6q-19 0 -33.5 7t-25.5 18l-50 50
q-8 8 -14 16.5t-11 17.5q-5 -11 -11 -22l-12 -22q-6 -10 -14 -21.5t-18 -21.5t-21.5 -17t-24.5 -7q-14 0 -28 6t-25 17l-50 50q-20 20 -20 45zM111 309q19 0 36.5 18.5t32.5 44t26.5 51t18.5 40.5q12 -19 22 -45.5t22.5 -50t30.5 -40t46 -16.5q10 0 20 5t18 13.5t13 18.5
t5 20q0 14 -16.5 46t-38 67.5t-42.5 68t-31 46.5q-8 11 -19.5 24t-27.5 13q-20 0 -31 -10.5t-21 -26.5q-6 -9 -17.5 -27.5t-26 -41t-29 -47.5t-27 -47.5t-20 -40t-7.5 -25.5q0 -12 5.5 -22.5t14.5 -18.5t20.5 -12.5t22.5 -4.5z" />
    <glyph glyph-name="underscore" unicode="_" horiz-adv-x="383" 
d="M418 -32q11 -4 17.5 -12t9.5 -18t3.5 -21t0.5 -21q0 -13 -1.5 -28t-7 -28.5t-15.5 -22.5t-27 -9h-295q-38 0 -54 16l-50 50q-16 16 -16 59q0 17 1.5 32.5t7.5 27t18 18.5t33 7h181q32 0 63 1.5t63 1.5q17 0 27.5 -8t15.5 -20zM350 11h-32l-63 -2q-8 -1 -15.5 -1h-15.5
h-181q-18 0 -28.5 -6t-15 -16.5t-5.5 -24t-1 -28.5q0 -35 11.5 -50t48.5 -15h295q14 0 22 8.5t12.5 20.5t5.5 25.5t1 23.5q0 11 -0.5 22.5t-4.5 21t-12 15.5t-22 6z" />
    <glyph glyph-name="grave" unicode="`" horiz-adv-x="301" 
d="M264 690q20 -20 34 -40t14 -33q0 -10 -8.5 -25t-20.5 -28q-8 -7 -15 -11.5t-15 -4.5q-12 0 -30 6.5t-37.5 17t-39 24.5t-34.5 29l-50 50q-16 16 -25.5 32t-9.5 30q0 13 8 26t20 23.5t26 17.5t26 7q17 0 48 -21.5t59 -49.5zM252 667q0 13 -18 35.5t-42 44.5t-48.5 38
t-36.5 16q-10 0 -22.5 -6t-23 -15t-17.5 -20.5t-7 -22.5q0 -19 19.5 -41.5t46.5 -42t55 -32.5t45 -13q7 0 15.5 7t16 16.5t12.5 19.5t5 16z" />
    <glyph glyph-name="a" unicode="a" 
d="M-5 66q0 21 5 55t13.5 74t19.5 83.5t23 84.5t24 76t23 57q20 49 53.5 78t90.5 29q23 0 46 -4t45 -18l50 -50q28 -17 46 -52.5t29 -74.5q12 -39 18.5 -78.5t11.5 -67.5q5 -32 11.5 -66.5t11.5 -69.5t9 -70t4 -67q0 -22 -8 -36t-21.5 -22.5t-31.5 -11.5t-37 -3
q-35 0 -54.5 12.5t-29.5 33.5l-50 50q-7 15 -12 33h-50l-5 -32q-3 -20 -8.5 -36t-19.5 -32q-9 -9 -22.5 -14.5t-32.5 -5.5q-54 0 -79 24l-50 50q-11 12 -17 29t-6 42zM97 -19q26 0 41 11.5t22.5 29t10 39t5.5 40.5h107q6 -25 10 -48t13 -41t26 -29t49 -11q17 0 32.5 2.5
t28 9t20 19t7.5 32.5q0 26 -4 61.5t-9.5 73t-11.5 73.5t-11 63q-4 27 -11 66t-18 78t-28.5 72.5t-43.5 50.5q-19 12 -41 16t-44 4q-38 0 -63 -13.5t-42.5 -35.5t-29.5 -51t-23 -60q-6 -18 -15 -47.5t-18.5 -64t-18.5 -72t-16 -72t-11.5 -64t-4.5 -47.5q0 -48 23 -66.5
t69 -18.5zM203 247q0 7 4 29.5t10 47t13.5 44t15.5 19.5q6 0 10 -17.5t6 -39t3 -42t1 -26.5v-15h-63z" />
    <glyph glyph-name="b" unicode="b" horiz-adv-x="464" 
d="M17 418q0 47 5.5 83t23 60.5t49 37t82.5 12.5q31 0 62.5 -1t61 -6t55 -15.5t44.5 -29.5l50 -50q20 -20 31.5 -50.5t11.5 -75.5q0 -32 -15 -68.5t-43 -59.5l31 -31q22 -22 31.5 -53.5t9.5 -63.5q0 -52 -20 -90t-54 -62t-77.5 -35t-91.5 -11q-54 0 -90 11.5t-58 33.5
l-50 50q-29 29 -39 75t-10 108v231zM214 -31q45 0 87 10.5t74.5 33t52 58t19.5 86.5q0 25 -5.5 49t-18 43.5t-32.5 31.5t-48 13q21 5 37.5 20t28.5 35t18 42t6 42q0 61 -21.5 95t-57.5 50t-82 19.5t-95 3.5q-50 0 -80 -12.5t-45.5 -36t-20 -57.5t-4.5 -77v-231q0 -54 7 -95
t27.5 -68t57 -41t95.5 -14zM186 399v22t2 22q8 2 16.5 2h16.5q6 0 15.5 -1t18.5 -4t15 -8.5t6 -14.5q0 -14 -8 -23.5t-20 -15t-25.5 -8t-24.5 -2.5q-3 0 -6 0.5t-6 0.5v30zM187 231q15 0 32.5 -3.5t33 -11t25.5 -20t10 -31.5q0 -17 -10 -26t-24 -12.5t-29 -3.5
q-14 0 -24.5 1t-11.5 18z" />
    <glyph glyph-name="c" unicode="c" horiz-adv-x="437" 
d="M0 284q0 62 8 121.5t33 106t70 75t118 28.5q55 0 91.5 -13t60.5 -36l50 -50q35 -35 45.5 -89.5t10.5 -121.5q0 -19 -5.5 -32.5t-14.5 -23.5q-14 -13 -33 -18.5t-40 -6.5q14 -4 24 -14l50 -50q12 -12 16 -30t4 -40q0 -46 -15 -81.5t-42 -58.5t-64.5 -35t-82.5 -12
q-58 0 -98 15t-66 41l-50 50q-24 24 -37.5 55t-21 66.5t-9.5 74.5t-2 79zM234 -37q42 0 77.5 11t61.5 33t40.5 55.5t14.5 77.5q0 35 -12 56.5t-52 21.5q-28 0 -41.5 -7t-19 -17t-7 -22.5t-6 -22.5t-15.5 -17t-35 -7q-25 0 -38.5 16.5t-20 40t-7.5 49t-1 42.5t1.5 45.5t8 56
t20 47.5t38.5 20q18 0 24.5 -11.5t7.5 -29.5t1 -38t4.5 -38t18 -29.5t42.5 -11.5q36 0 62 15t26 56q0 57 -7 103t-28.5 78.5t-60.5 50.5t-102 18q-72 0 -115 -28.5t-66.5 -74t-30.5 -103t-7 -115.5q0 -63 6 -121t29 -102.5t67.5 -71t121.5 -26.5zM360 228q-13 4 -25 14
l-50 50q-14 14 -17.5 36t-3.5 41q-11 -11 -17 -30t-9 -40t-4 -41.5t-1 -34.5q0 -17 1 -41t7 -47q17 0 24.5 3.5t11.5 7.5l6 11l4 17q5 32 23.5 42.5t49.5 11.5z" />
    <glyph glyph-name="d" unicode="d" horiz-adv-x="487" 
d="M25 92q-2 30 -2 60.5v60.5q-2 60 -3 120.5t-1 120.5q0 37 5.5 65.5t20 48t40 29.5t65.5 10q87 0 151 -16.5t105 -58.5l50 -50q35 -35 53 -90t18 -134q0 -74 -13.5 -138t-46 -110.5t-87 -73t-136.5 -26.5q-42 0 -76.5 7.5t-57.5 30.5l-50 50q-31 32 -35 94zM194 -30
q80 0 133 26t84 71.5t43.5 107.5t12.5 133q0 83 -20 138.5t-59.5 89t-99 47.5t-138.5 14q-37 0 -61 -9t-37 -27t-18 -45t-5 -62q0 -91 2 -180.5t4 -180.5q1 -37 13.5 -61t34 -38t50 -19t61.5 -5zM191 439q67 -3 91 -38.5t24 -97.5q0 -20 -3.5 -51t-13 -59.5t-27 -49
t-45.5 -20.5q-9 0 -17 3.5t-8 14.5z" />
    <glyph glyph-name="e" unicode="e" horiz-adv-x="388" 
d="M46 572q15 15 38 19q53 9 114 12.5t115 3.5q17 0 32 -15l50 -50q16 -16 24.5 -39.5t8.5 -37.5q0 -17 -3 -36.5t-17 -32.5q-12 -13 -37 -16q-17 -2 -32.5 -3t-32.5 -2q14 -4 24 -14l50 -50q11 -11 15.5 -28t4.5 -34q0 -27 -5 -45.5t-24 -37.5q6 -4 7 -5l50 -50
q9 -10 14.5 -23.5t5.5 -31.5q0 -41 -4.5 -69t-18.5 -45t-40 -25.5t-68 -9.5q-20 -1 -39 -1h-39h-79q-44 0 -66 22l-50 50q-13 13 -18.5 32.5t-5.5 44.5v104l-1 207v103q0 28 3.5 54.5t23.5 48.5zM173 -34h47t47 1q41 1 64.5 9t36.5 24t16.5 42t3.5 64q0 33 -20 50t-52 17
q-13 0 -21.5 -6.5t-15 -15t-13 -15t-17.5 -6.5h-54l-6 89h109q14 0 22 9t12.5 21.5t6 26t1.5 23.5q0 27 -11 47.5t-42 20.5h-98l-5 62l136 11q16 2 25.5 8.5t14.5 17t6.5 23.5t1.5 26q0 9 -4.5 23t-12 27t-17.5 22.5t-21 9.5q-57 0 -114 -4t-113 -12q-20 -3 -31.5 -14.5
t-17 -28t-7 -35t-1.5 -34.5q0 -104 0.5 -207t0.5 -207q0 -43 17 -66t63 -23h63zM273 159h-23l1 -18l9 3z" />
    <glyph glyph-name="f" unicode="f" horiz-adv-x="358" 
d="M18 503q0 47 18 68t65 26q48 5 96 8t96 3q29 0 45 -16l50 -50q14 -15 18 -36.5t4 -41.5q0 -13 -2 -28.5t-8 -29t-16.5 -22.5t-27.5 -11q-27 -2 -54 -3t-53 -2l-1 -26q5 1 14 1q33 0 51 -18l50 -50q15 -16 19.5 -39t4.5 -45q0 -40 -18.5 -54.5t-54.5 -20.5
q-10 -2 -19 -3.5t-19 -3.5l-29 -4q1 -20 3.5 -40.5t2.5 -41.5q0 -29 -3.5 -50.5t-13.5 -36t-29 -22t-51 -7.5q-51 0 -69 19l-50 50q-19 19 -19 71v456zM28 47q0 -46 15.5 -63t62.5 -17q30 0 47.5 6.5t26 20t11 33.5t2.5 46q0 23 -3 46t-3 46q19 0 37.5 4.5t37.5 6.5
q32 5 48.5 17.5t16.5 47.5q0 17 -2.5 33.5t-9 29.5t-19.5 21t-34 8q-20 0 -39 -4.5t-37 -11.5l3 110l116 6q14 1 23 9.5t14 20.5t6.5 26t1.5 25q0 15 -2 30t-8 27t-17 19.5t-30 7.5q-48 0 -95.5 -3t-95.5 -8q-32 -3 -47.5 -13.5t-21 -27.5t-5 -40t0.5 -51q0 -103 -0.5 -204
t-0.5 -204z" />
    <glyph glyph-name="g" unicode="g" horiz-adv-x="475" 
d="M484 260q12 -3 19 -11.5t11 -17.5q4 -11 5.5 -23.5t1.5 -20.5q0 -9 -2 -19.5t-6.5 -20t-12.5 -16.5t-20 -9l2 -32q0 -91 -52 -139t-142 -48q-58 0 -98 15t-66 41l-50 50q-24 24 -37.5 55t-21 66.5t-9.5 74.5t-2 79q0 62 8 121.5t32.5 106t69.5 75t119 28.5q100 0 151 -51
l50 -50q51 -51 51 -149q0 -20 -5.5 -34t-15.5 -25q-2 -2 -5 -4t-5 -4q3 -4 5.5 -8t4.5 -9zM426 301q-20 0 -40.5 -1t-40.5 -1h-85q-13 0 -20.5 -5.5t-11 -14t-4 -19t-0.5 -20.5q0 -37 12 -48t47 -11q1 -6 1.5 -11.5t0.5 -10.5q0 -20 -11 -27t-30 -7q-25 0 -38.5 16.5t-20 40
t-7.5 49t-1 42.5t1.5 45.5t8 56t20 47.5t38.5 20q20 0 28.5 -7.5t10.5 -18.5t2 -24.5t4 -24.5t14.5 -18.5t34.5 -7.5q37 0 61.5 16.5t24.5 57.5q0 190 -192 190q-72 0 -115 -28.5t-66.5 -74t-30.5 -103t-7 -115.5q0 -63 6 -121t29 -102.5t67.5 -71t121.5 -26.5
q85 0 134.5 45t49.5 132q0 20 -3 41q23 0 32.5 18t9.5 38q0 8 -1.5 19t-5 21t-10.5 17t-18 7zM322 372l-7 6q3 -2 7 -6zM329 309l-38 37q-11 13 -13 32q-18 -12 -25 -32t-10 -40q8 3 17 3h69zM239 175q2 -21 6 -40q21 0 26 8z" />
    <glyph glyph-name="h" unicode="h" horiz-adv-x="473" 
d="M23 448q0 25 2.5 51t12 47t28 34.5t49.5 13.5q23 0 42.5 -5t33.5 -18l50 -50q20 -20 20 -59q0 -26 -1 -52.5t-2 -52.5q3 0 6 0.5t6 0.5q0 26 -1.5 51.5t-1.5 51.5q0 25 3.5 50t14 45.5t29 33.5t48.5 13q25 0 41 -5.5t27 -16.5l50 -50q16 -16 20 -41t4 -54v-110l-3 -221
v-110q0 -47 -24.5 -66t-69.5 -19q-42 0 -64 24l-50 50q-16 14 -22 35t-9 41q1 -6 1 -11.5v-10.5q0 -26 -2.5 -49t-12 -40.5t-27.5 -27.5t-48 -10q-23 0 -44.5 5t-35.5 19l-50 50q-9 9 -14.5 22.5t-5.5 33.5v192v38l1 76v38v16l-1 32v15zM33 41q0 -22 7 -35.5t19 -21
t28.5 -10.5t35.5 -3q29 0 45 10t23.5 26t9.5 37.5t2 43.5q0 28 -3.5 55t-3.5 55l78 2q0 -20 -2 -41t-2 -41q0 -24 1.5 -50t10 -48t26 -36t49.5 -14q40 0 62 16t22 59v110l3 221v110q0 24 -2.5 43.5t-10.5 33.5t-24.5 22t-44.5 8t-45 -12.5t-26 -31.5t-11.5 -42.5t-2.5 -45.5
v-28l3 -57v-28q-21 -1 -41.5 -1.5t-41.5 -0.5q0 42 2 83t2 83q0 43 -24 57.5t-62 14.5q-37 0 -54.5 -22t-23.5 -53.5t-4.5 -66t1.5 -59.5q0 -38 -0.5 -75t-0.5 -75v-192zM256 138l2 -28t3 -28q-1 9 -1 18.5v17.5v10t1 10h-5z" />
    <glyph glyph-name="i" unicode="i" horiz-adv-x="314" 
d="M332 539q13 -13 19 -37.5t6 -41.5q0 -21 -5 -41t-19 -34q-15 -17 -41 -18q6 -75 6 -150q0 -47 -3 -95l44 -44q22 -22 22 -65q0 -48 -26 -74.5t-74 -26.5q-22 0 -43 1t-43 2q-31 2 -57.5 8t-43.5 23l-50 50q-25 23 -25 75q0 37 15 56.5t53 21.5q-1 17 -1 34.5v34.5
q0 40 1 79t2 79q-2 1 -4 3l-50 50q-20 20 -20 66q0 13 2.5 30.5t8.5 33t17 26t29 10.5l203 5q16 0 27 -11zM52 585q-15 0 -24 -10t-14.5 -24.5t-7 -29.5t-1.5 -26q0 -42 16 -58.5t58 -16.5q0 -51 -1.5 -101t-1.5 -101v-39.5t2 -39.5q-38 0 -53.5 -13.5t-15.5 -54.5
q0 -30 8.5 -48.5t24.5 -28.5t37.5 -14t46.5 -5q21 -1 42.5 -2t42.5 -1q44 0 67 24t23 67q0 34 -16 54.5t-52 20.5q2 32 3.5 64.5t1.5 64.5q0 40 -1.5 79.5t-5.5 79.5q38 0 52 24.5t14 59.5q0 9 -2 22.5t-7 26.5t-13 22t-20 9z" />
    <glyph glyph-name="j" unicode="j" horiz-adv-x="358" 
d="M83 187q20 0 30 -11t15 -22l18 -19q2 0 2.5 -0.5t1.5 -0.5l4 9q2 5 2.5 11t1.5 11v25q0 75 -4.5 149.5t-4.5 149.5q0 50 19.5 82t74.5 32q23 0 43 -5t34 -18l50 -50q9 -10 14.5 -24.5t5.5 -34.5q0 -96 -2 -190t-2 -190q0 -38 -13.5 -73.5t-38 -63t-58 -44t-73.5 -16.5
q-32 0 -60.5 12t-50.5 33l-50 50q-20 20 -31 46t-11 57q0 18 6 35t16.5 30.5t26 21.5t34.5 8zM10 92q0 -30 11.5 -55t31 -43.5t45.5 -29t55 -10.5q38 0 69.5 15.5t54.5 42t36 60t13 69.5q0 96 2 190t2 190q0 43 -24.5 57.5t-62.5 14.5q-25 0 -41.5 -8t-26 -21.5t-13 -32.5
t-3.5 -42q0 -71 4.5 -141t4.5 -141v-33.5t-4 -33.5q-2 -10 -6 -14t-15 -4q-10 0 -15 8.5t-9.5 19t-12 19t-23.5 8.5q-17 0 -30.5 -7.5t-23 -19.5t-14.5 -27t-5 -31zM140 133l-4 3v1q3 -4 4 -4zM150 134v-1h-1h2z" />
    <glyph glyph-name="k" unicode="k" horiz-adv-x="484" 
d="M18 512q0 20 6 35t17 26q28 26 71 26q24 0 40.5 -6t27.5 -17l50 -50q15 -17 22 -43q8 19 16 37.5t18 37.5q5 8 9 13.5t9 10.5q11 12 26 16t35 4q17 0 37 -8.5t35 -23.5l50 -50q11 -11 17 -23.5t6 -27.5l-2 -14l-3 -11q-9 -29 -22 -62.5t-29.5 -66t-37.5 -61.5t-47 -50
q5 -9 11 -19t14 -21q5 -2 11 -4q20 -5 33.5 -10t21.5 -13l50 -50q11 -11 14.5 -26.5t3.5 -40.5q0 -53 -25 -80.5t-79 -27.5q-35 0 -55.5 9.5t-40.5 37.5l-19 18q-11 7 -23.5 22t-25.5 35q1 -11 1.5 -21t0.5 -21q0 -24 -7.5 -39t-21 -23.5t-32 -11t-39.5 -2.5q-49 0 -71 23
l-50 50q-23 22 -23 72v451zM112 -24q18 0 34.5 2t29 9t19.5 20t7 35q0 33 -5 66t-7 66q9 -16 24 -44t32.5 -57.5t35.5 -53.5t32 -33t28.5 -11.5t31.5 -2.5q49 0 71.5 25t22.5 73q0 21 -2.5 34.5t-10 22.5t-20 14.5t-32.5 8.5q-14 2 -28.5 14.5t-27.5 29t-24 34t-17 29.5
q27 19 48.5 47.5t38.5 61t30 67t22 64.5q2 5 3.5 10.5t1.5 11.5q0 15 -8 28.5t-20.5 23t-27.5 15.5t-29 6q-26 0 -42 -7.5t-28 -31.5t-22 -48.5t-21.5 -48.5t-26 -45.5t-35.5 -39.5q4 21 6.5 42.5t2.5 43.5q0 25 -2 49t-10 42.5t-25.5 29.5t-49.5 11q-36 0 -60 -19.5
t-24 -57.5v-451q0 -45 19.5 -65t64.5 -20z" />
    <glyph glyph-name="l" unicode="l" horiz-adv-x="358" 
d="M371 99q9 -9 14.5 -21t8.5 -25.5t4.5 -27.5t1.5 -25q0 -58 -35 -73q-8 -4 -17 -5.5t-19 -2.5q-9 -1 -20 -1h-22q-23 0 -46.5 -1t-46.5 -1h-46q-29 0 -45.5 10.5t-24.5 29.5l-50 50q-7 16 -9 37q-1 10 -1 20v21v98v196v98q0 13 0.5 30.5t4 34.5t10.5 31.5t20 21.5
q8 5 16 6.5t16 3.5q8 1 16 1h16q49 0 68 -19l50 -50q11 -11 15 -29.5t4 -44.5q0 -66 0.5 -130t0.5 -130v-20t-1 -22q18 3 35 3q11 0 18.5 -4t13.5 -10zM144 -24q23 0 46.5 1t46.5 1t41.5 0.5t32.5 7t21.5 21.5t7.5 43q0 12 -2 29.5t-7.5 34t-15.5 28t-26 11.5q-24 0 -54 -7
t-55 -11q5 11 8 26t4.5 31t2 32t0.5 28v65l-1 130v65q0 24 -3 39.5t-11.5 25.5t-23.5 14t-39 4q-14 0 -30 -1t-29 -9q-14 -8 -20.5 -27t-8.5 -41.5t-1.5 -44.5t0.5 -35v-353q0 -21 1 -40.5t8 -34.5t21 -24t40 -9h46z" />
    <glyph glyph-name="m" unicode="m" horiz-adv-x="674" 
d="M36 422q2 13 3 27.5t3 29.5q5 31 15 59q5 12 11.5 22.5t15.5 18.5q25 27 68 27q24 0 39.5 -3t29.5 -17l50 -50q13 -13 25 -35.5t22.5 -48t19 -50t14.5 -41.5q2 -6 2 -7q5 24 12 51.5t15.5 55t19 53t23.5 44.5q16 23 36 35t49 12q28 0 46.5 -4.5t32.5 -18.5l50 -50
q17 -17 27 -49q8 -21 14 -58t10.5 -82.5t8 -95.5t5.5 -96.5t3 -85.5t1 -64q0 -51 -23.5 -69.5t-72.5 -18.5q-21 0 -35.5 5.5t-25.5 15.5l-50 50q-11 13 -15.5 25.5t-8.5 28.5q-13 -38 -26.5 -69.5t-27.5 -37.5q-14 -7 -32 -7q-14 0 -24.5 5.5t-20.5 15.5l-42 42
q-11 8 -25 34.5t-28 60.5q1 -17 1 -33.5v-33.5q0 -33 -4.5 -54.5t-17.5 -33.5q-21 -22 -84 -22q-38 0 -56 18l-50 50q-13 13 -17 32.5t-4 42.5q0 94 5 187t13 187zM28 48q0 -37 12 -60t55 -23q31 0 49.5 4.5t29 15.5t14 30.5t3.5 49.5q0 56 -2 110.5t-3 110.5
q5 -13 13.5 -38t19 -55t23 -62t24.5 -60t23 -48.5t20 -27.5q14 -11 31 -11q6 0 14.5 1.5t13.5 4.5q8 4 18.5 25t21 51t21.5 64.5t20.5 67t16.5 59t11 38.5l5 -191q1 -23 2 -46.5t8.5 -42t23 -30.5t45.5 -12q44 0 65 15.5t21 62.5q0 24 -1 63.5t-3.5 86t-5.5 96.5t-7.5 95
t-10.5 81.5t-13 56.5q-13 40 -34.5 52.5t-62.5 12.5q-49 0 -77 -43q-14 -21 -25 -49t-19.5 -57.5t-15.5 -59t-12 -54.5q-4 -20 -7.5 -40.5t-10.5 -40.5q-12 35 -24.5 75.5t-26 81t-28 79t-32.5 69.5q-15 27 -32 33.5t-47 6.5q-34 0 -54.5 -17.5t-31 -44t-14.5 -57t-6 -56.5
q-8 -94 -13 -186.5t-5 -186.5z" />
    <glyph glyph-name="n" unicode="n" horiz-adv-x="510" 
d="M20 35q-5 41 -5.5 82t-0.5 82q0 68 2 135.5t6 135.5q2 23 7 46.5t15.5 42t28 30t45.5 11.5q49 0 82 -36l45 -45q2 -2 3 -2.5t2 -2.5q14 -15 29 -46.5t29 -68.5q-1 27 -1.5 54t-0.5 54q0 41 20.5 67.5t63.5 26.5q21 0 41.5 -7.5t34.5 -21.5l50 -50q24 -24 24 -59
q0 -57 1 -113.5t1 -113.5q0 -62 -1 -124t-12 -123q-4 -22 -9.5 -36.5t-15 -22.5t-24.5 -11.5t-38 -3.5q-20 0 -37 9.5t-32 24.5l-50 50q-8 8 -14.5 16.5t-13.5 16.5q-9 14 -17.5 27.5t-16.5 27.5q-2 5 -5 10.5t-6 10.5q1 -29 1 -56.5v-56.5q0 -85 -84 -85q-23 0 -42 5
t-32 18l-50 50q-9 9 -15 21.5t-8 30.5zM117 -30q74 0 74 75q0 110 -3 221q11 -33 25.5 -65t31.5 -62q11 -19 25.5 -47t33 -54t41 -44.5t47.5 -18.5q21 0 34 2.5t21.5 10t13.5 20.5t8 33q10 61 11.5 123.5t1.5 123.5v28.5t-1 28.5l-1 112v56q0 19 -7.5 33.5t-20 24.5t-29 15
t-33.5 5q-39 0 -56.5 -23.5t-17.5 -60.5q0 -59 2 -117.5t2 -117.5q-14 24 -30.5 66t-33 85.5t-33 80.5t-30.5 53t-34 24.5t-41 8.5q-33 0 -50.5 -18t-25.5 -45t-9.5 -57t-2.5 -54l-4 -108t-2 -109q0 -40 0.5 -81t5.5 -82q5 -38 28 -52t59 -14zM299 342q3 -7 5.5 -13t5.5 -13
z" />
    <glyph glyph-name="o" unicode="o" horiz-adv-x="507" 
d="M10 277q0 73 9 134.5t36 106.5t77.5 70.5t133.5 25.5q55 0 93.5 -15t64.5 -41l50 -50q23 -22 37 -52t22 -63.5t11 -70.5t3 -74q0 -70 -8 -132t-34 -108t-74.5 -72.5t-130.5 -26.5q-63 0 -105 15t-69 42l-50 50q-22 22 -35 50t-20 61.5t-9 71.5t-2 78zM250 -31
q80 0 127 26t71.5 70.5t31.5 104.5t7 128q0 59 -8 114.5t-32 98t-67.5 68t-113.5 25.5q-81 0 -129.5 -24.5t-74.5 -68t-34 -103.5t-8 -131q0 -67 7 -123.5t31 -97.5t69.5 -64t122.5 -23zM188 270q0 16 1 43.5t7 54.5t19 46.5t37 19.5q27 0 41.5 -22t21 -51.5t7 -60
t0.5 -48.5t-2 -39t-9 -39t-21 -30t-38 -12q-25 0 -38 12.5t-19 31.5t-6.5 40.5t-0.5 39.5v14z" />
    <glyph glyph-name="p" unicode="p" horiz-adv-x="446" 
d="M47 566q15 24 29.5 28.5t41.5 4.5l45 2h22q71 0 122.5 -10t83.5 -42l50 -50q25 -25 37.5 -65.5t12.5 -103.5q0 -61 -9.5 -109t-33.5 -80t-66.5 -49t-108.5 -17l-22 1q2 -17 4 -32.5t2 -32.5q0 -25 -2.5 -44.5t-11 -32.5t-25 -19.5t-44.5 -6.5q-23 0 -46 5.5t-39 21.5
l-50 50q-21 21 -21 56v81l-1 163v82q0 21 1 47.5t4 53.5t9 53t16 45zM28 41q0 -22 8 -36t21.5 -22.5t31 -11.5t35.5 -3q26 0 41 6t22 18t8.5 29.5t1.5 39.5q0 19 -3 37.5t-3 38.5q8 -1 16 -1.5t16 -0.5q65 0 105.5 16.5t63.5 47.5t31 77t8 104q0 74 -18 116.5t-52.5 63.5
t-84 26t-113.5 5l-45 -2h-22q-20 0 -33.5 -18t-21 -46.5t-10.5 -63t-3.5 -67t0 -59t0.5 -39.5v-255zM199 267q0 25 0.5 49.5t0.5 48.5q0 19 -0.5 37.5t-2.5 36.5q8 1 15.5 1h15.5q33 0 48.5 -23t15.5 -53q0 -49 -22 -72t-71 -25zM228 430h-20h20z" />
    <glyph glyph-name="q" unicode="q" horiz-adv-x="523" 
d="M470 509q27 -27 42.5 -63.5t23 -77t9.5 -83.5t2 -83q0 -39 -10 -77t-29 -73l29 -30q9 -9 11.5 -23.5t2.5 -36.5q0 -25 -13 -39t-36 -21q-10 -2 -20 -3l-20 -2h-35q-54 0 -99.5 3t-82 10.5t-65.5 21t-51 34.5l-50 50q-36 36 -52.5 98.5t-16.5 162.5q0 73 9 134.5t36 106.5
t77.5 70.5t133.5 25.5q54 0 91 -14.5t63 -40.5zM430 76q27 38 42 83t15 93q0 62 -5.5 124.5t-27.5 113t-66 82.5t-122 32q-81 0 -129.5 -24.5t-74.5 -68t-34 -103.5t-8 -131q0 -98 16.5 -160t54.5 -97.5t101 -49t156 -13.5h51.5t51.5 5q18 4 29 18t11 32q0 21 -2.5 34
t-9 19.5t-18.5 8.5t-31 2zM188 270q0 16 1 43.5t7 54.5t19 46.5t37 19.5q27 0 41.5 -22t21 -51.5t7 -60t0.5 -48.5t-2 -39t-9 -39t-21 -30t-38 -12q-25 0 -38 12.5t-19 31.5t-6.5 40.5t-0.5 39.5v14z" />
    <glyph glyph-name="r" unicode="r" horiz-adv-x="464" 
d="M257 27v-16q0 -25 -2.5 -44.5t-11 -32.5t-25 -19.5t-44.5 -6.5q-23 0 -46 5.5t-39 21.5l-50 50q-21 21 -21 56v255q0 20 0.5 39t0.5 39v24.5t1 31.5q0 20 3 49t12 55.5t25.5 45.5t44.5 19h20l40 2h20q71 0 122.5 -10t83.5 -42l50 -50q25 -25 37.5 -65.5t12.5 -103.5
q0 -52 -15 -100t-53 -86q20 -6 31 -16l50 -50q16 -17 16 -58q0 -53 -25 -80.5t-79 -27.5q-35 0 -55 9.5t-41 36.5l-19 19q-10 6 -21.5 19.5t-22.5 30.5zM28 41q0 -22 8 -36t21.5 -22.5t31 -11.5t35.5 -3q26 0 41 6t22 18t8.5 29.5t1.5 39.5q0 23 -3 46t-3 46h3
q8 -15 21.5 -39.5t29.5 -50t32 -47.5t29 -30q14 -9 29 -11.5t31 -2.5q49 0 71.5 25t22.5 73q0 19 -3.5 31t-11 19.5t-19 12t-28.5 7.5q-18 3 -32.5 15t-26.5 25q26 16 43.5 38.5t28 49t15.5 55.5t5 57q0 74 -17.5 116t-51.5 63t-83.5 26.5t-113.5 5.5l-40 -2h-20
q-31 0 -46.5 -26.5t-22 -62t-7 -71.5t-0.5 -56q0 -19 -0.5 -38t-0.5 -39v-255zM199 283v22l1 44q0 23 -0.5 45t-2.5 45q8 1 15.5 1h15.5q33 0 48.5 -23t15.5 -53q0 -25 -6 -40.5t-17.5 -24t-29 -12t-40.5 -4.5zM228 430h-20h20z" />
    <glyph glyph-name="s" unicode="s" horiz-adv-x="462" 
d="M69 270q-26 26 -42 60t-16 82q0 47 18 85t48.5 65t71 42t85.5 15q42 0 85.5 -17t74.5 -49l50 -50q23 -22 36 -50t13 -62q0 -25 -5.5 -49t-22.5 -40q-14 -14 -30.5 -18t-35.5 -4q4 -3 10 -9l50 -50q21 -21 34.5 -49.5t13.5 -66.5q0 -46 -20 -81.5t-52 -60t-73.5 -37
t-83.5 -12.5q-46 0 -90.5 19t-77.5 52l-50 50q-27 26 -43 60.5t-16 74.5q0 38 23 56.5t60 18.5q7 0 10 -1zM84 235q-32 0 -52.5 -15t-20.5 -50q0 -42 19 -78t49.5 -62t69.5 -41t79 -15t79.5 11.5t70.5 34.5t50 57t19 78q0 45 -19.5 76.5t-49 53t-64 36.5t-64 28.5t-49 27
t-19.5 32.5q0 22 18 33t37 11q20 0 30 -3.5t15 -11t5.5 -18.5t0.5 -27q0 -34 19.5 -43.5t48.5 -9.5q23 0 38 8.5t23.5 22.5t12 32t3.5 38q0 38 -18 69t-47 53t-64 34t-70 12q-43 0 -81.5 -14t-68 -39.5t-46.5 -62t-17 -81.5t15 -77.5t39.5 -57.5t57 -44.5t67.5 -37.5
q3 -1 16.5 -8t27.5 -14.5t25.5 -14.5t11.5 -9q0 -7 -5.5 -12t-13 -7t-15.5 -3t-13 -1q-30 0 -47.5 8t-27.5 20t-16 26.5t-12.5 26.5t-17 20t-29.5 8zM294 348q-15 13 -16 44q-14 -2 -23.5 -9.5t-11.5 -18.5q14 -7 29.5 -13t32.5 -14zM245 137q-29 14 -61 33l9 -15l7 -15
q7 -2 15 -3t19 -1q7 0 11 1zM265 149q-5 3 -11.5 6.5t-13.5 7.5z" />
    <glyph glyph-name="t" unicode="t" horiz-adv-x="393" 
d="M112 361q-32 3 -47 18l-50 50q-13 13 -16.5 33t-3.5 46q0 23 3 40t11 28t23.5 16.5t40.5 5.5q48 0 96 1.5t96 1.5h74q22 0 34.5 -10t17.5 -25l18 -18q24 -7 32 -32q5 -11 6 -29t1 -30q0 -33 -7 -52t-21.5 -28.5t-35.5 -12t-48 -2.5v-19q0 -86 5 -171t5 -171
q0 -26 -6.5 -43t-19 -26.5t-31 -13t-42.5 -3.5q-22 0 -42.5 5t-34.5 19l-50 50q-19 19 -19 54v8q4 78 5.5 155t5.5 155zM126 422q-7 -93 -8.5 -185t-6.5 -186v-8q0 -40 25 -54t61 -14q45 0 67 14t22 62q0 86 -5 171t-5 171v29h39q44 0 58.5 22.5t14.5 62.5q0 14 -1 29
t-5.5 27t-14.5 20t-28 8h-74h-48l-96 -2q-12 -1 -24 -1h-24q-22 0 -35.5 -4.5t-21 -14t-9.5 -24.5t-2 -37q0 -39 8 -57t23 -24.5t37.5 -5.5t52.5 1z" />
    <glyph glyph-name="u" unicode="u" horiz-adv-x="477" 
d="M23 197l-4 134t-2 135q0 28 2.5 52.5t12 42.5t29 28t52.5 10q45 0 66 -23l50 -50q14 -13 19.5 -32.5t5.5 -44.5v-280q13 4 20 23t10.5 42.5t4.5 45.5t1 32q0 20 -0.5 40.5t-0.5 40.5l-2 55q0 20 -0.5 40.5t-0.5 40.5q0 36 25 53t58 17q17 0 29.5 -5.5t22.5 -15.5l50 -50
q14 -14 21.5 -33.5t11.5 -41.5t4.5 -43.5t0.5 -39.5v-85.5t-2 -85.5q-2 -64 -10 -117t-31 -91.5t-66.5 -60t-116.5 -21.5q-51 0 -87.5 13.5t-60.5 37.5l-50 50q-32 32 -46 79.5t-16 107.5zM233 -31q71 0 112.5 21.5t63.5 59t29.5 89t8.5 110.5q2 43 2 85.5v85.5
q0 21 -1.5 50t-9 55.5t-23.5 45t-46 18.5q-29 0 -51 -14t-22 -46q0 -20 0.5 -40.5t0.5 -40.5l2 -55q0 -20 0.5 -40.5t0.5 -40.5q0 -17 -1 -44t-7 -52.5t-19.5 -44t-38.5 -18.5q-12 0 -19.5 6t-12 15t-6.5 19.5t-2 19.5v286q0 42 -18 66t-63 24q-31 0 -48.5 -10t-26 -26.5
t-10 -39t-1.5 -47.5q0 -68 2 -134.5t4 -134.5q2 -51 12 -93t33.5 -72t61 -46.5t93.5 -16.5z" />
    <glyph glyph-name="v" unicode="v" horiz-adv-x="483" 
d="M134 13q-5 9 -15.5 46.5t-23.5 90t-27 113t-25 114t-18.5 93.5t-7.5 51q0 26 5.5 42t16.5 24.5t29 11.5t42 3t39 -3.5t28 -16.5l50 -50q9 -7 20 -27q6 -11 13 -47.5t14 -81.5q8 42 16.5 83t19.5 83q5 18 10.5 30t14 18.5t21.5 9t32 2.5q17 0 38.5 -7.5t36.5 -22.5l50 -50
q19 -19 19 -43q0 -12 -8 -51.5t-20.5 -92.5t-28 -112.5t-30 -112.5t-26 -92t-17.5 -50t-11.5 -19.5t-12.5 -14.5q-16 -16 -35 -20.5t-48 -4.5q-30 0 -51 4t-38 21l-50 50q-5 5 -10.5 12.5t-11.5 16.5zM245 -31q37 0 59.5 9.5t38.5 44.5q6 12 17.5 50.5t26 91t29.5 111.5
t27.5 111.5t20.5 91t8 50.5q0 15 -8.5 26.5t-21 19.5t-27 12.5t-27.5 4.5q-17 0 -28.5 -2t-19 -7.5t-12 -16t-8.5 -27.5q-20 -84 -36.5 -167.5t-36.5 -167.5q-3 15 -7.5 44t-9.5 65t-10.5 74.5t-11 72t-11 58t-9.5 32.5q-15 28 -31 35t-47 7q-22 0 -37.5 -2t-25.5 -9
t-15 -21.5t-5 -38.5q0 -11 7.5 -50.5t18.5 -92.5t25 -112.5t26.5 -111.5t23 -89.5t15.5 -46.5q9 -17 19.5 -27t22.5 -15t26.5 -6t33.5 -1z" />
    <glyph glyph-name="w" unicode="w" horiz-adv-x="603" 
d="M5 481q0 28 3 56.5t23 51.5q9 8 21 13t29 5q23 0 41.5 -6.5t33.5 -26.5l32 -32q9 -6 18 -18q6 -8 10.5 -31t8.5 -52q11 32 20.5 57.5t17.5 30.5q11 8 19.5 10.5t21.5 2.5q12 0 20.5 -2t19.5 -10l50 -50q6 -5 13 -17.5t14 -29.5q1 17 2 35t3 35q3 22 7.5 41t14 32.5
t26 21.5t41.5 8q43 0 62 -19l50 -50q20 -20 20 -66q0 -115 -17 -227t-36 -224q-2 -9 -3.5 -18.5t-3.5 -17.5q-8 -32 -26 -50.5t-54 -18.5q-47 0 -83 27l-6 6l-44 44q-13 10 -25.5 40.5t-23.5 65.5q-3 -9 -5.5 -18t-4.5 -18l-12 -38t-12.5 -35.5t-13 -29t-13.5 -17.5
q-17 -14 -34 -20.5t-40 -6.5q-38 0 -61 23l-50 50q-17 19 -29.5 55.5t-21 83t-13 98t-7 100t-3 89.5t-0.5 67zM140 -25q22 0 36.5 5.5t31.5 19.5q11 8 23 41.5t23.5 73.5t21.5 77.5t15 54.5q4 -11 10 -32.5t13 -47t15.5 -52.5t17.5 -50.5t17 -41t16 -23.5q17 -14 36.5 -19.5
t40.5 -5.5q23 0 37 8t22 21.5t11.5 31t6.5 36.5q19 112 36 224t17 225q0 40 -15.5 57.5t-56.5 17.5q-23 0 -37.5 -7t-23 -20t-12.5 -30t-6 -37q-3 -26 -4 -57t-1.5 -62.5t-0.5 -63t-1 -58.5l-9 33t-14 49.5t-17 57t-18 55t-17.5 43.5t-15.5 23q-8 6 -15.5 8t-18.5 2t-19 -2
t-16 -9q-5 -4 -12.5 -22.5t-16.5 -45t-18.5 -57t-18 -59t-14.5 -51t-9 -32.5q0 12 -1 38t-2.5 58.5t-4.5 67.5t-6.5 66t-8 54t-9.5 30q-12 18 -29.5 23.5t-37.5 5.5q-24 0 -37.5 -11t-20 -28.5t-7.5 -38t-1 -38.5q0 -48 1.5 -105t6.5 -115t13.5 -113.5t21.5 -100.5
q10 -32 28.5 -52t53.5 -20z" />
    <glyph glyph-name="x" unicode="x" horiz-adv-x="493" 
d="M58 173q22 29 43 56.5t35 47.5q-13 20 -34 51.5t-42 66.5q-23 35 -40.5 70.5t-17.5 58.5q0 35 24.5 56.5t59.5 21.5q19 0 35.5 -9t30.5 -23l50 -50q11 -11 20.5 -23.5t17.5 -25.5l15 -27q8 15 14.5 30t14.5 30q5 8 8.5 16t7.5 16q8 14 16.5 25t18.5 19t22.5 12.5
t30.5 4.5q41 0 63 -24l50 -50q22 -20 22 -57q0 -22 -18 -57t-41 -70q-21 -33 -42.5 -63.5t-35.5 -49.5q9 -17 19 -37t22 -40q3 -6 7 -12q11 -5 19.5 -10.5t15.5 -13.5l50 -50q24 -22 24 -63q0 -45 -21 -67q-22 -21 -65 -21q-32 0 -54 5.5t-41 25.5l-50 50q-10 9 -20 25
q-13 20 -24 42q-8 -16 -15.5 -33t-17.5 -33q-8 -14 -17 -27t-20 -24q-12 -13 -26.5 -20.5t-31.5 -7.5q-46 0 -68 23l-50 50q-22 22 -22 65q0 26 18 57.5t40 62.5zM10 53q0 -41 20 -59.5t60 -18.5q27 0 48 21.5t38.5 51.5t31 61.5t24.5 51.5q19 -34 33 -70t35 -68t45 -41.5
t62 -9.5q40 0 58 18t18 60q0 58 -54 78q-16 6 -31.5 24.5t-28.5 41t-24.5 45t-20.5 37.5q12 18 35.5 50t46.5 68t40 69.5t17 52.5q0 34 -21 52.5t-54 18.5q-21 0 -35.5 -7.5t-25 -20t-18.5 -28t-16 -32.5q-13 -26 -25 -51.5t-26 -50.5q-12 21 -27 54t-34 64.5t-42.5 54
t-52.5 22.5q-30 0 -52 -18t-22 -50q0 -20 17 -53.5t39.5 -70t45 -70t34.5 -53.5q-12 -20 -35.5 -49t-46 -60.5t-39.5 -61.5t-17 -53z" />
    <glyph glyph-name="y" unicode="y" horiz-adv-x="452" 
d="M33 263q-8 17 -12.5 36.5t-6.5 41.5q-2 21 -2 44.5v47.5v14l-1 28q-1 4 -1 14q0 26 3.5 47t14 35.5t28.5 22.5t46 8q48 0 72 -25l50 -50q25 -25 25 -71q0 -25 -2.5 -49t-4.5 -49q15 10 18 25.5t3 32.5q0 27 -3.5 54t-3.5 54q0 17 5.5 29t13.5 21q17 16 40.5 22t44.5 6
q20 0 37.5 -5.5t29.5 -17.5l50 -50q19 -19 19 -51q0 -63 -4.5 -125.5t-4.5 -125.5q0 -11 0.5 -22t0.5 -22l2 -29q0 -11 0.5 -22t0.5 -22q0 -57 -16.5 -96t-46.5 -63.5t-73 -35t-97 -10.5q-19 0 -40.5 4t-43 12t-41.5 19.5t-36 27.5l-50 50q-17 17 -27.5 39t-10.5 48
q0 16 8 30.5t20.5 26.5t28 19t30.5 8l-39 39q-16 16 -24 35zM184 197q26 0 49.5 10.5t42.5 27.5q1 -5 1 -10v-10q0 -14 -1.5 -32.5t-6.5 -34.5t-16 -27t-31 -11q-30 0 -48 11t-30 23.5t-21.5 23.5t-22.5 11t-27.5 -6t-26.5 -16.5t-19.5 -24t-7.5 -27.5q0 -34 18.5 -60
t47 -44t61.5 -27t62 -9q51 0 92 10t70 32.5t45 60t16 92.5q0 11 -0.5 22t-0.5 22l-2 29q0 11 -0.5 22t-0.5 22q0 63 4.5 125.5t4.5 125.5q0 35 -22 49.5t-54 14.5q-16 0 -33 -3.5t-30.5 -11t-22 -20.5t-8.5 -33q0 -27 3.5 -54t3.5 -54q0 -14 -2 -27.5t-8 -23.5t-16.5 -16
t-27.5 -6t-27.5 4.5t-10.5 24.5q0 34 4 67t4 67q0 44 -22.5 65t-64.5 21q-27 0 -43 -7.5t-24.5 -21t-11.5 -32.5t-3 -42q0 -14 1 -28t1 -28q0 -48 2.5 -91t17.5 -75.5t48 -51t94 -18.5zM154 149l5 -5zM254 139q-5 -1 -10 -1.5t-10 -0.5q-44 0 -77 11l13 -13q10 -7 22.5 -11
t29.5 -4q21 0 32 19z" />
    <glyph glyph-name="z" unicode="z" horiz-adv-x="448" 
d="M5 69q0 34 9.5 63.5t27.5 57.5q28 46 61 88.5t69 83.5q-7 -1 -14 -1h-15q-35 0 -54 19l-50 50q-14 14 -19 35.5t-5 44.5q0 19 3 36.5t10.5 30.5t21.5 20.5t36 7.5q49 0 97.5 -1t96.5 -3q19 -1 37 -2t36 -3q36 -5 57 -26l50 -50q24 -24 24 -64q0 -29 -4.5 -63t-18.5 -61
q-20 -42 -51 -88.5t-66 -91.5q11 2 21 2h20q23 0 38 -15l50 -50q11 -11 15 -25q6 -15 7.5 -32t1.5 -31q0 -19 -2.5 -34.5t-9.5 -27t-20 -17.5t-34 -6q-75 0 -148.5 -5t-148.5 -5q-30 0 -49 19l-50 50q-18 18 -24 45t-6 49zM84 -34q75 0 148.5 5t148.5 5q19 0 30 5.5t17 15.5
t7.5 24t1.5 30q0 14 -1.5 30t-6.5 30t-15.5 23.5t-28.5 9.5q-21 0 -46 -2t-50.5 -6t-49.5 -10.5t-43 -14.5q28 26 57 59.5t56.5 70t51 74t41.5 71.5q13 24 17.5 58.5t4.5 61.5q0 33 -19.5 55t-52.5 25q-66 6 -133 7.5t-133 1.5q-20 0 -32 -7t-18.5 -18.5t-8.5 -27t-2 -32.5
q0 -18 3 -34t10.5 -28.5t20.5 -19.5t34 -7q42 0 82.5 5t82.5 12q-57 -58 -110.5 -121t-97.5 -132q-17 -26 -26 -55t-9 -61q0 -16 3 -34.5t11 -33.5t21 -25t34 -10z" />
    <glyph glyph-name="braceleft" unicode="{" horiz-adv-x="288" 
d="M210 693q14 0 24.5 -4.5t18.5 -12.5l50 -50q14 -15 20 -36.5t6 -39.5q0 -17 -4.5 -27.5t-12.5 -17.5q-5 -6 -11.5 -9.5t-12.5 -6.5l-23 -11l-6 -10q0 -16 2.5 -31t5.5 -31l6 -32l3 -34q0 -29 -11.5 -56.5t-31.5 -48.5q17 -19 31.5 -42t14.5 -52q0 -15 -5 -33
q-2 -8 -4.5 -14.5t-5.5 -14.5q-8 -22 -12 -40l49 -49q13 -9 15.5 -22t2.5 -24q0 -14 -4 -29t-12.5 -27.5t-20.5 -21t-27 -8.5q-37 0 -68.5 10.5t-54.5 33.5l-50 50q-38 36 -38 101q0 10 1 19t3 18t4 17.5t4 17.5q4 17 7.5 32.5t3.5 31.5q-2 2 -3.5 5t-3.5 6l-22 21
q-14 9 -25.5 24t-11.5 45q0 29 12 42t26 21l21 15q7 7 7 20q0 30 -5.5 60t-5.5 60q0 45 10.5 73.5t33.5 51.5q10 10 23 20.5t27.5 19.5t30 14.5t29.5 5.5zM251 23l5 -5q0 -1 0.5 -2t0.5 -3q6 -4 10 -6l-11 11q-3 9 -11 14q-6 3 -15 7t-17.5 9t-15 11.5t-6.5 14.5
q0 15 4.5 29t9.5 28.5t9.5 29t4.5 30.5q0 29 -15.5 51.5t-34.5 42.5q21 21 34 48t13 57q0 33 -8.5 64.5t-8.5 63.5q0 14 11 19t24 11t24 17t11 35q0 14 -3 28.5t-10 26.5t-18.5 20t-27.5 8q-15 0 -29 -6t-27 -14q-25 -17 -41.5 -32t-27 -32t-15 -39t-4.5 -52t5.5 -60
t5.5 -60q0 -19 -10.5 -27t-22.5 -15.5t-22.5 -19t-10.5 -36.5q0 -26 10.5 -39t22.5 -21t22.5 -15.5t10.5 -22.5q0 -18 -3.5 -35t-8 -34t-8 -34.5t-3.5 -35.5q0 -34 11.5 -59.5t32 -42t48 -25t59.5 -8.5q13 0 23 8t17 19.5t10.5 24.5t3.5 24v9.5t-2 9.5q-6 6 -6 10zM55 210
l5 -3q-1 1 -5 3z" />
    <glyph glyph-name="bar" unicode="|" horiz-adv-x="299" 
d="M86 166q0 44 -1.5 87.5t-1.5 87.5v72l1 143v72q0 34 22 55t56 21q18 0 34 -5.5t27 -16.5l50 -50q19 -19 19 -50q0 -122 -4.5 -242.5t-4.5 -242.5q0 -45 4.5 -89.5t4.5 -89.5q0 -37 -23 -59t-60 -22q-38 0 -58 22l-50 50q-12 11 -18 27.5t-6 36.5q0 48 4.5 96t4.5 97z
M87 -27q0 -34 18.5 -55t53.5 -21q32 0 52.5 19.5t20.5 51.5q0 45 -4.5 89.5t-4.5 89.5q0 122 4.5 242.5t4.5 242.5q0 31 -20.5 46.5t-49.5 15.5t-48.5 -18t-19.5 -48v-72l-1 -143v-72q0 -44 1.5 -87.5t1.5 -87.5q0 -49 -4.5 -97t-4.5 -96z" />
    <glyph glyph-name="braceright" unicode="}" horiz-adv-x="294" 
d="M235 603q27 -27 40 -65.5t13 -79.5q0 -30 -5.5 -60t-5.5 -61v-6l28 -28q14 -8 26 -21t12 -42q0 -30 -12 -45t-26 -24l-12 -7l-9 -7q-7 -6 -7 -15q0 -17 3 -33.5t8 -33.5q2 -9 4 -17.5t4 -17.5t3 -18t1 -19q0 -36 -12.5 -63t-34 -45.5t-51 -27.5t-63.5 -9q-21 0 -36 15
l-50 50q-14 14 -21 35.5t-7 35.5q0 11 2 24t16 22q4 3 8 5l8 4l18 8q16 9 16 17q0 14 -4 27.5t-10 27.5q-2 8 -4.5 14.5t-4.5 14.5q-5 18 -5 33q0 29 14.5 52t31.5 42q-20 21 -31.5 48.5t-11.5 56.5q0 18 3 34q1 8 2.5 16t3.5 16q2 12 4 23.5t4 22.5l-3 3l-50 50
q-8 7 -12.5 17.5t-4.5 27.5q0 18 6 39.5t20 36.5q8 8 18.5 12.5t24.5 4.5q32 0 57.5 -10.5t43.5 -29.5zM228 508q0 33 -8.5 64.5t-26.5 56t-45 39.5t-64 15q-16 0 -27.5 -8t-18.5 -20t-10 -26.5t-3 -28.5q0 -24 11 -35t24 -17t24 -11t11 -19q0 -32 -8.5 -63.5t-8.5 -64.5
q0 -30 12.5 -57t34.5 -48q-19 -20 -34.5 -42.5t-15.5 -51.5q0 -16 4.5 -30.5t9.5 -29t9.5 -28.5t4.5 -29q0 -8 -6.5 -14.5t-15 -11.5t-17.5 -9t-15 -7q-10 -6 -12 -16.5t-2 -21.5t3.5 -24t10.5 -24.5t17 -19.5t23 -8q32 0 60 8.5t48 25t31.5 42t11.5 59.5q0 18 -3.5 35.5
t-8 34.5t-8 34t-3.5 35q0 15 10.5 22.5t22.5 15.5t22.5 21t10.5 39q0 25 -10.5 36.5t-22.5 19t-22.5 15.5t-10.5 27q0 30 5.5 60t5.5 60zM69 533l10 -5q-2 2 -4.5 2.5t-5.5 2.5z" />
    <glyph glyph-name="asciitilde" unicode="~" horiz-adv-x="531" 
d="M526 350q14 -14 20 -34.5t6 -37.5q0 -29 -10.5 -54.5t-29 -44.5t-44 -30t-54.5 -11q-26 0 -49.5 8t-43.5 16q-11 5 -20.5 9t-19.5 7t-19 5t-18 2q-17 0 -25.5 -7t-15.5 -18l-7 -11l-10 -10q-6 -5 -13 -8.5t-18 -3.5q-24 0 -38 16l-50 50q-16 15 -21.5 38.5t-5.5 40.5
q0 29 11 55t29.5 46t44 32t54.5 12q24 0 50 -8q11 -3 22.5 -7.5t22.5 -9.5q23 -9 44 -16t44 -7q14 0 21 6t13 14l3 4q1 1 3 5q2 2 3.5 4.5t3.5 4.5q5 4 10.5 7t13.5 3q14 0 24.5 -4.5t18.5 -12.5zM433 407q-10 0 -16 -7.5t-12.5 -16.5t-16 -16.5t-26.5 -7.5q-24 0 -46.5 7.5
t-44.5 16.5t-45 16.5t-47 7.5q-27 0 -51 -11t-41 -30t-27 -43t-10 -51q0 -12 3 -27t9.5 -28t17 -21.5t25.5 -8.5q17 0 25 9t15 20t17.5 20t31.5 9q20 0 39.5 -7.5t40 -16t43 -16t47.5 -7.5q27 0 50.5 10t41 28t27 41.5t9.5 50.5q0 13 -3.5 27t-10.5 25.5t-18.5 19t-26.5 7.5
z" />
    <glyph glyph-name="exclamdown" unicode="&#xa1;" horiz-adv-x="294" 
d="M157 565q36 0 60 -24l50 -50q27 -27 27 -69q0 -29 -14.5 -56t-45.5 -34l22 -22q11 -11 15.5 -26t4.5 -32q0 -28 3 -56l6 -56q5 -52 8.5 -104t3.5 -105q0 -38 -25 -60t-63 -22q-22 0 -44 5.5t-37 20.5l-50 50q-8 8 -13.5 21t-5.5 31q0 55 4.5 109.5t10.5 108.5
q2 26 5.5 53t3.5 53q0 49 42 70l-34 33q-24 26 -24 61q0 20 8.5 40t22.5 35q12 11 27 18t32 7zM77 465q0 -35 23.5 -56t57.5 -21q38 0 57 24.5t19 59.5q0 34 -21 58.5t-56 24.5q-17 0 -32 -8t-25.5 -20.5t-16.5 -28.5t-6 -33zM237 -19q0 53 -3.5 104.5t-8.5 103.5
q-3 28 -6 56.5t-3 56.5q0 29 -13.5 47t-44.5 18q-30 0 -47.5 -18t-17.5 -48q0 -26 -3.5 -53.5t-5.5 -53.5q-6 -54 -10.5 -108t-4.5 -109q0 -20 7.5 -33.5t20 -21t29 -10.5t33.5 -3q33 0 55.5 18.5t22.5 53.5z" />
    <glyph glyph-name="cent" unicode="&#xa2;" horiz-adv-x="410" 
d="M14 284q0 36 4.5 76t17.5 76.5t36.5 65.5t62.5 43q-1 21 -2.5 41.5t-1.5 41.5q0 34 22 55t56 21q18 0 34 -5.5t27 -16.5l50 -50q19 -19 19 -50q0 -36 -3 -74l40 -40q17 -16 26.5 -38t14.5 -46t6.5 -48t1.5 -44q0 -16 -4.5 -27.5t-12.5 -19.5q-18 -17 -49 -20l50 -50
q10 -10 13.5 -25.5t3.5 -32.5q0 -67 -41 -110q-11 -11 -24.5 -19.5t-29.5 -13.5l3 -19l2 -28q0 -38 -22.5 -60t-60.5 -22t-58 22l-50 50q-12 11 -18 27.5t-6 36.5q0 13 3 25l-51 51q-21 21 -33 49.5t-18 59t-7 61t-1 57.5zM139 30q-2 -11 -5 -24t-3 -25q0 -34 18.5 -55
t53.5 -21q32 0 52.5 19.5t20.5 52.5q0 14 -2.5 27t-4.5 27q49 14 73 50t24 86q0 29 -10 46t-43 17q-23 0 -33.5 -5.5t-15 -14t-6 -18.5t-5 -18.5t-12.5 -14t-29 -5.5t-31 13.5t-16 32.5t-6 40t-1 35t1 37t6.5 45.5t16.5 39t31 16.5q15 0 20 -9.5t6 -24t0.5 -31t3.5 -31
t15.5 -24t34.5 -9.5q29 0 50.5 12.5t21.5 45.5q0 27 -2.5 57.5t-12 58t-27.5 49t-48 30.5q2 24 3 47.5t1 47.5q0 32 -20.5 47t-49.5 15t-48.5 -18t-19.5 -48q0 -23 1.5 -45t2.5 -45q-39 -12 -63 -40t-37 -64t-17 -75.5t-4 -74.5q0 -36 2.5 -75.5t14 -75t34.5 -63.5t64 -40z
M245 181l3 13q6 22 16 32t34 13l-50 50q-8 8 -11 17.5t-5 19.5q-5 -10 -7.5 -23t-4 -26.5t-2 -27t-0.5 -24.5q0 -12 0.5 -28t3.5 -32q14 1 19 8z" />
    <glyph glyph-name="sterling" unicode="&#xa3;" horiz-adv-x="481" 
d="M105 329l-6 22q-2 11 -5 21t-5 21q-5 25 -5 45q0 41 12.5 75.5t35.5 59.5t56.5 39t75.5 14q38 0 69.5 -13.5t55.5 -36.5l50 -50q23 -24 36.5 -56t13.5 -70q0 -35 -24 -59.5t-59 -24.5q-25 0 -37 14l-50 50q-8 7 -11.5 16.5t-5.5 18.5q-9 -12 -9 -32q0 -14 2.5 -28
t6.5 -28v-2q8 -1 15.5 -2.5t14.5 -5.5l50 -50q18 -8 28 -24.5t10 -45.5q0 -39 -21 -58q19 -10 27 -30l19 -18q12 -5 20.5 -15.5t13.5 -23t7 -26.5t2 -26q0 -16 -3.5 -31t-14.5 -26q-7 -6 -16.5 -10t-23.5 -4h-54l-109 -2h-54q-16 0 -34 1.5t-33 7.5q-11 5 -20 13t-14 21
l-16 16q-17 8 -27.5 22t-10.5 38q0 15 4 33t9 36l6 18t5 17l-37 38q-18 17 -18 55q0 42 18 63t60 21v2zM37 243q0 -36 15.5 -49.5t50.5 -15.5q-4 -13 -10.5 -30t-11.5 -35t-9 -35.5t-4 -31.5q0 -21 9 -33t22.5 -17.5t30.5 -7t33 -1.5h54l109 2h54q29 0 38.5 18t9.5 43
q0 13 -2.5 27.5t-8.5 27t-16 21t-26 8.5q-28 0 -55.5 -7t-57.5 -7h-31q5 15 9 30t7 30q9 -1 17.5 -1h17.5q36 0 57 14t21 54q0 26 -8.5 40.5t-23 21t-33.5 7.5t-40 1q-5 29 -13.5 57.5t-8.5 58.5q0 8 2 18t6.5 18t12 13.5t17.5 5.5q15 0 22 -8.5t10.5 -20.5t5 -27t6 -27
t14 -20.5t27.5 -8.5q31 0 52 22t21 52q0 35 -12.5 65.5t-34.5 53t-52 35t-66 12.5q-40 0 -71.5 -13t-53.5 -37t-33.5 -56.5t-11.5 -71.5q0 -22 5 -43l10 -42v1q2 -10 4.5 -19.5t4.5 -19.5h-6q-41 0 -58 -15t-17 -57z" />
    <glyph glyph-name="currency" unicode="&#xa4;" horiz-adv-x="598" 
d="M44 280q0 31 6.5 61.5t20.5 58.5q-10 13 -21.5 33.5t-11.5 36.5q0 15 5.5 29.5t15 25.5t22.5 18t29 7q23 0 42.5 -13.5t33.5 -28.5q26 12 54 20.5t57 8.5q53 0 102 -17q14 16 33.5 31.5t45.5 15.5q13 0 25 -6t22 -16l50 -50q23 -21 23 -49q0 -11 -3.5 -21.5t-8.5 -19.5
q-5 -8 -9 -14.5t-9 -13.5q20 -29 28 -63.5t8 -69.5q0 -40 -11 -79.5t-35 -72.5q16 -30 16 -64q0 -14 -5.5 -28t-16.5 -25q-14 -16 -38 -16q-26 0 -44.5 14.5t-31.5 31.5q-23 -8 -47.5 -12t-49.5 -4q-52 0 -97 19q-13 -14 -30 -25t-39 -11q-23 0 -39 16l-50 50
q-10 10 -15 24.5t-5 28.5q0 32 13 59q-18 29 -26.5 62.5t-8.5 67.5zM91 150q-15 -27 -15 -59q0 -22 12.5 -40.5t36.5 -18.5q20 0 37 11.5t29 26.5q48 -21 100 -21q26 0 51 4.5t49 12.5q14 -17 32 -32t41 -15t36.5 19t13.5 40q0 35 -18 65q26 32 37 71t11 80q0 35 -8.5 69.5
t-29.5 63.5q10 16 21 32.5t11 36.5q0 23 -18.5 42t-41.5 19t-42.5 -16t-33.5 -33q-25 10 -51.5 14.5t-53.5 4.5q-30 0 -58.5 -9t-55.5 -22q-12 16 -32 30t-41 14q-27 0 -44.5 -22t-17.5 -48q0 -7 4 -16.5t9 -19.5t11.5 -18.5t10.5 -14.5q-15 -28 -22 -58.5t-7 -62.5
q0 -35 8.5 -68t28.5 -62zM305 387q44 0 64.5 -25.5t20.5 -67.5q0 -51 -19.5 -78t-74.5 -27q-42 0 -67 24.5t-25 66.5q0 51 24.5 79t76.5 28z" />
    <glyph glyph-name="yen" unicode="&#xa5;" horiz-adv-x="562" 
d="M551 533q23 -23 23 -51q0 -19 -8 -35q-20 -35 -42 -68t-45 -67l36 -36q8 -8 11.5 -19.5t3.5 -31.5q0 -33 -15 -50q-9 -8 -22 -12l23 -23q16 -16 16 -45q0 -24 -9.5 -42.5t-33.5 -26.5q-17 -4 -40 -4h-40l1 -29q0 -49 -21 -68t-69 -19q-40 0 -60 20l-50 50q-8 8 -13 19.5
t-7 25.5q-17 2 -31 6.5t-24 15.5l-50 50q-19 17 -19 54q0 28 16 44q7 8 20 13l-19 19q-17 17 -17 50t14 48t45 18h14q-11 17 -27 39.5t-31 46.5q-19 31 -34.5 61t-15.5 48q0 21 10 37t25.5 27t35 16.5t37.5 5.5q19 0 31.5 -9.5t20.5 -23.5l25 -24q8 -5 14 -11.5t11 -14.5
q14 -20 26 -41.5t24 -44.5q17 35 37 69t43 66q8 11 20.5 21t30.5 10q19 0 41 -9t38 -25zM197 198q-13 0 -25.5 0.5t-25.5 0.5q-15 0 -27.5 -1.5t-22 -7t-15 -15.5t-5.5 -28q0 -28 12 -42t30 -19.5t40 -5t42 1.5q-1 -8 -1.5 -16.5t-0.5 -16.5q0 -38 15 -60.5t57 -22.5
q34 0 50.5 8.5t23 23.5t6 36.5t-0.5 47.5h42q18 0 33 2t25.5 8.5t16.5 19t6 33.5q0 26 -12.5 37.5t-31.5 15t-40.5 2t-39.5 -1.5v23q17 -1 33.5 -1h33.5q30 0 42.5 12.5t12.5 42.5q0 21 -5 32t-14 16.5t-22.5 6.5t-30.5 1q26 44 54.5 85.5t54.5 85.5q5 7 6 14.5t1 15.5
q0 16 -9 30t-22.5 24t-29.5 15.5t-31 5.5q-14 0 -24.5 -8t-18.5 -19q-29 -42 -53.5 -86.5t-47.5 -89.5l-46 90t-49 88q-8 12 -19 20t-25 8q-16 0 -33 -5t-31.5 -15t-24 -24t-9.5 -32q0 -15 14.5 -43.5t34 -60t39 -59.5t29.5 -42h-26q-30 0 -43 -13t-13 -43q0 -33 16.5 -45.5
t47.5 -12.5q14 0 28.5 1t28.5 2v-20z" />
    <glyph glyph-name="brokenbar" unicode="&#xa6;" horiz-adv-x="267" 
d="M238 636q16 -16 20.5 -39.5t4.5 -46.5q0 -22 -1 -43.5t-1 -43.5q0 -37 -1 -73.5t-7 -71.5q-2 -15 -6 -27t-12 -20q-8 -10 -29 -13l29 -30q13 -13 16 -36t2.5 -45.5t0.5 -45.5q1 -42 2.5 -83t1.5 -83q0 -20 -6 -38.5t-18 -31.5q-10 -9 -23.5 -14.5t-31.5 -5.5t-30.5 5
t-21.5 14l-50 50q-11 11 -18 30q-3 11 -4.5 21.5t-2.5 21.5v41v107t8 106q4 24 17 37q7 8 17 11t22 5l-29 29q-10 9 -16 24.5t-9 32.5t-3.5 34t-0.5 30q0 48 1.5 94.5t1.5 94.5q0 30 21 49q11 11 25 17t29 6q35 0 52 -19zM136 695q-26 0 -45.5 -18t-19.5 -44q0 -41 -1.5 -81
t-1.5 -81v-42t4.5 -51t16.5 -43t36 -18h17q29 0 37.5 12.5t13.5 39.5q7 44 7.5 88.5t0.5 88.5q0 21 1.5 46.5t-3 48.5t-18.5 38.5t-45 15.5zM62 -8q0 -17 3 -32.5t11 -27.5t21 -19.5t32 -7.5q36 0 52.5 23.5t16.5 56.5q0 42 -1 83t-3 83q-1 22 -1 44.5t-2 45.5q-3 27 -19 35
t-40 8q-26 0 -42 -8t-20 -36q-3 -25 -5 -57t-2.5 -66t-0.5 -66.5v-58.5z" />
    <glyph glyph-name="section" unicode="&#xa7;" horiz-adv-x="610" 
d="M119 177q-24 24 -38.5 55t-14.5 75q0 61 34 107.5t91 66.5q8 33 27.5 58.5t45.5 43.5t57.5 27t64.5 9q38 0 77.5 -15.5t68.5 -44.5l50 -50q20 -20 32 -45.5t12 -56.5q0 -22 -5.5 -44t-19.5 -37q-10 -9 -23 -14.5t-32 -5.5q-1 0 -1 -1l50 -50q20 -20 32 -45.5t12 -60.5
q0 -60 -35 -99.5t-87 -59.5q-8 -35 -28.5 -61t-48 -43.5t-61 -26t-66.5 -8.5q-42 0 -82.5 17t-70.5 47l-50 50q-24 24 -38.5 55.5t-14.5 67.5q0 33 18 49q10 11 25 15.5t33 4.5q4 0 7 -1zM133 147q-29 0 -47.5 -14t-18.5 -45q0 -38 17 -70.5t45 -56t63 -37t71 -13.5
q32 0 64 8.5t59 25.5t46.5 43t25.5 60q51 17 86 55.5t35 95.5q0 41 -18 69t-44.5 48t-57.5 33.5t-57.5 25.5t-44.5 24.5t-18 29.5q0 19 16.5 29t33.5 10q18 0 27 -3t13.5 -10t5 -17t0.5 -24q0 -30 17.5 -39t43.5 -9q21 0 34.5 7.5t21.5 20.5t11 29t3 34q0 35 -16.5 63
t-42.5 47.5t-58 30.5t-63 11q-32 0 -62.5 -9t-55.5 -26t-43 -42t-26 -58q-56 -19 -89.5 -63.5t-33.5 -103.5q0 -40 13.5 -69.5t36 -52t51.5 -40t60 -34.5q3 -1 15 -7.5t25 -13.5t23.5 -13t10.5 -8q0 -7 -5 -11t-12 -6t-14 -3t-12 -1q-27 0 -43 7.5t-25 18.5t-14 23.5
t-11 23.5t-15 18.5t-27 7.5zM450 364q-10 6 -16.5 15.5t-8.5 26.5q-8 -2 -15 -7t-9 -13q11 -5 23.5 -10.5t25.5 -11.5zM229 326q25 -32 58.5 -52.5t68.5 -38.5q3 -1 14.5 -7.5t24.5 -13t23.5 -12.5t10.5 -8q0 -6 -4 -10t-9 -6q-17 15 -49.5 31l-65 32t-56.5 32t-24 31
q0 11 8 22zM297 67q-6 4 -12 7t-12 7zM270 59q-10 5 -19.5 10.5t-19.5 10.5l10 -19q11 -3 27 -3zM297 67l2 -2v1z" />
    <glyph glyph-name="dieresis" unicode="&#xa8;" horiz-adv-x="391" 
d="M374 722q24 -24 24 -61q0 -18 -5.5 -35.5t-16 -31.5t-26 -22.5t-34.5 -8.5q-17 0 -30 6t-24 16l-26 26q-3 -7 -8 -13.5t-10 -12.5q-10 -10 -23 -16t-29 -6q-17 0 -30 6t-24 16l-50 50q-14 14 -20.5 32.5t-6.5 37.5q0 38 21 64t60 26q37 0 58 -23l21 -21q10 22 29 33
t42 11q37 0 58 -23zM188 711q0 32 -20 53t-52 21q-35 0 -53 -23.5t-18 -56.5q0 -31 18.5 -56.5t52.5 -25.5q17 0 30.5 8t22.5 20.5t14 28.5t5 31zM338 711q0 32 -20 53t-52 21q-35 0 -53 -23.5t-18 -56.5q0 -31 18.5 -56.5t52.5 -25.5q17 0 30.5 8t22.5 20.5t14 28.5t5 31z
" />
    <glyph glyph-name="copyright" unicode="&#xa9;" horiz-adv-x="754" 
d="M391 626q78 0 140 -23t106 -67l50 -50q42 -43 65 -102.5t23 -135.5q0 -79 -23.5 -144.5t-67.5 -112t-107.5 -72.5t-144.5 -26q-156 0 -241 87l-50 50q-42 42 -64.5 103.5t-22.5 139.5q0 79 22.5 144t65.5 111.5t106 72t143 25.5zM64 273q0 -75 21.5 -134.5t62 -101
t99.5 -63t135 -21.5q79 0 141 25t104.5 70.5t65 109t22.5 140.5q0 75 -23 134t-65 100t-102 62.5t-134 21.5q-79 0 -140 -25t-102.5 -70t-63 -108t-21.5 -140zM392 545q52 0 94 -20t72 -53.5t46 -78.5t16 -95q0 -57 -14 -106t-43.5 -84t-74 -55t-105.5 -20q-54 0 -95.5 18.5
t-70 51.5t-43 77.5t-14.5 95.5q0 56 13.5 105t41.5 85.5t72 57.5t105 21zM389 55q29 0 54 9.5t44 27t30 41.5t11 53q0 27 -9 45.5t-40 18.5q-27 0 -35 -9t-11.5 -20.5t-10 -20.5t-29.5 -9q-15 0 -23.5 9.5t-12.5 23t-4.5 28.5t-0.5 25t0.5 27.5t4.5 34t12.5 29t24.5 12.5
q13 0 16.5 -16.5t6 -37t9 -37t25.5 -16.5q8 0 17 3q14 5 25 9.5t18.5 10.5t11.5 15.5t4 24.5q0 38 -4 71t-18 57t-41 38t-72 14q-48 0 -80.5 -21t-51.5 -54t-27 -74t-8 -82q0 -40 8 -81t26.5 -74t50 -54t79.5 -21z" />
    <glyph glyph-name="ordfeminine" unicode="&#xaa;" horiz-adv-x="402" 
d="M419 544q18 -7 25.5 -28t7.5 -38q0 -43 -25 -81t-66 -52l19 -19q18 -18 18 -57q0 -18 -4 -35t-15 -28q-14 -16 -44 -16q-9 0 -18.5 0.5t-18.5 0.5l-25 2q-9 1 -18.5 1h-18.5q-22 0 -43.5 -2.5t-43.5 -2.5q-34 0 -51 17l-50 50q-18 20 -18 56q0 40 18 59q17 15 48 18
l-34 33q-23 24 -35.5 57.5t-12.5 65.5q0 39 14.5 72t39.5 56.5t59 37t72 13.5q30 0 57 -8t46 -27l50 -50q20 -20 26 -50q5 -4 8.5 -9t6.5 -10zM141 399q25 0 43.5 15.5t31.5 35.5q8 -20 23 -35t38 -15q25 0 46 11t36.5 29t24 41t8.5 47q0 8 -2 18.5t-6.5 19.5t-11.5 15
t-18 6q-15 0 -21 -10t-9 -22.5t-5 -22.5t-9 -10l-6 4q1 22 9 42.5t8 42.5q0 28 -9.5 47.5t-26 32t-39 18t-47.5 5.5q-36 0 -68 -12.5t-55.5 -35t-37.5 -53.5t-14 -68q0 -25 8 -51t23 -47t36.5 -34.5t49.5 -13.5zM147 543q0 8 2.5 19.5t7.5 22t13 18t18 7.5q3 0 6 -1t5 -4
q-1 -6 -6 -17.5t-12 -23t-15 -20.5t-15 -9q-4 4 -4 8zM265 384q-23 0 -45.5 -4t-45.5 -4q-17 0 -33.5 1.5t-33.5 1.5q-36 0 -51.5 -15.5t-15.5 -51.5q0 -31 13.5 -47t45.5 -16q22 0 43.5 2.5t43.5 2.5h18.5t18.5 -1l25 -2q9 0 18.5 -0.5t18.5 -0.5q33 0 43 20t10 49
q0 40 -18 52.5t-55 12.5z" />
    <glyph glyph-name="guillemotleft" unicode="&#xab;" horiz-adv-x="514" 
d="M115 161q-1 3 -4 4q1 -1 2 -1.5t2 -2.5zM24 289q0 -17 4.5 -27.5t18.5 -20.5q14 -9 33.5 -30t41.5 -42t42.5 -37t35.5 -16q10 0 21 7.5t20.5 18.5t15.5 23.5t6 22.5q0 12 -10.5 26.5t-24.5 28.5t-29.5 25t-25.5 17q12 5 27.5 15.5t29.5 24t23.5 28.5t9.5 29q0 12 -4 25
t-11 24.5t-17.5 19t-24.5 7.5q-13 0 -24 -8q-37 -27 -67 -59.5t-71 -59.5q-12 -8 -16 -18t-4 -24zM235 289q0 -17 4.5 -27.5t18.5 -20.5q14 -9 33.5 -30t41.5 -42t42.5 -37t35.5 -16q10 0 21 7.5t20.5 18.5t15.5 23.5t6 22.5q0 12 -10.5 26.5t-24.5 28.5t-29.5 25t-25.5 17
q12 5 27.5 15.5t29.5 24t23.5 28.5t9.5 29q0 12 -4 25t-11 24.5t-17.5 19t-24.5 7.5q-13 0 -24 -8q-19 -13 -35 -28.5l-32 -31t-33 -30.5t-37 -29q-13 -8 -17 -18t-4 -24zM326 161q-2 2 -3.5 4t-3.5 4l14 -14l-10 10q1 -1 1.5 -2t1.5 -2zM39 340q30 21 54 43l19.5 19.5
t20.5 19.5q13 13 33 29.5t40 16.5q23 0 39 -16l50 -50q3 -4 6 -7.5t6 -8.5l18 18t19 18q10 10 21 19t23 17q5 4 12.5 7t16.5 3q23 0 39 -16l50 -50q14 -14 21 -34t7 -36q0 -13 -7.5 -27t-19 -27t-24.5 -23.5t-24 -17.5l37 -37q14 -14 26 -30t12 -32q0 -12 -6.5 -26
t-17 -26.5t-23.5 -21t-26 -8.5q-18 0 -41 17.5t-44 37.5l-42 42l-6 7q-8 8 -15 14t-12 10q10 -11 16 -22.5t6 -23.5t-6.5 -26t-17 -26.5t-23.5 -21t-26 -8.5q-18 0 -41 17.5t-44 37.5l-42 42l-1 2q-10 9 -17.5 16t-13.5 12q-12 9 -18 18l-32 32q-16 12 -21.5 24t-5.5 32
q0 17 5 28.5t20 22.5z" />
    <glyph glyph-name="logicalnot" unicode="&#xac;" horiz-adv-x="540" 
d="M99 459q23 2 45.5 2h45.5q51 0 102.5 -0.5t103.5 -0.5q20 0 38.5 -7.5t32.5 -21.5l50 -50q18 -18 22.5 -37t4.5 -44l-2 -30v-15q0 -14 2 -29t2 -29q0 -33 -19.5 -58t-54.5 -25q-15 0 -31 7t-27 18l-50 50q-21 21 -21 47v9q-16 -1 -31.5 -1h-30.5h-39h-45t-44 2
q-29 3 -46 20l-50 50q-11 11 -16.5 27.5t-5.5 35.5q0 33 14.5 54.5t49.5 25.5zM45 379q0 -29 13.5 -50t44.5 -23q26 -2 51 -2h50q38 0 78 1t76 9q-5 -18 -5 -38.5v-39.5q0 -13 6 -24.5t16 -19.5t22.5 -13t24.5 -5q32 0 48 22t16 51q0 14 -2 29t-2 29v15l2 30v15q0 37 -26 61
t-62 24q-45 0 -88.5 0.5t-88.5 0.5h-60t-59 -2q-30 -2 -42.5 -22t-12.5 -48z" />
    <glyph glyph-name="registered" unicode="&#xae;" horiz-adv-x="523" 
d="M15 499q0 53 17.5 97t49 76t75 49.5t96.5 17.5t98.5 -18t78.5 -51l50 -50q31 -30 48 -71t17 -91q0 -55 -17 -100t-48.5 -76t-76 -48t-100.5 -17q-110 0 -175 65l-50 50q-30 30 -46.5 72t-16.5 95zM253 277q53 0 96 16t73 46t46.5 73t16.5 96q0 50 -18 91t-49.5 70t-74 45
t-90.5 16q-51 0 -93 -17t-72 -48t-46.5 -73t-16.5 -93q0 -52 16.5 -93t46.5 -69.5t72 -44t93 -15.5zM88 500q0 76 45 122.5t122 46.5q34 0 65 -11.5t55 -32.5t38.5 -50t14.5 -64q0 -40 -12 -73t-35 -57t-55 -37t-73 -13q-78 0 -121.5 46t-43.5 123zM325 358q11 0 18 5.5
t11 14t6 18t2 17.5q0 25 -6.5 33t-15.5 9t-18.5 0.5t-15.5 8.5q19 13 32 36t13 46q0 28 -8.5 46.5t-23.5 30t-36 16t-46 4.5q-16 0 -32 -0.5t-28 -6t-19.5 -17t-7.5 -32.5q0 -14 3 -20.5t16 -11.5v-150q0 -47 47 -47q13 0 19.5 5t9 13t2.5 18v21q9 -13 15.5 -23.5t14.5 -18
t19 -11.5t29 -4zM246 564q10 0 17.5 -4t7.5 -16q0 -10 -6 -22.5t-19 -13.5v56zM261 548q-2 4 -5 5z" />
    <glyph glyph-name="macron" unicode="&#xaf;" horiz-adv-x="387" 
d="M388 707q20 -19 20 -62q0 -29 -5.5 -46.5t-17 -26.5t-30.5 -12t-46 -3l-39 2q-5 1 -10 1h-10q-9 0 -18.5 -0.5t-18.5 -1.5l-25 -1q-9 -1 -18.5 -1h-18.5q-39 0 -57 19l-50 50q-20 19 -20 60q0 38 18 63.5t60 25.5h10.5t10.5 -1l42 -2h21q23 0 46 3t46 3q40 0 60 -20z
M278 767q-23 0 -46 -3t-46 -3h-21l-42 2q-5 1 -10.5 1h-10.5q-38 0 -53 -22.5t-15 -56.5q0 -35 16 -52t51 -17h18.5t18.5 1l25 1q9 1 18.5 1.5t18.5 0.5h10t10 -1l39 -2q25 0 42 2t27.5 10t15 23.5t4.5 42.5q0 37 -16 54.5t-54 17.5z" />
    <glyph glyph-name="degree" unicode="&#xb0;" horiz-adv-x="322" 
d="M164 692q31 0 58 -12t47 -32l50 -50q20 -19 31 -45t11 -55q0 -34 -11.5 -62.5t-32.5 -48.5t-50 -31t-63 -11q-29 0 -55 11.5t-46 31.5l-50 50q-20 20 -31.5 46t-11.5 55q0 31 12.5 58.5t33.5 48.5t49 33.5t59 12.5zM20 539q0 -27 11 -51.5t29 -42.5t42.5 -29t51.5 -11
q65 0 106 38.5t41 104.5q0 28 -11 52.5t-29.5 42.5t-43.5 28.5t-53 10.5q-29 0 -55 -11.5t-46 -31t-31.5 -45.5t-11.5 -55zM135 544q0 11 8 20.5t20 9.5t20.5 -9.5t8.5 -20.5q0 -12 -9 -20t-20 -8q-12 0 -20 8t-8 20z" />
    <glyph glyph-name="plusminus" unicode="&#xb1;" horiz-adv-x="508" 
d="M175 234q-36 2 -53 19l-50 50q-19 19 -19 60q0 45 18 64.5t61 19.5q11 1 22 0.5t23 -0.5q0 11 -0.5 21.5t-0.5 21.5q0 42 19 58.5t60 16.5q21 0 36.5 -3.5t25.5 -13.5l50 -50q16 -16 17 -49q36 -3 51 -18l50 -50q18 -18 18 -64q0 -44 -17 -63t-62 -19q-10 0 -19.5 0.5
t-19.5 0.5v-12q0 -11 -0.5 -21t-2.5 -20q37 0 56 -19l50 -50q19 -19 19 -57q0 -20 -5 -37t-16 -29q-21 -19 -56 -19h-40l-82 2q-10 1 -20 1h-21q-19 0 -38 -2.5t-39 -2.5q-39 0 -61 20l-50 51q-21 21 -21 62q0 38 14 58t55 20h80q-14 6 -22 18.5t-10 34.5zM186 295
q-1 -13 -1 -26v-26q0 -38 17.5 -48.5t51.5 -10.5q29 0 43.5 9.5t20.5 25t6.5 35.5t0.5 42q13 0 25 -0.5t24 -0.5q40 0 54.5 16t14.5 56q0 32 -8.5 47t-23 20t-34.5 4.5t-44 -0.5h-10q1 14 1 27.5v27.5q0 38 -16.5 50t-52.5 12q-32 0 -46.5 -10t-19 -26.5t-3 -37.5t1.5 -44
h-49q-42 0 -59 -15.5t-17 -58.5q0 -31 11 -46t28 -19.5t39.5 -3.5t44.5 1zM382 173q-64 0 -127.5 -1t-127.5 -1q-37 0 -48 -17.5t-11 -50.5q0 -73 72 -73q20 0 39 2.5t38 2.5q42 0 82 -1.5t81 -1.5q37 0 52 20t15 55q0 66 -65 66z" />
    <glyph glyph-name="twosuperior" unicode="&#xb2;" horiz-adv-x="354" 
d="M96 438q-2 2 -3.5 3t-3.5 3l-50 50q-10 11 -16 24.5t-6 27.5q0 28 13.5 52.5t35 42.5t48 28t52.5 10q35 0 65.5 -10t51.5 -31l50 -50q17 -17 26 -40.5t9 -54.5q0 -71 -43 -125l33 -32q10 -11 14 -26t4 -29q0 -29 -15.5 -49t-46.5 -20h-26l-53 3h-26h-17l-34 -1h-17
q-17 0 -30 3.5t-21 12.5l-50 50q-15 14 -15 45q0 36 22.5 63.5t48.5 49.5zM35 325q0 -22 7.5 -32.5t20 -14.5t28 -3.5t31.5 0.5h37h26l53 -3h26q26 0 39 17.5t13 41.5q0 23 -10 41t-36 18q-10 0 -19.5 -0.5t-18.5 -1.5q36 31 56 69t20 86q0 32 -11 56t-30 39.5t-45 23
t-56 7.5q-24 0 -49 -9.5t-45 -26t-32.5 -39t-12.5 -48.5q0 -23 16 -42t40 -19t34 11t14.5 24t9 24t18.5 11q11 0 19 -4.5t8 -16.5q0 -26 -23.5 -49t-52 -47.5t-52 -51.5t-23.5 -61z" />
    <glyph glyph-name="threesuperior" unicode="&#xb3;" horiz-adv-x="360" 
d="M355 595q15 -15 23 -38t8 -58q0 -46 -29 -78q16 -15 24 -35t8 -43q0 -37 -12.5 -62t-34 -40.5t-50.5 -22.5t-63 -7q-30 0 -58.5 12t-49.5 33l-50 50q-17 17 -27.5 39.5t-10.5 49.5q0 14 5 29t16 26q15 14 33 15l-29 30q-11 10 -16.5 23t-5.5 27q0 29 13.5 53.5t34.5 42.5
t48 28t54 10q39 0 69 -7t50 -27zM292 471q17 15 25.5 35t8.5 43q0 37 -9.5 60t-27.5 36.5t-44 18.5t-59 5q-25 0 -50 -9.5t-45 -26t-32.5 -39t-12.5 -49.5q0 -23 17 -41.5t40 -18.5q20 0 29 13t15 28.5t14 28.5t24 13q21 0 21 -22t-10.5 -28.5t-23 -10t-23 -10t-10.5 -28.5
q0 -27 11 -35.5t24 -10.5t24 -5t11 -20q0 -12 -10 -14.5t-19 -2.5q-17 0 -23 11.5t-11.5 26t-15.5 26t-36 11.5q-25 0 -38 -19.5t-13 -41.5q0 -27 11.5 -49.5t30.5 -39t43.5 -26t50.5 -9.5q31 0 58.5 6t47.5 20t32 37.5t12 58.5q0 49 -37 78z" />
    <glyph glyph-name="acute" unicode="&#xb4;" horiz-adv-x="315" 
d="M192 811q14 0 29.5 -8t27.5 -21l50 -50q23 -21 23 -45q0 -22 -20.5 -46.5t-49 -45t-58.5 -34t-48 -13.5q-8 0 -15 4.5t-15 11.5l-50 50q-12 13 -20.5 28t-8.5 25q0 16 19 40.5t44.5 47.5t51.5 39.5t40 16.5zM47 667q0 -6 5 -16t12.5 -19.5t16 -16.5t15.5 -7q17 0 45 13
t55 32.5t46.5 42t19.5 41.5q0 11 -7 22.5t-17.5 20.5t-22.5 15t-23 6q-12 0 -36.5 -16t-48.5 -38t-42 -44.5t-18 -35.5z" />
    <glyph glyph-name="paragraph" unicode="&#xb6;" horiz-adv-x="630" 
d="M637 582q11 -11 14.5 -26t3.5 -30q0 -10 -2.5 -24t-8.5 -26t-15 -20.5t-22 -9.5h-15q-3 -48 -4 -94t-1 -94q0 -73 1 -146t1 -146q0 -23 -3.5 -41.5t-16.5 -30.5q-16 -18 -55 -18q-11 0 -28 5.5t-29 17.5l-20 20q-4 -13 -14 -25q-11 -11 -26 -15t-31 -4q-12 0 -31.5 6.5
t-33.5 20.5l-50 50q-6 6 -10 14t-4 17l2 183q-27 9 -50.5 22t-41.5 31l-50 50q-24 24 -37.5 56.5t-13.5 74.5q0 71 30.5 120.5t79.5 80.5t110.5 44.5t123.5 13.5h40.5t44.5 -1q23 -2 45 -4t41 -7q17 -5 26 -15zM409 504q-2 -85 -4 -168.5t-2 -168.5q0 -48 0.5 -94t0.5 -94
q0 -10 6.5 -18t15.5 -13.5t19.5 -8.5t18.5 -3q28 0 41.5 9.5t19 25.5t5 36t-0.5 40q0 66 -1 130.5t-1 130.5q0 50 1 99t5 99h23q11 0 18 8t12 19t7 23t2 20q0 20 -7 38t-30 23q-40 8 -83.5 10t-84.5 2q-59 0 -118.5 -13t-107.5 -42t-78 -77t-30 -117q0 -44 15.5 -76.5
t41.5 -55.5t61 -36.5t75 -18.5l-2 -230q0 -11 7.5 -20t18 -15t22.5 -9.5t21 -3.5q22 0 41.5 9.5t21.5 34.5q2 23 2.5 47t1.5 47q2 49 4 97.5t2 97.5q0 60 1 118t3 118h16z" />
    <glyph glyph-name="periodcentered" unicode="&#xb7;" horiz-adv-x="276" 
d="M265 349q26 -26 26 -78q0 -54 -25.5 -85.5t-81.5 -31.5q-45 0 -70 25l-50 50q-15 14 -22 36t-7 48q0 46 25 79.5t74 33.5q54 0 81 -27zM231 321q0 95 -97 95q-22 0 -39 -8.5t-28 -22.5t-16.5 -32.5t-5.5 -39.5q0 -45 20.5 -72t68.5 -27q51 0 74 29.5t23 77.5z" />
    <glyph glyph-name="cedilla" unicode="&#xb8;" horiz-adv-x="319" 
d="M92 -80q-5 5 -8.5 11.5t-3.5 15.5q0 14 7.5 29.5t19.5 28.5t27 21.5t30 8.5q11 0 21.5 -3t18.5 -11l50 -50q5 -5 8 -11.5t4 -14.5v-7l29 -29q17 -8 29.5 -24.5t12.5 -52.5q0 -29 -13 -51t-34 -37t-47.5 -23t-52.5 -8q-18 0 -33 4.5t-26 15.5l-50 50q-18 18 -18 49
q0 21 7 38.5t32 17.5q9 1 22 0zM90 -53q0 -12 9.5 -20t20.5 -14t20.5 -10.5t9.5 -10.5q0 -7 -4 -10t-10 -3.5t-12 0t-10 0.5q-28 0 -34.5 -10.5t-6.5 -36.5q0 -32 19 -45.5t48 -13.5q24 0 48.5 7t44 21t32 34t12.5 47q0 28 -9.5 45.5t-36.5 26.5q-7 2 -17 7.5t-9 13.5
q0 3 0.5 6t0.5 7q0 20 -12 28.5t-30 8.5q-12 0 -25.5 -7.5t-24 -19.5t-17.5 -25.5t-7 -25.5z" />
    <glyph glyph-name="onesuperior" unicode="&#xb9;" horiz-adv-x="283" 
d="M173 680q32 0 54 -22l50 -50q19 -17 19 -46v-67l-3 -132v-67q0 -38 -17.5 -59.5t-57.5 -21.5q-34 0 -53 19l-50 50q-12 11 -17 27.5t-5 36.5v35.5t1 35.5q-12 9 -17 24l-50 50q-5 12 -7.5 25.5t-2.5 23.5q0 23 16.5 47.5t40.5 44.5t51 33t48 13zM27 542q0 -9 2 -21.5
t7 -24t13 -19t20 -7.5q10 0 19.5 6.5t17.5 11.5q0 -35 -1.5 -70t-1.5 -70q0 -33 15 -53t50 -20t50 18.5t15 52.5v67l3 132v67q0 26 -19 42t-44 16q-19 0 -44.5 -12.5t-48 -31.5t-38 -41.5t-15.5 -42.5zM96 467v2v-2z" />
    <glyph glyph-name="ordmasculine" unicode="&#xba;" horiz-adv-x="353" 
d="M340 626q21 -21 32.5 -50.5t11.5 -64.5q0 -42 -13.5 -77.5t-46.5 -61.5l41 -40q17 -17 17 -57q0 -19 -3.5 -36.5t-15.5 -28.5q-14 -16 -45 -16q-20 0 -40.5 2t-40.5 2q-23 0 -44.5 -2.5t-44.5 -2.5q-18 0 -30.5 4.5t-21.5 12.5l-50 50q-18 20 -18 57q0 41 18 60.5
t59 21.5l-40 40q-22 22 -34 50.5t-12 62.5q0 36 11.5 66t33 52.5t51 35t65.5 12.5q35 0 62.5 -11t47.5 -31zM178 403q72 0 109 44.5t37 113.5q0 33 -10 60t-29 46.5t-45.5 30t-59.5 10.5q-34 0 -62 -12t-47.5 -33t-30.5 -49.5t-11 -61.5q0 -31 11.5 -58.5t31.5 -47.5
t47.5 -31.5t58.5 -11.5zM146 557q0 36 37 36q16 0 27.5 -9.5t11.5 -26.5q0 -18 -13.5 -29.5t-30.5 -11.5q-16 0 -24 13.5t-8 27.5zM118 390q-39 0 -59.5 -14.5t-20.5 -58.5q0 -32 13.5 -48t46.5 -16q23 0 44.5 2.5t44.5 2.5q20 0 40.5 -2t40.5 -2q35 0 44.5 20.5t9.5 50.5
q0 24 -6 37t-17 19t-27 7.5t-36 1.5h-118z" />
    <glyph glyph-name="guillemotright" unicode="&#xbb;" horiz-adv-x="521" 
d="M522 290q15 -11 20 -22.5t5 -28.5q0 -20 -5.5 -32t-21.5 -24q-6 -5 -14 -12.5t-18 -17.5l-42 -42q-21 -20 -44 -37.5t-41 -17.5q-11 0 -21.5 6t-20.5 15l-50 50q-4 4 -8 10q-7 -7 -13.5 -13t-12.5 -13q-21 -20 -44 -37.5t-41 -17.5q-11 0 -21.5 6t-20.5 15l-50 50
q-14 14 -22.5 31t-8.5 30q0 12 8 25.5t19.5 26t24 23t22.5 17.5l-40 39q-14 14 -24 30.5t-10 32.5q0 14 4.5 29t13 28t21 21t28.5 8q9 0 16.5 -3t12.5 -7q12 -8 23 -17t21 -19q11 -10 20.5 -19.5l19.5 -19.5t20.5 -18.5t22.5 -16.5q-5 8 -8.5 17t-3.5 17q0 14 4.5 29.5
t13 28t21 20.5t28.5 8q20 0 40 -16.5t33 -29.5q11 -10 20.5 -19.5l19.5 -19.5q24 -22 54 -43zM487 289q0 14 -4 24t-16 18q-21 14 -38 29t-33 30.5l-32 31t-35 28.5q-11 8 -24 8t-24 -7.5t-18 -19t-11 -24.5t-4 -25q0 -14 9.5 -29t23.5 -28.5t29.5 -24t27.5 -15.5
q-10 -6 -25.5 -17t-29.5 -25t-24.5 -28.5t-10.5 -26.5q0 -10 6 -22.5t15.5 -23.5t20.5 -18.5t21 -7.5q15 0 35.5 16t42.5 37t42 42t33 30q14 10 18.5 20.5t4.5 27.5zM276 289q0 14 -4 24t-17 18q-20 14 -37 29t-33 30.5l-32 31t-35 28.5q-11 8 -24 8t-24 -7.5t-18 -19
t-11 -24.5t-4 -25q0 -14 9.5 -29t23.5 -28.5t29.5 -24t27.5 -15.5q-10 -6 -25.5 -17t-29.5 -25t-24.5 -28.5t-10.5 -26.5q0 -10 6 -22.5t15.5 -23.5t20.5 -18.5t21 -7.5q15 0 35.5 16t42.5 37t42 42t33 30q14 10 18.5 20.5t4.5 27.5zM260 234q1 0 1 1z" />
    <glyph glyph-name="onequarter" unicode="&#xbc;" horiz-adv-x="762" 
d="M737 329q16 -16 16 -41q0 -34 -1.5 -67.5t-2.5 -67.5q21 -10 25.5 -29.5t4.5 -36.5l1 -20l-3 -19q-6 -19 -27 -26q-2 -45 -22.5 -69.5t-66.5 -24.5q-22 0 -39 17l-50 50q-7 6 -14 18q-21 0 -44.5 4.5t-39.5 20.5l-50 50q-2 2 -3 3.5t-3 3.5q-16 -26 -32 -51t-33 -51
l-16 -25l-23 -28q-12 -14 -27 -24.5t-33 -10.5q-37 0 -59 24l-50 50q-24 22 -24 59q0 16 15 45t33 58q9 16 19 31t18 29q-13 5 -20 13l-50 50q-12 11 -17 27.5t-5 36.5v35.5t1 35.5q-12 9 -17 24l-50 50q-5 12 -7.5 25.5t-2.5 23.5q0 23 16.5 47.5t40.5 44.5t51 33t48 13
q32 0 54 -22l50 -50q19 -17 19 -46q0 -42 -0.5 -84.5t-1.5 -84.5q26 45 52.5 89t52.5 89q8 13 17.5 27t21.5 26q13 13 29.5 21.5t37.5 8.5q32 0 56 -24l50 -50q23 -23 23 -54q0 -15 -5 -28.5t-11 -25.5q-14 -27 -29 -52q5 1 9 1h9q16 0 32 -5.5t27 -16.5zM48 522
q0 -9 2 -21.5t7 -24t13 -19t20 -7.5q10 0 19.5 6.5t17.5 11.5q0 -35 -1.5 -70t-1.5 -70q0 -33 15 -53t50 -20t50 18.5t15 52.5v67l3 132v67q0 26 -19 42t-44 16q-19 0 -44.5 -12.5t-48 -31.5t-38 -41.5t-15.5 -42.5zM595 556q0 28 -20.5 48t-48.5 20q-18 0 -32.5 -7t-26 -18
t-21 -25t-17.5 -28q-47 -78 -92 -156.5t-96 -154.5q-9 -13 -27 -40.5t-36.5 -58t-32.5 -58t-14 -40.5q0 -32 20.5 -52.5t52.5 -20.5q14 0 27.5 9t25.5 22.5t21.5 28t16.5 24.5q33 51 65.5 102.5t64.5 102.5q40 63 80 125.5t75 127.5q6 11 10.5 23.5t4.5 25.5zM117 447v2v-2z
M693 338q0 27 -20.5 40t-44.5 13q-18 0 -32 -5t-26 -19q-38 -42 -73 -88.5t-68 -93.5q-13 -20 -13 -48t15 -41.5t37 -18.5t47 -4t44 2q-1 -5 -1 -10.5v-10.5q0 -11 3.5 -23t10.5 -21.5t16.5 -15.5t22.5 -6q46 0 62.5 24.5t16.5 66.5q20 5 24.5 14.5t4.5 28.5v22t-2.5 21.5
t-8.5 18.5t-19 12q1 35 2.5 71t1.5 71zM584 189l-42 -1l43 61z" />
    <glyph glyph-name="onehalf" unicode="&#xbd;" horiz-adv-x="747" 
d="M179 660q32 0 54 -22l50 -50q19 -17 19 -46q0 -42 -0.5 -84.5t-1.5 -84.5q26 45 52.5 89t52.5 89q8 13 17.5 27t21.5 26q13 13 29.5 21.5t37.5 8.5q32 0 56 -24l50 -50q23 -23 23 -54q0 -15 -5 -28.5t-11 -25.5q-21 -38 -41 -73q32 -2 58.5 -12t46.5 -29l50 -50
q35 -35 35 -95q0 -34 -15.5 -62t-37.5 -52l43 -43q10 -11 14 -26t4 -29q0 -29 -15.5 -49t-46.5 -20h-26l-53 3h-26q-17 0 -34 -0.5t-34 -0.5t-30 3.5t-21 12.5l-50 50q-15 13 -15 45q0 27 13.5 49t32.5 41q8 8 15 14t14 13l-44 44q-31 -48 -61 -96.5t-62 -96.5l-16 -25
l-23 -28q-12 -14 -27 -24.5t-33 -10.5q-37 0 -59 24l-50 50q-24 22 -24 59q0 16 15 45t33 58q9 16 19 31t18 29q-13 5 -20 13l-50 50q-12 11 -17 27.5t-5 36.5v35.5t1 35.5q-12 9 -17 24l-50 50q-5 12 -7.5 25.5t-2.5 23.5q0 23 16.5 47.5t40.5 44.5t51 33t48 13zM33 522
q0 -9 2 -21.5t7 -24t13 -19t20 -7.5q10 0 19.5 6.5t17.5 11.5q0 -35 -1.5 -70t-1.5 -70q0 -33 15 -53t50 -20t50 18.5t15 52.5v67l3 132v67q0 26 -19 42t-44 16q-19 0 -44.5 -12.5t-48 -31.5t-38 -41.5t-15.5 -42.5zM580 556q0 28 -20.5 48t-48.5 20q-18 0 -32.5 -7t-26 -18
t-21 -25t-17.5 -28q-47 -78 -92 -156.5t-96 -154.5q-9 -13 -27 -40.5t-36.5 -58t-32.5 -58t-14 -40.5q0 -32 20.5 -52.5t52.5 -20.5q14 0 27.5 9t25.5 22.5t21.5 28t16.5 24.5q33 51 65.5 102.5t64.5 102.5q40 63 80 125.5t75 127.5q6 11 10.5 23.5t4.5 25.5zM102 447v2v-2z
M440 25q0 -22 7.5 -33t20 -14.5t28 -3t31.5 0.5h37h26l53 -3h26q26 0 39 17.5t13 41.5q0 23 -10 41t-36 18q-17 0 -33.5 -1.5t-33.5 -3.5q18 15 36.5 32.5t33.5 37t25 41.5t10 47q0 32 -11 56t-30 39.5t-45 23t-56 7.5q-25 0 -48 -10t-41 -26.5t-29 -39t-11 -48.5
q0 -23 16 -42t40 -19t32 11t11 24.5t6 24.5t17 11q11 0 19 -4.5t8 -16.5q0 -26 -23.5 -49t-52 -47.5t-52 -51.5t-23.5 -61z" />
    <glyph glyph-name="threequarters" unicode="&#xbe;" horiz-adv-x="788" 
d="M767 329q16 -16 16 -41q0 -34 -1.5 -67.5t-2.5 -67.5q21 -10 25.5 -29.5t4.5 -36.5l1 -20l-3 -19q-6 -19 -27 -26q-2 -45 -22.5 -69.5t-66.5 -24.5q-22 0 -39 17l-50 50q-7 6 -14 18q-21 0 -44.5 4.5t-39.5 20.5l-50 50q-2 2 -3 3.5t-3 3.5q-16 -26 -32 -51t-33 -51
l-16 -25l-23 -28q-12 -14 -27 -24.5t-33 -10.5q-37 0 -59 24l-50 50q-24 22 -24 59q0 12 10.5 34.5t24.5 47t28.5 47.5t22.5 35q-5 -1 -9 -1h-9q-30 0 -58.5 12t-49.5 33l-50 50q-17 17 -27.5 39.5t-10.5 49.5q0 14 5 29t16 26q15 14 33 15l-29 30q-11 10 -16.5 23t-5.5 27
q0 29 13.5 53.5t34.5 42.5t48 28t54 10q39 0 69 -7t50 -27l50 -50q15 -15 23 -38t8 -58q0 -46 -29 -78q3 -3 6 -6.5t6 -7.5q23 38 45.5 77t45.5 77q8 13 17.5 27t21.5 26q13 13 29.5 21.5t37.5 8.5q32 0 56 -24l50 -50q23 -23 23 -54q0 -15 -5 -28.5t-11 -25.5
q-14 -27 -29 -52q5 1 9 1h9q16 0 32 -5.5t27 -16.5zM282 461q17 15 25.5 35t8.5 43q0 37 -9.5 60t-27.5 36.5t-44 18.5t-59 5q-25 0 -50 -9.5t-45 -26t-32.5 -39t-12.5 -49.5q0 -23 17 -41.5t40 -18.5q20 0 29 13t15 28.5t14 28.5t24 13q21 0 21 -22t-10.5 -28.5t-23 -10
t-23 -10t-10.5 -28.5q0 -27 11 -35.5t24 -10.5t24 -5t11 -20q0 -12 -10 -14.5t-19 -2.5q-17 0 -23 11.5t-11.5 26t-15.5 26t-36 11.5q-25 0 -38 -19.5t-13 -41.5q0 -27 11.5 -49.5t30.5 -39t43.5 -26t50.5 -9.5q31 0 58.5 6t47.5 20t32 37.5t12 58.5q0 49 -37 78zM625 556
q0 28 -20.5 48t-48.5 20q-18 0 -32.5 -7t-26 -18t-21 -25t-17.5 -28q-47 -78 -92 -156.5t-96 -154.5q-9 -13 -27 -40.5t-36.5 -58t-32.5 -58t-14 -40.5q0 -32 20.5 -52.5t52.5 -20.5q14 0 27.5 9t25.5 22.5t21.5 28t16.5 24.5q33 51 65.5 102.5t64.5 102.5q40 63 80 125.5
t75 127.5q6 11 10.5 23.5t4.5 25.5zM153 527q-3 -4 -7 -14l13 26q-3 -4 -6 -12zM723 338q0 27 -20.5 40t-44.5 13q-18 0 -32 -5t-26 -19q-38 -42 -73 -88.5t-68 -93.5q-13 -20 -13 -48t15 -41.5t37 -18.5t47 -4t44 2q-1 -5 -1 -10.5v-10.5q0 -11 3.5 -23t10.5 -21.5
t16.5 -15.5t22.5 -6q46 0 62.5 24.5t16.5 66.5q20 5 24.5 14.5t4.5 28.5v22t-2.5 21.5t-8.5 18.5t-19 12q1 35 2.5 71t1.5 71zM614 189l-42 -1l43 61z" />
    <glyph glyph-name="questiondown" unicode="&#xbf;" horiz-adv-x="467" 
d="M248 559q34 0 57 -23l50 -50q14 -13 20.5 -31t6.5 -38q0 -42 -26 -70q-5 -5 -11 -9t-13 -7l23 -22q8 -9 13 -20.5t5 -26.5q0 -50 -12 -83q35 -1 60 -27l50 -50q26 -26 26 -61q0 -42 -18.5 -78t-48.5 -62.5t-68.5 -41.5t-78.5 -15q-51 0 -93.5 12.5t-71.5 41.5l-50 50
q-22 22 -34 53.5t-12 75.5q0 26 4 45.5t12 36t21.5 30.5t32.5 29q14 9 27 16.5t24 16.5q11 8 19.5 18t13.5 24l4 14l4 14q4 16 9 27q6 15 20 23l-32 32q-11 11 -17.5 26t-6.5 32q0 41 24.5 69.5t66.5 28.5zM167 461q0 -34 25 -55t57 -21q36 0 54.5 24t18.5 58
q0 33 -19.5 57.5t-54.5 24.5q-38 0 -59.5 -26t-21.5 -62zM234 49q-21 0 -36 5.5t-15 30.5q0 16 9.5 26.5t24 21t31.5 22.5t31.5 32t24 50t9.5 75q0 28 -19.5 43t-45.5 15q-20 0 -30.5 -7t-16 -18.5t-8.5 -26t-8 -28.5q-7 -20 -21 -33.5t-31 -24.5t-35 -22t-32.5 -28t-24 -42
t-9.5 -63q0 -48 15 -81t42 -53.5t64 -29.5t80 -9q38 0 74.5 14.5t65.5 39.5t46.5 59t17.5 74q0 32 -24 55t-55 23q-19 0 -28.5 -9t-15 -22t-9 -29t-11 -29t-21.5 -22t-39 -9zM284 82q-7 -5 -13 -9t-11 -8l-3 -3q12 3 20 11q2 2 3.5 4.5t3.5 4.5z" />
    <glyph glyph-name="Agrave" unicode="&#xc0;" 
d="M-5 66q0 21 5 55t13.5 74t19.5 83.5t23 84.5t24 76t23 57q17 44 47 72.5t80 33.5q-7 6 -13.5 11.5t-12.5 11.5l-50 50q-15 16 -24.5 32t-9.5 30q0 13 8 26.5t20 24t26 17t26 6.5q17 0 47.5 -21.5t58.5 -49.5l50 -50q20 -20 34.5 -40t14.5 -33q0 -10 -8.5 -25t-20.5 -28
q-3 -2 -5.5 -4t-4.5 -4q-1 0 -1 -0.5t-1 -0.5l24 -24q28 -17 46 -52.5t29 -74.5q12 -39 18.5 -78.5t11.5 -67.5q5 -32 11.5 -66.5t11.5 -69.5t9 -70t4 -67q0 -22 -8 -36t-21.5 -22.5t-31.5 -11.5t-37 -3q-35 0 -54.5 12.5t-29.5 33.5l-50 50q-7 15 -12 33h-50l-5 -32
q-3 -20 -8.5 -36t-19.5 -32q-9 -9 -22.5 -14.5t-32.5 -5.5q-54 0 -79 24l-50 50q-11 12 -17 29t-6 42zM345 667q0 13 -18 35.5t-42 44.5t-48.5 38t-36.5 16q-10 0 -22.5 -6t-23 -15t-17.5 -20.5t-7 -22.5q0 -19 19.5 -41.5t46 -42t54.5 -32.5t46 -13q7 0 15.5 7t16 16.5
t12.5 19.5t5 16zM97 -19q26 0 41 11.5t22.5 29t10 39t5.5 40.5h107q6 -25 10 -48t13 -41t26 -29t49 -11q17 0 32.5 2.5t28 9t20 19t7.5 32.5q0 26 -4 61.5t-9.5 73t-11.5 73.5t-11 63q-4 27 -11 66t-18 78t-28.5 72.5t-43.5 50.5q-19 12 -41 16t-44 4q-38 0 -63 -13.5
t-42.5 -35.5t-29.5 -51t-23 -60q-6 -18 -15 -47.5t-18.5 -64t-18.5 -72t-16 -72t-11.5 -64t-4.5 -47.5q0 -48 23 -66.5t69 -18.5zM203 247q0 7 4 29.5t10 47t13.5 44t15.5 19.5q6 0 10 -17.5t6 -39t3 -42t1 -26.5v-15h-63z" />
    <glyph glyph-name="Aacute" unicode="&#xc1;" 
d="M-5 66q0 21 5 55t13.5 74t19.5 83.5t23 84.5t24 76t23 57q11 27 28.5 52t44.5 39l-27 27q-13 13 -21 28t-8 25q0 16 19 40.5t44.5 47.5t51.5 39.5t40 16.5q13 0 28.5 -8t28.5 -21l50 -50q10 -10 16.5 -21.5t6.5 -23.5q0 -14 -8.5 -28.5t-20.5 -27.5t-26 -24t-25 -19
q3 -2 6 -3.5l7 -3.5l50 -50q28 -17 46 -52.5t29 -74.5q12 -39 18.5 -78.5t11.5 -67.5q5 -32 11.5 -66.5t11.5 -69.5t9 -70t4 -67q0 -22 -8 -36t-21.5 -22.5t-31.5 -11.5t-37 -3q-35 0 -54.5 12.5t-29.5 33.5l-50 50q-7 15 -12 33h-50l-5 -32q-3 -20 -8.5 -36t-19.5 -32
q-9 -9 -22.5 -14.5t-32.5 -5.5q-54 0 -79 24l-50 50q-11 12 -17 29t-6 42zM130 667q0 -6 5 -16t12.5 -19.5t16 -16.5t15.5 -7q17 0 45 13t55 32.5t46.5 42t19.5 41.5q0 11 -7 22.5t-17.5 20.5t-23 15t-22.5 6q-13 0 -37 -16t-48 -38t-42 -44.5t-18 -35.5zM97 -19
q26 0 41 11.5t22.5 29t10 39t5.5 40.5h107q6 -25 10 -48t13 -41t26 -29t49 -11q17 0 32.5 2.5t28 9t20 19t7.5 32.5q0 26 -4 61.5t-9.5 73t-11.5 73.5t-11 63q-4 27 -11 66t-18 78t-28.5 72.5t-43.5 50.5q-19 12 -41 16t-44 4q-38 0 -63 -13.5t-42.5 -35.5t-29.5 -51
t-23 -60q-6 -18 -15 -47.5t-18.5 -64t-18.5 -72t-16 -72t-11.5 -64t-4.5 -47.5q0 -48 23 -66.5t69 -18.5zM203 247q0 7 4 29.5t10 47t13.5 44t15.5 19.5q6 0 10 -17.5t6 -39t3 -42t1 -26.5v-15h-63z" />
    <glyph glyph-name="Acircumflex" unicode="&#xc2;" 
d="M-5 66q0 21 5 55t13.5 74t19.5 83.5t23 84.5t24 76t23 57q12 30 30 54q5 5 9.5 10t9.5 10l-41 42q-13 13 -21.5 28.5t-8.5 27.5q0 14 20.5 37t47 45.5t52.5 38.5t38 16q11 0 25.5 -5.5t30 -14.5t32 -21t29.5 -26l50 -50q17 -17 27.5 -34t10.5 -32q0 -13 -8.5 -28.5
t-21.5 -27.5q-18 -20 -38 -23l12 -12q28 -17 46 -52.5t29 -74.5q12 -39 18.5 -78.5t11.5 -67.5q5 -32 11.5 -66.5t11.5 -69.5t9 -70t4 -67q0 -22 -8 -36t-21.5 -22.5t-31.5 -11.5t-37 -3q-35 0 -54.5 12.5t-29.5 33.5l-50 50q-7 15 -12 33h-50l-5 -32q-3 -20 -8.5 -36
t-19.5 -32q-9 -9 -22.5 -14.5t-32.5 -5.5q-54 0 -79 24l-50 50q-11 12 -17 29t-6 42zM91 668q0 -9 6.5 -21t16 -23t21 -18.5t20.5 -7.5q8 0 20 7.5t25 17.5t24.5 20t17.5 16q5 -6 15 -15.5t21 -18.5t22.5 -15.5t20.5 -6.5q10 0 21 7t20.5 17.5t15.5 22.5t6 22q0 17 -17 38.5
t-40 40t-48 31.5t-40 13q-11 0 -35.5 -16t-49.5 -37.5t-44 -42.5t-19 -31zM97 -19q26 0 41 11.5t22.5 29t10 39t5.5 40.5h107q6 -25 10 -48t13 -41t26 -29t49 -11q17 0 32.5 2.5t28 9t20 19t7.5 32.5q0 26 -4 61.5t-9.5 73t-11.5 73.5t-11 63q-4 27 -11 66t-18 78
t-28.5 72.5t-43.5 50.5q-19 12 -41 16t-44 4q-38 0 -63 -13.5t-42.5 -35.5t-29.5 -51t-23 -60q-6 -18 -15 -47.5t-18.5 -64t-18.5 -72t-16 -72t-11.5 -64t-4.5 -47.5q0 -48 23 -66.5t69 -18.5zM203 247q0 7 4 29.5t10 47t13.5 44t15.5 19.5q6 0 10 -17.5t6 -39t3 -42
t1 -26.5v-15h-63z" />
    <glyph glyph-name="Atilde" unicode="&#xc3;" 
d="M-5 66q0 21 5 55t13.5 74t19.5 83.5t23 84.5t24 76t23 57q8 20 18.5 36t24.5 33l-45 46q-16 15 -21 37.5t-5 39.5q0 21 7.5 42t21.5 37.5t33 26.5t42 10q25 0 51.5 -14t45.5 -30l10 -4l8 14q1 2 3 4q6 10 16.5 19.5t28.5 9.5q17 0 28.5 -9.5t17.5 -23.5l21 -20
q11 -4 17.5 -12t11.5 -18q7 -13 9.5 -27t2.5 -26q0 -18 -5 -37t-15 -36t-24.5 -29.5t-33.5 -16.5v-1l16 -16q28 -17 46 -52.5t29 -74.5q12 -39 18.5 -78.5t11.5 -67.5q5 -32 11.5 -66.5t11.5 -69.5t9 -70t4 -67q0 -22 -8 -36t-21.5 -22.5t-31.5 -11.5t-37 -3
q-35 0 -54.5 12.5t-29.5 33.5l-50 50q-7 15 -12 33h-50l-5 -32q-3 -20 -8.5 -36t-19.5 -32q-9 -9 -22.5 -14.5t-32.5 -5.5q-54 0 -79 24l-50 50q-11 12 -17 29t-6 42zM342 793q-14 0 -22.5 -7.5t-14.5 -17t-10 -17t-9 -7.5t-15 8t-24.5 17t-31.5 17t-36 8q-21 0 -38 -9.5
t-29.5 -24.5t-19.5 -34t-7 -38q0 -13 2.5 -27.5t9 -27t17 -20.5t26.5 -8q15 0 23.5 7t13 16t7 16t6.5 7q8 0 17.5 -7t23 -16t31 -16t39.5 -7t38.5 10t28 26.5t17 36.5t5.5 39q0 11 -2.5 24t-8 24.5t-14.5 19.5t-23 8zM193 640l9 -5q-3 2 -5 3zM97 -19q26 0 41 11.5t22.5 29
t10 39t5.5 40.5h107q6 -25 10 -48t13 -41t26 -29t49 -11q17 0 32.5 2.5t28 9t20 19t7.5 32.5q0 26 -4 61.5t-9.5 73t-11.5 73.5t-11 63q-4 27 -11 66t-18 78t-28.5 72.5t-43.5 50.5q-19 12 -41 16t-44 4q-38 0 -63 -13.5t-42.5 -35.5t-29.5 -51t-23 -60q-6 -18 -15 -47.5
t-18.5 -64t-18.5 -72t-16 -72t-11.5 -64t-4.5 -47.5q0 -48 23 -66.5t69 -18.5zM203 247q0 7 4 29.5t10 47t13.5 44t15.5 19.5q6 0 10 -17.5t6 -39t3 -42t1 -26.5v-15h-63z" />
    <glyph glyph-name="Adieresis" unicode="&#xc4;" 
d="M-5 66q0 21 5 55t13.5 74t19.5 83.5t23 84.5t24 76t23 57q10 26 24.5 46.5t36.5 37.5q-2 1 -6 5l-50 50q-14 14 -20.5 32.5t-6.5 37.5q0 38 20.5 64t60.5 26q36 0 57 -23l21 -21q3 7 7 12.5t9 10.5q21 21 56 21q36 0 57 -23l50 -50q25 -23 25 -61q0 -18 -6 -35.5
t-17 -31.5t-26.5 -22.5t-35.5 -8.5q-1 1 -4 1l33 -33q28 -17 46 -52.5t29 -74.5q12 -39 18.5 -78.5t11.5 -67.5q5 -32 11.5 -66.5t11.5 -69.5t9 -70t4 -67q0 -22 -8 -36t-21.5 -22.5t-31.5 -11.5t-37 -3q-35 0 -54.5 12.5t-29.5 33.5l-50 50q-7 15 -12 33h-50l-5 -32
q-3 -20 -8.5 -36t-19.5 -32q-9 -9 -22.5 -14.5t-32.5 -5.5q-54 0 -79 24l-50 50q-11 12 -17 29t-6 42zM234 711q0 32 -20 53t-52 21q-35 0 -53 -23.5t-18 -56.5q0 -31 18.5 -56.5t52.5 -25.5q17 0 30.5 8t22.5 20.5t14 28.5t5 31zM384 711q0 32 -20 53t-52 21
q-35 0 -53 -23.5t-18 -56.5q0 -31 18.5 -56.5t52.5 -25.5q17 0 30.5 8t22.5 20.5t14 28.5t5 31zM282 611l-6 -9q5 -1 9.5 -1.5t9.5 -1.5zM97 -19q26 0 41 11.5t22.5 29t10 39t5.5 40.5h107q6 -25 10 -48t13 -41t26 -29t49 -11q17 0 32.5 2.5t28 9t20 19t7.5 32.5
q0 26 -4 61.5t-9.5 73t-11.5 73.5t-11 63q-4 27 -11 66t-18 78t-28.5 72.5t-43.5 50.5q-19 12 -41 16t-44 4q-38 0 -63 -13.5t-42.5 -35.5t-29.5 -51t-23 -60q-6 -18 -15 -47.5t-18.5 -64t-18.5 -72t-16 -72t-11.5 -64t-4.5 -47.5q0 -48 23 -66.5t69 -18.5zM203 247
q0 7 4 29.5t10 47t13.5 44t15.5 19.5q6 0 10 -17.5t6 -39t3 -42t1 -26.5v-15h-63z" />
    <glyph glyph-name="Aring" unicode="&#xc5;" 
d="M-5 66q0 21 5 55t13.5 74t19.5 83.5t23 84.5t24 76t23 57q13 32 33 57.5t52 39.5l-38 38q-32 32 -32 80q0 26 9.5 48t26 38.5t38.5 26t48 9.5q50 0 84 -34l50 -50q15 -15 24 -35.5t9 -45.5q0 -26 -9.5 -49.5t-26.5 -40.5q-4 -3 -7 -6t-7 -6q-1 0 -1.5 -0.5t-1.5 -0.5
l34 -34q28 -17 46 -52.5t29 -74.5q12 -39 18.5 -78.5t11.5 -67.5q5 -32 11.5 -66.5t11.5 -69.5t9 -70t4 -67q0 -22 -8 -36t-21.5 -22.5t-31.5 -11.5t-37 -3q-35 0 -54.5 12.5t-29.5 33.5l-50 50q-7 15 -12 33h-50l-5 -32q-3 -20 -8.5 -36t-19.5 -32q-9 -9 -22.5 -14.5
t-32.5 -5.5q-54 0 -79 24l-50 50q-11 12 -17 29t-6 42zM128 711q0 -24 9 -43.5t24.5 -33.5t36 -21.5t43.5 -7.5q24 0 43.5 9t33.5 24.5t21.5 36t7.5 43.5t-8.5 42t-23 33t-34 22t-41.5 8q-48 0 -80 -32t-32 -80zM223 714q0 8 2.5 20t14.5 12q11 0 14 -9t3 -18t-3.5 -20.5
t-15.5 -11.5q-8 0 -11.5 10t-3.5 17zM97 -19q26 0 41 11.5t22.5 29t10 39t5.5 40.5h107q6 -25 10 -48t13 -41t26 -29t49 -11q17 0 32.5 2.5t28 9t20 19t7.5 32.5q0 26 -4 61.5t-9.5 73t-11.5 73.5t-11 63q-4 27 -11 66t-18 78t-28.5 72.5t-43.5 50.5q-19 12 -41 16t-44 4
q-38 0 -63 -13.5t-42.5 -35.5t-29.5 -51t-23 -60q-6 -18 -15 -47.5t-18.5 -64t-18.5 -72t-16 -72t-11.5 -64t-4.5 -47.5q0 -48 23 -66.5t69 -18.5zM203 247q0 7 4 29.5t10 47t13.5 44t15.5 19.5q6 0 10 -17.5t6 -39t3 -42t1 -26.5v-15h-63z" />
    <glyph glyph-name="AE" unicode="&#xc6;" horiz-adv-x="658" 
d="M-5 66q0 23 6 62.5t16 86t23.5 97t29 96.5t32 83.5t31.5 58.5q19 24 46 38.5t68 14.5q21 0 43 -3.5t42 -14.5q16 6 52 10t75.5 6.5t74 4t48.5 1.5q17 0 32 -15l50 -50q16 -16 24.5 -39.5t8.5 -37.5q0 -32 -10.5 -56t-46.5 -29q-15 -2 -31 -3t-32 -3q14 -4 22 -13l50 -50
q11 -11 15.5 -28t4.5 -34q0 -27 -5 -45.5t-24 -37.5q6 -4 7 -5l50 -50q9 -10 14.5 -23.5t5.5 -31.5q0 -41 -4.5 -69t-18.5 -45t-40 -25.5t-68 -9.5q-19 -1 -37.5 -1h-37.5h-53t-39 1q-16 2 -28.5 5t-22.5 11l-4 4l-4 4l-42 42q-14 12 -20.5 31.5t-10.5 36.5h-52l-5 -32
q-3 -20 -8.5 -36t-19.5 -32q-9 -9 -22.5 -14.5t-32.5 -5.5q-54 0 -79 24l-50 50q-11 12 -17 29t-6 42zM97 -19q27 0 41.5 11.5t22 29t10 39t5.5 40.5h107q12 -48 17.5 -75t18.5 -40.5t40.5 -16.5t82.5 -3h47t47 1q41 1 64.5 9t36.5 24t16.5 42t3.5 64q0 33 -20 50t-52 17
q-13 0 -21.5 -6.5t-15 -15t-13 -15t-17.5 -6.5h-54l-6 89h109q14 0 22 9t12.5 21.5t6 26t1.5 23.5q0 27 -11 47.5t-42 20.5h-98l-5 62q34 3 68 5.5t68 5.5q16 2 25.5 8.5t14.5 17t6.5 23.5t1.5 26q0 9 -4.5 23t-12 27t-17.5 22.5t-21 9.5q-9 0 -30 -0.5t-46.5 -2t-54 -3.5
t-53 -5t-42.5 -6t-24 -7q-20 12 -41.5 16t-43.5 4q-38 0 -63 -13.5t-42.5 -35.5t-29.5 -51t-23 -60q-6 -18 -15 -47.5t-18.5 -64t-18.5 -72t-16 -72t-11.5 -64t-4.5 -47.5q0 -48 23 -66.5t69 -18.5zM203 247q0 7 4 29.5t10 47t13.5 44t15.5 19.5q6 0 10 -17.5t6 -39t3 -42
t1 -26.5v-15h-63zM244 373q-1 -2 -1.5 -4t-2.5 -5zM519 159l1 -18l9 3l12 14l1 1h-23z" />
    <glyph glyph-name="Ccedilla" unicode="&#xc7;" horiz-adv-x="437" 
d="M136 -80q-5 5 -9 11.5t-4 15.5q0 5 1 8l-53 53q-26 26 -40.5 60t-21 71t-8 74.5t-1.5 70.5q0 62 8 121.5t33 106t70 75t118 28.5q54 0 91 -13t61 -36l50 -50q35 -35 45.5 -89.5t10.5 -121.5q0 -19 -5.5 -32.5t-14.5 -23.5q-14 -13 -33 -18.5t-40 -6.5q14 -4 24 -14
l50 -50q12 -12 16 -30t4 -40q0 -71 -37 -119t-106 -62l11 -11q13 -8 19 -22.5t6 -43.5t-13.5 -51t-34.5 -37t-47 -23t-52 -8q-18 0 -33.5 4.5t-26.5 15.5l-50 50q-17 17 -17 49q0 18 3 31t14 20q12 5 22 5q9 1 21 0zM133 -53q0 -12 9.5 -20t21 -14t21 -10.5t9.5 -10.5
q0 -7 -4 -10t-10 -3.5t-12 0t-10 0.5q-29 0 -35 -10.5t-6 -36.5q0 -32 19 -45.5t48 -13.5q24 0 48 7t44 21t32.5 34t12.5 47q0 28 -6 40.5t-16 18.5t-21.5 10t-22.5 13q78 5 125.5 50t47.5 126q0 35 -12 56.5t-52 21.5q-28 0 -41.5 -7t-19 -17t-7 -22.5t-6 -22.5t-15.5 -17
t-35 -7q-25 0 -38.5 16.5t-20 40t-7.5 49t-1 42.5t1.5 45.5t8 56t20 47.5t38.5 20q18 0 24.5 -11.5t7.5 -29.5t1 -38t4.5 -38t18 -29.5t42.5 -11.5q36 0 62 15t26 56q0 57 -7 103t-28.5 78.5t-60.5 50.5t-102 18q-72 0 -115 -28.5t-66.5 -74t-30.5 -103t-7 -115.5
q0 -42 3 -89.5t15.5 -90.5t39 -77.5t74.5 -50.5q-4 -7 -6.5 -14t-2.5 -15zM360 228q-13 4 -25 14l-50 50q-14 14 -17.5 36t-3.5 41q-11 -11 -17 -30t-9 -40t-4 -41.5t-1 -34.5q0 -17 1 -41t7 -47q17 0 24.5 3.5t11.5 7.5l6 11l4 17q5 32 23.5 42.5t49.5 11.5zM183 -109
q-2 2 -4 3z" />
    <glyph glyph-name="Egrave" unicode="&#xc8;" horiz-adv-x="388" 
d="M187 603q-7 5 -13.5 10.5t-12.5 11.5l-50 50q-15 16 -24.5 32t-9.5 30q0 13 8 26.5t20 24t26 17t26 6.5q17 0 47.5 -21.5t58.5 -49.5l50 -50q20 -20 34.5 -40t14.5 -33q0 -6 -3.5 -14t-8.5 -16l45 -45q16 -16 24.5 -39.5t8.5 -37.5q0 -17 -3 -36.5t-17 -32.5
q-12 -13 -37 -16q-17 -2 -32.5 -3t-32.5 -2q14 -4 24 -14l50 -50q11 -11 15.5 -28t4.5 -34q0 -27 -5 -45.5t-24 -37.5q6 -4 7 -5l50 -50q9 -10 14.5 -23.5t5.5 -31.5q0 -41 -4.5 -69t-18.5 -45t-40 -25.5t-68 -9.5q-20 -1 -39 -1h-39h-79q-44 0 -66 22l-50 50
q-13 13 -18.5 32.5t-5.5 44.5v104l-1 207v103q0 28 3.5 54.5t23.5 48.5q15 15 38 19q47 7 103 12zM302 667q0 13 -18 35.5t-42 44.5t-48.5 38t-36.5 16q-10 0 -22.5 -6t-23 -15t-17.5 -20.5t-7 -22.5q0 -19 19.5 -41.5t46 -42t54.5 -32.5t46 -13q7 0 15.5 7t16 16.5
t12.5 19.5t5 16zM173 -34h47t47 1q41 1 64.5 9t36.5 24t16.5 42t3.5 64q0 33 -20 50t-52 17q-13 0 -21.5 -6.5t-15 -15t-13 -15t-17.5 -6.5h-54l-6 89h109q14 0 22 9t12.5 21.5t6 26t1.5 23.5q0 27 -11 47.5t-42 20.5h-98l-5 62l136 11q16 2 25.5 8.5t14.5 17t6.5 23.5
t1.5 26q0 9 -4.5 23t-12 27t-17.5 22.5t-21 9.5q-57 0 -114 -4t-113 -12q-20 -3 -31.5 -14.5t-17 -28t-7 -35t-1.5 -34.5q0 -104 0.5 -207t0.5 -207q0 -43 17 -66t63 -23h63zM273 159h-23l1 -18l9 3z" />
    <glyph glyph-name="Eacute" unicode="&#xc9;" horiz-adv-x="388" 
d="M232 811q13 0 28.5 -8t28.5 -21l50 -50q10 -10 16.5 -21.5t6.5 -23.5q0 -11 -5.5 -22.5t-13.5 -22t-18 -19.5t-18 -16q12 0 20.5 -3t17.5 -12l50 -50q16 -16 24.5 -39.5t8.5 -37.5q0 -17 -3 -36.5t-17 -32.5q-12 -13 -37 -16q-17 -2 -32.5 -3t-32.5 -2q14 -4 24 -14
l50 -50q11 -11 15.5 -28t4.5 -34q0 -27 -5 -45.5t-24 -37.5q6 -4 7 -5l50 -50q9 -10 14.5 -23.5t5.5 -31.5q0 -41 -4.5 -69t-18.5 -45t-40 -25.5t-68 -9.5q-20 -1 -39 -1h-39h-79q-44 0 -66 22l-50 50q-13 13 -18.5 32.5t-5.5 44.5v104l-1 207v103q0 28 3.5 54.5t23.5 48.5
q15 15 38 19q10 2 19.5 3t20.5 3l-12 12q-14 11 -24.5 29t-10.5 29q0 16 19 40.5t44.5 47.5t51.5 39.5t40 16.5zM87 667q0 -6 5 -16t12.5 -19.5t16 -16.5t15.5 -7q17 0 45 13t55 32.5t46.5 42t19.5 41.5q0 11 -7 22.5t-17.5 20.5t-23 15t-22.5 6q-13 0 -37 -16t-48 -38
t-42 -44.5t-18 -35.5zM136 598h1h-1zM173 -34h47t47 1q41 1 64.5 9t36.5 24t16.5 42t3.5 64q0 33 -20 50t-52 17q-13 0 -21.5 -6.5t-15 -15t-13 -15t-17.5 -6.5h-54l-6 89h109q14 0 22 9t12.5 21.5t6 26t1.5 23.5q0 27 -11 47.5t-42 20.5h-98l-5 62l136 11q16 2 25.5 8.5
t14.5 17t6.5 23.5t1.5 26q0 9 -4.5 23t-12 27t-17.5 22.5t-21 9.5q-57 0 -114 -4t-113 -12q-20 -3 -31.5 -14.5t-17 -28t-7 -35t-1.5 -34.5q0 -104 0.5 -207t0.5 -207q0 -43 17 -66t63 -23h63zM273 159h-23l1 -18l9 3z" />
    <glyph glyph-name="Ecircumflex" unicode="&#xca;" horiz-adv-x="388" 
d="M196 805q11 0 25.5 -5.5t30 -14.5t32 -21t29.5 -26l50 -50q17 -17 27.5 -34t10.5 -32q0 -13 -8.5 -28.5t-21.5 -28.5l23 -23q16 -16 25 -39.5t9 -37.5q0 -17 -3 -36.5t-17 -32.5q-12 -13 -37 -16q-17 -2 -32.5 -3t-32.5 -2q14 -4 24 -14l50 -50q11 -11 15.5 -28t4.5 -34
q0 -27 -5 -45.5t-24 -37.5q6 -4 7 -5l50 -50q9 -10 14.5 -23.5t5.5 -31.5q0 -41 -4.5 -69t-18.5 -45t-40 -25.5t-68 -9.5q-20 -1 -39 -1h-39h-79q-44 0 -66 22l-50 50q-13 13 -18.5 32.5t-5.5 44.5v104l-1 207v103q0 28 3.5 54.5t23.5 48.5q15 15 38 19q3 0 4 1l-20 20
q-13 13 -21.5 28.5t-8.5 27.5q0 14 20.5 37t47 45.5t52.5 38.5t38 16zM48 668q0 -9 6.5 -21t16 -23t21 -18.5t20.5 -7.5q8 0 20 7.5t25 17.5t24.5 20t17.5 16q5 -6 15 -15.5t21 -18.5t22.5 -15.5t20.5 -6.5q10 0 21 7t20.5 17.5t15.5 22.5t6 22q0 17 -17 38.5t-40 40
t-48 31.5t-40 13q-11 0 -35.5 -16t-49.5 -37.5t-44 -42.5t-19 -31zM173 -34h47t47 1q41 1 64.5 9t36.5 24t16.5 42t3.5 64q0 33 -20 50t-52 17q-13 0 -21.5 -6.5t-15 -15t-13 -15t-17.5 -6.5h-54l-6 89h109q14 0 22 9t12.5 21.5t6 26t1.5 23.5q0 27 -11 47.5t-42 20.5h-98
l-5 62l136 11q16 2 25.5 8.5t14.5 17t6.5 23.5t1.5 26q0 9 -4.5 23t-12 27t-17.5 22.5t-21 9.5q-57 0 -114 -4t-113 -12q-20 -3 -31.5 -14.5t-17 -28t-7 -35t-1.5 -34.5q0 -104 0.5 -207t0.5 -207q0 -43 17 -66t63 -23h63zM273 159h-23l1 -18l9 3z" />
    <glyph glyph-name="Edieresis" unicode="&#xcb;" horiz-adv-x="388" 
d="M376 722q25 -23 25 -61q0 -10 -3 -22.5t-8 -24.5t-13 -22t-17 -15l35 -35q16 -16 24.5 -39.5t8.5 -37.5q0 -17 -3 -36.5t-17 -32.5q-12 -13 -37 -16q-17 -2 -32.5 -3t-32.5 -2q14 -4 24 -14l50 -50q11 -11 15.5 -28t4.5 -34q0 -27 -5 -45.5t-24 -37.5q6 -4 7 -5l50 -50
q9 -10 14.5 -23.5t5.5 -31.5q0 -41 -4.5 -69t-18.5 -45t-40 -25.5t-68 -9.5q-20 -1 -39 -1h-39h-79q-44 0 -66 22l-50 50q-13 13 -18.5 32.5t-5.5 44.5v104l-1 207v103q0 28 3.5 54.5t23.5 48.5q15 15 38 19q5 1 11 1.5t11 1.5l-41 41q-14 14 -20.5 32.5t-6.5 37.5
q0 38 20.5 64t60.5 26q36 0 57 -23l21 -21q3 7 7 12.5t9 10.5q21 21 56 21q36 0 57 -23zM191 711q0 32 -20 53t-52 21q-35 0 -53 -23.5t-18 -56.5q0 -31 18.5 -56.5t52.5 -25.5q17 0 30.5 8t22.5 20.5t14 28.5t5 31zM341 711q0 32 -20 53t-52 21q-35 0 -53 -23.5t-18 -56.5
q0 -31 18.5 -56.5t52.5 -25.5q17 0 30.5 8t22.5 20.5t14 28.5t5 31zM239 611l-3 -6q2 0 4.5 0.5t4.5 0.5zM173 -34h47t47 1q41 1 64.5 9t36.5 24t16.5 42t3.5 64q0 33 -20 50t-52 17q-13 0 -21.5 -6.5t-15 -15t-13 -15t-17.5 -6.5h-54l-6 89h109q14 0 22 9t12.5 21.5t6 26
t1.5 23.5q0 27 -11 47.5t-42 20.5h-98l-5 62l136 11q16 2 25.5 8.5t14.5 17t6.5 23.5t1.5 26q0 9 -4.5 23t-12 27t-17.5 22.5t-21 9.5q-57 0 -114 -4t-113 -12q-20 -3 -31.5 -14.5t-17 -28t-7 -35t-1.5 -34.5q0 -104 0.5 -207t0.5 -207q0 -43 17 -66t63 -23h63zM273 159h-23
l1 -18l9 3z" />
    <glyph glyph-name="Igrave" unicode="&#xcc;" horiz-adv-x="314" 
d="M156 598q-18 13 -32 27l-50 50q-15 16 -24.5 32t-9.5 30q0 13 8 26.5t20 24t26 17t26 6.5q17 0 47.5 -21.5t58.5 -49.5l50 -50q20 -20 34.5 -40t14.5 -33q0 -8 -7 -22t-17 -25l31 -31q13 -13 19 -37.5t6 -41.5q0 -21 -5 -41t-19 -34q-15 -17 -41 -18q6 -75 6 -150
q0 -47 -3 -95l44 -44q22 -22 22 -65q0 -48 -26 -74.5t-74 -26.5q-22 0 -43 1t-43 2q-31 2 -57.5 8t-43.5 23l-50 50q-25 23 -25 75q0 37 15 56.5t53 21.5q-1 17 -1 34.5v34.5q0 40 1 79t2 79q-2 1 -4 3l-50 50q-20 20 -20 66q0 13 2.5 30.5t8.5 33t17 26t29 10.5zM265 667
q0 13 -18 35.5t-42 44.5t-48.5 38t-36.5 16q-10 0 -22.5 -6t-23 -15t-17.5 -20.5t-7 -22.5q0 -19 19.5 -41.5t46 -42t54.5 -32.5t46 -13q7 0 15.5 7t16 16.5t12.5 19.5t5 16zM52 585q-15 0 -24 -10t-14.5 -24.5t-7 -29.5t-1.5 -26q0 -42 16 -58.5t58 -16.5q0 -51 -1.5 -101
t-1.5 -101v-39.5t2 -39.5q-38 0 -53.5 -13.5t-15.5 -54.5q0 -30 8.5 -48.5t24.5 -28.5t37.5 -14t46.5 -5q21 -1 42.5 -2t42.5 -1q44 0 67 24t23 67q0 34 -16 54.5t-52 20.5q2 32 3.5 64.5t1.5 64.5q0 40 -1.5 79.5t-5.5 79.5q38 0 52 24.5t14 59.5q0 9 -2 22.5t-7 26.5
t-13 22t-20 9z" />
    <glyph glyph-name="Iacute" unicode="&#xcd;" horiz-adv-x="314" 
d="M195 811q13 0 28.5 -8t28.5 -21l50 -50q10 -10 16.5 -21.5t6.5 -23.5q0 -13 -6.5 -25t-16 -23.5t-21 -21t-20.5 -17.5q6 -1 11 -4t10 -7l50 -50q13 -13 19 -37.5t6 -41.5q0 -21 -5 -41t-19 -34q-15 -17 -41 -18q6 -75 6 -150q0 -47 -3 -95l44 -44q22 -22 22 -65
q0 -48 -26 -74.5t-74 -26.5q-22 0 -43 1t-43 2q-31 2 -57.5 8t-43.5 23l-50 50q-25 23 -25 75q0 37 15 56.5t53 21.5q-1 17 -1 34.5v34.5q0 40 1 79t2 79q-2 1 -4 3l-50 50q-20 20 -20 66q0 13 2.5 30.5t8.5 33t17 26t29 10.5l35 1l-18 18q-13 13 -21 28t-8 25q0 16 19 40.5
t44.5 47.5t51.5 39.5t40 16.5zM50 667q0 -6 5 -16t12.5 -19.5t16 -16.5t15.5 -7q17 0 45 13t55 32.5t46.5 42t19.5 41.5q0 11 -7 22.5t-17.5 20.5t-23 15t-22.5 6q-13 0 -37 -16t-48 -38t-42 -44.5t-18 -35.5zM52 585q-15 0 -24 -10t-14.5 -24.5t-7 -29.5t-1.5 -26
q0 -42 16 -58.5t58 -16.5q0 -51 -1.5 -101t-1.5 -101v-39.5t2 -39.5q-38 0 -53.5 -13.5t-15.5 -54.5q0 -30 8.5 -48.5t24.5 -28.5t37.5 -14t46.5 -5q21 -1 42.5 -2t42.5 -1q44 0 67 24t23 67q0 34 -16 54.5t-52 20.5q2 32 3.5 64.5t1.5 64.5q0 40 -1.5 79.5t-5.5 79.5
q38 0 52 24.5t14 59.5q0 9 -2 22.5t-7 26.5t-13 22t-20 9z" />
    <glyph glyph-name="Icircumflex" unicode="&#xce;" horiz-adv-x="314" 
d="M159 805q11 0 25.5 -5.5t30 -14.5t32 -21t29.5 -26l50 -50q17 -17 27.5 -34t10.5 -32q0 -9 -4.5 -19.5t-11.5 -20.5t-16 -19t-19 -14q12 -2 20.5 -12.5t14 -24t7.5 -28t2 -24.5q0 -21 -5 -41t-19 -34q-15 -17 -41 -18q6 -75 6 -150q0 -47 -3 -95l44 -44q22 -22 22 -65
q0 -48 -26 -74.5t-74 -26.5q-22 0 -43 1t-43 2q-31 2 -57.5 8t-43.5 23l-50 50q-25 23 -25 75q0 37 15 56.5t53 21.5q-1 17 -1 34.5v34.5q0 40 1 79t2 79q-2 1 -4 3l-50 50q-20 20 -20 66q0 14 2.5 31t8.5 32t17 25.5t29 11.5q-10 6 -19 15t-16 19t-11.5 20.5t-4.5 18.5
q0 14 20.5 37t47 45.5t52.5 38.5t38 16zM11 668q0 -9 6.5 -21t16 -23t21 -18.5t20.5 -7.5q8 0 20 7.5t25 17.5t24.5 20t17.5 16q5 -6 15 -15.5t21 -18.5t22.5 -15.5t20.5 -6.5q10 0 21 7t20.5 17.5t15.5 22.5t6 22q0 17 -17 38.5t-40 40t-48 31.5t-40 13q-11 0 -35.5 -16
t-49.5 -37.5t-44 -42.5t-19 -31zM99 596h1h-1zM52 585q-15 0 -24 -10t-14.5 -24.5t-7 -29.5t-1.5 -26q0 -42 16 -58.5t58 -16.5q0 -51 -1.5 -101t-1.5 -101v-39.5t2 -39.5q-38 0 -53.5 -13.5t-15.5 -54.5q0 -30 8.5 -48.5t24.5 -28.5t37.5 -14t46.5 -5q21 -1 42.5 -2
t42.5 -1q44 0 67 24t23 67q0 34 -16 54.5t-52 20.5q2 32 3.5 64.5t1.5 64.5q0 40 -1.5 79.5t-5.5 79.5q38 0 52 24.5t14 59.5q0 9 -2 22.5t-7 26.5t-13 22t-20 9z" />
    <glyph glyph-name="Idieresis" unicode="&#xcf;" horiz-adv-x="314" 
d="M339 722q25 -23 25 -61q0 -29 -15.5 -56t-44.5 -38l28 -28q13 -13 19 -37.5t6 -41.5q0 -21 -5 -41t-19 -34q-15 -17 -41 -18q6 -75 6 -150q0 -47 -3 -95l44 -44q22 -22 22 -65q0 -48 -26 -74.5t-74 -26.5q-22 0 -43 1t-43 2q-31 2 -57.5 8t-43.5 23l-50 50q-25 23 -25 75
q0 37 15 56.5t53 21.5q-1 17 -1 34.5v34.5q0 40 1 79t2 79q-2 1 -4 3l-50 50q-20 20 -20 66q0 13 2.5 30.5t8.5 33t17 26t29 10.5h16l-40 40q-14 14 -20.5 32.5t-6.5 37.5q0 38 20.5 64t60.5 26q36 0 57 -23l21 -21q3 7 7 12.5t9 10.5q21 21 56 21q36 0 57 -23zM154 711
q0 32 -20 53t-52 21q-35 0 -53 -23.5t-18 -56.5q0 -31 18.5 -56.5t52.5 -25.5q17 0 30.5 8t22.5 20.5t14 28.5t5 31zM304 711q0 32 -20 53t-52 21q-35 0 -53 -23.5t-18 -56.5q0 -31 18.5 -56.5t52.5 -25.5q17 0 30.5 8t22.5 20.5t14 28.5t5 31zM214 599l-12 12q-2 -4 -8 -12
h20zM52 585q-15 0 -24 -10t-14.5 -24.5t-7 -29.5t-1.5 -26q0 -42 16 -58.5t58 -16.5q0 -51 -1.5 -101t-1.5 -101v-39.5t2 -39.5q-38 0 -53.5 -13.5t-15.5 -54.5q0 -30 8.5 -48.5t24.5 -28.5t37.5 -14t46.5 -5q21 -1 42.5 -2t42.5 -1q44 0 67 24t23 67q0 34 -16 54.5
t-52 20.5q2 32 3.5 64.5t1.5 64.5q0 40 -1.5 79.5t-5.5 79.5q38 0 52 24.5t14 59.5q0 9 -2 22.5t-7 26.5t-13 22t-20 9z" />
    <glyph glyph-name="Eth" unicode="&#xd0;" horiz-adv-x="487" 
d="M25 93q-1 33 -1.5 66t-0.5 67l-33 32q-12 12 -16.5 29.5t-4.5 35.5q0 15 2 29t7 25t15.5 19t26.5 10q-1 13 -1 25v24q0 37 5.5 65t20 47.5t40 29.5t65.5 10q87 0 151 -16.5t105 -58.5l50 -50q35 -35 53 -90t18 -134q0 -74 -13.5 -138t-46 -110.5t-87 -73t-136.5 -26.5
q-41 0 -76.5 8t-58.5 32l-50 50q-15 15 -24 38t-10 55zM194 -30q80 0 133 26t84 71.5t43.5 107.5t12.5 133q0 83 -20 138.5t-59.5 89t-99 47.5t-138.5 14q-50 0 -75.5 -17t-35.5 -44.5t-10 -63.5t1 -75q-34 -2 -42.5 -24t-8.5 -50q0 -29 11 -49t42 -23l3 -158
q1 -37 13.5 -61t33.5 -38t50 -19t62 -5zM191 439q67 -3 91 -38.5t24 -97.5q0 -20 -3.5 -51t-13 -59.5t-27 -49t-45.5 -20.5q-9 0 -17 3.5t-8 14.5v109q26 0 42.5 1.5t26.5 9.5t13.5 24t3.5 45q0 26 -5 40t-16 21t-27 8t-39 0v40z" />
    <glyph glyph-name="Ntilde" unicode="&#xd1;" horiz-adv-x="510" 
d="M303 755l1 1l7 13q1 1 1.5 2t2.5 3q6 10 16.5 19.5t28.5 9.5q17 0 28.5 -9.5t17.5 -23.5l21 -20q11 -4 17.5 -12t11.5 -18q7 -13 9.5 -27t2.5 -26q0 -20 -6 -41t-18 -38q14 -7 22 -16l50 -50q24 -24 24 -59q0 -57 1 -113.5t1 -113.5q0 -62 -1 -124t-12 -123
q-4 -22 -9.5 -36.5t-15 -22.5t-24.5 -11.5t-38 -3.5q-20 0 -37 9.5t-32 24.5l-50 50q-8 8 -14.5 16.5t-13.5 16.5q-9 14 -17.5 27.5t-16.5 27.5q-2 5 -5 10.5t-6 10.5q1 -29 1 -56.5v-56.5q0 -85 -84 -85q-23 0 -42 5t-32 18l-50 50q-9 9 -15 21.5t-8 30.5q-5 41 -5.5 82
t-0.5 82q0 68 2 135.5t6 135.5q2 23 7 46.5t15.5 42t28 30t45.5 11.5q5 0 10 -0.5t10 -1.5q-13 5 -22 15.5t-14 23.5t-7 27t-2 24q0 21 7.5 42t21.5 37.5t33 26.5t42 10q25 0 51.5 -14t45.5 -30zM360 793q-14 0 -22.5 -7.5t-14.5 -17t-10 -17t-9 -7.5t-15 8t-24.5 17
t-31.5 17t-36 8q-21 0 -38 -9.5t-29.5 -24.5t-19.5 -34t-7 -38q0 -13 2.5 -27.5t9 -27t17 -20.5t26.5 -8q15 0 23.5 7t13 16t7 16t6.5 7q8 0 17.5 -7t23 -16t31 -16t39.5 -7t38.5 10t28 26.5t17 36.5t5.5 39q0 11 -2.5 24t-8 24.5t-14.5 19.5t-23 8zM211 640l9 -5q-3 2 -5 3
zM117 -30q74 0 74 75q0 110 -3 221q11 -33 25.5 -65t31.5 -62q11 -19 25.5 -47t33 -54t41 -44.5t47.5 -18.5q21 0 34 2.5t21.5 10t13.5 20.5t8 33q10 61 11.5 123.5t1.5 123.5v28.5t-1 28.5l-1 112v56q0 19 -7.5 33.5t-20 24.5t-29 15t-33.5 5q-39 0 -56.5 -23.5
t-17.5 -60.5q0 -59 2 -117.5t2 -117.5q-14 24 -30.5 66t-33 85.5t-33 80.5t-30.5 53t-34 24.5t-41 8.5q-33 0 -50.5 -18t-25.5 -45t-9.5 -57t-2.5 -54l-4 -108t-2 -109q0 -40 0.5 -81t5.5 -82q5 -38 28 -52t59 -14zM316 557l-12 6t-11 7q-7 4 -12.5 8t-10.5 7l-9 5l-8 -17
q-5 -8 -13 -16.5t-22 -10.5l27 -27q2 -2 3 -2.5t2 -2.5q14 -15 29 -46.5t29 -68.5q-1 27 -1.5 54t-0.5 54q0 14 2.5 26.5t7.5 23.5zM299 342q3 -7 5.5 -13t5.5 -13z" />
    <glyph glyph-name="Ograve" unicode="&#xd2;" horiz-adv-x="507" 
d="M10 277q0 65 7 124t30.5 104t67.5 74t119 34q-4 3 -7 6l-6 6l-50 50q-16 16 -25.5 32t-9.5 30q0 13 8 26t20 23.5t26 17.5t26 7q17 0 48 -21.5t59 -49.5l50 -50q20 -20 34 -40t14 -33q0 -8 -5.5 -19t-13.5 -22q11 -7 22 -18l50 -50q23 -22 37 -52t22 -63.5t11 -70.5
t3 -74q0 -70 -8 -132t-34 -108t-74.5 -72.5t-130.5 -26.5q-63 0 -105 15t-69 42l-50 50q-22 22 -35 50t-20 61.5t-9 71.5t-2 78zM361 667q0 13 -18 35.5t-42 44.5t-48.5 38t-36.5 16q-10 0 -22.5 -6t-23 -15t-17.5 -20.5t-7 -22.5q0 -19 19.5 -41.5t46.5 -42t55 -32.5
t45 -13q7 0 15.5 7t16 16.5t12.5 19.5t5 16zM250 -31q80 0 127 26t71.5 70.5t31.5 104.5t7 128q0 59 -8 114.5t-32 98t-67.5 68t-113.5 25.5q-81 0 -129.5 -24.5t-74.5 -68t-34 -103.5t-8 -131q0 -67 7 -123.5t31 -97.5t69.5 -64t122.5 -23zM188 270q0 16 1 43.5t7 54.5
t19 46.5t37 19.5q27 0 41.5 -22t21 -51.5t7 -60t0.5 -48.5t-2 -39t-9 -39t-21 -30t-38 -12q-25 0 -38 12.5t-19 31.5t-6.5 40.5t-0.5 39.5v14z" />
    <glyph glyph-name="Oacute" unicode="&#xd3;" horiz-adv-x="507" 
d="M10 277q0 51 4.5 103.5t21 97.5t50 78.5t91.5 47.5q-16 11 -28.5 31t-12.5 32q0 16 19 40.5t44.5 47.5t51.5 39.5t40 16.5t29.5 -8t27.5 -21l50 -50q23 -21 23 -45q0 -14 -9.5 -30t-25.5 -32q-6 -7 -13.5 -13t-15.5 -12q40 -15 67 -42l50 -50q23 -22 37 -52t22 -63.5
t11 -70.5t3 -74q0 -70 -8 -132t-34 -108t-74.5 -72.5t-130.5 -26.5q-63 0 -105 15t-69 42l-50 50q-22 22 -35 50t-20 61.5t-9 71.5t-2 78zM146 667q0 -6 5 -16t12.5 -19.5t16 -16.5t15.5 -7q17 0 45 13t55 32.5t46.5 42t19.5 41.5q0 11 -7 22.5t-17.5 20.5t-22.5 15t-23 6
q-12 0 -36.5 -16t-48.5 -38t-42 -44.5t-18 -35.5zM250 -31q80 0 127 26t71.5 70.5t31.5 104.5t7 128q0 59 -8 114.5t-32 98t-67.5 68t-113.5 25.5q-81 0 -129.5 -24.5t-74.5 -68t-34 -103.5t-8 -131q0 -67 7 -123.5t31 -97.5t69.5 -64t122.5 -23zM188 270q0 16 1 43.5
t7 54.5t19 46.5t37 19.5q27 0 41.5 -22t21 -51.5t7 -60t0.5 -48.5t-2 -39t-9 -39t-21 -30t-38 -12q-25 0 -38 12.5t-19 31.5t-6.5 40.5t-0.5 39.5v14z" />
    <glyph glyph-name="Ocircumflex" unicode="&#xd4;" horiz-adv-x="507" 
d="M10 277q0 45 3.5 93.5t17 92.5t41.5 79t76 53q-20 12 -35.5 34t-15.5 39q0 14 20.5 37t47.5 45t53 38.5t37 16.5t25.5 -5.5t30 -14.5t32 -21t29.5 -26l50 -50q17 -17 27.5 -34t10.5 -32q0 -14 -10.5 -32.5t-26.5 -30.5l51 -51q23 -22 37 -52t22 -63.5t11 -70.5t3 -74
q0 -70 -8 -132t-34 -108t-74.5 -72.5t-130.5 -26.5q-63 0 -105 15t-69 42l-50 50q-22 22 -35 50t-20 61.5t-9 71.5t-2 78zM107 668q0 -9 6.5 -21t16 -23t21 -18.5t20.5 -7.5q8 0 20.5 7.5t25.5 17.5t24.5 20t16.5 16q6 -6 16 -15.5t21 -18.5t22.5 -15.5t19.5 -6.5q10 0 21 7
t20.5 17.5t15.5 22.5t6 22q0 17 -16.5 38.5t-40 40t-48 31.5t-40.5 13q-11 0 -35.5 -16t-49.5 -37.5t-44 -42.5t-19 -31zM250 -31q80 0 127 26t71.5 70.5t31.5 104.5t7 128q0 59 -8 114.5t-32 98t-67.5 68t-113.5 25.5q-81 0 -129.5 -24.5t-74.5 -68t-34 -103.5t-8 -131
q0 -67 7 -123.5t31 -97.5t69.5 -64t122.5 -23zM188 270q0 16 1 43.5t7 54.5t19 46.5t37 19.5q27 0 41.5 -22t21 -51.5t7 -60t0.5 -48.5t-2 -39t-9 -39t-21 -30t-38 -12q-25 0 -38 12.5t-19 31.5t-6.5 40.5t-0.5 39.5v14z" />
    <glyph glyph-name="Otilde" unicode="&#xd5;" horiz-adv-x="507" 
d="M10 277q0 43 3 90t15.5 90t38 78.5t70.5 55.5l-20 20q-15 15 -20.5 37.5t-5.5 39.5q0 21 7.5 42t21.5 37.5t33 26.5t42 10q21 0 40 -8.5t33 -18.5q8 -5 14 -9t11 -8l9 -4l9 14l2 4q6 10 16.5 19.5t28.5 9.5t29.5 -9.5t17.5 -23.5l20 -20q12 -4 19.5 -13.5t12.5 -21.5
t7 -24.5t2 -23.5q0 -29 -12 -58.5t-35 -46.5q2 -1 2.5 -2t2.5 -2l50 -50q23 -22 37 -52t22 -63.5t11 -70.5t3 -74q0 -70 -8 -132t-34 -108t-74.5 -72.5t-130.5 -26.5q-63 0 -105 15t-69 42l-50 50q-22 22 -35 50t-20 61.5t-9 71.5t-2 78zM358 793q-13 0 -21.5 -7.5
t-14.5 -17t-10.5 -17t-9.5 -7.5q-4 0 -14.5 8t-24.5 17t-31.5 17t-36.5 8q-21 0 -38 -9.5t-29.5 -24.5t-19.5 -34t-7 -38q0 -13 2.5 -27.5t9 -27t17 -20.5t26.5 -8q15 0 23.5 7t13 16t7 16t6.5 7q8 0 18 -7t23 -16t30.5 -16t39.5 -7t38.5 10t28 26.5t17 36.5t5.5 39
q0 11 -2.5 24t-8 24.5t-14.5 19.5t-23 8zM250 -31q80 0 127 26t71.5 70.5t31.5 104.5t7 128q0 59 -8 114.5t-32 98t-67.5 68t-113.5 25.5q-81 0 -129.5 -24.5t-74.5 -68t-34 -103.5t-8 -131q0 -67 7 -123.5t31 -97.5t69.5 -64t122.5 -23zM188 270q0 16 1 43.5t7 54.5
t19 46.5t37 19.5q27 0 41.5 -22t21 -51.5t7 -60t0.5 -48.5t-2 -39t-9 -39t-21 -30t-38 -12q-25 0 -38 12.5t-19 31.5t-6.5 40.5t-0.5 39.5v14z" />
    <glyph glyph-name="Odieresis" unicode="&#xd6;" horiz-adv-x="507" 
d="M10 277q0 49 4 98.5t19 93.5t45 78.5t82 52.5l-36 35q-14 14 -20.5 32.5t-6.5 37.5q0 38 21 64t60 26q37 0 58 -23l21 -21q10 22 29 33t42 11q37 0 58 -23l50 -50q24 -24 24 -61q0 -25 -13 -52t-37 -38l6.5 -6.5t7.5 -6.5l50 -50q23 -22 37 -52t22 -63.5t11 -70.5t3 -74
q0 -70 -8 -132t-34 -108t-74.5 -72.5t-130.5 -26.5q-63 0 -105 15t-69 42l-50 50q-22 22 -35 50t-20 61.5t-9 71.5t-2 78zM250 711q0 32 -20 53t-52 21q-35 0 -53 -23.5t-18 -56.5q0 -31 18.5 -56.5t52.5 -25.5q17 0 30.5 8t22.5 20.5t14 28.5t5 31zM400 711q0 32 -20 53
t-52 21q-35 0 -53 -23.5t-18 -56.5q0 -31 18.5 -56.5t52.5 -25.5q17 0 30.5 8t22.5 20.5t14 28.5t5 31zM250 -31q80 0 127 26t71.5 70.5t31.5 104.5t7 128q0 59 -8 114.5t-32 98t-67.5 68t-113.5 25.5q-81 0 -129.5 -24.5t-74.5 -68t-34 -103.5t-8 -131q0 -67 7 -123.5
t31 -97.5t69.5 -64t122.5 -23zM188 270q0 16 1 43.5t7 54.5t19 46.5t37 19.5q27 0 41.5 -22t21 -51.5t7 -60t0.5 -48.5t-2 -39t-9 -39t-21 -30t-38 -12q-25 0 -38 12.5t-19 31.5t-6.5 40.5t-0.5 39.5v14z" />
    <glyph glyph-name="multiply" unicode="&#xd7;" horiz-adv-x="523" 
d="M304 123q-6 -9 -15 -20t-19.5 -20.5t-22.5 -15.5t-23 -6q-14 0 -32 10.5t-33 26.5l-50 50q-13 12 -21 25.5t-8 25.5t8 25.5t19.5 26.5t24 24.5t21.5 18.5q-1 1 -1.5 2t-2.5 2l-32 32q-13 12 -24.5 26.5t-11.5 30.5q0 12 8 28t20 30t27 23.5t28 9.5q15 0 32 -11t31 -25
l41 -41q8 9 16.5 19.5t18.5 21.5q12 13 27.5 24.5t31.5 11.5q13 0 28.5 -9.5t29.5 -23.5l50 -50q14 -14 23.5 -29.5t9.5 -28.5q0 -17 -11.5 -32.5t-25.5 -27.5q-10 -9 -21 -17t-20 -15l39 -39l14 -14t12 -14t8.5 -14t3.5 -15q0 -13 -9.5 -28t-24 -27.5t-30.5 -20.5t-28 -8
q-14 0 -29.5 10.5t-28.5 21.5l-39 38zM90 199q0 -10 9.5 -23.5t22.5 -25.5t27.5 -20.5t24.5 -8.5q14 0 26.5 9t23.5 21.5t21 26t19 22.5q7 -7 19 -20t25.5 -25t27.5 -21t24 -9q11 0 25 7.5t26.5 18.5t21.5 24t9 24q0 9 -10.5 22.5t-25 28t-28.5 26.5l-21 18q9 8 24 18.5
t28.5 22.5t23.5 25.5t10 26.5q0 11 -8.5 24.5t-21.5 26.5t-26.5 21.5t-24.5 8.5q-12 0 -25.5 -10t-26.5 -23.5t-24 -27.5t-18 -23q-7 9 -20 23t-27.5 27.5t-29.5 23.5t-27 10q-11 0 -24 -8.5t-24 -21t-18 -26.5t-7 -25q0 -12 10 -24.5t23.5 -24.5t27.5 -22.5t22 -18.5
q-9 -6 -23 -18t-27.5 -26t-23.5 -28.5t-10 -25.5z" />
    <glyph glyph-name="Oslash" unicode="&#xd8;" horiz-adv-x="507" 
d="M479 603q21 -21 21 -50q0 -16 -5 -34l-8 -26q20 -25 32 -55.5t18 -63t8 -65t2 -61.5q0 -44 -2.5 -84.5t-10.5 -76.5t-22 -66t-37 -53q-29 -30 -76 -45.5t-117 -13.5q-11 -21 -28 -40t-43 -19q-17 0 -38.5 8.5t-37.5 24.5l-50 50q-8 8 -13.5 18.5t-5.5 23.5q0 9 3 21t5 21
q-22 24 -35 57t-19.5 68t-8 70.5t-1.5 64.5q0 43 3 83.5t11 76t22 65.5t37 53q30 30 76.5 45.5t115.5 13.5q6 11 14 23t17.5 22.5t21 17t25.5 6.5q19 0 40 -7.5t36 -22.5zM250 -31q80 0 127 26t71.5 70.5t31.5 104.5t7 128q0 30 -2 62.5t-8.5 64.5t-18.5 61.5t-32 53.5
q5 15 9.5 31t4.5 32q0 17 -8 30t-20.5 22t-28 13.5t-30.5 4.5q-13 0 -24 -7.5t-20 -18t-16 -22.5t-12 -21h-15q-81 0 -129.5 -24.5t-74.5 -68t-34 -103.5t-8 -131q0 -30 1.5 -65.5t8.5 -71t20 -67t36 -54.5q-3 -8 -6.5 -22t-3.5 -22q0 -14 8.5 -26t21.5 -20.5t28 -13.5
t27 -5t22 6t18 14.5t14.5 19t10.5 19.5h24zM188 270q0 16 1 43.5t7 54.5t19 46.5t37 19.5q27 0 41.5 -22t21 -51.5t7 -60t0.5 -48.5t-2 -39t-9 -39t-21 -30t-38 -12q-25 0 -38 12.5t-19 31.5t-6.5 40.5t-0.5 39.5v14z" />
    <glyph glyph-name="Ugrave" unicode="&#xd9;" horiz-adv-x="477" 
d="M358 690q20 -20 34 -40t14 -33q0 -9 -8 -23q15 -7 23 -16l50 -50q14 -14 21.5 -33.5t11.5 -41.5t4.5 -43.5t0.5 -39.5v-85.5t-2 -85.5q-2 -64 -10 -117t-31 -91.5t-66.5 -60t-116.5 -21.5q-51 0 -87.5 13.5t-60.5 37.5l-50 50q-32 32 -46 79.5t-16 107.5l-4 134t-2 135
q0 28 2.5 52.5t12 42.5t29 28t52.5 10q45 0 66 -23l50 -50q14 -13 19.5 -32.5t5.5 -44.5v-280q13 4 20 23t10.5 42.5t4.5 45.5t1 32q0 20 -0.5 40.5t-0.5 40.5l-2 55q0 20 -0.5 40.5t-0.5 40.5q0 19 8 35q-23 11 -46.5 26.5t-41.5 34.5l-50 50q-16 16 -25.5 32t-9.5 30
q0 13 8 26t20 23.5t26 17.5t26 7q17 0 48 -21.5t59 -49.5zM346 667q0 13 -18 35.5t-42 44.5t-48.5 38t-36.5 16q-10 0 -22.5 -6t-23 -15t-17.5 -20.5t-7 -22.5q0 -19 19.5 -41.5t46.5 -42t55 -32.5t45 -13q7 0 15.5 7t16 16.5t12.5 19.5t5 16zM233 -31q71 0 112.5 21.5
t63.5 59t29.5 89t8.5 110.5q2 43 2 85.5v85.5q0 21 -1.5 50t-9 55.5t-23.5 45t-46 18.5q-29 0 -51 -14t-22 -46q0 -20 0.5 -40.5t0.5 -40.5l2 -55q0 -20 0.5 -40.5t0.5 -40.5q0 -17 -1 -44t-7 -52.5t-19.5 -44t-38.5 -18.5q-12 0 -19.5 6t-12 15t-6.5 19.5t-2 19.5v286
q0 42 -18 66t-63 24q-31 0 -48.5 -10t-26 -26.5t-10 -39t-1.5 -47.5q0 -68 2 -134.5t4 -134.5q2 -51 12 -93t33.5 -72t61 -46.5t93.5 -16.5z" />
    <glyph glyph-name="Uacute" unicode="&#xda;" horiz-adv-x="477" 
d="M276 811q14 0 29.5 -8t27.5 -21l50 -50q23 -21 23 -45q0 -13 -7.5 -26.5t-18.5 -26t-23.5 -23t-22.5 -17.5q18 5 35 5t29.5 -5.5t22.5 -15.5l50 -50q14 -14 21.5 -33.5t11.5 -41.5t4.5 -43.5t0.5 -39.5v-85.5t-2 -85.5q-2 -64 -10 -117t-31 -91.5t-66.5 -60t-116.5 -21.5
q-51 0 -87.5 13.5t-60.5 37.5l-50 50q-32 32 -46 79.5t-16 107.5l-4 134t-2 135q0 28 2.5 52.5t12 42.5t29 28t52.5 10q45 0 66 -23l50 -50q14 -13 19.5 -32.5t5.5 -44.5v-280q13 4 20 23t10.5 42.5t4.5 45.5t1 32q0 20 -0.5 40.5t-0.5 40.5l-2 55q0 20 -0.5 40.5t-0.5 40.5
q0 26 15 44q-20 -11 -39 -18t-32 -7q-8 0 -15 4.5t-15 11.5l-50 50q-12 13 -20.5 28t-8.5 25q0 16 19 40.5t44.5 47.5t51.5 39.5t40 16.5zM131 667q0 -6 5 -16t12.5 -19.5t16 -16.5t15.5 -7q17 0 45 13t55 32.5t46.5 42t19.5 41.5q0 11 -7 22.5t-17.5 20.5t-22.5 15t-23 6
q-12 0 -36.5 -16t-48.5 -38t-42 -44.5t-18 -35.5zM233 -31q71 0 112.5 21.5t63.5 59t29.5 89t8.5 110.5q2 43 2 85.5v85.5q0 21 -1.5 50t-9 55.5t-23.5 45t-46 18.5q-29 0 -51 -14t-22 -46q0 -20 0.5 -40.5t0.5 -40.5l2 -55q0 -20 0.5 -40.5t0.5 -40.5q0 -17 -1 -44
t-7 -52.5t-19.5 -44t-38.5 -18.5q-12 0 -19.5 6t-12 15t-6.5 19.5t-2 19.5v286q0 42 -18 66t-63 24q-31 0 -48.5 -10t-26 -26.5t-10 -39t-1.5 -47.5q0 -68 2 -134.5t4 -134.5q2 -51 12 -93t33.5 -72t61 -46.5t93.5 -16.5z" />
    <glyph glyph-name="Ucircumflex" unicode="&#xdb;" horiz-adv-x="477" 
d="M240 805q11 0 25.5 -5.5t30 -14.5t32 -21t29.5 -26l50 -50q17 -17 27.5 -34t10.5 -32q0 -23 -21 -47l47 -47q14 -14 21.5 -33.5t11.5 -41.5t4.5 -43.5t0.5 -39.5v-85.5t-2 -85.5q-2 -64 -10 -117t-31 -91.5t-66.5 -60t-116.5 -21.5q-51 0 -87.5 13.5t-60.5 37.5l-50 50
q-32 32 -46 79.5t-16 107.5l-4 134t-2 135q0 28 2.5 52.5t12 42.5t29 28t52.5 10q11 0 16 -1q-19 13 -33 33.5t-14 36.5q0 14 20.5 37t47.5 45t53 38.5t37 16.5zM92 668q0 -9 6.5 -21t16 -23t21 -18.5t20.5 -7.5q8 0 20.5 7.5t25.5 17.5t24.5 20t16.5 16q6 -6 16 -15.5
t21 -18.5t22.5 -15.5t19.5 -6.5q10 0 21 7t20.5 17.5t15.5 22.5t6 22q0 17 -16.5 38.5t-40 40t-48 31.5t-40.5 13q-11 0 -35.5 -16t-49.5 -37.5t-44 -42.5t-19 -31zM308 580q-9 8 -15 15l-35 -30l-27 -18l-19 -8q23 -12 32.5 -35t9.5 -55v-280q13 4 20 23t10.5 42.5
t4.5 45.5t1 32q0 20 -0.5 40.5t-0.5 40.5l-2 55q0 20 -0.5 40.5t-0.5 40.5q0 29 18 47q1 2 2 2.5t2 1.5zM233 -31q71 0 112.5 21.5t63.5 59t29.5 89t8.5 110.5q2 43 2 85.5v85.5q0 21 -1.5 50t-9 55.5t-23.5 45t-46 18.5q-29 0 -51 -14t-22 -46q0 -20 0.5 -40.5t0.5 -40.5
l2 -55q0 -20 0.5 -40.5t0.5 -40.5q0 -17 -1 -44t-7 -52.5t-19.5 -44t-38.5 -18.5q-12 0 -19.5 6t-12 15t-6.5 19.5t-2 19.5v286q0 42 -18 66t-63 24q-31 0 -48.5 -10t-26 -26.5t-10 -39t-1.5 -47.5q0 -68 2 -134.5t4 -134.5q2 -51 12 -93t33.5 -72t61 -46.5t93.5 -16.5z" />
    <glyph glyph-name="Udieresis" unicode="&#xdc;" horiz-adv-x="477" 
d="M421 722q24 -24 24 -61q0 -20 -7.5 -40.5t-23.5 -36.5q2 -1 7 -6l50 -50q14 -14 21.5 -33.5t11.5 -41.5t4.5 -43.5t0.5 -39.5v-85.5t-2 -85.5q-2 -64 -10 -117t-31 -91.5t-66.5 -60t-116.5 -21.5q-51 0 -87.5 13.5t-60.5 37.5l-50 50q-32 32 -46 79.5t-16 107.5l-4 134
t-2 135q0 28 2.5 52.5t12 42.5t29 28t52.5 10q22 0 38 -6l-42 42q-14 14 -20.5 32.5t-6.5 37.5q0 38 21 64t60 26q37 0 58 -23l21 -21q10 22 29 33t42 11q37 0 58 -23zM235 711q0 32 -20 53t-52 21q-35 0 -53 -23.5t-18 -56.5q0 -31 18.5 -56.5t52.5 -25.5q17 0 30.5 8
t22.5 20.5t14 28.5t5 31zM385 711q0 32 -20 53t-52 21q-35 0 -53 -23.5t-18 -56.5q0 -31 18.5 -56.5t52.5 -25.5q17 0 30.5 8t22.5 20.5t14 28.5t5 31zM312 583q-2 2 -3 2l-26 26q-3 -7 -8 -13.5t-10 -12.5q-10 -10 -23 -16t-29 -6q-7 0 -13 1t-11 3l40 -41
q14 -13 19.5 -32.5t5.5 -44.5v-280q13 4 20 23t10.5 42.5t4.5 45.5t1 32q0 20 -0.5 40.5t-0.5 40.5l-2 55q0 20 -0.5 40.5t-0.5 40.5q0 29 18 47q2 3 8 7zM233 -31q71 0 112.5 21.5t63.5 59t29.5 89t8.5 110.5q2 43 2 85.5v85.5q0 21 -1.5 50t-9 55.5t-23.5 45t-46 18.5
q-29 0 -51 -14t-22 -46q0 -20 0.5 -40.5t0.5 -40.5l2 -55q0 -20 0.5 -40.5t0.5 -40.5q0 -17 -1 -44t-7 -52.5t-19.5 -44t-38.5 -18.5q-12 0 -19.5 6t-12 15t-6.5 19.5t-2 19.5v286q0 42 -18 66t-63 24q-31 0 -48.5 -10t-26 -26.5t-10 -39t-1.5 -47.5q0 -68 2 -134.5
t4 -134.5q2 -51 12 -93t33.5 -72t61 -46.5t93.5 -16.5z" />
    <glyph glyph-name="Yacute" unicode="&#xdd;" horiz-adv-x="452" 
d="M264 811q13 0 28.5 -8t28.5 -21l50 -50q10 -10 16.5 -21.5t6.5 -23.5t-6.5 -24.5t-16.5 -24.5t-21.5 -22t-20.5 -17q17 3 31 3q20 0 37.5 -5.5t29.5 -17.5l50 -50q19 -19 19 -51q0 -63 -4.5 -125.5t-4.5 -125.5q0 -11 0.5 -22t0.5 -22l2 -29q0 -11 0.5 -22t0.5 -22
q0 -57 -16.5 -96t-46.5 -63.5t-73 -35t-97 -10.5q-19 0 -40.5 4t-43 12t-41.5 19.5t-36 27.5l-50 50q-17 17 -27.5 39t-10.5 48q0 16 8 30.5t20.5 26.5t28 19t30.5 8l-39 39q-16 16 -24 35q-8 17 -12.5 36.5t-6.5 41.5q-2 21 -2 44.5v47.5v14l-1 28q-1 4 -1 14q0 26 3.5 47
t14 35.5t28.5 22.5t46 8q48 0 72 -25l50 -50q25 -25 25 -71q0 -25 -2.5 -49t-4.5 -49q15 10 18 25.5t3 32.5q0 27 -3.5 54t-3.5 54q0 20 10 37q-31 -13 -48 -13q-8 0 -15.5 4.5t-14.5 11.5l-50 50q-13 13 -21 28t-8 25q0 16 19 40.5t44.5 47.5t51.5 39.5t40 16.5zM119 667
q0 -6 5 -16t12.5 -19.5t16 -16.5t15.5 -7q17 0 45 13t55 32.5t46.5 42t19.5 41.5q0 11 -7 22.5t-17.5 20.5t-23 15t-22.5 6q-13 0 -37 -16t-48 -38t-42 -44.5t-18 -35.5zM184 197q26 0 49.5 10.5t42.5 27.5q1 -5 1 -10v-10q0 -14 -1.5 -32.5t-6.5 -34.5t-16 -27t-31 -11
q-30 0 -48 11t-30 23.5t-21.5 23.5t-22.5 11t-27.5 -6t-26.5 -16.5t-19.5 -24t-7.5 -27.5q0 -34 18.5 -60t47 -44t61.5 -27t62 -9q51 0 92 10t70 32.5t45 60t16 92.5q0 11 -0.5 22t-0.5 22l-2 29q0 11 -0.5 22t-0.5 22q0 63 4.5 125.5t4.5 125.5q0 35 -22 49.5t-54 14.5
q-16 0 -33 -3.5t-30.5 -11t-22 -20.5t-8.5 -33q0 -27 3.5 -54t3.5 -54q0 -14 -2 -27.5t-8 -23.5t-16.5 -16t-27.5 -6t-27.5 4.5t-10.5 24.5q0 34 4 67t4 67q0 44 -22.5 65t-64.5 21q-27 0 -43 -7.5t-24.5 -21t-11.5 -32.5t-3 -42q0 -14 1 -28t1 -28q0 -48 2.5 -91
t17.5 -75.5t48 -51t94 -18.5zM154 149l5 -5zM254 139q-5 -1 -10 -1.5t-10 -0.5q-44 0 -77 11l13 -13q10 -7 22.5 -11t29.5 -4q21 0 32 19z" />
    <glyph glyph-name="Thorn" unicode="&#xde;" horiz-adv-x="467" 
d="M28 54q0 125 -0.5 247t-0.5 247q0 18 9 31t23.5 20.5t31.5 11t32 3.5q20 0 38.5 -5.5t32.5 -18.5l50 -50q3 -4 6.5 -8t5.5 -9q42 -5 75.5 -20.5t59.5 -41.5l50 -50q31 -31 47.5 -73t16.5 -93q0 -62 -18 -114.5t-53 -87.5q-30 -30 -73 -46t-99 -14q-6 -72 -78 -72
q-23 0 -44.5 7t-37.5 22l-50 50q-24 26 -24 64zM134 -29q37 0 51.5 19t16.5 54q6 -1 12 -1h11q57 0 98.5 19.5t68.5 54t40 80.5t13 98q0 53 -18.5 95.5t-50.5 71t-76.5 42.5t-96.5 9l1 25q0 36 -24.5 51t-56.5 15q-13 0 -28 -3t-28 -9.5t-21.5 -17t-8.5 -26.5v-29
q0 -88 0.5 -174.5t0.5 -174.5v-116q0 -43 28.5 -63t67.5 -20zM277 298q0 -16 -3 -34t-10.5 -33.5t-20.5 -25.5t-33 -10q-2 0 -4.5 0.5t-4.5 0.5q-1 25 -1 49v49v55q13 -1 26.5 -3t25 -7t18.5 -14.5t7 -26.5z" />
    <glyph glyph-name="germandbls" unicode="&#xdf;" horiz-adv-x="531" 
d="M232 629q45 0 92.5 -16.5t80.5 -49.5l50 -50q20 -20 32 -46t12 -58q0 -41 -13 -66.5t-29 -42.5q-7 -8 -14 -14t-12 -12q2 -2 5 -3t5 -3q10 -6 20 -13.5t19 -16.5l50 -50q17 -17 29 -41.5t12 -57.5q0 -36 -17.5 -65t-45.5 -49t-61.5 -31t-66.5 -11q-66 0 -101 35l-25 25
q-6 -28 -32 -44t-53 -16q-18 0 -40.5 8t-38.5 24l-50 50q-8 8 -13.5 19t-5.5 25v49l3 96v49v52l-1 104v52q0 43 18 74.5t47.5 52.5t67 31t76.5 10zM34 253v-49l-3 -96v-49q0 -15 8.5 -27.5t22 -21t29 -13t28.5 -4.5q14 0 27.5 4.5t24.5 13.5t18 21t7 27q0 80 -5 158.5
t-5 158.5q0 12 0.5 30t5 34.5t14 28t26.5 11.5q14 0 28 -6t14 -23q0 -10 -11 -24t-24.5 -32t-24.5 -41.5t-11 -53.5q0 -36 11 -58.5t27.5 -37t35.5 -22t35.5 -14t27.5 -13.5t11 -19q0 -8 -5.5 -17t-15.5 -9q-12 0 -17.5 1.5t-9.5 15.5q-5 22 -14 33.5t-36 11.5
q-25 0 -36 -20t-11 -42q0 -60 33.5 -88.5t90.5 -28.5q30 0 62 10t58.5 29t43.5 46t17 61q0 47 -23.5 75t-51.5 45.5t-51.5 28.5t-23.5 22t12 21.5t27 26t27 39t12 62.5q0 40 -19.5 70t-49.5 50t-66.5 30t-71.5 10q-36 0 -71.5 -9.5t-64 -29t-46 -49t-17.5 -70.5v-52l1 -104
v-52z" />
    <glyph glyph-name="agrave" unicode="&#xe0;" 
d="M-5 66q0 21 5 55t13.5 74t19.5 83.5t23 84.5t24 76t23 57q17 44 47 72.5t80 33.5q-7 6 -13.5 11.5t-12.5 11.5l-50 50q-15 16 -24.5 32t-9.5 30q0 13 8 26.5t20 24t26 17t26 6.5q17 0 47.5 -21.5t58.5 -49.5l50 -50q20 -20 34.5 -40t14.5 -33q0 -10 -8.5 -25t-20.5 -28
q-3 -2 -5.5 -4t-4.5 -4q-1 0 -1 -0.5t-1 -0.5l24 -24q28 -17 46 -52.5t29 -74.5q12 -39 18.5 -78.5t11.5 -67.5q5 -32 11.5 -66.5t11.5 -69.5t9 -70t4 -67q0 -22 -8 -36t-21.5 -22.5t-31.5 -11.5t-37 -3q-35 0 -54.5 12.5t-29.5 33.5l-50 50q-7 15 -12 33h-50l-5 -32
q-3 -20 -8.5 -36t-19.5 -32q-9 -9 -22.5 -14.5t-32.5 -5.5q-54 0 -79 24l-50 50q-11 12 -17 29t-6 42zM345 667q0 13 -18 35.5t-42 44.5t-48.5 38t-36.5 16q-10 0 -22.5 -6t-23 -15t-17.5 -20.5t-7 -22.5q0 -19 19.5 -41.5t46 -42t54.5 -32.5t46 -13q7 0 15.5 7t16 16.5
t12.5 19.5t5 16zM97 -19q26 0 41 11.5t22.5 29t10 39t5.5 40.5h107q6 -25 10 -48t13 -41t26 -29t49 -11q17 0 32.5 2.5t28 9t20 19t7.5 32.5q0 26 -4 61.5t-9.5 73t-11.5 73.5t-11 63q-4 27 -11 66t-18 78t-28.5 72.5t-43.5 50.5q-19 12 -41 16t-44 4q-38 0 -63 -13.5
t-42.5 -35.5t-29.5 -51t-23 -60q-6 -18 -15 -47.5t-18.5 -64t-18.5 -72t-16 -72t-11.5 -64t-4.5 -47.5q0 -48 23 -66.5t69 -18.5zM203 247q0 7 4 29.5t10 47t13.5 44t15.5 19.5q6 0 10 -17.5t6 -39t3 -42t1 -26.5v-15h-63z" />
    <glyph glyph-name="aacute" unicode="&#xe1;" 
d="M-5 66q0 21 5 55t13.5 74t19.5 83.5t23 84.5t24 76t23 57q11 27 28.5 52t44.5 39l-27 27q-13 13 -21 28t-8 25q0 16 19 40.5t44.5 47.5t51.5 39.5t40 16.5q13 0 28.5 -8t28.5 -21l50 -50q10 -10 16.5 -21.5t6.5 -23.5q0 -14 -8.5 -28.5t-20.5 -27.5t-26 -24t-25 -19
q3 -2 6 -3.5l7 -3.5l50 -50q28 -17 46 -52.5t29 -74.5q12 -39 18.5 -78.5t11.5 -67.5q5 -32 11.5 -66.5t11.5 -69.5t9 -70t4 -67q0 -22 -8 -36t-21.5 -22.5t-31.5 -11.5t-37 -3q-35 0 -54.5 12.5t-29.5 33.5l-50 50q-7 15 -12 33h-50l-5 -32q-3 -20 -8.5 -36t-19.5 -32
q-9 -9 -22.5 -14.5t-32.5 -5.5q-54 0 -79 24l-50 50q-11 12 -17 29t-6 42zM130 667q0 -6 5 -16t12.5 -19.5t16 -16.5t15.5 -7q17 0 45 13t55 32.5t46.5 42t19.5 41.5q0 11 -7 22.5t-17.5 20.5t-23 15t-22.5 6q-13 0 -37 -16t-48 -38t-42 -44.5t-18 -35.5zM97 -19
q26 0 41 11.5t22.5 29t10 39t5.5 40.5h107q6 -25 10 -48t13 -41t26 -29t49 -11q17 0 32.5 2.5t28 9t20 19t7.5 32.5q0 26 -4 61.5t-9.5 73t-11.5 73.5t-11 63q-4 27 -11 66t-18 78t-28.5 72.5t-43.5 50.5q-19 12 -41 16t-44 4q-38 0 -63 -13.5t-42.5 -35.5t-29.5 -51
t-23 -60q-6 -18 -15 -47.5t-18.5 -64t-18.5 -72t-16 -72t-11.5 -64t-4.5 -47.5q0 -48 23 -66.5t69 -18.5zM203 247q0 7 4 29.5t10 47t13.5 44t15.5 19.5q6 0 10 -17.5t6 -39t3 -42t1 -26.5v-15h-63z" />
    <glyph glyph-name="acircumflex" unicode="&#xe2;" 
d="M-5 66q0 21 5 55t13.5 74t19.5 83.5t23 84.5t24 76t23 57q12 30 30 54q5 5 9.5 10t9.5 10l-41 42q-13 13 -21.5 28.5t-8.5 27.5q0 14 20.5 37t47 45.5t52.5 38.5t38 16q11 0 25.5 -5.5t30 -14.5t32 -21t29.5 -26l50 -50q17 -17 27.5 -34t10.5 -32q0 -13 -8.5 -28.5
t-21.5 -27.5q-18 -20 -38 -23l12 -12q28 -17 46 -52.5t29 -74.5q12 -39 18.5 -78.5t11.5 -67.5q5 -32 11.5 -66.5t11.5 -69.5t9 -70t4 -67q0 -22 -8 -36t-21.5 -22.5t-31.5 -11.5t-37 -3q-35 0 -54.5 12.5t-29.5 33.5l-50 50q-7 15 -12 33h-50l-5 -32q-3 -20 -8.5 -36
t-19.5 -32q-9 -9 -22.5 -14.5t-32.5 -5.5q-54 0 -79 24l-50 50q-11 12 -17 29t-6 42zM91 668q0 -9 6.5 -21t16 -23t21 -18.5t20.5 -7.5q8 0 20 7.5t25 17.5t24.5 20t17.5 16q5 -6 15 -15.5t21 -18.5t22.5 -15.5t20.5 -6.5q10 0 21 7t20.5 17.5t15.5 22.5t6 22q0 17 -17 38.5
t-40 40t-48 31.5t-40 13q-11 0 -35.5 -16t-49.5 -37.5t-44 -42.5t-19 -31zM97 -19q26 0 41 11.5t22.5 29t10 39t5.5 40.5h107q6 -25 10 -48t13 -41t26 -29t49 -11q17 0 32.5 2.5t28 9t20 19t7.5 32.5q0 26 -4 61.5t-9.5 73t-11.5 73.5t-11 63q-4 27 -11 66t-18 78
t-28.5 72.5t-43.5 50.5q-19 12 -41 16t-44 4q-38 0 -63 -13.5t-42.5 -35.5t-29.5 -51t-23 -60q-6 -18 -15 -47.5t-18.5 -64t-18.5 -72t-16 -72t-11.5 -64t-4.5 -47.5q0 -48 23 -66.5t69 -18.5zM203 247q0 7 4 29.5t10 47t13.5 44t15.5 19.5q6 0 10 -17.5t6 -39t3 -42
t1 -26.5v-15h-63z" />
    <glyph glyph-name="atilde" unicode="&#xe3;" 
d="M-5 66q0 21 5 55t13.5 74t19.5 83.5t23 84.5t24 76t23 57q8 20 18.5 36t24.5 33l-45 46q-16 15 -21 37.5t-5 39.5q0 21 7.5 42t21.5 37.5t33 26.5t42 10q25 0 51.5 -14t45.5 -30l10 -4l8 14q1 2 3 4q6 10 16.5 19.5t28.5 9.5q17 0 28.5 -9.5t17.5 -23.5l21 -20
q11 -4 17.5 -12t11.5 -18q7 -13 9.5 -27t2.5 -26q0 -18 -5 -37t-15 -36t-24.5 -29.5t-33.5 -16.5v-1l16 -16q28 -17 46 -52.5t29 -74.5q12 -39 18.5 -78.5t11.5 -67.5q5 -32 11.5 -66.5t11.5 -69.5t9 -70t4 -67q0 -22 -8 -36t-21.5 -22.5t-31.5 -11.5t-37 -3
q-35 0 -54.5 12.5t-29.5 33.5l-50 50q-7 15 -12 33h-50l-5 -32q-3 -20 -8.5 -36t-19.5 -32q-9 -9 -22.5 -14.5t-32.5 -5.5q-54 0 -79 24l-50 50q-11 12 -17 29t-6 42zM342 793q-14 0 -22.5 -7.5t-14.5 -17t-10 -17t-9 -7.5t-15 8t-24.5 17t-31.5 17t-36 8q-21 0 -38 -9.5
t-29.5 -24.5t-19.5 -34t-7 -38q0 -13 2.5 -27.5t9 -27t17 -20.5t26.5 -8q15 0 23.5 7t13 16t7 16t6.5 7q8 0 17.5 -7t23 -16t31 -16t39.5 -7t38.5 10t28 26.5t17 36.5t5.5 39q0 11 -2.5 24t-8 24.5t-14.5 19.5t-23 8zM193 640l9 -5q-3 2 -5 3zM97 -19q26 0 41 11.5t22.5 29
t10 39t5.5 40.5h107q6 -25 10 -48t13 -41t26 -29t49 -11q17 0 32.5 2.5t28 9t20 19t7.5 32.5q0 26 -4 61.5t-9.5 73t-11.5 73.5t-11 63q-4 27 -11 66t-18 78t-28.5 72.5t-43.5 50.5q-19 12 -41 16t-44 4q-38 0 -63 -13.5t-42.5 -35.5t-29.5 -51t-23 -60q-6 -18 -15 -47.5
t-18.5 -64t-18.5 -72t-16 -72t-11.5 -64t-4.5 -47.5q0 -48 23 -66.5t69 -18.5zM203 247q0 7 4 29.5t10 47t13.5 44t15.5 19.5q6 0 10 -17.5t6 -39t3 -42t1 -26.5v-15h-63z" />
    <glyph glyph-name="adieresis" unicode="&#xe4;" 
d="M-5 66q0 21 5 55t13.5 74t19.5 83.5t23 84.5t24 76t23 57q10 26 24.5 46.5t36.5 37.5q-2 1 -6 5l-50 50q-14 14 -20.5 32.5t-6.5 37.5q0 38 20.5 64t60.5 26q36 0 57 -23l21 -21q3 7 7 12.5t9 10.5q21 21 56 21q36 0 57 -23l50 -50q25 -23 25 -61q0 -18 -6 -35.5
t-17 -31.5t-26.5 -22.5t-35.5 -8.5q-1 1 -4 1l33 -33q28 -17 46 -52.5t29 -74.5q12 -39 18.5 -78.5t11.5 -67.5q5 -32 11.5 -66.5t11.5 -69.5t9 -70t4 -67q0 -22 -8 -36t-21.5 -22.5t-31.5 -11.5t-37 -3q-35 0 -54.5 12.5t-29.5 33.5l-50 50q-7 15 -12 33h-50l-5 -32
q-3 -20 -8.5 -36t-19.5 -32q-9 -9 -22.5 -14.5t-32.5 -5.5q-54 0 -79 24l-50 50q-11 12 -17 29t-6 42zM234 711q0 32 -20 53t-52 21q-35 0 -53 -23.5t-18 -56.5q0 -31 18.5 -56.5t52.5 -25.5q17 0 30.5 8t22.5 20.5t14 28.5t5 31zM384 711q0 32 -20 53t-52 21
q-35 0 -53 -23.5t-18 -56.5q0 -31 18.5 -56.5t52.5 -25.5q17 0 30.5 8t22.5 20.5t14 28.5t5 31zM282 611l-6 -9q5 -1 9.5 -1.5t9.5 -1.5zM97 -19q26 0 41 11.5t22.5 29t10 39t5.5 40.5h107q6 -25 10 -48t13 -41t26 -29t49 -11q17 0 32.5 2.5t28 9t20 19t7.5 32.5
q0 26 -4 61.5t-9.5 73t-11.5 73.5t-11 63q-4 27 -11 66t-18 78t-28.5 72.5t-43.5 50.5q-19 12 -41 16t-44 4q-38 0 -63 -13.5t-42.5 -35.5t-29.5 -51t-23 -60q-6 -18 -15 -47.5t-18.5 -64t-18.5 -72t-16 -72t-11.5 -64t-4.5 -47.5q0 -48 23 -66.5t69 -18.5zM203 247
q0 7 4 29.5t10 47t13.5 44t15.5 19.5q6 0 10 -17.5t6 -39t3 -42t1 -26.5v-15h-63z" />
    <glyph glyph-name="aring" unicode="&#xe5;" 
d="M-5 66q0 21 5 55t13.5 74t19.5 83.5t23 84.5t24 76t23 57q13 32 33 57.5t52 39.5l-38 38q-32 32 -32 80q0 26 9.5 48t26 38.5t38.5 26t48 9.5q50 0 84 -34l50 -50q15 -15 24 -35.5t9 -45.5q0 -26 -9.5 -49.5t-26.5 -40.5q-4 -3 -7 -6t-7 -6q-1 0 -1.5 -0.5t-1.5 -0.5
l34 -34q28 -17 46 -52.5t29 -74.5q12 -39 18.5 -78.5t11.5 -67.5q5 -32 11.5 -66.5t11.5 -69.5t9 -70t4 -67q0 -22 -8 -36t-21.5 -22.5t-31.5 -11.5t-37 -3q-35 0 -54.5 12.5t-29.5 33.5l-50 50q-7 15 -12 33h-50l-5 -32q-3 -20 -8.5 -36t-19.5 -32q-9 -9 -22.5 -14.5
t-32.5 -5.5q-54 0 -79 24l-50 50q-11 12 -17 29t-6 42zM128 711q0 -24 9 -43.5t24.5 -33.5t36 -21.5t43.5 -7.5q24 0 43.5 9t33.5 24.5t21.5 36t7.5 43.5t-8.5 42t-23 33t-34 22t-41.5 8q-48 0 -80 -32t-32 -80zM223 714q0 8 2.5 20t14.5 12q11 0 14 -9t3 -18t-3.5 -20.5
t-15.5 -11.5q-8 0 -11.5 10t-3.5 17zM97 -19q26 0 41 11.5t22.5 29t10 39t5.5 40.5h107q6 -25 10 -48t13 -41t26 -29t49 -11q17 0 32.5 2.5t28 9t20 19t7.5 32.5q0 26 -4 61.5t-9.5 73t-11.5 73.5t-11 63q-4 27 -11 66t-18 78t-28.5 72.5t-43.5 50.5q-19 12 -41 16t-44 4
q-38 0 -63 -13.5t-42.5 -35.5t-29.5 -51t-23 -60q-6 -18 -15 -47.5t-18.5 -64t-18.5 -72t-16 -72t-11.5 -64t-4.5 -47.5q0 -48 23 -66.5t69 -18.5zM203 247q0 7 4 29.5t10 47t13.5 44t15.5 19.5q6 0 10 -17.5t6 -39t3 -42t1 -26.5v-15h-63z" />
    <glyph glyph-name="ae" unicode="&#xe6;" horiz-adv-x="658" 
d="M-5 66q0 23 6 62.5t16 86t23.5 97t29 96.5t32 83.5t31.5 58.5q19 24 46 38.5t68 14.5q21 0 43 -3.5t42 -14.5q16 6 52 10t75.5 6.5t74 4t48.5 1.5q17 0 32 -15l50 -50q16 -16 24.5 -39.5t8.5 -37.5q0 -32 -10.5 -56t-46.5 -29q-15 -2 -31 -3t-32 -3q14 -4 22 -13l50 -50
q11 -11 15.5 -28t4.5 -34q0 -27 -5 -45.5t-24 -37.5q6 -4 7 -5l50 -50q9 -10 14.5 -23.5t5.5 -31.5q0 -41 -4.5 -69t-18.5 -45t-40 -25.5t-68 -9.5q-19 -1 -37.5 -1h-37.5h-53t-39 1q-16 2 -28.5 5t-22.5 11l-4 4l-4 4l-42 42q-14 12 -20.5 31.5t-10.5 36.5h-52l-5 -32
q-3 -20 -8.5 -36t-19.5 -32q-9 -9 -22.5 -14.5t-32.5 -5.5q-54 0 -79 24l-50 50q-11 12 -17 29t-6 42zM97 -19q27 0 41.5 11.5t22 29t10 39t5.5 40.5h107q12 -48 17.5 -75t18.5 -40.5t40.5 -16.5t82.5 -3h47t47 1q41 1 64.5 9t36.5 24t16.5 42t3.5 64q0 33 -20 50t-52 17
q-13 0 -21.5 -6.5t-15 -15t-13 -15t-17.5 -6.5h-54l-6 89h109q14 0 22 9t12.5 21.5t6 26t1.5 23.5q0 27 -11 47.5t-42 20.5h-98l-5 62q34 3 68 5.5t68 5.5q16 2 25.5 8.5t14.5 17t6.5 23.5t1.5 26q0 9 -4.5 23t-12 27t-17.5 22.5t-21 9.5q-9 0 -30 -0.5t-46.5 -2t-54 -3.5
t-53 -5t-42.5 -6t-24 -7q-20 12 -41.5 16t-43.5 4q-38 0 -63 -13.5t-42.5 -35.5t-29.5 -51t-23 -60q-6 -18 -15 -47.5t-18.5 -64t-18.5 -72t-16 -72t-11.5 -64t-4.5 -47.5q0 -48 23 -66.5t69 -18.5zM203 247q0 7 4 29.5t10 47t13.5 44t15.5 19.5q6 0 10 -17.5t6 -39t3 -42
t1 -26.5v-15h-63zM519 159l1 -18l9 3l12 14l1 1h-23z" />
    <glyph glyph-name="ccedilla" unicode="&#xe7;" horiz-adv-x="437" 
d="M136 -80q-5 5 -9 11.5t-4 15.5q0 5 1 8l-53 53q-26 26 -40.5 60t-21 71t-8 74.5t-1.5 70.5q0 62 8 121.5t33 106t70 75t118 28.5q54 0 91 -13t61 -36l50 -50q35 -35 45.5 -89.5t10.5 -121.5q0 -19 -5.5 -32.5t-14.5 -23.5q-14 -13 -33 -18.5t-40 -6.5q14 -4 24 -14
l50 -50q12 -12 16 -30t4 -40q0 -71 -37 -119t-106 -62l11 -11q13 -8 19 -22.5t6 -43.5t-13.5 -51t-34.5 -37t-47 -23t-52 -8q-18 0 -33.5 4.5t-26.5 15.5l-50 50q-17 17 -17 49q0 18 3 31t14 20q12 5 22 5q9 1 21 0zM133 -53q0 -12 9.5 -20t21 -14t21 -10.5t9.5 -10.5
q0 -7 -4 -10t-10 -3.5t-12 0t-10 0.5q-29 0 -35 -10.5t-6 -36.5q0 -32 19 -45.5t48 -13.5q24 0 48 7t44 21t32.5 34t12.5 47q0 28 -6 40.5t-16 18.5t-21.5 10t-22.5 13q78 5 125.5 50t47.5 126q0 35 -12 56.5t-52 21.5q-28 0 -41.5 -7t-19 -17t-7 -22.5t-6 -22.5t-15.5 -17
t-35 -7q-25 0 -38.5 16.5t-20 40t-7.5 49t-1 42.5t1.5 45.5t8 56t20 47.5t38.5 20q18 0 24.5 -11.5t7.5 -29.5t1 -38t4.5 -38t18 -29.5t42.5 -11.5q36 0 62 15t26 56q0 57 -7 103t-28.5 78.5t-60.5 50.5t-102 18q-72 0 -115 -28.5t-66.5 -74t-30.5 -103t-7 -115.5
q0 -42 3 -89.5t15.5 -90.5t39 -77.5t74.5 -50.5q-4 -7 -6.5 -14t-2.5 -15zM360 228q-13 4 -25 14l-50 50q-14 14 -17.5 36t-3.5 41q-11 -11 -17 -30t-9 -40t-4 -41.5t-1 -34.5q0 -17 1 -41t7 -47q17 0 24.5 3.5t11.5 7.5l6 11l4 17q5 32 23.5 42.5t49.5 11.5zM183 -109
q-2 2 -4 3z" />
    <glyph glyph-name="egrave" unicode="&#xe8;" horiz-adv-x="388" 
d="M187 603q-7 5 -13.5 10.5t-12.5 11.5l-50 50q-15 16 -24.5 32t-9.5 30q0 13 8 26.5t20 24t26 17t26 6.5q17 0 47.5 -21.5t58.5 -49.5l50 -50q20 -20 34.5 -40t14.5 -33q0 -6 -3.5 -14t-8.5 -16l45 -45q16 -16 24.5 -39.5t8.5 -37.5q0 -17 -3 -36.5t-17 -32.5
q-12 -13 -37 -16q-17 -2 -32.5 -3t-32.5 -2q14 -4 24 -14l50 -50q11 -11 15.5 -28t4.5 -34q0 -27 -5 -45.5t-24 -37.5q6 -4 7 -5l50 -50q9 -10 14.5 -23.5t5.5 -31.5q0 -41 -4.5 -69t-18.5 -45t-40 -25.5t-68 -9.5q-20 -1 -39 -1h-39h-79q-44 0 -66 22l-50 50
q-13 13 -18.5 32.5t-5.5 44.5v104l-1 207v103q0 28 3.5 54.5t23.5 48.5q15 15 38 19q47 7 103 12zM302 667q0 13 -18 35.5t-42 44.5t-48.5 38t-36.5 16q-10 0 -22.5 -6t-23 -15t-17.5 -20.5t-7 -22.5q0 -19 19.5 -41.5t46 -42t54.5 -32.5t46 -13q7 0 15.5 7t16 16.5
t12.5 19.5t5 16zM173 -34h47t47 1q41 1 64.5 9t36.5 24t16.5 42t3.5 64q0 33 -20 50t-52 17q-13 0 -21.5 -6.5t-15 -15t-13 -15t-17.5 -6.5h-54l-6 89h109q14 0 22 9t12.5 21.5t6 26t1.5 23.5q0 27 -11 47.5t-42 20.5h-98l-5 62l136 11q16 2 25.5 8.5t14.5 17t6.5 23.5
t1.5 26q0 9 -4.5 23t-12 27t-17.5 22.5t-21 9.5q-57 0 -114 -4t-113 -12q-20 -3 -31.5 -14.5t-17 -28t-7 -35t-1.5 -34.5q0 -104 0.5 -207t0.5 -207q0 -43 17 -66t63 -23h63zM273 159h-23l1 -18l9 3z" />
    <glyph glyph-name="eacute" unicode="&#xe9;" horiz-adv-x="388" 
d="M232 811q13 0 28.5 -8t28.5 -21l50 -50q10 -10 16.5 -21.5t6.5 -23.5q0 -11 -5.5 -22.5t-13.5 -22t-18 -19.5t-18 -16q12 0 20.5 -3t17.5 -12l50 -50q16 -16 24.5 -39.5t8.5 -37.5q0 -17 -3 -36.5t-17 -32.5q-12 -13 -37 -16q-17 -2 -32.5 -3t-32.5 -2q14 -4 24 -14
l50 -50q11 -11 15.5 -28t4.5 -34q0 -27 -5 -45.5t-24 -37.5q6 -4 7 -5l50 -50q9 -10 14.5 -23.5t5.5 -31.5q0 -41 -4.5 -69t-18.5 -45t-40 -25.5t-68 -9.5q-20 -1 -39 -1h-39h-79q-44 0 -66 22l-50 50q-13 13 -18.5 32.5t-5.5 44.5v104l-1 207v103q0 28 3.5 54.5t23.5 48.5
q15 15 38 19q10 2 19.5 3t20.5 3l-12 12q-14 11 -24.5 29t-10.5 29q0 16 19 40.5t44.5 47.5t51.5 39.5t40 16.5zM87 667q0 -6 5 -16t12.5 -19.5t16 -16.5t15.5 -7q17 0 45 13t55 32.5t46.5 42t19.5 41.5q0 11 -7 22.5t-17.5 20.5t-23 15t-22.5 6q-13 0 -37 -16t-48 -38
t-42 -44.5t-18 -35.5zM136 598h1h-1zM173 -34h47t47 1q41 1 64.5 9t36.5 24t16.5 42t3.5 64q0 33 -20 50t-52 17q-13 0 -21.5 -6.5t-15 -15t-13 -15t-17.5 -6.5h-54l-6 89h109q14 0 22 9t12.5 21.5t6 26t1.5 23.5q0 27 -11 47.5t-42 20.5h-98l-5 62l136 11q16 2 25.5 8.5
t14.5 17t6.5 23.5t1.5 26q0 9 -4.5 23t-12 27t-17.5 22.5t-21 9.5q-57 0 -114 -4t-113 -12q-20 -3 -31.5 -14.5t-17 -28t-7 -35t-1.5 -34.5q0 -104 0.5 -207t0.5 -207q0 -43 17 -66t63 -23h63zM273 159h-23l1 -18l9 3z" />
    <glyph glyph-name="ecircumflex" unicode="&#xea;" horiz-adv-x="388" 
d="M196 805q11 0 25.5 -5.5t30 -14.5t32 -21t29.5 -26l50 -50q17 -17 27.5 -34t10.5 -32q0 -13 -8.5 -28.5t-21.5 -28.5l23 -23q16 -16 25 -39.5t9 -37.5q0 -17 -3 -36.5t-17 -32.5q-12 -13 -37 -16q-17 -2 -32.5 -3t-32.5 -2q14 -4 24 -14l50 -50q11 -11 15.5 -28t4.5 -34
q0 -27 -5 -45.5t-24 -37.5q6 -4 7 -5l50 -50q9 -10 14.5 -23.5t5.5 -31.5q0 -41 -4.5 -69t-18.5 -45t-40 -25.5t-68 -9.5q-20 -1 -39 -1h-39h-79q-44 0 -66 22l-50 50q-13 13 -18.5 32.5t-5.5 44.5v104l-1 207v103q0 28 3.5 54.5t23.5 48.5q15 15 38 19q3 0 4 1l-20 20
q-13 13 -21.5 28.5t-8.5 27.5q0 14 20.5 37t47 45.5t52.5 38.5t38 16zM48 668q0 -9 6.5 -21t16 -23t21 -18.5t20.5 -7.5q8 0 20 7.5t25 17.5t24.5 20t17.5 16q5 -6 15 -15.5t21 -18.5t22.5 -15.5t20.5 -6.5q10 0 21 7t20.5 17.5t15.5 22.5t6 22q0 17 -17 38.5t-40 40
t-48 31.5t-40 13q-11 0 -35.5 -16t-49.5 -37.5t-44 -42.5t-19 -31zM312 607q17 13 28 31.5t11 33.5q0 -15 -11.5 -33.5t-27.5 -31.5zM173 -34h47t47 1q41 1 64.5 9t36.5 24t16.5 42t3.5 64q0 33 -20 50t-52 17q-13 0 -21.5 -6.5t-15 -15t-13 -15t-17.5 -6.5h-54l-6 89h109
q14 0 22 9t12.5 21.5t6 26t1.5 23.5q0 27 -11 47.5t-42 20.5h-98l-5 62l136 11q16 2 25.5 8.5t14.5 17t6.5 23.5t1.5 26q0 9 -4.5 23t-12 27t-17.5 22.5t-21 9.5q-57 0 -114 -4t-113 -12q-20 -3 -31.5 -14.5t-17 -28t-7 -35t-1.5 -34.5q0 -104 0.5 -207t0.5 -207
q0 -43 17 -66t63 -23h63zM273 159h-23l1 -18l9 3z" />
    <glyph glyph-name="edieresis" unicode="&#xeb;" horiz-adv-x="388" 
d="M376 722q25 -23 25 -61q0 -10 -3 -22.5t-8 -24.5t-13 -22t-17 -15l35 -35q16 -16 24.5 -39.5t8.5 -37.5q0 -17 -3 -36.5t-17 -32.5q-12 -13 -37 -16q-17 -2 -32.5 -3t-32.5 -2q14 -4 24 -14l50 -50q11 -11 15.5 -28t4.5 -34q0 -27 -5 -45.5t-24 -37.5q6 -4 7 -5l50 -50
q9 -10 14.5 -23.5t5.5 -31.5q0 -41 -4.5 -69t-18.5 -45t-40 -25.5t-68 -9.5q-20 -1 -39 -1h-39h-79q-44 0 -66 22l-50 50q-13 13 -18.5 32.5t-5.5 44.5v104l-1 207v103q0 28 3.5 54.5t23.5 48.5q15 15 38 19q5 1 11 1.5t11 1.5l-41 41q-14 14 -20.5 32.5t-6.5 37.5
q0 38 20.5 64t60.5 26q36 0 57 -23l21 -21q3 7 7 12.5t9 10.5q21 21 56 21q36 0 57 -23zM191 711q0 32 -20 53t-52 21q-35 0 -53 -23.5t-18 -56.5q0 -31 18.5 -56.5t52.5 -25.5q17 0 30.5 8t22.5 20.5t14 28.5t5 31zM341 711q0 32 -20 53t-52 21q-35 0 -53 -23.5t-18 -56.5
q0 -31 18.5 -56.5t52.5 -25.5q17 0 30.5 8t22.5 20.5t14 28.5t5 31zM239 611l-3 -6q2 0 4.5 0.5t4.5 0.5zM173 -34h47t47 1q41 1 64.5 9t36.5 24t16.5 42t3.5 64q0 33 -20 50t-52 17q-13 0 -21.5 -6.5t-15 -15t-13 -15t-17.5 -6.5h-54l-6 89h109q14 0 22 9t12.5 21.5t6 26
t1.5 23.5q0 27 -11 47.5t-42 20.5h-98l-5 62l136 11q16 2 25.5 8.5t14.5 17t6.5 23.5t1.5 26q0 9 -4.5 23t-12 27t-17.5 22.5t-21 9.5q-57 0 -114 -4t-113 -12q-20 -3 -31.5 -14.5t-17 -28t-7 -35t-1.5 -34.5q0 -104 0.5 -207t0.5 -207q0 -43 17 -66t63 -23h63zM273 159h-23
l1 -18l9 3z" />
    <glyph glyph-name="igrave" unicode="&#xec;" horiz-adv-x="314" 
d="M156 598q-18 13 -32 27l-50 50q-15 16 -24.5 32t-9.5 30q0 13 8 26.5t20 24t26 17t26 6.5q17 0 47.5 -21.5t58.5 -49.5l50 -50q20 -20 34.5 -40t14.5 -33q0 -8 -7 -22t-17 -25l31 -31q13 -13 19 -37.5t6 -41.5q0 -21 -5 -41t-19 -34q-15 -17 -41 -18q6 -75 6 -150
q0 -47 -3 -95l44 -44q22 -22 22 -65q0 -48 -26 -74.5t-74 -26.5q-22 0 -43 1t-43 2q-31 2 -57.5 8t-43.5 23l-50 50q-25 23 -25 75q0 37 15 56.5t53 21.5q-1 17 -1 34.5v34.5q0 40 1 79t2 79q-2 1 -4 3l-50 50q-20 20 -20 66q0 13 2.5 30.5t8.5 33t17 26t29 10.5zM265 667
q0 13 -18 35.5t-42 44.5t-48.5 38t-36.5 16q-10 0 -22.5 -6t-23 -15t-17.5 -20.5t-7 -22.5q0 -19 19.5 -41.5t46 -42t54.5 -32.5t46 -13q7 0 15.5 7t16 16.5t12.5 19.5t5 16zM52 585q-15 0 -24 -10t-14.5 -24.5t-7 -29.5t-1.5 -26q0 -42 16 -58.5t58 -16.5q0 -51 -1.5 -101
t-1.5 -101v-39.5t2 -39.5q-38 0 -53.5 -13.5t-15.5 -54.5q0 -30 8.5 -48.5t24.5 -28.5t37.5 -14t46.5 -5q21 -1 42.5 -2t42.5 -1q44 0 67 24t23 67q0 34 -16 54.5t-52 20.5q2 32 3.5 64.5t1.5 64.5q0 40 -1.5 79.5t-5.5 79.5q38 0 52 24.5t14 59.5q0 9 -2 22.5t-7 26.5
t-13 22t-20 9z" />
    <glyph glyph-name="iacute" unicode="&#xed;" horiz-adv-x="314" 
d="M195 811q13 0 28.5 -8t28.5 -21l50 -50q10 -10 16.5 -21.5t6.5 -23.5q0 -13 -6.5 -25t-16 -23.5t-21 -21t-20.5 -17.5q6 -1 11 -4t10 -7l50 -50q13 -13 19 -37.5t6 -41.5q0 -21 -5 -41t-19 -34q-15 -17 -41 -18q6 -75 6 -150q0 -47 -3 -95l44 -44q22 -22 22 -65
q0 -48 -26 -74.5t-74 -26.5q-22 0 -43 1t-43 2q-31 2 -57.5 8t-43.5 23l-50 50q-25 23 -25 75q0 37 15 56.5t53 21.5q-1 17 -1 34.5v34.5q0 40 1 79t2 79q-2 1 -4 3l-50 50q-20 20 -20 66q0 13 2.5 30.5t8.5 33t17 26t29 10.5l35 1l-18 18q-13 13 -21 28t-8 25q0 16 19 40.5
t44.5 47.5t51.5 39.5t40 16.5zM50 667q0 -6 5 -16t12.5 -19.5t16 -16.5t15.5 -7q17 0 45 13t55 32.5t46.5 42t19.5 41.5q0 11 -7 22.5t-17.5 20.5t-23 15t-22.5 6q-13 0 -37 -16t-48 -38t-42 -44.5t-18 -35.5zM52 585q-15 0 -24 -10t-14.5 -24.5t-7 -29.5t-1.5 -26
q0 -42 16 -58.5t58 -16.5q0 -51 -1.5 -101t-1.5 -101v-39.5t2 -39.5q-38 0 -53.5 -13.5t-15.5 -54.5q0 -30 8.5 -48.5t24.5 -28.5t37.5 -14t46.5 -5q21 -1 42.5 -2t42.5 -1q44 0 67 24t23 67q0 34 -16 54.5t-52 20.5q2 32 3.5 64.5t1.5 64.5q0 40 -1.5 79.5t-5.5 79.5
q38 0 52 24.5t14 59.5q0 9 -2 22.5t-7 26.5t-13 22t-20 9z" />
    <glyph glyph-name="icircumflex" unicode="&#xee;" horiz-adv-x="314" 
d="M159 805q11 0 25.5 -5.5t30 -14.5t32 -21t29.5 -26l50 -50q17 -17 27.5 -34t10.5 -32q0 -9 -4.5 -19.5t-11.5 -20.5t-16 -19t-19 -14q12 -2 20.5 -12.5t14 -24t7.5 -28t2 -24.5q0 -21 -5 -41t-19 -34q-15 -17 -41 -18q6 -75 6 -150q0 -47 -3 -95l44 -44q22 -22 22 -65
q0 -48 -26 -74.5t-74 -26.5q-22 0 -43 1t-43 2q-31 2 -57.5 8t-43.5 23l-50 50q-25 23 -25 75q0 37 15 56.5t53 21.5q-1 17 -1 34.5v34.5q0 40 1 79t2 79q-2 1 -4 3l-50 50q-20 20 -20 66q0 14 2.5 31t8.5 32t17 25.5t29 11.5q-10 6 -19 15t-16 19t-11.5 20.5t-4.5 18.5
q0 14 20.5 37t47 45.5t52.5 38.5t38 16zM11 668q0 -9 6.5 -21t16 -23t21 -18.5t20.5 -7.5q8 0 20 7.5t25 17.5t24.5 20t17.5 16q5 -6 15 -15.5t21 -18.5t22.5 -15.5t20.5 -6.5q10 0 21 7t20.5 17.5t15.5 22.5t6 22q0 17 -17 38.5t-40 40t-48 31.5t-40 13q-11 0 -35.5 -16
t-49.5 -37.5t-44 -42.5t-19 -31zM99 596h1h-1zM52 585q-15 0 -24 -10t-14.5 -24.5t-7 -29.5t-1.5 -26q0 -42 16 -58.5t58 -16.5q0 -51 -1.5 -101t-1.5 -101v-39.5t2 -39.5q-38 0 -53.5 -13.5t-15.5 -54.5q0 -30 8.5 -48.5t24.5 -28.5t37.5 -14t46.5 -5q21 -1 42.5 -2
t42.5 -1q44 0 67 24t23 67q0 34 -16 54.5t-52 20.5q2 32 3.5 64.5t1.5 64.5q0 40 -1.5 79.5t-5.5 79.5q38 0 52 24.5t14 59.5q0 9 -2 22.5t-7 26.5t-13 22t-20 9z" />
    <glyph glyph-name="idieresis" unicode="&#xef;" horiz-adv-x="314" 
d="M339 722q25 -23 25 -61q0 -29 -15.5 -56t-44.5 -38l28 -28q13 -13 19 -37.5t6 -41.5q0 -21 -5 -41t-19 -34q-15 -17 -41 -18q6 -75 6 -150q0 -47 -3 -95l44 -44q22 -22 22 -65q0 -48 -26 -74.5t-74 -26.5q-22 0 -43 1t-43 2q-31 2 -57.5 8t-43.5 23l-50 50q-25 23 -25 75
q0 37 15 56.5t53 21.5q-1 17 -1 34.5v34.5q0 40 1 79t2 79q-2 1 -4 3l-50 50q-20 20 -20 66q0 13 2.5 30.5t8.5 33t17 26t29 10.5h16l-40 40q-14 14 -20.5 32.5t-6.5 37.5q0 38 20.5 64t60.5 26q36 0 57 -23l21 -21q3 7 7 12.5t9 10.5q21 21 56 21q36 0 57 -23zM154 711
q0 32 -20 53t-52 21q-35 0 -53 -23.5t-18 -56.5q0 -31 18.5 -56.5t52.5 -25.5q17 0 30.5 8t22.5 20.5t14 28.5t5 31zM304 711q0 32 -20 53t-52 21q-35 0 -53 -23.5t-18 -56.5q0 -31 18.5 -56.5t52.5 -25.5q17 0 30.5 8t22.5 20.5t14 28.5t5 31zM214 599l-12 12q-2 -4 -8 -12
h20zM52 585q-15 0 -24 -10t-14.5 -24.5t-7 -29.5t-1.5 -26q0 -42 16 -58.5t58 -16.5q0 -51 -1.5 -101t-1.5 -101v-39.5t2 -39.5q-38 0 -53.5 -13.5t-15.5 -54.5q0 -30 8.5 -48.5t24.5 -28.5t37.5 -14t46.5 -5q21 -1 42.5 -2t42.5 -1q44 0 67 24t23 67q0 34 -16 54.5
t-52 20.5q2 32 3.5 64.5t1.5 64.5q0 40 -1.5 79.5t-5.5 79.5q38 0 52 24.5t14 59.5q0 9 -2 22.5t-7 26.5t-13 22t-20 9z" />
    <glyph glyph-name="eth" unicode="&#xf0;" horiz-adv-x="482" 
d="M127 524q-8 8 -12.5 18t-4.5 25q0 26 21 45q14 14 33 22t36 8q19 0 40.5 -14.5t35.5 -28.5q16 13 33 23q7 5 16 5q22 0 40 -18l50 -50q15 -13 15 -32q0 -6 -3 -10.5t-6 -7.5l-15 -12l-16 -10q28 -25 53 -61.5t43.5 -77.5t29.5 -83t11 -78q0 -52 -18 -100.5t-50.5 -86
t-78 -59.5t-100.5 -22q-50 0 -89 16t-67 44l-50 50q-33 34 -50.5 80.5t-17.5 101.5q0 74 40 127t109 75l-22 22q-5 5 -9 13t-4 17q0 10 5.5 18t11.5 14q2 2 4.5 4t4.5 4zM230 -21q53 0 96.5 21.5t74.5 57.5t48.5 82.5t17.5 96.5q0 37 -12 80t-31.5 84.5t-45.5 78t-55 59.5
q3 2 11 6.5t16 10t14 11.5t6 10q0 17 -15 28.5t-30 11.5q-6 0 -16 -6.5t-19 -13.5t-14 -12q-6 6 -15 14.5t-20 15.5t-21.5 12t-19.5 5q-12 0 -26 -5t-26 -14t-20 -20.5t-8 -25.5q0 -26 14 -36.5t33 -22.5q-10 -7 -23.5 -18t-13.5 -25q0 -15 12 -25t26 -10t29 12.5t25 20.5
l20 -26t21 -27q-8 2 -16.5 3t-16.5 1q-45 0 -84 -14.5t-68 -41t-45.5 -64t-16.5 -83.5q0 -49 14 -91.5t41.5 -73.5t67.5 -49t91 -18zM244 294q33 0 56 -21.5t23 -55.5q0 -38 -24 -60t-61 -22q-35 0 -51 23.5t-16 55.5q0 15 5.5 29.5t15.5 25.5t23.5 18t28.5 7z" />
    <glyph glyph-name="ntilde" unicode="&#xf1;" horiz-adv-x="510" 
d="M303 755l1 1l7 13q1 1 1.5 2t2.5 3q6 10 16.5 19.5t28.5 9.5q17 0 28.5 -9.5t17.5 -23.5l21 -20q11 -4 17.5 -12t11.5 -18q7 -13 9.5 -27t2.5 -26q0 -20 -6 -41t-18 -38q14 -7 22 -16l50 -50q24 -24 24 -59q0 -57 1 -113.5t1 -113.5q0 -62 -1 -124t-12 -123
q-4 -22 -9.5 -36.5t-15 -22.5t-24.5 -11.5t-38 -3.5q-20 0 -37 9.5t-32 24.5l-50 50q-8 8 -14.5 16.5t-13.5 16.5q-9 14 -17.5 27.5t-16.5 27.5q-2 5 -5 10.5t-6 10.5q1 -29 1 -56.5v-56.5q0 -85 -84 -85q-23 0 -42 5t-32 18l-50 50q-9 9 -15 21.5t-8 30.5q-5 41 -5.5 82
t-0.5 82q0 68 2 135.5t6 135.5q2 23 7 46.5t15.5 42t28 30t45.5 11.5q5 0 10 -0.5t10 -1.5q-13 5 -22 15.5t-14 23.5t-7 27t-2 24q0 21 7.5 42t21.5 37.5t33 26.5t42 10q25 0 51.5 -14t45.5 -30zM360 793q-14 0 -22.5 -7.5t-14.5 -17t-10 -17t-9 -7.5t-15 8t-24.5 17
t-31.5 17t-36 8q-21 0 -38 -9.5t-29.5 -24.5t-19.5 -34t-7 -38q0 -13 2.5 -27.5t9 -27t17 -20.5t26.5 -8q15 0 23.5 7t13 16t7 16t6.5 7q8 0 17.5 -7t23 -16t31 -16t39.5 -7t38.5 10t28 26.5t17 36.5t5.5 39q0 11 -2.5 24t-8 24.5t-14.5 19.5t-23 8zM211 640l9 -5q-3 2 -5 3
zM117 -30q74 0 74 75q0 110 -3 221q11 -33 25.5 -65t31.5 -62q11 -19 25.5 -47t33 -54t41 -44.5t47.5 -18.5q21 0 34 2.5t21.5 10t13.5 20.5t8 33q10 61 11.5 123.5t1.5 123.5v28.5t-1 28.5l-1 112v56q0 19 -7.5 33.5t-20 24.5t-29 15t-33.5 5q-39 0 -56.5 -23.5
t-17.5 -60.5q0 -59 2 -117.5t2 -117.5q-14 24 -30.5 66t-33 85.5t-33 80.5t-30.5 53t-34 24.5t-41 8.5q-33 0 -50.5 -18t-25.5 -45t-9.5 -57t-2.5 -54l-4 -108t-2 -109q0 -40 0.5 -81t5.5 -82q5 -38 28 -52t59 -14zM316 557l-12 6t-11 7q-7 4 -12.5 8t-10.5 7l-9 5l-8 -17
q-5 -8 -13 -16.5t-22 -10.5l27 -27q2 -2 3 -2.5t2 -2.5q14 -15 29 -46.5t29 -68.5q-1 27 -1.5 54t-0.5 54q0 14 2.5 26.5t7.5 23.5z" />
    <glyph glyph-name="ograve" unicode="&#xf2;" horiz-adv-x="507" 
d="M10 277q0 65 7 124t30.5 104t67.5 74t119 34q-4 3 -7 6l-6 6l-50 50q-16 16 -25.5 32t-9.5 30q0 13 8 26t20 23.5t26 17.5t26 7q17 0 48 -21.5t59 -49.5l50 -50q20 -20 34 -40t14 -33q0 -8 -5.5 -19t-13.5 -22q11 -7 22 -18l50 -50q23 -22 37 -52t22 -63.5t11 -70.5
t3 -74q0 -70 -8 -132t-34 -108t-74.5 -72.5t-130.5 -26.5q-63 0 -105 15t-69 42l-50 50q-22 22 -35 50t-20 61.5t-9 71.5t-2 78zM361 667q0 13 -18 35.5t-42 44.5t-48.5 38t-36.5 16q-10 0 -22.5 -6t-23 -15t-17.5 -20.5t-7 -22.5q0 -19 19.5 -41.5t46.5 -42t55 -32.5
t45 -13q7 0 15.5 7t16 16.5t12.5 19.5t5 16zM250 -31q80 0 127 26t71.5 70.5t31.5 104.5t7 128q0 59 -8 114.5t-32 98t-67.5 68t-113.5 25.5q-81 0 -129.5 -24.5t-74.5 -68t-34 -103.5t-8 -131q0 -67 7 -123.5t31 -97.5t69.5 -64t122.5 -23zM188 270q0 16 1 43.5t7 54.5
t19 46.5t37 19.5q27 0 41.5 -22t21 -51.5t7 -60t0.5 -48.5t-2 -39t-9 -39t-21 -30t-38 -12q-25 0 -38 12.5t-19 31.5t-6.5 40.5t-0.5 39.5v14z" />
    <glyph glyph-name="oacute" unicode="&#xf3;" horiz-adv-x="507" 
d="M10 277q0 51 4.5 103.5t21 97.5t50 78.5t91.5 47.5q-16 11 -28.5 31t-12.5 32q0 16 19 40.5t44.5 47.5t51.5 39.5t40 16.5t29.5 -8t27.5 -21l50 -50q23 -21 23 -45q0 -14 -9.5 -30t-25.5 -32q-6 -7 -13.5 -13t-15.5 -12q40 -15 67 -42l50 -50q23 -22 37 -52t22 -63.5
t11 -70.5t3 -74q0 -70 -8 -132t-34 -108t-74.5 -72.5t-130.5 -26.5q-63 0 -105 15t-69 42l-50 50q-22 22 -35 50t-20 61.5t-9 71.5t-2 78zM146 667q0 -6 5 -16t12.5 -19.5t16 -16.5t15.5 -7q17 0 45 13t55 32.5t46.5 42t19.5 41.5q0 11 -7 22.5t-17.5 20.5t-22.5 15t-23 6
q-12 0 -36.5 -16t-48.5 -38t-42 -44.5t-18 -35.5zM250 -31q80 0 127 26t71.5 70.5t31.5 104.5t7 128q0 59 -8 114.5t-32 98t-67.5 68t-113.5 25.5q-81 0 -129.5 -24.5t-74.5 -68t-34 -103.5t-8 -131q0 -67 7 -123.5t31 -97.5t69.5 -64t122.5 -23zM188 270q0 16 1 43.5
t7 54.5t19 46.5t37 19.5q27 0 41.5 -22t21 -51.5t7 -60t0.5 -48.5t-2 -39t-9 -39t-21 -30t-38 -12q-25 0 -38 12.5t-19 31.5t-6.5 40.5t-0.5 39.5v14z" />
    <glyph glyph-name="ocircumflex" unicode="&#xf4;" horiz-adv-x="507" 
d="M10 277q0 45 3.5 93.5t17 92.5t41.5 79t76 53q-20 12 -35.5 34t-15.5 39q0 14 20.5 37t47.5 45t53 38.5t37 16.5t25.5 -5.5t30 -14.5t32 -21t29.5 -26l50 -50q17 -17 27.5 -34t10.5 -32q0 -14 -10.5 -32.5t-26.5 -30.5l51 -51q23 -22 37 -52t22 -63.5t11 -70.5t3 -74
q0 -70 -8 -132t-34 -108t-74.5 -72.5t-130.5 -26.5q-63 0 -105 15t-69 42l-50 50q-22 22 -35 50t-20 61.5t-9 71.5t-2 78zM107 668q0 -9 6.5 -21t16 -23t21 -18.5t20.5 -7.5q8 0 20.5 7.5t25.5 17.5t24.5 20t16.5 16q6 -6 16 -15.5t21 -18.5t22.5 -15.5t19.5 -6.5q10 0 21 7
t20.5 17.5t15.5 22.5t6 22q0 17 -16.5 38.5t-40 40t-48 31.5t-40.5 13q-11 0 -35.5 -16t-49.5 -37.5t-44 -42.5t-19 -31zM250 -31q80 0 127 26t71.5 70.5t31.5 104.5t7 128q0 59 -8 114.5t-32 98t-67.5 68t-113.5 25.5q-81 0 -129.5 -24.5t-74.5 -68t-34 -103.5t-8 -131
q0 -67 7 -123.5t31 -97.5t69.5 -64t122.5 -23zM188 270q0 16 1 43.5t7 54.5t19 46.5t37 19.5q27 0 41.5 -22t21 -51.5t7 -60t0.5 -48.5t-2 -39t-9 -39t-21 -30t-38 -12q-25 0 -38 12.5t-19 31.5t-6.5 40.5t-0.5 39.5v14z" />
    <glyph glyph-name="otilde" unicode="&#xf5;" horiz-adv-x="507" 
d="M10 277q0 43 3 90t15.5 90t38 78.5t70.5 55.5l-20 20q-15 15 -20.5 37.5t-5.5 39.5q0 21 7.5 42t21.5 37.5t33 26.5t42 10q21 0 40 -8.5t33 -18.5q8 -5 14 -9t11 -8l9 -4l9 14l2 4q6 10 16.5 19.5t28.5 9.5t29.5 -9.5t17.5 -23.5l20 -20q12 -4 19.5 -13.5t12.5 -21.5
t7 -24.5t2 -23.5q0 -29 -12 -58.5t-35 -46.5q2 -1 2.5 -2t2.5 -2l50 -50q23 -22 37 -52t22 -63.5t11 -70.5t3 -74q0 -70 -8 -132t-34 -108t-74.5 -72.5t-130.5 -26.5q-63 0 -105 15t-69 42l-50 50q-22 22 -35 50t-20 61.5t-9 71.5t-2 78zM358 793q-13 0 -21.5 -7.5
t-14.5 -17t-10.5 -17t-9.5 -7.5q-4 0 -14.5 8t-24.5 17t-31.5 17t-36.5 8q-21 0 -38 -9.5t-29.5 -24.5t-19.5 -34t-7 -38q0 -13 2.5 -27.5t9 -27t17 -20.5t26.5 -8q15 0 23.5 7t13 16t7 16t6.5 7q8 0 18 -7t23 -16t30.5 -16t39.5 -7t38.5 10t28 26.5t17 36.5t5.5 39
q0 11 -2.5 24t-8 24.5t-14.5 19.5t-23 8zM250 -31q80 0 127 26t71.5 70.5t31.5 104.5t7 128q0 59 -8 114.5t-32 98t-67.5 68t-113.5 25.5q-81 0 -129.5 -24.5t-74.5 -68t-34 -103.5t-8 -131q0 -67 7 -123.5t31 -97.5t69.5 -64t122.5 -23zM188 270q0 16 1 43.5t7 54.5
t19 46.5t37 19.5q27 0 41.5 -22t21 -51.5t7 -60t0.5 -48.5t-2 -39t-9 -39t-21 -30t-38 -12q-25 0 -38 12.5t-19 31.5t-6.5 40.5t-0.5 39.5v14z" />
    <glyph glyph-name="odieresis" unicode="&#xf6;" horiz-adv-x="507" 
d="M10 277q0 49 4 98.5t19 93.5t45 78.5t82 52.5l-36 35q-14 14 -20.5 32.5t-6.5 37.5q0 38 21 64t60 26q37 0 58 -23l21 -21q10 22 29 33t42 11q37 0 58 -23l50 -50q24 -24 24 -61q0 -25 -13 -52t-37 -38l6.5 -6.5t7.5 -6.5l50 -50q23 -22 37 -52t22 -63.5t11 -70.5t3 -74
q0 -70 -8 -132t-34 -108t-74.5 -72.5t-130.5 -26.5q-63 0 -105 15t-69 42l-50 50q-22 22 -35 50t-20 61.5t-9 71.5t-2 78zM250 711q0 32 -20 53t-52 21q-35 0 -53 -23.5t-18 -56.5q0 -31 18.5 -56.5t52.5 -25.5q17 0 30.5 8t22.5 20.5t14 28.5t5 31zM400 711q0 32 -20 53
t-52 21q-35 0 -53 -23.5t-18 -56.5q0 -31 18.5 -56.5t52.5 -25.5q17 0 30.5 8t22.5 20.5t14 28.5t5 31zM250 -31q80 0 127 26t71.5 70.5t31.5 104.5t7 128q0 59 -8 114.5t-32 98t-67.5 68t-113.5 25.5q-81 0 -129.5 -24.5t-74.5 -68t-34 -103.5t-8 -131q0 -67 7 -123.5
t31 -97.5t69.5 -64t122.5 -23zM188 270q0 16 1 43.5t7 54.5t19 46.5t37 19.5q27 0 41.5 -22t21 -51.5t7 -60t0.5 -48.5t-2 -39t-9 -39t-21 -30t-38 -12q-25 0 -38 12.5t-19 31.5t-6.5 40.5t-0.5 39.5v14z" />
    <glyph glyph-name="divide" unicode="&#xf7;" horiz-adv-x="498" 
d="M357 484q21 -21 21 -53q0 -24 -11 -43q19 0 37.5 -2.5t32.5 -16.5l50 -50q20 -19 20 -58t-19 -62t-60 -23q-23 0 -46.5 0.5t-46.5 1.5l28 -28q21 -21 21 -53q0 -37 -24.5 -61.5t-61.5 -24.5q-38 0 -60 22l-50 50q-22 22 -22 60q0 15 5 32q-18 0 -36 3t-32 17l-50 50
q-21 21 -21 63q0 38 14 57.5t55 19.5q28 0 55.5 0.5t56.5 0.5l-31 31q-22 22 -22 59t21.5 60t59.5 23q19 0 36.5 -6t29.5 -19zM318 481q0 33 -22.5 50.5t-54.5 17.5q-34 0 -52.5 -20t-18.5 -53t19 -52t52 -19q32 0 54.5 21.5t22.5 54.5zM381 378h-70l-140 -3h-70
q-37 0 -48 -16.5t-11 -50.5q0 -38 17 -55.5t55 -17.5q28 0 56 2t56 2q38 0 76 -1.5t76 -1.5q37 0 53 20t16 55q0 67 -66 67zM324 147q0 34 -22.5 51t-54.5 17q-35 0 -53 -19.5t-18 -52.5q0 -34 19 -53t53 -19q32 0 54 21.5t22 54.5z" />
    <glyph glyph-name="oslash" unicode="&#xf8;" horiz-adv-x="507" 
d="M479 603q21 -21 21 -50q0 -16 -5 -34l-8 -26q20 -25 32 -55.5t18 -63t8 -65t2 -61.5q0 -44 -2.5 -84.5t-10.5 -76.5t-22 -66t-37 -53q-29 -30 -76 -45.5t-117 -13.5q-11 -21 -28 -40t-43 -19q-17 0 -38.5 8.5t-37.5 24.5l-50 50q-8 8 -13.5 18.5t-5.5 23.5q0 9 3 21t5 21
q-22 24 -35 57t-19.5 68t-8 70.5t-1.5 64.5q0 43 3 83.5t11 76t22 65.5t37 53q30 30 76.5 45.5t115.5 13.5q6 11 14 23t17.5 22.5t21 17t25.5 6.5q19 0 40 -7.5t36 -22.5zM250 -31q80 0 127 26t71.5 70.5t31.5 104.5t7 128q0 30 -2 62.5t-8.5 64.5t-18.5 61.5t-32 53.5
q5 15 9.5 31t4.5 32q0 17 -8 30t-20.5 22t-28 13.5t-30.5 4.5q-13 0 -24 -7.5t-20 -18t-16 -22.5t-12 -21h-15q-81 0 -129.5 -24.5t-74.5 -68t-34 -103.5t-8 -131q0 -30 1.5 -65.5t8.5 -71t20 -67t36 -54.5q-3 -8 -6.5 -22t-3.5 -22q0 -14 8.5 -26t21.5 -20.5t28 -13.5
t27 -5t22 6t18 14.5t14.5 19t10.5 19.5h24zM188 270q0 16 1 43.5t7 54.5t19 46.5t37 19.5q27 0 41.5 -22t21 -51.5t7 -60t0.5 -48.5t-2 -39t-9 -39t-21 -30t-38 -12q-25 0 -38 12.5t-19 31.5t-6.5 40.5t-0.5 39.5v14z" />
    <glyph glyph-name="ugrave" unicode="&#xf9;" horiz-adv-x="477" 
d="M358 690q20 -20 34 -40t14 -33q0 -9 -8 -23q15 -7 23 -16l50 -50q14 -14 21.5 -33.5t11.5 -41.5t4.5 -43.5t0.5 -39.5v-85.5t-2 -85.5q-2 -64 -10 -117t-31 -91.5t-66.5 -60t-116.5 -21.5q-51 0 -87.5 13.5t-60.5 37.5l-50 50q-32 32 -46 79.5t-16 107.5l-4 134t-2 135
q0 28 2.5 52.5t12 42.5t29 28t52.5 10q45 0 66 -23l50 -50q14 -13 19.5 -32.5t5.5 -44.5v-280q13 4 20 23t10.5 42.5t4.5 45.5t1 32q0 20 -0.5 40.5t-0.5 40.5l-2 55q0 20 -0.5 40.5t-0.5 40.5q0 19 8 35q-23 11 -46.5 26.5t-41.5 34.5l-50 50q-16 16 -25.5 32t-9.5 30
q0 13 8 26t20 23.5t26 17.5t26 7q17 0 48 -21.5t59 -49.5zM346 667q0 13 -18 35.5t-42 44.5t-48.5 38t-36.5 16q-10 0 -22.5 -6t-23 -15t-17.5 -20.5t-7 -22.5q0 -19 19.5 -41.5t46.5 -42t55 -32.5t45 -13q7 0 15.5 7t16 16.5t12.5 19.5t5 16zM233 -31q71 0 112.5 21.5
t63.5 59t29.5 89t8.5 110.5q2 43 2 85.5v85.5q0 21 -1.5 50t-9 55.5t-23.5 45t-46 18.5q-29 0 -51 -14t-22 -46q0 -20 0.5 -40.5t0.5 -40.5l2 -55q0 -20 0.5 -40.5t0.5 -40.5q0 -17 -1 -44t-7 -52.5t-19.5 -44t-38.5 -18.5q-12 0 -19.5 6t-12 15t-6.5 19.5t-2 19.5v286
q0 42 -18 66t-63 24q-31 0 -48.5 -10t-26 -26.5t-10 -39t-1.5 -47.5q0 -68 2 -134.5t4 -134.5q2 -51 12 -93t33.5 -72t61 -46.5t93.5 -16.5z" />
    <glyph glyph-name="uacute" unicode="&#xfa;" horiz-adv-x="477" 
d="M276 811q14 0 29.5 -8t27.5 -21l50 -50q23 -21 23 -45q0 -13 -7.5 -26.5t-18.5 -26t-23.5 -23t-22.5 -17.5q18 5 35 5t29.5 -5.5t22.5 -15.5l50 -50q14 -14 21.5 -33.5t11.5 -41.5t4.5 -43.5t0.5 -39.5v-85.5t-2 -85.5q-2 -64 -10 -117t-31 -91.5t-66.5 -60t-116.5 -21.5
q-51 0 -87.5 13.5t-60.5 37.5l-50 50q-32 32 -46 79.5t-16 107.5l-4 134t-2 135q0 28 2.5 52.5t12 42.5t29 28t52.5 10q45 0 66 -23l50 -50q14 -13 19.5 -32.5t5.5 -44.5v-280q13 4 20 23t10.5 42.5t4.5 45.5t1 32q0 20 -0.5 40.5t-0.5 40.5l-2 55q0 20 -0.5 40.5t-0.5 40.5
q0 26 15 44q-20 -11 -39 -18t-32 -7q-8 0 -15 4.5t-15 11.5l-50 50q-12 13 -20.5 28t-8.5 25q0 16 19 40.5t44.5 47.5t51.5 39.5t40 16.5zM131 667q0 -6 5 -16t12.5 -19.5t16 -16.5t15.5 -7q17 0 45 13t55 32.5t46.5 42t19.5 41.5q0 11 -7 22.5t-17.5 20.5t-22.5 15t-23 6
q-12 0 -36.5 -16t-48.5 -38t-42 -44.5t-18 -35.5zM233 -31q71 0 112.5 21.5t63.5 59t29.5 89t8.5 110.5q2 43 2 85.5v85.5q0 21 -1.5 50t-9 55.5t-23.5 45t-46 18.5q-29 0 -51 -14t-22 -46q0 -20 0.5 -40.5t0.5 -40.5l2 -55q0 -20 0.5 -40.5t0.5 -40.5q0 -17 -1 -44
t-7 -52.5t-19.5 -44t-38.5 -18.5q-12 0 -19.5 6t-12 15t-6.5 19.5t-2 19.5v286q0 42 -18 66t-63 24q-31 0 -48.5 -10t-26 -26.5t-10 -39t-1.5 -47.5q0 -68 2 -134.5t4 -134.5q2 -51 12 -93t33.5 -72t61 -46.5t93.5 -16.5z" />
    </font>
</defs>
</svg>
