<svg width="16" height="16" viewBox="0 0 16 16" fill="none" xmlns="http://www.w3.org/2000/svg">
<g id="calendar (6) 1" clip-path="url(#clip0_2658_11265)">
<g id="Group">
<path id="Vector" d="M3.17676 10.3247H4.73925C4.998 10.3247 5.208 10.1147 5.208 9.85595V8.29346C5.208 8.03471 4.998 7.82471 4.73925 7.82471H3.17676C2.91801 7.82471 2.70801 8.03471 2.70801 8.29346V9.85595C2.70801 10.1147 2.91801 10.3247 3.17676 10.3247Z" fill="#3B7C93"/>
<path id="Vector_2" d="M3.17676 14.0747H4.73925C4.998 14.0747 5.208 13.8647 5.208 13.606V12.0435C5.208 11.7847 4.998 11.5747 4.73925 11.5747H3.17676C2.91801 11.5747 2.70801 11.7847 2.70801 12.0435V13.606C2.70801 13.8647 2.91801 14.0747 3.17676 14.0747Z" fill="#3B7C93"/>
<path id="Vector_3" d="M7.55273 10.3247H9.11523C9.37398 10.3247 9.58398 10.1147 9.58398 9.85595V8.29346C9.58398 8.03471 9.37398 7.82471 9.11523 7.82471H7.55273C7.29398 7.82471 7.08398 8.03471 7.08398 8.29346V9.85595C7.08398 10.1147 7.29398 10.3247 7.55273 10.3247Z" fill="#3B7C93"/>
<path id="Vector_4" d="M7.55273 14.0747H9.11523C9.37398 14.0747 9.58398 13.8647 9.58398 13.606V12.0435C9.58398 11.7847 9.37398 11.5747 9.11523 11.5747H7.55273C7.29398 11.5747 7.08398 11.7847 7.08398 12.0435V13.606C7.08398 13.8647 7.29398 14.0747 7.55273 14.0747Z" fill="#3B7C93"/>
<path id="Vector_5" d="M11.9258 10.3247H13.4883C13.747 10.3247 13.957 10.1147 13.957 9.85595V8.29346C13.957 8.03471 13.747 7.82471 13.4883 7.82471H11.9258C11.667 7.82471 11.457 8.03471 11.457 8.29346V9.85595C11.457 10.1147 11.667 10.3247 11.9258 10.3247Z" fill="#3B7C93"/>
<path id="Vector_6" d="M13.958 2.8252H13.333V1.5752C13.333 1.2302 13.053 0.950195 12.708 0.950195H12.083C11.738 0.950195 11.458 1.2302 11.458 1.5752V2.8252H5.20801V1.5752C5.20801 1.2302 4.92801 0.950195 4.58301 0.950195H3.95801C3.61301 0.950195 3.33301 1.2302 3.33301 1.5752V2.8252H2.70801C1.67426 2.8252 0.833008 3.66645 0.833008 4.7002V14.0752C0.833008 15.1089 1.67426 15.9502 2.70801 15.9502H13.958C14.9918 15.9502 15.833 15.1089 15.833 14.0752V4.7002C15.833 3.66645 14.9918 2.8252 13.958 2.8252ZM14.583 14.0752C14.583 14.4196 14.3024 14.7002 13.958 14.7002H2.70801C2.36363 14.7002 2.08301 14.4196 2.08301 14.0752V7.2252H14.583V14.0752Z" fill="#3B7C93"/>
</g>
</g>
<defs>
<clipPath id="clip0_2658_11265">
<rect width="15" height="15" fill="white" transform="translate(0.833008 0.950195)"/>
</clipPath>
</defs>
</svg>
