<svg width="16" height="16" viewBox="0 0 16 16" fill="none" xmlns="http://www.w3.org/2000/svg">
<g id="tag-black-tool-shape 1" clip-path="url(#clip0_2658_11275)">
<g id="Group">
<g id="Group_2">
<path id="Vector" d="M14.1914 7.68435L7.00931 14.8661C6.88511 14.9906 6.66795 14.9906 6.54342 14.8661L2.1454 10.468C1.95231 10.2749 1.63962 10.2749 1.44656 10.468C1.25349 10.661 1.25349 10.974 1.44656 11.1669L5.8446 15.5649C6.09352 15.814 6.42449 15.9511 6.77657 15.9511C7.12864 15.9511 7.45961 15.814 7.70837 15.5649L14.8903 8.38319C15.0833 8.19026 15.0833 7.87725 14.8903 7.68435C14.6971 7.49129 14.3845 7.49129 14.1914 7.68435Z" fill="#3B7C93"/>
<path id="Vector_2" d="M6.10728 14.005C6.42885 14.3267 6.95043 14.3267 7.27217 14.005L14.454 6.82307C14.8072 6.46986 14.9659 5.79934 14.8087 5.32537L14.0087 2.9135C13.8515 2.43954 13.3369 1.93707 12.8591 1.79111L10.2769 1.00298C9.79938 0.857184 9.12587 1.02521 8.77266 1.37844L1.70895 8.44187C1.38738 8.76361 1.38738 9.28503 1.70895 9.60677L6.10728 14.005ZM10.6755 3.29077C11.1582 2.80806 11.9405 2.80806 12.4231 3.29077C12.9058 3.77349 12.9058 4.55586 12.4231 5.03855C11.9404 5.52126 11.158 5.52126 10.6755 5.03855C10.1929 4.55586 10.1929 3.77349 10.6755 3.29077Z" fill="#3B7C93"/>
</g>
</g>
</g>
<defs>
<clipPath id="clip0_2658_11275">
<rect width="15" height="15" fill="white" transform="translate(0.666992 0.950195)"/>
</clipPath>
</defs>
</svg>
