<svg width="15" height="16" viewBox="0 0 15 16" fill="none" xmlns="http://www.w3.org/2000/svg">
<g id="user-shape 1" clip-path="url(#clip0_2658_11258)">
<g id="Group">
<g id="Group_2">
<path id="Vector" d="M7.50013 8.45028C8.53556 8.45028 9.41932 8.08394 10.1517 7.35157C10.8841 6.6192 11.2503 5.73544 11.2503 4.70015C11.2503 3.66503 10.8841 2.78124 10.1517 2.0487C9.41908 1.31636 8.53528 0.950195 7.50013 0.950195C6.46497 0.950195 5.58104 1.31636 4.84871 2.0487C4.11624 2.78124 3.75 3.665 3.75 4.70015C3.75 5.73544 4.11624 6.6192 4.84871 7.35157C5.58125 8.08394 6.46494 8.45028 7.50013 8.45028Z" fill="#3B7C93"/>
<path id="Vector_2" d="M14.341 12.4102C14.3181 12.0815 14.2725 11.7266 14.2043 11.3457C14.1359 10.9648 14.0495 10.6118 13.9453 10.2861C13.8411 9.96066 13.7011 9.64324 13.5253 9.33396C13.3496 9.02471 13.1478 8.76109 12.9198 8.54289C12.6918 8.32476 12.4135 8.15073 12.085 8.02054C11.756 7.89039 11.3931 7.8252 10.9959 7.8252C10.9374 7.8252 10.8006 7.89518 10.5857 8.03518C10.3711 8.17518 10.1285 8.33147 9.85833 8.50407C9.58818 8.67636 9.23641 8.83275 8.80365 8.97251C8.37068 9.11251 7.93617 9.18253 7.49981 9.18253C7.06363 9.18253 6.62908 9.11251 6.19618 8.97251C5.76331 8.83275 5.41165 8.67636 5.14146 8.50407C4.87131 8.33147 4.62883 8.17522 4.41402 8.03518C4.19911 7.89518 4.06246 7.8252 4.00386 7.8252C3.60674 7.8252 3.24376 7.89039 2.91501 8.02054C2.58619 8.15073 2.3079 8.3249 2.07999 8.54289C1.85215 8.76109 1.6503 9.02471 1.47459 9.33396C1.29888 9.64324 1.15891 9.9608 1.05472 10.2861C0.950566 10.6118 0.864266 10.9648 0.795924 11.3457C0.727513 11.7266 0.681952 12.0813 0.659137 12.4102C0.636356 12.7391 0.625 13.076 0.625 13.4211C0.625 14.2022 0.862692 14.8192 1.33791 15.2717C1.81322 15.7241 2.44479 15.9502 3.23254 15.9502H11.7679C12.5556 15.9502 13.1871 15.7241 13.6624 15.2717C14.1379 14.8192 14.3754 14.2023 14.3754 13.4211C14.3754 13.076 14.364 12.7391 14.341 12.4102Z" fill="#3B7C93"/>
</g>
</g>
</g>
<defs>
<clipPath id="clip0_2658_11258">
<rect width="15" height="15" fill="white" transform="translate(0 0.950195)"/>
</clipPath>
</defs>
</svg>
