<svg width="15" height="16" viewBox="0 0 15 16" fill="none" xmlns="http://www.w3.org/2000/svg">
<path d="M10.0397 8.44984L14.4736 4.01622C15.1752 3.31465 15.1752 2.17732 14.4736 1.47611C13.7728 0.774891 12.6347 0.774891 11.9339 1.47611L7.49991 5.91044L3.06594 1.47611C2.36508 0.774891 1.22704 0.774891 0.526182 1.47611C-0.175394 2.17768 -0.175394 3.31501 0.526182 4.01622L4.9598 8.44984L0.526182 12.8835C-0.175394 13.585 -0.175394 14.7223 0.526182 15.4236C0.876431 15.7745 1.3366 15.9495 1.79606 15.9495C2.25515 15.9495 2.71569 15.7745 3.06594 15.4236L7.49991 10.99L11.9339 15.4239C12.2845 15.7749 12.7443 15.9498 13.2038 15.9498C13.6632 15.9498 14.1234 15.7749 14.4736 15.4239C15.1752 14.7223 15.1752 13.585 14.4736 12.8838L10.0397 8.44984Z" fill="#F7921E"/>
</svg>
