<svg width="40" height="41" viewBox="0 0 40 41" fill="none" xmlns="http://www.w3.org/2000/svg">
<path d="M20 0.470703C8.95427 0.470703 0 9.42497 0 20.4707C0 31.5164 8.95427 40.4707 20 40.4707C31.0457 40.4707 40 31.5164 40 20.4707C40 9.42497 31.0457 0.470703 20 0.470703ZM27.6301 10.6559L24.8638 10.6571C22.6946 10.6571 22.2752 11.6879 22.2752 13.2003V16.5354H27.448L27.4455 21.7589H22.2756V35.1637H16.8802V21.7589H12.3699V16.5354H16.8802V12.6831C16.8802 8.21249 19.6117 5.77771 23.5994 5.77771L27.6305 5.78385V10.6559H27.6301Z" fill="#F7921E"/>
</svg>
