<svg width="15" height="16" viewBox="0 0 15 16" fill="none" xmlns="http://www.w3.org/2000/svg">
<path id="Vector" d="M14.0033 0.950196H0.630431C0.39442 0.94975 0.178188 1.08151 0.0703699 1.29135C-0.0389357 1.50401 -0.0197514 1.7601 0.119892 1.95432L5.01916 8.85604C5.0208 8.85842 5.02258 8.86065 5.02422 8.86303C5.20223 9.10335 5.2986 9.39454 5.29904 9.6936V15.3205C5.298 15.4871 5.36344 15.6473 5.48077 15.7655C5.59826 15.8836 5.75798 15.9502 5.92454 15.9502C6.00916 15.95 6.09303 15.9332 6.17126 15.9007L8.92427 14.851C9.17084 14.7756 9.33458 14.5429 9.33458 14.2627V9.6936C9.33502 9.39454 9.43139 9.10335 9.60925 8.86303C9.61089 8.86065 9.61267 8.85842 9.61431 8.85604L14.5137 1.95417C14.6534 1.7601 14.6726 1.50416 14.5633 1.2915C14.4556 1.08151 14.2392 0.94975 14.0033 0.950196Z" fill="#ED7424"/>
</svg>
