<svg width="15" height="16" viewBox="0 0 15 16" fill="none" xmlns="http://www.w3.org/2000/svg">
<g id="search">
<g id="Group">
<g id="Group_2">
<path id="Vector" d="M14.4389 12.7706L11.9701 10.3018C12.419 9.40406 12.7182 8.35668 12.7182 7.3093C12.7182 3.79309 9.87531 0.950195 6.3591 0.950195C2.84289 0.950195 0 3.79309 0 7.3093C0 10.8255 2.84289 13.6684 6.3591 13.6684C7.40648 13.6684 8.45386 13.3691 9.35162 12.9203L11.8204 15.3891C12.5686 16.1372 13.6908 16.1372 14.4389 15.3891C15.1122 14.641 15.1122 13.5188 14.4389 12.7706ZM6.3591 12.1721C3.66583 12.1721 1.49626 10.0026 1.49626 7.3093C1.49626 4.61603 3.66583 2.44645 6.3591 2.44645C9.05237 2.44645 11.2219 4.61603 11.2219 7.3093C11.2219 10.0026 9.05237 12.1721 6.3591 12.1721Z" fill="#ED7424"/>
</g>
</g>
</g>
</svg>
