<svg width="100" height="100" viewBox="0 0 100 100" fill="none" xmlns="http://www.w3.org/2000/svg">
<path d="M24.5614 9.78947C24.551 10.4811 24.3365 11.1542 23.9447 11.7243C23.5529 12.2943 23.0013 12.7359 22.3593 12.9934C21.7173 13.2509 21.0135 13.3129 20.3364 13.1717C19.6593 13.0304 19.039 12.6921 18.5536 12.1994C18.0681 11.7066 17.7391 11.0814 17.6079 10.4022C17.4768 9.72308 17.5492 9.0203 17.8163 8.38222C18.0833 7.74413 18.533 7.19922 19.1088 6.81595C19.6847 6.43267 20.3609 6.22815 21.0526 6.22807C21.9893 6.23779 22.8841 6.61781 23.5415 7.2851C24.199 7.95239 24.5656 8.85274 24.5614 9.78947Z" fill="#ED7424"/>
<path d="M14.0351 9.78947C14.0247 10.4811 13.8101 11.1542 13.4183 11.7243C13.0265 12.2943 12.475 12.7359 11.833 12.9934C11.191 13.2509 10.4872 13.3129 9.81009 13.1717C9.13296 13.0304 8.51269 12.6921 8.02723 12.1994C7.54177 11.7066 7.21279 11.0814 7.08161 10.4022C6.95043 9.72308 7.02292 9.0203 7.28997 8.38222C7.55702 7.74413 8.00671 7.19922 8.58253 6.81595C9.15835 6.43267 9.8346 6.22815 10.5263 6.22807C11.463 6.23779 12.3578 6.61781 13.0152 7.2851C13.6727 7.95239 14.0393 8.85274 14.0351 9.78947Z" fill="#ED7424"/>
<path d="M35.0877 9.78947C35.0773 10.4811 34.8628 11.1542 34.471 11.7243C34.0792 12.2943 33.5276 12.7359 32.8856 12.9934C32.2436 13.2509 31.5399 13.3129 30.8627 13.1717C30.1856 13.0304 29.5653 12.6921 29.0799 12.1994C28.5944 11.7066 28.2654 11.0814 28.1342 10.4022C28.0031 9.72308 28.0756 9.0203 28.3426 8.38222C28.6097 7.74413 29.0593 7.19922 29.6352 6.81595C30.211 6.43267 30.8872 6.22815 31.5789 6.22807C32.5156 6.23779 33.4104 6.61781 34.0679 7.2851C34.7253 7.95239 35.0919 8.85274 35.0877 9.78947Z" fill="#ED7424"/>
<path d="M96.4912 0H3.50877C2.57904 0.00277671 1.68818 0.373342 1.03076 1.03076C0.373342 1.68818 0.00277671 2.57904 0 3.50877V96.4912C0.00277671 97.421 0.373342 98.3118 1.03076 98.9692C1.68818 99.6267 2.57904 99.9972 3.50877 100H96.4912C97.421 99.9972 98.3118 99.6267 98.9692 98.9692C99.6267 98.3118 99.9972 97.421 100 96.4912V3.50877C99.9972 2.57904 99.6267 1.68818 98.9692 1.03076C98.3118 0.373342 97.421 0.00277671 96.4912 0ZM96.4912 96.4912H3.50877V19.5965H96.4912V96.4912ZM96.4912 16.0877H3.50877V3.50877H96.4912V16.0877Z" fill="#ED7424"/>
<path d="M92.4737 11.2456C92.7981 11.5766 92.9784 12.0226 92.9751 12.4861C92.9718 12.9496 92.7852 13.3929 92.4561 13.7193C92.2967 13.883 92.1055 14.0125 91.8944 14.1C91.6833 14.1874 91.4566 14.231 91.2281 14.2281C90.9956 14.2295 90.7653 14.1836 90.5511 14.0931C90.337 14.0026 90.1435 13.8694 89.9825 13.7018L88.5965 12.2982L87.2105 13.7018C87.0495 13.8694 86.856 14.0026 86.6419 14.0931C86.4277 14.1836 86.1974 14.2295 85.9649 14.2281C85.7364 14.231 85.5097 14.1874 85.2986 14.1C85.0874 14.0125 84.8963 13.883 84.7368 13.7193C84.4077 13.3929 84.2212 12.9496 84.2179 12.4861C84.2146 12.0226 84.3949 11.5766 84.7193 11.2456L86.1404 9.78947L84.7193 8.35088C84.3929 8.01733 84.2116 7.5683 84.2149 7.10165C84.2182 6.635 84.4058 6.18857 84.7368 5.85965C85.0679 5.53521 85.5138 5.35495 85.9773 5.35824C86.4408 5.36153 86.8841 5.5481 87.2105 5.87719L88.5965 7.29825L89.9825 5.87719C90.3088 5.5481 90.7522 5.36153 91.2157 5.35824C91.6792 5.35495 92.1251 5.53521 92.4561 5.85965C92.7872 6.18857 92.9748 6.635 92.9781 7.10165C92.9813 7.5683 92.8 8.01733 92.4737 8.35088L91.0526 9.78947L92.4737 11.2456Z" fill="#ED7424"/>
<path d="M80.7018 9.78947C80.7018 10.2548 80.5169 10.701 80.1879 11.03C79.8589 11.359 79.4127 11.5439 78.9474 11.5439H71.9298C71.4645 11.5439 71.0183 11.359 70.6893 11.03C70.3603 10.701 70.1754 10.2548 70.1754 9.78947C70.1754 9.32418 70.3603 8.87795 70.6893 8.54894C71.0183 8.21992 71.4645 8.03509 71.9298 8.03509H78.9474C79.4127 8.03509 79.8589 8.21992 80.1879 8.54894C80.5169 8.87795 80.7018 9.32418 80.7018 9.78947Z" fill="#ED7424"/>
<path d="M29.2105 69.1053L35.5789 65.4386H66.5789C67.5033 65.4337 68.4088 65.1762 69.1973 64.6938C69.9858 64.2114 70.6274 63.5225 71.0526 62.7018L81 43.9123C81.4627 43.0266 81.6716 42.0303 81.6035 41.0333C81.5354 40.0364 81.1929 39.0777 80.614 38.2632L79.3509 36.4737C78.8841 35.8183 78.2687 35.2826 77.5552 34.9106C76.8417 34.5386 76.0502 34.3408 75.2456 34.3333H75.2281L33.8772 34.4386L33.614 31.7368C33.4952 30.403 32.8859 29.1605 31.9039 28.2499C30.922 27.3393 29.6373 26.8252 28.2982 26.807H18.386C17.9207 26.807 17.4744 26.9919 17.1454 27.3209C16.8164 27.6499 16.6316 28.0961 16.6316 28.5614C16.6316 29.0267 16.8164 29.4729 17.1454 29.8019C17.4744 30.131 17.9207 30.3158 18.386 30.3158H28.2982C28.7695 30.3365 29.2166 30.5307 29.5534 30.861C29.8902 31.1913 30.093 31.6345 30.1228 32.1053L33.2456 62.7368L27.3333 66.1579C26.6027 66.6723 26.0073 67.3558 25.598 68.15C25.1886 68.9443 24.9774 69.8258 24.9825 70.7193V71.2105C24.9693 72.5821 25.4727 73.9083 26.3926 74.9257C27.3124 75.9431 28.5815 76.5771 29.9474 76.7018C29.0513 78.0474 28.5751 79.6289 28.5789 81.2456C28.5406 82.2845 28.7121 83.3204 29.0832 84.2915C29.4543 85.2626 30.0174 86.1488 30.7388 86.8974C31.4602 87.6459 32.3251 88.2413 33.2818 88.6479C34.2386 89.0546 35.2674 89.2642 36.307 89.2642C37.3466 89.2642 38.3755 89.0546 39.3322 88.6479C40.2889 88.2413 41.1539 87.6459 41.8753 86.8974C42.5967 86.1488 43.1597 85.2626 43.5308 84.2915C43.9019 83.3204 44.0734 82.2845 44.0351 81.2456C44.034 79.6431 43.5645 78.0759 42.6842 76.7368H58.5965C57.7082 78.0722 57.2379 79.6419 57.2456 81.2456C57.2073 82.2845 57.3788 83.3204 57.7499 84.2915C58.121 85.2626 58.6841 86.1488 59.4055 86.8974C60.1269 87.6459 60.9918 88.2413 61.9485 88.6479C62.9052 89.0546 63.9341 89.2642 64.9737 89.2642C66.0133 89.2642 67.0422 89.0546 67.9989 88.6479C68.9556 88.2413 69.8205 87.6459 70.5419 86.8974C71.2633 86.1488 71.8264 85.2626 72.1975 84.2915C72.5686 83.3204 72.7401 82.2845 72.7018 81.2456C72.7007 79.6431 72.2312 78.0759 71.3509 76.7368H74.5263C74.9916 76.7368 75.4379 76.552 75.7669 76.223C76.0959 75.894 76.2807 75.4478 76.2807 74.9825C76.2807 74.5172 76.0959 74.0709 75.7669 73.7419C75.4379 73.4129 74.9916 73.2281 74.5263 73.2281H30.3333C29.8225 73.2021 29.3425 72.9757 28.9976 72.598C28.6526 72.2202 28.4707 71.7216 28.4912 71.2105V70.7193C28.4883 70.4144 28.551 70.1124 28.6751 69.834C28.7992 69.5554 28.9818 69.3069 29.2105 69.1053ZM67.9649 61.0526C67.8341 61.3099 67.6363 61.5272 67.3924 61.6816C67.1485 61.836 66.8675 61.9217 66.5789 61.9298H36.6842L34.8772 44.1404L76.9123 44.1228L67.9649 61.0526ZM75.2281 37.8421H75.2456C75.4916 37.8446 75.7333 37.9066 75.9502 38.0226C76.1671 38.1387 76.3527 38.3055 76.4912 38.5088L77.7719 40.2982C77.8246 40.386 77.8772 40.4912 77.9298 40.5965L34.5088 40.6316L34.2456 37.9474L75.2281 37.8421ZM64.9649 76.7368C65.8721 76.6731 66.7775 76.8839 67.5632 77.342C68.3489 77.8001 68.9784 78.4842 69.3698 79.3051C69.7611 80.126 69.8963 81.0458 69.7575 81.9446C69.6188 82.8434 69.2126 83.6796 68.5919 84.3443C67.9711 85.009 67.1647 85.4713 66.2774 85.6712C65.3902 85.871 64.4634 85.799 63.6176 85.4647C62.7719 85.1303 62.0464 84.549 61.5357 83.7965C61.025 83.0439 60.7528 82.1551 60.7544 81.2456C60.7184 80.0903 61.1409 78.9677 61.9298 78.1229C62.7187 77.2782 63.8099 76.7798 64.9649 76.7368ZM36.2982 76.7368C37.2055 76.6731 38.1109 76.8839 38.8965 77.342C39.6822 77.8001 40.3117 78.4842 40.7031 79.3051C41.0945 80.126 41.2296 81.0458 41.0908 81.9446C40.9521 82.8434 40.5459 83.6796 39.9252 84.3443C39.3045 85.009 38.498 85.4713 37.6108 85.6712C36.7235 85.871 35.7967 85.799 34.9509 85.4647C34.1052 85.1303 33.3797 84.549 32.869 83.7965C32.3583 83.0439 32.0861 82.1551 32.0877 81.2456C32.0517 80.0903 32.4743 78.9677 33.2632 78.1229C34.0521 77.2782 35.1432 76.7798 36.2982 76.7368Z" fill="#ED7424"/>
</svg>
