<svg width="101" height="101" viewBox="0 0 101 101" fill="none" xmlns="http://www.w3.org/2000/svg">
<g clip-path="url(#clip0_3446_6382)">
<path d="M99.9926 31.9283C100.15 26.3945 97.7881 21.2094 93.4915 17.7114L84.7972 10.6254C84.1898 10.1306 83.3912 9.91685 82.6264 10.0293C81.8503 10.1418 81.1642 10.5917 80.7256 11.2441L41.8091 69.9112L36.1066 62.6116C35.2743 61.5431 33.7896 61.2394 32.5973 61.8805L3.61243 77.5483C0.80055 79.0667 -0.560402 82.171 0.215678 85.2641C1.00301 88.3684 3.67992 90.4492 6.87422 90.4492H48.94C56.7458 90.4492 63.843 85.849 67.0261 78.718L71.5701 68.5503C74.8319 61.2281 80.0057 54.8733 86.5181 50.183L86.9792 49.8456L88.2164 87.6598C88.2614 88.8971 89.2737 89.8756 90.5109 89.8756C91.7369 89.8756 92.7492 88.9083 92.8054 87.6823L94.74 43.9632C97.9568 40.7913 99.8464 36.5398 99.9926 31.9283ZM83.2563 45.6728C75.9454 50.9366 70.1529 58.0676 66.4862 66.2895L61.9534 76.4573C59.6702 81.5862 54.5638 84.893 48.94 84.893H6.87422C5.98567 84.893 5.69323 84.2743 5.60325 83.9032C5.51327 83.532 5.46828 82.8571 6.24436 82.4297L33.1822 67.8867L39.8183 76.3673C40.3694 77.0759 41.2242 77.4921 42.1128 77.4358C43.0013 77.4021 43.8224 76.9409 44.3173 76.1986L83.6612 16.8791L89.9823 22.0192C92.9291 24.4149 94.5488 27.9692 94.4363 31.7708C94.3238 35.5725 92.4905 39.0142 89.4087 41.2412L83.2563 45.6728Z" fill="#ED7424"/>
</g>
<defs>
<clipPath id="clip0_3446_6382">
<rect width="100" height="100" fill="white" transform="translate(0.332031 0.450195)"/>
</clipPath>
</defs>
</svg>
