<svg width="100" height="95" viewBox="0 0 100 95" fill="none" xmlns="http://www.w3.org/2000/svg">
<path d="M50.0064 0.499023C31.7003 0.499023 16.8073 15.3922 16.8073 33.6985C16.8073 45.5007 22.9511 56.2284 32.987 62.2103C33.6137 62.5839 34.0137 63.2515 34.0137 63.9811V71.2854C34.0137 71.2874 34.0121 71.289 34.0101 71.289C34.0082 71.289 34.0066 71.2906 34.0066 71.2925V78.0687C34.0066 78.0713 34.0045 78.0735 34.0018 78.0735C33.9992 78.0735 33.997 78.0756 33.997 78.0783V86.3645C33.997 87.469 34.8925 88.3645 35.997 88.3645H41.7053C42.764 88.3645 43.6082 89.2103 43.9755 90.2032C44.881 92.6513 47.2382 94.4009 49.9969 94.4009C52.7554 94.4009 55.1126 92.6513 56.0181 90.2034C56.3854 89.2104 57.2296 88.3645 58.2884 88.3645H63.9903C65.0948 88.3645 65.9903 87.469 65.9903 86.3645V81.5848C65.9903 81.5821 65.9925 81.5799 65.9952 81.5799C65.9979 81.5799 66.0001 81.5777 66.0001 81.575V71.2895C66.0001 71.2892 65.9999 71.289 65.9996 71.289C65.9993 71.289 65.9991 71.2887 65.9991 71.2884V63.9811C65.9991 63.2515 66.399 62.5839 67.0258 62.2103C77.0617 56.2284 83.2054 45.5007 83.2054 33.6985C83.2054 15.3922 68.3124 0.499023 50.0064 0.499023ZM37.5131 76.4345C37.5131 75.5293 38.2469 74.7955 39.1521 74.7955H60.8546C61.7598 74.7955 62.4936 75.5293 62.4936 76.4345C62.4936 77.3397 61.7598 78.0735 60.8546 78.0735H39.1521C38.2469 78.0735 37.5131 77.3397 37.5131 76.4345ZM49.9969 90.8946C49.3 90.8946 48.7066 90.6676 48.241 90.3081C47.2787 89.5651 48.2011 88.3645 49.4168 88.3645H50.5992C51.8078 88.3645 52.7256 89.5523 51.7686 90.2906C51.2779 90.6692 50.6635 90.8946 49.9969 90.8946ZM62.4838 83.219C62.4838 84.1242 61.75 84.858 60.8448 84.858H39.1426C38.2374 84.858 37.5035 84.1242 37.5035 83.219C37.5035 82.3138 38.2374 81.58 39.1426 81.58H60.8448C61.75 81.58 62.4838 82.3138 62.4838 83.219ZM63.4509 60.1796C62.8629 60.4788 62.4926 61.0828 62.4926 61.7425V69.1926C62.4926 70.2972 61.5972 71.1926 60.4926 71.1926H53.7533C52.6488 71.1926 51.7533 70.2972 51.7533 69.1926V46.1118C51.7533 45.5813 51.964 45.0726 52.3391 44.6976L62.1534 34.8828C62.838 34.1982 62.838 33.0882 62.1531 32.4034C61.4688 31.719 60.3585 31.7187 59.6737 32.4036L51.4143 40.6634C50.6332 41.4445 49.3669 41.4445 48.5858 40.6634L40.3264 32.4036C39.6418 31.719 38.5316 31.7187 37.847 32.4034C37.1621 33.0883 37.1621 34.1982 37.8467 34.8829L47.661 44.6976C48.0361 45.0727 48.2468 45.5813 48.2468 46.1118V69.1926C48.2468 70.2972 47.3513 71.1926 46.2468 71.1926H39.5202C38.4156 71.1926 37.5202 70.2972 37.5202 69.1926V61.7425C37.5202 61.0827 37.1499 60.4788 36.5619 60.1796C26.5397 55.0808 20.3138 44.9336 20.3138 33.6985C20.3138 17.3257 33.6339 4.00563 50.0064 4.00563C66.3789 4.00563 79.6989 17.3257 79.6989 33.6985C79.6989 44.9336 73.4732 55.0808 63.4509 60.1796Z" fill="#ED7424"/>
<path d="M59.2593 11.1292C58.291 11.1292 57.5061 11.9141 57.5061 12.8825C57.5061 13.8509 58.291 14.6357 59.2593 14.6357C62.0172 14.6357 68.481 17.9487 68.481 24.3734C68.481 25.3418 69.2659 26.1267 70.2342 26.1267C71.2026 26.1267 71.9875 25.3418 71.9875 24.3734C71.9874 15.6779 63.7014 11.1292 59.2593 11.1292Z" fill="#ED7424"/>
<path d="M11.6295 37.0545C11.6295 36.0862 10.8447 35.3013 9.87633 35.3013H1.92705C0.958717 35.3013 0.173828 36.0862 0.173828 37.0545C0.173828 38.0229 0.958717 38.8077 1.92705 38.8077H9.87633C10.8447 38.8077 11.6295 38.0229 11.6295 37.0545Z" fill="#ED7424"/>
<path d="M12.231 14.122C12.5734 14.4644 13.022 14.6356 13.4708 14.6356C13.9194 14.6356 14.3682 14.4644 14.7104 14.1222C15.3953 13.4374 15.3953 12.3274 14.7107 11.6429L9.09022 6.02208C8.40588 5.33769 7.29561 5.33747 6.61077 6.02186C5.92594 6.70669 5.92594 7.81669 6.61055 8.5013L12.231 14.122Z" fill="#ED7424"/>
<path d="M12.2317 59.9868L6.61072 65.6076C5.92588 66.2924 5.92588 67.4024 6.61049 68.0872C6.95294 68.4297 7.40149 68.6009 7.85033 68.6009C8.29888 68.6009 8.74772 68.4297 9.08988 68.0872L14.7109 62.4665C15.3958 61.7817 15.3958 60.6717 14.7112 59.9874C14.0266 59.3025 12.9163 59.3025 12.2317 59.9868Z" fill="#ED7424"/>
<path d="M98.0731 35.3013H90.124C89.1557 35.3013 88.3707 36.0862 88.3707 37.0545C88.3707 38.0229 89.1557 38.8077 90.124 38.8077H98.0731C99.0414 38.8077 99.8263 38.0229 99.8263 37.0545C99.8263 36.0862 99.0414 35.3013 98.0731 35.3013Z" fill="#ED7424"/>
<path d="M86.529 14.6356C86.9776 14.6356 87.4264 14.4644 87.7688 14.1222L93.3895 8.50152C94.0741 7.81669 94.0741 6.70669 93.3895 6.02186C92.7047 5.33747 91.5947 5.33747 90.9098 6.02186L85.2891 11.6426C84.6045 12.3275 84.6045 13.4374 85.2891 14.1222C85.6316 14.4644 86.0804 14.6356 86.529 14.6356Z" fill="#ED7424"/>
<path d="M87.7683 59.9868C87.084 59.3025 85.9738 59.3025 85.2889 59.9874C84.6043 60.6717 84.6043 61.7817 85.2892 62.4665L90.9102 68.0872C91.2523 68.4297 91.7012 68.6009 92.1497 68.6009C92.5983 68.6009 93.0472 68.4297 93.3896 68.0872C94.0742 67.4024 94.0742 66.2924 93.3893 65.6076L87.7683 59.9868Z" fill="#ED7424"/>
</svg>
