<svg width="100" height="100" viewBox="0 0 100 100" fill="none" xmlns="http://www.w3.org/2000/svg">
<path fill-rule="evenodd" clip-rule="evenodd" d="M35.119 3.57143C35.119 2.62423 35.4953 1.71582 36.1651 1.04605C36.8349 0.376275 37.7433 0 38.6905 0C39.6377 0 40.5461 0.376275 41.2159 1.04605C41.8856 1.71582 42.2619 2.62423 42.2619 3.57143V14.881H57.7381V3.57143C57.7381 2.62423 58.1144 1.71582 58.7841 1.04605C59.4539 0.376275 60.3623 0 61.3095 0C62.2567 0 63.1651 0.376275 63.8349 1.04605C64.5047 1.71582 64.881 2.62423 64.881 3.57143V14.881H68.4524C77.6571 14.881 85.119 22.3429 85.119 31.5476V35.119H96.4286C97.3758 35.119 98.2842 35.4953 98.954 36.1651C99.6237 36.8349 100 37.7433 100 38.6905C100 39.6377 99.6237 40.5461 98.954 41.2159C98.2842 41.8856 97.3758 42.2619 96.4286 42.2619H85.119V57.7381H96.4286C97.3758 57.7381 98.2842 58.1144 98.954 58.7841C99.6237 59.4539 100 60.3623 100 61.3095C100 62.2567 99.6237 63.1651 98.954 63.8349C98.2842 64.5047 97.3758 64.881 96.4286 64.881H85.119V68.4524C85.119 77.6571 77.6571 85.119 68.4524 85.119H64.881V96.4286C64.881 97.3758 64.5047 98.2842 63.8349 98.954C63.1651 99.6237 62.2567 100 61.3095 100C60.3623 100 59.4539 99.6237 58.7841 98.954C58.1144 98.2842 57.7381 97.3758 57.7381 96.4286V85.119H42.2619V96.4286C42.2619 97.3758 41.8856 98.2842 41.2159 98.954C40.5461 99.6237 39.6377 100 38.6905 100C37.7433 100 36.8349 99.6237 36.1651 98.954C35.4953 98.2842 35.119 97.3758 35.119 96.4286V85.119H31.5476C22.3429 85.119 14.881 77.6571 14.881 68.4524V64.881H3.57143C2.62423 64.881 1.71582 64.5047 1.04605 63.8349C0.376275 63.1651 0 62.2567 0 61.3095C0 60.3623 0.376275 59.4539 1.04605 58.7841C1.71582 58.1144 2.62423 57.7381 3.57143 57.7381H14.881V42.2619H3.57143C2.62423 42.2619 1.71582 41.8856 1.04605 41.2159C0.376275 40.5461 0 39.6377 0 38.6905C0 37.7433 0.376275 36.8349 1.04605 36.1651C1.71582 35.4953 2.62423 35.119 3.57143 35.119H14.881V31.5476C14.881 22.3429 22.3429 14.881 31.5476 14.881H35.119V3.57143ZM31.5476 22.0238H68.4524C73.7125 22.0238 77.9762 26.2875 77.9762 31.5476V68.4524C77.9762 73.7125 73.7125 77.9762 68.4524 77.9762H31.5476C26.2875 77.9762 22.0238 73.7125 22.0238 68.4524V31.5476C22.0238 26.2875 26.2875 22.0238 31.5476 22.0238ZM58.3333 50C58.3333 54.6024 54.6024 58.3333 50 58.3333C45.3976 58.3333 41.6667 54.6024 41.6667 50C41.6667 45.3976 45.3976 41.6667 50 41.6667C54.6024 41.6667 58.3333 45.3976 58.3333 50ZM65.4762 50C65.4762 58.547 58.547 65.4762 50 65.4762C41.4524 65.4762 34.5238 58.547 34.5238 50C34.5238 41.4524 41.4524 34.5238 50 34.5238C58.547 34.5238 65.4762 41.4524 65.4762 50Z" fill="#ED7424"/>
</svg>
