<svg width="68" height="101" viewBox="0 0 68 101" fill="none" xmlns="http://www.w3.org/2000/svg">
<path d="M35.0319 21.3347H37.8541C38.8889 21.3347 39.7355 20.4881 39.7355 19.4532C39.7355 18.4184 38.8889 17.5718 37.8541 17.5718H35.0319C33.9971 17.5718 33.1504 18.4184 33.1504 19.4532C33.1504 20.4881 33.9971 21.3347 35.0319 21.3347Z" fill="#ED7424"/>
<path d="M33.1495 36.3862C27.9755 36.3862 23.7422 40.6195 23.7422 45.7936C23.7422 50.9676 27.9755 55.2009 33.1495 55.2009C38.3236 55.2009 42.5569 50.9676 42.5569 45.7936C42.5569 40.6195 38.3236 36.3862 33.1495 36.3862ZM33.1495 51.438C30.0451 51.438 27.5051 48.898 27.5051 45.7936C27.5051 42.6891 30.0451 40.1492 33.1495 40.1492C36.2539 40.1492 38.7939 42.6891 38.7939 45.7936C38.7939 48.898 36.2539 51.438 33.1495 51.438Z" fill="#ED7424"/>
<path d="M67.1107 98.1924L64.2885 82.7644C63.5359 78.7192 61.09 75.4267 57.6093 73.5452L52.2471 70.6289C53.9404 64.2319 54.8811 57.5527 54.8811 50.8735V48.3335C54.8811 34.0344 50.4597 20.3938 42.0871 8.63458L37.8538 2.80203C36.819 1.29686 35.1257 0.450195 33.2442 0.450195C31.4569 0.450195 29.7635 1.29686 28.6347 2.80203L24.4013 8.63458C16.1229 20.2056 11.5133 34.3166 11.5133 48.4276V50.9676C11.5133 57.7409 12.454 64.5142 14.2414 71.0993L9.7259 73.5452C6.24519 75.4267 3.79928 78.7192 3.04669 82.7644L0.22449 98.0984C0.130417 98.851 0.412637 99.6976 1.16522 100.074C1.44744 100.262 1.82374 100.356 2.10596 100.356C2.57632 100.356 2.95262 100.168 3.32891 99.8858L11.2311 93.1125C14.2414 90.4784 18.1925 89.0673 22.2377 89.0673H25.6243C25.7184 89.0673 25.8124 89.0673 25.9065 89.0673C26.0947 89.0673 26.3769 89.0673 26.565 89.0673H28.4465V95.1821C28.4465 98.0043 30.7983 100.356 33.6205 100.356C36.4427 100.356 38.7946 98.0043 38.7946 95.1821V88.9732H39.7353H39.8294C40.1116 89.0673 40.3938 89.1614 40.676 89.1614H45.0975C49.1426 89.1614 53.0937 90.5725 56.1041 93.2065L64.0062 99.9798C64.3825 100.262 64.7588 100.45 65.2292 100.45C65.5114 100.45 65.8877 100.356 66.1699 100.168C66.8284 99.7917 67.2047 99.0391 67.1107 98.1924ZM8.78517 90.2903L4.92816 93.6769L6.71555 83.517C7.27999 80.6007 8.97332 78.2489 11.5133 76.9319L15.2762 74.8622L17.534 82.3881C17.9103 83.6111 18.4747 84.6459 19.2273 85.5866C15.3703 86.151 11.7014 87.7503 8.78517 90.2903ZM35.0316 95.1821C35.0316 95.9347 34.3731 96.5932 33.6205 96.5932C32.868 96.5932 32.2094 95.9347 32.2094 95.1821V75.4267C32.2094 74.6741 32.868 74.0156 33.6205 74.0156C34.3731 74.0156 35.0316 74.6741 35.0316 75.4267V95.1821ZM39.7353 85.2103H38.7946V75.4267C38.7946 72.6045 36.4427 70.2526 33.6205 70.2526C30.7983 70.2526 28.4465 72.6045 28.4465 75.4267V85.3044H26.565C24.0251 85.3044 21.8614 83.6111 21.1088 81.2592L18.2866 71.7578C16.311 64.9845 15.2762 58.0231 15.2762 50.9676V48.4276C15.2762 39.1144 17.3458 29.8011 21.2969 21.3345H28.4465C29.4813 21.3345 30.328 20.4878 30.328 19.453C30.328 18.4182 29.4813 17.5716 28.4465 17.5716H23.2725C24.4954 15.2197 25.9065 13.056 27.5058 10.8923L31.7391 5.05979C32.1154 4.58942 32.6798 4.3072 33.2442 4.3072C33.9028 4.3072 34.3731 4.58942 34.7494 5.05979L38.9827 10.8923C46.8849 21.8989 51.0241 34.8811 51.0241 48.3335V50.8735C51.0241 57.929 49.9893 64.9845 48.0138 71.6637L45.1916 81.1652C44.439 83.6111 42.2753 85.2103 39.7353 85.2103ZM58.55 90.3843C55.3515 87.6562 51.3063 85.9629 47.073 85.4925C47.8256 84.5518 48.3901 83.517 48.7664 82.294L51.1182 74.3919L55.7278 76.9319C58.1737 78.2489 59.9611 80.6948 60.5255 83.517L62.407 93.6769L58.55 90.3843Z" fill="#ED7424"/>
</svg>
