<svg width="40" height="41" viewBox="0 0 40 41" fill="none" xmlns="http://www.w3.org/2000/svg">
<g clip-path="url(#clip0_56_185)">
<rect y="0.470703" width="40" height="40" rx="20" fill="#5F5F5F"/>
<path d="M23.8281 20.4707C23.8281 22.585 22.1143 24.2988 20 24.2988C17.8857 24.2988 16.1719 22.585 16.1719 20.4707C16.1719 18.3564 17.8857 16.6426 20 16.6426C22.1143 16.6426 23.8281 18.3564 23.8281 20.4707Z" fill="#F7921E"/>
<path d="M28.9526 13.6976C28.7686 13.1989 28.475 12.7476 28.0936 12.3771C27.7231 11.9956 27.272 11.702 26.7731 11.518C26.3684 11.3608 25.7605 11.1738 24.6408 11.1228C23.4296 11.0676 23.0664 11.0557 20 11.0557C16.9333 11.0557 16.5701 11.0673 15.3592 11.1225C14.2395 11.1738 13.6313 11.3608 13.2269 11.518C12.728 11.702 12.2766 11.9956 11.9064 12.3771C11.525 12.7476 11.2314 13.1986 11.0471 13.6976C10.8899 14.1022 10.7028 14.7104 10.6519 15.8301C10.5966 17.0411 10.5847 17.4042 10.5847 20.4709C10.5847 23.5374 10.5966 23.9005 10.6519 25.1118C10.7028 26.2314 10.8899 26.8394 11.0471 27.244C11.2314 27.743 11.5247 28.194 11.9061 28.5645C12.2766 28.946 12.7277 29.2396 13.2266 29.4236C13.6313 29.5811 14.2395 29.7681 15.3592 29.8191C16.5701 29.8743 16.933 29.8859 19.9997 29.8859C23.0667 29.8859 23.4299 29.8743 24.6405 29.8191C25.7602 29.7681 26.3684 29.5811 26.7731 29.4236C27.7747 29.0372 28.5663 28.2456 28.9526 27.244C29.1098 26.8394 29.2969 26.2314 29.3481 25.1118C29.4034 23.9005 29.415 23.5374 29.415 20.4709C29.415 17.4042 29.4034 17.0411 29.3481 15.8301C29.2972 14.7104 29.1101 14.1022 28.9526 13.6976ZM20 26.3679C16.7429 26.3679 14.1025 23.7278 14.1025 20.4706C14.1025 17.2135 16.7429 14.5734 20 14.5734C23.2568 14.5734 25.8972 17.2135 25.8972 20.4706C25.8972 23.7278 23.2568 26.3679 20 26.3679ZM26.1304 15.7184C25.3693 15.7184 24.7522 15.1014 24.7522 14.3403C24.7522 13.5792 25.3693 12.9621 26.1304 12.9621C26.8915 12.9621 27.5085 13.5792 27.5085 14.3403C27.5082 15.1014 26.8915 15.7184 26.1304 15.7184Z" fill="#F7921E"/>
<path d="M20 0.470703C8.95599 0.470703 0 9.4267 0 20.4707C0 31.5147 8.95599 40.4707 20 40.4707C31.044 40.4707 40 31.5147 40 20.4707C40 9.4267 31.044 0.470703 20 0.470703ZM31.4151 25.2055C31.3596 26.428 31.1652 27.2627 30.8813 27.9933C30.2847 29.5359 29.0652 30.7554 27.5226 31.3521C26.7923 31.6359 25.9573 31.83 24.7351 31.8858C23.5104 31.9417 23.1192 31.9551 20.0003 31.9551C16.8811 31.9551 16.4902 31.9417 15.2652 31.8858C14.043 31.83 13.208 31.6359 12.4777 31.3521C11.7111 31.0637 11.0172 30.6117 10.4434 30.0273C9.85931 29.4539 9.40735 28.7596 9.11896 27.9933C8.83514 27.263 8.64075 26.428 8.58521 25.2058C8.52875 23.9808 8.51562 23.5896 8.51562 20.4707C8.51562 17.3518 8.52875 16.9606 8.5849 15.7359C8.64044 14.5134 8.83453 13.6787 9.11835 12.9481C9.40674 12.1818 9.85901 11.4875 10.4434 10.9141C11.0168 10.3297 11.7111 9.87775 12.4774 9.58936C13.208 9.30554 14.0427 9.11145 15.2652 9.0556C16.4899 8.99976 16.8811 8.98633 20 8.98633C23.1189 8.98633 23.5101 8.99976 24.7348 9.05591C25.9573 9.11145 26.792 9.30554 27.5226 9.58905C28.2889 9.87744 28.9832 10.3297 29.5569 10.9141C30.141 11.4879 30.5933 12.1818 30.8813 12.9481C31.1655 13.6787 31.3596 14.5134 31.4154 15.7359C31.4713 16.9606 31.4844 17.3518 31.4844 20.4707C31.4844 23.5896 31.4713 23.9808 31.4151 25.2055Z" fill="#F7921E"/>
</g>
<defs>
<clipPath id="clip0_56_185">
<rect y="0.470703" width="40" height="40" rx="20" fill="white"/>
</clipPath>
</defs>
</svg>
