<svg width="20" height="21" viewBox="0 0 20 21" fill="none" xmlns="http://www.w3.org/2000/svg">
<g clip-path="url(#clip0_3209_5636)">
<path d="M7.29388 2.60538C7.81633 2.08293 8.65714 2.08293 9.17959 2.60538C9.44082 2.8666 9.57143 3.20538 9.57143 3.54824C9.57143 3.89109 9.44082 4.22987 9.17959 4.49109L4.55102 9.11558L18.6653 9.11558C19.4 9.11558 20 9.7115 20 10.4503C20 11.1891 19.4041 11.785 18.6653 11.785L4.55102 11.785L9.17959 16.4095C9.70204 16.9319 9.70204 17.7727 9.17959 18.2952C8.65714 18.8176 7.81633 18.8176 7.29388 18.2952L0.391837 11.3931C0.138776 11.1442 9.39875e-08 10.8054 9.82221e-08 10.4503C1.02457e-07 10.0952 0.138776 9.7564 0.391837 9.50742L7.29388 2.60538Z" fill="#F7921E"/>
</g>
<defs>
<clipPath id="clip0_3209_5636">
<rect width="20" height="20" fill="white" transform="translate(0 20.4502) rotate(-90)"/>
</clipPath>
</defs>
</svg>
