<svg width="167" height="37" viewBox="0 0 167 37" fill="none" xmlns="http://www.w3.org/2000/svg">
<path d="M163.811 26.8081C163.169 26.8081 162.171 27.0415 161.626 28.1478C161.243 27.3 160.464 26.8081 159.536 26.8081C158.674 26.8081 157.827 27.2583 157.54 27.9699V26.9721H156.201V33.3537H157.54V29.9238C157.54 28.6258 158.388 28.0922 159.222 28.0922C160.056 28.0922 160.562 28.7342 160.562 29.7738V33.3537H161.915V30.1712C161.915 28.8315 162.463 28.0811 163.513 28.095C164.375 28.095 164.92 28.737 164.92 29.7765V33.3565H166.274V29.7098C166.274 27.8865 165.409 26.8081 163.811 26.8081ZM151.253 32.2586C150.161 32.2586 149.244 31.397 149.244 30.1545C149.244 28.9121 150.158 28.0644 151.253 28.0644C152.348 28.0644 153.274 28.926 153.274 30.1545C153.277 31.397 152.348 32.2586 151.253 32.2586ZM151.253 33.5149C153.071 33.5149 154.614 32.1752 154.614 30.1545C154.614 28.1339 153.071 26.8081 151.253 26.8081C149.435 26.8081 147.907 28.1339 147.907 30.1545C147.907 32.1752 149.438 33.5149 151.253 33.5149ZM144.532 33.5149C145.572 33.5149 146.459 33.0924 147.02 32.4226L146.131 31.5888C145.761 32.0001 145.202 32.2586 144.56 32.2586C143.371 32.2586 142.428 31.3692 142.428 30.1545C142.428 28.9399 143.371 28.0644 144.56 28.0644C145.202 28.0644 145.764 28.3229 146.131 28.7342L147.02 27.9004C146.459 27.2305 145.572 26.8081 144.532 26.8081C142.687 26.8081 141.089 28.1339 141.089 30.1545C141.089 32.1752 142.687 33.5149 144.532 33.5149ZM137.439 33.5149C138.751 33.5149 139.955 32.7784 139.955 31.561C139.955 30.8772 139.655 30.0295 138.287 29.6904L137.317 29.4569C136.92 29.3624 136.553 29.1428 136.553 28.7454C136.553 28.309 136.936 27.9393 137.495 27.9393C137.973 27.9393 138.451 28.2534 138.451 28.7176H139.735C139.735 27.3779 138.559 26.8053 137.467 26.8053C136.141 26.8053 135.199 27.6669 135.199 28.7037C135.199 29.6459 135.747 30.2602 136.933 30.577L137.795 30.7827C138.273 30.8911 138.615 31.1107 138.615 31.5332C138.615 32.0112 138.165 32.3809 137.425 32.3809C136.686 32.3809 136.25 31.9445 136.25 31.4387H135.007C135.035 32.7784 136.252 33.5149 137.439 33.5149ZM131.005 26.8081C130.321 26.8081 129.298 27.1638 128.929 27.956V26.9721H127.589V33.3537H128.929V29.9238C128.929 28.598 129.94 28.12 130.774 28.12C131.608 28.12 132.222 28.7481 132.222 29.7877V33.3537H133.562V29.7071C133.573 27.8865 132.617 26.8081 131.005 26.8081ZM122.205 32.2586C121.085 32.2586 120.223 31.3025 120.223 30.1545C120.223 29.0066 121.085 28.0644 122.177 28.0644C123.203 28.0644 124.226 28.926 124.226 30.1545C124.228 31.3581 123.272 32.2586 122.205 32.2586ZM124.242 27.9282C123.834 27.2055 122.958 26.8081 122.03 26.8081C120.226 26.8081 118.872 28.2562 118.872 30.1545C118.872 32.0529 120.307 33.5149 121.974 33.5149C122.958 33.5149 123.834 33.0091 124.242 32.2725V33.3509H125.582V26.9693H124.242V27.9282ZM117.26 26.8081C116.44 26.8081 115.798 27.2861 115.47 28.4063V26.9721H114.117V33.3537H115.47V31.0579C115.47 29.3346 116.018 28.0922 117.18 28.0922C117.438 28.0922 117.766 28.1478 118.122 28.3118L118.355 27.0415C118.147 26.9165 117.697 26.8081 117.26 26.8081ZM107.093 23.9369V25.221H109.895V33.3509H111.301V25.221H114.103V23.9369H107.093ZM100.495 31.4109L98.6629 26.9693H97.2148L99.7691 33.0619L98.3877 36.45H99.808L103.772 26.9665H102.323L100.495 31.4109ZM93.2651 32.2586C92.2006 32.2586 91.2278 31.4248 91.2278 30.1406C91.2278 28.8565 92.2812 28.0644 93.2651 28.0644C94.3714 28.0644 95.2469 28.9399 95.2469 30.1406C95.2469 31.3414 94.3741 32.2586 93.2651 32.2586ZM93.4291 26.8081C92.5286 26.8081 91.6391 27.1916 91.2167 27.9143V23.5005H89.877V33.3509H91.2167V32.3948C91.6391 33.1202 92.5703 33.5149 93.4291 33.5149C95.1496 33.5149 96.5977 32.1752 96.5977 30.1545C96.6005 28.12 95.1663 26.8081 93.4291 26.8081Z" fill="white"/>
<path d="M160.084 9.0444L165.959 0.327978H163.008L158.608 7.02373L154.236 0.327978H151.284L157.132 9.01939L150.545 19.1589H153.496L158.608 11.0706L163.719 19.1589H166.699L160.084 9.0444ZM143.468 19.4841C146.364 19.4841 148.88 18.2556 150.545 16.2877L148.741 14.7562C147.484 16.2321 145.569 17.1883 143.465 17.1883C139.502 17.1883 136.389 13.8001 136.389 9.78374C136.389 5.76741 139.504 2.29584 143.465 2.29584C145.569 2.29584 147.482 3.25198 148.741 4.72788L150.545 3.19639C148.877 1.22853 146.364 0 143.468 0C138.14 0 133.904 4.4555 133.904 9.78374C133.904 15.112 138.14 19.4841 143.468 19.4841ZM117.563 11.0679H125.107V8.74422H117.563V2.62104H126.199V0.3252H115.104V19.1533H126.472V16.8575H117.563V11.0679ZM109.72 0.327978H107.479L100.784 14.292L94.0601 0.327978H91.8199L89.524 19.1561H91.9561L93.6766 4.80849L99.7163 17.1049H101.876L107.86 4.80849L109.608 19.1561H112.041L109.72 0.327978ZM78.156 17.1883C74.1925 17.1883 71.1322 13.8001 71.1322 9.78374C71.1322 5.76741 74.1925 2.29584 78.156 2.29584C82.1195 2.29584 85.2325 5.73961 85.2325 9.78374C85.2353 13.8001 82.1751 17.1883 78.156 17.1883ZM78.156 19.4841C83.5398 19.4841 87.7201 15.112 87.7201 9.78374C87.7201 4.4555 83.5398 0 78.156 0C72.7721 0 68.6446 4.4277 68.6446 9.78374C68.6446 15.112 72.7999 19.4841 78.156 19.4841ZM60.9149 19.4841C64.8229 19.4841 67.1993 16.7797 67.1993 13.8557C67.1993 11.179 65.287 9.53915 62.0879 8.69141L59.628 8.03546C57.1126 7.3795 56.8958 6.06759 56.8958 5.41163C56.8958 3.55217 58.6441 2.29584 60.5313 2.29584C62.5548 2.29584 64.1113 3.57996 64.1113 5.46444H66.5711C66.5711 2.10406 63.9195 0 60.6147 0C57.3099 0 54.4109 2.18467 54.4109 5.43665C54.4109 6.96814 55.0391 9.31679 59.0304 10.2729L61.4625 10.8733C63.0468 11.2847 64.7144 12.1046 64.7144 13.9335C64.7144 15.6012 63.347 17.1855 60.9149 17.1855C58.4829 17.1855 56.8152 15.49 56.7346 13.8251H54.2748C54.2998 16.7519 56.9514 19.4841 60.9149 19.4841ZM43.6711 11.0679H51.2146V8.74422H43.6711V2.62104H52.3069V0.3252H41.2112V19.1533H52.5793V16.8575H43.6711V11.0679ZM31.8111 15.1648L28.2867 2.89343H26.4022L22.9056 15.2176L18.0944 0.3252H15.4427L21.8105 19.1533H23.9702L27.3305 7.26554L30.7187 19.1533H32.8784L39.2462 0.3252H36.5945L31.8111 15.1648ZM8.47183 3.57996L11.696 12.1324H5.24764L8.47183 3.57996ZM16.9437 19.1561L9.78374 0.327978H7.15992L0 19.1561H2.59603L4.4277 14.3198H12.516L14.3476 19.1561H16.9437Z" fill="white"/>
</svg>
