<svg width="18" height="16" viewBox="0 0 18 16" fill="none" xmlns="http://www.w3.org/2000/svg">
<path d="M0.750212 8.7499L15.7122 8.7499L9.98297 14.2068C9.68298 14.4926 9.67135 14.9673 9.9571 15.2673C10.2425 15.5669 10.7172 15.5789 11.0176 15.2932L17.5605 9.06077C17.8436 8.77727 18 8.40078 18 7.99991C18 7.59941 17.8436 7.22254 17.5474 6.92667L11.0172 0.706996C10.8721 0.568623 10.6861 0.5 10.5001 0.5C10.3021 0.5 10.1041 0.577998 9.95673 0.732871C9.67098 1.03287 9.6826 1.50724 9.9826 1.79298L15.7358 7.24992L0.750212 7.24992C0.336219 7.24992 0.000221944 7.58591 0.000221908 7.99991C0.000221872 8.4139 0.336218 8.7499 0.750212 8.7499Z" fill="white"/>
</svg>
