<svg width="40" height="41" viewBox="0 0 40 41" fill="none" xmlns="http://www.w3.org/2000/svg">
<g clip-path="url(#clip0_3046_13030)">
<path d="M20 0.15332C8.97133 0.15332 0 9.12551 0 20.1533C0 31.1811 8.97133 40.1533 20 40.1533C31.0287 40.1533 40 31.1811 40 20.1533C40 9.12551 31.0287 0.15332 20 0.15332ZM27.9509 20.854L16.2842 28.354C16.1475 28.4427 15.9896 28.4867 15.8334 28.4867C15.6966 28.4867 15.5583 28.4525 15.4346 28.385C15.166 28.2385 15 27.9585 15 27.6533V12.6533C15 12.3482 15.166 12.0682 15.4346 11.9217C15.6983 11.7768 16.0287 11.7857 16.2842 11.9526L27.9509 19.4526C28.1885 19.6056 28.3334 19.8701 28.3334 20.1533C28.3334 20.4365 28.1885 20.701 27.9509 20.854Z" fill="white"/>
</g>
<defs>
<clipPath id="clip0_3046_13030">
<rect width="40" height="40" fill="white" transform="translate(0 0.15332)"/>
</clipPath>
</defs>
</svg>
