<?xml version="1.0" encoding="utf-8"?>
<!-- Generator: Adobe Illustrator 16.0.0, SVG Export Plug-In . SVG Version: 6.00 Build 0)  -->
<!DOCTYPE svg PUBLIC "-//W3C//DTD SVG 1.1//EN" "http://www.w3.org/Graphics/SVG/1.1/DTD/svg11.dtd">
<svg version="1.1" id="Layer_1" xmlns="http://www.w3.org/2000/svg" xmlns:xlink="http://www.w3.org/1999/xlink" x="0px" y="0px"
	 width="56px" height="56px" viewBox="0 0 56 56" enable-background="new 0 0 56 56" xml:space="preserve">
<g>
	<path fill="#102B57" d="M28,0.5C12.835,0.5,0.5,12.837,0.5,28S12.835,55.5,28,55.5c15.164,0,27.5-12.337,27.5-27.5
		S43.164,0.5,28,0.5z"/>
	<path fill="#FFFFFF" d="M38.933,28.963L22.891,39.275c-0.188,0.123-0.405,0.184-0.62,0.184c-0.188,0-0.378-0.048-0.548-0.141
		c-0.369-0.201-0.598-0.586-0.598-1.006V17.688c0-0.419,0.229-0.805,0.598-1.006c0.362-0.199,0.817-0.187,1.168,0.042l16.042,10.313
		c0.327,0.21,0.526,0.574,0.526,0.963S39.26,28.753,38.933,28.963z"/>
</g>
</svg>
