<svg width="18" height="16" viewBox="0 0 18 16" fill="none" xmlns="http://www.w3.org/2000/svg">
<path d="M17.2498 7.2501H2.28785L8.01703 1.79317C8.31702 1.50742 8.32865 1.03268 8.0429 0.73268C7.75753 0.433059 7.28279 0.421059 6.98241 0.706805L0.439495 6.93923C0.156373 7.22273 0 7.59922 0 8.00009C0 8.40059 0.156373 8.77746 0.452619 9.07333L6.98279 15.293C7.12791 15.4314 7.31391 15.5 7.49991 15.5C7.69791 15.5 7.8959 15.422 8.04328 15.2671C8.32902 14.9671 8.3174 14.4928 8.0174 14.207L2.26422 8.75008H17.2498C17.6638 8.75008 17.9998 8.41409 17.9998 8.00009C17.9998 7.5861 17.6638 7.2501 17.2498 7.2501Z" fill="white"/>
</svg>
