<svg width="37" height="29" viewBox="0 0 37 29" fill="none" xmlns="http://www.w3.org/2000/svg">
<path d="M13.6415 28.4708H0.700684V19.2142C0.700684 15.4686 1.02305 12.5213 1.66779 10.3721C2.34323 8.19232 3.5713 6.24275 5.352 4.52346C7.1327 2.80416 9.40463 1.45328 12.1678 0.470825L14.7007 5.81293C12.1217 6.67258 10.2643 7.86995 9.12831 9.40504C8.02305 10.9401 7.43972 12.9818 7.37831 15.53H13.6415V28.4708ZM35.2402 28.4708H22.2994V19.2142C22.2994 15.4379 22.6217 12.4752 23.2665 10.3261C23.9419 8.17696 25.17 6.24275 26.9507 4.52346C28.7621 2.80416 31.034 1.45328 33.7665 0.470825L36.2994 5.81293C33.7204 6.67258 31.863 7.86995 30.727 9.40504C29.6217 10.9401 29.0384 12.9818 28.977 15.53H35.2402V28.4708Z" fill="#F7921E"/>
</svg>
