<svg width="20" height="21" viewBox="0 0 20 21" fill="none" xmlns="http://www.w3.org/2000/svg">
<g clip-path="url(#clip0_3209_5639)">
<path d="M12.7061 18.295C12.1837 18.8175 11.3429 18.8175 10.8204 18.295C10.5592 18.0338 10.4286 17.695 10.4286 17.3522C10.4286 17.0093 10.5592 16.6705 10.8204 16.4093L15.449 11.7848L1.33469 11.7848C0.6 11.7848 1.74499e-08 11.1889 4.97428e-08 10.4501C8.20357e-08 9.71134 0.595919 9.11542 1.33469 9.11542L15.449 9.11542L10.8204 4.49093C10.298 3.96848 10.298 3.12766 10.8204 2.60522C11.3429 2.08277 12.1837 2.08277 12.7061 2.60522L19.6082 9.50726C19.8612 9.75624 20 10.095 20 10.4501C20 10.8052 19.8612 11.144 19.6082 11.393L12.7061 18.295Z" fill="#F7921E"/>
</g>
<defs>
<clipPath id="clip0_3209_5639">
<rect width="20" height="20" fill="white" transform="translate(20 0.450195) rotate(90)"/>
</clipPath>
</defs>
</svg>
