<svg width="15" height="16" viewBox="0 0 15 16" fill="none" xmlns="http://www.w3.org/2000/svg">
<path d="M14.4389 12.7704L11.9701 10.3016C12.419 9.40382 12.7182 8.35643 12.7182 7.30905C12.7182 3.79284 9.87531 0.949951 6.3591 0.949951C2.84289 0.949951 0 3.79284 0 7.30905C0 10.8253 2.84289 13.6682 6.3591 13.6682C7.40648 13.6682 8.45386 13.3689 9.35162 12.92L11.8204 15.3889C12.5686 16.137 13.6908 16.137 14.4389 15.3889C15.1122 14.6407 15.1122 13.5185 14.4389 12.7704ZM6.3591 12.1719C3.66583 12.1719 1.49626 10.0023 1.49626 7.30905C1.49626 4.61579 3.66583 2.44621 6.3591 2.44621C9.05237 2.44621 11.2219 4.61579 11.2219 7.30905C11.2219 10.0023 9.05237 12.1719 6.3591 12.1719Z" fill="#F7921E"/>
</svg>
