<svg width="15" height="16" viewBox="0 0 15 16" fill="none" xmlns="http://www.w3.org/2000/svg">
<path d="M14.4951 12.5455L12.0262 10.0767C12.4751 9.17896 12.7744 8.13158 12.7744 7.0842C12.7744 3.56799 9.93146 0.725098 6.41525 0.725098C2.89904 0.725098 0.0561523 3.56799 0.0561523 7.0842C0.0561523 10.6004 2.89904 13.4433 6.41525 13.4433C7.46264 13.4433 8.51002 13.144 9.40777 12.6952L11.8766 15.164C12.6247 15.9121 13.7469 15.9121 14.4951 15.164C15.1684 14.4159 15.1684 13.2937 14.4951 12.5455ZM6.41525 11.947C3.72199 11.947 1.55241 9.77747 1.55241 7.0842C1.55241 4.39093 3.72199 2.22136 6.41525 2.22136C9.10852 2.22136 11.2781 4.39093 11.2781 7.0842C11.2781 9.77747 9.10852 11.947 6.41525 11.947Z" fill="white"/>
</svg>
