<svg width="111" height="108" viewBox="0 0 111 108" fill="none" xmlns="http://www.w3.org/2000/svg">
<path d="M47.5084 13.7099L47.5085 13.7099C48.1721 15.0827 47.597 16.7334 46.2244 17.397C41.9355 19.47 38.0484 22.5035 34.9806 26.1707C34.0019 27.3406 32.2608 27.4953 31.0916 26.5171C29.9221 25.5386 29.767 23.7974 30.7453 22.6278C34.3114 18.3648 38.834 14.8363 43.8213 12.4257L43.8214 12.4257C45.194 11.7621 46.845 12.3371 47.5084 13.7099ZM74.3055 81.9588L74.3055 81.9587C73.6417 80.5859 74.2168 78.935 75.5895 78.2716C79.8784 76.1986 83.7656 73.1652 86.8334 69.4979L86.4498 69.1771L86.8334 69.4979C87.8118 68.3281 89.5531 68.1733 90.7224 69.1516C91.8919 70.1301 92.047 71.8713 91.0687 73.0409C87.5025 77.3038 82.9799 80.8323 77.9927 83.2429C76.62 83.9063 74.9691 83.3318 74.3055 81.9588ZM91.0685 22.628L91.452 22.3072L91.0685 22.628C92.0469 23.7974 91.8919 25.5384 90.7225 26.517C89.5529 27.495 87.812 27.3403 86.8334 26.1707C83.7656 22.5035 79.8785 19.4701 75.5896 17.3971C74.2171 16.7335 73.6421 15.0828 74.3053 13.7102C74.9689 12.3375 76.6194 11.7626 77.9925 12.426C82.98 14.8368 87.5023 18.3651 91.0685 22.628ZM30.7457 73.0405L30.3622 73.3613L30.7456 73.0404C29.7672 71.871 29.9221 70.13 31.0915 69.1515C32.261 68.1733 34.002 68.3281 34.9806 69.4977C38.0484 73.165 41.9355 76.1982 46.2244 78.2714C47.5969 78.935 48.1719 80.5857 47.5086 81.9586C46.8453 83.3306 45.1952 83.9065 43.8217 83.2426C38.8342 80.8317 34.3118 77.3034 30.7457 73.0405ZM52.436 9.69546C52.436 5.02492 56.2365 1.22437 60.9071 1.22437C65.5776 1.22437 69.3782 5.02492 69.3782 9.69546C69.3782 14.366 65.5774 18.1666 60.9071 18.1666C56.2367 18.1666 52.436 14.366 52.436 9.69546ZM71.1398 22.1882L74.9466 33.6087C75.5415 35.3936 74.211 37.2423 72.3276 37.2423H49.4864C47.6049 37.2423 46.2719 35.3952 46.8674 33.6087L50.6742 22.1882C51.0501 21.0606 52.1048 20.3003 53.2932 20.3003H68.5207C69.709 20.3003 70.7639 21.0608 71.1398 22.1881C71.1398 22.1882 71.1398 22.1882 71.1398 22.1882ZM17.1194 38.2962C17.1194 33.6257 20.9199 29.8251 25.5905 29.8251C30.261 29.8251 34.0616 33.6257 34.0616 38.2962C34.0616 42.9668 30.2608 46.7673 25.5905 46.7673C20.9201 46.7673 17.1194 42.9668 17.1194 38.2962ZM35.8234 50.789L39.6304 62.2094C40.2251 63.9943 38.8944 65.8431 37.0112 65.8431H14.17C12.2887 65.8431 10.9554 63.9961 11.551 62.2094L15.3576 50.7891C15.7335 49.6616 16.7882 48.9013 17.9766 48.9013H33.2043C34.3926 48.9013 35.4475 49.6616 35.8234 50.7889C35.8234 50.7889 35.8234 50.789 35.8234 50.789ZM52.4362 66.8974C52.4362 62.2269 56.2367 58.4263 60.9073 58.4263C65.5778 58.4263 69.3784 62.2269 69.3784 66.8974C69.3784 71.5679 65.5778 75.3685 60.9073 75.3685C56.2367 75.3685 52.4362 71.5678 52.4362 66.8974ZM71.14 79.3897L74.9468 90.8102C75.5417 92.5951 74.2112 94.4437 72.3278 94.4439H49.4866C47.6053 94.4439 46.272 92.5969 46.8675 90.8102L50.6744 79.3897C51.0503 78.2622 52.105 77.5019 53.2934 77.5019H68.5209C69.7092 77.5019 70.7641 78.2624 71.14 79.3897ZM87.7524 38.2964C87.7524 33.6261 91.553 29.8253 96.2235 29.8253C100.894 29.8253 104.695 33.6259 104.695 38.2964C104.695 42.967 100.894 46.7675 96.2235 46.7675C91.553 46.7675 87.7524 42.9668 87.7524 38.2964ZM106.457 50.7889L110.263 62.2094C110.858 63.9943 109.527 65.8431 107.644 65.8431H84.8032C82.9219 65.8431 81.5886 63.996 82.1842 62.2092L85.9912 50.7888C86.3671 49.6614 87.4217 48.9011 88.6102 48.9011H103.838C105.026 48.9011 106.081 49.6616 106.457 50.7889Z" stroke="#3B7C93"/>
<g clip-path="url(#clip0_8_156)">
<path d="M36.6982 91.1827C37.1453 90.2573 36.7577 89.1447 35.8327 88.6973C35.8327 88.6973 35.8326 88.6973 35.8326 88.6973L36.442 87.4369C32.2172 85.3947 28.3865 82.4056 25.364 78.7925L36.6982 91.1827ZM36.6982 91.1827C36.2509 92.1075 35.1389 92.4953 34.2134 92.0479L33.6041 93.3084L34.2134 92.0479C29.3412 89.6928 24.9204 86.244 21.4359 82.0786L21.4358 82.0785C20.7765 81.2904 20.8807 80.1171 21.6689 79.4574C22.4571 78.7982 23.6305 78.9024 24.2902 79.6908L36.6982 91.1827ZM36.6981 23.7173L36.698 23.7171C36.2509 22.7919 35.1382 22.4044 34.213 22.8516L34.213 22.8517C29.341 25.2065 24.9201 28.6555 21.4356 32.8208L36.6981 23.7173ZM36.6981 23.7173C37.1453 24.6424 36.7578 25.755 35.8327 26.2024L36.6981 23.7173ZM80.3782 32.8212L80.3781 32.8211C76.8937 28.6558 72.473 25.2071 67.601 22.852C66.6752 22.4047 65.5627 22.7924 65.1155 23.7175C64.6687 24.6426 65.0562 25.7551 65.9811 26.2024L80.3782 32.8212ZM80.3782 32.8212C81.0374 33.6091 80.9332 34.7825 80.145 35.4422L80.3782 32.8212ZM80.1448 79.4575C80.9332 80.1171 81.0376 81.2907 80.3783 82.079C76.8938 86.2444 72.4729 89.6933 67.601 92.0482C66.6756 92.4954 65.5629 92.108 65.1158 91.1828L65.1157 91.1825C64.6683 90.2573 65.0559 89.1447 65.9811 88.6976C70.3854 86.5688 74.3743 83.4558 77.5236 79.691L77.5237 79.691C78.1832 78.9025 79.3568 78.7982 80.1448 79.4575ZM43.3359 19.3111C43.3359 15.1376 46.7335 11.74 50.907 11.74C55.0805 11.74 58.4781 15.1376 58.4781 19.3111C58.4781 23.4846 55.0803 26.8822 50.907 26.8822C46.7337 26.8822 43.3359 23.4846 43.3359 19.3111ZM60.2859 32.0885L64.0927 43.5089C64.0927 43.5089 64.0927 43.5089 64.0927 43.5089C64.4936 44.7116 63.5961 45.958 62.3275 45.958H39.4863C38.2187 45.958 37.32 44.7122 37.7211 43.5089L41.5279 32.0884C41.7813 31.3283 42.4922 30.816 43.2931 30.816H58.5207C59.3214 30.816 60.0325 31.3285 60.2859 32.0885ZM8.01932 47.9119C8.01932 43.7384 11.4169 40.3408 15.5904 40.3408C19.7639 40.3408 23.1615 43.7384 23.1615 47.9119C23.1615 52.0853 19.7637 55.483 15.5904 55.483C11.4171 55.483 8.01932 52.0853 8.01932 47.9119ZM24.9695 60.6893L28.7765 72.1095C28.7765 72.1096 28.7765 72.1096 28.7765 72.1097C29.1771 73.3124 28.2795 74.5587 27.0111 74.5587H4.16991C2.9024 74.5587 2.00361 73.3131 2.40471 72.1097L6.21133 60.6894C6.21133 60.6894 6.21134 60.6894 6.21135 60.6893C6.46479 59.9292 7.1756 59.417 7.97655 59.417H23.2043C24.0051 59.417 24.7161 59.9294 24.9695 60.6893ZM43.3361 76.5131C43.3361 72.3396 46.7337 68.942 50.9072 68.942C55.0807 68.942 58.4783 72.3396 58.4783 76.5131C58.4783 80.6865 55.0807 84.0841 50.9072 84.0841C46.7338 84.0841 43.3361 80.6864 43.3361 76.5131ZM58.5209 88.0175C59.3216 88.0175 60.0327 88.53 60.2861 89.2901L64.0929 100.71C64.4937 101.913 63.5964 103.159 62.3277 103.16C62.3277 103.16 62.3276 103.16 62.3276 103.16H39.4865C38.219 103.16 37.3202 101.914 37.7213 100.71L41.5281 89.29C41.7815 88.5299 42.4924 88.0175 43.2933 88.0175H58.5209ZM21.6691 35.4424C20.8807 34.7828 20.7762 33.6092 21.4355 32.8209L35.8326 26.2024C31.4283 28.3312 27.4396 31.4442 24.2903 35.2089C23.6305 35.9975 22.457 36.1017 21.6691 35.4424ZM78.6523 47.9121C78.6523 43.7388 82.05 40.341 86.2234 40.341C90.3969 40.341 93.7945 43.7386 93.7945 47.9121C93.7945 52.0856 90.3969 55.4832 86.2234 55.4832C82.05 55.4832 78.6523 52.0854 78.6523 47.9121ZM93.8375 59.4168C94.6382 59.4168 95.3493 59.9292 95.6027 60.6893L99.4095 72.1095C99.8102 73.3123 98.9125 74.5587 97.6441 74.5587H74.8031C73.5357 74.5587 72.6368 73.313 73.0379 72.1094L76.8449 60.6891C77.0983 59.9291 77.8091 59.4168 78.6101 59.4168H93.8375ZM80.1448 35.4424C79.3564 36.1014 78.1832 35.9971 77.5236 35.2089L80.1448 35.4424Z" stroke="#F7921E" stroke-width="2.8"/>
</g>
<defs>
<clipPath id="clip0_8_156">
<rect width="100" height="100" fill="white" transform="translate(0.907104 7.44995)"/>
</clipPath>
</defs>
</svg>
