<svg width="110" height="111" viewBox="0 0 110 111" fill="none" xmlns="http://www.w3.org/2000/svg">
<path d="M91.6454 44.4933L91.6456 44.4929C92.3286 42.9231 92.9948 41.3864 93.3073 39.9141C93.6174 38.4533 93.5657 37.1155 92.8714 35.9169L93.304 35.6663L92.8714 35.9169C92.1679 34.7025 91.0205 33.9817 89.5856 33.5164C88.1395 33.0474 86.46 32.8558 84.7439 32.6632L84.7182 32.6603C83.7598 32.5529 82.6599 32.4295 81.7065 32.2411C81.2251 32.1459 80.7665 32.0315 80.3737 31.8884C79.9907 31.7489 79.622 31.5654 79.3635 31.3068C79.105 31.0484 78.9215 30.6802 78.782 30.2973C78.6389 29.9049 78.5244 29.4467 78.4293 28.9654C78.2402 28.0095 78.1167 26.9055 78.0089 25.9428L78.0071 25.9264C77.8145 24.2122 77.624 22.5328 77.1555 21.0861C76.6908 19.651 75.9702 18.5029 74.7545 17.7995L91.6454 44.4933ZM91.6454 44.4933L91.6315 44.5253C91.2433 45.4193 90.7986 46.4438 90.4845 47.3762C90.3253 47.8486 90.1949 48.311 90.1229 48.7313C90.0526 49.1423 90.0293 49.5602 90.125 49.9205M91.6454 44.4933L90.125 49.9205M60.8157 20.5618L60.7527 20.5449C60.4103 20.453 60.0775 20.2282 59.7768 19.9732C59.4672 19.7108 59.148 19.3781 58.833 19.0165C58.2052 18.2958 57.5565 17.4159 56.9931 16.6517L56.9885 16.6456L56.9883 16.6453C56.0038 15.3084 54.9877 13.9331 53.8298 12.8866C52.678 11.8457 51.4338 11.1749 49.9998 11.1749C48.5658 11.1749 47.3216 11.8457 46.1693 12.8872C45.0108 13.9341 43.9937 15.3103 43.007 16.6493C43.0069 16.6495 43.0068 16.6496 43.0067 16.6497L42.6042 16.3531L60.8157 20.5618ZM60.8157 20.5618L60.881 20.562M60.8157 20.5618L60.881 20.562M60.881 20.562C62.6056 20.5666 64.4712 19.7707 66.1818 19.0247M60.881 20.562L66.1818 19.0247M7.11963 35.9209L7.11958 35.9209C6.4274 37.1173 6.37658 38.454 6.68674 39.9146C6.99932 41.3866 7.66447 42.9234 8.34545 44.4933C8.73915 45.3952 9.19174 46.4338 9.50961 47.3779C9.66876 47.8506 9.79895 48.3134 9.87039 48.7338C9.94021 49.1446 9.96273 49.5629 9.86513 49.9231C9.77306 50.265 9.54851 50.5974 9.2938 50.8979C9.03131 51.2075 8.69862 51.5267 8.33702 51.8417C7.61641 52.4695 6.73665 53.1181 5.97252 53.6815L5.96624 53.6861C5.96621 53.6861 5.96617 53.6862 5.96613 53.6862C4.63131 54.6709 3.25717 55.6869 2.21122 56.8449C1.17082 57.9967 0.5 59.2409 0.5 60.6749C0.5 62.1089 1.17079 63.3531 2.21222 64.5055C3.25926 65.664 4.63563 66.6812 5.97479 67.6681C6.7427 68.2327 7.62622 68.883 8.34883 69.5119C8.71044 69.8267 9.04294 70.1455 9.30497 70.4546C9.55934 70.7546 9.78384 71.0871 9.87458 71.4293M7.11963 35.9209L33.8174 102.325M7.11963 35.9209C7.82301 34.7046 8.97127 33.9839 10.4066 33.5191C11.8532 33.0507 13.5326 32.8601 15.2467 32.6675C15.2468 32.6675 15.2469 32.6675 15.247 32.6675L15.2634 32.6656C16.2261 32.5579 17.33 32.4344 18.286 32.2453C18.7672 32.1502 19.2254 32.0357 19.6178 31.8926C20.0007 31.7531 20.3689 31.5696 20.6273 31.3111C20.8859 31.0526 21.0694 30.6839 21.2089 30.3009M7.11963 35.9209L21.2089 30.3009M9.87458 71.4293L9.39128 71.5575L9.8745 71.429C9.87452 71.4291 9.87455 71.4292 9.87458 71.4293ZM9.87458 71.4293C9.97029 71.7897 9.94701 72.2076 9.87664 72.6185C9.80466 73.0388 9.67425 73.5013 9.51513 73.9736C9.20103 74.906 8.75624 75.9306 8.36808 76.8246L8.35421 76.8566L8.35404 76.857C7.67098 78.4267 7.00484 79.9635 6.6923 81.4358C6.38222 82.8965 6.43391 84.2343 7.12822 85.433L6.70139 85.6802L7.12822 85.433C7.83166 86.6474 8.97911 87.3682 10.414 87.8335C11.8601 88.3025 13.5396 88.4941 15.2557 88.6866L15.2817 88.6896C16.24 88.797 17.3398 88.9203 18.2931 89.1088C18.7745 89.2039 19.2331 89.3184 19.6259 89.4615C20.0089 89.601 20.3776 89.7845 20.6361 90.043C20.8946 90.3016 21.0781 90.6702 21.2177 91.0533C21.3607 91.446 21.4752 91.9046 21.5703 92.3861C21.7588 93.3394 21.8821 94.4392 21.9896 95.3975L21.9925 95.4235C22.1851 97.1398 22.3756 98.8182 22.8436 100.264C23.3078 101.698 24.0276 102.846 25.2424 103.551M25.2424 103.551C25.2423 103.551 25.2422 103.551 25.2421 103.551L24.9923 103.982L25.2424 103.551ZM25.2424 103.551C26.2721 104.149 27.596 104.211 29.1104 103.921C30.6197 103.633 32.2439 103.009 33.8174 102.325M33.8174 102.325L33.818 102.325M33.8174 102.325L33.818 102.325M33.818 102.325L33.8429 102.314C35.542 101.573 37.3854 100.769 39.1226 100.788L39.1859 100.789L39.2469 100.805C39.5893 100.897 39.922 101.122 40.2228 101.377C40.5324 101.639 40.8516 101.972 41.1666 102.333C41.7943 103.054 42.443 103.934 43.0063 104.698L43.0111 104.704L43.0112 104.704C43.9959 106.041 45.012 107.417 46.17 108.463C47.3218 109.504 48.566 110.175 50 110.175C51.434 110.175 52.6782 109.504 53.8305 108.463C54.9891 107.416 56.0063 106.039 56.9931 104.7C57.5569 103.933 58.2122 103.043 58.8981 102.308C59.568 101.59 60.3452 100.933 61.1714 100.752L61.2242 100.74H61.2783C61.9563 100.74 62.7671 100.962 63.5888 101.255C64.4134 101.55 65.3048 101.937 66.1632 102.311L66.1863 102.321C66.1863 102.321 66.1864 102.321 66.1864 102.321C67.7603 103.005 69.3846 103.63 70.894 103.919C72.4085 104.209 73.732 104.146 74.7616 103.547L74.7627 103.546C75.9792 102.843 76.6998 101.696 77.1646 100.261C77.633 98.815 77.8235 97.1356 78.0161 95.4192L78.0179 95.4025C78.1257 94.4398 78.2492 93.3361 78.4376 92.3804C78.5325 91.8993 78.6465 91.4412 78.7889 91.0489C78.9277 90.6664 79.1102 90.2983 79.3671 90.0398L79.3682 90.0387C79.6267 89.7802 79.9954 89.5967 80.3784 89.4572C80.7712 89.3141 81.2297 89.1997 81.7112 89.1045C82.6645 88.9161 83.7643 88.7927 84.7226 88.6853L84.7486 88.6824C84.7486 88.6824 84.7486 88.6824 84.7487 88.6824C86.4628 88.4897 88.1411 88.2992 89.5872 87.8308C91.0218 87.3661 92.1703 86.6454 92.8759 85.4289L33.818 102.325ZM94.0294 67.6637L94.0296 67.6635C95.3665 66.6789 96.7418 65.6627 97.7883 64.5047C98.8292 63.3529 99.5 62.1088 99.5 60.6747C99.5 59.2407 98.8291 57.9967 97.7876 56.8444C96.7406 55.686 95.3643 54.669 94.0252 53.6821C93.2572 53.1174 92.3735 52.467 91.6508 51.8379C91.2891 51.5232 90.9566 51.2043 90.6946 50.8953C90.4402 50.5953 90.2158 50.2627 90.125 49.9205M94.0294 67.6637L90.125 49.9205M94.0294 67.6637L94.0232 67.6682M94.0294 67.6637L94.0232 67.6682M82.3287 53.8707L82.3273 53.8721L68.1208 68.0786L72.0594 87.7717C72.2314 88.1253 72.326 88.52 72.326 88.9361C72.326 90.4639 70.9368 91.5994 69.6126 91.6101L69.6086 91.6101L69.5652 91.6101C69.1203 91.6101 68.6718 91.4977 68.2668 91.2738L68.2658 91.2733L50 81.1256L31.7353 91.2726L82.3287 53.8707ZM82.3287 53.8707C83.0486 53.1453 83.3 52.0682 82.969 51.1004L82.9676 51.0964C82.626 50.1246 81.7602 49.4341 80.7375 49.3217L62.5424 47.3024L52.3417 28.9455C52.3417 28.9454 52.3416 28.9453 52.3416 28.9453C51.8516 28.0628 50.9015 27.6544 50.0047 27.6544C49.1078 27.6544 48.1576 28.0628 47.6676 28.9453C47.6675 28.9453 47.6675 28.9454 47.6675 28.9454L37.4668 47.3024L19.2712 49.3217L19.269 49.322C18.2511 49.4394 17.3795 50.1266 17.0413 51.097C16.6992 52.0659 16.9461 53.1457 17.6727 53.8723L31.8792 68.0788L27.8142 88.4121L27.8141 88.4125M82.3287 53.8707L27.8141 88.4125M27.8141 88.4125C27.611 89.433 28.017 90.4809 28.8568 91.0961M27.8141 88.4125L28.8568 91.0961M66.1818 19.0247C67.7532 18.3408 69.3744 17.7182 70.8821 17.4302M66.1818 19.0247L70.8821 17.4302M70.8821 17.4302C72.3942 17.1413 73.7189 17.2031 74.7538 17.7991L70.8821 17.4302ZM21.2089 30.3009C21.352 29.9081 21.4664 29.4495 21.5616 28.9681M21.2089 30.3009L21.5616 28.9681M21.5616 28.9681C21.75 28.0148 21.8733 26.9149 21.9808 25.9566M21.5616 28.9681L21.9808 25.9566M21.9808 25.9566L21.9837 25.9306L21.9808 25.9566ZM91.6505 76.8575C91.2567 75.9553 90.8039 74.9164 90.4859 73.9719C90.3268 73.4992 90.1966 73.0364 90.1251 72.6161C90.0553 72.2052 90.0328 71.7868 90.1304 71.4267M91.6505 76.8575L90.1304 71.4267M91.6505 76.8575C92.3313 78.4271 92.9963 79.9636 93.3088 81.4353M91.6505 76.8575L93.3088 81.4353M90.1304 71.4267C90.2225 71.0847 90.447 70.7524 90.7017 70.452M90.1304 71.4267L90.7017 70.452M93.3088 81.4353C93.6189 82.8957 93.5681 84.2323 92.8762 85.4285L93.3088 81.4353ZM94.0232 67.6682C93.259 68.2317 92.3792 68.8803 91.6585 69.5082M94.0232 67.6682L91.6585 69.5082M91.6585 69.5082C91.2969 69.8232 90.9642 70.1424 90.7017 70.452M91.6585 69.5082L90.7017 70.452M28.8568 91.0961C29.7023 91.7167 30.8256 91.7804 31.7342 91.2733L28.8568 91.0961Z" stroke="#3B7C93"/>
<g clip-path="url(#clip0_8_166)">
<path d="M70.6958 11.4617L70.5193 11.4143C69.9834 11.2704 69.528 10.9424 69.1948 10.6599C68.8368 10.3563 68.4841 9.98634 68.1544 9.60781C67.5024 8.85943 66.836 7.95551 66.2799 7.20126L66.2641 7.17983L66.2636 7.17918C65.2676 5.82667 64.3047 4.5291 63.2263 3.55454C62.1652 2.59558 61.1273 2.07511 59.9998 2.07511C58.8724 2.07511 57.8345 2.59552 56.7727 3.55506C55.6939 4.52999 54.7302 5.82818 53.7321 7.18262C53.7321 7.18267 53.732 7.18271 53.732 7.18276C53.7317 7.18312 53.7315 7.18347 53.7312 7.18383L53.7213 7.19727C53.1657 7.95301 52.4834 8.88106 51.7597 9.65641C51.0763 10.3885 50.1369 11.2332 49.0209 11.4775L48.8729 11.5098H48.7215C47.8795 11.5098 46.9457 11.2413 46.1084 10.9425C45.2551 10.6379 44.3404 10.24 43.4926 9.87114L43.4547 9.85466C43.4546 9.85461 43.4545 9.85455 43.4543 9.85449C41.8923 9.17555 40.3434 8.58481 38.9364 8.31532C37.5154 8.04314 36.4488 8.13969 35.6909 8.58073L35.6885 8.58215C34.7337 9.13517 34.1184 10.055 33.693 11.3668C33.2574 12.71 33.0731 14.294 32.8781 16.0312L32.8732 16.075C32.7671 17.0212 32.6403 18.1522 32.4445 19.1428C32.3448 19.6471 32.2197 20.1556 32.0546 20.6091C31.8993 21.0354 31.6609 21.5506 31.2637 21.9477C30.8669 22.3445 30.3523 22.583 29.9261 22.7384C29.4729 22.9036 28.9648 23.0287 28.4606 23.1284C27.4673 23.3249 26.3324 23.4518 25.3821 23.5582L25.3475 23.562C25.3472 23.5621 25.347 23.5621 25.3468 23.5621C23.6111 23.7571 22.0276 23.9404 20.6839 24.3755C19.3717 24.8004 18.4516 25.4156 17.8987 26.3716L17.8986 26.3719C17.3574 27.3071 17.2836 28.3929 17.5671 29.7278C17.8573 31.0943 18.481 32.5444 19.1706 34.1341C19.5608 35.0281 20.03 36.1032 20.3626 37.0909C20.5294 37.5864 20.6753 38.0984 20.7577 38.5832C20.8356 39.0415 20.882 39.6121 20.7337 40.1589C20.5894 40.6934 20.2622 41.1476 19.9803 41.4801C19.6767 41.8381 19.3067 42.1908 18.9282 42.5205C18.1798 43.1725 17.2758 43.8389 16.5216 44.395L16.5005 44.4105C15.1498 45.407 13.8533 46.3698 12.8791 47.4484C11.9205 48.5096 11.4 49.5476 11.4 50.6751C11.4 51.8025 11.9204 52.8405 12.88 53.9022C13.8551 54.9812 15.1536 55.9451 16.5083 56.9434L70.6958 11.4617ZM70.6958 11.4617L70.8786 11.4621M70.6958 11.4617L70.8786 11.4621M70.8786 11.4621C72.8278 11.4674 74.8742 10.577 76.5417 9.84979L70.8786 11.4621ZM19.1798 67.2152L19.1793 67.2163C18.4876 68.8058 17.8628 70.2562 17.5727 71.6228C17.2894 72.9572 17.3637 74.0442 17.907 74.982L16.6956 75.6838L17.907 74.9821C18.46 75.9368 19.3799 76.5522 20.6916 76.9776C22.0348 77.4132 23.6188 77.5975 25.3559 77.7924C25.3559 77.7924 25.356 77.7924 25.356 77.7924L25.3997 77.7973C26.346 77.9034 27.477 78.0302 28.4676 78.226C28.9719 78.3257 29.4804 78.4508 29.9339 78.616C30.3602 78.7713 30.8754 79.0097 31.2725 79.4068M19.1798 67.2152L31.2725 79.4068M19.1798 67.2152L19.2007 67.1669C19.5841 66.2839 20.0416 65.2301 20.368 64.2611C20.5348 63.7662 20.6808 63.2549 20.7637 62.7706C20.8422 62.3126 20.8892 61.744 20.7445 61.1989L19.1798 67.2152ZM31.2725 79.4068C31.6696 79.8039 31.908 80.3191 32.0633 80.7454C32.2285 81.1989 32.3536 81.7074 32.4533 82.2117C32.6491 83.2023 32.7759 84.3333 32.882 85.2796L32.8869 85.3233M31.2725 79.4068L32.8869 85.3233M49.3093 89.89L49.4803 89.9359C50.0162 90.0798 50.4716 90.4078 50.8048 90.6903C51.1628 90.9939 51.5155 91.3639 51.8452 91.7424C52.4971 92.4908 53.1636 93.3946 53.7196 94.1489L53.7355 94.1704L53.7359 94.171C54.732 95.5235 55.695 96.8211 56.7734 97.7957C57.8346 98.7546 58.8725 99.2751 60 99.2751C61.1274 99.2751 62.1653 98.7547 63.2271 97.7952C64.3061 96.82 65.2701 95.5214 66.2685 94.1666C66.2685 94.1665 66.2685 94.1664 66.2686 94.1664L66.2785 94.153C66.8341 93.3972 67.5164 92.4692 68.2401 91.6938C68.9235 90.9617 69.8629 90.1171 70.9789 89.8728L71.1269 89.8404H71.2783C72.1202 89.8404 73.0541 90.1089 73.8913 90.4077C74.7448 90.7124 75.6596 91.1103 76.5074 91.4792L76.5451 91.4956C78.1072 92.1746 79.6562 92.7654 81.0633 93.0349C82.4844 93.3071 83.551 93.2105 84.3089 92.7695L84.3122 92.7676C85.2686 92.2145 85.8836 91.2951 86.3084 89.9839C86.7434 88.6408 86.9266 87.0573 87.1217 85.3195C87.1217 85.3193 87.1217 85.3192 87.1217 85.319L87.1256 85.2844C87.2319 84.334 87.3588 83.1994 87.5546 82.2064C87.654 81.7025 87.7786 81.1948 87.9429 80.7421C88.0973 80.3166 88.3342 79.8024 88.7289 79.4054L88.7318 79.4025C89.1289 79.0054 89.6441 78.767 90.0704 78.6117C90.5239 78.4465 91.0323 78.3215 91.5367 78.2218C92.5273 78.026 93.6583 77.8991 94.6045 77.7931L94.6481 77.7882C94.6482 77.7882 94.6483 77.7882 94.6484 77.7881C96.3841 77.5931 97.9667 77.4099 99.3099 76.9747C100.621 76.5501 101.542 75.9351 102.097 74.9784L49.3093 89.89ZM49.3093 89.89L49.1323 89.8882M49.3093 89.89L49.1323 89.8882M49.1323 89.8882C47.2 89.8674 45.2052 90.738 43.5713 91.4509L43.4592 91.4998C41.8977 92.1786 40.3485 92.7684 38.9414 93.0375C37.5205 93.3092 36.453 93.213 35.6944 92.7732M49.1323 89.8882L35.6944 92.7732M92.9675 44.5049L92.9637 44.5087L79.0978 58.3746L82.921 77.4906C83.1186 77.9358 83.226 78.4254 83.226 78.9363C83.226 81.0228 81.3711 82.4961 79.6199 82.5102L79.6086 82.5103L79.5652 82.5103C78.9693 82.5103 78.3708 82.3598 77.8314 82.0616L77.8287 82.0602L60 72.1553L42.1743 82.0585C42.1734 82.059 42.1725 82.0595 42.1715 82.06C40.9581 82.7367 39.4561 82.6522 38.325 81.8223L92.9675 44.5049ZM92.9675 44.5049C93.9268 43.5382 94.263 42.1032 93.8206 40.8094L93.8167 40.7981C93.3609 39.5015 92.2044 38.5777 90.8358 38.4272M92.9675 44.5049L90.8358 38.4272M90.8358 38.4272L73.1034 36.4593L63.1286 18.5089C63.1285 18.5087 63.1284 18.5085 63.1283 18.5083C62.445 17.2778 61.1501 16.7546 60.0047 16.7546C58.8591 16.7546 57.5643 17.2778 56.8809 18.5083C56.8808 18.5084 56.8807 18.5086 56.8806 18.5087L46.9058 36.4593L29.1719 38.4274L29.1659 38.4281C27.811 38.5843 26.6463 39.4986 26.1923 40.7988C25.7349 42.0955 26.0659 43.5385 27.0363 44.5089L40.9022 58.3749L36.9316 78.2359L36.9314 78.237C36.6603 79.5992 37.2016 80.9986 38.3236 81.8213L90.8358 38.4272ZM32.8869 85.3233C33.0819 87.0612 33.2651 88.644 33.6998 89.9869M32.8869 85.3233L33.6998 89.9869M35.6944 92.7732C34.7387 92.2181 34.1242 91.2978 33.6998 89.9869M35.6944 92.7732L33.6998 89.9869M100.825 67.2165C100.435 66.3224 99.9655 65.2471 99.6329 64.2593C99.4661 63.7638 99.3202 63.2518 99.2378 62.7671C99.1601 62.3097 99.1137 61.7404 99.2609 61.1947C99.2612 61.1936 99.2615 61.1925 99.2618 61.1913L100.613 61.5577L100.825 67.2165ZM100.825 67.2165C101.515 68.806 102.138 70.256 102.428 71.6224C102.712 72.9567 102.638 74.0422 102.098 74.9772L100.825 67.2165ZM100.82 34.1339L100.82 34.135L76.5419 9.84971C78.1006 9.17133 79.646 8.5828 81.051 8.31438C82.4683 8.0436 83.5381 8.13843 84.3032 8.57834C85.2592 9.13122 85.8744 10.0514 86.2993 11.3635C86.7345 12.7074 86.9177 14.2912 87.1127 16.0271L87.1166 16.0618C87.223 17.0121 87.3499 18.147 87.5464 19.1402C87.6461 19.6444 87.7712 20.1525 87.9364 20.6058C88.0918 21.032 88.3302 21.5466 88.7271 21.9434C89.1242 22.3406 89.6394 22.579 90.0657 22.7342C90.5192 22.8994 91.0276 23.0245 91.532 23.1242C92.5225 23.32 93.6535 23.4468 94.5997 23.5529L94.6436 23.5578C96.3807 23.7527 97.9648 23.9371 99.308 24.3727C100.62 24.7981 101.54 25.4134 102.093 26.3682L103.304 25.6664L102.093 26.3682C102.636 27.3061 102.71 28.393 102.427 29.7274C102.137 31.094 101.512 32.5444 100.82 34.1339ZM103.496 56.939L103.495 56.9394L100.608 39.7926L99.2551 40.1514C99.2551 40.1517 99.2552 40.1519 99.2553 40.1522C99.398 40.6895 99.7265 41.1453 100.008 41.4775C100.311 41.8351 100.681 42.1875 101.06 42.517C101.815 43.1744 102.73 43.8468 103.491 44.4065C104.846 45.405 106.145 46.369 107.12 47.4481C108.08 48.5098 108.6 49.5476 108.6 50.6749C108.6 51.8024 108.08 52.8403 107.121 53.9015C106.146 54.9799 104.848 55.9429 103.496 56.939Z" stroke="#ED7424" stroke-width="2.8"/>
</g>
<defs>
<clipPath id="clip0_8_166">
<rect width="100" height="100" fill="white" transform="translate(10 0.674927)"/>
</clipPath>
</defs>
</svg>
