<svg width="111" height="101" viewBox="0 0 111 101" fill="none" xmlns="http://www.w3.org/2000/svg">
<mask id="path-1-inside-1_8_158" fill="white">
<path d="M49.969 17.9972C48.5237 18.697 47.0917 19.6667 45.7634 20.9966C39.105 27.6563 33.0522 33.7091 33.0522 33.7091L33.0548 33.713C33.0186 33.7493 32.9823 33.779 32.946 33.8165C31.2225 35.5413 31.1542 38.2909 32.7458 40.095C32.8089 40.1675 32.8762 40.2388 32.946 40.3071C34.7352 42.0989 37.6405 42.1032 39.4366 40.3071L46.4282 33.3155C47.6344 33.7575 48.8204 34.0153 49.9583 34.1442C51.5085 34.3161 52.9645 34.2517 54.2594 34.069C57.4161 33.6218 57.0856 33.752 58.9165 33.1503C60.7432 32.5511 62.7958 31.3233 62.7958 31.3233L64.0384 32.5645C64.1753 32.6976 67.3428 35.8702 68.9587 37.4835C69.2448 37.7708 69.4878 38.0073 69.6505 38.1767C69.8372 38.3714 70.0454 38.5124 70.1743 38.7005L78.2364 46.7628C80.5602 44.1554 83.2145 40.2722 82.8868 35.814L62.7419 15.6718C62.7419 15.6718 55.769 15.1735 49.969 17.9972Z"/>
<path d="M51.0919 67.473C49.3079 65.6864 46.412 65.6864 44.6268 67.473L43.2999 68.7999C45.0809 67.0163 45.0796 64.1269 43.2958 62.3417C41.5106 60.5593 38.6186 60.5593 36.8335 62.3431C38.6186 60.5593 38.6186 57.6673 36.8335 55.8808C35.0497 54.094 32.1563 54.097 30.3712 55.8808C32.1563 54.097 32.1563 51.2036 30.3712 49.4169C28.5872 47.6333 25.694 47.6333 23.9087 49.4196L19.9126 53.4144C18.1274 55.2009 18.1274 58.0915 19.9126 59.878C21.6964 61.662 24.5885 61.662 26.3735 59.878C24.5884 61.662 24.5884 64.5552 26.3735 66.3403C28.16 68.1241 31.052 68.1241 32.8372 66.3403C31.052 68.1241 31.052 71.0163 32.8372 72.8028C34.6223 74.5866 37.5143 74.5866 39.2997 72.8028L40.6282 71.473C38.8471 73.2595 38.8483 76.1487 40.6321 77.9341C42.4173 79.7177 45.3093 79.7177 47.0946 77.9341L51.0921 73.9364C52.8757 72.1487 52.8757 69.2567 51.0919 67.473Z"/>
<path d="M99.3091 25.2694L75.7848 1.74248C74.7397 0.700098 73.0501 0.700098 72.0077 1.74248L64.4626 9.2874C63.4202 10.3298 63.4202 12.0196 64.4626 13.0634L87.9895 36.589C89.0305 37.6339 90.7231 37.6339 91.7641 36.589L99.3091 29.0425C100.354 28.003 100.354 26.3132 99.3091 25.2694ZM92.6036 30.4866C91.4805 31.6069 89.6645 31.6069 88.5456 30.4866C87.4255 29.3649 87.4255 27.5489 88.5456 26.4286C89.6645 25.3083 91.4805 25.3083 92.6036 26.4286C93.7239 27.5489 93.7225 29.3649 92.6036 30.4866Z"/>
<path d="M35.7212 9.95381L28.1774 2.40889C27.1352 1.3665 25.444 1.3665 24.4016 2.40889L0.874683 25.9356C-0.1677 26.9753 -0.1677 28.6679 0.874683 29.7089L8.4198 37.2565C9.46082 38.2978 11.1546 38.2978 12.1942 37.2565L35.7212 13.7296C36.7649 12.6872 36.7649 10.9974 35.7212 9.95381ZM11.6393 31.1528C10.519 32.2718 8.70183 32.2718 7.58132 31.1528C6.46121 30.0313 6.46121 28.2151 7.58132 27.0948C8.70164 25.9747 10.519 25.9747 11.6393 27.0948C12.7596 28.2151 12.7596 30.0312 11.6393 31.1528Z"/>
<path d="M62.1145 35.9214L61.1608 36.3444L60.1225 36.7192L60.0475 36.7421C59.8647 36.7999 58.1561 37.3224 54.7874 37.7991C53.0061 38.0478 51.2413 38.0786 49.5327 37.8839C48.8571 37.8087 48.1854 37.6983 47.5218 37.5534L42.1005 42.9722C38.843 46.2296 33.5387 46.2296 30.2813 42.9722C30.1671 42.8567 30.0569 42.7397 29.955 42.6243L29.92 42.5853C27.8635 40.2534 27.3411 37.0618 28.3083 34.2921L30.3928 31.0481L30.3889 31.0442L43.1001 18.3345C43.6171 17.8187 44.1598 17.3378 44.7239 16.8837C40.7628 16.106 37.4395 16.3356 37.4395 16.3356L17.2985 36.4802C17.0272 40.1888 19.5741 44.2534 21.386 46.6271C24.6462 43.5093 29.8311 43.5497 33.0346 46.7548C34.2274 47.9462 34.9784 49.4144 35.2952 50.9536C36.8372 51.2733 38.3042 52.0229 39.4969 53.2157C40.6897 54.4099 41.4407 55.878 41.7577 57.4187C43.2983 57.7356 44.7678 58.4851 45.9594 59.678C46.7559 60.4745 47.3563 61.3935 47.7606 62.3767C49.9286 62.3499 52.1048 63.161 53.7544 64.8093C57.0063 68.0585 57.005 73.3509 53.7544 76.5989L52.4245 77.9313L53.0907 78.5978C54.8774 80.3843 57.7692 80.3843 59.5546 78.5978C61.3397 76.8138 61.3397 73.9206 59.5546 72.1353L60.8843 73.4692C62.6708 75.253 65.5614 75.253 67.3466 73.4692C69.1317 71.6827 69.1331 68.7907 67.3466 67.0042C69.1331 68.7907 72.0237 68.7907 73.8089 67.0042C75.5928 65.2218 75.5967 62.3284 73.8089 60.5417C75.5967 62.3284 78.4874 62.3284 80.2714 60.5417C82.0579 58.7581 82.0579 55.8646 80.2714 54.0808L62.1145 35.9214Z"/>
</mask>
<path d="M49.969 17.9972C48.5237 18.697 47.0917 19.6667 45.7634 20.9966C39.105 27.6563 33.0522 33.7091 33.0522 33.7091L33.0548 33.713C33.0186 33.7493 32.9823 33.779 32.946 33.8165C31.2225 35.5413 31.1542 38.2909 32.7458 40.095C32.8089 40.1675 32.8762 40.2388 32.946 40.3071C34.7352 42.0989 37.6405 42.1032 39.4366 40.3071L46.4282 33.3155C47.6344 33.7575 48.8204 34.0153 49.9583 34.1442C51.5085 34.3161 52.9645 34.2517 54.2594 34.069C57.4161 33.6218 57.0856 33.752 58.9165 33.1503C60.7432 32.5511 62.7958 31.3233 62.7958 31.3233L64.0384 32.5645C64.1753 32.6976 67.3428 35.8702 68.9587 37.4835C69.2448 37.7708 69.4878 38.0073 69.6505 38.1767C69.8372 38.3714 70.0454 38.5124 70.1743 38.7005L78.2364 46.7628C80.5602 44.1554 83.2145 40.2722 82.8868 35.814L62.7419 15.6718C62.7419 15.6718 55.769 15.1735 49.969 17.9972Z" stroke="#3B7C93" stroke-width="2" mask="url(#path-1-inside-1_8_158)"/>
<path d="M51.0919 67.473C49.3079 65.6864 46.412 65.6864 44.6268 67.473L43.2999 68.7999C45.0809 67.0163 45.0796 64.1269 43.2958 62.3417C41.5106 60.5593 38.6186 60.5593 36.8335 62.3431C38.6186 60.5593 38.6186 57.6673 36.8335 55.8808C35.0497 54.094 32.1563 54.097 30.3712 55.8808C32.1563 54.097 32.1563 51.2036 30.3712 49.4169C28.5872 47.6333 25.694 47.6333 23.9087 49.4196L19.9126 53.4144C18.1274 55.2009 18.1274 58.0915 19.9126 59.878C21.6964 61.662 24.5885 61.662 26.3735 59.878C24.5884 61.662 24.5884 64.5552 26.3735 66.3403C28.16 68.1241 31.052 68.1241 32.8372 66.3403C31.052 68.1241 31.052 71.0163 32.8372 72.8028C34.6223 74.5866 37.5143 74.5866 39.2997 72.8028L40.6282 71.473C38.8471 73.2595 38.8483 76.1487 40.6321 77.9341C42.4173 79.7177 45.3093 79.7177 47.0946 77.9341L51.0921 73.9364C52.8757 72.1487 52.8757 69.2567 51.0919 67.473Z" stroke="#3B7C93" stroke-width="2" mask="url(#path-1-inside-1_8_158)"/>
<path d="M99.3091 25.2694L75.7848 1.74248C74.7397 0.700098 73.0501 0.700098 72.0077 1.74248L64.4626 9.2874C63.4202 10.3298 63.4202 12.0196 64.4626 13.0634L87.9895 36.589C89.0305 37.6339 90.7231 37.6339 91.7641 36.589L99.3091 29.0425C100.354 28.003 100.354 26.3132 99.3091 25.2694ZM92.6036 30.4866C91.4805 31.6069 89.6645 31.6069 88.5456 30.4866C87.4255 29.3649 87.4255 27.5489 88.5456 26.4286C89.6645 25.3083 91.4805 25.3083 92.6036 26.4286C93.7239 27.5489 93.7225 29.3649 92.6036 30.4866Z" stroke="#3B7C93" stroke-width="2" mask="url(#path-1-inside-1_8_158)"/>
<path d="M35.7212 9.95381L28.1774 2.40889C27.1352 1.3665 25.444 1.3665 24.4016 2.40889L0.874683 25.9356C-0.1677 26.9753 -0.1677 28.6679 0.874683 29.7089L8.4198 37.2565C9.46082 38.2978 11.1546 38.2978 12.1942 37.2565L35.7212 13.7296C36.7649 12.6872 36.7649 10.9974 35.7212 9.95381ZM11.6393 31.1528C10.519 32.2718 8.70183 32.2718 7.58132 31.1528C6.46121 30.0313 6.46121 28.2151 7.58132 27.0948C8.70164 25.9747 10.519 25.9747 11.6393 27.0948C12.7596 28.2151 12.7596 30.0312 11.6393 31.1528Z" stroke="#3B7C93" stroke-width="2" mask="url(#path-1-inside-1_8_158)"/>
<path d="M62.1145 35.9214L61.1608 36.3444L60.1225 36.7192L60.0475 36.7421C59.8647 36.7999 58.1561 37.3224 54.7874 37.7991C53.0061 38.0478 51.2413 38.0786 49.5327 37.8839C48.8571 37.8087 48.1854 37.6983 47.5218 37.5534L42.1005 42.9722C38.843 46.2296 33.5387 46.2296 30.2813 42.9722C30.1671 42.8567 30.0569 42.7397 29.955 42.6243L29.92 42.5853C27.8635 40.2534 27.3411 37.0618 28.3083 34.2921L30.3928 31.0481L30.3889 31.0442L43.1001 18.3345C43.6171 17.8187 44.1598 17.3378 44.7239 16.8837C40.7628 16.106 37.4395 16.3356 37.4395 16.3356L17.2985 36.4802C17.0272 40.1888 19.5741 44.2534 21.386 46.6271C24.6462 43.5093 29.8311 43.5497 33.0346 46.7548C34.2274 47.9462 34.9784 49.4144 35.2952 50.9536C36.8372 51.2733 38.3042 52.0229 39.4969 53.2157C40.6897 54.4099 41.4407 55.878 41.7577 57.4187C43.2983 57.7356 44.7678 58.4851 45.9594 59.678C46.7559 60.4745 47.3563 61.3935 47.7606 62.3767C49.9286 62.3499 52.1048 63.161 53.7544 64.8093C57.0063 68.0585 57.005 73.3509 53.7544 76.5989L52.4245 77.9313L53.0907 78.5978C54.8774 80.3843 57.7692 80.3843 59.5546 78.5978C61.3397 76.8138 61.3397 73.9206 59.5546 72.1353L60.8843 73.4692C62.6708 75.253 65.5614 75.253 67.3466 73.4692C69.1317 71.6827 69.1331 68.7907 67.3466 67.0042C69.1331 68.7907 72.0237 68.7907 73.8089 67.0042C75.5928 65.2218 75.5967 62.3284 73.8089 60.5417C75.5967 62.3284 78.4874 62.3284 80.2714 60.5417C82.0579 58.7581 82.0579 55.8646 80.2714 54.0808L62.1145 35.9214Z" stroke="#3B7C93" stroke-width="2" mask="url(#path-1-inside-1_8_158)"/>
<g clip-path="url(#clip0_8_158)">
<mask id="path-2-inside-2_8_158" fill="white">
<path d="M59.9692 27.9978C58.5239 28.6976 57.0919 29.6673 55.7635 30.9972C49.1051 37.657 43.0524 43.7097 43.0524 43.7097L43.0549 43.7136C43.0188 43.75 42.9825 43.7796 42.9462 43.8171C41.2227 45.542 41.1544 48.2916 42.746 50.0957C42.809 50.1681 42.8764 50.2394 42.9462 50.3078C44.7354 52.0996 47.6407 52.1039 49.4368 50.3078L56.4284 43.3162C57.6346 43.7582 58.8206 44.016 59.9585 44.1449C61.5087 44.3168 62.9647 44.2523 64.2596 44.0697C67.4163 43.6224 67.0858 43.7527 68.9167 43.1509C70.7434 42.5517 72.796 41.324 72.796 41.324L74.0385 42.5652C74.1754 42.6982 77.343 45.8709 78.9588 47.4841C79.245 47.7714 79.488 48.008 79.6507 48.1773C79.8374 48.372 80.0456 48.513 80.1745 48.7011L88.2366 56.7634C90.5604 54.156 93.2147 50.2728 92.887 45.8146L72.7421 25.6724C72.7421 25.6724 65.7692 25.1742 59.9692 27.9978Z"/>
<path d="M61.092 77.4736C59.3081 75.6871 56.4122 75.6871 54.627 77.4736L53.3001 78.8006C55.0811 77.017 55.0798 74.1275 53.296 72.3423C51.5108 70.5599 48.6188 70.5599 46.8337 72.3437C48.6188 70.5599 48.6188 67.6679 46.8337 65.8814C45.0499 64.0947 42.1565 64.0976 40.3713 65.8814C42.1565 64.0976 42.1565 61.2043 40.3713 59.4175C38.5874 57.6339 35.6942 57.6339 33.9088 59.4203L29.9128 63.415C28.1276 65.2015 28.1276 68.0922 29.9128 69.8787C31.6965 71.6627 34.5887 71.6627 36.3737 69.8787C34.5885 71.6627 34.5885 74.5558 36.3737 76.341C38.1602 78.1248 41.0522 78.1248 42.8374 76.341C41.0522 78.1248 41.0522 81.017 42.8374 82.8035C44.6225 84.5873 47.5145 84.5873 49.2999 82.8035L50.6284 81.4736C48.8473 83.2601 48.8485 86.1494 50.6323 87.9347C52.4174 89.7183 55.3094 89.7183 57.0948 87.9347L61.0922 83.9371C62.8758 82.1494 62.8758 79.2574 61.092 77.4736Z"/>
<path d="M109.309 35.2701L85.785 11.7431C84.7399 10.7007 83.0503 10.7007 82.0079 11.7431L74.4628 19.288C73.4204 20.3304 73.4204 22.0203 74.4628 23.064L97.9897 46.5896C99.0307 47.6345 100.723 47.6345 101.764 46.5896L109.309 39.0431C110.354 38.0037 110.354 36.3138 109.309 35.2701ZM102.604 40.4873C101.481 41.6076 99.6647 41.6076 98.5458 40.4873C97.4256 39.3656 97.4256 37.5496 98.5458 36.4293C99.6647 35.3089 101.481 35.3089 102.604 36.4293C103.724 37.5496 103.723 39.3656 102.604 40.4873Z"/>
<path d="M45.7214 19.9544L38.1776 12.4095C37.1354 11.3671 35.4442 11.3671 34.4018 12.4095L10.8749 35.9363C9.83248 36.9759 9.83248 38.6685 10.8749 39.7095L18.42 47.2572C19.461 48.2984 21.1547 48.2984 22.1944 47.2572L45.7214 23.7302C46.7651 22.6878 46.7651 20.998 45.7214 19.9544ZM21.6395 41.1535C20.5192 42.2724 18.702 42.2724 17.5815 41.1535C16.4614 40.032 16.4614 38.2158 17.5815 37.0955C18.7018 35.9753 20.5192 35.9753 21.6395 37.0955C22.7598 38.2158 22.7598 40.0318 21.6395 41.1535Z"/>
<path d="M72.1147 45.922L71.161 46.3451L70.1227 46.7199L70.0477 46.7427C69.8649 46.8005 68.1563 47.323 64.7876 47.7998C63.0063 48.0484 61.2415 48.0793 59.5329 47.8845C58.8573 47.8093 58.1856 47.699 57.5219 47.5541L52.1006 52.9728C48.8432 56.2302 43.5389 56.2302 40.2815 52.9728C40.1672 52.8574 40.0571 52.7404 39.9551 52.625L39.9202 52.5859C37.8637 50.2541 37.3413 47.0625 38.3085 44.2927L40.393 41.0488L40.3891 41.0449L53.1003 28.3351C53.6173 27.8193 54.16 27.3384 54.7241 26.8843C50.763 26.1066 47.4397 26.3363 47.4397 26.3363L27.2987 46.4808C27.0274 50.1894 29.5743 54.2541 31.3862 56.6277C34.6464 53.5099 39.8313 53.5504 43.0348 56.7554C44.2276 57.9468 44.9786 59.415 45.2954 60.9543C46.8374 61.274 48.3044 62.0236 49.4971 63.2164C50.6899 64.4105 51.4409 65.8787 51.7579 67.4193C53.2985 67.7363 54.768 68.4857 55.9596 69.6787C56.7561 70.4752 57.3565 71.3941 57.7608 72.3773C59.9288 72.3505 62.1049 73.1617 63.7546 74.8099C67.0065 78.0591 67.0051 83.3515 63.7546 86.5996L62.4247 87.932L63.0909 88.5984C64.8776 90.3849 67.7694 90.3849 69.5548 88.5984C71.3399 86.8144 71.3399 83.9212 69.5548 82.1359L70.8844 83.4699C72.671 85.2537 75.5616 85.2537 77.3467 83.4699C79.1319 81.6833 79.1333 78.7914 77.3467 77.0048C79.1333 78.7914 82.0239 78.7914 83.809 77.0048C85.593 75.2224 85.5969 72.3291 83.809 70.5423C85.5969 72.3291 88.4876 72.3291 90.2715 70.5423C92.0581 68.7587 92.0581 65.8652 90.2715 64.0814L72.1147 45.922Z"/>
</mask>
<path d="M59.9692 27.9978C58.5239 28.6976 57.0919 29.6673 55.7635 30.9972C49.1051 37.657 43.0524 43.7097 43.0524 43.7097L43.0549 43.7136C43.0188 43.75 42.9825 43.7796 42.9462 43.8171C41.2227 45.542 41.1544 48.2916 42.746 50.0957C42.809 50.1681 42.8764 50.2394 42.9462 50.3078C44.7354 52.0996 47.6407 52.1039 49.4368 50.3078L56.4284 43.3162C57.6346 43.7582 58.8206 44.016 59.9585 44.1449C61.5087 44.3168 62.9647 44.2523 64.2596 44.0697C67.4163 43.6224 67.0858 43.7527 68.9167 43.1509C70.7434 42.5517 72.796 41.324 72.796 41.324L74.0385 42.5652C74.1754 42.6982 77.343 45.8709 78.9588 47.4841C79.245 47.7714 79.488 48.008 79.6507 48.1773C79.8374 48.372 80.0456 48.513 80.1745 48.7011L88.2366 56.7634C90.5604 54.156 93.2147 50.2728 92.887 45.8146L72.7421 25.6724C72.7421 25.6724 65.7692 25.1742 59.9692 27.9978Z" stroke="#F7921E" stroke-width="5.6" stroke-linejoin="round" mask="url(#path-2-inside-2_8_158)"/>
<path d="M61.092 77.4736C59.3081 75.6871 56.4122 75.6871 54.627 77.4736L53.3001 78.8006C55.0811 77.017 55.0798 74.1275 53.296 72.3423C51.5108 70.5599 48.6188 70.5599 46.8337 72.3437C48.6188 70.5599 48.6188 67.6679 46.8337 65.8814C45.0499 64.0947 42.1565 64.0976 40.3713 65.8814C42.1565 64.0976 42.1565 61.2043 40.3713 59.4175C38.5874 57.6339 35.6942 57.6339 33.9088 59.4203L29.9128 63.415C28.1276 65.2015 28.1276 68.0922 29.9128 69.8787C31.6965 71.6627 34.5887 71.6627 36.3737 69.8787C34.5885 71.6627 34.5885 74.5558 36.3737 76.341C38.1602 78.1248 41.0522 78.1248 42.8374 76.341C41.0522 78.1248 41.0522 81.017 42.8374 82.8035C44.6225 84.5873 47.5145 84.5873 49.2999 82.8035L50.6284 81.4736C48.8473 83.2601 48.8485 86.1494 50.6323 87.9347C52.4174 89.7183 55.3094 89.7183 57.0948 87.9347L61.0922 83.9371C62.8758 82.1494 62.8758 79.2574 61.092 77.4736Z" stroke="#F7921E" stroke-width="5.6" stroke-linejoin="round" mask="url(#path-2-inside-2_8_158)"/>
<path d="M109.309 35.2701L85.785 11.7431C84.7399 10.7007 83.0503 10.7007 82.0079 11.7431L74.4628 19.288C73.4204 20.3304 73.4204 22.0203 74.4628 23.064L97.9897 46.5896C99.0307 47.6345 100.723 47.6345 101.764 46.5896L109.309 39.0431C110.354 38.0037 110.354 36.3138 109.309 35.2701ZM102.604 40.4873C101.481 41.6076 99.6647 41.6076 98.5458 40.4873C97.4256 39.3656 97.4256 37.5496 98.5458 36.4293C99.6647 35.3089 101.481 35.3089 102.604 36.4293C103.724 37.5496 103.723 39.3656 102.604 40.4873Z" stroke="#F7921E" stroke-width="5.6" stroke-linejoin="round" mask="url(#path-2-inside-2_8_158)"/>
<path d="M45.7214 19.9544L38.1776 12.4095C37.1354 11.3671 35.4442 11.3671 34.4018 12.4095L10.8749 35.9363C9.83248 36.9759 9.83248 38.6685 10.8749 39.7095L18.42 47.2572C19.461 48.2984 21.1547 48.2984 22.1944 47.2572L45.7214 23.7302C46.7651 22.6878 46.7651 20.998 45.7214 19.9544ZM21.6395 41.1535C20.5192 42.2724 18.702 42.2724 17.5815 41.1535C16.4614 40.032 16.4614 38.2158 17.5815 37.0955C18.7018 35.9753 20.5192 35.9753 21.6395 37.0955C22.7598 38.2158 22.7598 40.0318 21.6395 41.1535Z" stroke="#F7921E" stroke-width="5.6" stroke-linejoin="round" mask="url(#path-2-inside-2_8_158)"/>
<path d="M72.1147 45.922L71.161 46.3451L70.1227 46.7199L70.0477 46.7427C69.8649 46.8005 68.1563 47.323 64.7876 47.7998C63.0063 48.0484 61.2415 48.0793 59.5329 47.8845C58.8573 47.8093 58.1856 47.699 57.5219 47.5541L52.1006 52.9728C48.8432 56.2302 43.5389 56.2302 40.2815 52.9728C40.1672 52.8574 40.0571 52.7404 39.9551 52.625L39.9202 52.5859C37.8637 50.2541 37.3413 47.0625 38.3085 44.2927L40.393 41.0488L40.3891 41.0449L53.1003 28.3351C53.6173 27.8193 54.16 27.3384 54.7241 26.8843C50.763 26.1066 47.4397 26.3363 47.4397 26.3363L27.2987 46.4808C27.0274 50.1894 29.5743 54.2541 31.3862 56.6277C34.6464 53.5099 39.8313 53.5504 43.0348 56.7554C44.2276 57.9468 44.9786 59.415 45.2954 60.9543C46.8374 61.274 48.3044 62.0236 49.4971 63.2164C50.6899 64.4105 51.4409 65.8787 51.7579 67.4193C53.2985 67.7363 54.768 68.4857 55.9596 69.6787C56.7561 70.4752 57.3565 71.3941 57.7608 72.3773C59.9288 72.3505 62.1049 73.1617 63.7546 74.8099C67.0065 78.0591 67.0051 83.3515 63.7546 86.5996L62.4247 87.932L63.0909 88.5984C64.8776 90.3849 67.7694 90.3849 69.5548 88.5984C71.3399 86.8144 71.3399 83.9212 69.5548 82.1359L70.8844 83.4699C72.671 85.2537 75.5616 85.2537 77.3467 83.4699C79.1319 81.6833 79.1333 78.7914 77.3467 77.0048C79.1333 78.7914 82.0239 78.7914 83.809 77.0048C85.593 75.2224 85.5969 72.3291 83.809 70.5423C85.5969 72.3291 88.4876 72.3291 90.2715 70.5423C92.0581 68.7587 92.0581 65.8652 90.2715 64.0814L72.1147 45.922Z" stroke="#F7921E" stroke-width="5.6" stroke-linejoin="round" mask="url(#path-2-inside-2_8_158)"/>
</g>
<defs>
<clipPath id="clip0_8_158">
<rect width="100" height="100" fill="white" transform="translate(10.0929 0.449951)"/>
</clipPath>
</defs>
</svg>
