<svg width="118" height="119" viewBox="0 0 118 119" fill="none" xmlns="http://www.w3.org/2000/svg">
<g filter="url(#filter0_d_8_155)">
<path d="M74.4573 56.5946L74.4569 56.5928C73.9777 54.2721 73.1304 52.2574 72.0218 50.8102C70.9151 49.3657 69.5046 48.4374 67.9129 48.4374C66.3222 48.4374 64.9122 49.3658 63.8061 50.8106C62.698 52.2581 61.8514 54.2734 61.3732 56.5952C61.1757 57.5545 61.4189 58.5577 62.0405 59.3184C62.6596 60.081 63.5891 60.5222 64.5716 60.5222H71.2586C72.2387 60.5222 73.1697 60.0751 73.7876 59.3161L73.7881 59.3155C74.4059 58.5542 74.6523 57.5566 74.4573 56.5946ZM46.6288 56.5934L46.6287 56.593C46.1505 54.2733 45.3038 52.2586 44.1955 50.8111C43.0892 49.3664 41.6786 48.4374 40.0868 48.4374C38.4941 48.4374 37.083 49.3662 35.9765 50.8111C34.8681 52.2586 34.022 54.2735 33.5449 56.5932L33.5449 56.5934C33.3472 57.5559 33.5937 58.5562 34.2116 59.3177L34.2123 59.3185C34.8331 60.0805 35.7624 60.5222 36.7434 60.5222H43.4303C44.4104 60.5222 45.3414 60.0751 45.9594 59.3161C46.5798 58.5546 46.8265 57.5562 46.6288 56.5934ZM4.49988 60.7244C4.49988 33.3853 26.663 11.2244 53.9999 11.2244C81.3368 11.2244 103.5 33.3853 103.5 60.7244C103.5 88.0634 81.3368 110.224 53.9999 110.224C26.663 110.224 4.49988 88.0634 4.49988 60.7244ZM23.0816 72.16C22.4995 73.1728 22.499 74.4179 23.0871 75.4299C29.2728 86.0774 40.7991 93.2439 53.9999 93.2439C67.1981 93.2439 78.7262 86.0778 84.9142 75.4287C85.5031 74.4206 85.5026 73.1722 84.9153 72.1609C84.3324 71.1499 83.2522 70.5265 82.0868 70.5265H25.9129C24.7443 70.5265 23.6651 71.1447 23.0816 72.16Z" stroke="#3B7C93"/>
<g clip-path="url(#clip0_8_155)">
<path d="M95.6013 61.4355C94.8575 60.1464 93.4804 59.3519 91.9939 59.3519H35.82C34.3322 59.3519 32.9539 60.1398 32.2084 61.437C31.4669 62.7272 31.4653 64.3156 32.216 65.6074C38.5559 76.5204 50.3721 83.8693 63.907 83.8693C77.4391 83.8693 89.257 76.521 95.5993 65.6067M95.6013 61.4355C95.6018 61.4363 95.6022 61.4371 95.6027 61.4378L94.3896 62.1367L95.6 61.4332C95.6004 61.434 95.6009 61.4347 95.6013 61.4355ZM95.6013 61.4355C96.3497 62.725 96.3513 64.3181 95.5993 65.6067M95.5993 65.6067C95.5995 65.6062 95.5998 65.6058 95.6001 65.6053L94.3902 64.9023L95.5984 65.6081C95.5987 65.6077 95.599 65.6072 95.5993 65.6067ZM85.2465 46.1413L85.2454 46.1362C84.7468 43.7216 83.8556 41.5707 82.6433 39.9883C81.4366 38.4132 79.79 37.2628 77.82 37.2628C75.8508 37.2628 74.2046 38.4136 72.9986 39.989C71.7869 41.5717 70.8963 43.7232 70.3988 46.1391L70.3988 46.1392C70.1471 47.3615 70.4563 48.6404 71.2497 49.6122C72.0404 50.5853 73.2265 51.1476 74.4787 51.1476H81.1657C82.419 51.1476 83.6054 50.5767 84.3926 49.6098L84.3941 49.608C85.1808 48.6385 85.495 47.3675 85.2465 46.1413ZM57.4175 46.1377L57.4173 46.1367C56.9197 43.723 56.0291 41.572 54.8172 39.9894C53.6109 38.4141 51.9642 37.2628 49.9939 37.2628C48.0229 37.2628 46.3756 38.4137 45.1691 39.9894C43.957 41.5722 43.0669 43.7234 42.5705 46.1373L42.5704 46.1377C42.3183 47.3656 42.6327 48.6402 43.4199 49.6102L43.4217 49.6124C44.2132 50.5838 45.3984 51.1476 46.6505 51.1476H53.3374C54.5906 51.1476 55.7768 50.5768 56.564 49.6102C57.3547 48.6399 57.6698 47.3665 57.4175 46.1377ZM15.307 50.4498C15.307 23.6078 37.0671 1.84977 63.907 1.84977C90.7469 1.84977 112.507 23.6078 112.507 50.4498C112.507 77.2917 90.7469 99.0498 63.907 99.0498C37.0671 99.0498 15.307 77.2917 15.307 50.4498Z" stroke="#FFAA48" stroke-width="2.8"/>
</g>
</g>
<defs>
<filter id="filter0_d_8_155" x="-0.00012207" y="0.449951" width="117.907" height="118.274" filterUnits="userSpaceOnUse" color-interpolation-filters="sRGB">
<feFlood flood-opacity="0" result="BackgroundImageFix"/>
<feColorMatrix in="SourceAlpha" type="matrix" values="0 0 0 0 0 0 0 0 0 0 0 0 0 0 0 0 0 0 127 0" result="hardAlpha"/>
<feOffset dy="4"/>
<feGaussianBlur stdDeviation="2"/>
<feComposite in2="hardAlpha" operator="out"/>
<feColorMatrix type="matrix" values="0 0 0 0 0 0 0 0 0 0 0 0 0 0 0 0 0 0 0.25 0"/>
<feBlend mode="normal" in2="BackgroundImageFix" result="effect1_dropShadow_8_155"/>
<feBlend mode="normal" in="SourceGraphic" in2="effect1_dropShadow_8_155" result="shape"/>
</filter>
<clipPath id="clip0_8_155">
<rect width="100" height="100" fill="white" transform="translate(13.9071 0.449951)"/>
</clipPath>
</defs>
</svg>
