<svg width="548" height="488" viewBox="0 0 548 488" fill="none" xmlns="http://www.w3.org/2000/svg">
<ellipse cx="274" cy="480" rx="195" ry="8" fill="#00415C"/>
<path fill-rule="evenodd" clip-rule="evenodd" d="M247.792 62.4586H226.718C225.837 62.4586 225.044 61.9193 224.707 61.0945C224.37 60.2697 224.556 59.318 225.178 58.686C235.713 47.9878 265.472 17.765 272.583 10.5443C272.99 10.1294 273.544 9.89758 274.123 9.89758C274.701 9.89758 275.253 10.1294 275.663 10.5443C282.771 17.7626 312.533 47.9878 323.067 58.686C323.69 59.318 323.875 60.2697 323.538 61.0945C323.202 61.9193 322.408 62.4586 321.528 62.4586H300.453V470.997H247.795V62.4586H247.792Z" fill="#3B7C93"/>
<path fill-rule="evenodd" clip-rule="evenodd" d="M310.211 237.946C310.211 209.732 321.326 182.689 341.083 162.849C363.101 140.735 388.827 114.9 388.827 114.9C388.827 114.9 379.356 105.283 373.924 99.7657C373.302 99.1336 373.116 98.1819 373.453 97.3571C373.79 96.5323 374.583 95.993 375.464 95.993H442.503C443.081 95.993 443.633 96.2273 444.043 96.6397C444.45 97.0545 444.68 97.6158 444.68 98.2015V166.285C444.68 167.178 444.15 167.986 443.335 168.328C442.523 168.669 441.586 168.481 440.963 167.849C435.531 162.332 426.061 152.715 426.061 152.715C426.061 152.715 409.31 169.726 393.014 186.276C373.512 206.084 362.555 232.946 362.555 260.958V471H310.211V237.949V237.946Z" fill="#3B7C93"/>
<path fill-rule="evenodd" clip-rule="evenodd" d="M237.822 237.946C237.822 209.732 226.704 182.689 206.95 162.849C184.931 140.735 159.206 114.9 159.206 114.9C159.206 114.9 168.677 105.283 174.109 99.7657C174.731 99.1336 174.916 98.1819 174.58 97.3571C174.243 96.5323 173.45 95.993 172.569 95.993H105.53C104.954 95.993 104.4 96.2273 103.99 96.6397C103.582 97.0545 103.353 97.6158 103.353 98.2015V166.285C103.353 167.178 103.883 167.986 104.698 168.328C105.51 168.669 106.447 168.481 107.069 167.849C112.502 162.332 121.972 152.715 121.972 152.715C121.972 152.715 138.722 169.726 155.018 186.276C174.521 206.084 185.478 232.946 185.478 260.958V471H237.822V237.949V237.946Z" fill="#3B7C93"/>
<path fill-rule="evenodd" clip-rule="evenodd" d="M372.162 313.335C372.162 290.799 380.986 269.185 396.692 253.263C412.397 237.34 433.691 228.411 455.883 228.447C472.313 228.474 484.581 228.494 484.581 228.494V207.09C484.581 206.197 485.11 205.389 485.925 205.048C486.738 204.706 487.675 204.894 488.297 205.526C498.832 216.224 528.593 246.449 535.702 253.668C536.109 254.082 536.339 254.644 536.339 255.229C536.339 255.815 536.109 256.379 535.702 256.791C528.593 264.009 498.832 294.235 488.297 304.933C487.675 305.565 486.738 305.753 485.925 305.411C485.113 305.07 484.581 304.264 484.581 303.369V281.965H454.724C438.035 281.965 424.506 295.704 424.506 312.654V470.991H372.162V313.33V313.335Z" fill="#3B7C93"/>
<path fill-rule="evenodd" clip-rule="evenodd" d="M175.834 313.335C175.834 290.799 167.01 269.185 151.304 253.263C135.601 237.34 114.305 228.411 92.1127 228.447C75.6823 228.474 63.4151 228.494 63.4151 228.494V207.09C63.4151 206.197 62.8855 205.389 62.0705 205.048C61.2579 204.706 60.3208 204.894 59.6985 205.526C49.1639 216.224 19.4047 246.449 12.2937 253.668C11.8862 254.082 11.6568 254.644 11.6568 255.229C11.6568 255.815 11.8862 256.379 12.2937 256.791C19.4023 264.009 49.1639 294.235 59.6985 304.933C60.3208 305.565 61.2579 305.753 62.0705 305.411C62.8831 305.07 63.4151 304.264 63.4151 303.369V281.965H93.2718C109.961 281.965 123.49 295.704 123.49 312.654V470.991H175.834V313.33V313.335Z" fill="#3B7C93"/>
<path fill-rule="evenodd" clip-rule="evenodd" d="M247.678 61.687H226.513C225.628 61.687 224.831 61.1454 224.493 60.317C224.155 59.4886 224.341 58.5328 224.966 57.898C235.547 47.1535 265.435 16.7996 272.577 9.54755C272.986 9.1309 273.542 8.89807 274.123 8.89807C274.704 8.89807 275.258 9.1309 275.67 9.54755C282.809 16.7972 312.7 47.1535 323.28 57.898C323.905 58.5328 324.091 59.4886 323.753 60.317C323.415 61.1454 322.618 61.687 321.733 61.687H300.568V471.997H247.681V61.687H247.678Z" fill="#3B7C93"/>
<path fill-rule="evenodd" clip-rule="evenodd" d="M310.368 237.935C310.368 209.598 321.532 182.438 341.374 162.513C363.488 140.303 389.325 114.356 389.325 114.356C389.325 114.356 379.813 104.697 374.358 99.1555C373.733 98.5207 373.546 97.5649 373.885 96.7365C374.223 95.9081 375.019 95.3665 375.904 95.3665H443.234C443.815 95.3665 444.369 95.6018 444.781 96.016C445.19 96.4326 445.42 96.9963 445.42 97.5845V165.963C445.42 166.86 444.888 167.672 444.07 168.015C443.254 168.358 442.313 168.169 441.688 167.534C436.232 161.993 426.72 152.334 426.72 152.334C426.72 152.334 409.898 169.419 393.531 186.041C373.943 205.934 362.939 232.913 362.939 261.047V471.999H310.368V237.938V237.935Z" fill="#3B7C93"/>
<path fill-rule="evenodd" clip-rule="evenodd" d="M237.665 237.935C237.665 209.598 226.499 182.438 206.659 162.513C184.545 140.303 158.708 114.356 158.708 114.356C158.708 114.356 168.22 104.697 173.676 99.1555C174.301 98.5207 174.487 97.5649 174.149 96.7365C173.81 95.9081 173.014 95.3665 172.129 95.3665H104.799C104.221 95.3665 103.664 95.6018 103.253 96.016C102.843 96.4326 102.613 96.9963 102.613 97.5845V165.963C102.613 166.86 103.145 167.672 103.963 168.015C104.78 168.358 105.721 168.169 106.346 167.534C111.801 161.993 121.313 152.334 121.313 152.334C121.313 152.334 138.136 169.419 154.503 186.041C174.09 205.934 185.094 232.913 185.094 261.047V471.999H237.665V237.938V237.935Z" fill="#3B7C93"/>
<path fill-rule="evenodd" clip-rule="evenodd" d="M372.588 313.651C372.588 291.017 381.45 269.31 397.224 253.318C412.998 237.327 434.384 228.359 456.672 228.396C473.173 228.423 485.494 228.442 485.494 228.442V206.946C485.494 206.049 486.026 205.237 486.844 204.894C487.66 204.551 488.602 204.74 489.227 205.375C499.807 216.119 529.698 246.476 536.837 253.725C537.246 254.142 537.477 254.706 537.477 255.294C537.477 255.882 537.246 256.448 536.837 256.862C529.698 264.112 499.807 294.468 489.227 305.213C488.602 305.848 487.66 306.036 486.844 305.693C486.028 305.35 485.494 304.541 485.494 303.642V282.145H455.508C438.746 282.145 425.159 295.944 425.159 312.967V471.991H372.588V313.646V313.651Z" fill="#3B7C93"/>
<path fill-rule="evenodd" clip-rule="evenodd" d="M175.408 313.651C175.408 291.017 166.546 269.31 150.772 253.318C135.001 237.327 113.612 228.359 91.3242 228.396C74.8226 228.423 62.5022 228.442 62.5022 228.442V206.946C62.5022 206.049 61.9703 205.237 61.1517 204.894C60.3356 204.551 59.3945 204.74 58.7695 205.375C48.1892 216.119 18.301 246.476 11.1592 253.725C10.7499 254.142 10.5195 254.706 10.5195 255.294C10.5195 255.882 10.7499 256.448 11.1592 256.862C18.2985 264.112 48.1892 294.468 58.7695 305.213C59.3945 305.848 60.3356 306.036 61.1517 305.693C61.9679 305.35 62.5022 304.541 62.5022 303.642V282.145H92.4884C109.25 282.145 122.837 295.944 122.837 312.967V471.991H175.408V313.646V313.651Z" fill="#3B7C93"/>
<path fill-rule="evenodd" clip-rule="evenodd" d="M247.565 60.9151H226.308C225.419 60.9151 224.619 60.3711 224.28 59.5392C223.94 58.7072 224.127 57.7472 224.755 57.1097C235.381 46.3188 265.398 15.8339 272.571 8.55047C272.982 8.13203 273.54 7.89819 274.124 7.89819C274.707 7.89819 275.263 8.13203 275.677 8.55047C282.847 15.8314 312.867 46.3188 323.493 57.1097C324.12 57.7472 324.308 58.7072 323.968 59.5392C323.628 60.3711 322.828 60.9151 321.94 60.9151H300.683V472.997H247.567V60.9151H247.565Z" fill="#3B7C93"/>
<path fill-rule="evenodd" clip-rule="evenodd" d="M310.526 237.925C310.526 209.466 321.738 182.188 341.665 162.176C363.875 139.871 389.823 113.812 389.823 113.812C389.823 113.812 380.271 104.111 374.791 98.5458C374.164 97.9083 373.977 96.9483 374.316 96.1164C374.656 95.2844 375.456 94.7404 376.345 94.7404H443.965C444.549 94.7404 445.105 94.9767 445.518 95.3927C445.929 95.8111 446.161 96.3773 446.161 96.968V165.642C446.161 166.543 445.627 167.358 444.805 167.702C443.985 168.047 443.04 167.857 442.412 167.22C436.933 161.655 427.38 151.954 427.38 151.954C427.38 151.954 410.485 169.113 394.047 185.806C374.375 205.786 363.324 232.881 363.324 261.136V473H310.526V237.927V237.925Z" fill="#3B7C93"/>
<path fill-rule="evenodd" clip-rule="evenodd" d="M237.508 237.925C237.508 209.466 226.293 182.188 206.368 162.176C184.158 139.871 158.21 113.812 158.21 113.812C158.21 113.812 167.763 104.111 173.242 98.5458C173.87 97.9083 174.057 96.9483 173.717 96.1164C173.377 95.2844 172.577 94.7404 171.689 94.7404H104.068C103.487 94.7404 102.928 94.9767 102.515 95.3927C102.104 95.8111 101.873 96.3773 101.873 96.968V165.642C101.873 166.543 102.407 167.358 103.229 167.702C104.048 168.047 104.994 167.857 105.621 167.22C111.1 161.655 120.653 151.954 120.653 151.954C120.653 151.954 137.549 169.113 153.986 185.806C173.658 205.786 184.71 232.881 184.71 261.136V473H237.508V237.927V237.925Z" fill="#3B7C93"/>
<path fill-rule="evenodd" clip-rule="evenodd" d="M373.014 313.967C373.014 291.235 381.914 269.434 397.756 253.374C413.598 237.313 435.076 228.306 457.461 228.343C474.034 228.37 486.407 228.39 486.407 228.39V206.801C486.407 205.9 486.941 205.085 487.764 204.74C488.583 204.396 489.528 204.585 490.156 205.223C500.782 216.014 530.802 246.501 537.972 253.782C538.383 254.201 538.614 254.767 538.614 255.357C538.614 255.948 538.383 256.517 537.972 256.933C530.802 264.214 500.782 294.701 490.156 305.492C489.528 306.13 488.583 306.319 487.764 305.975C486.944 305.63 486.407 304.818 486.407 303.914V282.325H456.292C439.458 282.325 425.812 296.183 425.812 313.28V472.991H373.014V313.962V313.967Z" fill="#3B7C93"/>
<path fill-rule="evenodd" clip-rule="evenodd" d="M174.982 313.967C174.982 291.235 166.082 269.434 150.24 253.374C134.401 237.313 112.92 228.306 90.5354 228.343C73.9625 228.37 61.5889 228.39 61.5889 228.39V206.801C61.5889 205.9 61.0547 205.085 60.2326 204.74C59.413 204.396 58.4678 204.585 57.8401 205.223C47.2141 216.014 17.1968 246.501 10.0242 253.782C9.61312 254.201 9.38174 254.767 9.38174 255.357C9.38174 255.948 9.61312 256.517 10.0242 256.933C17.1944 264.214 47.2141 294.701 57.8401 305.492C58.4678 306.13 59.413 306.319 60.2326 305.975C61.0523 305.63 61.5889 304.818 61.5889 303.914V282.325H91.7046C108.538 282.325 122.185 296.183 122.185 313.28V472.991H174.982V313.962V313.967Z" fill="#3B7C93"/>
<path fill-rule="evenodd" clip-rule="evenodd" d="M247.451 60.142H226.103C225.211 60.142 224.407 59.5957 224.066 58.7602C223.725 57.9246 223.913 56.9605 224.543 56.3203C235.215 45.4829 265.361 14.8668 272.565 7.55209C272.978 7.13185 273.539 6.897 274.125 6.897C274.71 6.897 275.269 7.13185 275.684 7.55209C282.885 14.8643 313.034 45.4829 323.706 56.3203C324.336 56.9605 324.524 57.9246 324.183 58.7602C323.842 59.5957 323.039 60.142 322.146 60.142H300.798V473.997H247.454V60.142H247.451Z" fill="#3B7C93"/>
<path fill-rule="evenodd" clip-rule="evenodd" d="M310.684 237.914C310.684 209.332 321.944 181.937 341.957 161.84C364.262 139.438 390.323 113.267 390.323 113.267C390.323 113.267 380.729 103.525 375.226 97.9352C374.596 97.295 374.408 96.3309 374.749 95.4954C375.09 94.6598 375.893 94.1135 376.786 94.1135H444.697C445.283 94.1135 445.842 94.3508 446.257 94.7686C446.67 95.1888 446.902 95.7574 446.902 96.3507V165.32C446.902 166.225 446.366 167.043 445.54 167.389C444.717 167.735 443.768 167.545 443.137 166.905C437.635 161.316 428.041 151.573 428.041 151.573C428.041 151.573 411.073 168.806 394.565 185.571C374.808 205.637 363.709 232.849 363.709 261.225V474H310.684V237.916V237.914Z" fill="#3B7C93"/>
<path fill-rule="evenodd" clip-rule="evenodd" d="M237.351 237.914C237.351 209.332 226.089 181.937 206.077 161.84C183.772 139.438 157.712 113.267 157.712 113.267C157.712 113.267 167.306 103.525 172.809 97.9352C173.439 97.295 173.627 96.3309 173.286 95.4954C172.945 94.6598 172.142 94.1135 171.249 94.1135H103.338C102.754 94.1135 102.193 94.3508 101.778 94.7686C101.365 95.1888 101.132 95.7574 101.132 96.3507V165.32C101.132 166.225 101.669 167.043 102.495 167.389C103.318 167.735 104.267 167.545 104.897 166.905C110.4 161.316 119.994 151.573 119.994 151.573C119.994 151.573 136.962 168.806 153.47 185.571C173.227 205.637 184.326 232.849 184.326 261.225V474H237.351V237.916V237.914Z" fill="#3B7C93"/>
<path fill-rule="evenodd" clip-rule="evenodd" d="M373.44 314.282C373.44 291.453 382.379 269.559 398.289 253.429C414.199 237.299 435.77 228.253 458.251 228.29C474.895 228.318 487.322 228.337 487.322 228.337V206.655C487.322 205.751 487.858 204.932 488.684 204.586C489.507 204.24 490.456 204.43 491.087 205.071C501.758 215.908 531.907 246.527 539.108 253.839C539.521 254.259 539.754 254.828 539.754 255.421C539.754 256.014 539.521 256.585 539.108 257.003C531.907 264.315 501.758 294.934 491.087 305.771C490.456 306.412 489.507 306.602 488.684 306.256C487.861 305.91 487.322 305.094 487.322 304.187V282.505H457.077C440.17 282.505 426.465 296.422 426.465 313.593V473.99H373.44V314.277V314.282Z" fill="#3B7C93"/>
<path fill-rule="evenodd" clip-rule="evenodd" d="M174.557 314.282C174.557 291.453 165.618 269.559 149.708 253.429C133.801 237.299 112.227 228.253 89.7468 228.29C73.1026 228.318 60.6757 228.337 60.6757 228.337V206.655C60.6757 205.751 60.1393 204.932 59.3136 204.586C58.4904 204.24 57.5412 204.43 56.9108 205.071C46.2391 215.908 16.0927 246.527 8.88919 253.839C8.47636 254.259 8.24399 254.828 8.24399 255.421C8.24399 256.014 8.47636 256.585 8.88919 257.003C16.0902 264.315 46.2391 294.934 56.9108 305.771C57.5412 306.412 58.4904 306.602 59.3136 306.256C60.1368 305.91 60.6757 305.094 60.6757 304.187V282.505H90.921C107.827 282.505 121.532 296.422 121.532 313.593V473.99H174.557V314.277V314.282Z" fill="#3B7C93"/>
<path fill-rule="evenodd" clip-rule="evenodd" d="M247.338 59.3702H225.898C225.002 59.3702 224.195 58.8215 223.852 57.9824C223.51 57.1433 223.698 56.175 224.331 55.532C235.049 44.6483 265.324 13.9012 272.558 6.55511C272.973 6.13306 273.537 5.89722 274.125 5.89722C274.713 5.89722 275.274 6.13306 275.692 6.55511C282.923 13.8987 313.201 44.6483 323.919 55.532C324.552 56.175 324.74 57.1433 324.398 57.9824C324.055 58.8215 323.248 59.3702 322.352 59.3702H300.912V474.996H247.34V59.3702H247.338Z" fill="#3B7C93"/>
<path fill-rule="evenodd" clip-rule="evenodd" d="M310.84 237.903C310.84 209.199 322.149 181.687 342.248 161.503C364.648 139.006 390.82 112.722 390.82 112.722C390.82 112.722 381.185 102.938 375.659 97.325C375.026 96.682 374.837 95.7137 375.18 94.8746C375.522 94.0355 376.329 93.4868 377.225 93.4868H445.428C446.016 93.4868 446.577 93.7252 446.994 94.1447C447.409 94.5668 447.642 95.1378 447.642 95.7336V164.998C447.642 165.907 447.103 166.729 446.274 167.076C445.447 167.424 444.494 167.233 443.861 166.59C438.335 160.977 428.7 151.193 428.7 151.193C428.7 151.193 411.659 168.499 395.08 185.336C375.239 205.487 364.092 232.816 364.092 261.314V475H310.84V237.905V237.903Z" fill="#3B7C93"/>
<path fill-rule="evenodd" clip-rule="evenodd" d="M237.194 237.903C237.194 209.199 225.883 181.687 205.787 161.503C183.386 139.006 157.214 112.722 157.214 112.722C157.214 112.722 166.849 102.938 172.376 97.325C173.009 96.682 173.197 95.7137 172.855 94.8746C172.512 94.0355 171.705 93.4868 170.809 93.4868H102.607C102.021 93.4868 101.457 93.7252 101.04 94.1447C100.626 94.5668 100.392 95.1378 100.392 95.7336V164.998C100.392 165.907 100.931 166.729 101.76 167.076C102.587 167.424 103.54 167.233 104.173 166.59C109.7 160.977 119.335 151.193 119.335 151.193C119.335 151.193 136.375 168.499 152.954 185.336C172.795 205.487 183.942 232.816 183.942 261.314V475H237.194V237.905V237.903Z" fill="#3B7C93"/>
<path fill-rule="evenodd" clip-rule="evenodd" d="M373.866 314.599C373.866 291.672 382.843 269.684 398.821 253.484C414.799 237.285 436.462 228.202 459.039 228.239C475.755 228.266 488.235 228.286 488.235 228.286V206.511C488.235 205.602 488.773 204.781 489.603 204.433C490.429 204.085 491.383 204.277 492.016 204.92C502.733 215.803 533.011 246.553 540.243 253.897C540.657 254.319 540.891 254.89 540.891 255.485C540.891 256.081 540.657 256.655 540.243 257.074C533.011 264.418 502.733 295.168 492.016 306.051C491.383 306.694 490.429 306.885 489.603 306.538C488.776 306.19 488.235 305.371 488.235 304.46V282.685H457.86C440.881 282.685 427.118 296.662 427.118 313.906V474.99H373.866V314.594V314.599Z" fill="#3B7C93"/>
<path fill-rule="evenodd" clip-rule="evenodd" d="M174.131 314.599C174.131 291.672 165.154 269.684 149.176 253.484C133.201 237.285 111.535 228.202 88.958 228.239C72.2426 228.266 59.7625 228.286 59.7625 228.286V206.511C59.7625 205.602 59.2238 204.781 58.3946 204.433C57.5679 204.085 56.6146 204.277 55.9815 204.92C45.2641 215.803 14.9886 246.553 7.75432 253.897C7.33972 254.319 7.10635 254.89 7.10635 255.485C7.10635 256.081 7.33972 256.655 7.75432 257.074C14.9862 264.418 45.2641 295.168 55.9815 306.051C56.6146 306.694 57.5679 306.885 58.3946 306.538C59.2213 306.19 59.7625 305.371 59.7625 304.46V282.685H90.1373C107.116 282.685 120.879 296.662 120.879 313.906V474.99H174.131V314.594V314.599Z" fill="#3B7C93"/>
<path fill-rule="evenodd" clip-rule="evenodd" d="M247.224 58.599H225.693C224.793 58.599 223.983 58.048 223.639 57.2053C223.295 56.3626 223.484 55.3903 224.12 54.7445C234.883 43.8144 265.288 12.9362 272.553 5.55889C272.969 5.13505 273.535 4.89819 274.126 4.89819C274.717 4.89819 275.28 5.13505 275.699 5.55889C282.962 12.9337 313.369 43.8144 324.132 54.7445C324.768 55.3903 324.957 56.3626 324.613 57.2053C324.269 58.048 323.459 58.599 322.559 58.599H301.027V475.996H247.227V58.599H247.224Z" fill="#3B7C93"/>
<path fill-rule="evenodd" clip-rule="evenodd" d="M310.998 237.892C310.998 209.066 322.355 181.436 342.54 161.167C365.036 138.573 391.319 112.178 391.319 112.178C391.319 112.178 381.643 102.352 376.093 96.7152C375.457 96.0695 375.268 95.0972 375.612 94.2545C375.956 93.4118 376.766 92.8608 377.666 92.8608H446.159C446.75 92.8608 447.313 93.1001 447.732 93.5215C448.149 93.9453 448.383 94.5187 448.383 95.1171V164.677C448.383 165.59 447.842 166.415 447.009 166.764C446.179 167.113 445.222 166.921 444.586 166.275C439.036 160.638 429.36 150.812 429.36 150.812C429.36 150.812 412.247 168.193 395.597 185.101C375.672 205.339 364.477 232.784 364.477 261.403V475.999H310.998V237.895V237.892Z" fill="#3B7C93"/>
<path fill-rule="evenodd" clip-rule="evenodd" d="M237.038 237.892C237.038 209.066 225.679 181.436 205.496 161.167C183 138.573 156.717 112.178 156.717 112.178C156.717 112.178 166.393 102.352 171.943 96.7152C172.579 96.0695 172.768 95.0972 172.424 94.2545C172.08 93.4118 171.27 92.8608 170.37 92.8608H101.877C101.289 92.8608 100.723 93.1001 100.304 93.5215C99.8874 93.9453 99.6531 94.5187 99.6531 95.1171V164.677C99.6531 165.59 100.194 166.415 101.027 166.764C101.857 167.113 102.814 166.921 103.45 166.275C109 160.638 118.676 150.812 118.676 150.812C118.676 150.812 135.789 168.193 152.439 185.101C172.364 205.339 183.559 232.784 183.559 261.403V475.999H237.038V237.895V237.892Z" fill="#3B7C93"/>
<path fill-rule="evenodd" clip-rule="evenodd" d="M374.292 314.916C374.292 291.891 383.307 269.809 399.354 253.541C415.4 237.273 437.155 228.15 459.828 228.187C476.615 228.215 489.148 228.235 489.148 228.235V206.367C489.148 205.455 489.689 204.629 490.522 204.28C491.352 203.931 492.31 204.123 492.946 204.769C503.709 215.699 534.116 246.58 541.378 253.955C541.795 254.378 542.029 254.952 542.029 255.55C542.029 256.149 541.795 256.725 541.378 257.146C534.116 264.521 503.709 295.401 492.946 306.332C492.31 306.977 491.352 307.169 490.522 306.82C489.692 306.471 489.148 305.648 489.148 304.733V282.866H458.644C441.593 282.866 427.771 296.902 427.771 314.22V475.991H374.292V314.911V314.916Z" fill="#3B7C93"/>
<path fill-rule="evenodd" clip-rule="evenodd" d="M173.707 314.916C173.707 291.891 164.691 269.809 148.645 253.541C132.601 237.273 110.843 228.15 88.1701 228.187C71.3835 228.215 58.8502 228.235 58.8502 228.235V206.367C58.8502 205.455 58.3092 204.629 57.4765 204.28C56.6462 203.931 55.6888 204.123 55.0531 204.769C44.29 215.699 13.8855 246.58 6.62036 253.955C6.20399 254.378 5.96964 254.952 5.96964 255.55C5.96964 256.149 6.20399 256.725 6.62036 257.146C13.883 264.521 44.29 295.401 55.0531 306.332C55.6888 306.977 56.6462 307.169 57.4765 306.82C58.3067 306.471 58.8502 305.648 58.8502 304.733V282.866H89.3544C106.405 282.866 120.228 296.902 120.228 314.22V475.991H173.707V314.911V314.916Z" fill="#3B7C93"/>
<path fill-rule="evenodd" clip-rule="evenodd" d="M247.11 57.8279H225.488C224.584 57.8279 223.77 57.2746 223.425 56.4283C223.079 55.582 223.27 54.6056 223.908 53.9571C234.717 42.9805 265.25 11.9713 272.546 4.56267C272.964 4.13703 273.533 3.89917 274.126 3.89917C274.72 3.89917 275.285 4.13703 275.706 4.56267C283 11.9688 313.536 42.9805 324.344 53.9571C324.983 54.6056 325.173 55.582 324.828 56.4283C324.482 57.2746 323.668 57.8279 322.764 57.8279H301.142V476.997H247.113V57.8279H247.11Z" fill="#3B7C93"/>
<path fill-rule="evenodd" clip-rule="evenodd" d="M311.156 237.882C311.156 208.933 322.56 181.186 342.831 160.831C365.422 138.142 391.817 111.634 391.817 111.634C391.817 111.634 382.1 101.767 376.527 96.1057C375.888 95.4572 375.698 94.4807 376.043 93.6345C376.389 92.7882 377.203 92.2348 378.106 92.2348H446.89C447.483 92.2348 448.049 92.4752 448.47 92.8983C448.888 93.324 449.123 93.8999 449.123 94.5008V164.356C449.123 165.272 448.58 166.101 447.744 166.452C446.91 166.802 445.949 166.609 445.31 165.961C439.737 160.3 430.02 150.433 430.02 150.433C430.02 150.433 412.834 167.886 396.114 184.867C376.103 205.19 364.861 232.752 364.861 261.492V477H311.156V237.884V237.882Z" fill="#3B7C93"/>
<path fill-rule="evenodd" clip-rule="evenodd" d="M236.881 237.882C236.881 208.933 225.474 181.186 205.206 160.831C182.614 138.142 156.219 111.634 156.219 111.634C156.219 111.634 165.936 101.767 171.51 96.1057C172.148 95.4572 172.339 94.4807 171.993 93.6345C171.647 92.7882 170.834 92.2348 169.93 92.2348H101.146C100.555 92.2348 99.987 92.4752 99.5664 92.8983C99.1482 93.324 98.9129 93.8999 98.9129 94.5008V164.356C98.9129 165.272 99.4562 166.101 100.292 166.452C101.126 166.802 102.088 166.609 102.726 165.961C108.3 160.3 118.017 150.433 118.017 150.433C118.017 150.433 135.203 167.886 151.923 184.867C171.933 205.19 183.175 232.752 183.175 261.492V477H236.881V237.884V237.882Z" fill="#3B7C93"/>
<path fill-rule="evenodd" clip-rule="evenodd" d="M374.718 315.233C374.718 292.11 383.772 269.934 399.886 253.597C416 237.26 437.848 228.099 460.617 228.136C477.475 228.164 490.062 228.184 490.062 228.184V206.223C490.062 205.307 490.605 204.478 491.441 204.128C492.275 203.777 493.237 203.97 493.875 204.618C504.684 215.595 535.22 246.607 542.513 254.013C542.931 254.439 543.167 255.014 543.167 255.615C543.167 256.216 542.931 256.795 542.513 257.218C535.22 264.624 504.684 295.636 493.875 306.612C493.237 307.261 492.275 307.453 491.441 307.103C490.608 306.752 490.062 305.926 490.062 305.007V283.047H459.428C442.305 283.047 428.424 297.143 428.424 314.534V476.991H374.718V315.228V315.233Z" fill="#3B7C93"/>
<path fill-rule="evenodd" clip-rule="evenodd" d="M173.281 315.233C173.281 292.11 164.227 269.934 148.113 253.597C132.001 237.26 110.151 228.099 87.3813 228.136C70.5234 228.164 57.937 228.184 57.937 228.184V206.223C57.937 205.307 57.3936 204.478 56.5574 204.128C55.7236 203.777 54.7622 203.97 54.1237 204.618C43.3149 215.595 12.7814 246.607 5.48542 254.013C5.06729 254.439 4.83194 255.014 4.83194 255.615C4.83194 256.216 5.06729 256.795 5.48542 257.218C12.7789 264.624 43.3149 295.636 54.1237 306.612C54.7622 307.261 55.7236 307.453 56.5574 307.103C57.3911 306.752 57.937 305.926 57.937 305.007V283.047H88.5706C105.694 283.047 119.575 297.143 119.575 314.534V476.991H173.281V315.228V315.233Z" fill="#3B7C93"/>
<path fill-rule="evenodd" clip-rule="evenodd" d="M246.996 57.0568H225.282C224.375 57.0568 223.557 56.5012 223.211 55.6513C222.864 54.8015 223.055 53.8209 223.696 53.1696C234.55 42.1467 265.213 11.0065 272.54 3.56648C272.96 3.13904 273.53 2.90018 274.126 2.90018C274.722 2.90018 275.29 3.13904 275.713 3.56648C283.037 11.0039 313.702 42.1467 324.557 53.1696C325.198 53.8209 325.389 54.8015 325.042 55.6513C324.695 56.5012 323.878 57.0568 322.97 57.0568H301.256V477.997H246.999V57.0568H246.996Z" fill="#3B7C93"/>
<path fill-rule="evenodd" clip-rule="evenodd" d="M311.313 237.871C311.313 208.8 322.765 180.936 343.122 160.494C365.809 137.709 392.315 111.09 392.315 111.09C392.315 111.09 382.557 101.181 376.96 95.496C376.319 94.8447 376.128 93.8641 376.475 93.0143C376.822 92.1644 377.639 91.6088 378.546 91.6088H447.621C448.217 91.6088 448.785 91.8501 449.207 92.2751C449.627 92.7025 449.863 93.2808 449.863 93.8843V164.035C449.863 164.955 449.318 165.787 448.478 166.139C447.641 166.491 446.675 166.298 446.034 165.646C440.437 159.961 430.679 150.052 430.679 150.052C430.679 150.052 413.42 167.58 396.63 184.632C376.535 205.041 365.245 232.719 365.245 261.582V477.999H311.313V237.874V237.871Z" fill="#3B7C93"/>
<path fill-rule="evenodd" clip-rule="evenodd" d="M236.724 237.871C236.724 208.8 225.268 180.936 204.915 160.494C182.228 137.709 155.721 111.09 155.721 111.09C155.721 111.09 165.479 101.181 171.076 95.496C171.718 94.8447 171.909 93.8641 171.562 93.0143C171.215 92.1644 170.398 91.6088 169.49 91.6088H100.416C99.8221 91.6088 99.2514 91.8501 98.829 92.2751C98.4091 92.7025 98.1727 93.2808 98.1727 93.8843V164.035C98.1727 164.955 98.7183 165.787 99.5581 166.139C100.395 166.491 101.361 166.298 102.002 165.646C107.599 159.961 117.357 150.052 117.357 150.052C117.357 150.052 134.616 167.58 151.407 184.632C171.501 205.041 182.791 232.719 182.791 261.582V477.999H236.724V237.874V237.871Z" fill="#3B7C93"/>
<path fill-rule="evenodd" clip-rule="evenodd" d="M375.143 315.549C375.143 292.329 384.235 270.06 400.418 253.654C416.6 237.247 438.54 228.047 461.406 228.085C478.335 228.113 490.975 228.133 490.975 228.133V206.079C490.975 205.159 491.52 204.327 492.36 203.975C493.197 203.623 494.163 203.817 494.804 204.468C505.659 215.491 536.324 246.633 543.648 254.071C544.068 254.498 544.304 255.077 544.304 255.68C544.304 256.284 544.068 256.864 543.648 257.289C536.324 264.727 505.659 295.87 494.804 306.892C494.163 307.544 493.197 307.737 492.36 307.385C491.523 307.033 490.975 306.203 490.975 305.281V283.227H460.212C443.016 283.227 429.076 297.383 429.076 314.848V477.992H375.143V315.544V315.549Z" fill="#3B7C93"/>
<path fill-rule="evenodd" clip-rule="evenodd" d="M172.855 315.549C172.855 292.329 163.763 270.06 147.581 253.654C131.401 237.247 109.458 228.047 86.5927 228.085C69.6636 228.113 57.0239 228.133 57.0239 228.133V206.079C57.0239 205.159 56.4783 204.327 55.6385 203.975C54.8012 203.623 53.8357 203.817 53.1945 204.468C42.3401 215.491 11.6775 246.633 4.3507 254.071C3.93081 254.498 3.69446 255.077 3.69446 255.68C3.69446 256.284 3.93081 256.864 4.3507 257.289C11.675 264.727 42.3401 295.87 53.1945 306.892C53.8357 307.544 54.8012 307.737 55.6385 307.385C56.4758 307.033 57.0239 306.203 57.0239 305.281V283.227H87.787C104.983 283.227 118.922 297.383 118.922 314.848V477.992H172.855V315.544V315.549Z" fill="#3B7C93"/>
<path fill-rule="evenodd" clip-rule="evenodd" d="M246.882 56.2848H225.077C224.166 56.2848 223.345 55.7268 222.997 54.8733C222.648 54.0199 222.84 53.0352 223.484 52.3812C234.384 41.3119 265.176 10.0405 272.533 2.56926C272.955 2.14002 273.528 1.90015 274.127 1.90015C274.725 1.90015 275.296 2.14002 275.72 2.56926C283.075 10.038 313.869 41.3119 324.769 52.3812C325.413 53.0352 325.605 54.0199 325.257 54.8733C324.908 55.7268 324.087 56.2848 323.176 56.2848H301.371V478.997H246.885V56.2848H246.882Z" fill="#3B7C93"/>
<path fill-rule="evenodd" clip-rule="evenodd" d="M311.47 237.861C311.47 208.667 322.971 180.686 343.413 160.158C366.195 137.277 392.813 110.546 392.813 110.546C392.813 110.546 383.014 100.595 377.393 94.8862C376.749 94.2322 376.558 93.2475 376.906 92.3941C377.254 91.5406 378.075 90.9826 378.987 90.9826H448.352C448.95 90.9826 449.521 91.225 449.945 91.6517C450.367 92.081 450.604 92.6617 450.604 93.2677V163.713C450.604 164.638 450.056 165.473 449.213 165.827C448.372 166.18 447.402 165.986 446.758 165.332C441.138 159.623 431.339 149.672 431.339 149.672C431.339 149.672 414.007 167.274 397.146 184.398C376.967 204.893 365.63 232.687 365.63 261.671V479H311.47V237.863V237.861Z" fill="#3B7C93"/>
<path fill-rule="evenodd" clip-rule="evenodd" d="M236.567 237.861C236.567 208.667 225.063 180.686 204.624 160.158C181.842 137.277 155.224 110.546 155.224 110.546C155.224 110.546 165.023 100.595 170.644 94.8862C171.287 94.2322 171.479 93.2475 171.131 92.3941C170.782 91.5406 169.962 90.9826 169.05 90.9826H99.6852C99.0893 90.9826 98.5161 91.225 98.0919 91.6517C97.6703 92.081 97.4329 92.6617 97.4329 93.2677V163.713C97.4329 164.638 97.9808 165.473 98.8242 165.827C99.665 166.18 100.635 165.986 101.278 165.332C106.899 159.623 116.698 149.672 116.698 149.672C116.698 149.672 134.029 167.274 150.891 184.398C171.07 204.893 182.407 232.687 182.407 261.671V479H236.567V237.863V237.861Z" fill="#3B7C93"/>
<path fill-rule="evenodd" clip-rule="evenodd" d="M375.569 315.866C375.569 292.548 384.699 270.184 400.95 253.709C417.2 237.234 439.233 227.995 462.195 228.033C479.195 228.061 491.888 228.081 491.888 228.081V205.935C491.888 205.011 492.436 204.175 493.279 203.821C494.12 203.468 495.09 203.662 495.734 204.316C506.634 215.386 537.428 246.66 544.783 254.128C545.205 254.558 545.442 255.138 545.442 255.744C545.442 256.35 545.205 256.934 544.783 257.36C537.428 264.829 506.634 296.103 495.734 307.172C495.09 307.826 494.12 308.021 493.279 307.667C492.439 307.314 491.888 306.48 491.888 305.554V283.408H460.995C443.727 283.408 429.729 297.623 429.729 315.161V478.992H375.569V315.861V315.866Z" fill="#3B7C93"/>
<path fill-rule="evenodd" clip-rule="evenodd" d="M172.429 315.866C172.429 292.548 163.299 270.184 147.049 253.709C130.801 237.234 108.766 227.995 85.8038 228.033C68.8034 228.061 56.1105 228.081 56.1105 228.081V205.935C56.1105 205.011 55.5626 204.175 54.7192 203.821C53.8784 203.468 52.9089 203.662 52.265 204.316C41.3648 215.386 10.5732 246.66 3.21556 254.128C2.79389 254.558 2.55655 255.138 2.55655 255.744C2.55655 256.35 2.79389 256.934 3.21556 257.36C10.5707 264.829 41.3648 296.103 52.265 307.172C52.9089 307.826 53.8784 308.021 54.7192 307.667C55.5601 307.314 56.1105 306.48 56.1105 305.554V283.408H87.0031C104.271 283.408 118.269 297.623 118.269 315.161V478.992H172.429V315.861V315.866Z" fill="#3B7C93"/>
<path fill-rule="evenodd" clip-rule="evenodd" d="M246.718 55.1652H224.78C223.863 55.1652 223.038 54.6038 222.687 53.7452C222.337 52.8866 222.53 51.8958 223.178 51.2379C234.144 40.1013 265.123 8.63984 272.525 1.12313C272.949 0.691278 273.526 0.449951 274.128 0.449951C274.73 0.449951 275.304 0.691278 275.731 1.12313C283.131 8.6373 314.112 40.1013 325.079 51.2379C325.726 51.8958 325.919 52.8866 325.569 53.7452C325.218 54.6038 324.393 55.1652 323.476 55.1652H301.538V480.447H246.721V55.1652H246.718Z" fill="#ED7424"/>
<path fill-rule="evenodd" clip-rule="evenodd" d="M311.698 237.845C311.698 208.474 323.269 180.323 343.835 159.67C366.756 136.65 393.536 109.756 393.536 109.756C393.536 109.756 383.677 99.7447 378.023 94.0011C377.375 93.3432 377.182 92.3525 377.532 91.4938C377.883 90.6352 378.708 90.0738 379.625 90.0738H449.412C450.014 90.0738 450.588 90.3177 451.015 90.747C451.439 91.1788 451.678 91.7631 451.678 92.3728V163.247C451.678 164.177 451.127 165.017 450.278 165.373C449.433 165.729 448.457 165.533 447.809 164.875C442.155 159.132 432.296 149.12 432.296 149.12C432.296 149.12 414.859 166.829 397.895 184.057C377.593 204.676 366.187 232.64 366.187 261.8V480.45H311.698V237.847V237.845Z" fill="#F7921E"/>
<path fill-rule="evenodd" clip-rule="evenodd" d="M236.34 237.845C236.34 208.474 224.767 180.323 204.203 159.67C181.282 136.65 154.502 109.756 154.502 109.756C154.502 109.756 164.361 99.7447 170.016 94.0011C170.664 93.3432 170.857 92.3525 170.506 91.4938C170.156 90.6352 169.33 90.0738 168.413 90.0738H98.6262C98.0267 90.0738 97.45 90.3177 97.0233 90.747C96.599 91.1788 96.3603 91.7631 96.3603 92.3728V163.247C96.3603 164.177 96.9115 165.017 97.76 165.373C98.6059 165.729 99.5813 165.533 100.229 164.875C105.884 159.132 115.743 149.12 115.743 149.12C115.743 149.12 133.179 166.829 150.143 184.057C170.445 204.676 181.851 232.64 181.851 261.8V480.45H236.34V237.847V237.845Z" fill="#F7921E"/>
<path fill-rule="evenodd" clip-rule="evenodd" d="M376.187 316.325C376.187 292.865 385.373 270.366 401.722 253.79C418.072 237.215 440.238 227.92 463.34 227.958C480.443 227.986 493.213 228.006 493.213 228.006V205.725C493.213 204.796 493.765 203.955 494.613 203.599C495.459 203.244 496.434 203.439 497.082 204.097C508.049 215.234 539.03 246.698 546.43 254.212C546.854 254.644 547.093 255.228 547.093 255.838C547.093 256.447 546.854 257.034 546.43 257.464C539.03 264.978 508.049 296.442 497.082 307.578C496.434 308.236 495.459 308.432 494.613 308.076C493.767 307.721 493.213 306.882 493.213 305.95V283.669H462.133C444.76 283.669 430.677 297.971 430.677 315.616V480.442H376.187V316.319V316.325Z" fill="#FFAA48"/>
<path fill-rule="evenodd" clip-rule="evenodd" d="M171.813 316.325C171.813 292.865 162.627 270.366 146.278 253.79C129.931 237.215 107.762 227.92 84.6604 227.958C67.5567 227.986 54.7866 228.006 54.7866 228.006V205.725C54.7866 204.796 54.2354 203.955 53.3869 203.599C52.541 203.244 51.5656 203.439 50.9178 204.097C39.9514 215.234 8.97255 246.698 1.57015 254.212C1.14592 254.644 0.907135 255.228 0.907135 255.838C0.907135 256.447 1.14592 257.034 1.57015 257.464C8.97001 264.978 39.9514 296.442 50.9178 307.578C51.5656 308.236 52.541 308.432 53.3869 308.076C54.2329 307.721 54.7866 306.882 54.7866 305.95V283.669H85.8671C103.24 283.669 117.323 297.971 117.323 315.616V480.442H171.813V316.319V316.325Z" fill="#FFAA48"/>
</svg>
