<svg width="132" height="111" viewBox="0 0 132 111" fill="none" xmlns="http://www.w3.org/2000/svg">
<path d="M75.8991 88.3747C78.3843 88.3747 80.3991 86.3599 80.3991 83.8747V80.7777C80.3991 79.8495 80.7678 78.9593 81.4241 78.303L86.0479 73.6787C88.2527 71.4737 92.0228 73.0353 92.0228 76.1535V96.4994C92.0228 98.4324 90.4558 99.9994 88.5228 99.9994H4.64465C2.71166 99.9994 1.14465 98.4324 1.14465 96.4994V12.62C1.14465 10.687 2.71166 9.12001 4.64465 9.12001H72.3486C75.4667 9.12001 77.0283 12.89 74.8235 15.0949L70.1986 19.7198C69.5422 20.3762 68.652 20.745 67.7237 20.745H17.2694C14.7841 20.745 12.7694 22.7597 12.7694 25.245V83.8747C12.7694 86.3599 14.7841 88.3747 17.2694 88.3747H75.8991ZM35.6913 31.7955C37.058 30.4285 39.2741 30.4283 40.641 31.795L56.1238 47.2749C57.8812 49.032 60.7303 49.0318 62.4875 47.2746L106.08 3.68141C107.447 2.31456 109.663 2.31455 111.03 3.68139L118.359 11.011C119.726 12.3778 119.726 14.5939 118.359 15.9607L61.7788 72.5405C60.4119 73.9073 58.1959 73.9073 56.829 72.5405L28.3632 44.0746C26.9965 42.7079 26.9964 40.492 28.363 39.1251L35.6913 31.7955Z" stroke="#3B7C93"/>
<path d="M85.8989 99.0002C88.8813 99.0002 91.2989 96.5826 91.2989 93.6002V90.5033C91.2989 89.8138 91.5728 89.1525 92.0604 88.6649L96.6842 84.0407C98.322 82.4027 101.123 83.5627 101.123 85.8791V106.225C101.123 107.661 99.9587 108.825 98.5227 108.825H14.6445C13.2086 108.825 12.0445 107.661 12.0445 106.225V22.3456C12.0445 20.9097 13.2086 19.7456 14.6445 19.7456H82.3484C84.6648 19.7456 85.8248 22.5461 84.187 24.1841L79.5621 28.809C79.0745 29.2966 78.4131 29.5706 77.7236 29.5706H27.2693C24.2869 29.5706 21.8693 31.9882 21.8693 34.9706V93.6002C21.8693 96.5826 24.2869 99.0002 27.2693 99.0002H85.8989ZM46.3276 42.1574C47.3429 41.142 48.9891 41.1418 50.0045 42.1571L65.4873 57.6369C67.5962 59.7454 71.0151 59.7453 73.1238 57.6365L116.716 14.0434C117.732 13.028 119.378 13.028 120.393 14.0434L127.723 21.373C128.738 22.3883 128.738 24.0346 127.723 25.0499L71.1422 81.6297C70.1269 82.645 68.4807 82.645 67.4653 81.6296L38.9995 53.1638C37.9842 52.1485 37.9841 50.5024 38.9993 49.487L46.3276 42.1574Z" stroke="#FFAA48" stroke-width="2.8" stroke-linejoin="round"/>
</svg>
