<svg width="40" height="41" viewBox="0 0 40 41" fill="none" xmlns="http://www.w3.org/2000/svg">
<g clip-path="url(#clip0_56_192)">
<rect y="0.470703" width="40" height="40" rx="20" fill="#5F5F5F"/>
<path d="M20 0.470703C8.95599 0.470703 0 9.4267 0 20.4707C0 31.5147 8.95599 40.4707 20 40.4707C31.044 40.4707 40 31.5147 40 20.4707C40 9.4267 31.044 0.470703 20 0.470703ZM29.1318 16.0646C29.1406 16.2614 29.1449 16.4592 29.1449 16.6578C29.1449 22.7238 24.5276 29.7188 16.0837 29.7191H16.084H16.0837C13.4912 29.7191 11.0788 28.9592 9.04724 27.657C9.40643 27.6994 9.77203 27.7205 10.1422 27.7205C12.2931 27.7205 14.2725 26.9868 15.8438 25.7554C13.8342 25.7182 12.1399 24.391 11.5552 22.567C11.835 22.6207 12.1228 22.65 12.4179 22.65C12.8369 22.65 13.2428 22.5935 13.6285 22.4882C11.528 22.0677 9.94568 20.2113 9.94568 17.9884C9.94568 17.9677 9.94568 17.949 9.94629 17.9298C10.5649 18.2737 11.2723 18.4807 12.0255 18.5038C10.7928 17.6814 9.9826 16.2755 9.9826 14.6827C9.9826 13.8417 10.21 13.0537 10.6042 12.3753C12.868 15.153 16.2512 16.9798 20.0665 17.1718C19.9878 16.8354 19.9472 16.4851 19.9472 16.125C19.9472 13.5908 22.0032 11.5349 24.5383 11.5349C25.8588 11.5349 27.0514 12.093 27.8891 12.9854C28.9349 12.7791 29.917 12.397 30.8041 11.8712C30.4608 12.9426 29.7333 13.8417 28.7854 14.4102C29.7141 14.2991 30.5991 14.0529 31.4215 13.6873C30.8072 14.608 30.0281 15.4167 29.1318 16.0646Z" fill="#F7921E"/>
</g>
<defs>
<clipPath id="clip0_56_192">
<rect y="0.470703" width="40" height="40" rx="20" fill="white"/>
</clipPath>
</defs>
</svg>
