<svg width="14" height="16" viewBox="0 0 14 16" fill="none" xmlns="http://www.w3.org/2000/svg">
<path d="M6.87513 7.70028C7.91056 7.70028 8.79432 7.33394 9.52665 6.60157C10.2591 5.8692 10.6253 4.98544 10.6253 3.95015C10.6253 2.91503 10.2591 2.03124 9.52665 1.2987C8.79408 0.566363 7.91028 0.200195 6.87513 0.200195C5.83997 0.200195 4.95604 0.566363 4.22371 1.2987C3.49124 2.03124 3.125 2.915 3.125 3.95015C3.125 4.98544 3.49124 5.8692 4.22371 6.60157C4.95625 7.33394 5.83994 7.70028 6.87513 7.70028Z" fill="#102B57"/>
<path d="M13.716 11.6602C13.6931 11.3315 13.6475 10.9766 13.5793 10.5957C13.5109 10.2148 13.4245 9.86176 13.3203 9.53609C13.2161 9.21066 13.0761 8.89324 12.9003 8.58396C12.7246 8.27471 12.5228 8.01109 12.2948 7.79289C12.0668 7.57476 11.7885 7.40073 11.46 7.27054C11.131 7.14039 10.7681 7.0752 10.3709 7.0752C10.3124 7.0752 10.1756 7.14518 9.96074 7.28518C9.74607 7.42518 9.50352 7.58147 9.23333 7.75407C8.96318 7.92636 8.61141 8.08275 8.17865 8.22251C7.74568 8.36251 7.31117 8.43253 6.87481 8.43253C6.43863 8.43253 6.00408 8.36251 5.57118 8.22251C5.13832 8.08275 4.78665 7.92636 4.51646 7.75407C4.24631 7.58147 4.00383 7.42522 3.78902 7.28518C3.57411 7.14518 3.43746 7.0752 3.37886 7.0752C2.98174 7.0752 2.61876 7.14039 2.29001 7.27054C1.96119 7.40073 1.6829 7.5749 1.45499 7.79289C1.22715 8.01109 1.0253 8.27471 0.84959 8.58396C0.673878 8.89324 0.53391 9.2108 0.429721 9.53609C0.325566 9.86176 0.239266 10.2148 0.170924 10.5957C0.102513 10.9766 0.0569518 11.3313 0.0341369 11.6602C0.0113562 11.9891 0 12.326 0 12.6711C0 13.4522 0.237692 14.0692 0.712906 14.5217C1.18822 14.9741 1.81979 15.2002 2.60754 15.2002H11.1429C11.9306 15.2002 12.5621 14.9741 13.0374 14.5217C13.5129 14.0692 13.7504 13.4523 13.7504 12.6711C13.7504 12.326 13.739 11.9891 13.716 11.6602Z" fill="#102B57"/>
</svg>
