<svg width="321" height="253" viewBox="0 0 321 253" fill="none" xmlns="http://www.w3.org/2000/svg">
<g clip-path="url(#clip0_2_735)">
<path d="M63.1376 1.68572C67.527 1.68572 71.0576 2.83079 73.7612 5.15272C76.4648 7.47466 77.8007 10.5282 77.8007 14.345V40.8406C77.8007 44.6574 76.4648 47.7109 73.7612 50.0329C71.0576 52.3548 67.527 53.4999 63.1376 53.4999H51.0826V1.68572H63.1376ZM63.1376 44.2121C64.7279 44.2121 66.0002 43.7668 66.9544 42.8762C67.9087 41.9856 68.4176 40.8406 68.4176 39.4092V15.8082C68.4176 14.3769 67.9405 13.2318 66.9544 12.3412C66.0002 11.4506 64.7279 11.0053 63.1376 11.0053H60.4657V44.2121H63.1376Z" fill="#3B7C93"/>
<path d="M90.8418 50.9871C88.4562 48.697 87.2476 45.5799 87.2476 41.6676V13.5181C87.2476 9.60575 88.4562 6.48863 90.8418 4.19851C93.2273 1.90838 96.5035 0.763313 100.607 0.763313C104.71 0.763313 107.986 1.90838 110.371 4.19851C112.757 6.48863 113.966 9.60575 113.966 13.5181V41.6994C113.966 45.6117 112.757 48.7288 110.371 51.0189C107.986 53.309 104.71 54.4541 100.607 54.4541C96.5035 54.4541 93.2273 53.309 90.8418 51.0189V50.9871ZM96.6307 40.6179C96.6307 42.081 96.9806 43.2261 97.7122 44.0213C98.4119 44.8165 99.398 45.1982 100.607 45.1982C101.815 45.1982 102.801 44.8165 103.501 44.0213C104.201 43.2261 104.583 42.1129 104.583 40.6179V14.5677C104.583 13.1046 104.233 11.9595 103.501 11.1643C102.801 10.3691 101.815 9.98744 100.607 9.98744C99.398 9.98744 98.4119 10.3691 97.7122 11.1643C97.0124 11.9595 96.6307 13.0728 96.6307 14.5677V40.5861V40.6179Z" fill="#3B7C93"/>
<path d="M148.954 53.4999V10.8462H142.083V1.68572H165.303V10.8462H158.432V53.5317H148.954V53.4999Z" fill="#3B7C93"/>
<path d="M174.59 53.4999V1.68572H183.974V22.9012H191.925V1.68572H201.309V53.5317H191.925V31.2347H183.974V53.5317H174.59V53.4999Z" fill="#3B7C93"/>
<path d="M210.787 53.4999V1.68572H230.858V10.8462H220.17V22.8376H230.858V31.1711H220.17V44.3712H230.858V53.5317H210.787V53.4999Z" fill="#3B7C93"/>
<path d="M25.3504 75.0334C33.684 75.0334 40.2363 77.1645 44.9756 81.4585C49.7149 85.7207 52.0686 91.7959 52.0686 99.6205V114.443C52.0686 117.814 51.1144 120.868 49.2378 123.603C47.3611 126.339 44.7847 128.502 41.5404 130.092C38.2642 131.682 34.67 132.446 30.6941 132.446V132.891C36.8011 132.891 41.4132 133.845 44.4985 135.722C47.6156 137.598 49.3014 140.588 49.6195 144.66L51.1462 165.43C51.337 168.388 51.6869 170.805 52.1322 172.682C52.5775 174.559 53.3727 176.562 54.486 178.725H34.4792C33.3659 176.594 32.6343 174.59 32.2526 172.777C31.9028 170.933 31.6165 168.515 31.4257 165.462L30.5032 147.459C30.4078 145.328 29.8989 143.833 28.9765 142.942C28.0541 142.083 26.5909 141.638 24.5553 141.638H18.8936V178.725H0V75.0334H25.3504ZM25.1914 128.152C27.8314 128.152 29.8353 127.166 31.2348 125.162C32.6025 123.19 33.3023 120.391 33.3023 116.828V102.165C33.3023 99.207 32.6025 97.0123 31.1712 95.6128C29.7399 94.1815 27.7996 93.4817 25.3823 93.4817H18.9572V128.152H25.2232H25.1914Z" fill="#F7921E"/>
<path d="M66.2547 178.694V75.0334H85.1801V178.694H66.2547Z" fill="#F7921E"/>
<path d="M104.423 173.668C101.179 169.088 99.5251 162.885 99.5251 155.029V99.1434C99.5251 91.4142 102.006 85.1482 106.936 80.3771C111.866 75.606 118.419 73.1886 126.561 73.1886C134.704 73.1886 140.875 75.2879 145.105 79.5183C149.335 83.7487 151.435 90.6509 151.435 100.193V110.117H134.195V103.565C134.195 100.002 133.495 97.394 132.128 95.7082C130.76 94.0224 128.852 93.1954 126.402 93.1954C123.953 93.1954 121.886 93.9588 120.454 95.4856C119.023 97.0123 118.323 99.3025 118.323 102.356V151.371C118.323 154.329 119.055 156.587 120.55 158.178C122.013 159.768 124.049 160.532 126.593 160.532C129.138 160.532 130.919 159.736 132.255 158.178C133.591 156.587 134.227 154.297 134.227 151.244V134.609H126.593V119.5H151.339V178.725H134.545L140.334 156.587H139.571C136.835 165.748 133.782 172.046 130.41 175.449C127.038 178.853 122.872 180.57 117.878 180.57C112.184 180.57 107.7 178.28 104.455 173.7L104.423 173.668Z" fill="#F7921E"/>
<path d="M165.812 178.694V75.0334H184.578V117.464H200.45V75.0334H219.216V178.694H200.45V134.1H184.578V178.694H165.812Z" fill="#F7921E"/>
<path d="M247.334 178.694V93.3545H233.593V75.0334H280V93.3545H266.259V178.694H247.334Z" fill="#F7921E"/>
<path d="M73.6658 251.214V208.529H66.7954V199.368H90.0148V208.529H83.1444V251.214H73.6658Z" fill="#3B7C93"/>
<path d="M99.3661 251.214V199.368H108.749V220.584H116.701V199.368H126.084V251.214H116.701V228.917H108.749V251.214H99.3661Z" fill="#3B7C93"/>
<path d="M135.563 251.214V199.368H145.041V251.214H135.563Z" fill="#3B7C93"/>
<path d="M154.679 251.214V199.368H162.854L171.028 225.546H171.346V199.368H179.966V251.214H171.791L163.617 225.037H163.299V251.214H154.679Z" fill="#3B7C93"/>
<path d="M192.084 248.702C190.462 246.411 189.635 243.294 189.635 239.382V211.455C189.635 207.575 190.876 204.458 193.325 202.072C195.774 199.686 199.05 198.478 203.122 198.478C207.193 198.478 210.278 199.527 212.409 201.658C214.54 203.79 215.59 207.225 215.59 211.996V216.958H206.97V213.682C206.97 211.9 206.62 210.596 205.952 209.738C205.285 208.879 204.298 208.465 203.09 208.465C201.881 208.465 200.832 208.847 200.1 209.61C199.4 210.374 199.018 211.519 199.018 213.045V237.537C199.018 239 199.4 240.145 200.132 240.941C200.863 241.736 201.881 242.117 203.153 242.117C204.426 242.117 205.316 241.736 205.984 240.941C206.652 240.145 206.97 239 206.97 237.474V229.14H203.153V221.57H215.526V251.182H207.129L210.024 240.114H209.642C208.274 244.694 206.748 247.843 205.062 249.528C203.376 251.246 201.309 252.073 198.796 252.073C195.933 252.073 193.707 250.928 192.084 248.638V248.702Z" fill="#3B7C93"/>
</g>
<path d="M318.121 163.365C317.5 159.553 310.716 158.266 306.393 158.909C301.448 160.172 299.61 161.459 295.286 159.553C290.341 157.647 294.665 144.923 294.044 133.461C294.069 126.456 290.366 122 285.422 122C283.583 122 281.098 124.55 281.098 127.099C283.558 136.011 279.259 145.542 276.775 149.379C275.532 151.928 272.451 156.384 270.612 157.647C268.152 159.553 259.505 164.652 259.505 171.633V196.438C259.505 202.8 276.775 207.899 291.584 209.805C304.529 211.068 315.636 205.993 315.636 200.25C315.636 197.7 315.636 197.056 313.798 196.438C316.258 195.794 319.339 195.175 319.339 188.169C319.339 185.62 316.879 184.976 313.798 184.357C313.798 184.357 320.581 185.62 319.96 176.733C319.96 172.277 315.636 172.277 313.176 172.277C313.176 172.277 319.96 171.633 318.121 163.365Z" stroke="#BFBFBF" stroke-linejoin="round"/>
<path d="M234.285 167.054C234.906 164.504 235.528 163.86 237.391 163.86H249.84C251.703 163.86 252.946 165.123 252.946 167.054V203.369C252.946 204.631 251.703 205.919 249.84 206.562L236.124 209.756C234.881 209.756 233.639 209.112 233.018 207.206C231.776 203.394 231.154 174.059 234.26 167.054H234.285Z" stroke="#BFBFBF" stroke-linejoin="round"/>
<defs>
<clipPath id="clip0_2_735">
<rect width="280" height="251.373" fill="white" transform="translate(0 0.763313)"/>
</clipPath>
</defs>
</svg>
