<svg width="280" height="179" viewBox="0 0 280 179" fill="none" xmlns="http://www.w3.org/2000/svg">
<path d="M24.3965 25.5457H48.7701V46.138H41.7769L41.0935 40.5571C36.925 44.6573 30.5924 46.138 24.5104 46.138C11.0024 46.0696 -0.0454177 42.1744 0.000140397 28.6209V26.0013C-0.0454177 12.4022 11.0024 8.50697 24.5104 8.48419C36.9478 8.48419 47.1983 11.8783 48.7701 22.9261H33.8954C33.007 21.7188 31.7314 20.9215 30.0685 20.4887C28.4056 20.0559 26.5377 19.8509 24.4876 19.8509C18.7473 19.942 13.8954 20.9899 13.9637 26.8441V27.7325C13.8726 33.6323 18.7473 34.6573 24.4876 34.7257C30.0229 34.7257 33.5309 34.4067 35.6493 31.6733H24.3737V25.5229L24.3965 25.5457Z" fill="#3B7C93"/>
<path d="M58.5194 9.41812H100.501V18.5981H72.5057V23.1994H100.501V31.491H72.5057V36.0924H100.501V45.2951H58.5194V9.41812Z" fill="#3B7C93"/>
<path d="M124.898 45.2951V20.7849H108.269V9.41812H155.513V20.7849H138.884V45.2951H124.898Z" fill="#3B7C93"/>
<path d="M174.123 34.7712V45.2723H160.137V34.7712H174.123Z" fill="#F7921E"/>
<path d="M24.6469 89.3953C34.6469 89.8965 48.7244 90.6026 48.7016 99.6004C48.7016 109.851 36.9476 112.288 24.3508 112.288C11.7768 112.265 1.34396 110.739 -2.8635e-06 99.6004H14.6469C16.2415 102.379 19.9544 103.108 24.328 103.108C28.7016 103.108 34.0091 102.379 34.0091 99.6004C34.0091 98.0286 29.6583 97.778 24.0319 97.5275C14.0319 97.0035 -0.0227819 96.3202 -2.8635e-06 87.3452C-2.8635e-06 77.0947 11.754 74.6345 24.3508 74.6345C36.9248 74.7256 47.3576 76.1379 48.7016 87.3452H34.0547C32.4601 84.5206 28.7471 83.8373 24.3736 83.8373C20 83.8373 14.6925 84.4751 14.6925 87.3452C14.6925 88.917 19.0433 89.1448 24.6697 89.3953H24.6469Z" fill="#3B7C93"/>
<path d="M69.2255 111.445V86.9352H52.5968V75.5685H99.8405V86.9352H83.2118V111.445H69.2255Z" fill="#3B7C93"/>
<path d="M143.075 75.5229H157.084V94.794C157.13 108.348 146.036 112.243 132.574 112.288C119.112 112.266 108.018 108.37 108.064 94.794V75.5229H122.05V93.9056C122.005 99.8054 126.834 100.83 132.574 100.899C138.292 100.808 143.144 99.8054 143.075 93.9056V75.5229Z" fill="#3B7C93"/>
<path d="M166.857 75.5685H210.615V86.9352H180.843V91.3088H207.107V101.81H180.843V111.445H166.857V75.5685Z" fill="#3B7C93"/>
<path d="M217.904 75.5685H261.663V86.9352H231.891V91.3088H258.155V101.81H231.891V111.445H217.904V75.5685Z" fill="#3B7C93"/>
<path d="M280 100.922V111.423H266.014V100.922H280Z" fill="#F7921E"/>
<path d="M31.9362 141.719C41.7768 141.582 49.1116 149.851 49.0205 159.669C49.1116 169.418 41.7768 177.732 31.9362 177.619H0V141.742H31.9362V141.719ZM29.3166 153.086H13.9863V166.229H29.3166C32.9385 166.229 35.0114 163.268 35.0114 159.669C35.0114 156.07 32.9613 153.108 29.3166 153.108V153.086Z" fill="#3B7C93"/>
<path d="M105.125 158.302V160.922C105.171 174.475 94.123 178.416 80.6378 178.439C67.1299 178.416 56.082 174.498 56.1276 160.922V158.302C56.082 144.726 67.1299 140.808 80.6378 140.785C94.1458 140.785 105.125 144.726 105.125 158.302ZM91.139 159.168C91.2301 153.313 86.3554 152.243 80.6378 152.174C74.8975 152.266 70.0456 153.313 70.1139 159.168V160.056C70.0228 165.933 74.8975 167.004 80.6378 167.072C86.3554 166.981 91.2073 165.933 91.139 160.056V159.168Z" fill="#3B7C93"/>
<path d="M147.745 141.673H161.754V177.55H146.014L126.743 155.637V177.55H112.756V141.673H132.005L147.745 160.671V141.673Z" fill="#3B7C93"/>
<path d="M173.326 141.719H215.308V150.899H187.312V155.5H215.308V163.792H187.312V168.393H215.308V177.596H173.326V141.719Z" fill="#3B7C93"/>
<path d="M233.804 167.072V177.573H219.818V167.072H233.804Z" fill="#F7921E"/>
<path d="M214.45 33.6736L204.864 44.1583L225.194 62.8135C226.493 63.8762 228.949 64.7971 230.72 64.6082C232.491 64.4193 234.71 63.0024 235.702 61.1369L263.4 19.1036C260.637 15.2309 257.26 11.429 253.435 8.85504L228.264 46.4725L214.474 33.65L214.45 33.6736ZM267.107 26.4476L262.502 33.4611C263.329 35.7516 263.518 37.4991 263.754 39.8605C265.761 59.2242 251.546 76.7223 232.184 78.7295C212.821 80.7367 195.324 66.521 193.317 47.1573C191.31 27.7936 205.525 10.2955 224.887 8.2883C231.334 7.6271 237.992 8.71336 242.975 11.1692L247.13 5.40737C240.236 1.93608 232.349 0.377537 224.132 1.22765C200.661 3.65991 183.801 24.3932 186.233 47.8657C188.665 71.3383 209.397 88.1988 232.868 85.7666C256.339 83.3343 273.199 62.601 270.767 39.1285C270.271 34.4292 269.279 30.3912 267.083 26.4476H267.107Z" stroke="#BFBFBF" stroke-linejoin="round"/>
</svg>
