<svg width="299" height="260" viewBox="0 0 299 260" fill="none" xmlns="http://www.w3.org/2000/svg">
<g clip-path="url(#clip0_2_733)">
<path d="M90.7937 46.5822C91.8311 46.8415 92.6523 47.3386 93.2575 48.0734C93.8626 48.8082 94.338 49.5646 94.6838 50.3426C95.0296 51.2935 95.2673 52.3092 95.397 53.3898C95.5267 54.4704 95.5915 55.3565 95.5915 56.0481C95.5915 56.8261 95.5051 57.6689 95.3322 58.5766C95.1593 59.4843 94.8783 60.3488 94.4893 61.17C94.1003 61.9912 93.56 62.7044 92.8685 63.3096C92.1769 63.9147 91.3124 64.3037 90.2751 64.4766L90.5344 68.626C90.5344 76.4926 88.2868 82.5007 83.7916 86.6501C79.2964 90.7995 73.1587 92.8742 65.3785 92.8742C60.3646 92.8742 56.1287 92.2259 52.6709 90.9292C49.213 89.6325 46.3603 87.8603 44.1127 85.6127L37.6292 79.1293C35.5545 77.0545 33.9336 74.6773 32.7666 71.9974C31.5995 69.3176 30.6919 66.4432 30.0435 63.3744C29.3952 60.3055 28.9845 57.0854 28.8116 53.714C28.6388 50.3426 28.5523 46.928 28.5523 43.4701C28.5523 38.1104 28.8981 32.8588 29.5897 27.7152C30.2812 22.5717 31.686 17.99 33.8039 13.9702C35.9219 9.95049 38.9259 6.70875 42.816 4.24502C46.7061 1.7813 51.8496 0.549438 58.2467 0.549438C66.8913 0.549438 73.418 2.75382 77.8268 7.16259L84.3103 13.6461C88.719 18.0548 90.9234 24.4951 90.9234 32.9669C90.9234 34.6958 90.6857 36.1654 90.2102 37.3756C89.7348 38.5859 89.0648 39.6665 88.2004 40.6174C88.0275 40.7903 87.8113 40.9631 87.552 41.136C87.2927 41.3089 87.0765 41.4818 86.9037 41.6547C87.163 42.0005 87.4007 42.3463 87.6168 42.6921C87.833 43.0379 88.0275 43.4269 88.2004 43.8591L90.7937 46.5822ZM83.2729 41.2657C81.544 41.2657 79.7934 41.3089 78.0213 41.3954C76.2491 41.4818 74.4986 41.525 72.7697 41.525H61.7477C60.6239 41.525 59.7379 41.7628 59.0895 42.2382C58.4412 42.7137 57.9657 43.3188 57.6631 44.0536C57.3606 44.7884 57.1877 45.6096 57.1445 46.5173C57.1012 47.425 57.0796 48.3111 57.0796 49.1756C57.0796 52.3741 57.5983 54.4488 58.6357 55.3997C59.673 56.3506 61.7045 56.8261 64.7301 56.8261C64.8166 57.3448 64.8814 57.8418 64.9246 58.3173C64.9679 58.7927 64.9895 59.2466 64.9895 59.6788C64.9895 61.4077 64.514 62.5748 63.5631 63.1799C62.6122 63.785 61.3155 64.0876 59.673 64.0876C57.5119 64.0876 55.8478 63.3744 54.6807 61.948C53.5137 60.5217 52.6493 58.7927 52.0874 56.7612C51.5254 54.7297 51.2013 52.6118 51.1148 50.4074C51.0284 48.203 50.9852 46.3661 50.9852 44.8965C50.9852 43.4269 51.05 41.4602 51.1797 38.9965C51.3093 36.5328 51.6551 34.1123 52.217 31.735C52.7789 29.3577 53.6434 27.3046 54.8104 25.5757C55.9774 23.8468 57.6415 22.9823 59.8027 22.9823C61.5316 22.9823 62.7635 23.3065 63.4983 23.9548C64.2331 24.6032 64.6869 25.4028 64.8598 26.3537C65.0327 27.3046 65.1192 28.3636 65.1192 29.5306C65.1192 30.6976 65.292 31.7566 65.6378 32.7075C65.9836 33.6584 66.6104 34.4581 67.518 35.1064C68.4257 35.7547 69.9169 36.0789 71.9916 36.0789C75.1902 36.0789 77.8484 35.3657 79.9663 33.9394C82.0843 32.513 83.1432 30.0277 83.1432 26.4834C83.1432 10.0585 74.8444 1.84614 58.2467 1.84614C52.0225 1.84614 47.0518 3.078 43.3346 5.54172C39.6175 8.00544 36.7431 11.204 34.7116 15.1373C32.6801 19.0706 31.3618 23.5226 30.7567 28.4933C30.1516 33.4639 29.849 38.4562 29.849 43.4701C29.849 48.9162 30.1083 54.1462 30.627 59.1601C31.1457 64.174 32.3992 68.6044 34.3874 72.4513C36.3757 76.2981 39.2933 79.367 43.1401 81.6578C46.987 83.9486 52.2386 85.0941 58.895 85.0941C66.243 85.0941 72.0565 83.149 76.3356 79.2589C80.6147 75.3688 82.7542 69.6634 82.7542 62.1425C82.7542 60.4136 82.6246 58.6414 82.3652 56.8261C84.3535 56.8261 85.7582 56.048 86.5795 54.492C87.4007 52.936 87.8113 51.2935 87.8113 49.5646C87.8113 48.873 87.7465 48.0518 87.6168 47.1008C87.4872 46.1499 87.2711 45.2422 86.9685 44.3778C86.6659 43.5133 86.2121 42.7785 85.607 42.1734C85.0018 41.5683 84.2238 41.2657 83.2729 41.2657ZM59.0247 57.6041C59.1976 59.4195 59.4569 61.1484 59.8027 62.7909C61.6181 62.7909 62.7419 62.4451 63.1741 61.7535L59.0247 57.6041ZM70.6949 40.2284L65.7675 35.4306C64.8166 34.3068 64.2547 32.9236 64.0818 31.2811C62.5258 32.3185 61.4452 33.7016 60.8401 35.4306C60.2349 37.1595 59.8027 38.8884 59.5434 40.6174C60.2349 40.358 60.9697 40.2284 61.7477 40.2284H70.6949ZM69.7873 32.0592L68.8796 31.2811C69.1389 31.454 69.4415 31.7134 69.7873 32.0592Z" fill="#3B7C93"/>
<path d="M90.9235 44.3778C90.9235 38.0672 91.3125 32.2537 92.0905 26.9372C92.8685 21.6208 94.4245 17.0175 96.7586 13.1274C99.0927 9.23731 102.442 6.19007 106.808 3.98568C111.174 1.7813 116.944 0.679108 124.119 0.679108C128.873 0.679108 132.915 1.32746 136.243 2.62415C139.571 3.92085 142.359 5.693 144.607 7.94061L151.09 14.4241C153.078 16.3259 154.678 18.5735 155.888 21.1669C157.098 23.7603 158.049 26.505 158.741 29.4009C159.432 32.2969 159.908 35.3441 160.167 38.5426C160.426 41.7412 160.556 44.9397 160.556 48.1382C160.556 54.1895 160.21 59.8949 159.519 65.2546C158.827 70.6143 157.358 75.2824 155.11 79.2589C152.862 83.2354 149.642 86.3691 145.45 88.66C141.257 90.9508 135.616 92.0962 128.528 92.0962C123.082 92.0962 118.543 91.4479 114.912 90.1512C111.282 88.8545 108.299 87.0391 105.965 84.705L99.4817 78.2216C97.5798 76.3197 96.067 74.1586 94.9432 71.7381C93.8194 69.3176 92.955 66.6594 92.3498 63.7634C91.7447 60.8674 91.3557 57.777 91.1828 54.492C91.0099 51.207 90.9235 47.8356 90.9235 44.3778ZM122.044 84.316C128.96 84.316 134.449 83.1922 138.512 80.9446C142.575 78.697 145.666 75.6498 147.784 71.8029C149.902 67.956 151.263 63.4392 151.868 58.2524C152.473 53.0657 152.776 47.5331 152.776 41.6547C152.776 36.5544 152.43 31.6053 151.739 26.8075C151.047 22.0098 149.664 17.7739 147.589 14.0999C145.514 10.4259 142.597 7.48676 138.836 5.28238C135.076 3.078 130.17 1.9758 124.119 1.9758C117.117 1.9758 111.519 3.03477 107.327 5.15271C103.134 7.27065 99.9139 10.2098 97.6663 13.9702C95.4187 17.7307 93.9491 22.2043 93.2575 27.3911C92.5659 32.5778 92.2202 38.2401 92.2202 44.3778C92.2202 50.1697 92.5227 55.5078 93.1278 60.392C93.733 65.2762 95.0729 69.4905 97.1476 73.0348C99.2223 76.5791 102.226 79.3454 106.16 81.3336C110.093 83.3219 115.388 84.316 122.044 84.316ZM114.005 45.2855C114.005 43.9023 114.048 42.0221 114.134 39.6448C114.221 37.2676 114.523 34.9119 115.042 32.5778C115.561 30.2438 116.382 28.2339 117.506 26.5482C118.63 24.8625 120.229 24.0196 122.304 24.0196C124.638 24.0196 126.431 24.9706 127.685 26.8724C128.938 28.7742 129.846 31.0002 130.408 33.5504C130.97 36.1005 131.272 38.6939 131.316 41.3305C131.359 43.9672 131.38 46.0635 131.38 47.6195C131.38 49.1756 131.294 50.8613 131.121 52.6766C130.948 54.492 130.559 56.1777 129.954 57.7338C129.349 59.2898 128.441 60.5865 127.231 61.6238C126.021 62.6612 124.378 63.1799 122.304 63.1799C120.229 63.1799 118.5 62.6396 117.376 61.559C116.252 60.4784 115.431 59.1169 114.912 57.4744C114.394 55.8319 114.113 54.0814 114.07 52.2228C114.026 50.3642 114.005 48.6569 114.005 47.1008V45.2855Z" fill="#3B7C93"/>
<path d="M156.666 44.3778C156.666 38.0672 157.055 32.2537 157.833 26.9372C158.611 21.6208 160.167 17.0175 162.501 13.1274C164.835 9.23731 168.185 6.19007 172.55 3.98568C176.916 1.7813 182.686 0.679108 189.861 0.679108C194.616 0.679108 198.657 1.32746 201.985 2.62415C205.314 3.92085 208.102 5.693 210.349 7.94061L216.833 14.4241C218.821 16.3259 220.42 18.5735 221.63 21.1669C222.841 23.7603 223.792 26.505 224.483 29.4009C225.175 32.2969 225.65 35.3441 225.909 38.5426C226.169 41.7412 226.298 44.9397 226.298 48.1382C226.298 54.1895 225.953 59.8949 225.261 65.2546C224.57 70.6143 223.1 75.2824 220.852 79.2589C218.605 83.2354 215.385 86.3691 211.192 88.66C206.999 90.9508 201.359 92.0962 194.27 92.0962C188.824 92.0962 184.286 91.4479 180.655 90.1512C177.024 88.8545 174.042 87.0391 171.708 84.705L165.224 78.2216C163.322 76.3197 161.809 74.1586 160.686 71.7381C159.562 69.3176 158.697 66.6594 158.092 63.7634C157.487 60.8674 157.098 57.777 156.925 54.492C156.752 51.207 156.666 47.8356 156.666 44.3778ZM187.787 84.316C194.702 84.316 200.192 83.1922 204.255 80.9446C208.318 78.697 211.408 75.6498 213.526 71.8029C215.644 67.956 217.006 63.4392 217.611 58.2524C218.216 53.0657 218.518 47.5331 218.518 41.6547C218.518 36.5544 218.173 31.6053 217.481 26.8075C216.789 22.0098 215.406 17.7739 213.332 14.0999C211.257 10.4259 208.339 7.48676 204.579 5.28238C200.818 3.078 195.913 1.9758 189.861 1.9758C182.859 1.9758 177.262 3.03477 173.069 5.15271C168.876 7.27065 165.656 10.2098 163.409 13.9702C161.161 17.7307 159.692 22.2043 159 27.3911C158.308 32.5778 157.963 38.2401 157.963 44.3778C157.963 50.1697 158.265 55.5078 158.87 60.392C159.475 65.2762 160.815 69.4905 162.89 73.0348C164.965 76.5791 167.969 79.3454 171.902 81.3336C175.835 83.3219 181.13 84.316 187.787 84.316ZM179.747 45.2855C179.747 43.9023 179.79 42.0221 179.877 39.6448C179.963 37.2676 180.266 34.9119 180.784 32.5778C181.303 30.2438 182.124 28.2339 183.248 26.5482C184.372 24.8625 185.971 24.0196 188.046 24.0196C190.38 24.0196 192.174 24.9706 193.427 26.8724C194.681 28.7742 195.588 31.0002 196.15 33.5504C196.712 36.1005 197.015 38.6939 197.058 41.3305C197.101 43.9672 197.123 46.0635 197.123 47.6195C197.123 49.1756 197.036 50.8613 196.863 52.6766C196.691 54.492 196.302 56.1777 195.696 57.7338C195.091 59.2898 194.184 60.5865 192.973 61.6238C191.763 62.6612 190.121 63.1799 188.046 63.1799C185.971 63.1799 184.242 62.6396 183.119 61.559C181.995 60.4784 181.173 59.1169 180.655 57.4744C180.136 55.8319 179.855 54.0814 179.812 52.2228C179.769 50.3642 179.747 48.6569 179.747 47.1008V45.2855Z" fill="#3B7C93"/>
<path d="M224.353 68.3667C224.181 65.7733 224.094 63.1583 224.094 60.5217V52.6766C223.921 47.4899 223.792 42.2815 223.705 37.0514C223.619 31.8214 223.575 26.613 223.575 21.4263C223.575 18.2277 223.813 15.3966 224.289 12.9329C224.764 10.4692 225.629 8.39445 226.882 6.70874C228.135 5.02304 229.864 3.74795 232.069 2.88349C234.273 2.01902 237.104 1.58679 240.562 1.58679C248.083 1.58679 254.61 2.29998 260.142 3.72634C265.675 5.15271 270.213 7.68127 273.758 11.312L280.241 17.7955C283.267 20.8211 285.558 24.7112 287.114 29.4658C288.67 34.2203 289.448 40.0122 289.448 46.8415C289.448 53.2385 288.864 59.2033 287.697 64.7359C286.53 70.2685 284.542 75.0447 281.732 79.0644C278.923 83.0842 275.162 86.2395 270.451 88.5303C265.74 90.8211 259.84 91.9665 252.751 91.9665C249.12 91.9665 245.814 91.6424 242.831 90.994C239.849 90.3457 237.364 89.0274 235.375 87.0391L228.892 80.5556C226.212 77.7893 224.699 73.7263 224.353 68.3667ZM246.268 84.1864C253.183 84.1864 258.932 83.0626 263.514 80.815C268.095 78.5673 271.726 75.4769 274.406 71.5436C277.086 67.6103 278.966 62.9638 280.047 57.6041C281.127 52.2444 281.667 46.4957 281.667 40.358C281.667 33.183 280.803 27.1965 279.074 22.3988C277.345 17.601 274.773 13.7541 271.359 10.8582C267.944 7.96222 263.665 5.90911 258.521 4.69886C253.378 3.48861 247.391 2.88349 240.562 2.88349C237.364 2.88349 234.727 3.2725 232.652 4.05052C230.578 4.82853 228.978 5.99556 227.855 7.5516C226.731 9.10763 225.953 11.0527 225.52 13.3867C225.088 15.7208 224.872 18.4006 224.872 21.4263C224.872 29.2929 224.959 37.0947 225.131 44.8316C225.304 52.5686 225.477 60.3704 225.65 68.237C225.737 71.4355 226.32 74.0721 227.401 76.1468C228.481 78.2216 229.951 79.864 231.809 81.0743C233.668 82.2845 235.829 83.1058 238.293 83.538C240.757 83.9703 243.415 84.1864 246.268 84.1864ZM245.879 23.3713C251.671 23.6306 255.604 25.2947 257.679 28.3636C259.753 31.4324 260.791 35.6467 260.791 41.0064C260.791 42.7353 260.639 44.9397 260.337 47.6195C260.034 50.2994 259.472 52.8711 258.651 55.3349C257.83 57.7986 256.663 59.9165 255.15 61.6887C253.637 63.4608 251.671 64.3469 249.25 64.3469C248.472 64.3469 247.737 64.1956 247.046 63.8931C246.354 63.5905 246.008 62.9638 246.008 62.0129L245.879 23.3713Z" fill="#3B7C93"/>
<path d="M38.9259 148.113C38.9259 141.803 39.3149 135.989 40.0929 130.673C40.8709 125.356 42.427 120.753 44.761 116.863C47.0951 112.973 50.4449 109.926 54.8104 107.721C59.176 105.517 64.9463 104.415 72.1213 104.415C76.8759 104.415 80.9173 105.063 84.2455 106.36C87.5736 107.657 90.3615 109.429 92.6091 111.676L99.0926 118.16C101.081 120.062 102.68 122.309 103.89 124.903C105.101 127.496 106.052 130.241 106.743 133.137C107.435 136.033 107.91 139.08 108.169 142.278C108.429 145.477 108.559 148.675 108.559 151.874C108.559 157.925 108.213 163.631 107.521 168.99C106.83 174.35 105.36 179.018 103.112 182.995C100.865 186.971 97.6446 190.105 93.452 192.396C89.2593 194.687 83.6187 195.832 76.5301 195.832C71.084 195.832 66.5455 195.184 62.9148 193.887C59.284 192.59 56.3016 190.775 53.9676 188.441L47.4841 181.957C45.5823 180.055 44.0695 177.894 42.9457 175.474C41.8219 173.053 40.9574 170.395 40.3523 167.499C39.7471 164.603 39.3581 161.513 39.1852 158.228C39.0123 154.943 38.9259 151.571 38.9259 148.113ZM70.0466 188.052C76.9623 188.052 82.4517 186.928 86.5147 184.68C90.5777 182.433 93.6681 179.385 95.786 175.539C97.904 171.692 99.2655 167.175 99.8706 161.988C100.476 156.801 100.778 151.269 100.778 145.39C100.778 140.29 100.433 135.341 99.741 130.543C99.0494 125.745 97.6663 121.51 95.5915 117.836C93.5168 114.162 90.5993 111.222 86.8388 109.018C83.0784 106.814 78.1726 105.712 72.1213 105.712C65.1192 105.712 59.5218 106.77 55.3291 108.888C51.1365 111.006 47.9163 113.946 45.6687 117.706C43.4211 121.466 41.9515 125.94 41.26 131.127C40.5684 136.314 40.2226 141.976 40.2226 148.113C40.2226 153.905 40.5252 159.243 41.1303 164.128C41.7354 169.012 43.0753 173.226 45.15 176.77C47.2248 180.315 50.2288 183.081 54.1621 185.069C58.0954 187.058 63.3902 188.052 70.0466 188.052ZM62.0071 149.021C62.0071 147.638 62.0503 145.758 62.1368 143.381C62.2232 141.003 62.5258 138.648 63.0445 136.314C63.5631 133.98 64.3844 131.97 65.5082 130.284C66.632 128.598 68.2312 127.755 70.306 127.755C72.64 127.755 74.4338 128.706 75.6872 130.608C76.9407 132.51 77.8484 134.736 78.4103 137.286C78.9722 139.836 79.2748 142.43 79.318 145.066C79.3612 147.703 79.3828 149.799 79.3828 151.355C79.3828 152.911 79.2964 154.597 79.1235 156.412C78.9506 158.228 78.5616 159.913 77.9565 161.469C77.3513 163.026 76.4437 164.322 75.2334 165.36C74.0232 166.397 72.3807 166.916 70.306 166.916C68.2312 166.916 66.5023 166.375 65.3785 165.295C64.2547 164.214 63.4335 162.853 62.9148 161.21C62.3961 159.568 62.1152 157.817 62.0719 155.959C62.0287 154.1 62.0071 152.393 62.0071 150.837V149.021Z" fill="#3B7C93"/>
<path d="M105.965 179.494C105.533 175.949 105.295 172.405 105.252 168.861C105.209 165.316 105.187 161.772 105.187 158.228C105.187 152.349 105.274 146.493 105.446 140.657C105.619 134.822 105.879 128.966 106.224 123.087C106.397 121.099 106.7 119.089 107.132 117.058C107.564 115.026 108.234 113.211 109.142 111.611C110.05 110.012 111.26 108.716 112.773 107.721C114.286 106.727 116.252 106.23 118.673 106.23C122.909 106.23 126.453 107.786 129.306 110.898L135.141 116.733C135.314 116.906 135.443 117.014 135.53 117.058C135.616 117.101 135.703 117.209 135.789 117.382C136.999 118.678 138.253 120.688 139.55 123.411C140.846 126.134 142.1 129.095 143.31 132.294C143.224 129.96 143.159 127.626 143.116 125.292C143.072 122.958 143.051 120.624 143.051 118.289C143.051 114.745 143.937 111.828 145.709 109.537C147.481 107.246 150.226 106.101 153.943 106.101C155.758 106.101 157.552 106.425 159.324 107.073C161.096 107.721 162.588 108.651 163.798 109.861L170.281 116.344C172.356 118.419 173.393 120.969 173.393 123.995C173.393 128.922 173.437 133.828 173.523 138.712C173.609 143.597 173.653 148.502 173.653 153.43C173.653 158.79 173.609 164.149 173.523 169.509C173.437 174.869 172.918 180.185 171.967 185.458C171.621 187.36 171.211 188.938 170.735 190.191C170.26 191.445 169.611 192.417 168.79 193.109C167.969 193.8 166.91 194.298 165.613 194.6C164.316 194.903 162.674 195.054 160.686 195.054C158.957 195.054 157.358 194.643 155.888 193.822C154.418 193.001 153.035 191.942 151.739 190.645L145.255 184.162C144.563 183.47 143.937 182.757 143.375 182.022C142.813 181.287 142.229 180.574 141.624 179.883C140.846 178.672 140.09 177.484 139.355 176.317C138.62 175.15 137.907 173.961 137.216 172.751C137.043 172.318 136.827 171.865 136.567 171.389C136.308 170.914 136.049 170.46 135.789 170.028C135.876 172.535 135.919 174.977 135.919 177.354V184.68C135.919 192.028 132.288 195.702 125.027 195.702C123.038 195.702 121.223 195.486 119.58 195.054C117.938 194.622 116.555 193.844 115.431 192.72L108.948 186.236C108.17 185.458 107.521 184.529 107.003 183.448C106.484 182.368 106.138 181.05 105.965 179.494ZM118.543 187.922C124.94 187.922 128.139 184.68 128.139 178.197C128.139 168.688 128.009 159.135 127.75 149.54C128.701 152.393 129.803 155.202 131.056 157.968C132.31 160.735 133.671 163.415 135.141 166.008C136.092 167.65 137.194 169.682 138.447 172.102C139.701 174.523 141.127 176.857 142.726 179.105C144.326 181.352 146.098 183.276 148.043 184.875C149.988 186.474 152.041 187.274 154.202 187.274C156.018 187.274 157.487 187.166 158.611 186.95C159.735 186.733 160.664 186.301 161.399 185.653C162.134 185.005 162.717 184.118 163.149 182.995C163.582 181.871 163.927 180.444 164.187 178.716C165.051 173.442 165.548 168.104 165.678 162.701C165.808 157.298 165.873 151.96 165.873 146.687V142.992C165.873 141.738 165.829 140.506 165.743 139.296L165.613 124.773V117.511C165.613 115.869 165.289 114.421 164.641 113.168C163.992 111.914 163.128 110.855 162.047 109.991C160.967 109.126 159.713 108.478 158.287 108.046C156.86 107.613 155.413 107.397 153.943 107.397C150.572 107.397 148.129 108.413 146.617 110.444C145.104 112.476 144.347 115.091 144.347 118.289C144.347 123.39 144.434 128.469 144.607 133.526C144.78 138.583 144.866 143.662 144.866 148.762C143.656 146.687 142.337 143.834 140.911 140.204C139.485 136.573 138.058 132.877 136.632 129.117C135.206 125.356 133.779 121.877 132.353 118.678C130.927 115.48 129.608 113.189 128.398 111.806C127.188 110.423 125.718 109.364 123.989 108.629C122.26 107.894 120.488 107.527 118.673 107.527C115.82 107.527 113.637 108.305 112.124 109.861C110.612 111.417 109.509 113.362 108.818 115.696C108.126 118.03 107.716 120.494 107.586 123.087C107.456 125.681 107.348 128.015 107.262 130.089C107.089 134.758 106.916 139.426 106.743 144.094C106.57 148.762 106.484 153.473 106.484 158.228C106.484 161.686 106.484 165.187 106.549 168.731C106.592 172.275 106.83 175.82 107.262 179.364C107.694 182.649 108.904 184.896 110.893 186.107C112.881 187.317 115.431 187.922 118.543 187.922ZM142.143 139.685C142.402 140.29 142.64 140.852 142.856 141.371C143.072 141.889 143.31 142.451 143.569 143.056L142.143 139.685Z" fill="#3B7C93"/>
<path d="M217.611 171.195C218.389 171.973 219.015 172.88 219.491 173.918C219.966 174.955 220.334 176.057 220.593 177.224C220.852 178.391 221.047 179.58 221.177 180.79C221.306 182.001 221.371 183.081 221.371 184.032C221.371 189.046 219.858 192.201 216.833 193.498C216.141 193.844 215.406 194.081 214.628 194.211C213.85 194.341 213.029 194.449 212.165 194.535C211.387 194.622 210.522 194.665 209.571 194.665H206.718C204.73 194.665 202.72 194.708 200.689 194.795C198.657 194.881 196.647 194.924 194.659 194.924H188.694C186.187 194.924 184.221 194.47 182.794 193.563C181.368 192.655 180.309 191.38 179.617 189.737L173.134 183.254C172.529 181.871 172.14 180.272 171.967 178.456C171.88 177.592 171.837 176.727 171.837 175.863V122.309C171.837 121.185 171.837 119.867 171.902 118.354C171.945 116.841 172.118 115.35 172.421 113.881C172.723 112.411 173.177 111.05 173.782 109.796C174.387 108.543 175.252 107.613 176.376 107.008C177.067 106.576 177.759 106.295 178.45 106.165C179.142 106.036 179.834 105.884 180.525 105.712C181.217 105.625 181.908 105.582 182.6 105.582H184.675C188.91 105.582 191.85 106.403 193.492 108.046L199.976 114.529C200.926 115.48 201.575 116.755 201.921 118.354C202.266 119.954 202.439 121.877 202.439 124.125C202.439 129.83 202.439 135.449 202.504 140.982C202.547 146.514 202.569 152.133 202.569 157.839V160.432C202.569 161.383 202.526 162.334 202.439 163.285C203.995 163.026 205.508 162.896 206.978 162.896C207.929 162.896 208.728 163.069 209.377 163.415C210.025 163.76 210.609 164.193 211.127 164.711L217.611 171.195ZM188.176 187.144C190.164 187.144 192.174 187.101 194.205 187.014C196.237 186.928 198.247 186.885 200.235 186.885C202.223 186.885 204.017 186.863 205.616 186.82C207.215 186.777 208.62 186.474 209.83 185.912C211.041 185.35 211.97 184.421 212.618 183.124C213.267 181.828 213.591 179.969 213.591 177.549C213.591 176.511 213.504 175.236 213.332 173.723C213.159 172.21 212.834 170.741 212.359 169.314C211.884 167.888 211.214 166.678 210.349 165.684C209.485 164.69 208.361 164.193 206.978 164.193C204.903 164.193 202.569 164.495 199.976 165.1C197.382 165.705 195.005 166.181 192.844 166.527C193.276 165.576 193.622 164.452 193.881 163.155C194.14 161.858 194.335 160.519 194.465 159.135C194.594 157.752 194.681 156.369 194.724 154.986C194.767 153.603 194.789 152.393 194.789 151.355V142.927L194.659 126.07V117.641C194.659 115.566 194.529 113.859 194.27 112.519C194.011 111.179 193.514 110.077 192.779 109.213C192.044 108.348 191.028 107.743 189.732 107.397C188.435 107.051 186.749 106.879 184.675 106.879C183.464 106.879 182.168 106.922 180.784 107.008C179.401 107.095 178.148 107.484 177.024 108.175C175.814 108.867 174.928 110.034 174.366 111.676C173.804 113.319 173.437 115.113 173.264 117.058C173.091 119.003 173.026 120.926 173.069 122.828C173.112 124.73 173.134 126.243 173.134 127.366V173.14C173.134 174.955 173.177 176.706 173.264 178.391C173.35 180.077 173.696 181.568 174.301 182.865C174.906 184.162 175.814 185.199 177.024 185.977C178.234 186.755 179.963 187.144 182.211 187.144H188.176Z" fill="#3B7C93"/>
<path d="M220.204 149.929C219.513 148.459 218.972 146.882 218.583 145.196C218.194 143.51 217.913 141.716 217.74 139.815C217.567 137.999 217.481 136.076 217.481 134.044V126.07L217.351 122.439C217.265 122.093 217.222 121.488 217.222 120.624C217.222 118.376 217.373 116.344 217.676 114.529C217.978 112.714 218.583 111.179 219.491 109.926C220.399 108.672 221.63 107.7 223.187 107.008C224.743 106.317 226.731 105.971 229.151 105.971C233.301 105.971 236.413 107.051 238.488 109.213L244.971 115.696C247.132 117.857 248.213 120.926 248.213 124.903C248.213 127.064 248.105 129.182 247.889 131.256C247.672 133.331 247.478 135.449 247.305 137.61C248.602 136.746 249.38 135.644 249.639 134.304C249.898 132.964 250.028 131.559 250.028 130.089C250.028 127.755 249.877 125.421 249.574 123.087C249.272 120.753 249.12 118.419 249.12 116.085C249.12 114.616 249.358 113.362 249.834 112.325C250.309 111.287 250.893 110.38 251.584 109.602C253.054 108.218 254.804 107.268 256.836 106.749C258.867 106.23 260.791 105.971 262.606 105.971C264.421 105.971 265.956 106.209 267.469 106.684C268.982 107.159 270.257 107.916 271.294 108.953L277.777 115.437C279.42 117.079 280.241 119.284 280.241 122.05C280.241 127.496 280.047 132.921 279.658 138.323C279.269 143.726 279.074 149.151 279.074 154.597C279.074 155.548 279.074 156.499 279.139 157.45C279.182 158.401 279.204 159.352 279.204 160.302L279.463 164.063C279.463 165.014 279.463 165.965 279.528 166.916C279.571 167.867 279.593 168.817 279.593 169.768C279.593 174.696 278.88 178.845 277.453 182.217C276.027 185.588 274.017 188.333 271.424 190.451C268.83 192.569 265.675 194.081 261.958 194.989C258.241 195.897 254.048 196.351 249.38 196.351C247.737 196.351 245.987 196.178 244.128 195.832C242.27 195.486 240.411 194.967 238.552 194.276C236.694 193.584 234.9 192.741 233.171 191.747C231.442 190.753 229.886 189.565 228.503 188.181L222.019 181.698C220.55 180.228 219.361 178.543 218.454 176.641C217.546 174.739 217.092 172.664 217.092 170.417C217.092 169.034 217.438 167.715 218.129 166.462C218.821 165.208 219.707 164.063 220.788 163.026C221.868 161.988 223.078 161.167 224.418 160.562C225.758 159.957 227.077 159.611 228.373 159.524L223.316 154.467C221.933 153.084 220.896 151.571 220.204 149.929ZM239.784 158.487C242.032 158.487 244.171 158.033 246.203 157.126C248.234 156.218 250.071 155.029 251.714 153.56C251.8 153.992 251.843 154.424 251.843 154.856V156.153C251.843 157.363 251.779 158.768 251.649 160.367C251.519 161.967 251.238 163.458 250.806 164.841C250.374 166.224 249.682 167.391 248.731 168.342C247.781 169.293 246.441 169.768 244.712 169.768C242.118 169.768 240.044 169.293 238.488 168.342C236.931 167.391 235.635 166.375 234.597 165.295C233.56 164.214 232.631 163.198 231.81 162.247C230.988 161.297 230.016 160.821 228.892 160.821C227.768 160.821 226.58 161.08 225.326 161.599C224.073 162.118 222.927 162.831 221.89 163.739C220.852 164.646 220.01 165.684 219.361 166.851C218.713 168.018 218.389 169.206 218.389 170.417C218.389 173.356 219.188 175.949 220.788 178.197C222.387 180.444 224.418 182.346 226.882 183.902C229.346 185.458 232.004 186.625 234.857 187.403C237.71 188.181 240.389 188.57 242.896 188.57C247.305 188.57 251.282 188.138 254.826 187.274C258.37 186.409 261.396 185.005 263.903 183.059C266.41 181.114 268.355 178.521 269.738 175.279C271.121 172.038 271.813 168.039 271.813 163.285C271.813 162.334 271.791 161.383 271.748 160.432C271.705 159.481 271.683 158.53 271.683 157.579L271.424 153.819C271.424 152.868 271.424 151.917 271.359 150.966C271.316 150.015 271.294 149.064 271.294 148.113C271.294 142.667 271.488 137.243 271.877 131.84C272.266 126.437 272.461 121.013 272.461 115.566C272.461 112.541 271.51 110.401 269.608 109.148C267.706 107.894 265.372 107.268 262.606 107.268C261.223 107.268 259.797 107.419 258.327 107.721C256.857 108.024 255.539 108.499 254.372 109.148C253.205 109.796 252.254 110.682 251.519 111.806C250.785 112.93 250.417 114.356 250.417 116.085C250.417 118.419 250.568 120.753 250.871 123.087C251.174 125.421 251.325 127.755 251.325 130.089C251.325 131.3 251.238 132.488 251.065 133.655C250.893 134.822 250.547 135.838 250.028 136.703C249.509 137.567 248.796 138.259 247.889 138.777C246.981 139.296 245.792 139.555 244.323 139.555C242.853 139.555 241.664 139.361 240.757 138.972C239.849 138.583 239.395 137.524 239.395 135.795C239.395 132.856 239.568 129.96 239.914 127.107C240.26 124.254 240.433 121.358 240.433 118.419C240.433 114.616 239.46 111.806 237.515 109.991C235.57 108.175 232.782 107.268 229.151 107.268C226.817 107.268 224.959 107.592 223.576 108.24C222.192 108.888 221.133 109.796 220.399 110.963C219.664 112.13 219.167 113.535 218.907 115.177C218.648 116.82 218.518 118.635 218.518 120.624C218.518 121.834 218.562 123.044 218.648 124.254C218.735 125.465 218.778 126.675 218.778 127.885C218.778 132.034 218.886 135.968 219.102 139.685C219.318 143.402 220.074 146.666 221.371 149.475C222.668 152.285 224.743 154.489 227.595 156.088C230.448 157.687 234.511 158.487 239.784 158.487ZM248.861 166.008C248.429 166.094 247.997 166.159 247.564 166.202C247.132 166.246 246.7 166.267 246.268 166.267C242.464 166.267 239.136 165.792 236.283 164.841L237.969 166.527C238.833 167.132 239.806 167.607 240.886 167.953C241.967 168.299 243.242 168.472 244.712 168.472C246.527 168.472 247.91 167.65 248.861 166.008Z" fill="#3B7C93"/>
<path d="M35.9003 143.575C35.3384 143.575 35.2087 143.445 35.1439 143.078C35.0862 142.617 40.1001 141.565 50.1856 139.923C55.7181 139.015 61.4452 138.086 64.7302 137.502C65.5514 137.351 66.3727 137.156 67.1723 136.984C67.5829 136.897 67.9935 136.789 68.4258 136.703C68.577 136.681 75.7953 135.622 84.2671 134.563C79.7286 134.498 75.0605 134.455 70.1979 134.39C55.1346 134.196 38.364 133.98 18.9784 133.72V132.64C38.3856 132.899 55.1346 133.115 70.2195 133.31C78.151 133.418 85.5854 133.504 92.6956 133.591C94.1868 133.439 95.6564 133.288 97.0827 133.158C93.1927 133.072 89.0648 132.877 79.7935 132.467L70.9975 132.078L71.0408 130.997L79.8367 131.386C90.9739 131.876 100.526 132.143 108.494 132.186C110.201 132.186 112.168 132.186 114.458 132.229C135.184 131.473 156.104 131.148 176.484 130.867C192.282 129.528 207.453 128.533 223.424 130.197C229.303 130.803 235.159 131.71 240.908 132.661C245.425 133.137 249.942 133.655 254.415 134.26C265.697 135.73 272.699 136.919 277.28 137.826C281.235 138.021 285.147 138.28 289.015 138.518C292.344 138.734 295.65 138.929 298.978 139.123V140.204L295.629 140.571C287.913 141.436 287.762 141.436 284.11 140.506C282.618 140.117 280.565 139.599 277.151 138.907C274.492 138.777 271.834 138.648 269.198 138.583C247.845 137.934 229.648 137.416 213.44 136.984C162.674 137.891 136.826 137.87 120.034 137.87C101.981 137.855 79.1235 139.253 51.4606 142.062L37.6508 143.467C36.8296 143.553 36.2893 143.597 35.9219 143.597L35.9003 143.575ZM92.7604 134.671C81.3279 135.881 68.7932 137.718 68.6203 137.762C68.2529 137.848 67.8422 137.934 67.4316 138.042C66.6104 138.237 65.7675 138.431 64.9247 138.583C61.6181 139.188 55.891 140.117 50.3585 141.025C50.0343 141.09 49.6885 141.133 49.3427 141.198L51.331 141.003C79.0226 138.208 101.917 136.811 120.013 136.811C133.606 136.811 153.143 136.811 187.03 136.357C153.446 135.557 127.058 135.168 92.7388 134.714L92.7604 134.671ZM283.677 139.274C283.937 139.339 284.153 139.404 284.391 139.447C287.33 140.204 287.762 140.312 292.517 139.815C291.328 139.75 290.139 139.663 288.951 139.599C287.2 139.49 285.45 139.382 283.677 139.274ZM236.715 136.551C246.743 136.832 257.506 137.156 269.241 137.502C269.241 137.502 269.262 137.502 269.284 137.502C265.675 136.919 261.201 136.249 255.647 135.514L255.604 136.141C249.012 136.292 242.723 136.422 236.715 136.53V136.551ZM103.826 133.763C141.062 134.26 170.195 134.779 213.44 135.925C224.289 135.73 236.262 135.492 249.531 135.211C247.953 134.952 246.354 134.693 244.776 134.412C243.437 134.196 242.118 133.958 240.757 133.742C236.975 133.331 233.193 132.942 229.475 132.575C225.348 132.164 221.241 131.732 217.135 131.278C204.709 131.559 191.979 131.732 179.682 131.905C178.645 131.905 177.608 131.926 176.57 131.948C174.668 132.099 172.767 132.272 170.865 132.445C165.786 132.877 160.556 133.353 155.304 133.72C135.011 133.461 122.649 133.374 114.502 133.331C111.152 133.461 107.824 133.59 104.496 133.72C104.279 133.72 104.042 133.72 103.826 133.742V133.763ZM143.85 132.51C147.351 132.553 151.155 132.596 155.283 132.64C157.249 132.51 159.216 132.359 161.183 132.186C155.434 132.272 149.642 132.38 143.85 132.51ZM205.789 130.435C203.153 130.435 200.516 130.478 197.901 130.586C200.71 130.543 203.542 130.5 206.373 130.435C206.178 130.435 206.005 130.435 205.811 130.435H205.789Z" fill="#F7921E"/>
<path fill-rule="evenodd" clip-rule="evenodd" d="M149.015 53.325L150.377 53.6059L152.906 55.9616L153.014 59.4843L151.717 63.2447L150.463 67.3941L149.188 72.1271L147.892 77.4435L146.681 82.9113L145.795 87.32L147.438 85.0508L150.139 82.0252L152.906 79.9289L155.78 78.8267L159.194 78.8699L162.458 80.6853L164.878 85.5047L165.246 88.8977L168.596 88.1197L173.934 87.32L183.918 86.823L185.236 84.5754L187.592 81.7659L190.207 79.8208L193.103 78.8051H196.064L198.506 79.9721L200.17 82.5871L200.451 86.4556L199.37 90.6915L197.339 93.7819L194.594 96.116L191.612 97.6504L189.667 101.389L190.186 104.328L192.109 107.181L196.777 107.678L200.084 106.77L203.822 105.15L207.561 103.075L210.5 101.195L212.791 99.5522L216.055 97.0237L219.383 94.2141L225.78 88.271L227.163 84.9428L229.238 82.3926L231.701 80.4476L234.403 79.1725L237.191 78.697L240.605 79.2805L242.961 81.2472L243.977 83.819L244.15 86.6501C243.804 88.7248 243.804 88.7896 243.782 88.8545C242.983 90.9292 242.918 91.0589 242.81 91.1669L240.627 92.5068L237.926 91.275L237.601 88.4871L238.185 86.0882L235.483 86.9094L233.971 89.8054L233.927 92.5068L235.505 94.7328L238.315 96.894L240.757 95.2299L244.236 93.22L247.953 91.4046L251.93 89.7838L256.014 88.4438L260.077 87.4713L264.097 86.8878L268.074 86.6933C270.17 87.4713 270.278 87.5794 270.365 87.6874L270.927 90.4969L268.333 92.4852L263.492 92.8094L258.673 93.7171L253.616 95.2515L248.407 97.3694L242.226 101.043L244.063 104.393L244.604 107.203L244.56 110.336L244.02 113.254L243.004 115.934L241.491 118.354C239.46 120.537 239.417 120.58 239.374 120.602L235.289 123.239L233.041 123.952L230.686 124.211L227.768 123.757L225.434 122.266C223.921 120.148 223.878 120.018 223.835 119.91C223.273 117.771 223.273 117.684 223.273 117.576L223.532 114.27L224.31 111.849L226.299 108.175L229.389 104.35L228.957 101.432L225.521 96.613L221.868 99.7683L218.281 102.686L214.736 105.323L211.97 107.181L205.811 110.682L201.272 112.584L197.036 113.751L193.081 114.162L190.121 113.902L187.462 113.059L185.128 111.633C183.075 109.58 183.032 109.515 182.989 109.429L181.065 105.431L180.568 102.924L180.395 100.136L180.633 96.5266L181.346 93.0039L174.063 93.0903L168.812 93.9116L164.814 94.8841L163.69 99.5738L162.674 102.275L161.399 104.955L158.957 108.867L156.234 111.741L153.208 113.535L149.88 114.162L146.768 113.557L144.391 111.611C143.375 109.558 143.332 109.45 143.332 109.321C143.115 107.073 143.115 106.987 143.137 106.879C141.84 108.975 141.754 109.061 141.646 109.126L139.333 110.034L136.286 108.888L134.946 105.474L135.119 99.1416L135.335 96.613L129.046 101.54L126.366 103.183L123.968 104.48L121.201 105.82L118.457 106.879L115.842 107.635L113.378 108.11L111.022 108.283C108.991 108.11 108.904 108.089 108.818 108.067L106.052 106.576L103.761 103.486L102.55 101.216L101.729 98.6229L101.275 95.7053V93.1768L98.8549 93.5658L93.8842 93.998L89.2161 94.0413L84.8722 93.6739L80.8308 92.9175L77.5891 91.9017L74.7363 90.5834L72.2726 88.9625L70.2195 92.2475L67.6693 98.4068L66.3726 101.303L65.0327 103.983L63.6496 106.425L62.2232 108.607L60.4078 110.898L56.7555 113.708C54.724 114.162 54.6159 114.183 54.5079 114.162L52.0225 113.557L49.7749 111.633L48.3485 108.845L47.5057 105.063L47.2896 102.816L47.1815 100.309V97.5423L47.3544 94.5167L47.6786 90.4105L48.1108 86.7581L48.6295 83.5596L49.2562 80.8149L50.4881 78.4161L52.8654 76.9681H55.3939C57.6199 78.3296 57.6631 78.3944 57.728 78.4593C58.8518 80.5772 58.8734 80.6637 58.895 80.7717L58.8302 83.1706L58.2251 85.5263L57.6415 88.271L57.0364 91.6208L56.4313 95.5541L55.891 99.5954L55.5884 102.924L55.5452 105.582L58.4628 103.702L61.1426 98.839L62.8932 95.2083L65.184 89.5893L67.021 84.2512L65.1624 81.0959L63.8441 76.9249L63.628 73.1428L64.4924 70.1604L66.243 67.956L68.9228 67.0484L71.6459 67.7615L73.6125 70.0091L74.477 74.3531L74.1528 78.4161L73.2667 82.5223L76.3356 84.8131L80.0312 86.6285L82.3868 87.32L85.0667 87.8603L88.0491 88.2277L91.4421 88.3574L95.3754 88.1413L101.902 87.1471L102.831 80.9878L104.15 78.4593V75.4337L103.609 73.1428L104.517 69.7714L107.132 67.4806L110.244 66.9619L112.643 67.8264L114.761 70.0308L115.561 73.2509L114.286 76.6223L111.498 78.6106L112.643 81.593L112.232 83.7757L111.173 87.2768L110.352 90.3889L109.79 93.1768L109.466 95.6189L109.509 99.3577L110.331 101.627L113.529 102.102L115.863 101.584L118.392 100.676L121.201 99.3577L123.795 98.1042L126.993 96.5482L136.308 88.5735L137.821 79.6479L138.555 76.082L139.312 72.7322L140.09 69.5769L140.889 66.6161L141.711 63.8282L142.575 61.2348L143.461 58.8359L144.369 56.6316L146.919 53.9085C148.843 53.4114 148.994 53.4114 149.145 53.433L149.015 53.325ZM148.799 55.4861L147.827 55.7023L145.363 59.4627L144.499 61.7751L143.656 64.3037L142.834 67.0267L142.035 69.9443L141.278 73.0564L140.544 76.3846L139.83 79.8856L138.599 86.8446L138.274 89.1354L128.182 98.1475L124.638 99.9196L122.087 101.173L118.997 102.578L116.209 103.55L113.81 104.091L111.476 104.242L108.623 102.967L107.262 99.6387L107.089 97.4559L107.197 95.1651L107.543 92.5717L108.126 89.6757L108.969 86.4772L110.028 82.9977V80.3179L107.759 78.8483L105.165 80.3395L103.761 88.0764L95.3322 90.1079L91.2044 90.3241L87.6385 90.1944L84.4832 89.7838L81.6088 89.2003L79.0154 88.4222L76.811 87.4713L73.418 85.3966L71.192 83.538L71.8188 78.0487L72.1429 74.2666L71.5378 70.8952L68.9012 69.0582L66.2646 70.9384L65.6162 73.0996L65.7891 76.2333L66.9129 79.9073L69.1605 83.6028L67.021 90.2376L64.6653 95.9647L62.8715 99.7035L61.0994 102.988L59.1976 106.122L56.3016 109.364C54.3566 109.775 54.1188 109.537 54.0108 109.234L53.2112 105.344L53.276 102.556L53.5786 99.12L54.1188 95.0354L54.724 91.0372L55.3291 87.6226L55.9342 84.7699L56.6258 81.6794L55.2859 79.1509H52.5628L50.5745 83.7325L50.0559 86.823L49.6452 90.3889L49.3211 94.4303L49.1914 97.3694V100.028L49.2562 102.405L49.7533 106.317L50.6826 109.105L52.7357 111.395L55.6533 111.568L58.5924 109.321L61.6181 105.171L62.958 102.837L64.2547 100.265L65.5298 97.4127L68.0151 91.4479L69.7873 85.764L73.418 87.0607L75.6008 88.5087L78.1077 89.6757L81.1117 90.6266L84.937 91.3614L89.0864 91.7072H93.5816L98.401 91.275L102.032 90.6698L103.307 95.2947L103.696 97.8881L104.387 100.136L106.83 103.831L109.315 105.798H112.859L115.128 105.409L117.571 104.696L120.186 103.702L122.649 102.556L125.156 101.195L127.62 99.7035L135.876 93.2416L137.172 99.0984L136.999 104.501L137.648 107.16L140.241 107.289L142.683 101.735L144.218 98.1475L145.73 94.9273L147.2 92.1178L148.562 89.7622L151.393 86.0017L153.705 83.8622C156.104 82.7816 156.407 82.8464 156.666 83.0193L158.157 85.4614L158.352 87.7523L157.984 92.5717L155.153 94.4951L151.371 96.9372L148.454 99.8116L146.379 103.118L145.406 105.798L145.363 108.845L147.481 111.482L149.685 111.936L152.279 111.46L154.678 110.077L157.077 107.57L159.346 103.961L160.534 101.432L161.485 98.9039L162.199 96.3753L162.696 93.7387L168.358 91.7072L173.826 90.8643L182.924 90.3889L183.291 93.4794L182.643 96.613L182.405 99.9412L182.535 102.427L182.967 104.674L184.61 108.11L188.089 110.942L190.294 111.655L192.822 111.892L196.41 111.547L200.3 110.509L204.644 108.694L209.312 106.165L213.332 103.486L216.811 100.914L220.355 98.061L223.943 94.9273C225.737 93.22 226.169 93.1336 226.558 93.2848L227.401 95.6405L228.741 97.9097L231.248 100.633C233.279 102.038 233.43 102.232 233.517 102.448L230.902 105.69L228.027 109.213L226.126 112.735L225.348 115.869L225.78 119.067L228.33 121.596L232.393 121.747L236.089 120.213L239.611 116.993L241.816 112.649L242.291 110.099L242.356 107.376L241.945 105.042L239.676 101.324L247.305 95.3596L252.924 93.0687L258.197 91.4911L263.276 90.5402L267.879 90.2376L264.357 88.8977L260.531 89.438L256.641 90.3457L252.686 91.6424L248.839 93.22L245.252 94.9705L241.902 96.894L238.747 99.0335L235.959 97.7584L233.193 95.4028C231.809 93.1336 231.766 93.0255 231.745 92.8958V89.2003C232.696 86.9959 232.717 86.931 232.76 86.8878L234.986 84.1647L237.861 82.8464L240.152 84.705V87.2336L239.503 89.4164L241.902 86.4772L241.794 84.2512L240.519 81.6362L237.277 80.6853L235.051 81.0311L232.804 82.0684L228.957 85.764L227.552 89.157L220.636 95.7053L217.243 98.5581L213.915 101.151L211.538 102.837L209.117 104.35L204.536 106.987L200.516 108.716L197.123 109.645L193.968 109.861L190.877 108.91L188.673 106.425L187.571 103.14L187.354 99.228L187.527 97.0237L190.596 95.5541L193.168 94.2574L195.502 92.3339L197.209 89.7405L197.966 87.4929L198.225 84.6186L197.533 82.1333L194.594 80.6637L192.282 81.0527L189.04 83.0842L186.944 85.5695L185.517 88.1197L174.128 89.3083L168.963 90.0647L164.338 91.1453L162.674 85.9585L161.701 83.2787L158.676 80.8582L156.169 80.7933L153.986 81.593L151.587 83.3867L149.08 86.1746L147.178 88.8329L145.925 91.0156L144.542 94.1493L143.915 97.4343C142.1 98.2555 141.711 97.7152 141.776 97.1317L142.143 94.8193L142.51 92.442L143.418 87.5146L144.477 82.3062L145.709 76.7952L147.006 71.4355L148.302 66.6377L149.599 62.4019L150.831 58.944L150.42 56.0913L148.734 55.3997L148.799 55.4861ZM109.185 69.0366L107.997 69.3176L105.792 71.7165L105.922 74.3099L109.466 76.6439L112.427 75.2392L113.227 72.0839L111.411 69.5769L109.185 69.015V69.0366ZM68.7283 70.6143C69.0525 70.571 69.3766 70.6575 69.6144 70.8736L70.6085 74.3747L70.5004 77.0329L70.1763 79.9721L67.6261 77.9406L67.2803 75.5417L67.1939 73.3589L67.9719 71.1329L68.7283 70.6143ZM195.545 82.9545C195.956 83.0409 196.28 83.3435 196.388 83.7541L196.583 86.3475L196.107 88.6167L194.638 91.0805L190.985 93.9332C189.256 94.6464 188.802 94.5599 188.5 94.2574L189.408 89.7622L191.18 86.4124L193.017 84.0783C195.135 82.9329 195.351 82.9113 195.545 82.9545ZM155.758 85.2021L155.11 85.6127L151.112 89.9134L149.123 93.2632L147.676 96.0295L146.206 99.1632L148.237 96.9588L151.933 93.998L154.094 92.7229L156.212 88.9841V86.7581L155.801 85.2021H155.758ZM194.443 85.7208L193.773 86.4556L191.417 90.5618L194.076 87.7955L194.443 85.7208ZM156.342 95.3596C156.558 95.3596 156.774 95.446 156.968 95.5757L156.32 99.6387L155.002 102.859L153.619 105.668L152.106 107.851L149.793 109.753C147.459 109.494 147.265 109.234 147.178 108.932L147.092 105.712L148.389 102.643L150.269 99.9412L152.711 97.5639L155.693 95.5325L156.342 95.3596ZM154.181 99.1632H154.137L150.334 103.594L149.21 106.165L151.717 104.631L153.057 101.908L154.181 99.1632ZM234.857 104.134C235.203 104.134 235.527 104.328 235.721 104.609L237.234 107.484L237.58 111.006L237.212 113.557C236.499 115.761 236.456 115.826 236.434 115.891L234.403 118.549L232.199 119.694C230.189 120.018 230.059 120.018 229.951 119.997C227.855 118.938 227.747 118.787 227.682 118.614L227.206 115.113C227.855 112.973 227.876 112.908 227.919 112.865L230.362 108.824L233.279 105.539L234.9 104.155L234.857 104.134ZM234.727 107.051L233.646 108.218L230.686 112.044L229.324 115.307L229.562 117.555L232.22 117.317L234.489 114.875L235.419 110.898L235.203 108.197L234.749 107.051H234.727Z" fill="#F7921E"/>
</g>
<path d="M52.2168 250.142C32.6775 254.005 13.6082 241.731 9.70036 222.389C5.81724 203.366 18.5549 184.465 38.0941 180.577C57.3366 176.763 76.4554 189.355 80.3138 208.379C84.2216 227.695 71.4345 246.303 52.1921 250.117L52.2168 250.142ZM36.5359 172.851C12.4952 177.619 -2.88886 200.456 1.85992 223.93C6.63344 247.403 29.7838 262.906 53.8245 258.137C77.5684 253.418 92.903 230.287 88.1295 206.814C83.3807 183.365 60.2798 168.156 36.5359 172.851Z" stroke="#BFBFBF" stroke-linejoin="round"/>
<path d="M67.403 208.525C65.8943 208.819 64.9297 210.261 65.177 211.435C66.8094 219.455 58.9195 231.51 48.7047 233.539C38.4651 235.569 26.8652 230.752 24.565 219.48C24.3177 218.281 22.8832 217.352 21.3744 217.646C19.8657 217.939 18.9011 219.382 19.1485 220.555C22.0917 235.104 37.0801 241.095 49.7187 238.601C60.8487 236.4 73.1164 222.829 70.5936 210.359C70.3463 209.161 68.9117 208.232 67.403 208.525Z" stroke="#BFBFBF" stroke-linejoin="round"/>
<path d="M26.1727 205.713C25.3318 201.532 26.3211 197.84 28.374 197.424C30.4515 197.009 32.8012 200.065 33.6421 204.222C34.4831 208.379 33.4937 212.095 31.4409 212.511C29.3633 212.927 27.0136 209.87 26.1727 205.713Z" stroke="#BFBFBF" stroke-linejoin="round"/>
<path d="M49.0015 200.187C48.1605 196.006 49.1499 192.314 51.2027 191.898C53.2803 191.483 55.63 194.539 56.4709 198.696C57.3118 202.853 56.3225 206.569 54.2697 206.985C52.1921 207.401 49.8424 204.344 49.0015 200.187Z" stroke="#BFBFBF" stroke-linejoin="round"/>
<defs>
<clipPath id="clip0_2_733">
<rect width="280" height="195.801" fill="white" transform="translate(19 0.549438)"/>
</clipPath>
</defs>
</svg>
