<svg width="282" height="238" viewBox="0 0 282 238" fill="none" xmlns="http://www.w3.org/2000/svg">
<path fill-rule="evenodd" clip-rule="evenodd" d="M32.7176 5.49987L37.6481 4.86156L42.6005 4.97161L46.9586 5.87406L50.7665 7.70096L53.782 10.4743L55.9391 14.2382L56.6654 16.4833L57.1497 18.9485L57.3918 21.6558V24.6273L57.1497 27.8409L56.6434 31.3186L55.0806 37.8778L60.2752 35.1045L63.4007 32.3091L65.8439 29.1395L67.5828 25.7278L68.6173 22.2281L68.9475 18.7504L68.5293 15.4488L67.3847 12.5213L66.9225 9.99008C67.4948 7.85503 67.6048 7.65694 67.7809 7.52487L71.3687 5.83003L73.7238 5.67596L76.167 5.94009L78.6323 6.64444C81.0755 7.89905 81.1415 7.94308 81.2075 7.9871L84.9934 11.9711L86.314 14.9425L86.9964 18.5303V22.008L86.6442 25.1776L85.9399 28.127L84.9053 30.8564L83.5847 33.3656L80.173 37.7458L78.17 39.6387L73.7458 42.8083L68.9035 45.3395L63.907 47.2765L60.8695 48.1569L63.6649 51.3925L65.6459 54.1879L67.6268 56.9172L69.6298 59.2504L72.9755 61.6716L75.5067 62.2658L77.9939 61.8476L80.107 60.9892L82.7703 61.2093L84.4651 63.6085L84.8393 66.9101L84.201 70.696L82.5062 74.5479L79.6007 77.9596C77.5977 79.3683 77.5537 79.4123 77.4877 79.4343L75.3747 80.4028L72.7554 81.0631L69.8059 81.2832L66.0861 80.5128L62.6964 78.6199L59.6369 75.8465L56.9296 72.4128L54.5084 68.4509L52.3953 64.1808L50.5904 59.7566L48.6975 65.0832L48.3013 67.7906L47.9051 71.5764L48.1032 74.1517L47.9491 76.6169L45.594 79.3463L43.1728 80.2927L39.9152 80.7329L36.3494 80.2267L33.51 78.4438L31.6171 75.5164L30.6266 71.7305L30.4285 67.2183L30.9347 62.0677L32.0793 56.2789L33.8402 49.9838L35.4029 44.9873L36.7896 40.5191L38.0222 36.5132L39.1008 32.9474L40.0252 29.7998L40.7956 27.0265L41.4119 24.6273L42.2043 20.8634L42.4024 18.3322L41.1478 16.2852L37.8682 17.7819L34.9407 20.2251L31.2429 24.6713L29.7021 27.2906L28.6016 29.8439L27.8532 32.2431L27.303 36.3151L27.6111 38.9123L27.1709 41.4876L25.1019 43.5566L22.0864 44.8993L18.4766 45.7137L14.7128 45.9998L11.7633 45.5156C9.29808 44.1949 9.21004 44.1509 9.122 44.0629C7.27308 42.236 7.22906 42.1699 7.16303 42.0819L5.84238 39.7928L4.93993 36.7993L4.69781 33.4096L5.20406 29.6678L6.52472 25.7278L8.7258 21.6118L10.7728 18.7504L13.0619 16.0871L15.6152 13.6219L18.4546 11.3988L21.5581 9.43981L24.9698 7.76699L28.6676 6.42433L32.6736 5.43384L32.7176 5.49987ZM33.2459 7.63492L29.46 8.55938L25.9823 9.814L22.7907 11.3768L19.8633 13.2257L17.2 15.3167L14.7788 17.6278L12.5997 20.1371L10.6628 22.8224L8.61575 26.6303L7.40515 30.196L6.92091 33.4757L7.097 36.4031L7.82336 38.8903L10.5527 42.4781L13.4581 43.7547L16.1875 43.8208L21.316 42.8963L23.8473 41.7958L25.432 39.3085L25.1019 36.205L25.7622 31.6488L26.5986 29.0075L27.8312 26.2341L29.504 23.3947L31.6831 20.5553L35.1828 17.1216L38.1543 15.0966L40.2673 14.2382L43.3709 15.0966C44.4714 17.0556 44.4934 17.1656 44.5154 17.2977L44.5815 19.7629L44.0532 23.1306L42.9307 27.6648L42.1603 30.4602L41.2358 33.6297L40.1573 37.1955L38.9247 41.2015L37.538 45.6697L35.9972 50.6001L34.2804 56.7411L33.1578 62.3099L32.6736 67.2403L32.8277 71.3343L33.6641 74.5919L35.0728 76.815L38.3524 78.4438L41.3459 78.3998L43.613 77.8715L45.8801 75.9786C45.7701 73.8436 45.748 73.7555 45.726 73.6675V71.3783L46.1663 67.4824L46.5624 64.7311L47.1347 61.4074L47.9051 57.4895L48.7415 53.7256L51.2508 54.6941L52.6595 58.9422L54.3983 63.2123L56.4233 67.3063L58.7124 71.0482L61.2657 74.2838L63.973 76.771L66.8785 78.4218L69.8499 79.0601L72.4032 78.884L74.6263 78.3338L78.17 76.3088L80.6352 73.4253L82.11 70.1677L82.6823 66.9542L82.4181 64.3349L79.7768 63.4984L77.3996 64.3129L73.8119 64.2248L70.7304 62.9482L68.1771 60.8792L65.866 58.1938L63.885 55.4425L61.9921 52.7572L60.0551 50.336C57.6779 48.1789 57.5679 47.7607 57.6559 47.3865L63.1586 45.2074L67.935 43.3585L72.5793 40.9373L76.7173 37.9879L80.239 34.3781L82.9024 30.042L83.8488 27.5768L84.5091 24.8914L84.8613 21.986V18.7944L84.289 15.6689L83.2105 13.1596L79.9529 9.72595L75.8809 8.07514L71.8969 7.94308L69.4978 8.9996V11.6629L70.7744 15.0306L71.2146 18.6624L70.8624 22.5143L69.7179 26.4322L67.8029 30.196L65.1396 33.6958L61.7279 36.7773L57.5899 39.2865L53.9581 40.5852L54.5084 30.9664L54.9926 27.6428L55.2347 24.6053V21.8319L55.0366 19.3447L54.6184 17.1216L53.1437 13.3577L50.9646 10.6064L48.1692 8.69145L42.4464 7.12867L37.8462 7.01862L33.2239 7.61291L33.2459 7.63492ZM181.467 7.45884C181.467 7.45884 181.577 7.45884 181.643 7.45884L184.725 7.32677L187.872 7.81101L190.689 8.97759L193.903 8.27324L196.302 6.64444L199.362 5.43384L203.06 4.66346L205.481 4.55341C207.792 4.83955 207.858 4.86156 207.924 4.88357L211.644 6.49036L214.725 9.28574L216.992 12.8515L218.599 16.9895L219.59 21.3697L220.03 25.7499L219.986 29.8659L219.48 33.7398L218.621 37.7017L217.323 41.6417L215.562 45.4275L213.273 48.9273L210.389 51.9648L206.823 54.43L202.619 56.1028L198.393 56.9832L195.598 57.1593L192.648 56.9392L189.721 56.1468L187.058 54.5621L186.353 59.0082L186.706 63.3664L187.08 66.9101L187.454 69.6615L187.894 72.3028L188.709 74.9881L188.268 77.9376L185.979 80.1387L183.404 81.1071L180.19 81.5473L175.986 80.5128C173.565 78.6199 173.477 78.5539 173.433 78.4658L171.76 76.1107L170.329 72.8971L169.295 69.1112L168.613 64.7971L168.238 60.0207L168.304 55.6846L165.069 59.1183L161.305 61.9357L159.126 63.1463L156.793 64.1368L154.284 64.9071L151.576 65.4354L148.913 65.6995H146.162L143.366 65.3254L140.593 64.621L137.929 63.4764L135.442 61.8697L133.219 59.7346L131.348 57.0273L128.861 59.4485L125.075 64.0267L122.764 66.0737L120.167 67.9006L117.261 69.4414L114.026 70.63L110.482 71.4003L106.19 71.6865L103.923 71.5544L99.4765 70.5859L95.2725 68.5389L91.6627 65.1933L90.188 62.9922L88.9994 60.4169L88.1409 57.4455L87.6347 54.0778L87.5246 50.2919L87.8328 46.0659L88.5812 41.3776L89.5276 38.0979L91.5306 33.1235L93.5776 29.3816L96.2629 25.6618L99.7186 22.2941L103.945 19.6749L106.366 18.7504L109.007 18.1561L111.715 17.914L114.312 18.024L116.777 18.5743C119.154 19.6749 119.242 19.7189 119.308 19.7629L122.808 23.5047L124.085 26.4102L124.899 29.9759L125.141 33.4757L124.789 36.6452L123.843 39.4626C122.28 41.9718 122.236 42.0379 122.17 42.1039C120.233 43.9968 120.167 44.0409 120.101 44.0849L117.768 45.5376L114.818 46.6822L111.494 47.4085L108.017 47.6727L105.728 47.4085L106.476 50.5561L108.611 52.7792L112.287 53.8357L114.752 53.7036L116.997 53.0653L120.893 50.2039L124.151 45.4055L125.515 42.4561L126.726 39.1985L127.804 35.7208L129.874 34.5322L130.6 32.111L132.603 27.1365L134.65 23.3727L137.335 19.6528L140.791 16.2852L145.017 13.6659L147.46 12.7635L150.101 12.1692L152.809 11.927L155.406 12.0371L157.871 12.5874C160.248 13.6879 160.337 13.7319 160.403 13.798L163.902 17.5398L165.179 20.4452L165.993 24.011L166.235 27.5107L165.883 30.6803L164.937 33.4977C163.374 36.0069 163.33 36.0729 163.264 36.139C161.327 38.0099 161.261 38.0759 161.195 38.1199L158.862 39.5727L155.912 40.7172L152.589 41.4436L149.111 41.7077L146.822 41.4436L147.548 44.5911L149.683 46.8142L153.359 47.8708L155.824 47.7387L158.069 47.1004L161.965 44.239L165.223 39.4406L166.588 36.4911L167.798 33.2335L168.855 29.7558C170.814 28.8314 170.902 28.8314 171.012 28.8534L171.848 24.5833L173.323 18.0461L174.996 11.4868L177.109 8.84552C179.09 8.00911 179.156 7.9871 179.222 7.9871L181.357 7.54688L181.467 7.45884ZM181.819 9.63791L179.86 10.0341L177.637 11.2447L175.568 18.4422L174.115 24.8914L173.169 30.2621L170.858 30.9664L169.955 33.9379L168.679 37.3496L167.204 40.4971L165.509 43.3145C163.66 45.6697 163.616 45.7137 163.572 45.7577L161.547 47.5846L159.104 49.0153L156.353 49.8297L153.403 50.0058L150.872 49.6096C148.649 48.6631 148.561 48.6191 148.473 48.5531L145.743 45.6917C144.929 43.6887 144.907 43.6006 144.885 43.5126L144.819 39.6387L147.328 39.2205L150.454 39.3746L155.23 38.5382L157.805 37.5477L159.94 36.227L162.912 32.5952L163.726 30.2401L164.056 27.4887L163.858 24.3412L163.154 21.1496L162.097 18.6624L159.148 15.4928L155.23 14.1501L150.586 14.2382L148.231 14.7444L146.074 15.5368L142.266 17.848L139.14 20.8634L136.609 24.3412L134.65 27.9069L133.241 31.2306L132.317 33.9379C131.722 36.4471 131.546 36.7113 131.304 36.8653L128.795 39.8588L127.518 43.2705L126.044 46.418L124.349 49.2354C122.5 51.5906 122.456 51.6346 122.412 51.6786L120.387 53.5055L117.944 54.9362L115.192 55.7506L112.243 55.9267L109.712 55.5305C107.466 54.6061 107.4 54.54 107.312 54.474L104.561 51.6126C103.747 49.6096 103.725 49.5216 103.703 49.4555L103.637 45.5816L106.146 45.1634L109.271 45.3395L114.048 44.5031L116.623 43.5126L118.758 42.1919L121.729 38.5602L122.544 36.205L122.874 33.4536L122.676 30.3061L121.972 27.1145L120.915 24.6273L117.966 21.4577L114.048 20.1151L109.403 20.2031L107.048 20.7094L104.891 21.5018L101.083 23.8129L97.9578 26.8284L95.4265 30.3061L93.4676 33.8719L92.0589 37.1955L91.1344 39.9028L89.9458 46.1099L89.6597 50.1159L89.7477 53.6596L90.188 56.7411L90.9803 59.4925L92.0148 61.7816L94.7442 65.3033L98.0898 67.6145L101.964 68.9571L105.992 69.4414L110.042 69.1993L113.233 68.5389L116.183 67.4824L118.846 66.0957L121.245 64.4449L123.38 62.552L126.924 58.2819L129.984 52.6471L133.153 55.9047L134.738 58.2379L138.81 61.5175L143.564 63.1683L146.118 63.4984L148.649 63.5425L151.092 63.3224L153.579 62.8381L155.89 62.1338L158.025 61.2533L163.506 57.5775L166.412 54.54L168.503 51.4805L170.395 59.9107L170.748 64.511L171.386 68.583L172.354 72.1487L173.609 75.0101L175.128 77.1672L178.98 79.3242H181.335L183.91 78.73L186.265 77.0571L186.353 74.702L185.605 72.0387L185.099 68.715L184.703 65.5014L184.152 59.1623L183.866 53.9457L183.69 47.9588L186.243 49.4335L187.52 51.9207L190.469 54.0998L192.913 54.7822L195.444 54.9803L197.997 54.8262L200.242 54.452L203.852 53.3955L207.308 51.5906L211.468 47.6506L213.581 44.4371L215.21 40.9814L216.442 37.2615L217.279 33.4977L217.763 29.8879L217.807 26.014L217.411 21.898L216.486 17.7599L215.055 13.9961L213.03 10.7825L210.499 8.44933L207.33 7.08465L203.39 6.93058L200.044 7.61291L197.403 8.64742L194.123 11.4208C193.111 14.0401 192.67 14.3262 192.186 14.3042L190.91 12.1912L187.41 10.0781L184.681 9.63791L181.797 9.76998L181.819 9.63791ZM200.748 14.4363C200.903 14.4143 201.057 14.4363 201.211 14.4583L203.742 15.823L205.195 19.1466L205.393 23.4607L205.129 25.7719L204.644 28.149L203.962 30.5482L201.981 35.1485L199.296 38.9343L195.774 41.6197C193.595 42.346 193.507 42.368 193.397 42.368C191.152 42.0819 191.042 42.0379 190.976 41.9939L188.642 39.6607L187.96 37.4596L188.268 34.18L188.686 31.4286L189.347 28.2811L190.337 24.9354L191.636 21.8099L193.441 18.8605L195.862 16.3732L198.922 14.7444L200.726 14.4363H200.748ZM114.29 27.0705C114.422 27.0265 114.554 27.0045 114.686 27.0045L117.503 28.8094C118.098 30.9664 118.098 31.0765 118.098 31.1645L117.261 35.4346L113.607 39.3305L110.46 40.3651H107.246C104.759 39.3746 104.759 38.9784 104.913 38.6482L106.916 34.6863L109.227 31.0985L111.627 28.4572L114.29 27.0485V27.0705ZM155.406 21.1276C155.538 21.0836 155.67 21.0615 155.802 21.0615L158.62 22.8664C159.214 25.0235 159.214 25.1115 159.214 25.2216L158.378 29.4917L154.724 33.3876L151.576 34.4221H148.363C145.875 33.4316 145.875 33.0354 146.029 32.7053L148.032 28.7433L150.344 25.1556L152.743 22.5143L155.406 21.0836V21.1276ZM200.859 16.6594L199.67 16.8355L197.271 18.0901L195.29 20.0931L193.661 22.7564L192.384 25.8159L191.482 28.9194L190.866 31.9129L190.469 34.5322L190.183 37.2615L191.482 39.7267H194.761L197.667 37.5257L200.132 34.0259L201.937 29.7998L202.994 25.3757L203.258 21.3037L202.707 18.3322L200.881 16.6594H200.859ZM114.818 29.2276L114.048 29.4917L112.001 31.2085L109.844 34.114L107.599 38.208H110.042L112.397 37.5036L115.214 34.6202L115.897 31.2085L114.818 29.2276ZM155.934 23.2846L155.164 23.5488L153.117 25.2656L150.96 28.171L148.715 32.2651H151.158L153.491 31.5607L156.309 28.6773L156.991 25.2656L155.912 23.2846H155.934Z" fill="#F7921E"/>
<path fill-rule="evenodd" clip-rule="evenodd" d="M29.2619 3.78302C30.8027 3.49688 32.4095 3.27677 34.0823 3.16671C47.597 2.50639 55.1907 9.50584 51.8671 28.3691L49.8641 36.7993L53.2978 35.5887C64.7654 30.086 69.0355 17.2757 64.7214 9.28573C63.6429 5.94008 64.9195 4.5534 67.979 4.11318C73.3497 3.3428 81.4937 6.16019 82.2201 15.955C83.2766 34.092 67.5608 41.7517 54.9926 44.8773C61.0016 49.1694 64.2812 61.8036 73.3937 60.483C73.7679 60.4169 75.1766 59.9327 76.8274 59.2063C82.5062 57.2033 81.6698 77.6734 66.0421 77.3873C56.8856 77.0571 49.8641 63.5865 46.4524 52.2289L46.0562 51.1504L45.2198 54.9142C42.8867 66.1177 42.9747 70.74 43.0627 70.74C43.0627 70.74 45.638 76.3308 36.1073 76.837C26.4666 77.1232 25.7402 64.7311 31.1769 47.5186C39.8932 19.7409 41.7641 13.82 37.8462 12.4993C37.2739 12.1031 33.51 13.0276 28.7337 18.5083C22.4386 25.7719 21.9323 33.6958 22.8128 36.4031C23.319 39.1985 19.4891 41.1794 14.5147 41.9058C11.7413 42.302 9.87039 42.28 8.32963 41.7297C2.23262 39.4846 -0.870908 30.2401 5.99648 19.4547C10.9929 11.883 18.4766 5.80802 29.2619 3.78302ZM177.967 5.76399C182.061 5.1697 186.507 6.27024 188.224 8.75747L188.576 10.2762L189.479 7.92106C191.086 5.43383 194.431 3.60693 199.56 2.92459C212.15 1.40585 215.87 16.9015 215.166 26.9825C214.307 36.6892 210.059 49.1474 198.547 52.1849C194.894 53.3074 182.59 55.5745 181.071 45.0313C181.379 62.0677 183.294 70.5419 183.294 70.5419C183.294 70.5419 186.86 76.1987 177.835 77.4974C169.889 78.6419 166.169 70.1897 165.619 57.0933L165.751 49.2134L163.594 52.3389C159.94 56.7851 154.79 60.483 147.636 61.5175C141.055 62.4639 132.625 61.0552 128.487 53.5495L127.298 50.2699L125.647 53.6596C122.016 59.9767 116.051 66.0737 106.52 67.4604C95.9768 68.9792 80.7453 64.4449 85.9179 38.6262C86.7103 35.2805 91.5967 18.3322 105.486 16.3292C112.485 15.3167 118.648 17.3637 120.101 27.3346C121.465 36.7333 116.469 42.1479 107.555 43.4246C102.184 44.1949 101.083 42.8963 101.083 42.8963C100.071 47.7827 103.461 53.0213 111.23 51.8987C118.23 50.8862 122.456 42.8303 125.163 33.1455C125.163 33.1015 125.537 33.0134 126.066 32.9914L126.968 33.1675L127.056 32.6613C127.849 29.3156 132.735 12.3672 146.624 10.3643C153.623 9.35176 159.786 11.3988 161.217 21.3697C162.582 30.7683 157.585 36.183 148.671 37.4596C143.3 38.23 142.2 36.9314 142.2 36.9314C141.187 41.8178 144.577 47.0563 152.347 45.9338C159.346 44.9213 163.572 36.8653 166.279 27.1805C166.279 27.1365 166.654 27.0485 167.182 27.0265L168.371 27.2466L169.317 21.8759C170.219 17.5618 171.276 13.2037 172.465 8.86752C172.905 7.12867 174.82 6.1822 177.989 5.71997L177.967 5.76399ZM197.205 12.7414C196.742 12.7194 196.214 12.7855 195.642 12.9836C187.498 15.5368 185.847 29.1835 185.407 33.6517C184.835 35.8528 187.146 39.0884 189.633 38.5161C199.824 36.6672 204.204 13.1376 197.183 12.7414H197.205ZM110.922 25.3316C108.039 25.7498 104.517 31.1425 102.14 36.4031C104.121 36.5792 105.882 36.6232 106.476 36.5352C114.818 35.3246 114.466 24.8034 110.922 25.3316ZM152.038 19.3887C149.155 19.8069 145.633 25.1996 143.256 30.4602C145.237 30.6363 146.998 30.6803 147.592 30.5922C155.934 29.3816 155.582 18.8604 152.038 19.3887Z" fill="#3B7C93"/>
<path d="M177.707 4.79834C177.745 4.78817 177.784 4.78013 177.824 4.77437C179.999 4.45852 182.275 4.59044 184.255 5.14181C185.931 5.60828 187.48 6.40083 188.546 7.56194C188.57 7.49772 188.602 7.43622 188.639 7.37842C190.471 4.54258 194.157 2.61193 199.432 1.93278L199.44 1.93176C202.812 1.52504 205.645 2.25756 207.961 3.79162C210.259 5.3139 211.986 7.58357 213.247 10.1646C215.76 15.3092 216.524 21.8905 216.163 27.0522L216.162 27.0683C215.736 32.015 214.433 37.7037 211.734 42.5697C209.03 47.445 204.895 51.5378 198.822 53.1467C196.916 53.7295 192.772 54.6136 188.847 53.9696C186.864 53.6442 184.874 52.9186 183.268 51.5058C182.896 51.179 182.549 50.819 182.23 50.424C182.471 56.2484 182.893 60.7902 183.291 64.0544C183.547 66.1615 183.794 67.7364 183.975 68.7804C184.066 69.3024 184.14 69.6917 184.192 69.9485C184.211 70.0432 184.226 70.1199 184.239 70.1785C184.263 70.2227 184.291 70.275 184.321 70.3346C184.417 70.5233 184.54 70.7903 184.654 71.1149C184.878 71.753 185.089 72.6741 184.938 73.6811C184.781 74.7215 184.247 75.7843 183.102 76.6578C181.984 77.5106 180.331 78.1485 177.978 78.4872M177.707 4.79834L184.269 70.3218C184.269 70.3217 184.269 70.3215 183.294 70.5419C183.294 70.5419 186.86 76.1987 177.835 77.4974C169.889 78.6419 166.169 70.1897 165.619 57.0933L165.721 51.0178L164.696 52.503M177.707 4.79834C176.137 5.03848 174.787 5.41369 173.741 5.99228C172.64 6.60137 171.827 7.46792 171.52 8.65611C170.349 13.0066 169.289 17.3818 168.382 21.7152C168.38 21.7256 168.378 21.736 168.376 21.7464L167.605 26.1236M177.707 4.79834L167.605 26.1236M177.978 78.4872L177.843 77.5483L177.978 78.4871C177.978 78.4871 177.978 78.4872 177.978 78.4872ZM177.978 78.4872C175.797 78.8013 173.847 78.4609 172.158 77.5037C170.482 76.5533 169.138 75.0374 168.078 73.1191C165.974 69.3085 164.897 63.7354 164.62 57.1353C164.619 57.1157 164.619 57.0961 164.619 57.0765L164.696 52.503M164.696 52.503L164.417 52.9069C164.401 52.9299 164.385 52.9523 164.367 52.9739C160.587 57.5728 155.226 61.4302 147.779 62.5072L147.779 62.5073C141.021 63.4791 132.045 62.074 127.611 54.0323C127.586 53.9867 127.564 53.9392 127.547 53.8903L127.163 52.8316L126.547 54.0974C126.541 54.1091 126.535 54.1206 126.529 54.132C126.524 54.1408 126.519 54.1494 126.514 54.158C122.788 60.6393 116.598 67.0046 106.664 68.45L106.663 68.4502C101.234 69.2321 94.4323 68.4855 89.6441 64.0267C84.809 59.5243 82.3156 51.5161 84.9374 38.4298C84.9397 38.4184 84.9421 38.407 84.9448 38.3957C85.3539 36.6684 86.8053 31.479 89.9418 26.4454C93.0757 21.416 97.9858 16.4004 105.343 15.3394C108.953 14.8173 112.522 15.055 115.405 16.8663C118.324 18.6997 120.336 22.013 121.09 27.1905L121.09 27.1909C121.802 32.0932 120.87 36.1002 118.457 39.0575C116.057 41.9999 112.313 43.7532 107.697 44.4144C104.932 44.811 103.178 44.6887 102.07 44.4214C102.016 44.4083 101.963 44.3947 101.911 44.3809C101.862 46.1017 102.434 47.7481 103.588 48.9619C105.01 50.4573 107.449 51.4347 111.087 50.909C114.209 50.4574 116.799 48.4307 118.978 45.2134C121.156 41.9981 122.851 37.6929 124.191 32.9086C124.247 32.6768 124.373 32.5221 124.438 32.4531C124.532 32.3524 124.626 32.2929 124.674 32.2651C124.773 32.2067 124.865 32.1737 124.914 32.1576C125.023 32.1211 125.141 32.0957 125.246 32.0775C125.467 32.0395 125.75 32.0134 126.066 32.0134C126.114 32.0134 126.163 32.017 126.211 32.024C126.733 29.974 128.193 25.1712 131.102 20.5024C134.236 15.4731 139.146 10.4577 146.503 9.39657C150.113 8.87432 153.682 9.11195 156.565 10.9234C159.484 12.7567 161.496 16.0701 162.251 21.2475L162.251 21.248C162.962 26.1502 162.03 30.1573 159.617 33.1145C157.217 36.057 153.473 37.8103 148.857 38.4715C146.092 38.8681 144.339 38.7458 143.231 38.4785C143.176 38.4653 143.123 38.4518 143.072 38.438C143.022 40.1587 143.595 41.8052 144.749 43.019C146.17 44.5143 148.609 45.4917 152.247 44.9661C155.369 44.5146 157.959 42.4879 160.139 39.2705C162.317 36.0552 164.012 31.7498 165.351 26.9654C165.407 26.7337 165.533 26.5792 165.598 26.5101C165.692 26.4095 165.787 26.3499 165.834 26.3221C165.933 26.2638 166.026 26.2308 166.074 26.2147C166.184 26.1782 166.301 26.1528 166.407 26.1346C166.627 26.0965 166.91 26.0705 167.226 26.0705C167.287 26.0705 167.348 26.0761 167.408 26.0872L167.605 26.1236M164.696 52.503L164.726 50.6987L163.594 52.3389C159.94 56.7851 154.79 60.483 147.636 61.5175C141.055 62.4639 132.625 61.0552 128.487 53.5495L127.773 51.5794L167.605 26.1236M29.0794 2.79983L29.0774 2.80019C17.987 4.88248 10.2827 11.1197 5.18129 18.9299L5.18123 18.9299L5.17499 18.9397C1.63753 24.4953 0.607545 29.752 1.33799 33.9868C2.06808 38.2195 4.56952 41.4247 8.00611 42.6901L8.0061 42.6902L8.01532 42.6935C9.79215 43.3281 11.863 43.3199 14.6781 42.9178L14.6812 42.9173C17.239 42.5438 19.5892 41.8382 21.2661 40.8034C22.9287 39.7775 24.1802 38.2422 23.8188 36.2469C23.8105 36.2009 23.7989 36.1556 23.7843 36.1112C23.4252 35.0251 23.2967 32.5812 24.0748 29.4554C24.8431 26.3691 26.4745 22.7115 29.5109 19.2078C31.8334 16.5431 33.8765 15.0247 35.3626 14.2245C36.1086 13.8228 36.6974 13.611 37.0983 13.519C37.2808 13.4771 37.405 13.4645 37.4756 13.463C37.4991 13.4731 37.523 13.4822 37.5472 13.4904C37.9129 13.6144 38.1468 13.7695 38.3095 13.9525C38.472 14.1352 38.6204 14.4094 38.7116 14.8632C38.9045 15.8222 38.8061 17.3794 38.2733 19.9269C37.2196 24.9654 34.6086 33.2863 30.2679 47.1193L30.2232 47.2618C30.2231 47.2622 30.2229 47.2627 30.2228 47.2632C27.4914 55.922 26.26 63.4991 26.9972 68.9374C27.3668 71.6648 28.2456 73.9575 29.7848 75.5565C31.3512 77.1836 33.4942 77.9811 36.137 77.9026L36.1604 77.9016C41.0843 77.6401 43.3404 76.0303 44.0955 74.0156C44.4512 73.0664 44.4133 72.1592 44.3015 71.5162C44.2449 71.1912 44.1674 70.921 44.1025 70.7282C44.0772 70.6528 44.0535 70.5886 44.0333 70.5367C44.0285 70.4183 44.0268 70.2204 44.0342 69.9348C44.0493 69.3563 44.1009 68.4538 44.2283 67.1951C44.4828 64.6801 45.0377 60.7605 46.1974 55.1908L46.25 54.9543C47.9538 60.0154 50.3288 65.3022 53.2696 69.5687C56.6436 74.4637 60.9348 78.2576 66.0037 78.4526L66.0238 78.4532C74.3998 78.6065 78.8368 73.1419 80.3824 67.9957C81.1481 65.4462 81.2395 62.8781 80.6957 61.0103C80.4252 60.0811 79.9647 59.2169 79.2359 58.6696C78.4536 58.082 77.4897 57.9564 76.4948 58.3073C76.4711 58.3157 76.4477 58.3249 76.4247 58.335C75.6191 58.6895 74.8746 58.9839 74.2901 59.1965C73.9976 59.3029 73.7494 59.3872 73.5566 59.4476C73.4602 59.4779 73.3812 59.5011 73.3199 59.5177C73.3067 59.5212 73.2947 59.5244 73.2839 59.5271C73.2696 59.5308 73.2574 59.5338 73.247 59.5363C73.239 59.5382 73.2328 59.5395 73.2285 59.5405C69.272 60.1036 66.5 57.7075 63.8226 54.22C63.0355 53.1948 62.3144 52.1569 61.5843 51.1061C61.047 50.3328 60.5049 49.5525 59.9281 48.7651C59.0458 47.5609 58.1163 46.3923 57.1006 45.3997C62.9727 43.762 69.364 41.1102 74.3641 36.8507C79.9398 32.1009 83.7671 25.3604 83.2184 15.9409L83.2173 15.9251C82.8317 10.7247 80.4535 7.28641 77.389 5.27959C74.3646 3.29901 70.7351 2.75163 67.8371 3.16733L67.8366 3.1674C66.2365 3.39763 64.7892 3.90878 63.9759 5.0853C63.1431 6.29006 63.1965 7.85855 63.7697 9.63657C63.7886 9.69511 63.8128 9.75179 63.8421 9.80588C67.8173 17.1479 63.9522 29.3572 52.9162 34.6846L51.258 35.2586L52.84 28.6003C52.8446 28.5812 52.8485 28.562 52.8519 28.5427C54.5322 19.0065 53.5097 12.1863 50.0745 7.82758C46.6153 3.43837 40.9429 1.83031 34.0335 2.16791L34.0167 2.16887C32.2986 2.28191 30.6523 2.50771 29.0794 2.79983ZM37.5341 13.4654C37.5338 13.4657 37.5281 13.4654 37.5178 13.4636C37.5293 13.4642 37.5344 13.4651 37.5341 13.4654ZM43.9688 70.3887C43.9689 70.3891 43.9691 70.3895 43.9692 70.3898C43.9544 70.3959 43.8473 70.4447 43.0628 70.806L43.9688 70.3887ZM43.0628 69.806C43.3133 69.806 43.5035 69.8909 43.64 69.9895C43.4744 69.8724 43.2738 69.806 43.0628 69.806ZM126.688 51.5221L125.647 53.6596C122.016 59.9767 116.051 66.0737 106.52 67.4604C95.9768 68.9791 80.7453 64.4449 85.9179 38.6262C86.7103 35.2805 91.5967 18.3322 105.486 16.3292C112.485 15.3167 118.648 17.3637 120.101 27.3346C121.465 36.7333 116.469 42.1479 107.555 43.4246C104.568 43.8529 102.902 43.6416 102.012 43.3696L126.688 51.5221ZM100.929 44.0039C100.606 48.536 104.046 52.9367 111.23 51.8987C118.23 50.8862 122.456 42.8303 125.163 33.1455C125.163 33.1032 125.509 33.0201 126.006 33.0138L100.929 44.0039ZM146.646 10.3863C153.645 9.37377 159.808 11.4208 161.261 21.3917L127.118 32.5169C128.025 28.8127 132.974 12.358 146.646 10.3863ZM142.244 36.9534C142.167 37.3215 142.116 37.6917 142.09 38.0609L143.172 37.4266C142.461 37.2094 142.244 36.9534 142.244 36.9534ZM197.157 13.7403C197.208 13.7427 197.258 13.7413 197.308 13.7361C197.785 13.8066 198.174 14.0493 198.51 14.4796C198.909 14.9918 199.231 15.7784 199.424 16.8336C199.809 18.9417 199.626 21.8285 198.899 24.8264C198.175 27.8149 196.933 30.8198 195.284 33.1679C193.627 35.5284 191.641 37.1135 189.454 37.5102C189.44 37.5128 189.425 37.5158 189.411 37.5192C188.666 37.689 187.821 37.3175 187.144 36.4752C186.46 35.6248 186.192 34.5843 186.375 33.8814C186.388 33.8311 186.397 33.7799 186.402 33.7283C186.621 31.5187 187.135 27.0938 188.58 22.9243C190.045 18.7 192.35 15.0637 195.941 13.9378C195.951 13.9348 195.96 13.9317 195.969 13.9285C196.426 13.7705 196.827 13.7246 197.157 13.7403ZM111.066 26.3213L111.07 26.3207C111.328 26.2821 111.673 26.3777 111.977 27.0847C112.282 27.7922 112.402 28.8856 112.174 30.0961C111.725 32.4744 110.003 35.0128 106.332 35.5455L106.329 35.546C106.131 35.5754 105.625 35.5908 104.857 35.5686C104.496 35.5582 104.093 35.54 103.662 35.5141C104.705 33.3736 105.909 31.2999 107.142 29.6501C107.884 28.6581 108.616 27.8453 109.31 27.2652C110.014 26.6755 110.605 26.3881 111.066 26.3213ZM152.182 20.3784L152.186 20.3778C152.445 20.3392 152.789 20.4348 153.093 21.1418C153.398 21.8493 153.518 22.9426 153.29 24.1532C152.842 26.5315 151.119 29.0699 147.449 29.6026L147.446 29.603C147.247 29.6324 146.741 29.6478 145.973 29.6257C145.612 29.6152 145.209 29.5971 144.778 29.5712C145.821 27.4307 147.026 25.357 148.258 23.7072C149 22.7152 149.732 21.9024 150.426 21.3222C151.131 20.7326 151.721 20.4452 152.182 20.3784Z" stroke="white" stroke-width="2" stroke-linejoin="round"/>
<path fill-rule="evenodd" clip-rule="evenodd" d="M154.966 88.7449C154.966 88.7449 155.098 88.7449 155.186 88.7449H157.805C157.805 88.7449 157.959 88.7229 158.025 88.7449L159.28 88.987C159.28 88.987 159.39 89.009 159.434 89.031L160.557 89.4272C160.557 89.4272 160.689 89.4933 160.755 89.5153L161.701 90.0876C161.701 90.0876 161.855 90.1976 161.921 90.2636L162.626 90.99C162.626 90.99 162.78 91.1881 162.846 91.2982L163.242 92.1566C163.308 92.2886 163.33 92.4207 163.352 92.5748L163.396 93.5873C163.396 93.6973 163.396 93.8074 163.352 93.9174L163 95.1941L162.472 97.043L161.789 99.2661L161.525 100.036H162.362C162.516 100.036 162.67 100.102 162.824 100.169L163.594 100.543C163.748 100.631 163.902 100.741 164.012 100.895L164.453 101.511C164.541 101.643 164.607 101.797 164.651 101.951L164.805 102.7C164.827 102.832 164.827 102.964 164.805 103.096L164.673 103.888C164.673 103.998 164.607 104.13 164.563 104.219L164.166 104.945C164.1 105.055 164.034 105.165 163.946 105.231L163.33 105.803C163.33 105.803 163.11 105.979 162.956 106.023L162.119 106.332C162.119 106.332 161.965 106.376 161.899 106.376L161.481 106.442L160.909 106.53L160.491 106.596L159.764 110.69L159.06 115.95L158.906 117.491L158.818 118.79V119.802L158.884 120.419L158.972 120.683L159.258 120.749L160.028 120.507L160.843 119.978L161.613 119.186L162.296 118.173L163.484 115.62L164.277 113.089C164.431 112.627 164.871 112.297 165.377 112.319L166.434 112.363C166.566 112.363 166.676 112.385 166.808 112.451L167.6 112.781C167.71 112.825 167.82 112.891 167.93 112.979L168.503 113.485C168.503 113.485 168.657 113.639 168.701 113.727L169.075 114.344C169.075 114.344 169.163 114.52 169.185 114.608L169.515 115.818C169.515 115.818 169.537 115.95 169.559 116.016L169.603 116.413V116.633C169.603 116.633 169.603 116.743 169.603 116.809L169.251 119.626L168.613 122.62L167.6 125.569C167.6 125.569 167.556 125.679 167.534 125.723L166.147 128.364C166.147 128.364 166.081 128.496 166.037 128.541L164.166 130.852C164.166 130.852 164.056 130.984 163.99 131.028L161.569 132.899C161.569 132.899 161.459 132.987 161.393 133.009L159.94 133.735L158.202 134.351L156.287 134.77L154.196 134.99C154.196 134.99 154.063 134.99 153.997 134.99L151.972 134.814C151.972 134.814 151.774 134.792 151.686 134.748L150.013 134.109C150.013 134.109 149.815 134.021 149.727 133.955L148.385 132.899C148.385 132.899 148.231 132.767 148.187 132.679L147.152 131.27L147.064 131.094L146.734 131.754C146.734 131.754 146.668 131.864 146.624 131.93L144.665 134.483C144.665 134.483 144.555 134.616 144.489 134.66L141.98 136.729C141.98 136.729 141.869 136.817 141.803 136.839L140.329 137.653L138.546 138.335L136.587 138.798L134.452 139.04C134.452 139.04 134.298 139.04 134.232 139.04L132.097 138.82C131.987 138.82 131.877 138.776 131.766 138.732L130.05 137.983C130.05 137.983 129.83 137.873 129.741 137.785L128.421 136.574C128.421 136.574 128.267 136.42 128.223 136.332L127.254 134.726C127.254 134.726 127.188 134.593 127.144 134.505L126.484 132.568C126.484 132.568 126.462 132.458 126.44 132.392L126.044 130.169L125.89 127.638L125.934 124.997L126.506 119.626L127.474 114.498L128.003 112.186L128.509 110.161L128.971 108.445L129.345 107.124C129.345 107.124 129.389 106.97 129.433 106.882L129.83 106.133C129.896 106.001 130.006 105.891 130.116 105.803L130.842 105.231C130.842 105.231 131.018 105.121 131.106 105.077L132.141 104.659C132.141 104.659 132.273 104.615 132.317 104.615L133.659 104.329C133.659 104.329 133.791 104.329 133.88 104.307H135.596L134.606 103.844C134.452 103.778 134.32 103.69 134.232 103.558L133.043 102.172C132.955 102.061 132.867 101.929 132.823 101.797L132.185 99.8163C132.141 99.7063 132.119 99.5742 132.141 99.4422L132.185 97.3731C132.185 97.2191 132.229 97.087 132.273 96.9549L133.021 95.2821C133.087 95.128 133.197 94.996 133.307 94.9079L134.716 93.6973C134.716 93.6973 134.958 93.5212 135.09 93.4772L137.071 92.8389C137.181 92.7949 137.313 92.7949 137.445 92.7949L139.47 92.8389C139.624 92.8389 139.756 92.8829 139.888 92.949L141.561 93.6973C141.715 93.7634 141.825 93.8734 141.935 93.9835L143.124 95.3702C143.212 95.4802 143.3 95.6123 143.344 95.7443L143.982 97.7253C144.027 97.8354 144.049 97.9674 144.027 98.0775L143.982 100.147C143.982 100.301 143.938 100.433 143.894 100.565L143.146 102.238C143.08 102.392 142.992 102.524 142.86 102.612L141.473 103.8C141.473 103.8 141.231 103.976 141.099 104.02L139.162 104.659C139.052 104.703 138.92 104.725 138.788 104.703H138.568L139.272 104.945C139.338 104.967 139.404 105.011 139.47 105.033L140.395 105.605C140.395 105.605 140.549 105.715 140.615 105.781L141.297 106.508C141.297 106.508 141.451 106.706 141.495 106.816L141.891 107.674C141.958 107.806 141.98 107.938 141.98 108.07L142.024 109.083C142.024 109.193 142.024 109.303 141.98 109.435L141.363 111.614L140.637 114.211L139.933 116.941L139.36 119.604L139.052 121.893V123.654L139.184 124.094L139.272 124.248H139.404L140.263 123.962L141.121 123.324L141.958 122.377L142.728 121.189L144.049 118.327L144.885 115.686C144.973 115.422 145.149 115.202 145.369 115.07L145.919 114.982L146.58 111.108L147.306 108.291L146.58 108.401L146.03 108.489C146.03 108.489 145.853 108.489 145.765 108.489L144.995 108.423C144.797 108.423 144.599 108.335 144.423 108.202L143.894 107.784C143.74 107.674 143.63 107.52 143.564 107.366L143.278 106.728C143.212 106.596 143.19 106.464 143.19 106.332L143.146 105.539C143.146 105.429 143.146 105.297 143.19 105.187L143.41 104.373C143.432 104.263 143.498 104.152 143.542 104.064L144.049 103.316C144.049 103.316 144.203 103.118 144.291 103.052L145.083 102.458C145.083 102.458 145.303 102.326 145.413 102.282L146.492 101.951C146.492 101.951 146.602 101.929 146.668 101.907L147.9 101.731L148.275 101.665L148.627 100.058L149.199 97.4612L149.859 94.5998L150.608 91.4302C150.608 91.4302 150.652 91.2541 150.696 91.1881L151.07 90.4617C151.136 90.3297 151.246 90.1976 151.356 90.1096L152.06 89.5373C152.06 89.5373 152.237 89.4052 152.347 89.3612L153.381 88.943C153.381 88.943 153.513 88.899 153.579 88.877L154.922 88.5908L154.966 88.7449ZM155.318 90.924L154.174 91.1661L153.381 91.4742L152.985 91.7824L152.787 92.1786L152.082 95.2161L151.422 98.0555L150.85 100.631L150.344 102.986C150.256 103.448 149.881 103.778 149.419 103.844L148.275 104.02L147.13 104.197L146.316 104.461L145.831 104.835L145.523 105.297L145.391 105.781V106.177L145.501 106.376L145.567 106.42H145.875L146.294 106.398L147.02 106.288L148.671 106.045C149.023 106.001 149.397 106.133 149.639 106.398C149.881 106.662 149.969 107.058 149.881 107.41L148.759 111.658L147.966 116.236V116.501C147.9 116.809 147.746 117.095 147.504 117.293L146.668 117.469L146.03 119.45L144.665 122.377C144.665 122.377 144.621 122.466 144.577 122.51L143.718 123.83C143.718 123.83 143.652 123.918 143.63 123.962L142.64 125.063C142.64 125.063 142.53 125.173 142.464 125.217L141.363 126.009C141.363 126.009 141.165 126.119 141.055 126.163L139.844 126.56C139.712 126.604 139.58 126.626 139.426 126.604L138.788 126.56C138.612 126.56 138.414 126.493 138.26 126.383L137.797 126.097C137.643 126.009 137.533 125.877 137.445 125.745L137.137 125.217C137.137 125.217 137.027 125.019 137.005 124.909L136.829 124.182C136.829 124.182 136.785 124.006 136.785 123.918V121.959C136.785 121.959 136.785 121.849 136.785 121.783L137.137 119.252L137.731 116.501L138.458 113.705L139.184 111.13L139.756 109.105V108.467L139.514 107.96L139.052 107.476L138.348 107.036L137.423 106.706L136.389 106.508H133.968L132.823 106.772L132.031 107.08L131.612 107.41L131.37 107.85L131.04 109.017L130.578 110.69L130.072 112.671L129.565 114.894L128.619 119.846L128.047 125.019L127.981 127.484L128.113 129.773L128.487 131.908L129.081 133.647L129.918 135.012L130.996 136.002L132.383 136.596L134.232 136.773L135.971 136.596L137.643 136.222L139.14 135.65L140.527 134.88L142.86 132.943L144.687 130.566L146.052 127.88C146.25 127.506 146.646 127.264 147.064 127.286C147.504 127.286 147.878 127.572 148.033 127.968L148.869 129.971L149.727 131.138L150.828 131.996L152.215 132.524L153.997 132.679L155.736 132.524L157.387 132.172L158.862 131.666L160.226 130.984L162.472 129.267L164.188 127.132L165.487 124.667L166.39 122.047L167.006 119.252L167.336 116.501V116.214L167.028 115.246L166.808 114.894L166.5 114.608L166.059 114.432H166.037L165.399 116.413L164.166 119.054C164.166 119.054 164.122 119.164 164.078 119.208L163.286 120.352C163.286 120.352 163.22 120.441 163.176 120.485L162.274 121.431C162.274 121.431 162.163 121.541 162.075 121.585L161.019 122.289C161.019 122.289 160.843 122.399 160.733 122.421L159.522 122.796C159.346 122.84 159.148 122.862 158.972 122.818L157.981 122.598C157.717 122.554 157.475 122.399 157.321 122.179L157.013 121.761C157.013 121.761 156.881 121.541 156.837 121.431L156.639 120.793C156.639 120.793 156.595 120.661 156.595 120.573L156.507 119.604V118.438L156.617 117.073L156.793 115.466L157.519 110.095L158.378 105.231C158.466 104.769 158.84 104.395 159.302 104.329L160.513 104.152L161.085 104.064L161.393 104.02L161.921 103.822L162.229 103.536L162.45 103.14L162.516 102.722L162.45 102.392L162.318 102.194L162.009 102.039H161.239L160.579 102.127L160.05 102.194C159.676 102.238 159.302 102.105 159.06 101.819C158.818 101.533 158.73 101.137 158.862 100.763L159.632 98.4077L160.293 96.2286L160.821 94.4017L161.129 93.3011V92.6848L160.865 92.1786L160.403 91.6943L159.676 91.2541L158.73 90.924L157.673 90.7259H155.274L155.318 90.924ZM137.533 95.062L135.949 95.5683L134.914 96.4707L134.342 97.7253L134.298 99.3981L134.804 100.983L135.706 102.017L136.961 102.59L138.634 102.634L140.175 102.127L141.209 101.247L141.759 99.9924L141.803 98.3196L141.297 96.7348L140.417 95.7003L139.184 95.128L137.555 95.084L137.533 95.062Z" fill="#F7921E"/>
<path fill-rule="evenodd" clip-rule="evenodd" d="M152.281 87.6444C155.758 87.1381 159.742 88.5248 159.368 91.4082C159.038 92.6408 158.157 95.8764 157.057 99.09C157.233 99.068 157.849 98.9799 158.334 98.9139C161.745 98.4297 161.305 102.722 158.818 103.074C158.4 103.14 157.365 103.294 156.617 103.382C156 106.464 155.45 109.897 155.032 113.573C154.504 118.129 154.636 119.912 156.353 119.67C159.764 119.186 161.459 114.52 162.384 111.196C165.597 110.866 165.575 114.476 165.575 114.476C164.959 121.783 162.141 131.226 151.136 131.688C148.187 131.776 146.25 130.499 145.039 128.43L144.159 126.295L142.75 129.091C140.483 132.745 136.895 135.562 131.37 135.804C118.78 136.2 125.824 111.13 127.452 105.297C127.783 104.197 128.949 103.58 130.952 103.294C134.496 102.788 138.37 104.174 137.974 107.08C136.587 112.208 132.801 123.896 136.653 123.346C140.065 122.862 142.2 117.315 143.058 114.013L143.983 114.211V113.947C144.489 110.756 145.039 107.696 145.941 104.945C144.907 105.099 143.564 105.297 143.014 105.363C140.703 105.693 140.703 101.401 143.983 100.917C144.709 100.807 145.743 100.653 146.36 100.565C146.976 97.5492 147.79 94.0715 148.825 89.6253C149.111 88.5248 150.256 87.9305 152.281 87.6444ZM134.452 91.7824C137.379 91.3642 139.536 92.971 139.977 95.9644C140.417 98.9579 138.788 101.115 135.861 101.533C132.867 101.973 130.71 100.345 130.27 97.3511C129.83 94.3577 131.458 92.2006 134.452 91.7604V91.7824Z" fill="#3B7C93"/>
<path d="M136.004 102.523C135.785 102.555 135.568 102.578 135.354 102.591C135.709 102.7 136.049 102.83 136.369 102.982C137.959 103.737 139.243 105.151 138.964 107.193C138.959 107.236 138.95 107.278 138.939 107.319C138.773 107.931 138.577 108.626 138.366 109.374C137.672 111.828 136.814 114.865 136.332 117.5C136.015 119.236 135.89 120.665 136.028 121.587C136.098 122.052 136.215 122.245 136.273 122.306C136.273 122.306 136.273 122.306 136.274 122.307C136.28 122.316 136.31 122.363 136.511 122.334L136.512 122.334C137.727 122.161 138.904 121.031 139.946 119.216C140.953 117.462 141.673 115.343 142.09 113.74C142.212 113.271 142.649 112.964 143.119 112.993C143.503 110.632 143.931 108.317 144.531 106.141C143.961 106.224 143.445 106.296 143.143 106.333C142.222 106.46 141.429 106.117 140.93 105.455C140.467 104.84 140.327 104.045 140.408 103.313C140.574 101.816 141.702 100.222 143.834 99.9059C144.33 99.8308 144.969 99.7352 145.522 99.6539C146.087 96.9558 146.802 93.8815 147.68 90.1122C147.736 89.87 147.793 89.6248 147.851 89.3767C147.853 89.3683 147.855 89.36 147.857 89.3517C148.082 88.4875 148.649 87.8632 149.409 87.4339C150.138 87.0221 151.069 86.7731 152.13 86.6117C152.236 86.5955 152.343 86.5968 152.447 86.6143C154.256 86.4053 156.192 86.6488 157.698 87.3481C159.294 88.0888 160.641 89.4909 160.359 91.5443C160.353 91.5857 160.345 91.6266 160.334 91.6669C160.053 92.7153 159.363 95.1952 158.502 97.8897M136.004 102.523C136.003 102.523 136.003 102.523 136.002 102.523L135.861 101.533L136.006 102.523C136.005 102.523 136.005 102.523 136.004 102.523ZM136.004 102.523C137.683 102.283 139.08 101.526 139.984 100.311C140.888 99.0958 141.217 97.5288 140.966 95.819C140.715 94.1124 139.956 92.7055 138.749 91.7954C137.594 90.9254 136.127 90.5833 134.534 90.7638M134.534 90.7638C134.459 90.7575 134.382 90.7598 134.306 90.771C132.601 91.0219 131.187 91.7802 130.273 92.9983C129.359 94.2175 129.029 95.7863 129.28 97.4966C129.531 99.2024 130.29 100.616 131.508 101.53C131.857 101.792 132.235 102.006 132.638 102.172C132.028 102.159 131.413 102.196 130.811 102.282C128.78 102.572 127.013 103.261 126.495 104.988L126.489 105.006L126.468 105.083C125.64 108.047 123.475 115.799 123.081 122.808C122.883 126.327 123.12 129.805 124.307 132.417C124.909 133.741 125.771 134.876 126.974 135.662C128.181 136.45 129.657 136.836 131.402 136.782L131.402 136.782L131.414 136.781C137.323 136.522 141.189 133.481 143.6 129.596C143.615 129.572 143.629 129.547 143.641 129.522L144.064 128.689M134.534 90.7638C134.743 90.7811 134.944 90.8639 135.105 91.0036C135.315 91.1842 135.439 91.4429 135.451 91.7178L130.27 97.3511C129.88 94.7029 131.11 92.7093 133.471 91.9799C133.459 91.9154 133.452 91.8493 133.452 91.7824V91.7604H134.449L134.342 91.0121L134.342 91.012L134.31 90.7924C134.385 90.7817 134.46 90.7722 134.534 90.7638ZM144.064 128.689L144.115 128.812C144.132 128.854 144.153 128.896 144.176 128.935C144.855 130.096 145.76 131.071 146.944 131.739C148.129 132.408 149.536 132.736 151.166 132.688L151.166 132.688L151.178 132.687C157.019 132.442 160.766 129.784 163.091 126.192C165.379 122.659 166.258 118.279 166.572 114.56C166.574 114.534 166.575 114.508 166.575 114.482L165.575 114.476M144.064 128.689L143.562 127.471L142.75 129.069C140.483 132.723 136.895 135.54 131.37 135.782C118.822 136.177 125.776 111.276 127.436 105.335L127.452 105.275C127.783 104.174 128.949 103.558 130.952 103.272C134.496 102.766 138.37 104.152 137.974 107.058C137.814 107.65 137.622 108.329 137.413 109.067C135.815 114.721 133.246 123.811 136.653 123.324M144.064 128.689L144.661 127.514L145.039 128.43M165.575 114.476C166.575 114.482 166.575 114.481 166.575 114.481L166.575 114.48L166.575 114.478L166.575 114.472L166.575 114.457C166.575 114.445 166.575 114.43 166.574 114.411C166.573 114.375 166.572 114.325 166.568 114.263C166.561 114.141 166.547 113.973 166.518 113.774C166.461 113.382 166.344 112.84 166.093 112.294C165.841 111.746 165.435 111.154 164.782 110.73C164.117 110.298 163.281 110.099 162.281 110.201C161.872 110.243 161.53 110.532 161.42 110.928C160.963 112.57 160.336 114.465 159.439 115.991C158.53 117.537 157.467 118.502 156.212 118.68M165.575 114.476C164.959 121.783 162.141 131.226 151.136 131.688C148.187 131.776 146.25 130.499 145.039 128.43M165.575 114.476C165.575 114.476 165.597 110.866 162.384 111.196M156.212 118.68C156.079 118.699 156.011 118.692 155.982 118.685M156.212 118.68C156.212 118.68 156.213 118.68 156.213 118.68L156.353 119.67M156.212 118.68L156.353 119.67M155.982 118.685C155.961 118.656 155.89 118.545 155.834 118.24C155.684 117.428 155.758 115.997 156.025 113.688L156.026 113.686C156.409 110.316 156.904 107.152 157.459 104.281M155.982 118.685C155.98 118.684 155.978 118.684 155.976 118.683M155.982 118.685C155.987 118.691 155.989 118.693 155.989 118.693C155.989 118.693 155.988 118.693 155.987 118.692C155.983 118.688 155.979 118.685 155.976 118.683M157.459 104.281C158.052 104.201 158.664 104.111 158.966 104.063M157.459 104.281C157.505 104.045 157.551 103.811 157.597 103.578L156.617 103.382M157.459 104.281C157.206 104.316 156.957 104.348 156.737 104.375L156.617 103.382M158.966 104.063C160.805 103.798 161.795 102.115 161.788 100.675C161.784 99.9205 161.513 99.1154 160.846 98.5483C160.238 98.0316 159.427 97.8177 158.502 97.8897M158.966 104.063C158.969 104.062 158.971 104.062 158.974 104.062L158.818 103.074M158.966 104.063C158.964 104.063 158.961 104.064 158.958 104.064L158.818 103.074M158.502 97.8897C158.431 98.1121 158.359 98.336 158.285 98.5606L159.368 91.4082C159.074 92.5054 158.327 95.1899 157.405 98.0331C157.441 98.0282 157.477 98.0231 157.514 98.018C157.729 97.9879 157.972 97.954 158.196 97.9234C158.299 97.9088 158.401 97.8976 158.502 97.8897ZM156.353 119.67C159.764 119.186 161.459 114.52 162.384 111.196M156.353 119.67C154.636 119.912 154.504 118.129 155.032 113.573L162.384 111.196M162.384 111.196L145.039 128.43M158.818 103.074C158.4 103.14 157.343 103.294 156.617 103.382M158.818 103.074L156.617 103.382M155.976 118.683C155.968 118.681 155.965 118.679 155.965 118.679C155.966 118.678 155.97 118.679 155.976 118.683ZM145.039 128.43L136.653 123.324M136.653 123.324C139.997 122.849 142.115 117.51 143.006 114.189L136.653 123.324Z" stroke="white" stroke-width="2" stroke-linejoin="round"/>
<path fill-rule="evenodd" clip-rule="evenodd" d="M63.885 141.351C77.6418 139.37 111.362 139.964 110.042 173.223C108.963 193.186 92.7192 202.981 78.016 207.603C78.016 207.603 88.5812 216.804 98.0018 215.439C98.354 215.395 99.8507 214.933 101.303 214.119C108.105 211.323 107.268 236.79 88.0749 236.438C78.06 236.086 63.5548 209.694 63.5548 209.694L63.907 211.235C65.2056 211.169 63.0926 211.477 63.3347 211.433C61.1336 225.322 61.4198 230.561 61.5298 230.539C61.5298 230.539 65.1176 236.262 53.1217 237.164C41.3239 237.78 39.9152 220.568 44.8236 198.865C47.3328 187.926 51.4709 175.093 56.3793 161.645C56.9736 159.994 58.7565 159.026 62.1681 158.519C68.7494 157.573 76.8274 161.029 75.7048 166.531C71.5007 178.197 67.935 190.105 64.8094 200.01C98.1999 198.117 99.2124 147.998 66.5043 152.73C39.3209 156.648 37.7141 177.845 38.9687 183.259C39.563 186.561 35.425 188.696 29.6581 189.533C25.8943 190.083 23.231 189.973 21.0739 189.092C13.6782 186.077 10.2225 174.587 19.1589 161.755C28.0513 149.297 47.4209 143.75 63.885 141.351ZM255.159 117.909C261.983 116.919 269.73 119.846 268.96 125.393C267.771 129.641 262.885 147.404 260.442 168.666C259.319 177.581 259.716 181.014 263.127 180.53C269.84 179.562 273.098 170.559 274.837 164.066C281.066 163.296 281 170.383 281 170.383C279.943 184.712 274.463 203.157 252.87 204.236C247.081 204.39 243.273 201.881 240.918 197.809L239.091 193.406L236.406 198.667C232.026 205.733 225.136 211.169 214.505 211.697C204.71 212.028 201.035 204.126 200.572 195.101C198.966 203.135 192.781 210.157 182.083 211.697C174.137 212.842 169.009 207.868 166.676 200.362L166.61 200.098L164.056 205.314C159.61 213.062 152.281 220.546 140.571 222.241C127.628 224.112 108.941 218.543 115.28 186.869C116.249 182.775 122.258 161.953 139.294 159.51C147.878 158.277 155.45 160.786 157.211 173.024C158.884 184.558 152.743 191.205 141.803 192.79C135.222 193.737 133.857 192.13 133.857 192.13C132.603 198.139 136.785 204.566 146.316 203.179C154.9 201.947 160.072 192.064 163.418 180.178C163.418 180.112 163.88 180.002 164.519 180.002L166.434 180.376L167.93 173.773C171.76 162.943 179.574 153.589 191.306 151.894C195.884 151.234 204.336 150.727 207 156.472C206.317 155.13 206.603 153.765 206.933 152.752C207.594 150.617 209.817 149.451 213.691 148.901C220.404 147.932 227.866 150.639 227.117 156.208C224.344 166.091 217.279 188.608 224.564 187.574C231.277 186.605 235.261 175.93 237.022 169.569L238.761 169.657V169.437C240.786 157.507 242.591 146.787 248.358 121.937C248.886 119.824 251.109 118.548 255.115 117.953L255.159 117.909ZM196.236 162.283C185.869 165.365 178.099 194.991 190.117 193.252C196.346 192.35 199.604 180.838 200.925 175.732C202.003 171.616 204.71 162.085 198.349 162.063C197.645 162.019 196.941 162.107 196.258 162.305L196.236 162.283ZM145.985 170.559C142.464 171.065 138.128 177.691 135.222 184.162C137.665 184.382 139.822 184.426 140.527 184.338C150.762 182.863 150.344 169.943 145.985 170.581V170.559Z" fill="#F7921E"/>
<path fill-rule="evenodd" clip-rule="evenodd" d="M59.7029 138.203C73.4597 136.222 107.18 136.817 105.86 170.075C104.781 190.039 88.5371 199.834 73.8339 204.456C73.8339 204.456 84.3991 213.656 93.8197 212.292C94.1719 212.248 95.6686 211.786 97.1214 210.971C103.923 208.176 103.086 233.642 83.8928 233.29C73.8779 232.938 59.3728 206.547 59.3728 206.547L59.7249 208.088C61.0236 208.022 58.9105 208.33 59.1527 208.286C56.9516 222.175 57.2377 227.413 57.3478 227.391C57.3478 227.391 60.9355 233.114 48.9396 234.016C37.1418 234.633 35.7331 217.442 40.6415 195.718C43.1508 184.778 47.2888 171.946 52.1972 158.497C52.7915 156.846 54.5744 155.878 57.9861 155.372C64.5673 154.425 72.6453 157.881 71.5228 163.384C67.3187 175.049 63.7529 186.957 60.6274 196.862C94.0178 194.969 95.0303 144.851 62.3222 149.583C35.1388 153.501 33.532 174.697 34.7866 180.112C35.3809 183.414 31.2429 185.549 25.4761 186.385C21.7122 186.935 19.0489 186.825 16.8918 185.945C9.49618 182.929 6.04048 171.44 14.9769 158.607C23.8693 146.149 43.2388 140.602 59.7029 138.203ZM250.977 114.762C257.801 113.771 265.548 116.699 264.778 122.245C263.589 126.493 258.703 144.256 256.26 165.519C255.137 174.455 255.533 177.867 258.945 177.383C265.658 176.414 268.916 167.412 270.655 160.918C276.884 160.148 276.818 167.236 276.818 167.236C275.761 181.565 270.281 200.01 248.688 201.088C242.899 201.242 239.091 198.733 236.736 194.661L234.909 190.259L232.224 195.52C227.844 202.585 220.954 208.022 210.323 208.55C200.528 208.88 196.853 200.978 196.39 191.954C194.783 199.988 188.598 207.009 177.901 208.55C169.955 209.695 164.827 204.72 162.494 197.214L162.428 196.95L159.874 202.167C155.428 209.915 148.098 217.42 136.389 219.093C123.446 220.964 104.759 215.395 111.098 183.722C112.067 179.628 118.076 158.805 135.112 156.362C143.696 155.13 151.268 157.639 153.029 169.877C154.702 181.411 148.561 188.058 137.621 189.643C131.04 190.589 129.675 188.982 129.675 188.982C128.421 194.991 132.603 201.418 142.134 200.032C150.718 198.799 155.89 188.916 159.236 177.03C159.258 176.964 159.698 176.854 160.337 176.854L162.251 177.228L163.748 170.625C167.578 159.796 175.392 150.441 187.124 148.746C191.702 148.086 200.154 147.58 202.817 153.325C202.135 151.982 202.421 150.617 202.751 149.605C203.412 147.47 205.635 146.303 209.509 145.753C216.222 144.785 223.684 147.492 222.935 153.061C220.162 162.943 213.097 185.461 220.382 184.426C227.095 183.458 231.079 172.782 232.84 166.421L234.579 166.509V166.289C236.604 154.359 238.409 143.64 244.176 118.79C244.704 116.677 246.927 115.4 250.933 114.806L250.977 114.762ZM192.054 159.136C181.687 162.217 173.917 191.844 185.935 190.105C192.164 189.202 195.422 177.691 196.742 172.562C197.821 168.446 200.528 158.915 194.167 158.893C193.463 158.849 192.759 158.937 192.076 159.136H192.054ZM141.803 167.412C138.282 167.918 133.946 174.543 131.04 181.014C133.483 181.234 135.64 181.278 136.345 181.19C146.58 179.716 146.162 166.795 141.803 167.434V167.412Z" fill="#3B7C93"/>
<path d="M59.5604 137.213C59.4891 137.224 59.4205 137.241 59.3553 137.266C51.1331 138.475 42.1711 140.471 34.1253 143.728C26.0232 147.009 18.7633 151.603 14.163 158.048L14.163 158.048L14.157 158.057C9.56493 164.635 8.09548 170.964 8.81113 176.117C9.5263 181.266 12.4357 185.23 16.514 186.893C18.9166 187.873 21.792 187.956 25.6208 187.397C28.5651 186.969 31.1973 186.199 33.0469 185.043C34.9122 183.877 36.1693 182.17 35.7709 179.957C35.7679 179.94 35.7646 179.924 35.7609 179.908C35.1894 177.442 35.2424 171.045 38.7615 164.799C42.2414 158.622 49.1584 152.513 62.4649 150.595L62.4655 150.595C70.3747 149.45 76.1097 151.627 79.8376 155.43C83.5922 159.259 85.4255 164.856 85.2622 170.732C84.9455 182.125 77.1553 194.21 62.0265 195.77C62.5285 194.171 63.0413 192.526 63.5659 190.843C66.2 182.394 69.13 172.995 72.4636 163.745C72.4799 163.699 72.493 163.653 72.5026 163.606C73.1931 160.221 70.9908 157.625 68.1121 156.098C65.2135 154.56 61.3333 153.902 57.8438 154.404L57.8393 154.405C54.4022 154.915 52.0607 155.95 51.2572 158.178C46.3432 171.642 42.1895 184.518 39.6669 195.516L39.6662 195.519C37.2018 206.427 36.2934 216.309 37.5407 223.439C38.1646 227.006 39.3451 229.986 41.2395 232.046C43.1697 234.145 45.7661 235.206 48.9918 235.037L49.0147 235.036C55.0741 234.58 57.7433 232.878 58.5737 230.751C58.9773 229.717 58.8704 228.741 58.6863 228.06C58.5934 227.717 58.4773 227.434 58.3829 227.234C58.3526 227.17 58.3242 227.113 58.299 227.066C58.288 226.926 58.2775 226.697 58.2738 226.367C58.2662 225.688 58.2878 224.625 58.3816 223.12C58.5587 220.279 58.992 215.883 59.9637 209.573C60.2529 210.06 60.5805 210.606 60.9426 211.198C62.4682 213.693 64.6103 217.028 67.0713 220.378C69.5278 223.723 72.3246 227.114 75.1629 229.702C77.9583 232.25 80.9736 234.188 83.8577 234.29L83.8745 234.29C94.0433 234.477 99.3672 227.773 101.215 221.497C102.131 218.382 102.229 215.27 101.583 213.05C101.263 211.947 100.722 210.943 99.8799 210.332C98.9747 209.676 97.871 209.582 96.7413 210.046C96.7039 210.062 96.6676 210.079 96.6324 210.099C95.9602 210.476 95.2716 210.774 94.7096 210.983C94.4294 211.087 94.1864 211.167 93.9989 211.222C93.905 211.249 93.8289 211.269 93.7716 211.283C93.7174 211.296 93.6939 211.3 93.6939 211.3L93.6761 211.302C89.3124 211.936 84.5599 210.113 80.7891 208.012C78.9244 206.973 77.3436 205.891 76.229 205.068C76.1174 204.985 76.0106 204.906 75.9087 204.829C90.2531 199.942 105.789 189.929 106.858 170.129L106.859 170.115C107.196 161.625 105.297 155.132 101.967 150.224C98.6402 145.322 93.9408 142.083 88.8119 139.998C78.5916 135.844 66.5181 136.212 59.5604 137.213ZM58.1936 226.884C58.1797 226.892 58.0798 226.954 57.3478 227.413L58.193 226.883C58.1932 226.884 58.1934 226.884 58.1936 226.884ZM57.3478 226.413C57.5615 226.413 57.7311 226.476 57.8593 226.554C57.707 226.463 57.5308 226.413 57.3478 226.413ZM250.834 113.772C250.761 113.783 250.691 113.801 250.624 113.826C246.703 114.439 243.932 115.797 243.25 118.525L243.246 118.542C237.579 142.959 235.732 153.757 233.749 165.442L232.935 165.4C232.468 165.377 232.047 165.68 231.921 166.13C231.039 169.289 229.624 173.457 227.626 176.934C225.597 180.465 223.133 183 220.262 183.414C219.626 183.504 219.284 183.339 219.041 183.078C218.742 182.757 218.475 182.158 218.328 181.181C218.036 179.234 218.294 176.346 218.893 172.991C219.889 167.411 221.758 160.881 223.16 155.981C223.435 155.021 223.691 154.124 223.92 153.309C223.933 153.264 223.942 153.218 223.949 153.172C224.402 149.799 222.309 147.391 219.475 146.032C216.652 144.678 212.902 144.234 209.389 144.741C205.488 145.295 202.675 146.532 201.82 149.28C201.745 149.511 201.668 149.771 201.602 150.053C199.996 148.69 197.94 147.972 195.885 147.626C192.71 147.091 189.324 147.4 187.003 147.735L187.003 147.735C174.763 149.503 166.726 159.247 162.827 170.27C162.814 170.307 162.804 170.344 162.795 170.382L161.513 176.039L160.55 175.851C160.487 175.839 160.423 175.832 160.359 175.832C159.986 175.832 159.655 175.864 159.395 175.912C159.268 175.936 159.134 175.968 159.01 176.012C158.952 176.033 158.862 176.069 158.767 176.127C158.72 176.156 158.647 176.204 158.572 176.276C158.503 176.343 158.38 176.479 158.309 176.692C158.304 176.708 158.299 176.723 158.295 176.739C156.646 182.637 154.557 187.962 151.862 191.944C149.171 195.92 145.948 198.458 142.035 199.02L142.034 199.02C137.515 199.678 134.437 198.469 132.628 196.569C131.098 194.962 130.378 192.761 130.519 190.487C130.664 190.532 130.819 190.576 130.988 190.617C132.314 190.94 134.436 191.095 137.808 190.61L137.809 190.61C143.438 189.795 147.973 187.656 150.874 184.101C153.786 180.53 154.928 175.682 154.063 169.712C153.154 163.411 150.713 159.42 147.205 157.218C143.733 155.039 139.416 154.74 135.014 155.372C126.072 156.653 120.089 162.747 116.256 168.894C112.421 175.044 110.644 181.389 110.147 183.491C110.144 183.503 110.142 183.514 110.14 183.525C106.935 199.539 110.001 209.27 115.854 214.719C121.659 220.123 129.924 221.041 136.552 220.083C148.667 218.352 156.223 210.599 160.764 202.663C160.775 202.645 160.785 202.626 160.795 202.606L162.288 199.555C163.5 202.553 165.223 205.106 167.493 206.909C170.288 209.129 173.837 210.149 178.066 209.54C187.142 208.232 193.149 203.102 195.971 196.673C196.534 199.541 197.521 202.193 199.067 204.343C201.469 207.685 205.158 209.725 210.379 209.549L210.393 209.549C221.387 209.024 228.574 203.34 233.096 196.046C233.111 196.023 233.124 195.999 233.137 195.974L234.838 192.642L235.835 195.044C235.851 195.085 235.871 195.124 235.893 195.162C237.144 197.325 238.804 199.111 240.953 200.329C243.104 201.549 245.688 202.169 248.737 202.088L248.76 202.087C259.891 201.531 266.948 196.47 271.317 189.672C275.65 182.931 277.304 174.544 277.837 167.309C277.839 167.288 277.84 167.266 277.84 167.245L276.84 167.236C277.84 167.245 277.84 167.244 277.84 167.244V167.243L277.84 167.24L277.84 167.233L277.84 167.21C277.84 167.192 277.84 167.167 277.839 167.136C277.838 167.074 277.835 166.987 277.829 166.879C277.818 166.663 277.793 166.36 277.743 166.002C277.644 165.292 277.439 164.328 277.005 163.374C276.57 162.418 275.885 161.428 274.806 160.738C273.713 160.039 272.308 159.709 270.554 159.926C270.15 159.976 269.816 160.266 269.711 160.66C268.848 163.883 267.626 167.652 265.825 170.716C264.016 173.795 261.737 175.972 258.826 176.393C258.131 176.491 257.777 176.367 257.567 176.203C257.336 176.021 257.075 175.632 256.904 174.786C256.557 173.062 256.71 170.137 257.274 165.643L257.275 165.633C259.71 144.449 264.579 126.745 265.763 122.515C265.776 122.47 265.785 122.425 265.791 122.379C266.247 119.001 264.061 116.55 261.163 115.152C258.261 113.751 254.413 113.253 250.834 113.772ZM192.34 160.094C192.39 160.079 192.439 160.06 192.486 160.038C193.025 159.895 193.569 159.836 194.105 159.87C194.124 159.871 194.144 159.871 194.164 159.871C195.461 159.876 196.148 160.341 196.566 160.985C197.033 161.706 197.253 162.796 197.245 164.176C197.23 166.779 196.42 169.856 195.867 171.959C195.836 172.079 195.805 172.195 195.775 172.309L195.774 172.313C195.115 174.871 193.991 178.947 192.279 182.483C191.424 184.25 190.443 185.836 189.335 187.022C188.229 188.206 187.051 188.933 185.792 189.115C184.491 189.303 183.569 189.057 182.902 188.584C182.218 188.099 181.678 187.29 181.322 186.137C180.6 183.802 180.73 180.369 181.583 176.652C182.43 172.962 183.959 169.13 185.891 166.051C187.846 162.934 190.106 160.759 192.34 160.094ZM139.687 169.607C140.486 168.938 141.187 168.563 141.773 168.433C141.831 168.435 141.89 168.432 141.948 168.423C142.412 168.355 142.914 168.581 143.31 169.502C143.706 170.423 143.851 171.814 143.564 173.334C142.998 176.329 140.822 179.531 136.212 180.199C135.737 180.256 134.336 180.247 132.552 180.129C133.867 177.379 135.409 174.695 136.992 172.574C137.908 171.347 138.819 170.334 139.687 169.607Z" stroke="white" stroke-width="2" stroke-linejoin="round"/>
<path d="M247.912 73.9514C246.621 71.5881 244.192 70.4284 242.463 71.3693L241.479 71.8507C239.75 72.7916 239.422 75.505 240.713 77.8682L243.82 83.4919C245.111 85.8551 247.562 86.9492 249.269 85.9864L250.253 85.505C251.982 84.5641 252.288 81.9164 251.019 79.4875L247.89 73.9295L247.912 73.9514Z" stroke="#BFBFBF" stroke-linejoin="round"/>
<path d="M238.897 79.4437C237.584 77.0586 235.067 75.9426 233.251 76.8835L232.245 77.4306C230.494 78.3934 230.078 81.1286 231.369 83.6013L234.498 89.2249C235.811 91.61 238.306 92.8135 240.078 91.7851L241.085 91.238C242.901 90.2971 243.251 87.54 241.938 85.1549L238.897 79.4656V79.4437Z" stroke="#BFBFBF" stroke-linejoin="round"/>
<path d="M277.89 40.7129C274.892 35.1768 270.538 31.61 265.045 30.1002C254.477 27.2555 242.879 33.0542 239.925 34.7172C237.606 31.063 235.549 27.7807 234.433 26.0958C230.888 20.5597 218.59 13.3825 205.943 23.0105C191.391 34.1483 201.763 53.5137 202.77 55.3518C201.719 57.3431 201.107 60.2971 202.792 63.47C204.083 65.68 205.943 66.9054 207.693 67.4962C207.299 69.3781 207.365 71.5225 208.7 73.8201C210.013 76.1833 211.873 77.4306 213.645 77.9339C213.229 79.8814 213.273 82.4197 214.98 84.9798C216.293 87.0367 217.934 88.0652 219.422 88.4809C220.21 88.6997 220.866 88.831 221.501 88.7873C221.61 88.9623 221.698 89.1593 221.807 89.3343L224.892 94.8923C226.205 97.2555 228.722 98.3715 230.56 97.3868L231.544 96.9054C233.382 95.8989 233.776 93.2074 232.485 90.7566L229.334 85.1768C228.021 82.8135 225.505 81.6975 223.667 82.6822L222.682 83.1636C222.398 83.3825 222.091 83.6013 221.873 83.842C221.873 83.842 220.494 84.3671 219.094 82.2665C217.496 79.8157 219.116 77.1461 219.137 77.0805L219.247 76.9711L233.382 69.9251C234.652 69.2905 235.133 67.8463 234.498 66.6428C233.93 65.4175 232.398 64.8923 231.216 65.5269L216.118 72.9886C215.943 73.098 215.746 73.1855 215.614 73.3824C214.805 73.2293 213.776 72.8354 213.01 71.4787C212.048 69.7501 212.551 68.284 212.923 67.5619L227.956 60.0783C229.225 59.4437 229.706 57.9995 229.072 56.7304C228.481 55.5706 226.949 55.0455 225.768 55.68L210.866 63.0323C210.297 63.098 208.24 63.0323 207.212 61.0411C206.315 59.4 206.927 58.0433 207.343 57.4087L229.947 46.0958C231.807 50.5378 236.84 57.2774 243.207 56.2927C252.245 54.8704 250.735 51.8288 250.735 51.8288C250.735 51.8288 246.73 45.4612 242.573 38.8967C245.417 37.3431 255.286 32.5072 263.754 34.8267C267.956 35.9645 271.172 38.6779 273.601 43.0323C275.899 47.2993 276.315 51.1505 274.87 54.8048C271.763 62.5509 261.347 67.1461 257.868 68.5247L257.606 68.0652C256.293 65.7019 253.798 64.4984 252.026 65.5269L251.041 66.0083C249.203 67.0148 248.875 69.7282 250.188 72.1133L253.251 77.7369C254.564 80.1002 257.08 81.2161 258.897 80.2971L259.903 79.7501C261.654 78.7216 262.07 76.0302 260.757 73.645L260.275 72.9011C264.805 71.0849 275.789 65.877 279.466 56.6866C281.479 51.61 280.954 46.2709 277.89 40.7129Z" stroke="#BFBFBF" stroke-linejoin="round"/>
</svg>
