<svg width="280" height="193" viewBox="0 0 280 193" fill="none" xmlns="http://www.w3.org/2000/svg">
<g clip-path="url(#clip0_2_737)">
<path fill-rule="evenodd" clip-rule="evenodd" d="M16.9177 103.497H46.6309L48.1981 103.711C48.3055 103.711 48.4343 103.754 48.5202 103.819L49.701 104.398C49.701 104.398 49.8727 104.506 49.9586 104.57L50.9032 105.45C50.9032 105.45 51.0321 105.579 51.075 105.644L51.7835 106.739C51.7835 106.739 51.8694 106.889 51.8908 106.953L52.3417 108.241C52.3417 108.241 52.3846 108.392 52.3846 108.456L52.5778 109.938C52.5778 109.938 52.5778 110.066 52.5778 110.131L52.492 111.698C52.492 111.698 52.492 111.827 52.4705 111.891L52.084 113.458L49.5507 120.951L48.5631 123.034C48.5631 123.034 48.5202 123.12 48.4772 123.184L46.9529 125.46C46.9529 125.46 46.8671 125.567 46.8241 125.61L44.849 127.607C44.849 127.607 44.7631 127.692 44.6987 127.735L43.754 128.422L43.6896 128.465L44.0331 130.312C44.0331 130.312 44.0331 130.44 44.0331 130.505V133.897L43.5608 138.019L42.6376 142.635C42.5303 143.129 42.1009 143.494 41.5857 143.494H28.6398C28.3392 143.494 28.0601 143.365 27.8454 143.15C27.6522 142.936 27.5449 142.635 27.5663 142.334L27.824 139.178L27.9313 136.473L27.8884 133.94L27.6522 131.45L27.5019 131.042L27.2014 130.784L26.4929 130.548L25.2047 130.441H21.4476L17.2612 142.785C17.1109 143.215 16.703 143.515 16.2521 143.515H3.80003C3.45653 143.515 3.13449 143.343 2.9198 143.064C2.72658 142.785 2.66217 142.42 2.76952 142.098L11.0781 117.688H10.1549C9.76844 117.688 9.42494 117.495 9.23172 117.151C9.03849 116.829 9.03849 116.421 9.23172 116.078L15.973 104.055C16.1662 103.711 16.5312 103.518 16.9177 103.518V103.497ZM58.2886 103.497H70.8051C71.1486 103.497 71.4706 103.669 71.6853 103.948C71.9 104.227 71.943 104.592 71.8356 104.914L63.5271 129.324H73.5961L82.1193 104.205C82.2696 103.776 82.6775 103.475 83.1284 103.475H95.6448C95.9884 103.475 96.3104 103.647 96.5251 103.926C96.7398 104.205 96.7827 104.57 96.6754 104.892L93.5623 114.06L99.2087 104.012C99.4019 103.669 99.7669 103.475 100.153 103.475H129.867L131.434 103.69C131.541 103.69 131.67 103.733 131.777 103.797L132.958 104.377C132.958 104.377 133.13 104.484 133.216 104.549L134.16 105.429C134.16 105.429 134.289 105.558 134.332 105.622L135.041 106.717C135.041 106.717 135.127 106.867 135.148 106.932L135.599 108.22C135.599 108.22 135.642 108.37 135.642 108.435L135.835 109.916C135.835 109.916 135.835 110.045 135.835 110.109L135.749 111.677C135.749 111.677 135.749 111.805 135.728 111.87L135.341 113.437L135.127 114.06L140.773 103.991C140.966 103.647 141.331 103.454 141.718 103.454H171.431L172.998 103.669C173.105 103.669 173.234 103.711 173.32 103.776L174.501 104.356C174.501 104.356 174.673 104.463 174.758 104.527L175.703 105.408C175.703 105.408 175.81 105.536 175.875 105.601L176.583 106.696C176.583 106.696 176.669 106.846 176.691 106.91L177.142 108.199C177.142 108.199 177.184 108.349 177.184 108.413L177.378 109.895C177.378 109.895 177.378 110.023 177.378 110.088L177.292 111.655C177.292 111.655 177.292 111.784 177.27 111.848L176.884 113.416L166.922 142.699C166.772 143.129 166.364 143.429 165.913 143.429H153.397C153.053 143.429 152.731 143.258 152.517 142.978C152.323 142.699 152.259 142.334 152.366 142.012L160.675 117.602H150.477L150.52 117.86L142.083 142.699C141.932 143.129 141.524 143.429 141.073 143.429H128.557C128.213 143.429 127.891 143.258 127.677 142.978C127.484 142.699 127.419 142.334 127.526 142.012L135.835 117.602H134.912C134.719 117.602 134.547 117.559 134.375 117.452L134.032 117.108L125.337 142.699C125.186 143.129 124.778 143.429 124.328 143.429H111.811C111.468 143.429 111.146 143.258 110.931 142.978C110.738 142.699 110.673 142.334 110.781 142.012L119.089 117.602H108.891L108.934 117.86L100.497 142.699C100.347 143.129 99.9387 143.429 99.4878 143.429H86.9713C86.6278 143.429 86.3058 143.258 86.0911 142.978C85.8979 142.699 85.8335 142.334 85.9408 142.012L94.2494 117.602H93.3262C93.133 117.602 92.9612 117.559 92.7895 117.452L92.446 117.108L83.751 142.699C83.6007 143.129 83.1928 143.429 82.7419 143.429H52.7925L51.2038 143.215C51.0965 143.215 50.9677 143.172 50.8818 143.107L49.701 142.528C49.701 142.528 49.5078 142.42 49.4433 142.334L48.4987 141.433C48.4987 141.433 48.3699 141.304 48.327 141.218L47.6399 140.08C47.6399 140.08 47.5541 139.93 47.5326 139.865L47.0817 138.534C47.0817 138.534 47.0388 138.406 47.0388 138.341L46.8456 136.86C46.8456 136.86 46.8456 136.731 46.8456 136.667L46.9315 135.078C46.9315 135.078 46.9315 134.949 46.9529 134.885L47.3394 133.274L48.4343 130.011C48.4987 129.796 48.649 129.603 48.8207 129.474L48.7563 129.002L57.1937 104.162C57.344 103.733 57.7519 103.432 58.2027 103.432L58.2886 103.497ZM183.067 103.497H195.584C195.927 103.497 196.249 103.669 196.464 103.948C196.678 104.227 196.721 104.592 196.614 104.914L193.265 114.79L199.298 104.055C199.491 103.711 199.856 103.518 200.242 103.518H229.956L231.523 103.733C231.63 103.733 231.759 103.776 231.845 103.84L233.026 104.42C233.026 104.42 233.197 104.527 233.283 104.592L234.228 105.472C234.228 105.472 234.335 105.601 234.4 105.665L235.108 106.76C235.108 106.76 235.194 106.91 235.215 106.975L235.666 108.263C235.666 108.263 235.709 108.413 235.709 108.478L235.902 109.959C235.902 109.959 235.902 110.088 235.902 110.152L235.817 111.719C235.817 111.719 235.817 111.848 235.795 111.913L235.409 113.48L225.447 142.764C225.297 143.193 224.889 143.494 224.438 143.494H211.922C211.578 143.494 211.256 143.322 211.041 143.043C210.848 142.764 210.784 142.399 210.891 142.077L219.2 117.666H209.002L209.045 117.924L200.607 142.764C200.457 143.193 200.049 143.494 199.598 143.494H187.082C186.738 143.494 186.416 143.322 186.202 143.043C186.008 142.764 185.944 142.399 186.051 142.077L194.36 117.666H193.437C193.05 117.666 192.707 117.473 192.513 117.13V116.872L192.492 116.936C192.428 117.151 192.277 117.344 192.106 117.452L192.17 117.924L183.733 142.764C183.582 143.193 183.174 143.494 182.724 143.494H170.207C169.864 143.494 169.542 143.322 169.327 143.043C169.134 142.764 169.069 142.399 169.177 142.077L177.614 117.237C177.678 117.022 177.829 116.829 178 116.7L177.936 116.228L182.015 104.205C182.165 103.776 182.573 103.475 183.024 103.475L183.067 103.497ZM278.927 103.497C279.27 103.497 279.592 103.669 279.807 103.948C280 104.227 280.064 104.592 279.957 104.914L275.878 116.936C275.814 117.151 275.663 117.344 275.492 117.452L275.556 117.924L267.119 142.764C266.968 143.193 266.56 143.494 266.11 143.494H236.16L234.593 143.279C234.486 143.279 234.357 143.236 234.271 143.172L233.09 142.592C233.09 142.592 232.897 142.485 232.832 142.42L231.888 141.54C231.888 141.54 231.78 141.411 231.716 141.347L231.008 140.252C231.008 140.252 230.922 140.102 230.9 140.037L230.449 138.749C230.449 138.749 230.406 138.599 230.406 138.534L230.213 137.053C230.213 137.053 230.213 136.924 230.213 136.86L230.299 135.271C230.299 135.271 230.299 135.142 230.321 135.078L230.707 133.468L236.225 117.258C236.289 117.044 236.439 116.851 236.611 116.722L236.547 116.249L237.641 113.008L238.35 111.354C238.35 111.354 238.393 111.269 238.414 111.204L239.402 109.637C239.402 109.637 239.466 109.53 239.509 109.487L242.043 106.674C242.043 106.674 242.129 106.588 242.171 106.545L243.631 105.408L245.306 104.42C245.306 104.42 245.413 104.356 245.478 104.334L247.066 103.733C247.066 103.733 247.217 103.69 247.303 103.669L248.87 103.475H278.948L278.927 103.497ZM249.106 105.644L247.668 105.815L246.272 106.331L244.92 107.104L243.524 108.177L241.119 110.839L240.239 112.256L239.617 113.673L238.994 115.498H274.075L277.424 105.622H249.106V105.644ZM17.5403 105.644L12.0012 115.519H37.4421C37.7856 115.519 38.1077 115.691 38.3224 115.97C38.5156 116.249 38.58 116.614 38.4726 116.936L38.1291 117.924C37.9788 118.353 37.5709 118.654 37.1201 118.654H13.0103L5.30287 141.347H15.5436L19.7301 129.002C19.8804 128.573 20.2883 128.272 20.7392 128.272H25.4409L26.8578 128.401C26.9437 128.401 27.0296 128.422 27.1155 128.444L28.1675 128.787C28.2963 128.83 28.4251 128.895 28.5324 129.002L29.198 129.582C29.3268 129.689 29.4341 129.861 29.4985 130.033L29.7991 130.848C29.7991 130.848 29.8421 131.02 29.8635 131.128L30.1212 133.918L30.1641 136.602L30.0353 139.393L29.8635 141.39H40.7698L41.4998 137.804L41.9721 133.94V130.655L41.4783 128.036C41.371 127.521 41.6715 127.005 42.1653 126.834L42.6806 126.64L43.432 126.104L45.2569 124.236L46.6953 122.11L47.5541 120.329L50.0445 113.008L50.4095 111.548L50.4739 110.174L50.3021 108.907L49.9157 107.855L49.336 106.975L48.606 106.288L47.7043 105.837L46.6094 105.687H17.5188L17.5403 105.644ZM59.04 105.644L51.3326 128.337H61.5734L69.2808 105.644H59.04ZM83.8798 105.644L75.3351 130.763C75.1848 131.192 74.7769 131.492 74.326 131.492H50.2592L49.4433 133.854L49.0784 135.357L48.9925 136.731L49.1642 138.019L49.5292 139.135L50.0874 140.059L50.7959 140.746L51.6761 141.175L52.7925 141.347H81.969L94.0991 105.644H83.8583H83.8798ZM100.733 105.644L95.194 115.519H120.635C120.978 115.519 121.3 115.691 121.515 115.97C121.73 116.249 121.773 116.614 121.665 116.936L113.357 141.347H123.598L133.237 112.965L133.602 111.505L133.667 110.131L133.495 108.864L133.108 107.812L132.55 106.932L131.82 106.245L130.919 105.794L129.824 105.644H100.733ZM142.34 105.644L136.801 115.519H162.242C162.586 115.519 162.908 115.691 163.122 115.97C163.337 116.249 163.38 116.614 163.273 116.936L154.964 141.347H165.205L174.844 112.965L175.209 111.505L175.274 110.131L175.102 108.864L174.716 107.812L174.157 106.932L173.427 106.245L172.526 105.794L171.431 105.644H142.34ZM183.84 105.644L180.491 115.519H190.731L194.081 105.644H183.84ZM200.843 105.644L195.304 115.519H220.745C221.089 115.519 221.411 115.691 221.626 115.97C221.84 116.249 221.883 116.614 221.776 116.936L213.467 141.347H223.708L233.348 112.965L233.713 111.505L233.777 110.131L233.605 108.864L233.219 107.812L232.661 106.932L231.931 106.245L231.029 105.794L229.934 105.644H200.843ZM250.652 117.666L250.695 117.924L246.83 129.324H248.762L248.72 129.002L252.584 117.666H250.673H250.652ZM96.2245 118.654L88.5171 141.347H98.7579L106.465 118.654H96.2245ZM137.832 118.654L130.124 141.347H140.365L148.072 118.654H137.832ZM179.439 118.654L171.731 141.347H181.972L189.68 118.654H179.439ZM196.356 118.654L188.649 141.347H198.89L206.597 118.654H196.356ZM237.964 118.654L232.747 133.961L232.382 135.464L232.296 136.838L232.467 138.105L232.854 139.178L233.434 140.059L234.163 140.746L235.044 141.197L236.16 141.347H265.337L273.044 118.654H254.516L251.253 128.272H258.037C258.381 128.272 258.703 128.444 258.917 128.723C259.111 129.002 259.175 129.367 259.068 129.689L258.703 130.741C258.552 131.17 258.144 131.471 257.694 131.471H245.37C245.027 131.471 244.705 131.299 244.49 131.02C244.297 130.741 244.232 130.376 244.34 130.054L248.204 118.654H237.964Z" fill="#F7921E"/>
<path fill-rule="evenodd" clip-rule="evenodd" d="M14.1696 107.297H43.8828C44.9134 107.297 45.7936 107.554 46.5021 108.091C47.2106 108.606 47.7687 109.272 48.1552 110.066C48.5416 110.861 48.7778 111.784 48.8207 112.836C48.8637 113.866 48.7134 114.918 48.3484 115.949L45.8365 123.356C45.6648 123.892 45.3427 124.558 44.9134 125.331C44.4625 126.104 43.9687 126.855 43.3676 127.607C42.7879 128.337 42.1224 129.002 41.3924 129.603C40.6625 130.204 40.1257 130.505 39.7822 130.526C40.2975 132.115 40.4693 134.133 40.2975 136.624C40.1257 139.114 39.6749 141.948 38.9235 145.168H25.9776C26.1923 142.936 26.3211 140.96 26.3641 139.243C26.407 137.547 26.2996 135.765 26.0635 133.918C25.9132 132.695 24.7753 132.072 22.6499 132.072H18.034L13.5899 145.147H1.07346L9.51081 120.307H34.3506L34.6941 119.32H7.42831L14.1696 107.297ZM55.5406 107.297H68.057L59.6197 132.137H47.1032L55.5406 107.297ZM80.3803 107.297H92.8968L80.0368 145.147H50.0874C49.0569 145.147 48.1767 144.889 47.4682 144.352C46.7597 143.837 46.223 143.15 45.8365 142.313C45.4501 141.476 45.2569 140.531 45.1925 139.479C45.1495 138.427 45.2998 137.375 45.6648 136.302L46.7382 133.124H71.578L80.3588 107.275L80.3803 107.297ZM97.3624 107.297H127.076C128.106 107.297 128.986 107.554 129.695 108.091C130.403 108.606 130.962 109.272 131.348 110.066C131.734 110.861 131.949 111.784 132.013 112.836C132.056 113.866 131.906 114.918 131.541 115.949L121.622 145.147H109.106L117.887 119.298H90.6211L97.3624 107.275V107.297ZM138.969 107.297H168.683C169.713 107.297 170.593 107.554 171.302 108.091C172.01 108.606 172.569 109.272 172.955 110.066C173.342 110.861 173.556 111.784 173.599 112.836C173.642 113.866 173.492 114.918 173.127 115.949L163.208 145.147H150.692L159.472 119.298H132.207L138.948 107.275L138.969 107.297ZM180.34 107.297H192.857L188.778 119.32H176.261L180.34 107.297ZM197.473 107.297H227.186C228.217 107.297 229.097 107.554 229.805 108.091C230.514 108.606 231.072 109.272 231.458 110.066C231.845 110.861 232.059 111.784 232.102 112.836C232.145 113.866 231.995 114.918 231.63 115.949L221.711 145.147H209.195L217.976 119.298H190.71L197.451 107.275L197.473 107.297ZM246.251 107.297H276.2L272.121 119.32H234.765L235.86 116.078C236.225 115.026 236.761 113.974 237.513 112.943C238.264 111.913 239.101 110.968 240.046 110.131C240.991 109.293 242 108.606 243.073 108.091C244.147 107.576 245.199 107.297 246.251 107.297ZM92.725 120.307H105.242L96.8042 145.147H84.2877L92.725 120.307ZM134.332 120.307H146.849L138.411 145.147H125.895L134.332 120.307ZM175.939 120.307H188.456L180.018 145.147H167.502L175.939 120.307ZM192.857 120.307H205.373L196.936 145.147H184.42L192.857 120.307ZM234.464 120.307H246.981L242.622 133.124H254.946L255.311 132.072H247.023L251.017 120.307H271.82L263.383 145.147H233.434C232.403 145.147 231.523 144.889 230.814 144.374C230.106 143.859 229.548 143.193 229.161 142.399C228.775 141.604 228.539 140.681 228.496 139.629C228.453 138.577 228.603 137.525 228.968 136.452L234.443 120.329L234.464 120.307Z" fill="white"/>
<path d="M14.1696 107.297H43.8828C44.9134 107.297 45.7936 107.554 46.5021 108.091C47.2106 108.606 47.7687 109.272 48.1552 110.066C48.5416 110.861 48.7778 111.784 48.8207 112.836C48.8637 113.866 48.7134 114.918 48.3484 115.949L45.8365 123.356C45.6648 123.892 45.3427 124.558 44.9134 125.331C44.4625 126.104 43.9687 126.855 43.3676 127.607C42.7879 128.337 42.1224 129.002 41.3924 129.603C40.6625 130.204 40.1257 130.505 39.7822 130.526C40.2975 132.115 40.4693 134.133 40.2975 136.624C40.1257 139.114 39.6749 141.948 38.9235 145.168H25.9776C26.1923 142.936 26.3211 140.96 26.3641 139.243C26.407 137.547 26.2996 135.765 26.0635 133.918C25.9132 132.695 24.7753 132.072 22.6499 132.072H18.034L13.5899 145.147H1.07346L9.51081 120.307H34.3506L34.6941 119.32H7.42831L14.1696 107.297ZM55.5406 107.297H68.057L59.6197 132.137H47.1032L55.5406 107.297ZM80.3803 107.297H92.8968L80.0368 145.147H50.0874C49.0569 145.147 48.1767 144.889 47.4682 144.352C46.7597 143.837 46.223 143.15 45.8365 142.313C45.4501 141.476 45.2569 140.531 45.1925 139.479C45.1495 138.427 45.2998 137.375 45.6862 136.302L46.7597 133.124H71.5994L80.3803 107.275V107.297ZM97.3624 107.297H127.076C128.106 107.297 128.986 107.554 129.695 108.091C130.403 108.606 130.962 109.272 131.348 110.066C131.734 110.861 131.949 111.784 132.013 112.836C132.056 113.866 131.906 114.918 131.541 115.949L121.622 145.147H109.106L117.887 119.298H90.6211L97.3624 107.275V107.297ZM138.969 107.297H168.683C169.713 107.297 170.593 107.554 171.302 108.091C172.01 108.606 172.569 109.272 172.955 110.066C173.342 110.861 173.556 111.784 173.621 112.836C173.664 113.866 173.513 114.918 173.148 115.949L163.23 145.147H150.713L159.494 119.298H132.228L138.969 107.275V107.297ZM180.34 107.297H192.857L188.778 119.32H176.261L180.34 107.297ZM197.473 107.297H227.186C228.217 107.297 229.097 107.554 229.805 108.091C230.514 108.606 231.072 109.272 231.458 110.066C231.845 110.861 232.06 111.784 232.124 112.836C232.167 113.866 232.017 114.918 231.652 115.949L221.733 145.147H209.216L217.997 119.298H190.731L197.473 107.275V107.297ZM246.251 107.297H276.2L272.121 119.32H234.765L235.86 116.078C236.225 115.026 236.761 113.974 237.513 112.943C238.264 111.913 239.101 110.968 240.046 110.131C240.991 109.293 242 108.606 243.073 108.091C244.147 107.576 245.199 107.297 246.251 107.297ZM92.725 120.307H105.242L96.8042 145.147H84.2877L92.725 120.307ZM134.332 120.307H146.849L138.411 145.147H125.895L134.332 120.307ZM175.939 120.307H188.456L180.018 145.147H167.502L175.939 120.307ZM192.857 120.307H205.373L196.936 145.147H184.42L192.857 120.307ZM234.464 120.307H246.981L242.622 133.124H254.946L255.311 132.072H247.023L251.017 120.307H271.82L263.383 145.147H233.434C232.403 145.147 231.523 144.889 230.814 144.374C230.106 143.859 229.548 143.193 229.161 142.399C228.775 141.604 228.539 140.681 228.496 139.629C228.453 138.577 228.603 137.525 228.968 136.452L234.443 120.329L234.464 120.307Z" stroke="#3B7C93" stroke-linejoin="round"/>
<path d="M58.9542 173.185H73.1238C74.1113 173.185 75.013 173.422 75.8074 173.873C76.6018 174.345 77.2673 174.924 77.8255 175.633C78.3837 176.341 78.7916 177.071 79.0922 177.844C79.3927 178.617 79.5216 179.304 79.5216 179.927V181.988H55.2615C54.4671 181.988 53.7372 181.752 53.0716 181.301C52.4061 180.828 51.8049 180.249 51.2897 179.54C50.7744 178.832 50.3665 178.102 50.0874 177.329C49.7868 176.556 49.658 175.869 49.658 175.247V169.106C49.658 168.291 49.8083 167.475 50.1304 166.659C50.4309 165.843 50.8603 165.135 51.3756 164.512C51.8908 163.889 52.492 163.396 53.1575 162.988C53.823 162.601 54.5315 162.387 55.3044 162.387H79.5645V171.361H58.9971V173.164L58.9542 173.185ZM49.6366 192.765V183.791H79.5216V186.067C79.5216 186.883 79.3713 187.699 79.0492 188.514C78.7487 189.33 78.3193 190.039 77.804 190.661C77.2888 191.284 76.6876 191.778 76.0221 192.186C75.3565 192.572 74.6481 192.787 73.8752 192.787H49.6151L49.6366 192.765ZM113.829 171.382H83.9871V162.408H113.829V171.382ZM94.2064 173.185H103.524V192.765H94.2064V173.185ZM129.888 171.382H119.841L122.717 162.408H136.221L145.754 192.765H135.921L132.572 181.945H126.346L123.039 192.765H113.207L119.282 173.185H130.317L129.91 171.382H129.888ZM169.906 192.765C169.52 191.22 169.112 189.717 168.64 188.257C168.167 186.797 167.609 185.337 166.922 183.899C166.343 182.589 165.054 181.945 163.058 181.945H158.721V192.765H149.403V173.185H169.971V171.382H147.407L149.511 162.408H173.685C174.436 162.408 175.145 162.601 175.832 163.009C176.497 163.396 177.099 163.911 177.614 164.533C178.129 165.156 178.537 165.865 178.859 166.68C179.16 167.496 179.331 168.312 179.331 169.128V175.268C179.331 175.676 179.267 176.191 179.117 176.792C178.988 177.393 178.773 177.973 178.516 178.553C178.258 179.132 177.936 179.626 177.571 180.056C177.184 180.485 176.777 180.743 176.326 180.807C177.227 182.482 177.936 184.349 178.494 186.368C179.052 188.386 179.46 190.533 179.739 192.808H169.949L169.906 192.765ZM213.575 171.382H183.733V162.408H213.575V171.382ZM193.952 173.185H203.269V192.765H193.952V173.185Z" fill="#3B7C93"/>
<path d="M86.9713 63.6931H57.0863V61.5247C57.0863 60.7089 57.2366 59.893 57.5587 59.0772C57.8592 58.2614 58.2886 57.5314 58.8039 56.8874C59.3191 56.2433 59.9203 55.7066 60.5858 55.3201C61.2513 54.9337 61.9598 54.719 62.7327 54.719H86.9928V63.6931H86.9713ZM86.9713 85.0763H62.7112C61.9598 85.0763 61.2513 84.8831 60.5643 84.4752C59.8988 84.0887 59.2977 83.5734 58.7824 82.9508C58.2671 82.3282 57.8592 81.6198 57.5372 80.8039C57.2366 79.9881 57.0649 79.1723 57.0649 78.3565V65.475H66.3825V76.0807H77.6108V74.2344H70.7622V65.475H86.9499V85.0548L86.9713 85.0763ZM121.021 54.719H91.5442L89.4403 63.6931H121.021V54.719ZM91.4369 65.4965V85.0763H121.021V76.1022H100.776V74.2559H121.021V65.4965H91.4369ZM155.372 63.6931H125.53V54.719H155.372V63.6931ZM135.749 65.4965H145.067V85.0763H135.749V65.4965Z" fill="#3B7C93"/>
<path d="M191.118 63.6931H181.07L183.947 54.719H197.451L206.984 85.0763H197.151L193.802 74.2559H187.554L184.269 85.0763H174.415L180.491 65.4965H191.526L191.118 63.6931Z" fill="#3B7C93"/>
</g>
<path d="M46.6481 77.9998C63.1574 72.8448 65.7653 58.7444 63.6316 50.5354C58.6745 53.5894 53.9544 55.4738 49.7086 56.1669C52.532 62.7298 51.8423 71.4153 46.6481 77.9998Z" stroke="#BFBFBF" stroke-linejoin="round"/>
<path d="M11 42.543C16.1942 26.0167 30.3758 23.4392 38.6521 25.5618C35.57 30.5219 33.6949 35.2437 32.9837 39.489C26.367 36.6516 17.3796 37.3663 11 42.5646V42.543Z" stroke="#BFBFBF" stroke-linejoin="round"/>
<path d="M58.2219 30.7168C55.8726 28.3559 56.5839 23.894 59.8599 20.6018C63.1574 17.3095 67.6188 16.3782 69.9681 18.7174C72.3173 21.2949 71.6061 25.7784 68.3301 29.0707C65.0325 32.363 60.5711 33.0777 58.2219 30.7168ZM71.3905 3.18744C65.0325 5.31008 57.7477 10.0102 51.1741 16.5948C43.4152 24.3489 38.4796 32.8178 37.0572 39.6406L28.824 44.8173C30.225 47.8713 38.6952 57.055 44.579 60.3472L49.5146 51.8783C56.3252 50.4704 65.0325 45.2938 72.3173 37.7562C79.1279 30.9334 83.848 23.6341 85.9601 17.2879C80.0763 12.826 75.8519 8.81894 71.3905 3.16578V3.18744Z" stroke="#BFBFBF" stroke-linejoin="round"/>
<path d="M85.9817 2.8842C88.3525 5.02851 88.5895 9.0572 86.93 13.5841C84.7963 11.9163 82.6626 10.0102 80.2702 7.64932C78.3736 5.74328 76.714 3.83723 75.0329 1.95284C77.6408 0.999817 83.1152 0.046793 85.9601 2.90586L85.9817 2.8842Z" stroke="#BFBFBF" stroke-linejoin="round"/>
<path d="M27.2723 49.9722C24.2118 51.1635 21.6255 54.6941 19.9875 60.1306C18.3495 66.282 15.5261 71.9568 12.7027 76.6786C17.4011 73.8412 23.0479 71.0038 29.1689 69.1194C34.5786 67.4732 38.1132 65.0907 39.04 62.015C36.9278 60.3689 34.8157 58.4628 32.682 56.3402C30.8069 54.4558 28.9103 52.3115 27.2723 49.9506V49.9722Z" stroke="#BFBFBF" stroke-linejoin="round"/>
<defs>
<clipPath id="clip0_2_737">
<rect width="280" height="148.631" fill="white" transform="translate(0 44.1347)"/>
</clipPath>
</defs>
</svg>
