<svg width="304" height="237" viewBox="0 0 304 237" fill="none" xmlns="http://www.w3.org/2000/svg">
<g clip-path="url(#clip0_2_744)">
<path d="M79.6319 15.4414L80.1769 15.8131C80.0531 17.1015 79.9787 18.6128 79.954 20.3967L82.7042 17.8695C83.4722 17.151 83.9925 16.705 84.2403 16.4821C84.4881 16.2591 85.0827 16.0361 85.9994 15.7635C86.9162 15.491 87.9072 15.3671 88.9231 15.3671C90.8556 15.3671 92.5405 15.8379 94.0023 16.8041C95.4641 17.7704 96.5295 19.0836 97.2232 20.7684C99.8248 18.2907 101.361 16.928 101.807 16.6555C102.253 16.3829 102.947 16.1104 103.888 15.8379C104.83 15.5653 105.796 15.4167 106.737 15.4167C108.274 15.4167 109.661 15.7388 110.949 16.4077C112.238 17.0767 113.254 17.9191 113.997 18.9845C114.74 20.0499 115.186 21.1896 115.31 22.4284C115.434 23.6673 115.508 25.3768 115.508 27.5324V30.5799C115.508 30.902 115.558 33.3301 115.682 37.8147C115.731 39.6481 115.93 40.7383 116.301 41.0852C116.673 41.4321 117.862 41.6055 119.869 41.6055L120.092 41.8285V43.0673L119.869 43.2903C117.416 43.1416 115.756 43.0673 114.864 43.0673C114.369 43.0673 112.981 43.1416 110.652 43.2903L110.28 42.9682C110.528 40.441 110.652 37.1705 110.652 33.1319V29.6384C110.652 26.5661 110.503 24.4106 110.206 23.1717C109.909 21.9329 109.24 20.9418 108.174 20.149C107.109 19.3561 105.845 18.9845 104.359 18.9845C103.318 18.9845 102.327 19.1827 101.435 19.6039C100.543 20.0251 99.7009 20.6445 98.9824 21.4621C98.2638 22.2798 97.8426 23.0478 97.7683 23.7664C97.694 24.4849 97.6444 25.7733 97.6444 27.6811V31.2984C97.6444 32.1408 97.694 33.7513 97.7683 36.0803C97.8426 38.4093 97.917 39.7968 98.0161 40.1684C98.1152 40.5401 98.2391 40.8374 98.4125 40.9861C98.5859 41.1347 98.8089 41.2586 99.0567 41.3082C99.3045 41.3577 100.345 41.4321 102.179 41.5559L102.451 41.7789V42.993L102.228 43.2655C99.8 43.1169 97.471 43.0425 95.2411 43.0425C93.1599 43.0425 90.8557 43.1169 88.2789 43.2655L88.0063 42.993V41.7789L88.2789 41.5559C90.1619 41.4321 91.2273 41.3577 91.4503 41.2834C91.6733 41.2091 91.8963 41.11 92.0945 40.9117C92.2927 40.7135 92.3918 40.441 92.4661 40.0693C92.5405 39.6977 92.6148 38.4341 92.6891 36.3281C92.7634 34.2221 92.813 32.6116 92.813 31.5214V28.2014C92.813 26.021 92.6643 24.3362 92.367 23.1469C92.0697 21.9577 91.4255 20.9666 90.4344 20.149C89.4434 19.3314 88.2046 18.9349 86.718 18.9349C85.5535 18.9349 84.4881 19.1579 83.5466 19.6287C82.6051 20.0994 81.8122 20.6445 81.1928 21.3135C80.5734 21.9824 80.2017 22.6019 80.0531 23.1965C79.9044 23.7911 79.8301 25.03 79.8301 26.9625V31.2489C79.8301 32.0913 79.8796 33.7018 79.954 36.0308C80.0283 38.3598 80.1026 39.7472 80.2017 40.1189C80.3008 40.4905 80.4247 40.7879 80.5981 40.9365C80.7716 41.0852 80.9946 41.2091 81.2423 41.2586C81.4901 41.3082 82.5307 41.3825 84.3642 41.5064L84.6367 41.7294V42.9434L84.4137 43.216C81.9856 43.0673 79.6566 42.993 77.4267 42.993C75.1969 42.993 72.8679 43.0673 70.4645 43.216L70.192 42.9434V41.7294L70.4645 41.5064C72.3476 41.3825 73.4129 41.3082 73.6359 41.2338C73.8589 41.1595 74.0819 41.0604 74.2801 40.8622C74.4783 40.664 74.5774 40.3914 74.6518 40.0198C74.7261 39.6481 74.8004 38.3845 74.8748 36.2785C74.9491 34.1725 74.9986 32.562 74.9986 31.4719V25.7485C74.9986 24.9804 74.9491 23.915 74.8748 22.5771C74.8004 21.2392 74.7261 20.4215 74.6765 20.0994C74.627 19.7773 74.4783 19.5543 74.2306 19.4057C73.9828 19.257 73.4873 19.1827 72.7192 19.1827H70.2911L70.0186 18.9102V17.6713L70.2415 17.4483C73.9333 17.0024 77.0551 16.2838 79.5823 15.268L79.6319 15.4414Z" fill="#3B7C93"/>
<path d="M127.723 23.4195L126.583 23.1222L126.36 22.8248V19.2322C129.804 16.6803 133.149 15.3919 136.395 15.3919C138.625 15.3919 140.458 15.8131 141.945 16.6307C143.432 17.4483 144.472 18.5137 145.141 19.7526C145.81 20.9914 146.132 22.4532 146.132 24.1132L145.984 29.9605V38.6075C145.984 39.7968 146.058 40.5153 146.231 40.7631C146.405 41.0108 146.578 41.1843 146.801 41.2834C147.024 41.3825 147.421 41.432 147.99 41.5064L149.65 41.655L149.873 41.9276V43.0921L149.65 43.3151C148.238 43.1912 146.925 43.1416 145.711 43.1416C144.497 43.1416 143.159 43.1912 141.524 43.3151L141.078 42.9186L141.202 38.2359L134.884 43.1664C133.818 43.6124 132.654 43.8354 131.39 43.8354C129.854 43.8354 128.516 43.5628 127.401 42.993C126.286 42.4231 125.444 41.655 124.849 40.6392C124.254 39.6234 123.957 38.4093 123.957 36.9723C123.957 34.123 124.849 31.9178 126.633 30.3074C128.417 28.6969 133.273 27.359 141.202 26.2192C141.202 23.3452 140.557 21.3383 139.294 20.1738C138.03 19.0093 136.296 18.4146 134.165 18.4146C133.05 18.4146 132.01 18.5881 131.093 18.9101C130.176 19.2322 129.656 19.5048 129.507 19.703C129.358 19.9012 128.838 21.0905 127.946 23.2708L127.748 23.4195H127.723ZM141.202 28.0031C135.776 28.9199 132.406 29.8862 131.068 30.9268C129.73 31.9674 129.061 33.5779 129.061 35.783C129.061 38.8057 130.572 40.3171 133.57 40.3171C136.147 40.3171 138.699 38.8305 141.202 35.8573V28.0279V28.0031Z" fill="#3B7C93"/>
<path d="M161.989 0.104737L162.534 0.451608C162.311 2.6815 162.212 7.14128 162.212 13.831V27.4581C162.881 27.0616 164.169 26.0954 166.102 24.5344C168.035 22.9735 170.091 21.1896 172.247 19.1827C174.402 17.1758 175.517 16.0856 175.567 15.9122C177.202 15.9617 178.193 16.0113 178.54 16.0113C178.986 16.0113 179.878 15.9865 181.241 15.9122L181.513 16.1847V17.3245L181.29 17.597C180.324 17.6465 179.581 17.7704 179.06 17.9686C178.54 18.1669 177.499 18.811 175.914 19.8764C174.328 20.9418 172.47 22.3789 170.314 24.138L167.49 26.4422C168.505 27.6315 170.314 29.5145 172.866 32.0913C175.418 34.6681 177.499 36.6502 179.085 38.0624C180.671 39.4747 181.711 40.2923 182.182 40.4905C182.653 40.6888 183.173 40.7879 183.718 40.7879V42.0267C183 42.1506 181.141 42.7452 178.168 43.7858C176.161 42.0515 174.873 40.887 174.328 40.3419L172.172 38.1368L169.62 35.56C168.827 34.7672 167.762 33.7513 166.424 32.5373L162.163 28.5978V32.0417C162.163 32.4629 162.212 33.8256 162.286 36.1546C162.361 38.4836 162.435 39.8216 162.534 40.1932C162.633 40.5649 162.757 40.8622 162.931 41.0356C163.104 41.2091 163.327 41.3329 163.575 41.3577C163.823 41.3825 164.863 41.4816 166.721 41.6055L166.994 41.8285V43.0425L166.771 43.3151C164.343 43.1664 162.014 43.0921 159.784 43.0921C157.554 43.0921 155.225 43.1664 152.822 43.3151L152.549 43.0425V41.8285L152.822 41.6055C154.705 41.4816 155.77 41.4073 155.993 41.3329C156.216 41.2586 156.439 41.1595 156.637 40.9613C156.836 40.7631 156.935 40.4905 157.009 40.1189C157.083 39.7472 157.158 38.4836 157.232 36.3776C157.306 34.2716 157.356 32.6611 157.356 31.571V16.5316L157.232 10.387C157.182 8.23145 157.108 6.74486 157.034 5.92723C156.96 5.1096 156.885 4.5893 156.761 4.44064C156.637 4.29198 156.439 4.16809 156.142 4.09376C155.845 4.01943 154.68 3.96988 152.624 3.96988L152.351 3.69734V2.48329L152.574 2.21074C156.266 1.78954 159.388 1.07102 161.915 0.0551834L161.989 0.104737Z" fill="#3B7C93"/>
<path d="M210.279 38.8305L209.337 40.9117C207.33 42.2001 205.522 43.0425 203.961 43.439C202.4 43.8354 200.963 44.0088 199.724 44.0088C197.395 44.0088 195.19 43.5628 193.109 42.6461C191.027 41.7294 189.343 40.1932 188.029 38.0377C186.716 35.8821 186.072 33.2558 186.072 30.2083C186.072 28.1766 186.32 26.3431 186.815 24.7079C187.311 23.0726 187.856 21.8586 188.401 21.0657C188.946 20.2729 189.888 19.3809 191.201 18.4146C192.514 17.4483 193.901 16.6803 195.388 16.0856C196.875 15.491 198.436 15.2184 200.145 15.2184C202.474 15.2184 204.506 15.7635 206.29 16.8537C208.074 17.9439 209.312 19.3561 210.031 21.0409C210.749 22.7257 211.096 24.5592 211.096 26.467C211.096 27.0616 211.072 27.6563 210.997 28.2014L210.675 28.5235C209.362 28.8208 207.578 29.019 205.373 29.0933C203.168 29.1677 201.681 29.242 200.963 29.242H191.647C191.696 33.2558 192.687 36.2042 194.669 38.0872C196.652 39.9702 199.055 40.9365 201.929 40.9365C203.292 40.9365 204.58 40.7135 205.844 40.2428C207.107 39.772 208.42 39.1278 209.808 38.2854L210.279 38.781V38.8305ZM191.672 26.9625C192.018 27.0121 193.356 27.0864 195.685 27.1608C198.014 27.2351 199.749 27.2846 200.864 27.2846C203.564 27.2846 205.2 27.2351 205.769 27.136C205.769 26.6652 205.794 26.3183 205.794 26.0706C205.794 23.0726 205.175 20.8427 203.961 19.3809C202.747 17.9191 201.087 17.2006 198.956 17.2006C196.652 17.2006 194.868 18.0182 193.579 19.6782C192.291 21.3383 191.647 23.7664 191.647 26.9873L191.672 26.9625Z" fill="#3B7C93"/>
<path d="M60.0583 91.6789V90.9356L60.2566 90.6383C62.0653 89.9693 63.5518 89.3251 64.6668 88.7553C64.6668 83.7009 64.6172 80.7525 64.4934 79.9348C66.4755 79.2411 68.1107 78.4978 69.3991 77.7049L70.0929 78.2748C69.8947 79.4889 69.6717 83.0319 69.3991 88.904C70.3654 88.904 71.406 88.9287 72.5457 88.9287C74.8252 88.9287 76.4604 88.8792 77.4515 88.7553L77.6497 88.9535L77.1046 91.3816L76.8816 91.6542C75.8906 91.6542 74.8004 91.6294 73.6111 91.6294C72.521 91.6294 71.1335 91.6294 69.4239 91.6542L69.2505 103.473C69.2505 106.198 69.3248 107.982 69.4487 108.824C69.5726 109.667 69.9194 110.336 70.4893 110.806C71.0591 111.277 71.9015 111.525 73.0413 111.525C74.3297 111.525 75.5437 111.178 76.6339 110.509L77.3276 111.55C76.8569 111.872 75.7419 112.838 73.9828 114.449C72.9669 114.919 71.9511 115.142 70.9105 115.142C66.5498 115.142 64.3695 113.036 64.3695 108.824C64.3695 107.288 64.419 105.95 64.4934 104.885C64.4934 104.563 64.5181 104.216 64.5181 103.869V91.8276H63.3289C62.4617 91.8276 61.4706 91.8771 60.3309 91.9515L60.0583 91.7285V91.6789Z" fill="#3B7C93"/>
<path d="M88.0558 71.4613L88.6009 71.8081C88.3779 74.038 88.2788 78.4978 88.2788 85.1875V92.3479C89.9141 91.01 91.4254 89.6968 92.8129 88.3589C93.2093 87.9872 93.6058 87.7147 93.9774 87.5412C94.3491 87.3678 94.9437 87.1944 95.7613 86.9962C96.579 86.7979 97.4214 86.6988 98.3133 86.6988C99.7751 86.6988 101.212 86.9962 102.6 87.5908C103.987 88.1854 105.028 88.904 105.746 89.7216C106.465 90.5392 106.936 91.5055 107.208 92.6452C107.481 93.7849 107.605 95.1477 107.605 96.8077V101.912C107.605 102.234 107.654 104.662 107.753 109.146C107.803 110.98 108.026 112.07 108.373 112.417C108.719 112.764 109.934 112.937 111.965 112.937L112.188 113.16V114.399L111.965 114.622C109.512 114.473 107.852 114.399 106.96 114.399C106.514 114.399 105.102 114.473 102.724 114.622L102.377 114.3C102.624 111.773 102.748 108.502 102.748 104.464V100.648C102.748 98.3686 102.699 96.7086 102.6 95.7175C102.501 94.7265 102.178 93.7849 101.633 92.9673C101.088 92.1497 100.37 91.5055 99.4778 91.0595C98.5859 90.6135 97.4957 90.3658 96.2073 90.3658C94.9189 90.3658 93.804 90.5392 92.912 90.9109C92.0201 91.2825 91.1281 91.8771 90.2362 92.7196C89.3442 93.562 88.7743 94.2805 88.6009 94.8503C88.4275 95.4202 88.3284 96.5104 88.3284 98.1456V103.324C88.3284 103.745 88.3779 105.108 88.4523 107.437C88.5266 109.766 88.6009 111.104 88.7 111.475C88.7991 111.847 88.923 112.144 89.0964 112.318C89.2699 112.491 89.4929 112.615 89.7406 112.64C89.9884 112.665 91.029 112.764 92.8873 112.888L93.1598 113.111V114.325L92.9368 114.597C90.5087 114.449 88.1797 114.374 85.9498 114.374C83.7199 114.374 81.3909 114.449 78.9876 114.597L78.7151 114.325V113.111L78.9876 112.888C80.8706 112.764 81.936 112.689 82.159 112.615C82.382 112.541 82.605 112.442 82.8032 112.243C83.0014 112.045 83.1005 111.773 83.1748 111.401C83.2492 111.029 83.3235 109.766 83.3978 107.66C83.4722 105.554 83.5217 103.943 83.5217 102.853V87.8138L83.3978 81.6692C83.3483 79.5136 83.274 78.027 83.1996 77.2094C83.1253 76.3918 83.051 75.8715 82.9271 75.7228C82.8032 75.5742 82.605 75.4503 82.3077 75.376C82.0103 75.3016 80.8458 75.2521 78.7894 75.2521L78.5168 74.9795V73.7655L78.7398 73.4929C82.4315 73.0717 85.5534 72.3532 88.0806 71.3374L88.0558 71.4613Z" fill="#3B7C93"/>
<path d="M123.685 86.798L124.23 87.1696C124.007 89.6968 123.908 92.9178 123.908 96.8325V103.398C123.908 103.819 123.957 105.182 124.031 107.511C124.106 109.84 124.18 111.178 124.279 111.55C124.378 111.921 124.502 112.219 124.676 112.392C124.849 112.566 125.072 112.689 125.32 112.714C125.568 112.739 126.608 112.838 128.466 112.962L128.739 113.185V114.399L128.516 114.672C126.088 114.523 123.759 114.449 121.529 114.449C119.299 114.449 116.97 114.523 114.567 114.672L114.294 114.399V113.185L114.567 112.962C116.45 112.838 117.515 112.764 117.738 112.689C117.961 112.615 118.184 112.516 118.382 112.318C118.581 112.12 118.68 111.847 118.754 111.475C118.828 111.104 118.903 109.84 118.977 107.734C119.051 105.628 119.101 104.018 119.101 102.928V97.2041C119.101 96.436 119.051 95.3706 118.977 94.0327C118.903 92.6948 118.828 91.8772 118.779 91.5551C118.729 91.233 118.581 91.01 118.333 90.8613C118.085 90.7127 117.59 90.6383 116.821 90.6383H114.393L114.121 90.3658V89.127L114.344 88.904C118.036 88.458 121.157 87.7395 123.685 86.7236V86.798ZM121.207 73.815C122.124 73.815 122.892 74.1371 123.536 74.7813C124.18 75.4255 124.502 76.1936 124.502 77.1103C124.502 78.027 124.18 78.7703 123.536 79.4145C122.892 80.0587 122.124 80.3808 121.207 80.3808C120.29 80.3808 119.547 80.0587 118.903 79.4393C118.259 78.8199 117.936 78.0518 117.936 77.1351C117.936 76.2184 118.259 75.4503 118.903 74.8061C119.547 74.1619 120.315 73.8398 121.207 73.8398V73.815Z" fill="#3B7C93"/>
<path d="M140.136 86.798L140.681 87.1696C140.557 88.458 140.483 90.1676 140.458 92.2736C141.995 90.9852 143.481 89.6968 144.869 88.3837C145.265 88.012 145.661 87.7395 146.008 87.566C146.355 87.3926 146.95 87.2192 147.792 87.0209C148.635 86.8227 149.477 86.7236 150.344 86.7236C151.806 86.7236 153.243 87.0209 154.631 87.6156C156.018 88.2102 157.059 88.9287 157.777 89.7464C158.496 90.564 158.966 91.5303 159.239 92.67C159.512 93.8097 159.635 95.1724 159.635 96.8325V101.936C159.635 102.259 159.685 104.687 159.784 109.171C159.834 111.005 160.032 112.095 160.403 112.442C160.775 112.789 161.964 112.962 163.996 112.962L164.219 113.185V114.424L163.996 114.647C161.543 114.498 159.883 114.424 158.991 114.424C158.496 114.424 157.083 114.498 154.754 114.647L154.408 114.325C154.655 111.798 154.779 108.527 154.779 104.488V100.673C154.779 98.3934 154.73 96.7334 154.631 95.7423C154.531 94.7512 154.209 93.8097 153.664 92.9921C153.119 92.1745 152.401 91.5303 151.484 91.0843C150.567 90.6383 149.502 90.3906 148.238 90.3906C147.222 90.3906 146.38 90.4897 145.661 90.6879C144.943 90.8861 144.15 91.3073 143.258 91.9267C142.366 92.5461 141.722 93.1408 141.276 93.6858C140.83 94.2309 140.582 94.7512 140.508 95.222C140.434 95.6927 140.384 96.7086 140.384 98.2447V103.299C140.384 103.72 140.434 105.083 140.508 107.412C140.582 109.741 140.657 111.079 140.756 111.451C140.855 111.822 140.979 112.12 141.152 112.293C141.326 112.466 141.549 112.59 141.796 112.615C142.044 112.64 143.085 112.739 144.943 112.863L145.215 113.086V114.3L144.992 114.572C142.564 114.424 140.235 114.349 138.005 114.349C135.776 114.349 133.447 114.424 131.043 114.572L130.771 114.3V113.086L131.043 112.863C132.926 112.739 133.992 112.665 134.215 112.59C134.438 112.516 134.661 112.417 134.859 112.219C135.057 112.02 135.156 111.748 135.231 111.376C135.305 111.005 135.379 109.741 135.453 107.635C135.528 105.529 135.577 103.919 135.577 102.828V97.105C135.577 96.3369 135.528 95.2715 135.453 93.9336C135.379 92.5957 135.305 91.778 135.255 91.4559C135.206 91.1338 135.057 90.9109 134.809 90.7622C134.562 90.6135 134.066 90.5392 133.298 90.5392H130.87L130.597 90.2667V89.0278L130.82 88.8049C134.512 88.3589 137.634 87.6404 140.161 86.6245L140.136 86.798Z" fill="#3B7C93"/>
<path d="M196.899 88.8048L197.122 89.3252C196.329 90.5392 195.834 91.3321 195.636 91.7037H190.234C190.78 92.7691 191.052 93.884 191.052 95.0485C191.052 96.4113 190.73 97.7492 190.111 99.0623C189.491 100.376 188.599 101.466 187.484 102.382C186.369 103.299 185.081 104.018 183.669 104.563C182.256 105.108 180.621 105.38 178.812 105.38H177.474C176.335 106.297 175.591 106.966 175.269 107.412C174.947 107.858 174.774 108.304 174.774 108.775C174.774 109.617 175.17 110.237 175.938 110.583C176.706 110.93 178.342 111.104 180.795 111.104L187.286 111.005C189.342 111.005 190.903 111.252 191.994 111.723C193.084 112.194 193.976 113.061 194.645 114.325C195.314 115.588 195.66 116.901 195.66 118.289C195.66 120.42 194.967 122.551 193.579 124.657C192.192 126.763 190.185 128.398 187.583 129.488C184.982 130.578 182.182 131.148 179.209 131.148C177.524 131.148 175.938 130.975 174.452 130.603C172.965 130.231 171.677 129.686 170.562 128.943C169.447 128.2 168.555 127.233 167.886 126.019C167.217 124.805 166.87 123.566 166.87 122.278C166.87 121.559 166.969 120.816 167.192 120.023C167.415 119.23 167.812 118.388 168.406 117.471L173.659 114.548C171.974 114.027 170.909 113.507 170.487 112.987C170.066 112.466 169.843 111.847 169.843 111.153C169.843 110.46 170.091 109.543 170.562 108.552L175.245 105.182C172.494 104.464 170.636 103.398 169.695 101.961C168.753 100.524 168.258 98.9632 168.258 97.2537C168.258 95.6927 168.604 94.1814 169.273 92.7691C169.942 91.3568 170.983 90.2171 172.346 89.3499C173.708 88.4828 175.245 87.8138 176.929 87.343C178.614 86.8723 180.175 86.5997 181.563 86.5997C183.991 86.5997 186.295 87.3926 188.475 88.9535C191.969 88.9535 194.769 88.904 196.875 88.8296L196.899 88.8048ZM181.81 115.018C178.689 115.018 176.905 115.068 176.434 115.142C175.963 115.217 175.294 115.539 174.427 116.133C173.56 116.728 172.841 117.496 172.296 118.512C171.751 119.528 171.479 120.618 171.479 121.857C171.479 124.037 172.296 125.821 173.907 127.209C175.517 128.596 177.697 129.265 180.398 129.265C182.43 129.265 184.313 128.844 186.022 127.977C187.732 127.109 189.02 125.994 189.838 124.557C190.656 123.12 191.077 121.758 191.077 120.445C191.077 119.131 190.73 117.992 190.036 117.05C189.342 116.109 188.451 115.539 187.36 115.341C186.27 115.142 184.412 115.043 181.81 115.043V115.018ZM173.312 95.5441C173.312 96.7333 173.535 97.997 174.006 99.3597C174.477 100.722 175.22 101.738 176.26 102.432C177.301 103.126 178.466 103.473 179.754 103.473C181.488 103.473 182.95 102.903 184.214 101.788C185.477 100.673 186.097 98.9137 186.097 96.5351C186.097 94.5282 185.527 92.7195 184.387 91.1091C183.247 89.4986 181.637 88.7057 179.531 88.7057C177.772 88.7057 176.285 89.2756 175.096 90.4401C173.907 91.6046 173.312 93.2894 173.312 95.5688V95.5441Z" fill="#3B7C93"/>
<path d="M200.938 105.925H202.177L202.449 106.198C202.499 107.833 202.573 109.221 202.747 110.385C203.341 111.302 204.382 112.045 205.844 112.615C207.305 113.185 208.767 113.482 210.204 113.482C212.261 113.482 213.896 112.937 215.135 111.822C216.374 110.707 216.968 109.394 216.968 107.883C216.968 107.04 216.745 106.322 216.299 105.727C215.853 105.133 215.184 104.612 214.292 104.216C213.4 103.819 211.79 103.349 209.461 102.804C207.479 102.333 206.067 101.986 205.274 101.713C204.481 101.441 203.713 101.02 202.97 100.4C202.226 99.7809 201.681 99.0128 201.285 98.1208C200.888 97.2289 200.715 96.2378 200.715 95.1476C200.715 92.5461 201.756 90.4896 203.812 88.9287C205.868 87.3678 208.445 86.5997 211.517 86.5997C212.806 86.5997 214.218 86.7732 215.754 87.1448C217.29 87.5165 218.455 87.8386 219.248 88.1854L219.52 88.5819C219.372 89.3499 219.273 91.3816 219.223 94.6769L218.95 94.9494H217.786L217.513 94.6769C217.439 93.4876 217.34 92.67 217.191 92.1992C217.043 91.7285 216.696 91.2082 216.151 90.6631C215.606 90.118 214.788 89.6473 213.772 89.2756C212.756 88.904 211.666 88.7057 210.526 88.7057C209.387 88.7057 208.346 88.8792 207.553 89.2261C206.76 89.5729 206.091 90.0932 205.596 90.8117C205.1 91.5303 204.853 92.3727 204.853 93.3885C204.853 94.1318 205.001 94.776 205.299 95.3706C205.596 95.9653 206.067 96.4113 206.686 96.7829C207.305 97.1546 207.95 97.4023 208.643 97.551L211.815 98.3686C214.515 99.0376 216.473 99.6074 217.637 100.078C218.802 100.549 219.719 101.292 220.363 102.259C221.007 103.225 221.329 104.414 221.329 105.826C221.329 108.502 220.214 110.782 218.009 112.714C215.804 114.647 212.954 115.588 209.511 115.588C208.297 115.588 206.785 115.464 204.976 115.192C203.168 114.919 201.632 114.622 200.343 114.3L200.195 113.928L200.492 111.971C200.591 111.376 200.641 110.757 200.665 110.162C200.69 109.568 200.715 108.279 200.715 106.322L200.987 106.049L200.938 105.925Z" fill="#3B7C93"/>
<path d="M0.470742 209.417C1.18926 208.525 2.5272 208.352 3.49348 209.145C6.51622 211.375 11.3477 214.224 16.8728 214.224C20.2672 214.224 23.2156 213.158 25.173 211.548C27.3038 210.111 28.4683 208.154 28.4683 206.196C28.3692 204.14 27.5763 202.728 25.3464 200.844C23.4634 199.407 20.3415 198.342 16.08 197.624L15.9065 197.524C11.9918 196.806 8.49835 195.914 5.99592 194.13C3.22094 192.52 1.26359 189.67 1.26359 186.276C1.26359 182.881 3.22094 179.76 5.99592 177.703C8.57268 175.919 12.2396 174.755 16.6994 174.755C22.3237 174.755 26.3375 177.332 29.7319 179.487C30.7229 180.206 30.9707 181.544 30.3513 182.51C29.7319 183.501 28.3939 183.749 27.4029 183.129C24.1819 180.998 20.9857 178.769 16.6994 178.769C13.1316 178.769 10.2823 179.76 8.39924 181.271C6.61533 182.708 5.62427 184.492 5.62427 186.276C5.62427 188.06 6.41712 189.299 8.1267 190.637C10.0841 191.974 13.0325 193.04 17.0463 193.659H17.2197C21.4069 194.279 24.8013 195.542 27.8241 197.227C30.6734 199.11 32.7298 202.48 32.7298 206.147C32.7298 209.814 30.6734 212.737 27.725 214.967C24.7022 217.197 21.1344 218.436 16.8481 218.436C9.81151 218.337 4.26156 215.041 0.693731 212.192C-0.198225 211.399 -0.297331 210.235 0.421189 209.343L0.470742 209.417Z" fill="#F7921E"/>
<path d="M47.571 162.689C47.571 161.524 48.5621 160.558 49.7018 160.558C50.9407 160.558 51.9317 161.549 51.9317 162.689V164.745C51.9317 165.984 50.9407 167.074 49.7018 167.074C48.5373 167.074 47.571 166.009 47.571 164.745V162.689ZM47.571 176.96C47.571 175.721 48.5621 174.829 49.7018 174.829C50.9407 174.829 51.9317 175.721 51.9317 176.96V216.379C51.9317 217.544 50.9407 218.51 49.7018 218.51C48.5373 218.51 47.571 217.519 47.571 216.379V176.96Z" fill="#F7921E"/>
<path d="M135.057 192.668C134.884 185.26 128.987 179.115 121.504 179.115C114.022 179.115 108.026 185.26 108.026 192.668V216.751L107.927 216.925V217.098C107.753 217.643 107.307 217.99 106.861 218.262C106.514 218.436 106.143 218.535 105.796 218.535H105.35L105.177 218.436C105.003 218.436 104.83 218.262 104.631 218.163C104.532 218.163 104.458 218.064 104.359 217.99L104.086 217.717C104.086 217.717 103.987 217.544 103.913 217.544C103.913 217.544 103.88 217.486 103.814 217.37C103.814 217.37 103.814 217.271 103.715 217.197C103.715 217.098 103.715 217.024 103.616 216.925V192.668C103.616 185.26 97.6444 179.115 90.1371 179.115C82.6298 179.115 76.6587 185.26 76.6587 192.668V216.479C76.6587 217.197 76.3118 217.816 75.6676 218.163C75.5685 218.262 75.3207 218.436 75.1225 218.436C75.0234 218.535 74.9491 218.535 74.7757 218.535H74.2306C73.4377 218.436 72.7192 217.742 72.4467 216.925V176.96C72.4467 175.795 73.4377 174.903 74.5031 174.903C75.7419 174.903 76.6339 175.795 76.6339 176.96V181.147C79.8549 177.307 84.6615 174.903 90.1123 174.903C96.9011 174.903 102.699 178.645 105.722 184.17C108.843 178.645 114.74 174.903 121.43 174.903C131.241 174.903 139.17 182.832 139.17 192.643V216.454C139.17 217.519 138.278 218.51 137.039 218.51C135.875 218.51 134.983 217.519 134.983 216.454V192.643L135.057 192.668Z" fill="#F7921E"/>
<path d="M157.356 197.376V176.96C157.356 175.795 158.347 174.829 159.487 174.829C160.726 174.829 161.717 175.82 161.717 176.96V183.303C165.458 178.224 171.528 174.829 178.317 174.829C190.086 174.829 199.451 184.542 199.451 196.509C199.451 208.476 190.086 218.262 178.317 218.262C171.528 218.262 165.483 214.868 161.717 209.69V234.665C161.717 235.829 160.726 236.795 159.487 236.795C158.322 236.795 157.356 235.804 157.356 234.665V197.376ZM161.717 196.484C161.717 206.122 169.298 213.877 178.317 213.951C187.583 213.852 195.091 206.097 195.091 196.484C195.091 186.871 187.608 179.19 178.317 179.19C169.026 179.19 162.088 186.499 161.717 195.79V196.509V196.484Z" fill="#F7921E"/>
<path d="M215.16 158.229C215.16 157.064 216.151 156.098 217.29 156.098C218.529 156.098 219.52 157.089 219.52 158.229V216.379C219.52 217.544 218.529 218.51 217.29 218.51C216.126 218.51 215.16 217.519 215.16 216.379V158.229Z" fill="#F7921E"/>
<path d="M237.731 196.756C237.731 184.616 247.196 174.829 258.965 174.829C270.734 174.829 279.133 183.749 280.025 195.171V195.518C280.025 196.682 279.034 197.475 277.894 197.475H242.042C242.488 207.014 249.971 214.249 258.99 214.249C264.787 214.249 270.139 211.226 273.087 206.32C273.707 205.255 275.045 205.081 275.937 205.602C276.928 206.32 277.275 207.559 276.655 208.624C272.914 214.596 266.398 218.535 258.99 218.535C247.221 218.535 237.756 208.723 237.756 196.781L237.731 196.756ZM242.29 193.288H275.367C273.93 185.087 266.992 179.115 258.965 179.115C250.937 179.115 243.901 185.012 242.29 193.288Z" fill="#F7921E"/>
</g>
<path d="M273.631 60.994C262.598 57.4625 251.011 62.7943 247.757 72.9501C246.533 76.7816 246.695 80.7286 247.895 84.3754C248.472 86.8913 249.28 91.7845 249.303 98.9859C249.303 100.786 249.072 102.517 249.003 104.041C248.888 105.864 249.534 107.665 251.357 108.242L253.365 108.888V108.842L257.197 96.8855L255.904 82.4135C255.812 81.698 256.366 81.144 257.128 81.0979C257.866 81.0979 258.536 81.6518 258.582 82.3442L259.944 97.2779L255.974 109.673V109.719L259.69 110.919V110.873L263.66 98.4781L273.423 87.1221C273.908 86.5912 274.716 86.522 275.339 86.9605C275.916 87.4452 276.054 88.2069 275.616 88.7609L266.106 99.7707L262.275 111.727V111.773L264.237 112.396C266.106 112.996 267.676 111.888 268.645 110.342C269.43 109.026 270.284 107.503 271.346 106.049C275.547 100.186 279.055 96.7009 280.971 94.9698C284.064 92.7078 286.441 89.5687 287.687 85.7372C290.942 75.5814 284.641 64.5254 273.608 60.994H273.631Z" stroke="#BFBFBF" stroke-linejoin="round"/>
<path d="M263.937 114.127L250.642 109.88C249.834 109.626 248.957 109.996 248.726 110.734C248.472 111.496 248.957 112.304 249.788 112.581L263.083 116.828C263.89 117.082 264.768 116.712 265.021 115.951C265.252 115.235 264.768 114.404 263.96 114.15L263.937 114.127Z" stroke="#BFBFBF" stroke-linejoin="round"/>
<path d="M262.482 118.651L249.188 114.404C248.38 114.15 247.503 114.543 247.249 115.281C247.041 115.905 247.364 116.574 247.941 116.966L262.021 121.467C262.713 121.49 263.36 121.121 263.544 120.498C263.775 119.759 263.313 118.928 262.482 118.651Z" stroke="#BFBFBF" stroke-linejoin="round"/>
<path d="M261.121 122.875L247.826 118.628C247.018 118.374 246.141 118.767 245.887 119.574C245.656 120.336 246.118 121.167 246.949 121.421L249.603 122.275H249.534L257.635 124.883C257.635 124.883 257.612 124.814 257.543 124.814L260.244 125.668C261.051 125.922 261.929 125.529 262.182 124.768C262.436 123.983 261.952 123.129 261.144 122.875H261.121Z" stroke="#BFBFBF" stroke-linejoin="round"/>
<path d="M252.396 127.261C254.843 128.045 257.151 127.791 257.843 126.66L248.31 123.614C248.218 124.929 249.949 126.476 252.396 127.261Z" stroke="#BFBFBF" stroke-linejoin="round"/>
<path d="M275.385 58.2704C276.377 58.5935 277.37 58.1319 277.67 57.2317L279.817 50.5381C280.094 49.661 279.54 48.6916 278.57 48.3685C277.578 48.0453 276.585 48.507 276.285 49.4071L274.139 56.1007C273.862 56.9778 274.416 57.9472 275.385 58.2704Z" stroke="#BFBFBF" stroke-linejoin="round"/>
<path d="M300.105 66.8567C299.62 66.0257 298.512 65.6564 297.658 66.0719L291.034 69.1648C290.157 69.5572 289.857 70.5497 290.319 71.3806C290.549 71.8422 290.942 72.1192 291.357 72.2577C291.796 72.3962 292.304 72.4193 292.765 72.1654L299.366 69.1186C300.244 68.7262 300.567 67.6876 300.082 66.8567H300.105Z" stroke="#BFBFBF" stroke-linejoin="round"/>
<path d="M301.236 87.2606L294.081 84.9755C293.135 84.6755 292.119 85.1371 291.842 86.0603C291.565 86.9836 292.096 87.9299 293.042 88.23L300.197 90.5151C301.144 90.8151 302.136 90.3535 302.436 89.4302C302.736 88.5301 302.182 87.5606 301.236 87.2606Z" stroke="#BFBFBF" stroke-linejoin="round"/>
<path d="M252.257 59.2167C252.488 59.6784 252.858 59.9553 253.296 60.0938C253.781 60.2554 254.242 60.2554 254.704 60.0015C255.581 59.586 255.881 58.6166 255.42 57.7857L251.819 51.4152C251.357 50.5843 250.249 50.2381 249.372 50.6305C248.495 51.0228 248.172 52.0615 248.657 52.8924L252.28 59.2167H252.257Z" stroke="#BFBFBF" stroke-linejoin="round"/>
<path d="M243.902 68.934L236.608 66.6028C235.639 66.3027 234.646 66.7643 234.346 67.6645C234.046 68.5647 234.6 69.5341 235.57 69.8342L242.863 72.1654C243.833 72.4654 244.825 72.0038 245.125 71.1036C245.425 70.2035 244.871 69.234 243.902 68.934Z" stroke="#BFBFBF" stroke-linejoin="round"/>
<defs>
<clipPath id="clip0_2_744">
<rect width="280" height="236.691" fill="white" transform="translate(0 0.104736)"/>
</clipPath>
</defs>
</svg>
