<svg width="869" height="350" viewBox="0 0 869 350" fill="none" xmlns="http://www.w3.org/2000/svg">
<rect y="0.449951" width="849" height="330" rx="10" fill="white"/>
<rect x="1.02344" y="1.44995" width="849" height="330" rx="10" fill="white"/>
<rect x="2.04492" y="2.44995" width="849" height="330" rx="10" fill="white"/>
<rect x="3.06836" y="3.44995" width="849" height="330" rx="10" fill="white"/>
<rect x="4.09155" y="4.44995" width="849" height="330" rx="10" fill="white"/>
<rect x="5.11523" y="5.44995" width="849" height="330" rx="10" fill="white"/>
<rect x="6.13672" y="6.44995" width="849" height="330" rx="10" fill="white"/>
<rect x="7.16016" y="7.44995" width="849" height="330" rx="10" fill="white"/>
<rect x="8.18359" y="8.44995" width="849" height="330" rx="10" fill="white"/>
<rect x="9.20508" y="9.44995" width="849" height="330" rx="10" fill="white"/>
<rect x="10.2285" y="10.45" width="849" height="330" rx="10" fill="white"/>
<rect x="11.2517" y="11.45" width="849" height="330" rx="10" fill="white"/>
<rect x="12.2734" y="12.45" width="849" height="330" rx="10" fill="white"/>
<rect x="13.2969" y="13.45" width="849" height="330" rx="10" fill="white"/>
<rect x="14.3206" y="14.45" width="849" height="330" rx="10" fill="white"/>
<rect x="15.3438" y="15.45" width="849" height="330" rx="10" fill="white"/>
<rect x="16.3672" y="16.45" width="849" height="330" rx="10" fill="white"/>
<rect x="17.3887" y="17.45" width="849" height="330" rx="10" fill="white"/>
<rect x="18.4121" y="18.45" width="849" height="330" rx="10" fill="white"/>
<rect x="19.4336" y="19.45" width="849" height="330" rx="10" fill="white"/>
</svg>
