<svg width="40" height="41" viewBox="0 0 40 41" fill="none" xmlns="http://www.w3.org/2000/svg">
<g clip-path="url(#clip0_56_189)">
<rect y="0.470703" width="40" height="40" rx="20" fill="#5F5F5F"/>
<path d="M17.5088 24.2175L24.0145 20.4706L17.5088 16.7236V24.2175Z" fill="#F7921E"/>
<path d="M20 0.470703C8.95599 0.470703 0 9.4267 0 20.4707C0 31.5147 8.95599 40.4707 20 40.4707C31.044 40.4707 40 31.5147 40 20.4707C40 9.4267 31.044 0.470703 20 0.470703ZM32.4969 20.4911C32.4969 20.4911 32.4969 24.5472 31.9824 26.5031C31.694 27.5737 30.8499 28.4178 29.7794 28.7059C27.8235 29.2207 20 29.2207 20 29.2207C20 29.2207 12.197 29.2207 10.2206 28.6854C9.15009 28.3973 8.30597 27.5529 8.01758 26.4824C7.50275 24.5472 7.50275 20.4707 7.50275 20.4707C7.50275 20.4707 7.50275 16.4149 8.01758 14.459C8.30566 13.3885 9.17053 12.5236 10.2206 12.2355C12.1765 11.7207 20 11.7207 20 11.7207C20 11.7207 27.8235 11.7207 29.7794 12.256C30.8499 12.5441 31.694 13.3885 31.9824 14.459C32.5177 16.4149 32.4969 20.4911 32.4969 20.4911Z" fill="#F7921E"/>
</g>
<defs>
<clipPath id="clip0_56_189">
<rect y="0.470703" width="40" height="40" rx="20" fill="white"/>
</clipPath>
</defs>
</svg>
