<svg width="28" height="29" viewBox="0 0 28 29" fill="none" xmlns="http://www.w3.org/2000/svg">
<g clip-path="url(#clip0_1_858)">
<path d="M4.45406 23.8958C1.92232 21.3641 0.5 17.9303 0.5 14.3499C0.5 10.7694 1.92232 7.33565 4.45406 4.80391C6.9858 2.27217 10.4196 0.849854 14 0.849854C17.5804 0.849854 21.0142 2.27217 23.5459 4.80391C26.0777 7.33565 27.5 10.7694 27.5 14.3499C27.5 17.9303 26.0777 21.3641 23.5459 23.8958C21.0142 26.4275 17.5804 27.8499 14 27.8499C10.4196 27.8499 6.9858 26.4275 4.45406 23.8958ZM10.2453 19.9106C10.4116 19.8392 10.5621 19.7356 10.6883 19.6059L17 13.2942V16.9311C17 17.2958 17.1449 17.6455 17.4027 17.9034C17.6606 18.1612 18.0103 18.3061 18.375 18.3061C18.7397 18.3061 19.0894 18.1612 19.3473 17.9034C19.6051 17.6455 19.75 17.2958 19.75 16.9311V9.97485C19.75 9.61018 19.6051 9.26044 19.3473 9.00258C19.0894 8.74472 18.7397 8.59985 18.375 8.59985H11.4187C11.0541 8.59985 10.7043 8.74472 10.4465 9.00258C10.1886 9.26044 10.0437 9.61018 10.0437 9.97485C10.0437 10.3395 10.1886 10.6893 10.4465 10.9471C10.7043 11.205 11.0541 11.3499 11.4187 11.3499H15.0556L8.74392 17.6616C8.61422 17.7877 8.51068 17.9383 8.43925 18.1045C8.36719 18.2723 8.32926 18.4527 8.32767 18.6353C8.32609 18.8179 8.36088 18.9989 8.43001 19.1679C8.49915 19.3369 8.60125 19.4904 8.73035 19.6195L9.0839 19.2659L8.73035 19.6195C8.85945 19.7486 9.01297 19.8507 9.18196 19.9198C9.35094 19.989 9.532 20.0238 9.71457 20.0222C9.89715 20.0206 10.0776 19.9827 10.2453 19.9106Z" fill="#FFAA48" stroke="white"/>
</g>
<defs>
<clipPath id="clip0_1_858">
<rect width="28" height="28" fill="white" transform="translate(0 0.349854)"/>
</clipPath>
</defs>
</svg>
