<svg width="41" height="29" viewBox="0 0 41 29" fill="none" xmlns="http://www.w3.org/2000/svg">
<g clip-path="url(#clip0_1_882)">
<mask id="path-1-inside-1_1_882" fill="white">
<path d="M40.2654 6.03429C40.1833 5.9521 40.0274 5.85229 39.9185 5.81226L39.9137 5.81066C39.8048 5.77063 39.6538 5.74715 39.5785 5.75889C39.5033 5.77063 39.3677 5.71992 39.2775 5.6468L39.2674 5.6388C39.1772 5.56568 39.0678 5.41783 39.024 5.31055L38.9941 5.2369C38.9503 5.12962 38.8196 5.04743 38.7038 5.05436L38.4289 5.07091C38.3131 5.07785 38.1513 5.01647 38.0691 4.93427L37.9453 4.81045C37.8631 4.72825 37.7041 4.63699 37.592 4.6071L36.8816 4.41923C36.7695 4.38987 36.5827 4.37012 36.4669 4.37653L36.0863 4.39681C35.9705 4.40268 35.9038 4.479 35.939 4.566C35.9737 4.653 35.915 4.76188 35.8083 4.80725L35.7528 4.83073C35.646 4.87663 35.559 4.83287 35.559 4.73466C35.559 4.63645 35.4832 4.54572 35.3904 4.53451C35.2975 4.52277 35.155 4.54198 35.0739 4.57668C34.9927 4.61137 34.8353 4.61244 34.7243 4.57934C34.7243 4.57934 34.7152 4.57668 34.6522 4.55533C34.5887 4.53398 34.1665 4.50622 34.1665 4.50622C34.0507 4.49875 33.8618 4.4806 33.7465 4.46619L33.4897 4.43417C33.3745 4.41976 33.2805 4.36532 33.2805 4.31301C33.2805 4.26071 33.2005 4.16677 33.1028 4.10379C33.1028 4.10379 32.9848 4.028 32.8797 3.94367C32.774 3.85934 32.7212 3.87696 32.7212 3.87696C32.6112 3.91378 32.4308 3.92926 32.3203 3.91218C32.2099 3.89457 32.0311 3.91432 31.9227 3.95541L31.8741 3.97409C31.7658 4.01519 31.595 4.00131 31.4947 3.94314L31.3527 3.86041C31.2524 3.8017 31.0896 3.73979 30.9914 3.72217C30.8926 3.70456 30.8499 3.64799 30.8964 3.59568C30.9428 3.54337 30.8921 3.46598 30.7843 3.42329L30.5863 3.34536C30.4784 3.30266 30.3375 3.27758 30.274 3.28932C30.21 3.30106 30.0669 3.28291 29.9559 3.24929L29.8743 3.22474C29.7632 3.19111 29.6202 3.17724 29.5562 3.19485C29.4921 3.21246 29.3469 3.20766 29.2333 3.18524L29.2252 3.18364C29.1116 3.16069 28.928 3.15162 28.818 3.16336C28.7081 3.1751 28.6173 3.23648 28.6173 3.30053V3.55352C28.6173 3.62877 28.5223 3.69068 28.4065 3.69068H28.2378C28.1215 3.69068 27.932 3.68748 27.8162 3.68321L27.647 3.67734C27.5312 3.67307 27.3604 3.65065 27.2675 3.6277C27.1747 3.60422 27.0562 3.59995 27.0039 3.61703C26.9516 3.63464 26.8758 3.70563 26.8352 3.77555C26.7946 3.84493 26.6948 3.92606 26.6137 3.95488C26.5326 3.9837 26.429 3.92019 26.3842 3.81291L26.3789 3.80117C26.334 3.69442 26.2545 3.53057 26.2022 3.4377C26.1499 3.34483 26.0789 3.20232 26.0437 3.12119C26.009 3.04007 25.8916 2.93919 25.7832 2.89756L25.6284 2.83832C25.5201 2.79669 25.3365 2.76626 25.2207 2.77107L25.115 2.77534C24.9992 2.78014 24.8615 2.82177 24.8092 2.86821C24.7569 2.91464 24.6192 2.94933 24.5033 2.9456L24.3133 2.93919C24.1975 2.93546 24.0166 2.89116 23.912 2.84099L23.8501 2.81163C23.7454 2.76199 23.565 2.71289 23.4492 2.70328L23.3633 2.69635C23.2475 2.68674 23.0724 2.69314 22.9737 2.71022C22.8749 2.72784 22.7015 2.72143 22.5883 2.69635L22.4303 2.66112C22.3172 2.63603 22.1309 2.63176 22.0167 2.65098L21.8208 2.6846C21.7066 2.70435 21.6175 2.67766 21.6233 2.62536C21.6292 2.57305 21.6767 2.51594 21.729 2.49887C21.7813 2.48125 21.8897 2.39852 21.9703 2.31473L22.1843 2.09163C22.2649 2.00783 22.3967 1.9107 22.4778 1.876C22.559 1.84131 22.6257 1.7367 22.6257 1.64383C22.6257 1.55096 22.5355 1.44528 22.4255 1.40846C22.4255 1.40846 21.8662 1.22218 21.8027 1.22218C21.7392 1.22218 21.3805 1.20137 21.3175 1.20137C21.2545 1.20137 21.1921 1.13946 21.1921 1.13946C21.1099 1.05726 20.9957 0.947313 20.9375 0.895541C20.8793 0.843235 20.7368 0.800537 20.621 0.800537H20.431C20.3152 0.800537 20.1684 0.880063 20.1054 0.977735L20.1027 0.982005C20.0398 1.07968 19.8994 1.19336 19.791 1.23499L19.6363 1.29424C19.5279 1.33587 19.3443 1.37003 19.2285 1.37003H19.0598C18.944 1.37003 18.7604 1.40525 18.6531 1.44849L18.4119 1.54509C18.3041 1.58832 18.121 1.62355 18.0052 1.62355C17.8894 1.62355 17.7063 1.65931 17.5985 1.70254L16.8929 1.98755C16.7851 2.03078 16.6073 2.09643 16.4969 2.13326L16.3277 2.18984C16.2177 2.22666 16.1275 2.35156 16.1275 2.46738V2.48872C16.1275 2.60454 16.0325 2.69955 15.9167 2.69955H15.7267C15.6109 2.69955 15.4251 2.7273 15.3141 2.76093L15.2325 2.78601C15.1214 2.81964 15.0921 2.8997 15.1679 2.96374C15.2431 3.02779 15.305 3.16069 15.305 3.2589C15.305 3.3571 15.2106 3.43022 15.0947 3.42062L15.0088 3.41368C14.893 3.40407 14.7153 3.3507 14.6139 3.29466L14.5616 3.26584C14.4601 3.20979 14.315 3.20712 14.2397 3.2589C14.1645 3.3112 14.1602 3.42916 14.2306 3.52149L14.2488 3.54498C14.3192 3.63731 14.2819 3.71257 14.1661 3.71257C14.1661 3.71257 13.9552 3.71257 13.8917 3.6704C13.8282 3.62824 13.8101 3.60475 13.8101 3.60475C13.7391 3.51295 13.6531 3.52896 13.6201 3.64051L13.6147 3.65813C13.5816 3.76914 13.5592 3.95488 13.5651 4.0707C13.5651 4.0707 13.5966 4.68289 13.5544 4.93588C13.5122 5.18886 13.5224 5.25505 13.5224 5.25505C13.54 5.3698 13.4615 5.48242 13.3473 5.50483L13.3393 5.50643C13.2256 5.52938 13.1477 5.45413 13.1659 5.33938L13.2043 5.10187C13.223 4.98711 13.2379 4.79871 13.2379 4.68235V4.19719C13.2379 4.13368 13.1792 3.87535 13.1792 3.87535C13.1536 3.7622 13.1675 3.58127 13.2107 3.47399L13.2651 3.33842C13.3084 3.23061 13.2577 3.10198 13.1525 3.05288C13.1525 3.05288 12.9849 2.97389 12.8371 2.99523C12.6892 3.01658 12.6652 3.14628 12.6652 3.14628C12.6439 3.2605 12.5617 3.42329 12.4832 3.50868L12.2633 3.74726C12.1843 3.83266 12.0589 3.97463 11.9836 4.06323L11.8982 4.16357C11.823 4.25217 11.8166 4.40215 11.8833 4.49662L11.8929 4.51049C11.9596 4.6055 12.0541 4.76935 12.1021 4.87503L12.1384 4.95509C12.1865 5.06077 12.1368 5.11468 12.0274 5.07465L11.7904 4.98765C11.6815 4.94762 11.507 4.87343 11.4024 4.82273L10.9589 4.60656C10.8543 4.55586 10.6835 4.47367 10.5783 4.42403L10.5586 4.41496C10.454 4.36532 10.273 4.32476 10.1567 4.32476H10.0302C9.91437 4.32476 9.89622 4.38026 9.99016 4.44805C9.99016 4.44805 10.1988 4.59856 10.2624 4.59856C10.3259 4.59856 10.336 4.66421 10.336 4.66421C10.3536 4.77896 10.2971 4.91079 10.2101 4.95722C10.1231 5.00366 10.0088 5.02768 9.95707 5.01006C9.90476 4.99245 9.80068 4.97857 9.72489 4.97857C9.6491 4.97857 9.49432 4.99672 9.38064 5.0186L9.24667 5.04422C9.13245 5.06611 8.99208 5.10293 8.93391 5.12642C8.87573 5.1499 8.78073 5.1024 8.72308 5.02074C8.66491 4.93961 8.54161 4.90172 8.44875 4.93641C8.35588 4.9711 8.22618 5.07785 8.16 5.17339C8.16 5.17339 8.09008 5.27426 7.73141 5.27426H7.37275C7.39623 5.36713 7.33912 5.50056 7.24679 5.57048L7.05518 5.71619C6.96284 5.78664 6.91534 5.75302 6.95003 5.64253L7.0349 5.37033C7.06959 5.25932 7.00287 5.16912 6.88705 5.16912H6.73921C6.65488 5.16912 6.62873 5.5075 6.62873 5.5075C6.61965 5.62332 6.546 5.75568 6.46487 5.80212C6.38375 5.84855 6.30315 5.97665 6.28554 6.08713C6.26793 6.19761 6.25191 6.38228 6.25031 6.49864L6.23697 7.21597C6.23483 7.33179 6.27647 7.51112 6.3293 7.61467L6.55881 8.06193C6.61165 8.16494 6.64848 8.34427 6.63994 8.46009C6.63994 8.46009 6.5919 9.1358 6.63406 9.19931C6.67623 9.26282 6.89132 9.78481 6.89132 9.78481C6.93562 9.89209 6.93349 10.0511 6.88705 10.1381C6.84062 10.2251 6.8182 10.3901 6.83688 10.5048L6.93776 11.1223C6.95644 11.2371 6.94256 11.4212 6.90733 11.5317L6.85343 11.6998C6.8182 11.8103 6.78885 11.9955 6.78885 12.1119V12.2805C6.78885 12.3964 6.77123 12.5848 6.74988 12.699L6.73654 12.7694C6.71519 12.8836 6.64901 13.0587 6.5903 13.1585L6.53052 13.2594C6.47128 13.3592 6.45687 13.53 6.49796 13.6383L6.58016 13.8556C6.62125 13.9639 6.66235 14.1475 6.67196 14.2633C6.67196 14.2633 6.69758 14.5804 6.76056 14.6647C6.82407 14.749 6.7739 15.5512 6.7739 15.5512C6.76643 15.667 6.67409 15.801 6.56842 15.849C6.56842 15.849 6.06404 16.078 5.97971 16.0994C5.89538 16.1207 5.43104 15.9729 5.22021 15.9515C5.00939 15.9302 4.66887 15.7535 4.66887 15.7535C4.56586 15.7001 4.45805 15.6943 4.42923 15.7407C4.40041 15.7871 4.32889 15.8773 4.27071 15.9409C4.21253 16.0049 4.0743 16.0295 3.96328 15.9953L3.88162 15.9707C3.7706 15.9371 3.62276 15.8901 3.55338 15.8672C3.48399 15.8437 3.33508 15.8005 3.223 15.7706L2.99776 15.7108C2.88568 15.6809 2.70048 15.6393 2.58626 15.6179L2.43148 15.5891C2.31726 15.5678 2.14433 15.6025 2.04719 15.6654L1.97887 15.7097C1.88173 15.7733 1.71201 15.8154 1.60153 15.8037C1.49104 15.7919 1.38697 15.8064 1.36935 15.8352C1.35174 15.864 1.35654 15.9307 1.38003 15.983C1.40351 16.0353 1.3464 16.1351 1.25353 16.2045C1.25353 16.2045 1.1692 16.268 0.810538 16.268H0.448669C0.559685 16.2915 0.671235 16.3433 0.697388 16.3844C0.723007 16.4249 0.731013 16.552 0.714467 16.6673C0.714467 16.6673 0.680842 16.9016 0.660026 16.9859L0.638677 17.0702C0.650419 17.1748 0.702725 17.2741 0.75503 17.2917C0.807336 17.3093 0.908745 17.3979 0.980798 17.4892L1.03577 17.5591C1.10783 17.6504 1.23272 17.7155 1.31438 17.7038C1.39551 17.692 1.50972 17.6162 1.56737 17.5351C1.62554 17.454 1.71521 17.4721 1.76698 17.5762L1.81021 17.6627C1.86199 17.7662 1.95699 17.7897 2.0205 17.7144C2.08455 17.6392 2.23133 17.5735 2.34715 17.5687L2.43201 17.565C2.54783 17.5602 2.68073 17.5228 2.72716 17.4823C2.7736 17.4417 2.90596 17.4171 3.02178 17.4284L3.04473 17.4305C3.16002 17.4417 3.2737 17.5266 3.29719 17.6194C3.32067 17.7123 3.26997 17.8527 3.18457 17.9317C3.18457 17.9317 3.04366 18.0624 2.98068 18.0832C2.91717 18.1046 2.92624 18.2524 2.92624 18.2524C2.93318 18.3683 2.88675 18.5428 2.82377 18.6399L2.77947 18.7082C2.71649 18.8054 2.61881 18.9682 2.56277 19.0701L2.53395 19.1224C2.47791 19.2244 2.43201 19.4021 2.43201 19.5184V19.7506C2.43201 19.8141 2.59533 20.2897 2.59533 20.2897C2.63323 20.3996 2.73463 20.5528 2.82056 20.6302C2.82056 20.6302 2.87447 20.6788 2.87447 20.7423C2.87447 20.8058 3.06448 21.101 3.16962 21.3753L3.2753 21.6496C3.34469 21.6496 3.43702 21.7377 3.48025 21.8455L3.49253 21.8759C3.53576 21.9837 3.57099 22.1524 3.57099 22.2511C3.57099 22.3499 3.63237 22.5031 3.70709 22.5917C3.70709 22.5917 3.80263 22.7048 3.84533 22.7891L3.88749 22.8735C3.93393 22.8852 4.00011 22.985 4.03427 23.096C4.03427 23.096 4.16183 23.5065 4.18264 23.5695C4.20346 23.633 4.34169 23.8054 4.34169 23.8054C4.41375 23.8961 4.51142 24.0573 4.55839 24.1635L4.58347 24.2201C4.63044 24.3263 4.64539 24.5056 4.6171 24.6177C4.6171 24.6177 4.54184 24.9193 4.47833 25.0249C4.41482 25.1306 4.75267 25.1306 4.75267 25.1306C4.86902 25.1306 5.05689 25.1119 5.17058 25.089L5.17858 25.0874C5.29227 25.0644 5.45239 24.979 5.53458 24.8968L5.59489 24.8365C5.67709 24.7543 5.81532 24.6871 5.90232 24.6871C5.98932 24.6871 6.14837 24.6508 6.25512 24.606C6.25512 24.606 6.31383 24.5814 6.46114 24.4341C6.60898 24.2863 6.65168 24.283 6.65168 24.283C6.7675 24.2734 6.93295 24.2131 7.01995 24.1496C7.10695 24.0856 7.266 23.9986 7.37381 23.9553L7.40424 23.9431C7.51205 23.8998 7.6284 23.7888 7.66363 23.6959C7.69832 23.6031 7.79333 23.5412 7.87445 23.5588C7.95558 23.5764 8.05539 23.5193 8.09595 23.4323C8.13651 23.3453 8.22725 23.1985 8.2977 23.1062L8.44341 22.9146C8.51333 22.8222 8.58538 22.6707 8.60246 22.5778C8.62007 22.4849 8.7012 22.3419 8.78339 22.2597L8.86452 22.178C8.94672 22.0958 8.93657 21.9731 8.84264 21.9053C8.84264 21.9053 8.63395 21.7548 8.44394 21.6491C8.25393 21.5434 8.10609 21.3539 8.02176 21.3326C7.93743 21.3112 7.65616 21.3849 7.65616 21.3849C7.54407 21.4142 7.41384 21.4383 7.36741 21.4383C7.32097 21.4383 7.21583 21.5055 7.13364 21.5877L7.11549 21.6059C7.03329 21.6881 6.89719 21.6902 6.81233 21.6107L6.78244 21.5829C6.69758 21.5034 6.57162 21.3769 6.5017 21.3016C6.43231 21.2264 6.38481 21.07 6.39602 20.9547V20.9526C6.40776 20.8373 6.35065 20.6761 6.26953 20.595C6.1884 20.5138 6.07311 20.366 6.01334 20.2662L5.97758 20.2059C5.9178 20.1066 5.90232 19.9492 5.94288 19.8563C5.98345 19.7634 6.11101 19.6786 6.22683 19.6674L6.24978 19.6652C6.36506 19.654 6.53105 19.7079 6.61859 19.7842L6.80753 19.9497C6.89506 20.026 6.99967 20.1456 7.04023 20.2155C7.0808 20.2849 7.19074 20.3986 7.28415 20.4674L7.34553 20.5122C7.43893 20.5811 7.60545 20.6281 7.71593 20.6163C7.82588 20.6046 7.9353 20.6569 7.95878 20.7321C7.98227 20.8074 8.09435 20.8875 8.20803 20.9099L8.76471 21.0188C8.8784 21.0412 9.0668 21.0609 9.18262 21.0636L9.85779 21.0764C9.97361 21.0785 10.162 21.0625 10.2757 21.0406L10.4097 21.015C10.5239 20.9931 10.6792 21.0465 10.7555 21.134C10.7555 21.134 10.9119 21.3128 10.9119 21.4185C10.9119 21.5242 11.191 21.6763 11.191 21.6763C11.293 21.7318 11.4141 21.8108 11.4606 21.8514C11.507 21.8919 11.5353 21.9587 11.5241 21.9992C11.5124 22.0398 11.5268 22.154 11.5556 22.2522C11.5844 22.3509 11.6463 22.4935 11.6928 22.5687C11.7392 22.644 11.8246 22.6632 11.8828 22.6109C11.9409 22.5586 12.0498 22.4449 12.1256 22.3579C12.2009 22.2709 12.2665 22.2944 12.2713 22.4102L12.2745 22.4951C12.2793 22.6109 12.322 22.7923 12.3701 22.898C12.3701 22.898 12.4736 23.1275 12.4736 23.2119C12.4736 23.2962 12.4442 23.7819 12.4442 23.7819C12.4373 23.8977 12.4571 24.084 12.4891 24.1955C12.4891 24.1955 12.7479 25.1109 12.8115 25.1738C12.875 25.2374 12.9801 25.849 13.0436 25.9125C13.1071 25.976 13.2059 26.1346 13.2059 26.1346C13.2673 26.2328 13.3489 26.403 13.3873 26.5124L13.3959 26.5359C13.4343 26.6453 13.5133 26.7163 13.571 26.6928C13.6291 26.6694 13.7001 26.6032 13.7289 26.545C13.7578 26.4868 13.8101 26.3923 13.8448 26.3342L13.9291 26.1442C14.0134 25.9542 14.1399 25.9542 14.1399 25.8912V25.8068C14.1399 25.691 14.1303 25.5293 14.1186 25.4482V25.3847C14.1186 25.3212 14.2376 25.2112 14.2376 25.2112C14.323 25.1327 14.371 24.9753 14.3454 24.8627L14.3139 24.7255C14.2878 24.6124 14.2904 24.4629 14.3192 24.3935C14.3481 24.3241 14.4383 24.2478 14.5199 24.2249C14.6011 24.2019 14.6678 24.14 14.6678 24.0877C14.6678 24.0354 14.7249 23.9831 14.7943 23.9719C14.8642 23.9601 14.9586 23.8795 15.0051 23.7926C15.0515 23.7056 15.1551 23.5657 15.2351 23.4814L15.3659 23.3437C15.4459 23.2599 15.5927 23.1419 15.6925 23.0822L15.858 22.9829C15.9578 22.9231 16.0346 22.7795 16.0288 22.6637L16.0277 22.6424C16.0224 22.5265 16.0934 22.384 16.1862 22.3259C16.2791 22.2677 16.436 22.2581 16.5342 22.305C16.633 22.3515 16.7659 22.3707 16.8294 22.3472C16.8934 22.3237 16.9452 22.2341 16.9452 22.1471C16.9452 22.0601 16.9831 21.9128 17.0295 21.8199C17.076 21.727 17.1758 21.7126 17.251 21.7884C17.3263 21.8636 17.369 22.011 17.346 22.1156C17.3225 22.2202 17.3562 22.3622 17.4197 22.4321C17.4837 22.5015 17.5766 22.6445 17.6262 22.7491L17.6353 22.7689C17.6849 22.8735 17.7778 23.0357 17.8419 23.1281C17.9059 23.2209 17.9737 23.3907 17.9924 23.5049L18.0073 23.5951C18.0265 23.7098 18.0276 23.8934 18.0105 24.0039C17.9929 24.1139 18.0313 24.2046 18.0948 24.2046C18.1584 24.2046 18.2822 24.1667 18.3692 24.1203C18.4562 24.0738 18.5277 23.9932 18.5277 23.9409C18.5277 23.8886 18.5987 23.8363 18.6862 23.8251C18.7732 23.8134 18.8229 23.8897 18.7967 23.9938C18.7705 24.0984 18.778 24.274 18.8127 24.385C18.8127 24.385 18.9493 24.8168 18.9493 24.9011C18.9493 24.9854 19.0155 25.2053 19.0155 25.2053C19.0486 25.3163 19.0289 25.4882 18.9707 25.587C18.9125 25.6857 18.8874 25.8586 18.9141 25.9712L18.9221 26.0038C18.9488 26.1164 19.0166 26.292 19.0726 26.3939L19.1015 26.4463C19.1575 26.5482 19.2232 26.7238 19.2482 26.8375L19.2642 26.9106C19.2888 27.0238 19.3742 27.186 19.4532 27.2709L19.4809 27.3008C19.5605 27.3856 19.6384 27.5489 19.6544 27.6637L19.6811 27.8574C19.6971 27.9722 19.7681 28.1414 19.8391 28.2337C19.8391 28.2337 20.0686 28.531 20.1321 28.5518C20.1956 28.5732 20.5228 28.7776 20.5228 28.7776C20.621 28.839 20.6797 28.7968 20.653 28.6842L20.645 28.6516C20.6183 28.539 20.6007 28.3517 20.6066 28.2358C20.6124 28.1195 20.5719 27.9412 20.5169 27.8388C20.5169 27.8388 20.3216 27.4758 20.2581 27.4128C20.1945 27.3493 19.9415 27.075 19.9207 27.012C19.8994 26.9485 19.7307 26.822 19.7307 26.822C19.6379 26.7521 19.5146 26.6133 19.4564 26.513L19.4356 26.4772C19.3774 26.3769 19.3491 26.2141 19.3721 26.1153C19.395 26.0166 19.41 25.841 19.4041 25.7252L19.403 25.7038C19.3977 25.588 19.4025 25.3985 19.4142 25.2833V25.2811C19.426 25.1658 19.5066 25.0804 19.5936 25.0922C19.6806 25.1039 19.8279 25.1514 19.9207 25.1979C20.0136 25.2443 20.1321 25.358 20.1844 25.4508C20.2367 25.5437 20.2842 25.691 20.2901 25.778C20.2959 25.865 20.3952 25.9456 20.5105 25.9574H20.5126C20.6279 25.9691 20.6941 26.0593 20.6594 26.158C20.6247 26.2568 20.5911 26.418 20.5858 26.5167C20.5799 26.6154 20.6375 26.6245 20.7139 26.537L20.7315 26.5172C20.8078 26.4297 20.9466 26.3016 21.0394 26.2317L21.1238 26.1682C21.2166 26.0988 21.3164 25.9894 21.3453 25.9253C21.3741 25.8618 21.4739 25.7668 21.5668 25.7145C21.6596 25.6622 21.7685 25.5624 21.8096 25.493C21.8502 25.4231 21.9083 25.2747 21.9382 25.1626L21.9761 25.0217C22.0065 24.9096 22.0023 24.7276 21.9665 24.6172C21.9665 24.6172 21.8619 24.2905 21.8197 24.164C21.7776 24.0375 21.4397 23.7632 21.3554 23.7418C21.2711 23.7205 21.1553 23.5855 21.1553 23.5855C21.08 23.4974 21.0389 23.3325 21.0645 23.2193L21.0763 23.1665C21.1019 23.0533 21.1504 22.8697 21.1835 22.7587L21.1889 22.7411C21.222 22.6301 21.3447 22.5388 21.4605 22.5388H21.5027C21.6185 22.5388 21.7941 22.5009 21.8929 22.4545C21.9916 22.4081 22.1672 22.3702 22.283 22.3702H22.6417C22.7575 22.3702 22.8952 22.2944 22.9475 22.2015C22.9998 22.1086 23.0804 22.0611 23.1269 22.0958C23.1733 22.1305 23.2886 22.1038 23.383 22.0366L23.4828 21.9656C23.5773 21.8983 23.7406 21.8033 23.8463 21.7548L24.0118 21.6784C24.1169 21.6299 24.2461 21.505 24.2979 21.4014L24.3624 21.2723C24.4142 21.1687 24.4911 20.9953 24.5338 20.8869L24.5701 20.7946C24.6122 20.6868 24.6955 20.5165 24.7542 20.4162L25.0883 19.851C25.1476 19.7511 25.1294 19.6076 25.0477 19.5323C24.9666 19.4571 24.9405 19.3092 24.9901 19.2046L24.9992 19.1849C25.0488 19.0802 25.0403 18.9132 24.9794 18.8139L24.9671 18.7942C24.9068 18.6954 24.8124 18.5305 24.7579 18.428L24.6192 18.1676C24.5647 18.0651 24.5754 17.9044 24.6432 17.8105C24.6432 17.8105 24.7937 17.6018 24.8786 17.5805C24.9629 17.5597 25.0056 17.423 25.0056 17.423C25.0403 17.312 25.0114 17.1503 24.9421 17.0633C24.8727 16.9763 24.7296 16.9459 24.625 16.9955L24.5631 17.0249C24.4585 17.075 24.3534 17.0254 24.3304 16.9149C24.3075 16.8044 24.3598 16.6518 24.4468 16.5755C24.4468 16.5755 24.6256 16.4191 24.6891 16.3134C24.7526 16.2077 24.9554 16.133 24.9554 16.133C25.0643 16.093 25.163 16.1362 25.1742 16.2291C25.186 16.3219 25.2815 16.3582 25.3872 16.3097L25.5527 16.2333C25.6578 16.1848 25.8062 16.2115 25.8814 16.2926C25.9567 16.3737 25.9999 16.5333 25.977 16.647L25.954 16.7607C25.9311 16.8743 25.9834 17.0307 26.0698 17.1081L26.1563 17.1855C26.2428 17.2629 26.3186 17.4209 26.3244 17.5367C26.3244 17.5367 26.3346 17.7267 26.2711 17.7267C26.2075 17.7267 25.9967 18.1697 25.9332 18.2332C25.8697 18.2967 26.1654 18.5076 26.2284 18.5076H26.2913C26.3725 18.5657 26.4813 18.5284 26.5336 18.4243C26.5336 18.4243 26.6927 18.1067 26.7557 18.001C26.8192 17.8954 26.8576 17.7219 26.8576 17.7219C26.8827 17.6088 26.9105 17.4214 26.9195 17.3056L26.9291 17.1775C26.9382 17.0617 26.8838 16.9197 26.808 16.8615C26.7327 16.8034 26.666 16.6801 26.6601 16.5872C26.6543 16.4943 26.7167 16.3513 26.7989 16.2691C26.7989 16.2691 26.9238 16.1442 26.9873 16.1036C27.0508 16.0636 27.1197 15.8192 27.1197 15.8192C27.1512 15.7076 27.2334 15.54 27.3028 15.4466L27.4106 15.3009C27.4794 15.2075 27.6214 15.1456 27.726 15.1627C27.8306 15.1798 27.9918 15.1563 28.0847 15.1098C28.1775 15.0634 28.303 14.9444 28.3638 14.8456L28.3755 14.8259C28.4364 14.7266 28.5725 14.6071 28.6782 14.5601C28.6782 14.5601 28.865 14.4768 28.9285 14.4139C28.992 14.3503 29.0176 14.0125 29.0176 14.0125C29.0267 13.8967 29.0811 13.72 29.1393 13.6191C29.1393 13.6191 29.3501 13.2535 29.4772 13.1687C29.6037 13.0843 29.5791 12.7881 29.5791 12.7881C29.5695 12.6723 29.5823 12.485 29.6079 12.3718L29.6629 12.1295C29.6885 12.0163 29.6794 11.8338 29.6426 11.7233L29.586 11.5541C29.5492 11.4442 29.4419 11.2985 29.3475 11.2312C29.3475 11.2312 29.0763 11.0375 28.9707 10.974C28.865 10.9104 28.7993 10.9003 28.7993 10.9003C28.6846 10.8827 28.5111 10.8165 28.4134 10.7535L28.4092 10.7509C28.312 10.6879 28.3147 10.5891 28.415 10.5315L28.4919 10.4877C28.5928 10.4301 28.7193 10.2988 28.7732 10.1963L28.8095 10.1269C28.8634 10.0239 28.9744 9.87288 29.0566 9.79068L29.2226 9.62469C29.3048 9.5425 29.4425 9.41227 29.5289 9.33488L29.6154 9.25749C29.7019 9.1801 29.862 9.08402 29.9709 9.04399L29.9757 9.04239C30.0846 9.00236 30.2687 8.97248 30.3845 8.97674L30.5959 8.98368C30.7117 8.98742 30.8734 8.99062 30.9545 8.99062C31.0357 8.99062 31.1968 8.98635 31.3132 8.98048L31.3345 8.97941C31.4504 8.97408 31.6025 9.02638 31.6719 9.09577C31.7412 9.16568 31.8902 9.19718 32.0022 9.16675L32.0594 9.15127C32.1714 9.12085 32.3566 9.11124 32.4709 9.13046L32.6876 9.16675C32.8018 9.18597 32.8781 9.10804 32.8562 8.99436L32.8509 8.96554C32.829 8.85132 32.8541 8.67359 32.9058 8.56951L33.0126 8.35602C33.0644 8.25194 33.1994 8.14519 33.312 8.11851L33.3446 8.1105C33.4577 8.08381 33.6307 8.04272 33.7294 8.01923C33.8281 7.99628 33.905 8.07207 33.9007 8.18789L33.8954 8.33574C33.8911 8.45155 33.9397 8.49906 34.0037 8.44088C34.0678 8.3827 34.2007 8.30691 34.2989 8.27222C34.3976 8.23753 34.4868 8.11424 34.4974 7.99895L34.5012 7.95519C34.5118 7.83937 34.6154 7.7449 34.7312 7.7449C34.847 7.7449 34.9394 7.8399 34.9362 7.95572L34.9276 8.2418C34.9244 8.35762 34.8321 8.48465 34.7227 8.52307L34.6773 8.53909C34.5679 8.57805 34.4131 8.67839 34.333 8.76272L34.2226 8.87854C34.1425 8.96287 34.0176 9.10537 33.9445 9.19557L33.8511 9.31086C33.778 9.40106 33.6675 9.55531 33.6056 9.65298C33.6056 9.65298 33.4652 9.87555 33.4017 9.89636C33.3387 9.91771 33.233 10.3815 33.233 10.4659C33.233 10.5502 33.2544 11.0775 33.2965 11.2467C33.3387 11.4154 33.5244 11.6507 33.5244 11.6507C33.5965 11.742 33.6034 11.8957 33.5399 11.9934L33.4956 12.0617C33.4326 12.1588 33.3312 12.3195 33.2715 12.4193L33.0681 12.7545C33.0078 12.8538 33.0489 12.9157 33.1594 12.8927C33.2699 12.8692 33.414 12.7726 33.4796 12.6771L33.8516 12.138C33.9178 12.0425 34.0005 11.8738 34.0363 11.7633L34.0971 11.5744C34.1329 11.4639 34.1996 11.2878 34.246 11.1837C34.2925 11.0791 34.4062 10.9462 34.499 10.8886C34.5919 10.8304 34.7307 10.7119 34.8075 10.6249L34.8449 10.5827C34.9217 10.4957 34.9559 10.3773 34.9212 10.3191C34.8865 10.2609 34.87 10.1195 34.8844 10.0042L34.8956 9.91664C34.91 9.80136 34.879 9.70262 34.8267 9.69675C34.7744 9.69088 34.7083 9.61509 34.6789 9.52809C34.6501 9.44109 34.6688 9.28471 34.7205 9.18116L34.7851 9.052C34.8369 8.94846 34.9367 8.83958 35.0061 8.81075C35.0755 8.78193 35.2265 8.74404 35.3413 8.72696C35.3413 8.72696 35.7021 8.67359 35.7656 8.67359C35.8291 8.67359 36.0746 8.76699 36.0746 8.76699C36.1829 8.80809 36.3244 8.76325 36.389 8.66665C36.389 8.66665 36.4407 8.58926 36.5886 8.45316C36.7364 8.31705 37.4538 8.14626 37.4538 8.08275C37.4538 8.01923 37.6422 7.83083 37.6422 7.83083C37.7244 7.74863 37.8861 7.68832 38.0019 7.69633L38.193 7.70967C38.3088 7.71768 38.3985 7.65309 38.3931 7.5661C38.3873 7.4791 38.3349 7.3462 38.2773 7.27094C38.2191 7.19569 38.1385 7.08627 38.098 7.0281C38.0574 6.96992 37.9453 6.87011 37.8487 6.80553C37.8487 6.80553 37.7713 6.75376 37.7713 6.66943C37.7713 6.5851 38.1513 6.55788 38.1513 6.55788C38.2672 6.54934 38.3995 6.51411 38.446 6.47942C38.4924 6.44473 38.5351 6.33532 38.541 6.23658C38.5468 6.13784 38.5959 6.14104 38.6498 6.24405L38.6643 6.27127C38.7182 6.37374 38.8479 6.45327 38.9525 6.4474C39.0571 6.44153 39.23 6.47355 39.3373 6.51785C39.3373 6.51785 39.3955 6.5424 39.459 6.58457C39.522 6.62673 39.6965 6.87598 39.6965 6.87598C39.7632 6.97099 39.8652 7.02009 39.9228 6.9854C39.981 6.95071 40.0653 6.83435 40.1101 6.72761L40.1149 6.71586C40.1598 6.60912 40.2729 6.47409 40.3658 6.41591C40.4587 6.35773 40.4677 6.24351 40.3855 6.16132L40.2617 6.03803L40.2654 6.03429Z"/>
</mask>
<path d="M40.2654 6.03429C40.1833 5.9521 40.0274 5.85229 39.9185 5.81226L39.9137 5.81066C39.8048 5.77063 39.6538 5.74715 39.5785 5.75889C39.5033 5.77063 39.3677 5.71992 39.2775 5.6468L39.2674 5.6388C39.1772 5.56568 39.0678 5.41783 39.024 5.31055L38.9941 5.2369C38.9503 5.12962 38.8196 5.04743 38.7038 5.05436L38.4289 5.07091C38.3131 5.07785 38.1513 5.01647 38.0691 4.93427L37.9453 4.81045C37.8631 4.72825 37.7041 4.63699 37.592 4.6071L36.8816 4.41923C36.7695 4.38987 36.5827 4.37012 36.4669 4.37653L36.0863 4.39681C35.9705 4.40268 35.9038 4.479 35.939 4.566C35.9737 4.653 35.915 4.76188 35.8083 4.80725L35.7528 4.83073C35.646 4.87663 35.559 4.83287 35.559 4.73466C35.559 4.63645 35.4832 4.54572 35.3904 4.53451C35.2975 4.52277 35.155 4.54198 35.0739 4.57668C34.9927 4.61137 34.8353 4.61244 34.7243 4.57934C34.7243 4.57934 34.7152 4.57668 34.6522 4.55533C34.5887 4.53398 34.1665 4.50622 34.1665 4.50622C34.0507 4.49875 33.8618 4.4806 33.7465 4.46619L33.4897 4.43417C33.3745 4.41976 33.2805 4.36532 33.2805 4.31301C33.2805 4.26071 33.2005 4.16677 33.1028 4.10379C33.1028 4.10379 32.9848 4.028 32.8797 3.94367C32.774 3.85934 32.7212 3.87696 32.7212 3.87696C32.6112 3.91378 32.4308 3.92926 32.3203 3.91218C32.2099 3.89457 32.0311 3.91432 31.9227 3.95541L31.8741 3.97409C31.7658 4.01519 31.595 4.00131 31.4947 3.94314L31.3527 3.86041C31.2524 3.8017 31.0896 3.73979 30.9914 3.72217C30.8926 3.70456 30.8499 3.64799 30.8964 3.59568C30.9428 3.54337 30.8921 3.46598 30.7843 3.42329L30.5863 3.34536C30.4784 3.30266 30.3375 3.27758 30.274 3.28932C30.21 3.30106 30.0669 3.28291 29.9559 3.24929L29.8743 3.22474C29.7632 3.19111 29.6202 3.17724 29.5562 3.19485C29.4921 3.21246 29.3469 3.20766 29.2333 3.18524L29.2252 3.18364C29.1116 3.16069 28.928 3.15162 28.818 3.16336C28.7081 3.1751 28.6173 3.23648 28.6173 3.30053V3.55352C28.6173 3.62877 28.5223 3.69068 28.4065 3.69068H28.2378C28.1215 3.69068 27.932 3.68748 27.8162 3.68321L27.647 3.67734C27.5312 3.67307 27.3604 3.65065 27.2675 3.6277C27.1747 3.60422 27.0562 3.59995 27.0039 3.61703C26.9516 3.63464 26.8758 3.70563 26.8352 3.77555C26.7946 3.84493 26.6948 3.92606 26.6137 3.95488C26.5326 3.9837 26.429 3.92019 26.3842 3.81291L26.3789 3.80117C26.334 3.69442 26.2545 3.53057 26.2022 3.4377C26.1499 3.34483 26.0789 3.20232 26.0437 3.12119C26.009 3.04007 25.8916 2.93919 25.7832 2.89756L25.6284 2.83832C25.5201 2.79669 25.3365 2.76626 25.2207 2.77107L25.115 2.77534C24.9992 2.78014 24.8615 2.82177 24.8092 2.86821C24.7569 2.91464 24.6192 2.94933 24.5033 2.9456L24.3133 2.93919C24.1975 2.93546 24.0166 2.89116 23.912 2.84099L23.8501 2.81163C23.7454 2.76199 23.565 2.71289 23.4492 2.70328L23.3633 2.69635C23.2475 2.68674 23.0724 2.69314 22.9737 2.71022C22.8749 2.72784 22.7015 2.72143 22.5883 2.69635L22.4303 2.66112C22.3172 2.63603 22.1309 2.63176 22.0167 2.65098L21.8208 2.6846C21.7066 2.70435 21.6175 2.67766 21.6233 2.62536C21.6292 2.57305 21.6767 2.51594 21.729 2.49887C21.7813 2.48125 21.8897 2.39852 21.9703 2.31473L22.1843 2.09163C22.2649 2.00783 22.3967 1.9107 22.4778 1.876C22.559 1.84131 22.6257 1.7367 22.6257 1.64383C22.6257 1.55096 22.5355 1.44528 22.4255 1.40846C22.4255 1.40846 21.8662 1.22218 21.8027 1.22218C21.7392 1.22218 21.3805 1.20137 21.3175 1.20137C21.2545 1.20137 21.1921 1.13946 21.1921 1.13946C21.1099 1.05726 20.9957 0.947313 20.9375 0.895541C20.8793 0.843235 20.7368 0.800537 20.621 0.800537H20.431C20.3152 0.800537 20.1684 0.880063 20.1054 0.977735L20.1027 0.982005C20.0398 1.07968 19.8994 1.19336 19.791 1.23499L19.6363 1.29424C19.5279 1.33587 19.3443 1.37003 19.2285 1.37003H19.0598C18.944 1.37003 18.7604 1.40525 18.6531 1.44849L18.4119 1.54509C18.3041 1.58832 18.121 1.62355 18.0052 1.62355C17.8894 1.62355 17.7063 1.65931 17.5985 1.70254L16.8929 1.98755C16.7851 2.03078 16.6073 2.09643 16.4969 2.13326L16.3277 2.18984C16.2177 2.22666 16.1275 2.35156 16.1275 2.46738V2.48872C16.1275 2.60454 16.0325 2.69955 15.9167 2.69955H15.7267C15.6109 2.69955 15.4251 2.7273 15.3141 2.76093L15.2325 2.78601C15.1214 2.81964 15.0921 2.8997 15.1679 2.96374C15.2431 3.02779 15.305 3.16069 15.305 3.2589C15.305 3.3571 15.2106 3.43022 15.0947 3.42062L15.0088 3.41368C14.893 3.40407 14.7153 3.3507 14.6139 3.29466L14.5616 3.26584C14.4601 3.20979 14.315 3.20712 14.2397 3.2589C14.1645 3.3112 14.1602 3.42916 14.2306 3.52149L14.2488 3.54498C14.3192 3.63731 14.2819 3.71257 14.1661 3.71257C14.1661 3.71257 13.9552 3.71257 13.8917 3.6704C13.8282 3.62824 13.8101 3.60475 13.8101 3.60475C13.7391 3.51295 13.6531 3.52896 13.6201 3.64051L13.6147 3.65813C13.5816 3.76914 13.5592 3.95488 13.5651 4.0707C13.5651 4.0707 13.5966 4.68289 13.5544 4.93588C13.5122 5.18886 13.5224 5.25505 13.5224 5.25505C13.54 5.3698 13.4615 5.48242 13.3473 5.50483L13.3393 5.50643C13.2256 5.52938 13.1477 5.45413 13.1659 5.33938L13.2043 5.10187C13.223 4.98711 13.2379 4.79871 13.2379 4.68235V4.19719C13.2379 4.13368 13.1792 3.87535 13.1792 3.87535C13.1536 3.7622 13.1675 3.58127 13.2107 3.47399L13.2651 3.33842C13.3084 3.23061 13.2577 3.10198 13.1525 3.05288C13.1525 3.05288 12.9849 2.97389 12.8371 2.99523C12.6892 3.01658 12.6652 3.14628 12.6652 3.14628C12.6439 3.2605 12.5617 3.42329 12.4832 3.50868L12.2633 3.74726C12.1843 3.83266 12.0589 3.97463 11.9836 4.06323L11.8982 4.16357C11.823 4.25217 11.8166 4.40215 11.8833 4.49662L11.8929 4.51049C11.9596 4.6055 12.0541 4.76935 12.1021 4.87503L12.1384 4.95509C12.1865 5.06077 12.1368 5.11468 12.0274 5.07465L11.7904 4.98765C11.6815 4.94762 11.507 4.87343 11.4024 4.82273L10.9589 4.60656C10.8543 4.55586 10.6835 4.47367 10.5783 4.42403L10.5586 4.41496C10.454 4.36532 10.273 4.32476 10.1567 4.32476H10.0302C9.91437 4.32476 9.89622 4.38026 9.99016 4.44805C9.99016 4.44805 10.1988 4.59856 10.2624 4.59856C10.3259 4.59856 10.336 4.66421 10.336 4.66421C10.3536 4.77896 10.2971 4.91079 10.2101 4.95722C10.1231 5.00366 10.0088 5.02768 9.95707 5.01006C9.90476 4.99245 9.80068 4.97857 9.72489 4.97857C9.6491 4.97857 9.49432 4.99672 9.38064 5.0186L9.24667 5.04422C9.13245 5.06611 8.99208 5.10293 8.93391 5.12642C8.87573 5.1499 8.78073 5.1024 8.72308 5.02074C8.66491 4.93961 8.54161 4.90172 8.44875 4.93641C8.35588 4.9711 8.22618 5.07785 8.16 5.17339C8.16 5.17339 8.09008 5.27426 7.73141 5.27426H7.37275C7.39623 5.36713 7.33912 5.50056 7.24679 5.57048L7.05518 5.71619C6.96284 5.78664 6.91534 5.75302 6.95003 5.64253L7.0349 5.37033C7.06959 5.25932 7.00287 5.16912 6.88705 5.16912H6.73921C6.65488 5.16912 6.62873 5.5075 6.62873 5.5075C6.61965 5.62332 6.546 5.75568 6.46487 5.80212C6.38375 5.84855 6.30315 5.97665 6.28554 6.08713C6.26793 6.19761 6.25191 6.38228 6.25031 6.49864L6.23697 7.21597C6.23483 7.33179 6.27647 7.51112 6.3293 7.61467L6.55881 8.06193C6.61165 8.16494 6.64848 8.34427 6.63994 8.46009C6.63994 8.46009 6.5919 9.1358 6.63406 9.19931C6.67623 9.26282 6.89132 9.78481 6.89132 9.78481C6.93562 9.89209 6.93349 10.0511 6.88705 10.1381C6.84062 10.2251 6.8182 10.3901 6.83688 10.5048L6.93776 11.1223C6.95644 11.2371 6.94256 11.4212 6.90733 11.5317L6.85343 11.6998C6.8182 11.8103 6.78885 11.9955 6.78885 12.1119V12.2805C6.78885 12.3964 6.77123 12.5848 6.74988 12.699L6.73654 12.7694C6.71519 12.8836 6.64901 13.0587 6.5903 13.1585L6.53052 13.2594C6.47128 13.3592 6.45687 13.53 6.49796 13.6383L6.58016 13.8556C6.62125 13.9639 6.66235 14.1475 6.67196 14.2633C6.67196 14.2633 6.69758 14.5804 6.76056 14.6647C6.82407 14.749 6.7739 15.5512 6.7739 15.5512C6.76643 15.667 6.67409 15.801 6.56842 15.849C6.56842 15.849 6.06404 16.078 5.97971 16.0994C5.89538 16.1207 5.43104 15.9729 5.22021 15.9515C5.00939 15.9302 4.66887 15.7535 4.66887 15.7535C4.56586 15.7001 4.45805 15.6943 4.42923 15.7407C4.40041 15.7871 4.32889 15.8773 4.27071 15.9409C4.21253 16.0049 4.0743 16.0295 3.96328 15.9953L3.88162 15.9707C3.7706 15.9371 3.62276 15.8901 3.55338 15.8672C3.48399 15.8437 3.33508 15.8005 3.223 15.7706L2.99776 15.7108C2.88568 15.6809 2.70048 15.6393 2.58626 15.6179L2.43148 15.5891C2.31726 15.5678 2.14433 15.6025 2.04719 15.6654L1.97887 15.7097C1.88173 15.7733 1.71201 15.8154 1.60153 15.8037C1.49104 15.7919 1.38697 15.8064 1.36935 15.8352C1.35174 15.864 1.35654 15.9307 1.38003 15.983C1.40351 16.0353 1.3464 16.1351 1.25353 16.2045C1.25353 16.2045 1.1692 16.268 0.810538 16.268H0.448669C0.559685 16.2915 0.671235 16.3433 0.697388 16.3844C0.723007 16.4249 0.731013 16.552 0.714467 16.6673C0.714467 16.6673 0.680842 16.9016 0.660026 16.9859L0.638677 17.0702C0.650419 17.1748 0.702725 17.2741 0.75503 17.2917C0.807336 17.3093 0.908745 17.3979 0.980798 17.4892L1.03577 17.5591C1.10783 17.6504 1.23272 17.7155 1.31438 17.7038C1.39551 17.692 1.50972 17.6162 1.56737 17.5351C1.62554 17.454 1.71521 17.4721 1.76698 17.5762L1.81021 17.6627C1.86199 17.7662 1.95699 17.7897 2.0205 17.7144C2.08455 17.6392 2.23133 17.5735 2.34715 17.5687L2.43201 17.565C2.54783 17.5602 2.68073 17.5228 2.72716 17.4823C2.7736 17.4417 2.90596 17.4171 3.02178 17.4284L3.04473 17.4305C3.16002 17.4417 3.2737 17.5266 3.29719 17.6194C3.32067 17.7123 3.26997 17.8527 3.18457 17.9317C3.18457 17.9317 3.04366 18.0624 2.98068 18.0832C2.91717 18.1046 2.92624 18.2524 2.92624 18.2524C2.93318 18.3683 2.88675 18.5428 2.82377 18.6399L2.77947 18.7082C2.71649 18.8054 2.61881 18.9682 2.56277 19.0701L2.53395 19.1224C2.47791 19.2244 2.43201 19.4021 2.43201 19.5184V19.7506C2.43201 19.8141 2.59533 20.2897 2.59533 20.2897C2.63323 20.3996 2.73463 20.5528 2.82056 20.6302C2.82056 20.6302 2.87447 20.6788 2.87447 20.7423C2.87447 20.8058 3.06448 21.101 3.16962 21.3753L3.2753 21.6496C3.34469 21.6496 3.43702 21.7377 3.48025 21.8455L3.49253 21.8759C3.53576 21.9837 3.57099 22.1524 3.57099 22.2511C3.57099 22.3499 3.63237 22.5031 3.70709 22.5917C3.70709 22.5917 3.80263 22.7048 3.84533 22.7891L3.88749 22.8735C3.93393 22.8852 4.00011 22.985 4.03427 23.096C4.03427 23.096 4.16183 23.5065 4.18264 23.5695C4.20346 23.633 4.34169 23.8054 4.34169 23.8054C4.41375 23.8961 4.51142 24.0573 4.55839 24.1635L4.58347 24.2201C4.63044 24.3263 4.64539 24.5056 4.6171 24.6177C4.6171 24.6177 4.54184 24.9193 4.47833 25.0249C4.41482 25.1306 4.75267 25.1306 4.75267 25.1306C4.86902 25.1306 5.05689 25.1119 5.17058 25.089L5.17858 25.0874C5.29227 25.0644 5.45239 24.979 5.53458 24.8968L5.59489 24.8365C5.67709 24.7543 5.81532 24.6871 5.90232 24.6871C5.98932 24.6871 6.14837 24.6508 6.25512 24.606C6.25512 24.606 6.31383 24.5814 6.46114 24.4341C6.60898 24.2863 6.65168 24.283 6.65168 24.283C6.7675 24.2734 6.93295 24.2131 7.01995 24.1496C7.10695 24.0856 7.266 23.9986 7.37381 23.9553L7.40424 23.9431C7.51205 23.8998 7.6284 23.7888 7.66363 23.6959C7.69832 23.6031 7.79333 23.5412 7.87445 23.5588C7.95558 23.5764 8.05539 23.5193 8.09595 23.4323C8.13651 23.3453 8.22725 23.1985 8.2977 23.1062L8.44341 22.9146C8.51333 22.8222 8.58538 22.6707 8.60246 22.5778C8.62007 22.4849 8.7012 22.3419 8.78339 22.2597L8.86452 22.178C8.94672 22.0958 8.93657 21.9731 8.84264 21.9053C8.84264 21.9053 8.63395 21.7548 8.44394 21.6491C8.25393 21.5434 8.10609 21.3539 8.02176 21.3326C7.93743 21.3112 7.65616 21.3849 7.65616 21.3849C7.54407 21.4142 7.41384 21.4383 7.36741 21.4383C7.32097 21.4383 7.21583 21.5055 7.13364 21.5877L7.11549 21.6059C7.03329 21.6881 6.89719 21.6902 6.81233 21.6107L6.78244 21.5829C6.69758 21.5034 6.57162 21.3769 6.5017 21.3016C6.43231 21.2264 6.38481 21.07 6.39602 20.9547V20.9526C6.40776 20.8373 6.35065 20.6761 6.26953 20.595C6.1884 20.5138 6.07311 20.366 6.01334 20.2662L5.97758 20.2059C5.9178 20.1066 5.90232 19.9492 5.94288 19.8563C5.98345 19.7634 6.11101 19.6786 6.22683 19.6674L6.24978 19.6652C6.36506 19.654 6.53105 19.7079 6.61859 19.7842L6.80753 19.9497C6.89506 20.026 6.99967 20.1456 7.04023 20.2155C7.0808 20.2849 7.19074 20.3986 7.28415 20.4674L7.34553 20.5122C7.43893 20.5811 7.60545 20.6281 7.71593 20.6163C7.82588 20.6046 7.9353 20.6569 7.95878 20.7321C7.98227 20.8074 8.09435 20.8875 8.20803 20.9099L8.76471 21.0188C8.8784 21.0412 9.0668 21.0609 9.18262 21.0636L9.85779 21.0764C9.97361 21.0785 10.162 21.0625 10.2757 21.0406L10.4097 21.015C10.5239 20.9931 10.6792 21.0465 10.7555 21.134C10.7555 21.134 10.9119 21.3128 10.9119 21.4185C10.9119 21.5242 11.191 21.6763 11.191 21.6763C11.293 21.7318 11.4141 21.8108 11.4606 21.8514C11.507 21.8919 11.5353 21.9587 11.5241 21.9992C11.5124 22.0398 11.5268 22.154 11.5556 22.2522C11.5844 22.3509 11.6463 22.4935 11.6928 22.5687C11.7392 22.644 11.8246 22.6632 11.8828 22.6109C11.9409 22.5586 12.0498 22.4449 12.1256 22.3579C12.2009 22.2709 12.2665 22.2944 12.2713 22.4102L12.2745 22.4951C12.2793 22.6109 12.322 22.7923 12.3701 22.898C12.3701 22.898 12.4736 23.1275 12.4736 23.2119C12.4736 23.2962 12.4442 23.7819 12.4442 23.7819C12.4373 23.8977 12.4571 24.084 12.4891 24.1955C12.4891 24.1955 12.7479 25.1109 12.8115 25.1738C12.875 25.2374 12.9801 25.849 13.0436 25.9125C13.1071 25.976 13.2059 26.1346 13.2059 26.1346C13.2673 26.2328 13.3489 26.403 13.3873 26.5124L13.3959 26.5359C13.4343 26.6453 13.5133 26.7163 13.571 26.6928C13.6291 26.6694 13.7001 26.6032 13.7289 26.545C13.7578 26.4868 13.8101 26.3923 13.8448 26.3342L13.9291 26.1442C14.0134 25.9542 14.1399 25.9542 14.1399 25.8912V25.8068C14.1399 25.691 14.1303 25.5293 14.1186 25.4482V25.3847C14.1186 25.3212 14.2376 25.2112 14.2376 25.2112C14.323 25.1327 14.371 24.9753 14.3454 24.8627L14.3139 24.7255C14.2878 24.6124 14.2904 24.4629 14.3192 24.3935C14.3481 24.3241 14.4383 24.2478 14.5199 24.2249C14.6011 24.2019 14.6678 24.14 14.6678 24.0877C14.6678 24.0354 14.7249 23.9831 14.7943 23.9719C14.8642 23.9601 14.9586 23.8795 15.0051 23.7926C15.0515 23.7056 15.1551 23.5657 15.2351 23.4814L15.3659 23.3437C15.4459 23.2599 15.5927 23.1419 15.6925 23.0822L15.858 22.9829C15.9578 22.9231 16.0346 22.7795 16.0288 22.6637L16.0277 22.6424C16.0224 22.5265 16.0934 22.384 16.1862 22.3259C16.2791 22.2677 16.436 22.2581 16.5342 22.305C16.633 22.3515 16.7659 22.3707 16.8294 22.3472C16.8934 22.3237 16.9452 22.2341 16.9452 22.1471C16.9452 22.0601 16.9831 21.9128 17.0295 21.8199C17.076 21.727 17.1758 21.7126 17.251 21.7884C17.3263 21.8636 17.369 22.011 17.346 22.1156C17.3225 22.2202 17.3562 22.3622 17.4197 22.4321C17.4837 22.5015 17.5766 22.6445 17.6262 22.7491L17.6353 22.7689C17.6849 22.8735 17.7778 23.0357 17.8419 23.1281C17.9059 23.2209 17.9737 23.3907 17.9924 23.5049L18.0073 23.5951C18.0265 23.7098 18.0276 23.8934 18.0105 24.0039C17.9929 24.1139 18.0313 24.2046 18.0948 24.2046C18.1584 24.2046 18.2822 24.1667 18.3692 24.1203C18.4562 24.0738 18.5277 23.9932 18.5277 23.9409C18.5277 23.8886 18.5987 23.8363 18.6862 23.8251C18.7732 23.8134 18.8229 23.8897 18.7967 23.9938C18.7705 24.0984 18.778 24.274 18.8127 24.385C18.8127 24.385 18.9493 24.8168 18.9493 24.9011C18.9493 24.9854 19.0155 25.2053 19.0155 25.2053C19.0486 25.3163 19.0289 25.4882 18.9707 25.587C18.9125 25.6857 18.8874 25.8586 18.9141 25.9712L18.9221 26.0038C18.9488 26.1164 19.0166 26.292 19.0726 26.3939L19.1015 26.4463C19.1575 26.5482 19.2232 26.7238 19.2482 26.8375L19.2642 26.9106C19.2888 27.0238 19.3742 27.186 19.4532 27.2709L19.4809 27.3008C19.5605 27.3856 19.6384 27.5489 19.6544 27.6637L19.6811 27.8574C19.6971 27.9722 19.7681 28.1414 19.8391 28.2337C19.8391 28.2337 20.0686 28.531 20.1321 28.5518C20.1956 28.5732 20.5228 28.7776 20.5228 28.7776C20.621 28.839 20.6797 28.7968 20.653 28.6842L20.645 28.6516C20.6183 28.539 20.6007 28.3517 20.6066 28.2358C20.6124 28.1195 20.5719 27.9412 20.5169 27.8388C20.5169 27.8388 20.3216 27.4758 20.2581 27.4128C20.1945 27.3493 19.9415 27.075 19.9207 27.012C19.8994 26.9485 19.7307 26.822 19.7307 26.822C19.6379 26.7521 19.5146 26.6133 19.4564 26.513L19.4356 26.4772C19.3774 26.3769 19.3491 26.2141 19.3721 26.1153C19.395 26.0166 19.41 25.841 19.4041 25.7252L19.403 25.7038C19.3977 25.588 19.4025 25.3985 19.4142 25.2833V25.2811C19.426 25.1658 19.5066 25.0804 19.5936 25.0922C19.6806 25.1039 19.8279 25.1514 19.9207 25.1979C20.0136 25.2443 20.1321 25.358 20.1844 25.4508C20.2367 25.5437 20.2842 25.691 20.2901 25.778C20.2959 25.865 20.3952 25.9456 20.5105 25.9574H20.5126C20.6279 25.9691 20.6941 26.0593 20.6594 26.158C20.6247 26.2568 20.5911 26.418 20.5858 26.5167C20.5799 26.6154 20.6375 26.6245 20.7139 26.537L20.7315 26.5172C20.8078 26.4297 20.9466 26.3016 21.0394 26.2317L21.1238 26.1682C21.2166 26.0988 21.3164 25.9894 21.3453 25.9253C21.3741 25.8618 21.4739 25.7668 21.5668 25.7145C21.6596 25.6622 21.7685 25.5624 21.8096 25.493C21.8502 25.4231 21.9083 25.2747 21.9382 25.1626L21.9761 25.0217C22.0065 24.9096 22.0023 24.7276 21.9665 24.6172C21.9665 24.6172 21.8619 24.2905 21.8197 24.164C21.7776 24.0375 21.4397 23.7632 21.3554 23.7418C21.2711 23.7205 21.1553 23.5855 21.1553 23.5855C21.08 23.4974 21.0389 23.3325 21.0645 23.2193L21.0763 23.1665C21.1019 23.0533 21.1504 22.8697 21.1835 22.7587L21.1889 22.7411C21.222 22.6301 21.3447 22.5388 21.4605 22.5388H21.5027C21.6185 22.5388 21.7941 22.5009 21.8929 22.4545C21.9916 22.4081 22.1672 22.3702 22.283 22.3702H22.6417C22.7575 22.3702 22.8952 22.2944 22.9475 22.2015C22.9998 22.1086 23.0804 22.0611 23.1269 22.0958C23.1733 22.1305 23.2886 22.1038 23.383 22.0366L23.4828 21.9656C23.5773 21.8983 23.7406 21.8033 23.8463 21.7548L24.0118 21.6784C24.1169 21.6299 24.2461 21.505 24.2979 21.4014L24.3624 21.2723C24.4142 21.1687 24.4911 20.9953 24.5338 20.8869L24.5701 20.7946C24.6122 20.6868 24.6955 20.5165 24.7542 20.4162L25.0883 19.851C25.1476 19.7511 25.1294 19.6076 25.0477 19.5323C24.9666 19.4571 24.9405 19.3092 24.9901 19.2046L24.9992 19.1849C25.0488 19.0802 25.0403 18.9132 24.9794 18.8139L24.9671 18.7942C24.9068 18.6954 24.8124 18.5305 24.7579 18.428L24.6192 18.1676C24.5647 18.0651 24.5754 17.9044 24.6432 17.8105C24.6432 17.8105 24.7937 17.6018 24.8786 17.5805C24.9629 17.5597 25.0056 17.423 25.0056 17.423C25.0403 17.312 25.0114 17.1503 24.9421 17.0633C24.8727 16.9763 24.7296 16.9459 24.625 16.9955L24.5631 17.0249C24.4585 17.075 24.3534 17.0254 24.3304 16.9149C24.3075 16.8044 24.3598 16.6518 24.4468 16.5755C24.4468 16.5755 24.6256 16.4191 24.6891 16.3134C24.7526 16.2077 24.9554 16.133 24.9554 16.133C25.0643 16.093 25.163 16.1362 25.1742 16.2291C25.186 16.3219 25.2815 16.3582 25.3872 16.3097L25.5527 16.2333C25.6578 16.1848 25.8062 16.2115 25.8814 16.2926C25.9567 16.3737 25.9999 16.5333 25.977 16.647L25.954 16.7607C25.9311 16.8743 25.9834 17.0307 26.0698 17.1081L26.1563 17.1855C26.2428 17.2629 26.3186 17.4209 26.3244 17.5367C26.3244 17.5367 26.3346 17.7267 26.2711 17.7267C26.2075 17.7267 25.9967 18.1697 25.9332 18.2332C25.8697 18.2967 26.1654 18.5076 26.2284 18.5076H26.2913C26.3725 18.5657 26.4813 18.5284 26.5336 18.4243C26.5336 18.4243 26.6927 18.1067 26.7557 18.001C26.8192 17.8954 26.8576 17.7219 26.8576 17.7219C26.8827 17.6088 26.9105 17.4214 26.9195 17.3056L26.9291 17.1775C26.9382 17.0617 26.8838 16.9197 26.808 16.8615C26.7327 16.8034 26.666 16.6801 26.6601 16.5872C26.6543 16.4943 26.7167 16.3513 26.7989 16.2691C26.7989 16.2691 26.9238 16.1442 26.9873 16.1036C27.0508 16.0636 27.1197 15.8192 27.1197 15.8192C27.1512 15.7076 27.2334 15.54 27.3028 15.4466L27.4106 15.3009C27.4794 15.2075 27.6214 15.1456 27.726 15.1627C27.8306 15.1798 27.9918 15.1563 28.0847 15.1098C28.1775 15.0634 28.303 14.9444 28.3638 14.8456L28.3755 14.8259C28.4364 14.7266 28.5725 14.6071 28.6782 14.5601C28.6782 14.5601 28.865 14.4768 28.9285 14.4139C28.992 14.3503 29.0176 14.0125 29.0176 14.0125C29.0267 13.8967 29.0811 13.72 29.1393 13.6191C29.1393 13.6191 29.3501 13.2535 29.4772 13.1687C29.6037 13.0843 29.5791 12.7881 29.5791 12.7881C29.5695 12.6723 29.5823 12.485 29.6079 12.3718L29.6629 12.1295C29.6885 12.0163 29.6794 11.8338 29.6426 11.7233L29.586 11.5541C29.5492 11.4442 29.4419 11.2985 29.3475 11.2312C29.3475 11.2312 29.0763 11.0375 28.9707 10.974C28.865 10.9104 28.7993 10.9003 28.7993 10.9003C28.6846 10.8827 28.5111 10.8165 28.4134 10.7535L28.4092 10.7509C28.312 10.6879 28.3147 10.5891 28.415 10.5315L28.4919 10.4877C28.5928 10.4301 28.7193 10.2988 28.7732 10.1963L28.8095 10.1269C28.8634 10.0239 28.9744 9.87288 29.0566 9.79068L29.2226 9.62469C29.3048 9.5425 29.4425 9.41227 29.5289 9.33488L29.6154 9.25749C29.7019 9.1801 29.862 9.08402 29.9709 9.04399L29.9757 9.04239C30.0846 9.00236 30.2687 8.97248 30.3845 8.97674L30.5959 8.98368C30.7117 8.98742 30.8734 8.99062 30.9545 8.99062C31.0357 8.99062 31.1968 8.98635 31.3132 8.98048L31.3345 8.97941C31.4504 8.97408 31.6025 9.02638 31.6719 9.09577C31.7412 9.16568 31.8902 9.19718 32.0022 9.16675L32.0594 9.15127C32.1714 9.12085 32.3566 9.11124 32.4709 9.13046L32.6876 9.16675C32.8018 9.18597 32.8781 9.10804 32.8562 8.99436L32.8509 8.96554C32.829 8.85132 32.8541 8.67359 32.9058 8.56951L33.0126 8.35602C33.0644 8.25194 33.1994 8.14519 33.312 8.11851L33.3446 8.1105C33.4577 8.08381 33.6307 8.04272 33.7294 8.01923C33.8281 7.99628 33.905 8.07207 33.9007 8.18789L33.8954 8.33574C33.8911 8.45155 33.9397 8.49906 34.0037 8.44088C34.0678 8.3827 34.2007 8.30691 34.2989 8.27222C34.3976 8.23753 34.4868 8.11424 34.4974 7.99895L34.5012 7.95519C34.5118 7.83937 34.6154 7.7449 34.7312 7.7449C34.847 7.7449 34.9394 7.8399 34.9362 7.95572L34.9276 8.2418C34.9244 8.35762 34.8321 8.48465 34.7227 8.52307L34.6773 8.53909C34.5679 8.57805 34.4131 8.67839 34.333 8.76272L34.2226 8.87854C34.1425 8.96287 34.0176 9.10537 33.9445 9.19557L33.8511 9.31086C33.778 9.40106 33.6675 9.55531 33.6056 9.65298C33.6056 9.65298 33.4652 9.87555 33.4017 9.89636C33.3387 9.91771 33.233 10.3815 33.233 10.4659C33.233 10.5502 33.2544 11.0775 33.2965 11.2467C33.3387 11.4154 33.5244 11.6507 33.5244 11.6507C33.5965 11.742 33.6034 11.8957 33.5399 11.9934L33.4956 12.0617C33.4326 12.1588 33.3312 12.3195 33.2715 12.4193L33.0681 12.7545C33.0078 12.8538 33.0489 12.9157 33.1594 12.8927C33.2699 12.8692 33.414 12.7726 33.4796 12.6771L33.8516 12.138C33.9178 12.0425 34.0005 11.8738 34.0363 11.7633L34.0971 11.5744C34.1329 11.4639 34.1996 11.2878 34.246 11.1837C34.2925 11.0791 34.4062 10.9462 34.499 10.8886C34.5919 10.8304 34.7307 10.7119 34.8075 10.6249L34.8449 10.5827C34.9217 10.4957 34.9559 10.3773 34.9212 10.3191C34.8865 10.2609 34.87 10.1195 34.8844 10.0042L34.8956 9.91664C34.91 9.80136 34.879 9.70262 34.8267 9.69675C34.7744 9.69088 34.7083 9.61509 34.6789 9.52809C34.6501 9.44109 34.6688 9.28471 34.7205 9.18116L34.7851 9.052C34.8369 8.94846 34.9367 8.83958 35.0061 8.81075C35.0755 8.78193 35.2265 8.74404 35.3413 8.72696C35.3413 8.72696 35.7021 8.67359 35.7656 8.67359C35.8291 8.67359 36.0746 8.76699 36.0746 8.76699C36.1829 8.80809 36.3244 8.76325 36.389 8.66665C36.389 8.66665 36.4407 8.58926 36.5886 8.45316C36.7364 8.31705 37.4538 8.14626 37.4538 8.08275C37.4538 8.01923 37.6422 7.83083 37.6422 7.83083C37.7244 7.74863 37.8861 7.68832 38.0019 7.69633L38.193 7.70967C38.3088 7.71768 38.3985 7.65309 38.3931 7.5661C38.3873 7.4791 38.3349 7.3462 38.2773 7.27094C38.2191 7.19569 38.1385 7.08627 38.098 7.0281C38.0574 6.96992 37.9453 6.87011 37.8487 6.80553C37.8487 6.80553 37.7713 6.75376 37.7713 6.66943C37.7713 6.5851 38.1513 6.55788 38.1513 6.55788C38.2672 6.54934 38.3995 6.51411 38.446 6.47942C38.4924 6.44473 38.5351 6.33532 38.541 6.23658C38.5468 6.13784 38.5959 6.14104 38.6498 6.24405L38.6643 6.27127C38.7182 6.37374 38.8479 6.45327 38.9525 6.4474C39.0571 6.44153 39.23 6.47355 39.3373 6.51785C39.3373 6.51785 39.3955 6.5424 39.459 6.58457C39.522 6.62673 39.6965 6.87598 39.6965 6.87598C39.7632 6.97099 39.8652 7.02009 39.9228 6.9854C39.981 6.95071 40.0653 6.83435 40.1101 6.72761L40.1149 6.71586C40.1598 6.60912 40.2729 6.47409 40.3658 6.41591C40.4587 6.35773 40.4677 6.24351 40.3855 6.16132L40.2617 6.03803L40.2654 6.03429Z" fill="#FFAA48" stroke="white" stroke-width="2" mask="url(#path-1-inside-1_1_882)"/>
<path d="M11.3159 1.75979L11.6741 1.63752L11.6775 1.63635C11.6776 1.63631 11.6777 1.63627 11.6778 1.63623L12.1176 0.877619C12.0877 0.892923 12.0491 0.911551 12.004 0.930908L12.0034 0.931168C11.9673 0.946726 11.932 0.964853 11.8996 0.982822C11.8664 1.00121 11.8364 1.01943 11.8119 1.03457C11.7853 1.05099 11.7585 1.06804 11.7346 1.08326L11.7326 1.08455C11.7085 1.09987 11.6871 1.11354 11.6661 1.1266C11.634 1.14649 11.6105 1.16026 11.5934 1.16947M11.3159 1.75979C11.1571 1.52135 11.0993 1.43441 11.0782 1.4027C11.0781 1.40257 11.0781 1.40244 11.078 1.40231C11.0661 1.3845 11.0662 1.38449 11.0662 1.38448L11.0663 1.38439L11.0666 1.38422L11.0671 1.38383L11.0686 1.3829L11.0709 1.38139L11.0709 1.38134L11.0723 1.38045L11.0834 1.37331C11.0923 1.36764 11.1042 1.36014 11.1187 1.35141C11.1472 1.33422 11.1876 1.3109 11.2346 1.287C11.2827 1.26253 11.3914 1.20829 11.5228 1.181L11.5166 1.16294L11.5228 1.181C11.5457 1.17623 11.5693 1.17229 11.5934 1.16947M11.3159 1.75979L11.3158 1.75982L11.2122 1.79518L11.2115 1.79541C11.139 1.82005 11.0385 1.85224 10.9433 1.88127C10.9433 1.88128 10.9432 1.88129 10.9432 1.8813C10.8873 1.89833 10.8332 1.91427 10.7876 1.92695M11.3159 1.75979L11.0783 1.40296L11.0781 1.40257L11.0661 1.38455L11.0653 1.38508C11.0207 1.41488 10.9065 1.46361 10.8533 1.47539L10.8527 1.47552L10.6953 1.51061C10.6952 1.51064 10.6951 1.51067 10.695 1.51069L10.6947 1.51075L10.7876 1.92697M11.5934 1.16947C11.5863 1.17333 11.5802 1.17639 11.5752 1.17877C11.5722 1.18019 11.5708 1.18079 11.5708 1.18078C11.5708 1.18078 11.5744 1.17926 11.5813 1.17717C11.5904 1.17439 11.6241 1.16465 11.6741 1.16465C11.6468 1.16465 11.6198 1.16639 11.5934 1.16947ZM10.7876 1.92695L10.6672 1.51738C10.6673 1.51735 10.6674 1.51731 10.6676 1.51728L10.7834 1.92812L10.7822 1.92847M10.7876 1.92695C10.7876 1.92696 10.7876 1.92697 10.7876 1.92697M10.7876 1.92695L10.8036 1.99876L10.7876 1.92697M10.7876 1.92697C10.7857 1.92748 10.7839 1.92798 10.7822 1.92847M10.7822 1.92847L10.6624 1.96224L10.7822 1.92847ZM9.03429 3.93911C9.12012 3.95934 9.2129 3.9958 9.27656 4.03708L9.34487 4.08138C9.35233 4.08625 9.35956 4.09069 9.36657 4.09469C9.45085 4.14295 9.50106 4.12898 9.47937 4.05949C9.46929 4.02716 9.45398 3.98508 9.43658 3.94112C9.43648 3.94088 9.43639 3.94064 9.43629 3.94039C9.42427 3.91005 9.41127 3.87883 9.3983 3.84932C9.3983 3.84932 9.3983 3.84931 9.3983 3.84931C9.38642 3.82227 9.37457 3.79666 9.36356 3.77448L9.03429 3.93911ZM9.77718 2.72301L9.76712 2.70903L9.77718 2.72301Z" fill="#FFAA48" stroke="white"/>
<path d="M30.6784 12.9128L30.6425 12.9846L30.6784 12.9128ZM30.6784 12.9128C30.6781 12.9145 30.6777 12.9162 30.6773 12.9179C30.6703 12.9459 30.6594 12.9686 30.6448 12.9827C30.6441 12.9834 30.6434 12.9841 30.6426 12.9847" fill="#FFAA48" stroke="white"/>
<path d="M30.3536 14.6671C30.2719 14.6625 30.1911 14.6996 30.1507 14.7677L30.3536 14.6671Z" fill="#FFAA48" stroke="white"/>
<path d="M27.8805 18.6909C27.919 18.7025 27.9687 18.7046 28.0217 18.6944C28.0217 18.6944 28.1519 18.6699 28.2149 18.649M27.8805 18.6909L28.1878 18.5824M27.8805 18.6909C27.8969 18.6753 27.9121 18.6611 27.9255 18.6491L27.9255 18.6491L27.9268 18.6479L27.9782 18.6016M27.8805 18.6909L28.1878 18.5824M28.2149 18.649L28.2291 18.6443C28.2218 18.6332 28.2151 18.6222 28.2088 18.6113L28.2051 18.6052L28.2006 18.5976L28.1963 18.5899C28.1974 18.5919 28.1998 18.5962 28.2038 18.6022L28.215 18.596L28.1993 18.5882L28.1939 18.5854L28.2149 18.649ZM28.2149 18.649L28.1934 18.5852L28.1878 18.5824M28.1878 18.5824L28.1923 18.5819M28.1878 18.5824L28.1923 18.5819M28.1878 18.5824L28.0673 18.5221C28.0555 18.5323 28.0444 18.5419 28.0345 18.5508C28.0343 18.551 28.0341 18.5512 28.0339 18.5514L28.0004 18.5815L28.0038 18.5992L28.0004 18.5815L28 18.5819L27.9782 18.6016M28.1923 18.5819L28.1927 18.5819L28.1923 18.5819ZM27.9782 18.6016L28.0034 18.5993L27.9782 18.6016ZM27.5276 18.8201C27.4738 18.7909 27.4086 18.7756 27.3363 18.7867C27.3488 18.8175 27.3655 18.8489 27.3873 18.8793C27.4031 18.9013 27.4215 18.9228 27.4431 18.9433C27.4432 18.9434 27.4433 18.9435 27.4434 18.9436C27.4452 18.9453 27.447 18.947 27.4488 18.9486C27.4746 18.9723 27.5012 18.9915 27.5277 19.0069L27.5638 18.996M27.5276 18.8201L27.5279 19.007L27.5638 18.996M27.5276 18.8201C27.5261 18.8521 27.5295 18.8842 27.5387 18.9143L27.5394 18.9168L27.5638 18.996M27.5276 18.8201L27.5699 19.0214C27.5684 19.0129 27.5663 19.0044 27.5638 18.996" fill="#FFAA48" stroke="white"/>
<path d="M25.2138 21.27V21.27ZM25.2138 21.27L25.186 21.1943L25.2107 21.2685L25.2138 21.27ZM25.1 22.1897L25.1075 22.2223C25.1141 22.25 25.1146 22.2765 25.1099 22.3007C25.0956 22.3748 25.0325 22.4272 24.9453 22.4272C24.8349 22.4272 24.7435 22.3754 24.7351 22.3105C24.735 22.3096 24.7349 22.3087 24.7348 22.3078C24.7345 22.3055 24.7344 22.3031 24.7344 22.3007V22.2759L24.9265 22.2306L24.9268 22.2309L24.927 22.2305L24.9453 22.2262L25.1 22.1897ZM25.1 22.1897C25.0879 22.1382 25.0816 22.0732 25.0811 22.008L24.9453 22.2042L24.9279 22.2292L24.9453 22.2252L25.1 22.1897ZM24.7344 22.0386L24.9256 22.2298L24.7344 22.2736V22.0386Z" fill="#FFAA48" stroke="white"/>
<mask id="path-7-inside-2_1_882" fill="white">
<path d="M14.6069 26.2477C14.5333 26.158 14.4367 26.0844 14.3924 26.0844C14.3481 26.0844 14.2925 26.1415 14.2691 26.2108C14.2456 26.2802 14.2269 26.4323 14.2269 26.5482V26.9842C14.2269 27.1 14.3208 27.2089 14.4356 27.2249L14.5103 27.2356C14.6251 27.2522 14.719 27.202 14.719 27.1246V26.9415C14.719 26.7585 14.663 26.3928 14.6485 26.3368C14.6347 26.2808 14.6069 26.2466 14.6069 26.2466V26.2477Z"/>
</mask>
<path d="M14.6069 26.2477C14.5333 26.158 14.4367 26.0844 14.3924 26.0844C14.3481 26.0844 14.2925 26.1415 14.2691 26.2108C14.2456 26.2802 14.2269 26.4323 14.2269 26.5482V26.9842C14.2269 27.1 14.3208 27.2089 14.4356 27.2249L14.5103 27.2356C14.6251 27.2522 14.719 27.202 14.719 27.1246V26.9415C14.719 26.7585 14.663 26.3928 14.6485 26.3368C14.6347 26.2808 14.6069 26.2466 14.6069 26.2466V26.2477Z" fill="#FFAA48"/>
<path d="M14.6069 26.2477L13.8342 26.8824L15.6069 29.0405V26.2477H14.6069ZM14.4356 27.2249L14.577 26.235L14.5738 26.2345L14.4356 27.2249ZM14.5103 27.2356L14.653 26.2458L14.6517 26.2457L14.5103 27.2356ZM14.6485 26.3368L13.6778 26.5772L13.6801 26.5858L14.6485 26.3368ZM14.6069 26.2466L15.383 25.616L13.6069 23.43V26.2466H14.6069ZM15.3796 25.6129C15.2966 25.5118 15.1987 25.4162 15.0945 25.3368C15.0429 25.2975 14.9719 25.2485 14.8852 25.2047C14.8241 25.1739 14.6401 25.0844 14.3924 25.0844V27.0844C14.2663 27.0844 14.1685 27.0595 14.1138 27.0424C14.0552 27.0242 14.0107 27.0037 13.9832 26.9898C13.9294 26.9626 13.8954 26.9376 13.8827 26.9279C13.8563 26.9078 13.8436 26.8938 13.8342 26.8824L15.3796 25.6129ZM14.3924 25.0844C13.9729 25.0844 13.7042 25.3236 13.6065 25.4239C13.4777 25.5561 13.3803 25.7174 13.3218 25.8902L15.2163 26.5314C15.1813 26.6349 15.1234 26.7329 15.0393 26.8193C14.9961 26.8636 14.9299 26.9213 14.8366 26.9722C14.7464 27.0214 14.5932 27.0844 14.3924 27.0844V25.0844ZM13.3218 25.8902C13.2484 26.1074 13.2269 26.3831 13.2269 26.5482H15.2269C15.2269 26.547 15.2269 26.544 15.2271 26.5394C15.2273 26.5349 15.2275 26.5294 15.2279 26.5232C15.2288 26.5103 15.2301 26.4971 15.2315 26.4855C15.2322 26.4798 15.2329 26.4753 15.2334 26.472C15.2339 26.4686 15.2342 26.4675 15.234 26.4686C15.2338 26.4694 15.2328 26.4745 15.2306 26.4832C15.2295 26.4877 15.2279 26.4939 15.2257 26.5016C15.2235 26.5092 15.2204 26.5193 15.2163 26.5314L13.3218 25.8902ZM13.2269 26.5482V26.9842H15.2269V26.5482H13.2269ZM13.2269 26.9842C13.2269 27.5944 13.684 28.1298 14.2974 28.2153L14.5738 26.2345C14.7859 26.2641 14.9444 26.3721 15.0443 26.4875C15.1441 26.6028 15.2269 26.7733 15.2269 26.9842H13.2269ZM14.2942 28.2149L14.3689 28.2256L14.6517 26.2457L14.577 26.235L14.2942 28.2149ZM14.3676 28.2254C14.5914 28.2576 14.8665 28.2371 15.1278 28.0979C15.3988 27.9536 15.719 27.6274 15.719 27.1246H13.719C13.719 26.6992 13.9922 26.4368 14.1876 26.3327C14.3732 26.2338 14.544 26.2301 14.653 26.2458L14.3676 28.2254ZM15.719 27.1246V26.9415H13.719V27.1246H15.719ZM15.719 26.9415C15.719 26.7799 15.6971 26.5871 15.6808 26.4623C15.6662 26.3507 15.642 26.1847 15.617 26.0878L13.6801 26.5858C13.6726 26.557 13.6699 26.5398 13.6724 26.5535C13.6736 26.5597 13.6756 26.5715 13.6785 26.5888C13.684 26.6233 13.6909 26.6698 13.6976 26.7208C13.7042 26.772 13.7101 26.823 13.714 26.8673C13.716 26.8893 13.7173 26.9074 13.7182 26.9217C13.719 26.9366 13.719 26.9427 13.719 26.9415H15.719ZM15.6192 26.0964C15.5866 25.9649 15.5381 25.8593 15.4958 25.7835C15.4742 25.7448 15.4531 25.7117 15.4341 25.6842C15.4245 25.6704 15.4154 25.6578 15.4069 25.6465C15.4026 25.6409 15.3985 25.6355 15.3945 25.6304C15.3925 25.6279 15.3906 25.6254 15.3887 25.623C15.3877 25.6218 15.3867 25.6206 15.3858 25.6195C15.3853 25.6189 15.3849 25.6183 15.3844 25.6177C15.3842 25.6174 15.3839 25.6171 15.3837 25.6169C15.3836 25.6167 15.3834 25.6165 15.3834 25.6164C15.3832 25.6162 15.383 25.616 14.6069 26.2466C13.8308 26.8772 13.8306 26.877 13.8305 26.8768C13.8304 26.8767 13.8302 26.8765 13.8301 26.8763C13.8299 26.8761 13.8297 26.8758 13.8294 26.8755C13.829 26.8749 13.8285 26.8744 13.8281 26.8738C13.8271 26.8727 13.8262 26.8715 13.8253 26.8704C13.8235 26.8681 13.8217 26.8659 13.82 26.8636C13.8164 26.859 13.8129 26.8545 13.8094 26.8498C13.8024 26.8406 13.7956 26.8311 13.7888 26.8214C13.7755 26.8021 13.7621 26.781 13.7493 26.7579C13.7243 26.7132 13.6966 26.6527 13.6779 26.5772L15.6192 26.0964ZM13.6069 26.2466V26.2477H15.6069V26.2466H13.6069Z" fill="white" mask="url(#path-7-inside-2_1_882)"/>
</g>
<defs>
<clipPath id="clip0_1_882">
<rect width="39.9966" height="28" fill="white" transform="translate(0.448669 0.800049)"/>
</clipPath>
</defs>
</svg>
