<svg width="28" height="29" viewBox="0 0 28 29" fill="none" xmlns="http://www.w3.org/2000/svg">
<g clip-path="url(#clip0_1_806)">
<path d="M0.5 8.98755C0.5 8.71141 0.723857 8.48755 1 8.48755H27C27.2761 8.48755 27.5 8.71141 27.5 8.98755V13.0561C27.5 13.2881 27.3404 13.4896 27.1145 13.5428L17.3929 15.8304C17.2376 15.8669 17.0887 15.749 17.0887 15.5894C17.0887 14.9004 16.5301 14.3419 15.8411 14.3419H12.0862C11.3972 14.3419 10.8387 14.9004 10.8387 15.5894C10.8387 15.749 10.6898 15.8669 10.5344 15.8304L0.885472 13.5598C0.659617 13.5067 0.5 13.3052 0.5 13.0731V8.98755Z" fill="#FFAA48" stroke="white"/>
<path d="M15.5887 22.3418C16.4171 22.3418 17.0887 21.6702 17.0887 20.8418V19.1146C17.0887 18.8825 17.2483 18.681 17.4742 18.6278L26.8855 16.4136C27.1993 16.3397 27.5 16.5779 27.5 16.9003V27.55C27.5 27.8261 27.2761 28.05 27 28.05H1C0.723858 28.05 0.5 27.8261 0.5 27.55V16.9174C0.5 16.595 0.80066 16.3568 1.11451 16.4307L10.4532 18.6278C10.6791 18.681 10.8387 18.8825 10.8387 19.1146V20.8418C10.8387 21.6702 11.5103 22.3418 12.3387 22.3418H15.5887Z" fill="#FFAA48" stroke="white"/>
<path d="M13.6512 16.6543H14.2762C14.5523 16.6543 14.7762 16.8782 14.7762 17.1543V19.5293C14.7762 19.8054 14.5523 20.0293 14.2762 20.0293H13.6512C13.375 20.0293 13.1512 19.8054 13.1512 19.5293V17.1543C13.1512 16.8782 13.375 16.6543 13.6512 16.6543Z" fill="#FFAA48" stroke="white"/>
<path d="M9.36551 4.00445H9.36551V4.00639V5.47514H8.00328L8.00328 4.00639L8.00328 4.00581C8.00257 3.38642 8.25712 2.81615 8.66347 2.41084L8.66436 2.40994C9.06919 2.00408 9.63953 1.7494 10.2592 1.74976H10.2595L17.7406 1.74976L17.7409 1.74976C18.3606 1.7494 18.9308 2.00411 19.3351 2.40977L19.3363 2.41099C19.7428 2.8161 19.9971 3.38632 19.9968 4.0061V4.00639V5.47514H18.6345V4.00639H18.6345L18.6345 4.00251C18.6326 3.75275 18.5347 3.54047 18.3777 3.37894L18.3727 3.37378L18.3676 3.36877C18.2062 3.21201 17.994 3.11394 17.7445 3.112V3.11198H17.7406H10.2595V3.11197L10.2556 3.112C10.006 3.11394 9.79377 3.21204 9.63247 3.36877L9.62724 3.37385L9.62217 3.37907C9.46645 3.53945 9.36649 3.75195 9.36551 4.00445Z" fill="#FFAA48" stroke="white"/>
</g>
<defs>
<clipPath id="clip0_1_806">
<rect width="28" height="28" fill="white" transform="translate(0 0.899902)"/>
</clipPath>
</defs>
</svg>
