<svg width="29" height="29" viewBox="0 0 29 29" fill="none" xmlns="http://www.w3.org/2000/svg">
<g clip-path="url(#clip0_1_759)">
<path d="M6.63082 5.51382C6.17233 5.22076 5.6163 5.12139 5.08462 5.23758C4.5519 5.35399 4.08725 5.67725 3.79288 6.13625C3.49851 6.59525 3.39854 7.15239 3.51495 7.6851C3.6302 8.2125 3.94819 8.67319 4.39993 8.96798C5.07412 9.46017 5.79926 9.8785 6.56286 10.2158L6.62124 10.2416L6.68422 10.2518C7.0307 10.3085 7.38568 10.2821 7.72001 10.175C8.05434 10.0679 8.35851 9.88297 8.60754 9.63551L8.60919 9.63385L11.6455 6.58825C11.84 6.39984 11.9966 6.17543 12.1049 5.92407C12.2134 5.67239 12.2707 5.40164 12.2734 5.1276C12.2762 4.85356 12.2244 4.58172 12.121 4.32791C12.0176 4.0741 11.8647 3.8434 11.6713 3.64928C11.4779 3.45515 11.2477 3.30148 10.9943 3.19721C10.7408 3.09294 10.4691 3.04017 10.1951 3.04196C9.92105 3.04376 9.6501 3.10009 9.39805 3.20767C9.14709 3.31479 8.91987 3.47057 8.72949 3.66601L6.78854 5.61239L6.63082 5.51382ZM4.73031 25.3613L5.0081 24.9456L4.73031 25.3613C5.19625 25.6727 5.74405 25.8388 6.30443 25.8388C7.05588 25.8388 7.77655 25.5403 8.3079 25.009C8.83925 24.4776 9.13776 23.757 9.13776 23.0055C9.13776 22.4451 8.97159 21.8973 8.66026 21.4314C8.34893 20.9655 7.90642 20.6023 7.3887 20.3878C6.87098 20.1734 6.30129 20.1173 5.75168 20.2266C5.20206 20.3359 4.69721 20.6058 4.30096 21.002C3.90471 21.3983 3.63486 21.9031 3.52554 22.4527C3.41621 23.0024 3.47232 23.5721 3.68677 24.0898C3.90122 24.6075 4.26437 25.05 4.73031 25.3613ZM2.41554 0.949951H27.3044C27.5844 0.949951 27.8529 1.06116 28.0508 1.25912C28.2488 1.45707 28.36 1.72555 28.36 2.00551V26.8944C28.36 27.1743 28.2488 27.4428 28.0508 27.6408C27.8529 27.8387 27.5844 27.95 27.3044 27.95H2.41554C2.13559 27.95 1.8671 27.8387 1.66915 27.6408C1.4712 27.4428 1.35999 27.1743 1.35999 26.8944V2.00551C1.35999 1.72556 1.4712 1.45707 1.66915 1.25912C1.86711 1.06116 2.13559 0.949951 2.41554 0.949951ZM4.73031 17.5836C5.19625 17.8949 5.74405 18.0611 6.30443 18.0611C7.05588 18.0611 7.77655 17.7626 8.3079 17.2312C8.83925 16.6998 9.13776 15.9792 9.13776 15.2277C9.13776 14.6673 8.97159 14.1196 8.66026 13.6536C8.34893 13.1877 7.90642 12.8245 7.3887 12.6101C6.87098 12.3956 6.30129 12.3395 5.75167 12.4488C5.20206 12.5582 4.69721 12.828 4.30096 13.2243C3.90471 13.6205 3.63486 14.1254 3.52554 14.675C3.41621 15.2246 3.47232 15.7943 3.68677 16.312C3.90122 16.8297 4.26437 17.2722 4.73031 17.5836ZM14.86 25.8388H24.1933C24.7385 25.8388 25.2613 25.6223 25.6468 25.2368C26.0323 24.8513 26.2489 24.3285 26.2489 23.7833C26.2489 23.2381 26.0323 22.7153 25.6468 22.3298C25.2613 21.9443 24.7385 21.7277 24.1933 21.7277H14.86C14.3148 21.7277 13.792 21.9443 13.4065 22.3298C13.021 22.7153 12.8044 23.2381 12.8044 23.7833C12.8044 24.3285 13.021 24.8513 13.4065 25.2368C13.792 25.6223 14.3148 25.8388 14.86 25.8388ZM14.86 18.0611H24.1933C24.7385 18.0611 25.2613 17.8445 25.6468 17.459C26.0323 17.0735 26.2489 16.5507 26.2489 16.0055C26.2489 15.4603 26.0323 14.9375 25.6468 14.552C25.2613 14.1665 24.7385 13.95 24.1933 13.95H14.86C14.3148 13.95 13.792 14.1665 13.4065 14.552C13.021 14.9375 12.8044 15.4603 12.8044 16.0055C12.8044 16.5507 13.021 17.0735 13.4065 17.459C13.792 17.8445 14.3148 18.0611 14.86 18.0611ZM14.86 10.2833H24.1933C24.7385 10.2833 25.2613 10.0667 25.6468 9.68123C26.0323 9.29574 26.2489 8.7729 26.2489 8.22773C26.2489 7.68256 26.0323 7.15972 25.6468 6.77423C25.2613 6.38874 24.7385 6.17217 24.1933 6.17217H14.86C14.3148 6.17217 13.792 6.38874 13.4065 6.77423C13.021 7.15972 12.8044 7.68256 12.8044 8.22773C12.8044 8.7729 13.021 9.29574 13.4065 9.68123C13.792 10.0667 14.3148 10.2833 14.86 10.2833Z" fill="#FFAA48" stroke="white"/>
</g>
<defs>
<clipPath id="clip0_1_759">
<rect width="28" height="28" fill="white" transform="translate(0.859985 0.449951)"/>
</clipPath>
</defs>
</svg>
