<svg width="28" height="29" viewBox="0 0 28 29" fill="none" xmlns="http://www.w3.org/2000/svg">
<path d="M5.57894 5.98468L5.57889 5.98463L5.57308 5.99056C3.88073 7.71813 2.77128 9.93189 2.4002 12.3216C2.02912 14.7114 2.41501 17.1573 3.5038 19.3168L3.6424 19.5916H3.95026L8.74186 19.5917L8.7441 19.5916C9.80985 19.5869 10.84 19.9734 11.6394 20.6775L16.0779 25.4513L16.2735 25.6617L16.5537 25.5987C18.6628 25.1245 20.5941 24.0619 22.1236 22.5342L22.1318 22.5261L22.1395 22.5175C22.6502 21.9581 23.097 21.3437 23.4719 20.6855L23.6713 20.3356L23.3718 20.0663C22.353 19.1501 21.3864 18.1776 20.4765 17.1534C20.0587 16.5881 19.5132 16.1294 18.8843 15.815C18.249 15.4974 17.5471 15.3361 16.837 15.3445H10.3655H10.3459L10.3264 15.346C9.94877 15.3755 9.56906 15.3267 9.21118 15.2024C8.8533 15.0782 8.52498 14.8813 8.24685 14.6241C7.96872 14.3669 7.7468 14.0549 7.59502 13.7078C7.44324 13.3607 7.36489 12.986 7.36489 12.6072C7.36489 12.2283 7.44324 11.8536 7.59502 11.5065C7.74679 11.1594 7.96872 10.8474 8.24685 10.5902C8.52498 10.333 8.8533 10.1361 9.21118 10.0119C9.56906 9.88764 9.94877 9.83877 10.3264 9.86833L10.3459 9.86985H10.3655H11.989C12.4805 9.86986 12.967 9.7727 13.4208 9.58395C13.8745 9.3952 14.2864 9.1186 14.6328 8.77005C14.9793 8.4215 15.2533 8.0079 15.4393 7.55302C15.6251 7.09865 15.7193 6.61206 15.7165 6.1212V3.31106V2.88865L15.3 2.81808C14.8262 2.73781 14.3477 2.68926 13.8674 2.67275L13.8674 2.67269L13.8593 2.67254C12.328 2.64484 10.8066 2.92359 9.38463 3.49239C7.96263 4.06119 6.66871 4.90856 5.57894 5.98468ZM16.5561 1.19676C19.144 1.7012 21.5247 2.96006 23.3985 4.81481C24.6536 6.05713 25.65 7.53595 26.3299 9.16575C27.0099 10.7956 27.36 12.544 27.36 14.3099C27.36 16.0759 27.0099 17.8243 26.3299 19.4541C25.65 21.0839 24.6536 22.5628 23.3985 23.8051C21.5247 25.6598 19.144 26.9187 16.5561 27.4231C13.9683 27.9276 11.2891 27.655 8.85581 26.6399C6.42256 25.6247 4.34408 23.9122 2.8821 21.7182C1.42012 19.5241 0.640015 16.9465 0.640015 14.3099C0.640015 11.6734 1.42012 9.09582 2.8821 6.90175C4.34408 4.70767 6.42256 2.99523 8.85581 1.98004C11.2891 0.964857 13.9683 0.692325 16.5561 1.19676Z" fill="#FFAA48" stroke="white"/>
</svg>
