<svg width="28" height="29" viewBox="0 0 28 29" fill="none" xmlns="http://www.w3.org/2000/svg">
<path d="M11.4589 15.2273V15.2273L11.4539 15.2273C9.19234 15.2301 7.00715 16.0455 5.29736 17.5247C3.89718 18.7361 2.89232 20.3264 2.39517 22.0908C2.12696 23.0427 2.90048 23.8568 3.79226 23.8568H11.4545C11.6596 23.8568 11.8562 23.9382 12.0011 24.0829C12.146 24.2276 12.2273 24.4238 12.2273 24.6283C12.2273 24.8328 12.146 25.029 12.0011 25.1738C11.8562 25.3185 11.6596 25.3999 11.4545 25.3999H1.27273C1.06764 25.3999 0.871045 25.3185 0.726166 25.1738C0.581374 25.0291 0.500081 24.833 0.5 24.6286C0.503015 22.4507 1.15567 20.323 2.37467 18.5172C3.31125 17.1299 4.5495 15.9809 5.98926 15.1516C6.90298 14.6253 7.09783 13.3775 6.55734 12.5526C6.0751 11.8166 5.75987 10.9771 5.64222 10.0931C5.4601 8.72472 5.76291 7.33574 6.49823 6.16689C7.23356 4.99803 8.35509 4.12294 9.66853 3.69339C10.982 3.26384 12.4045 3.30694 13.6895 3.81522C14.9744 4.3235 16.0408 5.26487 16.7039 6.47608C17.3669 7.68728 17.5849 9.09204 17.3202 10.4469C17.0554 11.8018 16.3245 13.0215 15.254 13.8947C14.1835 14.7678 12.8409 15.2393 11.4589 15.2273ZM13.8534 5.78176C13.1433 5.30771 12.3085 5.05471 11.4545 5.05471C10.3094 5.05471 9.21114 5.50919 8.40129 6.3183C7.59142 7.12744 7.13636 8.22495 7.13636 9.36943C7.13636 10.2229 7.38968 11.0572 7.86422 11.7667C8.33877 12.4763 9.0132 13.0293 9.8022 13.3558C10.5912 13.6823 11.4593 13.7677 12.2969 13.6013C13.1345 13.4348 13.9039 13.024 14.5078 12.4206C15.1117 11.8172 15.5231 11.0483 15.6897 10.2113C15.8564 9.37422 15.7709 8.50658 15.444 7.71811C15.1171 6.92965 14.5635 6.25581 13.8534 5.78176ZM27.5 16.3631V22.721C27.5 22.7568 27.4857 22.7913 27.4602 22.8168C27.4347 22.8423 27.4 22.8568 27.3636 22.8568H26.9168C26.1845 22.8568 25.5909 23.4504 25.5909 24.1826C25.5909 24.4558 25.275 24.6077 25.0616 24.4371L23.4951 23.185C23.2292 22.9725 22.8989 22.8568 22.5586 22.8568H17.1818C17.1455 22.8568 17.1108 22.8423 17.0852 22.8168C17.0597 22.7913 17.0455 22.7568 17.0455 22.721V16.3631C17.0455 16.3272 17.0597 16.2927 17.0852 16.2672C17.1108 16.2417 17.1455 16.2273 17.1818 16.2273H27.3636C27.4 16.2273 27.4347 16.2417 27.4602 16.2672C27.4857 16.2927 27.5 16.3272 27.5 16.3631Z" fill="#FFAA48" stroke="white"/>
</svg>
