<svg width="28" height="29" viewBox="0 0 28 29" fill="none" xmlns="http://www.w3.org/2000/svg">
<path d="M23.582 14.8308L24.1404 14.7634L24.008 14.2167C22.915 9.702 18.8513 6.33141 14.0007 6.33141C9.15009 6.33141 5.08567 9.70273 3.99267 14.2175L3.86029 14.7643L4.41885 14.8315C4.64464 14.8587 4.81515 15.0479 4.81515 15.2732V20.1422C4.81515 20.3899 4.61313 20.5917 4.36566 20.5917H2.3161C1.3145 20.5911 0.5 19.7761 0.5 18.7744V16.6402C0.5 15.6393 1.31439 14.8244 2.31582 14.8244H2.52745H2.93672L3.01759 14.4232C4.04978 9.30264 8.58207 5.43457 14.0007 5.43457C19.4194 5.43457 23.9517 9.30264 24.9838 14.4232L25.0647 14.8244H25.474H25.6863H25.6869C26.685 14.8233 27.5 15.6379 27.5 16.6402V18.7744C27.5 19.7761 26.6855 20.5909 25.6842 20.5909H23.6351C23.3881 20.5909 23.1856 20.3889 23.1856 20.1415V15.2724C23.1856 15.048 23.3567 14.858 23.582 14.8308ZM17.1114 21.6503H19.8762C18.4591 23.3125 16.3525 24.366 13.9993 24.366C9.7324 24.366 6.27345 20.9077 6.27345 16.6409C6.27345 12.3748 9.73242 8.9158 13.9993 8.9158C18.2661 8.9158 21.7244 12.3741 21.7244 16.6409C21.7244 17.5465 21.5647 18.4155 21.2765 19.2239H17.1144C16.6541 18.6819 15.9123 18.3538 15.1068 18.3538C13.8481 18.3538 12.6292 19.1871 12.6292 20.436C12.6292 21.6839 13.8492 22.5168 15.1068 22.5168C15.9105 22.5168 16.6509 22.1902 17.1114 21.6503Z" fill="#FFAA48" stroke="white"/>
</svg>
