<svg width="28" height="29" viewBox="0 0 28 29" fill="none" xmlns="http://www.w3.org/2000/svg">
<g clip-path="url(#clip0_1_928)">
<path d="M2 26.85V12.85C2 12.61 2.09461 12.3807 2.26176 12.2122C2.42877 12.0438 2.65443 11.95 2.88889 11.95H14C14.2345 11.95 14.4601 12.0438 14.6271 12.2122C14.7943 12.3807 14.8889 12.61 14.8889 12.85V26.85C14.8889 27.09 14.7943 27.3193 14.6271 27.4878C14.4601 27.6562 14.2345 27.75 14 27.75H2.88889C2.65443 27.75 2.42877 27.6562 2.26175 27.4878C2.09461 27.3193 2 27.09 2 26.85ZM11.2222 0.75H25.1111C25.3456 0.75 25.5712 0.843845 25.7382 1.01219C25.9054 1.18067 26 1.41002 26 1.65V17.05C26 17.29 25.9054 17.5193 25.7382 17.6878C25.5712 17.8562 25.3456 17.95 25.1111 17.95H24.2222V3.75C24.2222 3.43302 24.0973 3.12823 23.8738 2.90288C23.6501 2.6774 23.3459 2.55 23.0278 2.55H10.3333V1.65C10.3333 1.41003 10.4279 1.18067 10.5951 1.01219C10.7621 0.843845 10.9878 0.75 11.2222 0.75ZM20.1827 23.2878C20.0157 23.4562 19.79 23.55 19.5556 23.55H18.6667V9.35C18.6667 9.03302 18.5418 8.72823 18.3182 8.50288C18.0945 8.2774 17.7903 8.15 17.4722 8.15H4.77778V7.25C4.77778 7.01003 4.87239 6.78067 5.03953 6.61219C5.20654 6.44385 5.43221 6.35 5.66667 6.35H19.5556C19.79 6.35 20.0157 6.44385 20.1827 6.61219C20.3498 6.78067 20.4444 7.01002 20.4444 7.25V22.65C20.4444 22.89 20.3498 23.1193 20.1827 23.2878Z" fill="#FFAA48" stroke="white"/>
</g>
<defs>
<clipPath id="clip0_1_928">
<rect width="28" height="28" fill="white" transform="translate(0 0.25)"/>
</clipPath>
</defs>
</svg>
