<svg width="28" height="29" viewBox="0 0 28 29" fill="none" xmlns="http://www.w3.org/2000/svg">
<path d="M25.4014 24.6052L25.3879 24.611L25.3748 24.6175C24.3608 25.124 22.9779 24.7869 22.2882 23.7532L22.2774 23.737L22.2653 23.7217L19.9884 20.8264L19.8382 20.6354H19.5954H8.41759H8.1747L8.02456 20.8264L5.74761 23.7217L5.74054 23.7307L5.73389 23.74C4.87959 24.9349 3.34314 25.135 2.09529 24.2521C1.20525 23.5345 0.874644 22.4833 1.04202 21.6472L1.04205 21.6472L1.04302 21.6421L2.49199 13.9901L2.49211 13.9902L2.4939 13.9794C2.86647 11.746 4.92863 10.0541 7.17561 10.0541H12.9715H13.4715V9.55413V6.45199C13.4715 5.02819 14.533 3.84985 15.8694 3.84985H22.2863C22.4833 3.84985 22.6086 3.91329 22.6833 3.98793C22.7579 4.06253 22.8213 4.18744 22.8213 4.3839C22.8213 4.58035 22.7579 4.70527 22.6833 4.77987C22.6086 4.85451 22.4833 4.91794 22.2863 4.91794H16.0764C15.2548 4.91794 14.5414 5.4855 14.5414 6.24518V6.45199V9.55413V10.0541H15.0414H20.8373C23.0843 10.0541 25.1465 11.746 25.519 13.9794L25.5189 13.9794L25.521 13.9901L26.9677 21.6306C27.144 22.8917 26.6031 24.0906 25.4014 24.6052ZM11.4015 14.7244C11.4015 12.7933 9.72828 11.1222 7.7966 11.1222C5.86492 11.1222 4.19166 12.7933 4.19166 14.7244C4.19166 16.6554 5.86492 18.3265 7.7966 18.3265C9.72828 18.3265 11.4015 16.6554 11.4015 14.7244ZM23.8213 14.7244C23.8213 14.3004 23.6776 13.9083 23.3901 13.621C23.1025 13.3337 22.7103 13.1903 22.2863 13.1903H21.7513V12.6563C21.7513 12.2323 21.6077 11.8402 21.3201 11.5529C21.0326 11.2656 20.6403 11.1222 20.2163 11.1222C19.7924 11.1222 19.4001 11.2656 19.1126 11.5529C18.825 11.8402 18.6814 12.2323 18.6814 12.6563V13.1903H18.1464C17.7224 13.1903 17.3302 13.3337 17.0426 13.621C16.7551 13.9083 16.6114 14.3004 16.6114 14.7244C16.6114 15.1483 16.7551 15.5404 17.0426 15.8277C17.3302 16.115 17.7224 16.2584 18.1464 16.2584H18.6814V16.7924C18.6814 17.2164 18.825 17.6085 19.1126 17.8958C19.4001 18.1831 19.7924 18.3265 20.2163 18.3265C20.6403 18.3265 21.0326 18.1831 21.3201 17.8958C21.6077 17.6085 21.7513 17.2164 21.7513 16.7924V16.2584H22.2863C22.7103 16.2584 23.1025 16.115 23.3901 15.8277C23.6776 15.5404 23.8213 15.1483 23.8213 14.7244Z" fill="#FFAA48" stroke="white"/>
</svg>
