<svg width="29" height="29" viewBox="0 0 29 29" fill="none" xmlns="http://www.w3.org/2000/svg">
<g clip-path="url(#clip0_1_751)">
<path d="M23.057 3.09138C23.9612 3.46769 24.7815 4.02023 25.4703 4.71687L25.4704 4.71699C26.8552 6.11855 27.6344 8.0083 27.64 9.97915C27.6455 11.9492 26.8779 13.8427 25.5022 15.2519C25.5016 15.2525 25.501 15.2531 25.5004 15.2537L14.6573 26.1346C14.6572 26.1346 14.6572 26.1347 14.6572 26.1347C14.5257 26.2661 14.3473 26.3399 14.1616 26.3399C13.9757 26.3399 13.7975 26.2661 13.666 26.1347C13.666 26.1347 13.6659 26.1346 13.6659 26.1346L2.82226 15.2532C2.82177 15.2527 2.82128 15.2522 2.82078 15.2517C1.44541 13.8471 0.675018 11.9589 0.675018 9.99233C0.675018 8.02587 1.44531 6.13783 2.82051 4.73317C4.21396 3.34008 6.10318 2.55755 8.07301 2.55755C10.0437 2.55755 11.9336 3.34075 13.3273 4.73495L13.7759 5.1838L14.1358 5.54391L14.4893 5.17755L14.9358 4.71487C15.6242 4.01917 16.4438 3.46733 17.3472 3.09138C18.2515 2.71505 19.2214 2.52249 20.2008 2.52493L20.2033 2.52493C21.1826 2.52249 22.1527 2.71506 23.057 3.09138Z" fill="#FFAA48" stroke="white"/>
</g>
<defs>
<clipPath id="clip0_1_751">
<rect width="28" height="28" fill="white" transform="translate(0.140015 0.449951)"/>
</clipPath>
</defs>
</svg>
