<svg width="28" height="29" viewBox="0 0 28 29" fill="none" xmlns="http://www.w3.org/2000/svg">
<g clip-path="url(#clip0_1_840)">
<path d="M21.4674 17.3612C21.3533 17.4258 20.6163 17.8314 19.6757 18.0806C18.6947 18.3405 17.3378 18.4701 16.2767 17.6523L16.2737 17.65C16.1925 17.5864 8.44052 11.4757 4.05322 3.96003C3.98133 3.99903 3.79901 4.10208 3.55454 4.27043L3.55434 4.27056C1.22005 5.87632 0.0987194 8.51845 0.630499 10.981L0.630514 10.981C0.749316 11.5316 0.900899 12.1871 1.06943 12.9159L1.08963 13.0032C1.08964 13.0033 1.08965 13.0033 1.08967 13.0034C1.64069 15.3828 2.35195 18.457 2.67328 21.0196H5.11107V14.4209V13.509L5.87993 13.9993C7.33465 14.927 10.758 17.3378 13.0817 20.8175L13.0818 20.8176C14.7731 23.3505 17.2575 24.7323 20.0871 24.7504H20.1256C20.4278 24.7504 20.7361 24.7324 21.0424 24.6964L21.0429 24.6963C21.9922 24.5859 24.354 24.273 26.0882 23.7495L21.4674 17.3612ZM21.4674 17.3612C21.7406 17.5053 22.8933 18.1148 24.069 18.7593C24.6699 19.0887 25.2742 19.4258 25.7694 19.714C26.2789 20.0105 26.6351 20.2338 26.7696 20.3424L21.4674 17.3612ZM27.4615 22.237L27.4616 22.2367C27.6035 21.5127 27.3474 20.8097 26.7697 20.3425L27.4615 22.237ZM27.4615 22.237C27.3211 22.9557 26.7964 23.5354 26.0883 23.7494L27.4615 22.237ZM4.03693 3.93209C4.0369 3.93203 4.03686 3.93197 4.03683 3.93191L4.03693 3.93209Z" fill="#FFAA48" stroke="white"/>
<path d="M5.11075 24.7505H2.84635V23.3851C2.84635 23.2444 2.84337 23.0998 2.83803 22.9524H5.11075V24.7505Z" fill="#FFAA48" stroke="white"/>
</g>
<defs>
<clipPath id="clip0_1_840">
<rect width="28" height="28" fill="white" transform="translate(0 0.349854)"/>
</clipPath>
</defs>
</svg>
