<svg width="28" height="29" viewBox="0 0 28 29" fill="none" xmlns="http://www.w3.org/2000/svg">
<g clip-path="url(#clip0_1_771)">
<path d="M18.2077 20.5599L17.9 20.6881V21.0214V22.8004H10.1V21.0214V20.6881L9.79227 20.5599C7.57836 19.6377 5.76992 18.0182 4.66641 15.979C3.56321 13.9404 3.23001 11.6038 3.7205 9.36068C4.21108 7.11726 5.49706 5.09858 7.36825 3.64688C9.23988 2.19483 11.5817 1.3999 14 1.3999C16.4183 1.3999 18.7601 2.19483 20.6318 3.64688C22.5029 5.09858 23.7889 7.11726 24.2795 9.36068C24.77 11.6038 24.4368 13.9404 23.3336 15.979C22.2301 18.0182 20.4216 19.6377 18.2077 20.5599ZM8.41915 11.7436L8.74437 12.1234C9.10569 11.814 9.33956 11.384 9.39415 10.9132C9.50004 10.0115 9.8974 9.16035 10.5354 8.47852C11.1244 7.8491 11.8918 7.39282 12.7465 7.16492L12.9631 7.11808C13.4658 7.00938 13.9094 6.71311 14.1914 6.28627C14.474 5.85845 14.5688 5.3372 14.4506 4.83896C14.3324 4.34138 14.0138 3.91597 13.5737 3.65105C13.1342 3.38655 12.6059 3.30089 12.1035 3.40953L12.1031 3.40962C10.3728 3.78537 8.80442 4.6667 7.61735 5.93526C6.42999 7.20414 5.68326 8.79756 5.48511 10.4952L5.48484 10.4977C5.42814 11.0048 5.58497 11.5094 5.91441 11.9007C6.2431 12.2911 6.71557 12.5362 7.22558 12.5903L7.22767 12.5905C7.29892 12.5978 7.37051 12.6014 7.44214 12.6015L7.44346 12.6015C7.92032 12.6006 8.38363 12.4323 8.74437 12.1234L8.41915 11.7436ZM10.1 26.6002H17.9V27.5C17.9 27.731 17.8041 27.9574 17.6252 28.1282C17.4455 28.2997 17.197 28.3999 16.9333 28.3999H11.0667C10.803 28.3999 10.5545 28.2997 10.3748 28.1282C10.1959 27.9574 10.1 27.731 10.1 27.5V26.6002Z" fill="#FFAA48" stroke="white"/>
</g>
<defs>
<clipPath id="clip0_1_771">
<rect width="28" height="28" fill="white" transform="translate(0 0.899902)"/>
</clipPath>
</defs>
</svg>
