<svg width="28" height="29" viewBox="0 0 28 29" fill="none" xmlns="http://www.w3.org/2000/svg">
<g clip-path="url(#clip0_1_780)">
<path d="M1.98334 9.53324L19.4833 4.3999H19.8333C20.1428 4.3999 20.4395 4.52282 20.6583 4.74161C20.8771 4.9604 21 5.25715 21 5.56657V21.0832C21 21.3927 20.8771 21.6894 20.6583 21.9082C20.4395 22.127 20.1428 22.2499 19.8333 22.2499H19.4833L1.39833 16.6569C1.25299 16.4493 1.17239 16.2033 1.16667 15.9499V10.6999C1.15489 10.4426 1.22862 10.1886 1.37635 9.97751C1.52408 9.76646 1.73751 9.61025 1.98334 9.53324ZM1.98334 9.53324L2.13282 10.0104C2.13157 10.0108 2.13032 10.0112 2.12907 10.0116M1.98334 9.53324L2.12408 10.013L2.12907 10.0116M2.12907 10.0116L19.5552 4.8999H19.8333C20.0101 4.8999 20.1797 4.97014 20.3047 5.09516L20.6578 4.74209L20.3047 5.09517C20.4298 5.22019 20.5 5.38976 20.5 5.56657V21.0832C20.5 21.26 20.4298 21.4296 20.3047 21.5546C20.1797 21.6797 20.0102 21.7499 19.8333 21.7499H19.5552L2.14741 16.6436C2.01078 16.5865 1.89302 16.4917 1.80795 16.3702C1.72018 16.2448 1.67109 16.0965 1.66667 15.9436V10.6999V10.6885L1.66615 10.677C1.65942 10.53 1.70155 10.3848 1.78596 10.2642C1.86963 10.1447 1.99017 10.056 2.12907 10.0116ZM6.15246 23.8068L5.5152 19.6891L10.7148 21.2441L11.1723 23.3789C11.1914 23.5745 11.1716 23.772 11.1137 23.9599C11.0537 24.1551 10.954 24.3358 10.8208 24.4906L10.8208 24.4906L10.817 24.4952C10.7126 24.6196 10.5826 24.7202 10.436 24.79C10.2904 24.8593 10.1318 24.8968 9.97062 24.8999L7.35001 24.8999L7.34732 24.8999C7.05152 24.9015 6.76569 24.793 6.54544 24.5955C6.32519 24.3981 6.18625 24.1257 6.15566 23.8315L6.15437 23.8191L6.15246 23.8068Z" fill="#FFAA48" stroke="white"/>
<path d="M23.3801 9.32709L23.3624 9.32542L23.3445 9.32502C23.2166 9.32217 23.0918 9.28553 22.9827 9.21883C22.8754 9.15328 22.787 9.06099 22.7262 8.95104C22.688 8.87394 22.6651 8.79016 22.6587 8.70431C22.6522 8.6163 22.6632 8.52787 22.6911 8.44415C22.719 8.36043 22.7633 8.28309 22.8213 8.2166C22.8793 8.15011 22.95 8.0958 23.0291 8.05683L23.0292 8.05684L23.0319 8.05544L25.3653 6.88878C25.5251 6.80884 25.7102 6.79569 25.8798 6.85221C26.0494 6.90873 26.1895 7.0303 26.2695 7.19017C26.3494 7.35004 26.3625 7.53511 26.306 7.70468C26.2495 7.87425 26.1279 8.01442 25.9681 8.09435L23.6347 9.26102L23.6197 9.26855L23.6051 9.27709C23.5372 9.31696 23.4585 9.33446 23.3801 9.32709Z" fill="#FFAA48" stroke="white"/>
<path d="M25.9681 18.6138L25.9761 18.6178L25.9842 18.6215C26.0591 18.6557 26.1264 18.7047 26.1818 18.7656C26.2372 18.8266 26.2797 18.8981 26.3066 18.976C26.3336 19.0538 26.3444 19.1363 26.3385 19.2185C26.3328 19.299 26.311 19.3776 26.2745 19.4496C26.2137 19.5602 26.1251 19.653 26.0174 19.7188C25.9082 19.7855 25.7834 19.8222 25.6555 19.825L25.6377 19.8254L25.6199 19.8271C25.5415 19.8345 25.4628 19.817 25.3949 19.7771L25.3804 19.7686L25.3653 19.761L23.0319 18.5943L23.032 18.5943L23.0291 18.593C22.95 18.554 22.8793 18.4997 22.8213 18.4332C22.7633 18.3667 22.719 18.2894 22.6911 18.2056C22.6632 18.1219 22.6522 18.0335 22.6587 17.9455C22.6648 17.8639 22.6858 17.7842 22.7206 17.7103C22.8145 17.5655 22.9572 17.4587 23.1231 17.4095C23.2941 17.3588 23.4778 17.373 23.639 17.4492L25.9681 18.6138Z" fill="#FFAA48" stroke="white"/>
<path d="M25.6667 13.9915H23.3333C23.1565 13.9915 22.987 13.9213 22.8619 13.7963C22.7369 13.6713 22.6667 13.5017 22.6667 13.3249C22.6667 13.1481 22.7369 12.9785 22.8619 12.8535C22.987 12.7284 23.1565 12.6582 23.3333 12.6582H25.6667C25.8435 12.6582 26.0131 12.7284 26.1381 12.8535C26.2631 12.9785 26.3333 13.1481 26.3333 13.3249C26.3333 13.5017 26.2631 13.6713 26.1381 13.7963C26.0131 13.9213 25.8435 13.9915 25.6667 13.9915Z" fill="#FFAA48" stroke="white"/>
</g>
<defs>
<clipPath id="clip0_1_780">
<rect width="28" height="28" fill="white" transform="translate(0 0.899902)"/>
</clipPath>
</defs>
</svg>
