<svg width="28" height="29" viewBox="0 0 28 29" fill="none" xmlns="http://www.w3.org/2000/svg">
<g clip-path="url(#clip0_1_792)">
<path d="M23.8252 15.2517L24.1787 14.8981L23.8251 14.5445L18.647 9.36701C18.647 9.36701 18.647 9.36701 18.647 9.367C18.6109 9.33087 18.6109 9.27236 18.647 9.23623L20.1963 7.68696C20.2024 7.68081 20.2236 7.66675 20.2615 7.66675C20.2994 7.66675 20.3206 7.68081 20.3267 7.68696L27.4728 14.833C27.5088 14.869 27.5091 14.928 27.4726 14.9646L20.3273 22.1102C20.3095 22.128 20.2854 22.1376 20.2619 22.1376C20.2383 22.1376 20.2145 22.1281 20.1966 22.1102L18.6473 20.5609C18.6112 20.5248 18.6112 20.4663 18.6473 20.4301L18.6473 20.4301L23.8252 15.2517Z" fill="#FFAA48" stroke="white"/>
<path d="M9.35238 20.4301L9.35285 20.4306C9.38918 20.4668 9.38885 20.5248 9.35322 20.5604L9.35299 20.5606L7.80372 22.1099L8.13371 22.4399L7.80372 22.1099C7.78583 22.1278 7.76197 22.1374 7.73833 22.1374C7.7147 22.1374 7.69084 22.1278 7.67294 22.1099L7.67293 22.1099L0.527099 14.9644C0.527059 14.9643 0.527019 14.9643 0.526979 14.9642C0.490545 14.9276 0.490901 14.869 0.526851 14.8331C0.526858 14.8331 0.526865 14.8331 0.526873 14.8331L7.67321 7.6876L7.67324 7.68758C7.69068 7.67013 7.71436 7.6604 7.73863 7.6604C7.7629 7.6604 7.78658 7.67013 7.80402 7.68758L8.11605 7.37554L7.80402 7.68758L9.35329 9.23684L9.35376 9.23731C9.37064 9.25416 9.38046 9.27739 9.38046 9.30224C9.38046 9.32666 9.37083 9.35007 9.35331 9.36761C9.3533 9.36761 9.35329 9.36762 9.35329 9.36763L4.17516 14.5452L3.82158 14.8987L4.17512 15.2523L9.35238 20.4301Z" fill="#FFAA48" stroke="white"/>
<path d="M17.6245 5.16876L17.6247 5.16916C17.6357 5.18932 17.6389 5.21417 17.6316 5.23872C17.6316 5.23874 17.6316 5.23876 17.6316 5.23878L11.8011 24.9841L11.8011 24.9841C11.7893 25.024 11.7527 25.0508 11.7127 25.0508C11.7054 25.0508 11.6967 25.0498 11.6867 25.0468L11.6862 25.0467L10.4312 24.6763C10.4311 24.6763 10.4309 24.6762 10.4308 24.6762C10.4061 24.6687 10.3868 24.6524 10.3758 24.6321L10.3754 24.6313C10.3639 24.6101 10.361 24.5849 10.3681 24.5609L16.1986 4.81597L16.1986 4.81567C16.2131 4.76654 16.265 4.73896 16.3127 4.75313L16.3135 4.75335L17.5694 5.12398C17.5694 5.12398 17.5694 5.12399 17.5694 5.124C17.5926 5.13085 17.6125 5.14678 17.6245 5.16876ZM11.5447 25.5262C11.6007 25.5428 11.6573 25.5508 11.7127 25.5508C11.9684 25.5508 12.2045 25.3837 12.2807 25.1257L11.5447 25.5262Z" fill="#FFAA48" stroke="white"/>
</g>
<defs>
<clipPath id="clip0_1_792">
<rect width="28" height="28" fill="white" transform="translate(0 0.899902)"/>
</clipPath>
</defs>
</svg>
