<svg width="29" height="29" viewBox="0 0 29 29" fill="none" xmlns="http://www.w3.org/2000/svg">
<path d="M17.1177 15.6868L17.102 15.7007C16.992 15.7986 16.8512 15.9551 16.7236 16.123C16.5907 16.2978 16.5058 16.4407 16.4786 16.509C16.3036 16.9479 15.878 17.2834 15.354 17.2834H12.7959C12.1468 17.2834 11.5047 16.7213 11.6717 15.9684C11.9469 14.7273 12.8279 13.8987 13.5965 13.176L17.1177 15.6868ZM17.1177 15.6868L17.1321 15.6716M17.1177 15.6868L17.1321 15.6716M17.1321 15.6716C17.3886 15.4018 17.6576 15.1464 17.9332 14.8848M17.1321 15.6716L17.9332 14.8848M17.9332 14.8848C17.9477 14.871 17.9623 14.8572 17.9768 14.8434M17.9332 14.8848L17.9768 14.8434M17.9768 14.8434C19.0276 13.8467 20.1863 12.7475 20.1863 10.8456M17.9768 14.8434L20.1863 10.8456M20.1863 10.8456C20.1863 9.22259 19.477 7.94122 18.3942 7.07672M20.1863 10.8456L18.3942 7.07672M18.3942 7.07672C17.322 6.22067 15.8995 5.78337 14.4558 5.78337M18.3942 7.07672L14.4558 5.78337M14.4558 5.78337C13.3586 5.78337 12.0363 6.03207 10.9002 6.71911M14.4558 5.78337L10.9002 6.71911M10.9002 6.71911C9.7487 7.41549 8.8032 8.55586 8.4957 10.2833M10.9002 6.71911L8.4957 10.2833M8.4957 10.2833C8.31715 11.2862 9.16767 12.0334 10.0567 12.0334M8.4957 10.2833L10.0567 12.0334M10.0567 12.0334H11.7043M10.0567 12.0334H11.7043M11.7043 12.0334C12.619 12.0334 13.2109 11.3068 13.457 10.6342L11.7043 12.0334ZM14.7239 12.0185C14.4096 12.4097 14.0377 12.7608 13.6396 13.1354L13.457 10.6342C13.5351 10.4208 13.6388 10.2731 13.7724 10.1753C13.904 10.0791 14.1103 9.99765 14.4558 9.99765C14.7521 9.99765 14.9194 10.0774 15.0149 10.1604C15.1117 10.2445 15.1844 10.375 15.212 10.566C15.27 10.9668 15.1085 11.5399 14.7239 12.0185ZM1.80667 14.45C1.80667 7.63852 7.3285 2.1167 14.14 2.1167C20.9515 2.1167 26.4733 7.63852 26.4733 14.45C26.4733 21.2615 20.9515 26.7834 14.14 26.7834C7.3285 26.7834 1.80667 21.2615 1.80667 14.45ZM14.1399 23.1167C15.7047 23.1167 16.9732 21.8482 16.9732 20.2834C16.9732 18.7185 15.7047 17.45 14.1399 17.45C12.5752 17.45 11.3066 18.7185 11.3066 20.2834C11.3066 21.8482 12.5752 23.1167 14.1399 23.1167Z" fill="#FFAA48" stroke="white"/>
</svg>
