<svg width="28" height="29" viewBox="0 0 28 29" fill="none" xmlns="http://www.w3.org/2000/svg">
<g clip-path="url(#clip0_1_822)">
<path d="M18.9347 5.9501V6.4501H19.4347H22.1999C23.3803 6.4501 24.3726 7.41671 24.4161 8.66748C24.4161 8.66749 24.4161 8.66751 24.4161 8.66752L24.9983 25.4675C25.0439 26.7842 24.0235 27.8501 22.7823 27.8501H5.21732C3.97612 27.8501 2.95562 26.7843 3.00125 25.4675L3.58357 8.66749C3.62693 7.41672 4.61923 6.4501 5.79965 6.4501H8.56473H9.06473V5.9501C9.06473 3.11924 11.2882 0.850098 13.9997 0.850098C16.7112 0.850098 18.9347 3.11925 18.9347 5.9501ZM11.7822 8.7501V8.2501H11.2822H8.56473H8.06473V8.7501V10.1501C8.06473 11.1852 8.88294 12.0501 9.92348 12.0501C10.8894 12.0501 11.6646 11.3037 11.7699 10.3694L11.7715 10.3554L11.7723 10.3413L11.7815 10.1781L11.7822 10.1641V10.1501V8.7501ZM19.9347 8.7501V8.2501H19.4347H16.7172H16.2172V8.7501V10.1501C16.2172 11.1852 17.0354 12.0501 18.076 12.0501C19.1166 12.0501 19.9347 11.1852 19.9347 10.1501V8.7501ZM10.791 5.70542L10.7903 5.71436L10.79 5.72331L10.7826 5.93228L10.7641 6.4501H11.2822H16.7172H17.2172V5.9501C17.2172 4.14176 15.7907 2.6501 13.9997 2.6501C12.2904 2.6501 10.9124 4.00965 10.791 5.70542Z" fill="#FFAA48" stroke="white"/>
</g>
<defs>
<clipPath id="clip0_1_822">
<rect width="28" height="28" fill="white" transform="translate(0 0.349854)"/>
</clipPath>
</defs>
</svg>
