<svg width="20" height="29" viewBox="0 0 20 29" fill="none" xmlns="http://www.w3.org/2000/svg">
<g clip-path="url(#clip0_1_895)">
<mask id="path-1-inside-1_1_895" fill="white">
<path d="M1.92764 2.55162C1.93634 2.45213 1.97365 2.4254 2.01033 2.49193C2.04702 2.55846 2.09054 2.54478 2.10733 2.46146C2.12412 2.37814 2.1807 2.24073 2.23355 2.15617C2.23355 2.15617 2.31874 2.01937 2.41573 2.01937C2.51273 2.01937 2.61346 1.84901 2.61346 1.84901C2.66445 1.7632 2.73533 1.61646 2.77077 1.52319L2.79875 1.45044C2.83419 1.35718 2.9343 1.2807 3.02073 1.2807C3.10715 1.2807 3.21907 1.24774 3.26882 1.20795C3.31856 1.16816 3.44105 1.1352 3.54116 1.1352H3.79546C3.88003 1.1352 4.09392 0.951155 4.09392 0.951155C4.16978 0.885868 4.29662 0.819338 4.37683 0.80255C4.45642 0.785762 4.47445 0.838613 4.416 0.920066L4.34947 1.01271C4.29102 1.09354 4.24377 1.21976 4.24377 1.29313C4.24377 1.3665 4.2904 1.49335 4.34698 1.57542C4.34698 1.57542 4.54595 1.86206 4.59445 1.89813C4.64295 1.93419 4.74679 1.66807 4.74679 1.66807C4.78285 1.5748 4.80648 1.41749 4.79964 1.31801C4.79964 1.31801 4.77601 0.990327 4.87301 0.990327C4.97001 0.990327 5.65956 1.00214 5.672 1.03883C5.68381 1.07489 5.99532 1.40319 5.99532 1.40319C6.06372 1.47594 6.20175 1.52692 6.30062 1.51698L6.90747 1.45604C7.00696 1.44609 7.16862 1.42495 7.26748 1.40879L7.35702 1.39448C7.45526 1.37832 7.61444 1.34163 7.71019 1.31303C7.71019 1.31303 8.26233 1.14764 8.32327 1.19551C8.38358 1.24401 8.49301 1.59532 8.65032 1.6917C8.80763 1.78869 8.9494 1.91118 8.9494 1.91118C9.02463 1.97647 9.15086 2.08031 9.22982 2.14186C9.22982 2.14186 9.47418 2.33275 9.55874 2.34456C9.64331 2.35638 10.2365 2.56219 10.2489 2.65919C10.2607 2.75618 10.479 3.1193 10.6239 3.16718C10.7693 3.21568 11.5559 3.25174 11.5683 3.28843C11.5802 3.32449 11.883 3.32449 11.9675 3.38542C12.0521 3.44574 12.5483 3.51849 12.6092 3.5788C12.6695 3.63911 13.0693 3.89342 13.0936 3.96617C13.1178 4.03892 13.2428 4.34297 13.2428 4.34297C13.2807 4.43561 13.3286 4.59106 13.3491 4.68868C13.3491 4.68868 13.3964 4.91065 13.4927 4.99521C13.5897 5.07978 13.8919 5.30983 13.8919 5.38258C13.8919 5.45533 13.8559 5.76995 13.9404 5.85451C14.025 5.93907 14.7077 6.09266 14.7077 6.09266C14.8053 6.11442 14.9645 6.1511 15.0615 6.17411L15.0951 6.18219C15.1921 6.20458 15.3425 6.26427 15.429 6.31463L15.8045 6.53225C15.891 6.58262 15.9824 6.69702 16.0072 6.78656C16.0321 6.87672 16.1341 6.95009 16.2342 6.95009H16.5973C16.6974 6.95009 16.8535 6.98429 16.9442 7.02533L17.2129 7.14719C17.3036 7.18823 17.4597 7.22243 17.5598 7.22243C17.6599 7.22243 17.8023 7.27715 17.8769 7.34305L18.278 7.70058C18.3526 7.76711 18.4825 7.86473 18.5677 7.91758L19.5122 8.50641C19.5968 8.55926 19.6851 8.68237 19.7074 8.77937L19.8243 9.27928C19.8473 9.37628 19.8473 9.53545 19.8243 9.63245L19.7074 10.1324C19.6851 10.2294 19.5887 10.3351 19.4935 10.3668L19.2392 10.4513C19.1441 10.483 19.0129 10.5701 18.9476 10.6453L18.8052 10.8076C18.7393 10.8828 18.6548 11.0196 18.6162 11.1123L18.5372 11.3032C18.4987 11.3952 18.4036 11.5214 18.3246 11.583L18.1928 11.6862C18.1144 11.7477 18.0143 11.8715 17.9714 11.9616L17.9105 12.0879C17.867 12.178 17.844 12.3322 17.8589 12.4311L17.9683 13.1611C17.9832 13.2599 17.931 13.3911 17.852 13.452L17.4852 13.7374C17.4062 13.799 17.3266 13.9289 17.308 14.0272L17.2309 14.4332C17.2122 14.5315 17.1625 14.6857 17.1208 14.7764L16.9461 15.1551C16.9045 15.2459 16.8056 15.3696 16.726 15.4312L16.3778 15.6992C16.2988 15.7601 16.1527 15.8036 16.0532 15.7962L15.235 15.7334C15.1355 15.7259 14.9832 15.7601 14.8967 15.8105L14.5212 16.0281C14.4347 16.0784 14.2911 16.1555 14.2016 16.2003L13.8366 16.3831C13.7471 16.4279 13.67 16.546 13.665 16.6455L13.6289 17.3543C13.6239 17.4538 13.5698 17.6006 13.5089 17.6795L13.3671 17.8636C13.3062 17.9425 13.1943 18.0601 13.1178 18.1247L12.5595 18.5979C12.483 18.6626 12.4077 18.7962 12.3922 18.8945C12.3922 18.8945 12.2933 19.5138 12.2933 19.5685C12.2933 19.6232 11.4036 20.2941 11.4036 20.2941C11.324 20.3544 11.1803 20.3799 11.0852 20.3507L10.1799 20.0752C10.0841 20.046 10.0412 20.0964 10.0841 20.1865L10.1096 20.24C10.1525 20.3302 10.2104 20.4825 10.2377 20.5789L10.2471 20.6112C10.2744 20.707 10.3378 20.855 10.3876 20.9401C10.4373 21.0253 10.4417 21.1677 10.3969 21.2566L10.3049 21.4401C10.2601 21.5296 10.1612 21.6552 10.0848 21.7199L9.89015 21.8846C9.81367 21.9493 9.67004 22.0021 9.56994 22.0021H8.68017C8.60058 22.0021 8.56949 22.0761 8.61115 22.1669C8.61115 22.1669 8.77095 22.5108 8.77095 22.5649C8.77095 22.6189 8.53281 22.9448 8.53281 22.9448C8.47374 23.0256 8.34689 23.0685 8.25114 23.0405L7.90978 22.9417C7.81403 22.9137 7.75496 22.9703 7.77921 23.0673L7.85444 23.3688C7.87869 23.4658 7.92906 23.6206 7.96574 23.7133C7.96574 23.7133 8.0074 23.8171 7.87994 23.9626C7.75309 24.1075 7.43536 24.4787 7.43536 24.4787C7.37008 24.5546 7.27494 24.6864 7.22396 24.7722L7.19287 24.8238C7.14126 24.9096 7.13318 25.0545 7.17422 25.1452L7.18852 25.177C7.22956 25.2677 7.26313 25.3672 7.26313 25.3971C7.26313 25.4269 7.33588 25.4878 7.42542 25.5326L7.42728 25.5339C7.51682 25.5786 7.55475 25.6887 7.51184 25.7788L7.48635 25.8323C7.44345 25.9225 7.35826 26.0611 7.29795 26.1401L6.91991 26.6325C6.85897 26.7115 6.82664 26.8564 6.84778 26.954L6.91618 27.2711C6.93732 27.3687 6.97898 27.5267 7.00882 27.6218L7.08219 27.8562C7.11204 27.9513 7.20468 28.0738 7.28862 28.1285L7.34707 28.1665C7.43101 28.2212 7.56656 28.3113 7.64926 28.3673L7.80284 28.4718C7.88553 28.5277 7.88242 28.6148 7.796 28.6651L7.67413 28.7366C7.5877 28.787 7.43723 28.8106 7.34023 28.7889L6.46041 28.5949C6.36279 28.5731 6.29813 28.4755 6.3174 28.3773L6.32238 28.353C6.34103 28.2548 6.29564 28.1198 6.22103 28.0539L5.98351 27.8419C5.90889 27.7754 5.81003 27.6485 5.76402 27.5602C5.76402 27.5602 5.64837 27.3401 5.6664 27.2127C5.68443 27.0858 5.44069 26.6114 5.44069 26.6114C5.3953 26.5225 5.28711 26.4087 5.20131 26.3577C5.20131 26.3577 5.04897 26.2682 5.15778 26.0319C5.2666 25.7956 5.24608 25.7459 5.24608 25.7459C5.20753 25.6539 5.1155 25.5239 5.04089 25.4574C5.04089 25.4574 4.83135 25.2696 4.88544 25.2335C4.94016 25.1975 5.12359 25.0545 5.12359 25.0545C5.20255 24.9929 5.26784 24.8611 5.26908 24.7616L5.28214 23.745C5.28338 23.6449 5.20628 23.5404 5.10991 23.5124L5.02286 23.487C4.9271 23.459 4.85809 23.3551 4.86928 23.2556L4.9184 22.8359C4.93021 22.7365 4.93208 22.5742 4.92337 22.4747C4.92337 22.4747 4.88482 22.0382 4.88482 21.8747C4.88482 21.7111 5.0384 21.1242 5.0384 21.1242C5.0639 21.0278 5.09498 20.868 5.10866 20.7685C5.10866 20.7685 5.21126 20.0044 5.21126 19.9496V19.3869C5.21126 19.2868 5.20939 19.1233 5.2069 19.0238C5.2069 19.0238 5.17457 17.6074 5.1926 17.5527C5.21064 17.498 5.31447 16.6977 5.31447 16.6977C5.32753 16.5989 5.32691 16.4366 5.31323 16.3377C5.31323 16.3377 5.22867 15.7184 5.22867 15.6283C5.22867 15.5381 5.27468 15.2266 5.27468 15.2266C5.2896 15.1277 5.29458 14.9655 5.28649 14.866L5.24359 14.3486C5.23551 14.2492 5.20131 14.0906 5.16835 13.9967L5.01664 13.5658C4.98369 13.4713 4.90161 13.3339 4.83508 13.2593L4.60502 13.0031C4.53849 12.9285 4.40294 12.8564 4.30408 12.8421L3.7737 12.7662C3.67484 12.7519 3.54302 12.6767 3.48084 12.599L3.0543 12.0655C2.99212 11.9878 2.90508 11.8503 2.86155 11.7602L2.72973 11.4878C2.68621 11.3983 2.59667 11.2634 2.53076 11.1881C2.53076 11.1881 2.12412 10.7255 2.0694 10.6708C2.01469 10.6161 1.54275 9.96261 1.54275 9.88987C1.54275 9.81712 1.19767 9.23637 1.14357 9.19969C1.08886 9.16363 0.618168 8.8173 0.618168 8.8173C0.537958 8.75823 0.47205 8.62827 0.47205 8.52817V7.7839C0.47205 7.68441 0.531119 7.54575 0.603245 7.47674L0.776722 7.3101C0.848848 7.24108 0.858797 7.16398 0.799106 7.13911C0.739415 7.11424 0.654231 7.02035 0.610707 6.93081C0.610707 6.93081 0.363238 6.4222 0.47205 6.44023C0.580861 6.45826 0.762421 5.67793 0.817138 5.67793C0.871854 5.67793 1.14233 5.55357 1.14233 5.55357C1.23311 5.51191 1.31891 5.39688 1.33259 5.29802C1.33259 5.29802 1.41653 4.69738 1.48928 4.69738C1.56203 4.69738 1.73426 4.54504 1.73426 4.54504C1.80888 4.47914 1.85178 4.34545 1.8294 4.24846C1.8294 4.24846 1.74359 3.88036 1.76162 3.80761C1.77965 3.73486 1.86297 3.15226 1.86297 3.15226C1.87727 3.05339 1.89593 2.89111 1.90525 2.79162L1.92701 2.54789L1.92764 2.55162Z"/>
</mask>
<path d="M1.92764 2.55162C1.93634 2.45213 1.97365 2.4254 2.01033 2.49193C2.04702 2.55846 2.09054 2.54478 2.10733 2.46146C2.12412 2.37814 2.1807 2.24073 2.23355 2.15617C2.23355 2.15617 2.31874 2.01937 2.41573 2.01937C2.51273 2.01937 2.61346 1.84901 2.61346 1.84901C2.66445 1.7632 2.73533 1.61646 2.77077 1.52319L2.79875 1.45044C2.83419 1.35718 2.9343 1.2807 3.02073 1.2807C3.10715 1.2807 3.21907 1.24774 3.26882 1.20795C3.31856 1.16816 3.44105 1.1352 3.54116 1.1352H3.79546C3.88003 1.1352 4.09392 0.951155 4.09392 0.951155C4.16978 0.885868 4.29662 0.819338 4.37683 0.80255C4.45642 0.785762 4.47445 0.838613 4.416 0.920066L4.34947 1.01271C4.29102 1.09354 4.24377 1.21976 4.24377 1.29313C4.24377 1.3665 4.2904 1.49335 4.34698 1.57542C4.34698 1.57542 4.54595 1.86206 4.59445 1.89813C4.64295 1.93419 4.74679 1.66807 4.74679 1.66807C4.78285 1.5748 4.80648 1.41749 4.79964 1.31801C4.79964 1.31801 4.77601 0.990327 4.87301 0.990327C4.97001 0.990327 5.65956 1.00214 5.672 1.03883C5.68381 1.07489 5.99532 1.40319 5.99532 1.40319C6.06372 1.47594 6.20175 1.52692 6.30062 1.51698L6.90747 1.45604C7.00696 1.44609 7.16862 1.42495 7.26748 1.40879L7.35702 1.39448C7.45526 1.37832 7.61444 1.34163 7.71019 1.31303C7.71019 1.31303 8.26233 1.14764 8.32327 1.19551C8.38358 1.24401 8.49301 1.59532 8.65032 1.6917C8.80763 1.78869 8.9494 1.91118 8.9494 1.91118C9.02463 1.97647 9.15086 2.08031 9.22982 2.14186C9.22982 2.14186 9.47418 2.33275 9.55874 2.34456C9.64331 2.35638 10.2365 2.56219 10.2489 2.65919C10.2607 2.75618 10.479 3.1193 10.6239 3.16718C10.7693 3.21568 11.5559 3.25174 11.5683 3.28843C11.5802 3.32449 11.883 3.32449 11.9675 3.38542C12.0521 3.44574 12.5483 3.51849 12.6092 3.5788C12.6695 3.63911 13.0693 3.89342 13.0936 3.96617C13.1178 4.03892 13.2428 4.34297 13.2428 4.34297C13.2807 4.43561 13.3286 4.59106 13.3491 4.68868C13.3491 4.68868 13.3964 4.91065 13.4927 4.99521C13.5897 5.07978 13.8919 5.30983 13.8919 5.38258C13.8919 5.45533 13.8559 5.76995 13.9404 5.85451C14.025 5.93907 14.7077 6.09266 14.7077 6.09266C14.8053 6.11442 14.9645 6.1511 15.0615 6.17411L15.0951 6.18219C15.1921 6.20458 15.3425 6.26427 15.429 6.31463L15.8045 6.53225C15.891 6.58262 15.9824 6.69702 16.0072 6.78656C16.0321 6.87672 16.1341 6.95009 16.2342 6.95009H16.5973C16.6974 6.95009 16.8535 6.98429 16.9442 7.02533L17.2129 7.14719C17.3036 7.18823 17.4597 7.22243 17.5598 7.22243C17.6599 7.22243 17.8023 7.27715 17.8769 7.34305L18.278 7.70058C18.3526 7.76711 18.4825 7.86473 18.5677 7.91758L19.5122 8.50641C19.5968 8.55926 19.6851 8.68237 19.7074 8.77937L19.8243 9.27928C19.8473 9.37628 19.8473 9.53545 19.8243 9.63245L19.7074 10.1324C19.6851 10.2294 19.5887 10.3351 19.4935 10.3668L19.2392 10.4513C19.1441 10.483 19.0129 10.5701 18.9476 10.6453L18.8052 10.8076C18.7393 10.8828 18.6548 11.0196 18.6162 11.1123L18.5372 11.3032C18.4987 11.3952 18.4036 11.5214 18.3246 11.583L18.1928 11.6862C18.1144 11.7477 18.0143 11.8715 17.9714 11.9616L17.9105 12.0879C17.867 12.178 17.844 12.3322 17.8589 12.4311L17.9683 13.1611C17.9832 13.2599 17.931 13.3911 17.852 13.452L17.4852 13.7374C17.4062 13.799 17.3266 13.9289 17.308 14.0272L17.2309 14.4332C17.2122 14.5315 17.1625 14.6857 17.1208 14.7764L16.9461 15.1551C16.9045 15.2459 16.8056 15.3696 16.726 15.4312L16.3778 15.6992C16.2988 15.7601 16.1527 15.8036 16.0532 15.7962L15.235 15.7334C15.1355 15.7259 14.9832 15.7601 14.8967 15.8105L14.5212 16.0281C14.4347 16.0784 14.2911 16.1555 14.2016 16.2003L13.8366 16.3831C13.7471 16.4279 13.67 16.546 13.665 16.6455L13.6289 17.3543C13.6239 17.4538 13.5698 17.6006 13.5089 17.6795L13.3671 17.8636C13.3062 17.9425 13.1943 18.0601 13.1178 18.1247L12.5595 18.5979C12.483 18.6626 12.4077 18.7962 12.3922 18.8945C12.3922 18.8945 12.2933 19.5138 12.2933 19.5685C12.2933 19.6232 11.4036 20.2941 11.4036 20.2941C11.324 20.3544 11.1803 20.3799 11.0852 20.3507L10.1799 20.0752C10.0841 20.046 10.0412 20.0964 10.0841 20.1865L10.1096 20.24C10.1525 20.3302 10.2104 20.4825 10.2377 20.5789L10.2471 20.6112C10.2744 20.707 10.3378 20.855 10.3876 20.9401C10.4373 21.0253 10.4417 21.1677 10.3969 21.2566L10.3049 21.4401C10.2601 21.5296 10.1612 21.6552 10.0848 21.7199L9.89015 21.8846C9.81367 21.9493 9.67004 22.0021 9.56994 22.0021H8.68017C8.60058 22.0021 8.56949 22.0761 8.61115 22.1669C8.61115 22.1669 8.77095 22.5108 8.77095 22.5649C8.77095 22.6189 8.53281 22.9448 8.53281 22.9448C8.47374 23.0256 8.34689 23.0685 8.25114 23.0405L7.90978 22.9417C7.81403 22.9137 7.75496 22.9703 7.77921 23.0673L7.85444 23.3688C7.87869 23.4658 7.92906 23.6206 7.96574 23.7133C7.96574 23.7133 8.0074 23.8171 7.87994 23.9626C7.75309 24.1075 7.43536 24.4787 7.43536 24.4787C7.37008 24.5546 7.27494 24.6864 7.22396 24.7722L7.19287 24.8238C7.14126 24.9096 7.13318 25.0545 7.17422 25.1452L7.18852 25.177C7.22956 25.2677 7.26313 25.3672 7.26313 25.3971C7.26313 25.4269 7.33588 25.4878 7.42542 25.5326L7.42728 25.5339C7.51682 25.5786 7.55475 25.6887 7.51184 25.7788L7.48635 25.8323C7.44345 25.9225 7.35826 26.0611 7.29795 26.1401L6.91991 26.6325C6.85897 26.7115 6.82664 26.8564 6.84778 26.954L6.91618 27.2711C6.93732 27.3687 6.97898 27.5267 7.00882 27.6218L7.08219 27.8562C7.11204 27.9513 7.20468 28.0738 7.28862 28.1285L7.34707 28.1665C7.43101 28.2212 7.56656 28.3113 7.64926 28.3673L7.80284 28.4718C7.88553 28.5277 7.88242 28.6148 7.796 28.6651L7.67413 28.7366C7.5877 28.787 7.43723 28.8106 7.34023 28.7889L6.46041 28.5949C6.36279 28.5731 6.29813 28.4755 6.3174 28.3773L6.32238 28.353C6.34103 28.2548 6.29564 28.1198 6.22103 28.0539L5.98351 27.8419C5.90889 27.7754 5.81003 27.6485 5.76402 27.5602C5.76402 27.5602 5.64837 27.3401 5.6664 27.2127C5.68443 27.0858 5.44069 26.6114 5.44069 26.6114C5.3953 26.5225 5.28711 26.4087 5.20131 26.3577C5.20131 26.3577 5.04897 26.2682 5.15778 26.0319C5.2666 25.7956 5.24608 25.7459 5.24608 25.7459C5.20753 25.6539 5.1155 25.5239 5.04089 25.4574C5.04089 25.4574 4.83135 25.2696 4.88544 25.2335C4.94016 25.1975 5.12359 25.0545 5.12359 25.0545C5.20255 24.9929 5.26784 24.8611 5.26908 24.7616L5.28214 23.745C5.28338 23.6449 5.20628 23.5404 5.10991 23.5124L5.02286 23.487C4.9271 23.459 4.85809 23.3551 4.86928 23.2556L4.9184 22.8359C4.93021 22.7365 4.93208 22.5742 4.92337 22.4747C4.92337 22.4747 4.88482 22.0382 4.88482 21.8747C4.88482 21.7111 5.0384 21.1242 5.0384 21.1242C5.0639 21.0278 5.09498 20.868 5.10866 20.7685C5.10866 20.7685 5.21126 20.0044 5.21126 19.9496V19.3869C5.21126 19.2868 5.20939 19.1233 5.2069 19.0238C5.2069 19.0238 5.17457 17.6074 5.1926 17.5527C5.21064 17.498 5.31447 16.6977 5.31447 16.6977C5.32753 16.5989 5.32691 16.4366 5.31323 16.3377C5.31323 16.3377 5.22867 15.7184 5.22867 15.6283C5.22867 15.5381 5.27468 15.2266 5.27468 15.2266C5.2896 15.1277 5.29458 14.9655 5.28649 14.866L5.24359 14.3486C5.23551 14.2492 5.20131 14.0906 5.16835 13.9967L5.01664 13.5658C4.98369 13.4713 4.90161 13.3339 4.83508 13.2593L4.60502 13.0031C4.53849 12.9285 4.40294 12.8564 4.30408 12.8421L3.7737 12.7662C3.67484 12.7519 3.54302 12.6767 3.48084 12.599L3.0543 12.0655C2.99212 11.9878 2.90508 11.8503 2.86155 11.7602L2.72973 11.4878C2.68621 11.3983 2.59667 11.2634 2.53076 11.1881C2.53076 11.1881 2.12412 10.7255 2.0694 10.6708C2.01469 10.6161 1.54275 9.96261 1.54275 9.88987C1.54275 9.81712 1.19767 9.23637 1.14357 9.19969C1.08886 9.16363 0.618168 8.8173 0.618168 8.8173C0.537958 8.75823 0.47205 8.62827 0.47205 8.52817V7.7839C0.47205 7.68441 0.531119 7.54575 0.603245 7.47674L0.776722 7.3101C0.848848 7.24108 0.858797 7.16398 0.799106 7.13911C0.739415 7.11424 0.654231 7.02035 0.610707 6.93081C0.610707 6.93081 0.363238 6.4222 0.47205 6.44023C0.580861 6.45826 0.762421 5.67793 0.817138 5.67793C0.871854 5.67793 1.14233 5.55357 1.14233 5.55357C1.23311 5.51191 1.31891 5.39688 1.33259 5.29802C1.33259 5.29802 1.41653 4.69738 1.48928 4.69738C1.56203 4.69738 1.73426 4.54504 1.73426 4.54504C1.80888 4.47914 1.85178 4.34545 1.8294 4.24846C1.8294 4.24846 1.74359 3.88036 1.76162 3.80761C1.77965 3.73486 1.86297 3.15226 1.86297 3.15226C1.87727 3.05339 1.89593 2.89111 1.90525 2.79162L1.92701 2.54789L1.92764 2.55162Z" fill="#FFAA48" stroke="white" stroke-width="2" mask="url(#path-1-inside-1_1_895)"/>
</g>
<defs>
<clipPath id="clip0_1_895">
<rect width="19.3946" height="28" fill="white" transform="translate(0.445312 0.800049)"/>
</clipPath>
</defs>
</svg>
