<svg width="28" height="29" viewBox="0 0 28 29" fill="none" xmlns="http://www.w3.org/2000/svg">
<g clip-path="url(#clip0_1_933)">
<path d="M12.1277 22.5258L11.6663 22.7183C11.6829 22.7582 11.6741 22.8044 11.6427 22.8358L10.0467 24.4318L9.85747 24.621L9.90995 24.8834L10.4225 27.4461L10.4367 27.5175L10.4708 27.5819C10.4758 27.5914 10.4809 27.6071 10.4809 27.6281C10.4809 27.6879 10.4321 27.7368 10.3722 27.7368H10.3479C10.3266 27.7368 10.3034 27.7302 10.2811 27.714L8.213 26.1629L7.913 25.9379L7.613 26.1629L5.54338 27.7151L5.54262 27.7156C5.50697 27.7425 5.46022 27.7449 5.42101 27.7202L5.41931 27.7191C5.38225 27.6959 5.36287 27.6514 5.37168 27.6078L5.37189 27.6068L5.91607 24.8834L5.96849 24.6211L5.77932 24.4319L4.18456 22.8371C4.18444 22.837 4.18431 22.8369 4.18419 22.8367C4.15304 22.8051 4.1437 22.7573 4.16057 22.7163C4.17688 22.6767 4.21663 22.6497 4.2607 22.6497H6.31937H6.62839L6.76658 22.3733L7.81572 20.275C7.81574 20.2749 7.81576 20.2749 7.81578 20.2748C7.817 20.2724 7.82017 20.2665 7.83449 20.2588C7.85133 20.2497 7.87903 20.2413 7.91352 20.2413C7.94801 20.2413 7.97572 20.2497 7.99257 20.2588C8.00671 20.2664 8.01001 20.2723 8.01127 20.2748C8.01131 20.2749 8.01135 20.2749 8.01138 20.275L9.0592 22.3731L9.19734 22.6497H9.50652H11.5652C11.6078 22.6497 11.6484 22.6755 11.6664 22.7185L12.1277 22.5258ZM12.1277 22.5258C12.0327 22.2982 11.8111 22.1497 11.5652 22.1497H9.50652M12.1277 22.5258C12.2227 22.7535 12.1704 23.0152 11.9963 23.1893L10.4002 24.7854L10.9128 27.348C10.9566 27.4309 10.9809 27.527 10.9809 27.6281C10.9809 27.9641 10.7082 28.2368 10.3722 28.2368C10.3704 28.2368 10.3683 28.2369 10.366 28.237C10.3608 28.2373 10.3547 28.2376 10.3479 28.2368C10.2188 28.2368 10.091 28.1954 9.98263 28.1151L9.50652 22.1497M9.50652 22.1497L8.45833 20.0509C8.25135 19.6382 7.57568 19.6382 7.36876 20.0509L6.31937 22.1497H9.50652Z" fill="#FFAA48" stroke="white"/>
<path d="M6.71991 16.78H6.69554C6.67429 16.78 6.65106 16.7734 6.62879 16.7571C6.62857 16.7569 6.62834 16.7568 6.62811 16.7566L4.56074 15.2061L4.26075 14.9811L3.96075 15.2061L1.89112 16.7583L1.88999 16.7591C1.85424 16.7861 1.80896 16.7887 1.76876 16.7634L1.76706 16.7623C1.73 16.7392 1.71062 16.6946 1.71943 16.651L1.71963 16.65L2.26382 13.9266L2.31624 13.6643L2.12706 13.4751L0.53231 11.8803C0.532185 11.8802 0.532061 11.8801 0.531937 11.88C0.50079 11.8483 0.491447 11.8005 0.508319 11.7595C0.524632 11.7199 0.564375 11.6929 0.608445 11.6929H2.66711H2.97613L3.11433 11.4165L4.16347 9.31817C4.16351 9.3181 4.16355 9.31803 4.16358 9.31795C4.16484 9.31548 4.16812 9.30964 4.18224 9.30203C4.19908 9.29295 4.22678 9.28455 4.26127 9.28455C4.29575 9.28455 4.32347 9.29295 4.34032 9.30204C4.35451 9.30968 4.35778 9.31555 4.35903 9.31803C4.35907 9.3181 4.3591 9.31816 4.35913 9.31822L5.40702 11.4162L5.54516 11.6928H5.85433H7.91299C7.95558 11.6928 7.99609 11.7186 8.01396 11.7614C8.03061 11.8014 8.02176 11.8476 7.99041 11.8789L6.39437 13.475L6.20516 13.6642L6.25764 13.9266L6.77015 16.4893L6.78444 16.5607L6.81852 16.6251C6.82352 16.6346 6.82863 16.6502 6.82863 16.6712C6.82863 16.7311 6.77977 16.78 6.71991 16.78Z" fill="#FFAA48" stroke="white"/>
<path d="M16.4592 8.2581H16.4348C16.4142 8.2581 16.39 8.25121 16.3683 8.23533C16.368 8.23517 16.3678 8.23501 16.3676 8.23484L14.3001 6.68423L14.0001 6.45924L13.7001 6.68423L11.6305 8.23644L11.6293 8.23729C11.594 8.26395 11.5494 8.26742 11.507 8.24086L11.5064 8.24047C11.4693 8.2173 11.45 8.17278 11.4588 8.12918L11.459 8.12814L12.0032 5.40476L12.0556 5.14241L11.8664 4.95324L10.2717 3.35849C10.2715 3.35836 10.2714 3.35823 10.2713 3.3581C10.2401 3.32642 10.2308 3.27863 10.2477 3.23767C10.264 3.19806 10.3037 3.17107 10.3478 3.17107H12.4065H12.7155L12.8537 2.89467L13.9028 0.796324C13.9029 0.796253 13.9029 0.796179 13.9029 0.796101C13.9042 0.793626 13.9075 0.78779 13.9216 0.780178C13.9384 0.7711 13.9661 0.762695 14.0006 0.762695C14.0351 0.762695 14.0628 0.7711 14.0797 0.780186C14.0939 0.787841 14.0971 0.79371 14.0984 0.796184C14.0984 0.796249 14.0985 0.796313 14.0985 0.796374L15.1463 2.89436L15.2844 3.17095H15.5936H17.6523C17.6949 3.17095 17.7354 3.19673 17.7533 3.23959C17.7699 3.27951 17.761 3.32574 17.7297 3.35709L16.1337 4.95312L15.9445 5.14234L15.9969 5.40473L16.5094 7.96741L16.5237 8.03885L16.5578 8.10325C16.5628 8.11269 16.5679 8.12837 16.5679 8.14938C16.5679 8.20924 16.5191 8.2581 16.4592 8.2581Z" fill="#FFAA48" stroke="white"/>
<path d="M24.8856 11.4163L25.0237 11.6929H25.3329H27.3916C27.4356 11.6929 27.4754 11.7199 27.4917 11.7595L27.954 11.5691L27.4917 11.7595C27.5082 11.7995 27.5001 11.8469 27.4673 11.8808L25.8731 13.475L25.6838 13.6642L25.7363 13.9266L26.2488 16.4893L26.2631 16.5608L26.2972 16.6252C26.3022 16.6346 26.3073 16.6503 26.3073 16.6713C26.3073 16.7312 26.2585 16.78 26.1986 16.78H26.1742C26.153 16.78 26.1298 16.7735 26.1075 16.7572L24.0394 15.2061L23.7394 14.9811L23.4394 15.2061L21.3698 16.7583L21.3698 16.7583L21.3675 16.76C21.3339 16.7855 21.2882 16.7891 21.2474 16.7634L21.2457 16.7623C21.2086 16.7392 21.1892 16.6946 21.1981 16.651L21.1983 16.65L21.7424 13.9266L21.7949 13.6643L21.6057 13.4751L20.0109 11.8803C20.0108 11.8802 20.0107 11.8801 20.0106 11.88C19.9794 11.8483 19.9701 11.8005 19.9869 11.7595C20.0033 11.7199 20.043 11.6929 20.0871 11.6929H22.1457H22.4548L22.593 11.4165L23.6421 9.31817C23.6421 9.31813 23.6421 9.31808 23.6422 9.31803C23.6434 9.31561 23.6466 9.30973 23.6609 9.30203C23.6777 9.29295 23.7054 9.28455 23.7399 9.28455C23.7744 9.28455 23.8021 9.29295 23.819 9.30204C23.8332 9.3097 23.8364 9.31557 23.8377 9.31804C23.8377 9.3181 23.8377 9.31817 23.8378 9.31822L24.8856 11.4163Z" fill="#FFAA48" stroke="white"/>
<path d="M21.2333 22.3731L21.3715 22.6497H21.6807H23.7393C23.7818 22.6497 23.8224 22.6754 23.8404 22.7183C23.8571 22.7582 23.8482 22.8044 23.8168 22.8358L22.2208 24.4318L22.0316 24.621L22.0841 24.8834L22.5966 27.4461L22.6109 27.5175L22.645 27.5819C22.65 27.5914 22.6551 27.6071 22.6551 27.6281C22.6551 27.6879 22.6062 27.7368 22.5464 27.7368H22.522C22.5007 27.7368 22.4775 27.7302 22.4553 27.714L20.3871 26.1629L20.0871 25.9379L19.7871 26.1629L17.7179 27.7148C17.7178 27.7148 17.7177 27.7149 17.7177 27.715C17.6799 27.7431 17.6337 27.7445 17.5951 27.7202L17.5934 27.7191C17.5564 27.6959 17.537 27.6514 17.5458 27.6078L17.546 27.6068L18.0902 24.8834L18.1426 24.6211L17.9535 24.4319L16.3587 22.8371C16.3586 22.837 16.3584 22.8369 16.3583 22.8367C16.3272 22.8051 16.3178 22.7573 16.3347 22.7163C16.351 22.6767 16.3908 22.6497 16.4348 22.6497H18.4935H18.8025L18.9407 22.3733L19.9899 20.275C19.9899 20.2749 19.9899 20.2749 19.9899 20.2748C19.9912 20.2724 19.9944 20.2665 20.0086 20.2588C20.0255 20.2497 20.0532 20.2413 20.0877 20.2413C20.1221 20.2413 20.1499 20.2497 20.1667 20.2588C20.1808 20.2664 20.1841 20.2723 20.1854 20.2748C20.1854 20.2749 20.1855 20.2749 20.1855 20.275L21.2333 22.3731Z" fill="#FFAA48" stroke="white"/>
</g>
<defs>
<clipPath id="clip0_1_933">
<rect width="28" height="28" fill="white" transform="translate(0 0.25)"/>
</clipPath>
</defs>
</svg>
