<svg width="26" height="29" viewBox="0 0 26 29" fill="none" xmlns="http://www.w3.org/2000/svg">
<path d="M13.1671 5.22369C14.3473 5.22369 15.3038 4.26651 15.3038 3.08747C15.3038 1.90614 14.3474 0.949951 13.1671 0.949951C11.9859 0.949951 11.03 1.90614 11.03 3.08746L13.1671 5.22369ZM13.1671 5.22369C11.986 5.22369 11.03 4.26653 11.03 3.08747L13.1671 5.22369Z" fill="#FFAA48" stroke="white"/>
<path d="M10.5958 19.1605L10.6232 19.6314L11.0633 27.1896L11.0641 27.2041V27.2187C11.0641 27.6225 11.3914 27.9498 11.7953 27.9498H11.797H11.7987H11.8004H11.8021H11.8038H11.8055H11.8072H11.8089H11.8107H11.8124H11.8141H11.8159H11.8176H11.8194H11.8212H11.8229H11.8247H11.8265H11.8282H11.83H11.8318H11.8336H11.8354H11.8372H11.839H11.8409H11.8427H11.8445H11.8463H11.8482H11.85H11.8519H11.8537H11.8556H11.8575H11.8593H11.8612H11.8631H11.865H11.8669H11.8688H11.8707H11.8726H11.8745H11.8764H11.8783H11.8802H11.8822H11.8841H11.8861H11.888H11.89H11.8919H11.8939H11.8958H11.8978H11.8998H11.9018H11.9038H11.9057H11.9077H11.9097H11.9118H11.9138H11.9158H11.9178H11.9198H11.9219H11.9239H11.9259H11.928H11.93H11.9321H11.9341H11.9362H11.9383H11.9403H11.9424H11.9445H11.9466H11.9487H11.9508H11.9529H11.955H11.9571H11.9592H11.9613H11.9635H11.9656H11.9677H11.9699H11.972H11.9741H11.9763H11.9785H11.9806H11.9828H11.985H11.9871H11.9893H11.9915H11.9937H11.9959H11.9981H12.0003H12.0025H12.0047H12.0069H12.0091H12.0113H12.0136H12.0158H12.018H12.0203H12.0225H12.0248H12.027H12.0293H12.0315H12.0338H12.0361H12.0383H12.0406H12.0429H12.0452H12.0475H12.0498H12.0521H12.0544H12.0567H12.059H12.0613H12.0636H12.066H12.0683H12.0706H12.073H12.0753H12.0777H12.08H12.0824H12.0847H12.0871H12.0894H12.0918H12.0942H12.0966H12.0989H12.1013H12.1037H12.1061H12.1085H12.1109H12.1133H12.1157H12.1181H12.1205H12.123H12.1254H12.1278H12.1302H12.1327H12.1351H12.1376H12.14H12.1425H12.1449H12.1474H12.1498H12.1523H12.1548H12.1572H12.1597H12.1622H12.1647H12.1672H12.1696H12.1721H12.1746H12.1771H12.1796H12.1822H12.1847H12.1872H12.1897H12.1922H12.1948H12.1973H12.1998H12.2024H12.2049H12.2074H12.21H12.2125H12.2151H12.2176H12.2202H12.2228H12.2253H12.2279H12.2305H12.2331H12.2356H12.2382H12.2408H12.2434H12.246H12.2486H12.2512H12.2538H12.2564H12.259H12.2616H12.2643H12.2669H12.2695H12.2721H12.2748H12.2774H12.28H12.2827H12.2853H12.288H12.2906H12.2933H12.2959H12.2986H12.3012H12.3039H12.3066H12.3092H12.3119H12.3146H12.3173H12.32H12.3226H12.3253H12.328H12.3307H12.3334H12.3361H12.3388H12.3415H12.3442H12.3469H12.3497H12.3524H12.3551H12.3578H12.3606H12.3633H12.366H12.3687H12.3715H12.3742H12.377H12.3797H12.3825H12.3852H12.388H12.3907H12.3935H12.3963H12.399H12.4018H12.4046H12.4073H12.4101H12.4129H12.4157H12.4184H12.4212H12.424H12.4268H12.4296H12.4324H12.4352H12.438H12.4408H12.4436H12.4464H12.4492H12.4521H12.4549H12.4577H12.4605H12.4633H12.4662H12.469H12.4718H12.4747H12.4775H12.4803H12.4832H12.486H12.4889H12.4917H12.4946H12.4974H12.5003H12.5031H12.506H12.5088H12.5117H12.5146H12.5174H12.5203H12.5232H12.5261H12.5289H12.5318H12.5347H12.5376H12.5405H12.5434H12.5462H12.5491H12.552H12.5549H12.5578H12.5607H12.5636H12.5665H12.5694H12.5724H12.5753H12.5782H12.5811H12.584H12.5869H12.5898H12.5928H12.5957H12.5986H12.6015H12.6045H12.6074H12.6103H12.6133H12.6162H12.6192H12.6221H12.625H12.628H12.6309H12.6339H12.6368H12.6398H12.6427H12.6457H12.6487H12.6516H12.6546H12.6575H12.6605H12.6635H12.6664H12.6694H12.6724H12.6753H12.6783H12.6813H12.6843H12.6873H12.6902H12.6932H12.6962H12.6992H12.7022H12.7052H12.7082H12.7111H12.7141H12.7171H12.7201H12.7231H12.7261H12.7291H12.7321H12.7351H12.7381H12.7411H12.7441H12.7472H12.7502H12.7532H12.7562H12.7592H12.7622H12.7652H12.7683H12.7713H12.7743H12.7773H12.7803H12.7834H12.7864H12.7894H12.7924H12.7955H12.7985H12.8015H12.8046H12.8076H12.8106H12.8137H12.8167H12.8198H12.8228H12.8258H12.8289H12.8319H12.835H12.838H12.8411H12.8441H12.8472H12.8502H12.8533H12.8563H12.8594H12.8624H12.8655H12.8685H12.8716H12.8746H12.8777H12.8808H12.8838H12.8869H12.8899H12.893H12.8961H12.8991H12.9022H12.9053H12.9083H12.9114H12.9145H12.9175H12.9206H12.9237H12.9267H12.9298H12.9329H12.936H12.939H12.9421H12.9452H12.9483H12.9513H12.9544H12.9575H12.9606H12.9636H12.9667H12.9698H12.9729H12.976H12.9791H12.9821H12.9852H12.9883H12.9914H12.9945H12.9976H13.0006H13.0037H13.0068H13.0099H13.013H13.0161H13.0192H13.0223H13.0253H13.0284H13.0315H13.0346H13.0377H13.0408H13.0439H13.047H13.0501H13.0532H13.0563H13.0593H13.0624H13.0655H13.0686H13.0717H13.0748H13.0779H13.081H13.0841H13.0872H13.0903H13.0934H13.0965H13.0996H13.1027H13.1058H13.1089H13.112H13.1151H13.1181H13.1212H13.1243H13.1274H13.1305H13.1336H13.1367H13.1398H13.1429H13.146H13.1491H13.1522H13.1553H13.1584H13.1615H13.1646H13.1677H13.1708H13.1739H13.177H13.1801H13.1832H13.1863H13.1894H13.1925H13.1956H13.1987H13.2018H13.2049H13.208H13.2111H13.2142H13.2173H13.2204H13.2235H13.2266H13.2296H13.2327H13.2358H13.2389H13.242H13.2451H13.2482H13.2513H13.2544H13.2575H13.2606H13.2637H13.2668H13.2698H13.2729H13.276H13.2791H13.2822H13.2853H13.2884H13.2915H13.2946H13.2976H13.3007H13.3038H13.3069H13.31H13.3131H13.3161H13.3192H13.3223H13.3254H13.3285H13.3315H13.3346H13.3377H13.3408H13.3438H13.3469H13.35H13.3531H13.3561H13.3592H13.3623H13.3654H13.3684H13.3715H13.3746H13.3776H13.3807H13.3838H13.3868H13.3899H13.393H13.396H13.3991H13.4022H13.4052H13.4083H13.4113H13.4144H13.4174H13.4205H13.4236H13.4266H13.4297H13.4327H13.4358H13.4388H13.4419H13.4449H13.448H13.451H13.454H13.4571H13.4601H13.4632H13.4662H13.4692H13.4723H13.4753H13.4784H13.4814H13.4844H13.4874H13.4905H13.4935H13.4965H13.4996H13.5026H13.5056H13.5086H13.5117H13.5147H13.5177H13.5207H13.5237H13.5267H13.5298H13.5328H13.5358H13.5388H13.5418H13.5448H13.5478H13.5508H13.5538H13.5568H13.5598H13.5628H13.5658H13.5688H13.5718H13.5748H13.5778H13.5808H13.5837H13.5867H13.5897H13.5927H13.5957H13.5987H13.6016H13.6046H13.6076H13.6106H13.6135H13.6165H13.6195H13.6224H13.6254H13.6284H13.6313H13.6343H13.6372H13.6402H13.6431H13.6461H13.649H13.652H13.6549H13.6579H13.6608H13.6638H13.6667H13.6696H13.6726H13.6755H13.6784H13.6814H13.6843H13.6872H13.6902H13.6931H13.696H13.6989H13.7018H13.7047H13.7077H13.7106H13.7135H13.7164H13.7193H13.7222H13.7251H13.728H13.7309H13.7338H13.7367H13.7395H13.7424H13.7453H13.7482H13.7511H13.754H13.7568H13.7597H13.7626H13.7654H13.7683H13.7712H13.774H13.7769H13.7798H13.7826H13.7855H13.7883H13.7912H13.794H13.7969H13.7997H13.8025H13.8054H13.8082H13.811H13.8139H13.8167H13.8195H13.8224H13.8252H13.828H13.8308H13.8336H13.8364H13.8392H13.842H13.8448H13.8476H13.8504H13.8532H13.856H13.8588H13.8616H13.8644H13.8672H13.8699H13.8727H13.8755H13.8783H13.881H13.8838H13.8866H13.8893H13.8921H13.8948H13.8976H13.9003H13.9031H13.9058H13.9086H13.9113H13.9141H13.9168H13.9195H13.9222H13.925H13.9277H13.9304H13.9331H13.9358H13.9385H13.9413H13.944H13.9467H13.9494H13.9521H13.9547H13.9574H13.9601H13.9628H13.9655H13.9682H13.9708H13.9735H13.9762H13.9788H13.9815H13.9842H13.9868H13.9895H13.9921H13.9948H13.9974H14H14.0027H14.0053H14.008H14.0106H14.0132H14.0158H14.0184H14.0211H14.0237H14.0263H14.0289H14.0315H14.0341H14.0367H14.0393H14.0419H14.0444H14.047H14.0496H14.0522H14.0547H14.0573H14.0599H14.0624H14.065H14.0676H14.0701H14.0727H14.0752H14.0777H14.0803H14.0828H14.0853H14.0879H14.0904H14.0929H14.0954H14.0979H14.1004H14.103H14.1055H14.108H14.1104H14.1129H14.1154H14.1179H14.1204H14.1229H14.1253H14.1278H14.1303H14.1327H14.1352H14.1376H14.1401H14.1425H14.145H14.1474H14.1499H14.1523H14.1547H14.1571H14.1596H14.162H14.1644H14.1668H14.1692H14.1716H14.174H14.1764H14.1788H14.1812H14.1835H14.1859H14.1883H14.1907H14.193H14.1954H14.1977H14.2001H14.2024H14.2048H14.2071H14.2095H14.2118H14.2141H14.2165H14.2188H14.2211H14.2234H14.2257H14.228H14.2303H14.2326H14.2349H14.2372H14.2395H14.2417H14.244H14.2463H14.2486H14.2508H14.2531H14.2553H14.2576H14.2598H14.2621H14.2643H14.2665H14.2688H14.271H14.2732H14.2754H14.2776H14.2798H14.282H14.2842H14.2864H14.2886H14.2908H14.293H14.2951H14.2973H14.2995H14.3016H14.3038H14.3059H14.3081H14.3102H14.3124H14.3145H14.3166H14.3188H14.3209H14.323H14.3251H14.3272H14.3293H14.3314H14.3335H14.3356H14.3377H14.3398H14.3418H14.3439H14.346H14.348H14.3501H14.3521H14.3542H14.3562H14.3582H14.3603H14.3623H14.3643H14.3663H14.3683H14.3703H14.3723H14.3743H14.3763H14.3783H14.3803H14.3823H14.3842H14.3862H14.3882H14.3901H14.3921H14.394H14.396H14.3979H14.3998H14.4018H14.4037H14.4056H14.4075H14.4094H14.4113H14.4132H14.4151H14.417H14.4189H14.4208H14.4226H14.4245H14.4263H14.4282H14.4301H14.4319H14.4337H14.4356H14.4374H14.4392H14.441H14.4429H14.4447H14.4465H14.4483H14.4501H14.4518H14.4536H14.4554H14.4572H14.4589H14.4607H14.4624H14.4642H14.4659H14.4677H14.4694H14.4711H14.4729H14.4746H14.4763H14.478H14.4797H14.4814H14.4831H14.4847C14.8886 27.9498 15.2159 27.6225 15.2159 27.2187V27.2041L15.2168 27.1896L15.6565 19.6315L15.6839 19.1605H16.1556H10.5958ZM10.5958 19.1605H10.124M10.5958 19.1605H10.124M10.124 19.1605H10.1193H10.1146H10.11H10.1053H10.1007H10.0961H10.0915H10.087H10.0825H10.078H10.0735H10.0691H10.0647H10.0603H10.0559H10.0516H10.0473H10.043H10.0387H10.0345H10.0303H10.0261H10.0219H10.0178H10.0136H10.0095H10.0055H10.0014H9.99737H9.99337H9.98939H9.98543H9.98149H9.97758H9.97369H9.96982H9.96598H9.96216H9.95836H9.95458H9.95083H9.9471H9.94339H9.9397H9.93604H9.9324H9.92878H9.92518H9.9216H9.91805H9.91452H9.91101H9.90752H9.90405H9.9006H9.89718H9.89378H9.89039H9.88703H9.88369H9.88037H9.87708H9.8738H9.87054H9.86731H9.86409H9.8609H9.85772H9.85457H9.85143H9.84832H9.84523H9.84215H9.8391H9.83606H9.83305H9.83006H9.82708H9.82413H9.82119H9.81827H9.81538H9.8125H9.80964H9.8068H9.80398H9.80118H9.7984H9.79563H9.79289H9.79016H9.78745H9.78477H9.78209H9.77944H9.77681H9.77419H9.77159H9.76901H9.76645H9.76391H9.76138H9.75887H9.75638H9.7539H9.75145H9.74901H9.74659H9.74418H9.74179H9.73942H9.73707H9.73473H9.73241H9.73011H9.72782H9.72555H9.7233H9.72106H9.71884H9.71664H9.71445H9.71228H9.71012H9.70798H9.70586H9.70375H9.70166H9.69958H9.69752H9.69548H9.69345H9.69143H9.68943H9.68745H9.68548H9.68352H9.68158H9.67966H9.67775H9.67585H9.67397H9.67211H9.67026H9.66842H9.6666H9.66479H9.66299H9.66121H9.65945H9.65769H9.65596H9.65423H9.65252H9.65082H9.64914H9.64747H9.64581H9.64417H9.64254H9.64092H9.63932H9.63773H9.63615H9.63458H9.63303H9.63149H9.62996H9.62845H9.62694H9.62545H9.62398H9.62251H9.62106H9.61962H9.61819H9.61677H9.61536H9.61397H9.61259H9.61122H9.60986H9.60851H9.60717H9.60585H9.60453H9.60323H9.60194H9.60066H9.59939H9.59813H9.59688H9.59564H9.59441H9.5932H9.59199H9.59079H9.58961H9.58843H9.58727H9.58611H9.58497H9.58383H9.58271H9.58159H9.58048H9.57939H9.5783H9.57722H9.57615H9.57509H9.57404H9.573H9.57197H9.57094H9.56993H9.56892H9.56793H9.56694H9.56596H9.56499H9.56402H9.56307H9.56212H9.56118H9.56025H9.55933H9.55842H9.55751H9.55661H9.55572H9.55483H9.55396H9.55309H9.55223H9.55137H9.55053H9.54969H9.54885H9.54803H9.54721H9.5464H9.54559H9.54479H9.544H9.54322H9.54244H9.54166H9.5409H9.54014H9.53938H9.53864H9.53789H9.53716H9.53643H9.5357H9.53498H9.53427H9.53356H9.53286H9.53216H9.53147H9.53078H9.5301H9.52942H9.52875H9.52808H9.52742H9.52676H9.52611H9.52546H9.52482H9.52418H9.52354H9.52291H9.52228H9.52166H9.52104H9.52043H9.51982H9.51921H9.51861H9.51801H9.51741H9.51682H9.51623H9.51564H9.51506H9.51448H9.5139H9.51333H9.51276H9.51219H9.51162H9.51106H9.5105H9.50994H9.50939H9.50883H9.50828H9.50773H9.50719H9.50664H9.5061H9.50556H9.50502H9.50449H9.50395H9.50342H9.50288H9.50235H9.50182H9.5013H9.50077H9.50024H9.49972H9.49919H9.49867H9.49815H9.49763H9.49711H9.49659H9.49607H9.49555H9.49503H9.49451H9.49399H9.49347H9.49295H9.49243H9.49192H9.4914H9.49088H9.49036H9.48984H9.48932H9.4888H9.48827H9.48775H9.48723H9.4867H9.48618H9.48565H9.48512H9.48459H9.48406H9.48353H9.483H9.48246H9.48193H9.48139H9.48085H9.48031H9.47976H9.47922H9.47867H9.47812H9.47757H9.47701H9.47646H9.4759H9.47534H9.47477H9.4742H9.47363H9.47306H9.47248H9.4719H9.47132H9.47074H9.47015H9.46956H9.46896H9.46836H9.46776H9.46715H9.46654H9.46593H9.46531H9.46469H9.46406H9.46343H9.4628H9.46216H9.46152H9.46087H9.46022H9.45956H9.4589H9.45824H9.45757H9.45689H9.45621H9.45552H9.45483H9.45414H9.45344H9.45273H9.45202H9.4513H9.45058H9.44985H9.44911H9.44837H9.44762H9.44687H9.44611H9.44535H9.44458H9.4438H9.44302H9.44223H9.44143H9.44063H9.43982H9.439H9.43818H9.43734H9.43651H9.43566H9.43481H9.43395H9.43308H9.43221H9.43133H9.43044H9.42954H9.42864H9.42772H9.4268H9.42588H9.42494H9.424H9.42304H9.42208H9.42111H9.42014H9.41915H9.41815H9.41715H9.41614H9.41512H9.41409H9.41305H9.412H9.41094H9.40988H9.4088H9.40772H9.40662H9.40552H9.40441H9.40328H9.40215H9.40101H9.39985H9.39869H9.39752H9.39633H9.39514H9.39394H9.39272H9.3915H9.39026H9.38902H9.38776H9.3865H9.38522H9.38393H9.38263H9.38132H9.38H9.37866H9.37732H9.37596H9.37459H9.37322H9.37182H9.37042H9.36901H9.36758H9.36614H9.36469H9.36323H9.36176H9.36027H9.35877H9.35726H9.35574H9.3542H9.35265H9.35109H9.34951H9.34792H9.34632H9.34471H9.34308H9.34144H9.33979H9.33812H9.33644H9.33475H9.33304H9.33132H9.32959H9.32784H9.32608H9.3243H9.32251H9.32071H9.31889H9.31705C8.95442 19.1605 8.66052 18.8667 8.66052 18.5035V9.64099C8.66052 9.17387 8.92332 8.62674 9.3688 8.18121C9.81428 7.73566 10.3613 7.4729 10.8281 7.4729H13.1398H15.4515V6.9729L10.124 19.1605ZM16.9612 19.1605H16.963H16.9612ZM16.9612 19.1605H16.9594M16.9612 19.1605H16.9594M16.9594 19.1605H16.9576M16.9594 19.1605H16.9576M16.9576 19.1605H16.9558M16.9576 19.1605H16.9558M16.9558 19.1605H16.954M16.9558 19.1605H16.954M16.954 19.1605H16.9522M16.954 19.1605H16.9522M16.9522 19.1605H16.9505M16.9522 19.1605H16.9505M16.9505 19.1605H16.9487M16.9505 19.1605H16.9487M16.9487 19.1605H16.947M16.9487 19.1605H16.947M16.947 19.1605H16.9453M16.947 19.1605H16.9453M16.9453 19.1605H16.9436M16.9453 19.1605H16.9436M16.9436 19.1605H16.9419M16.9436 19.1605H16.9419M16.9419 19.1605H16.9403M16.9419 19.1605H16.9403M16.9403 19.1605H16.9386M16.9403 19.1605H16.9386M16.9386 19.1605H16.937M16.9386 19.1605H16.937M16.937 19.1605H16.9353M16.937 19.1605H16.9353M16.9353 19.1605H16.9337M16.9353 19.1605H16.9337M16.9337 19.1605H16.9321M16.9337 19.1605H16.9321M16.9321 19.1605H16.9305M16.9321 19.1605H16.9305M16.9305 19.1605H16.9289M16.9305 19.1605H16.9289M16.9289 19.1605H16.9274M16.9289 19.1605H16.9274M16.9274 19.1605H16.9258M16.9274 19.1605H16.9258M16.9258 19.1605H16.9243M16.9258 19.1605H16.9243M16.9243 19.1605H16.9228M16.9243 19.1605H16.9228M16.9228 19.1605H16.9212M16.9228 19.1605H16.9212M16.9212 19.1605H16.9197M16.9212 19.1605H16.9197M16.9197 19.1605H16.9183M16.9197 19.1605H16.9183M16.9183 19.1605H16.9168M16.9183 19.1605H16.9168M16.9168 19.1605H16.9153M16.9168 19.1605H16.9153M16.9153 19.1605H16.9139M16.9153 19.1605H16.9139M16.9139 19.1605H16.9124M16.9139 19.1605H16.9124M16.9124 19.1605H16.911M16.9124 19.1605H16.911M16.911 19.1605H16.9096M16.911 19.1605H16.9096M16.9096 19.1605H16.9082M16.9096 19.1605H16.9082M16.9082 19.1605H16.9068M16.9082 19.1605H16.9068M16.9068 19.1605H16.9054M16.9068 19.1605H16.9054M16.9054 19.1605H16.904M16.9054 19.1605H16.904M16.904 19.1605H16.9027M16.904 19.1605H16.9027M16.9027 19.1605H16.9013M16.9027 19.1605H16.9013M16.9013 19.1605H16.9M16.9013 19.1605H16.9M16.9 19.1605H16.8987M16.9 19.1605H16.8987M16.8987 19.1605H16.8974M16.8987 19.1605H16.8974M16.8974 19.1605H16.8961M16.8974 19.1605H16.8961M16.8961 19.1605H16.8948M16.8961 19.1605H16.8948M16.8948 19.1605H16.8935M16.8948 19.1605H16.8935M16.8935 19.1605H16.8922M16.8935 19.1605H16.8922M16.8922 19.1605H16.891M16.8922 19.1605H16.891M16.891 19.1605H16.8897M16.891 19.1605H16.8897M16.8897 19.1605H16.8885M16.8897 19.1605H16.8885M16.8885 19.1605H16.8872M16.8885 19.1605H16.8872M16.8872 19.1605H16.886M16.8872 19.1605H16.886M16.886 19.1605H16.8848M16.886 19.1605H16.8848M16.8848 19.1605H16.8836M16.8848 19.1605H16.8836M16.8836 19.1605H16.8824M16.8836 19.1605H16.8824M16.8824 19.1605H16.8813M16.8824 19.1605H16.8813M16.8813 19.1605H16.8801M16.8813 19.1605H16.8801M16.8801 19.1605H16.879M16.8801 19.1605H16.879M16.879 19.1605H16.8778M16.879 19.1605H16.8778M16.8778 19.1605H16.8767M16.8778 19.1605H16.8767M16.8767 19.1605H16.8756M16.8767 19.1605H16.8756M16.8756 19.1605H16.8744M16.8756 19.1605H16.8744M16.8744 19.1605H16.8733M16.8744 19.1605H16.8733M16.8733 19.1605H16.8722M16.8733 19.1605H16.8722M16.8722 19.1605H16.8711M16.8722 19.1605H16.8711M16.8711 19.1605H16.8701M16.8711 19.1605H16.8701M16.8701 19.1605H16.869M16.8701 19.1605H16.869M16.869 19.1605H16.8679M16.869 19.1605H16.8679M16.8679 19.1605H16.8669M16.8679 19.1605H16.8669M16.8669 19.1605H16.8659M16.8669 19.1605H16.8659M16.8659 19.1605H16.8648M16.8659 19.1605H16.8648M16.8648 19.1605H16.8638M16.8648 19.1605H16.8638M16.8638 19.1605H16.8628M16.8638 19.1605H16.8628M16.8628 19.1605H16.8618M16.8628 19.1605H16.8618M16.8618 19.1605H16.8608M16.8618 19.1605H16.8608M16.8608 19.1605H16.8598M16.8608 19.1605H16.8598M16.8598 19.1605H16.8588M16.8598 19.1605H16.8588M16.8588 19.1605H16.8578M16.8588 19.1605H16.8578M16.8578 19.1605H16.8569M16.8578 19.1605H16.8569M16.8569 19.1605H16.8559M16.8569 19.1605H16.8559M16.8559 19.1605H16.855M16.8559 19.1605H16.855M16.855 19.1605H16.8541M16.855 19.1605H16.8541M16.8541 19.1605H16.8531M16.8541 19.1605H16.8531M16.8531 19.1605H16.8522M16.8531 19.1605H16.8522M16.8522 19.1605H16.8513M16.8522 19.1605H16.8513M16.8513 19.1605H16.8504M16.8513 19.1605H16.8504M16.8504 19.1605H16.8495M16.8504 19.1605H16.8495M16.8495 19.1605H16.8486M16.8495 19.1605H16.8486M16.8486 19.1605H16.8477M16.8486 19.1605H16.8477M16.8477 19.1605H16.8468M16.8477 19.1605H16.8468M16.8468 19.1605H16.846M16.8468 19.1605H16.846M16.846 19.1605H16.8451M16.846 19.1605H16.8451M16.8451 19.1605H16.8443M16.8451 19.1605H16.8443M16.8443 19.1605H16.8434M16.8443 19.1605H16.8434M16.8434 19.1605H16.8426M16.8434 19.1605H16.8426M16.8426 19.1605H16.8417M16.8426 19.1605H16.8417M16.8417 19.1605H16.8409M16.8417 19.1605H16.8409M16.8409 19.1605H16.8401M16.8409 19.1605H16.8401M16.8401 19.1605H16.8393M16.8401 19.1605H16.8393M16.8393 19.1605H16.8385M16.8393 19.1605H16.8385M16.8385 19.1605H16.8377M16.8385 19.1605H16.8377M16.8377 19.1605H16.8369M16.8377 19.1605H16.8369M16.8369 19.1605H16.8361M16.8369 19.1605H16.8361M16.8361 19.1605H16.8353M16.8361 19.1605H16.8353M16.8353 19.1605H16.8346M16.8353 19.1605H16.8346M16.8346 19.1605H16.8338M16.8346 19.1605H16.8338M16.8338 19.1605H16.833M16.8338 19.1605H16.833M16.833 19.1605H16.8323M16.833 19.1605H16.8323M16.8323 19.1605H16.8315M16.8323 19.1605H16.8315M16.8315 19.1605H16.8308M16.8315 19.1605H16.8308M16.8308 19.1605H16.8301M16.8308 19.1605H16.8301M16.8301 19.1605H16.8293M16.8301 19.1605H16.8293M16.8293 19.1605H16.8286M16.8293 19.1605H16.8286M16.8286 19.1605H16.8279M16.8286 19.1605H16.8279M16.8279 19.1605H16.8272M16.8279 19.1605H16.8272M16.8272 19.1605H16.8265M16.8272 19.1605H16.8265M16.8265 19.1605H16.8258M16.8265 19.1605H16.8258M16.8258 19.1605H16.8251M16.8258 19.1605H16.8251M16.8251 19.1605H16.8244M16.8251 19.1605H16.8244M16.8244 19.1605H16.8237M16.8244 19.1605H16.8237M16.8237 19.1605H16.823M16.8237 19.1605H16.823M16.823 19.1605H16.8223M16.823 19.1605H16.8223M16.8223 19.1605H16.8217M16.8223 19.1605H16.8217M16.8217 19.1605H16.821M16.8217 19.1605H16.821M16.821 19.1605H16.8203M16.821 19.1605H16.8203M16.8203 19.1605H16.8197M16.8203 19.1605H16.8197M16.8197 19.1605H16.819M16.8197 19.1605H16.819M16.819 19.1605H16.8184M16.819 19.1605H16.8184M16.8184 19.1605H16.8177M16.8184 19.1605H16.8177M16.8177 19.1605H16.8171M16.8177 19.1605H16.8171M16.8171 19.1605H16.8165M16.8171 19.1605H16.8165M16.8165 19.1605H16.8158M16.8165 19.1605H16.8158M16.8158 19.1605H16.8152M16.8158 19.1605H16.8152M16.8152 19.1605H16.8146M16.8152 19.1605H16.8146M16.8146 19.1605H16.814M16.8146 19.1605H16.814M16.814 19.1605H16.8133M16.814 19.1605H16.8133M16.8133 19.1605H16.8127M16.8133 19.1605H16.8127M16.8127 19.1605H16.8121M16.8127 19.1605H16.8121M16.8121 19.1605H16.8115M16.8121 19.1605H16.8115M16.8115 19.1605H16.8109M16.8115 19.1605H16.8109M16.8109 19.1605H16.8103M16.8109 19.1605H16.8103M16.8103 19.1605H16.8097M16.8103 19.1605H16.8097M16.8097 19.1605H16.8091M16.8097 19.1605H16.8091M16.8091 19.1605H16.8086M16.8091 19.1605H16.8086M16.8086 19.1605H16.808M16.8086 19.1605H16.808M16.808 19.1605H16.8074M16.808 19.1605H16.8074M16.8074 19.1605H16.8068M16.8074 19.1605H16.8068M16.8068 19.1605H16.8062M16.8068 19.1605H16.8062M16.8062 19.1605H16.8057M16.8062 19.1605H16.8057M16.8057 19.1605H16.8051M16.8057 19.1605H16.8051M16.8051 19.1605H16.8045M16.8051 19.1605H16.8045M16.8045 19.1605H16.804M16.8045 19.1605H16.804M16.804 19.1605H16.8034M16.804 19.1605H16.8034M16.8034 19.1605H16.8029M16.8034 19.1605H16.8029M16.8029 19.1605H16.8023M16.8029 19.1605H16.8023M16.8023 19.1605H16.8018M16.8023 19.1605H16.8018M16.8018 19.1605H16.8012M16.8018 19.1605H16.8012M16.8012 19.1605H16.8007M16.8012 19.1605H16.8007M16.8007 19.1605H16.8001M16.8007 19.1605H16.8001M16.8001 19.1605H16.7996M16.8001 19.1605H16.7996M16.7996 19.1605H16.799M16.7996 19.1605H16.799M16.799 19.1605H16.7985M16.799 19.1605H16.7985M16.7985 19.1605H16.7979M16.7985 19.1605H16.7979M16.7979 19.1605H16.7974M16.7979 19.1605H16.7974M16.7974 19.1605H16.7969M16.7974 19.1605H16.7969M16.7969 19.1605H16.7963M16.7969 19.1605H16.7963M16.7963 19.1605H16.7958M16.7963 19.1605H16.7958M16.7958 19.1605H16.7953M16.7958 19.1605H16.7953M16.7953 19.1605H16.7947M16.7953 19.1605H16.7947M16.7947 19.1605H16.7942M16.7947 19.1605H16.7942M16.7942 19.1605H16.7937M16.7942 19.1605H16.7937M16.7937 19.1605H16.7932M16.7937 19.1605H16.7932M16.7932 19.1605H16.7926M16.7932 19.1605H16.7926M16.7926 19.1605H16.7921M16.7926 19.1605H16.7921M16.7921 19.1605H16.7916M16.7921 19.1605H16.7916M16.7916 19.1605H16.7911M16.7916 19.1605H16.7911M16.7911 19.1605H16.7905M16.7911 19.1605H16.7905M16.7905 19.1605H16.79M16.7905 19.1605H16.79M16.79 19.1605H16.7895M16.79 19.1605H16.7895M16.7895 19.1605H16.789M16.7895 19.1605H16.789M16.789 19.1605H16.7885M16.789 19.1605H16.7885M16.7885 19.1605H16.7879M16.7885 19.1605H16.7879M16.7879 19.1605H16.7874M16.7879 19.1605H16.7874M16.7874 19.1605H16.7869M16.7874 19.1605H16.7869M16.7869 19.1605H16.7864M16.7869 19.1605H16.7864M16.7864 19.1605H16.7859M16.7864 19.1605H16.7859M16.7859 19.1605H16.7854M16.7859 19.1605H16.7854M16.7854 19.1605H16.7848M16.7854 19.1605H16.7848M16.7848 19.1605H16.7843M16.7848 19.1605H16.7843M16.7843 19.1605H16.7838M16.7843 19.1605H16.7838M16.7838 19.1605H16.7833M16.7838 19.1605H16.7833M16.7833 19.1605H16.7828M16.7833 19.1605H16.7828M16.7828 19.1605H16.7822M16.7828 19.1605H16.7822M16.7822 19.1605H16.7817M16.7822 19.1605H16.7817M16.7817 19.1605H16.7812M16.7817 19.1605H16.7812M16.7812 19.1605H16.7807M16.7812 19.1605H16.7807M16.7807 19.1605H16.7801M16.7807 19.1605H16.7801M16.7801 19.1605H16.7796M16.7801 19.1605H16.7796M16.7796 19.1605H16.7791M16.7796 19.1605H16.7791M16.7791 19.1605H16.7786M16.7791 19.1605H16.7786M16.7786 19.1605H16.778M16.7786 19.1605H16.778M16.778 19.1605H16.7775M16.778 19.1605H16.7775M16.7775 19.1605H16.777M16.7775 19.1605H16.777M16.777 19.1605H16.7764M16.777 19.1605H16.7764M16.7764 19.1605H16.7759M16.7764 19.1605H16.7759M16.7759 19.1605H16.7754M16.7759 19.1605H16.7754M16.7754 19.1605H16.7748M16.7754 19.1605H16.7748M16.7748 19.1605H16.7743M16.7748 19.1605H16.7743M16.7743 19.1605H16.7738M16.7743 19.1605H16.7738M16.7738 19.1605H16.7732M16.7738 19.1605H16.7732M16.7732 19.1605H16.7727M16.7732 19.1605H16.7727M16.7727 19.1605H16.7721M16.7727 19.1605H16.7721M16.7721 19.1605H16.7716M16.7721 19.1605H16.7716M16.7716 19.1605H16.771M16.7716 19.1605H16.771M16.771 19.1605H16.7705M16.771 19.1605H16.7705M16.7705 19.1605H16.7699M16.7705 19.1605H16.7699M16.7699 19.1605H16.7694M16.7699 19.1605H16.7694M16.7694 19.1605H16.7688M16.7694 19.1605H16.7688M16.7688 19.1605H16.7682M16.7688 19.1605H16.7682M16.7682 19.1605H16.7677M16.7682 19.1605H16.7677M16.7677 19.1605H16.7671M16.7677 19.1605H16.7671M16.7671 19.1605H16.7665M16.7671 19.1605H16.7665M16.7665 19.1605H16.766M16.7665 19.1605H16.766M16.766 19.1605H16.7654M16.766 19.1605H16.7654M16.7654 19.1605H16.7648M16.7654 19.1605H16.7648M16.7648 19.1605H16.7642M16.7648 19.1605H16.7642M16.7642 19.1605H16.7636M16.7642 19.1605H16.7636M16.7636 19.1605H16.763M16.7636 19.1605H16.763M16.763 19.1605H16.7624M16.763 19.1605H16.7624M16.7624 19.1605H16.7619M16.7624 19.1605H16.7619M16.7619 19.1605H16.7613M16.7619 19.1605H16.7613M16.7613 19.1605H16.7606M16.7613 19.1605H16.7606M16.7606 19.1605H16.76M16.7606 19.1605H16.76M16.76 19.1605H16.7594M16.76 19.1605H16.7594M16.7594 19.1605H16.7588M16.7594 19.1605H16.7588M16.7588 19.1605H16.7582M16.7588 19.1605H16.7582M16.7582 19.1605H16.7576M16.7582 19.1605H16.7576M16.7576 19.1605H16.7569M16.7576 19.1605H16.7569M16.7569 19.1605H16.7563M16.7569 19.1605H16.7563M16.7563 19.1605H16.7557M16.7563 19.1605H16.7557M16.7557 19.1605H16.755M16.7557 19.1605H16.755M16.755 19.1605H16.7544M16.755 19.1605H16.7544M16.7544 19.1605H16.7537M16.7544 19.1605H16.7537M16.7537 19.1605H16.7531M16.7537 19.1605H16.7531M16.7531 19.1605H16.7524M16.7531 19.1605H16.7524M16.7524 19.1605H16.7518M16.7524 19.1605H16.7518M16.7518 19.1605H16.7511M16.7518 19.1605H16.7511M16.7511 19.1605H16.7504M16.7511 19.1605H16.7504M16.7504 19.1605H16.7498M16.7504 19.1605H16.7498M16.7498 19.1605H16.7491M16.7498 19.1605H16.7491M16.7491 19.1605H16.7484M16.7491 19.1605H16.7484M16.7484 19.1605H16.7477M16.7484 19.1605H16.7477M16.7477 19.1605H16.747M16.7477 19.1605H16.747M16.747 19.1605H16.7463M16.747 19.1605H16.7463M16.7463 19.1605H16.7456M16.7463 19.1605H16.7456M16.7456 19.1605H16.7449M16.7456 19.1605H16.7449M16.7449 19.1605H16.7442M16.7449 19.1605H16.7442M16.7442 19.1605H16.7434M16.7442 19.1605H16.7434M16.7434 19.1605H16.7427M16.7434 19.1605H16.7427M16.7427 19.1605H16.742M16.7427 19.1605H16.742M16.742 19.1605H16.7412M16.742 19.1605H16.7412M16.7412 19.1605H16.7405M16.7412 19.1605H16.7405M16.7405 19.1605H16.7397M16.7405 19.1605H16.7397M16.7397 19.1605H16.739M16.7397 19.1605H16.739M16.739 19.1605H16.7382M16.739 19.1605H16.7382M16.7382 19.1605H16.7374M16.7382 19.1605H16.7374M16.7374 19.1605H16.7366M16.7374 19.1605H16.7366M16.7366 19.1605H16.7359M16.7366 19.1605H16.7359M16.7359 19.1605H16.7351M16.7359 19.1605H16.7351M16.7351 19.1605H16.7343M16.7351 19.1605H16.7343M16.7343 19.1605H16.7335M16.7343 19.1605H16.7335M16.7335 19.1605H16.7326M16.7335 19.1605H16.7326M16.7326 19.1605H16.7318M16.7326 19.1605H16.7318M16.7318 19.1605H16.731M16.7318 19.1605H16.731M16.731 19.1605H16.7302M16.731 19.1605H16.7302M16.7302 19.1605H16.7293M16.7302 19.1605H16.7293M16.7293 19.1605H16.7285M16.7293 19.1605H16.7285M16.7285 19.1605H16.7276M16.7285 19.1605H16.7276M16.7276 19.1605H16.7268M16.7276 19.1605H16.7268M16.7268 19.1605H16.7259M16.7268 19.1605H16.7259M16.7259 19.1605H16.725M16.7259 19.1605H16.725M16.725 19.1605H16.7241M16.725 19.1605H16.7241M16.7241 19.1605H16.7232M16.7241 19.1605H16.7232M16.7232 19.1605H16.7223M16.7232 19.1605H16.7223M16.7223 19.1605H16.7214M16.7223 19.1605H16.7214M16.7214 19.1605H16.7205M16.7214 19.1605H16.7205M16.7205 19.1605H16.7196M16.7205 19.1605H16.7196M16.7196 19.1605H16.7187M16.7196 19.1605H16.7187M16.7187 19.1605H16.7177M16.7187 19.1605H16.7177M16.7177 19.1605H16.7168M16.7177 19.1605H16.7168M16.7168 19.1605H16.7158M16.7168 19.1605H16.7158M16.7158 19.1605H16.7149M16.7158 19.1605H16.7149M16.7149 19.1605H16.7139M16.7149 19.1605H16.7139M16.7139 19.1605H16.7129M16.7139 19.1605H16.7129M16.7129 19.1605H16.7119M16.7129 19.1605H16.7119M16.7119 19.1605H16.7109M16.7119 19.1605H16.7109M16.7109 19.1605H16.7099M16.7109 19.1605H16.7099M16.7099 19.1605H16.7089M16.7099 19.1605H16.7089M16.7089 19.1605H16.7079M16.7089 19.1605H16.7079M16.7079 19.1605H16.7069M16.7079 19.1605H16.7069M16.7069 19.1605H16.7058M16.7069 19.1605H16.7058M16.7058 19.1605H16.7048M16.7058 19.1605H16.7048M16.7048 19.1605H16.7037M16.7048 19.1605H16.7037M16.7037 19.1605H16.7026M16.7037 19.1605H16.7026M16.7026 19.1605H16.7016M16.7026 19.1605H16.7016M16.7016 19.1605H16.7005M16.7016 19.1605H16.7005M16.7005 19.1605H16.6994M16.7005 19.1605H16.6994M16.6994 19.1605H16.6983M16.6994 19.1605H16.6983M16.6983 19.1605H16.6972M16.6983 19.1605H16.6972M16.6972 19.1605H16.696M16.6972 19.1605H16.696M16.696 19.1605H16.6949M16.696 19.1605H16.6949M16.6949 19.1605H16.6937M16.6949 19.1605H16.6937M16.6937 19.1605H16.6926M16.6937 19.1605H16.6926M16.6926 19.1605H16.6914M16.6926 19.1605H16.6914M16.6914 19.1605H16.6902M16.6914 19.1605H16.6902M16.6902 19.1605H16.6891M16.6902 19.1605H16.6891M16.6891 19.1605H16.6879M16.6891 19.1605H16.6879M16.6879 19.1605H16.6867M16.6879 19.1605H16.6867M16.6867 19.1605H16.6854M16.6867 19.1605H16.6854M16.6854 19.1605H16.6842M16.6854 19.1605H16.6842M16.6842 19.1605H16.683M16.6842 19.1605H16.683M16.683 19.1605H16.6817M16.683 19.1605H16.6817M16.6817 19.1605H16.6805M16.6817 19.1605H16.6805M16.6805 19.1605H16.6792M16.6805 19.1605H16.6792M16.6792 19.1605H16.6779M16.6792 19.1605H16.6779M16.6779 19.1605H16.6766M16.6779 19.1605H16.6766M16.6766 19.1605H16.6753M16.6766 19.1605H16.6753M16.6753 19.1605H16.674M16.6753 19.1605H16.674M16.674 19.1605H16.6727M16.674 19.1605H16.6727M16.6727 19.1605H16.6713M16.6727 19.1605H16.6713M16.6713 19.1605H16.67M16.6713 19.1605H16.67M16.67 19.1605H16.6686M16.67 19.1605H16.6686M16.6686 19.1605H16.6673M16.6686 19.1605H16.6673M16.6673 19.1605H16.6659M16.6673 19.1605H16.6659M16.6659 19.1605H16.6645M16.6659 19.1605H16.6645M16.6645 19.1605H16.6631M16.6645 19.1605H16.6631M16.6631 19.1605H16.6617M16.6631 19.1605H16.6617M16.6617 19.1605H16.6602M16.6617 19.1605H16.6602M16.6602 19.1605H16.6588M16.6602 19.1605H16.6588M16.6588 19.1605H16.6573M16.6588 19.1605H16.6573M16.6573 19.1605H16.6559M16.6573 19.1605H16.6559M16.6559 19.1605H16.6544M16.6559 19.1605H16.6544M16.6544 19.1605H16.6529M16.6544 19.1605H16.6529M16.6529 19.1605H16.6514M16.6529 19.1605H16.6514M16.6514 19.1605H16.6499M16.6514 19.1605H16.6499M16.6499 19.1605H16.6484M16.6499 19.1605H16.6484M16.6484 19.1605H16.6468M16.6484 19.1605H16.6468M16.6468 19.1605H16.6453M16.6468 19.1605H16.6453M16.6453 19.1605H16.6437M16.6453 19.1605H16.6437M16.6437 19.1605H16.6421M16.6437 19.1605H16.6421M16.6421 19.1605H16.6405M16.6421 19.1605H16.6405M16.6405 19.1605H16.6389M16.6405 19.1605H16.6389M16.6389 19.1605H16.6373M16.6389 19.1605H16.6373M16.6373 19.1605H16.6357M16.6373 19.1605H16.6357M16.6357 19.1605H16.634M16.6357 19.1605H16.634M16.634 19.1605H16.6324M16.634 19.1605H16.6324M16.6324 19.1605H16.6307M16.6324 19.1605H16.6307M16.6307 19.1605H16.629M16.6307 19.1605H16.629M16.629 19.1605H16.6273M16.629 19.1605H16.6273M16.6273 19.1605H16.6256M16.6273 19.1605H16.6256M16.6256 19.1605H16.6239M16.6256 19.1605H16.6239M16.6239 19.1605H16.6221M16.6239 19.1605H16.6221M16.6221 19.1605H16.6204M16.6221 19.1605H16.6204M16.6204 19.1605H16.6186M16.6204 19.1605H16.6186M16.6186 19.1605H16.6168M16.6186 19.1605H16.6168M16.6168 19.1605H16.6151M16.6168 19.1605H16.6151M16.6151 19.1605H16.6132M16.6151 19.1605H16.6132M16.6132 19.1605H16.6114M16.6132 19.1605H16.6114M16.6114 19.1605H16.6096M16.6114 19.1605H16.6096M16.6096 19.1605H16.6077M16.6096 19.1605H16.6077M16.6077 19.1605H16.6059M16.6077 19.1605H16.6059M16.6059 19.1605H16.604M16.6059 19.1605H16.604M16.604 19.1605H16.6021M16.604 19.1605H16.6021M16.6021 19.1605H16.6002M16.6021 19.1605H16.6002M16.6002 19.1605H16.5983M16.6002 19.1605H16.5983M16.5983 19.1605H16.5963M16.5983 19.1605H16.5963M16.5963 19.1605H16.5944M16.5963 19.1605H16.5944M16.5944 19.1605H16.5924M16.5944 19.1605H16.5924M16.5924 19.1605H16.5904M16.5924 19.1605H16.5904M16.5904 19.1605H16.5884M16.5904 19.1605H16.5884M16.5884 19.1605H16.5864M16.5884 19.1605H16.5864M16.5864 19.1605H16.5844M16.5864 19.1605H16.5844M16.5844 19.1605H16.5823M16.5844 19.1605H16.5823M16.5823 19.1605H16.5802M16.5823 19.1605H16.5802M16.5802 19.1605H16.5782M16.5802 19.1605H16.5782M16.5782 19.1605H16.5761M16.5782 19.1605H16.5761M16.5761 19.1605H16.574M16.5761 19.1605H16.574M16.574 19.1605H16.5718M16.574 19.1605H16.5718M16.5718 19.1605H16.5697M16.5718 19.1605H16.5697M16.5697 19.1605H16.5675M16.5697 19.1605H16.5675M16.5675 19.1605H16.5654M16.5675 19.1605H16.5654M16.5654 19.1605H16.5632M16.5654 19.1605H16.5632M16.5632 19.1605H16.561M16.5632 19.1605H16.561M16.561 19.1605H16.5588M16.561 19.1605H16.5588M16.5588 19.1605H16.5565M16.5588 19.1605H16.5565M16.5565 19.1605H16.5543M16.5565 19.1605H16.5543M16.5543 19.1605H16.552M16.5543 19.1605H16.552M16.552 19.1605H16.5497M16.552 19.1605H16.5497M16.5497 19.1605H16.5474M16.5497 19.1605H16.5474M16.5474 19.1605H16.5451M16.5474 19.1605H16.5451M16.5451 19.1605H16.5427M16.5451 19.1605H16.5427M16.5427 19.1605H16.5404M16.5427 19.1605H16.5404M16.5404 19.1605H16.538M16.5404 19.1605H16.538M16.538 19.1605H16.5356M16.538 19.1605H16.5356M16.5356 19.1605H16.5332M16.5356 19.1605H16.5332M16.5332 19.1605H16.5308M16.5332 19.1605H16.5308M16.5308 19.1605H16.5284M16.5308 19.1605H16.5284M16.5284 19.1605H16.5259M16.5284 19.1605H16.5259M16.5259 19.1605H16.5234M16.5259 19.1605H16.5234M16.5234 19.1605H16.5209M16.5234 19.1605H16.5209M16.5209 19.1605H16.5184M16.5209 19.1605H16.5184M16.5184 19.1605H16.5159M16.5184 19.1605H16.5159M16.5159 19.1605H16.5134M16.5159 19.1605H16.5134M16.5134 19.1605H16.5108M16.5134 19.1605H16.5108M16.5108 19.1605H16.5082M16.5108 19.1605H16.5082M16.5082 19.1605H16.5056M16.5082 19.1605H16.5056M16.5056 19.1605H16.503M16.5056 19.1605H16.503M16.503 19.1605H16.5004M16.503 19.1605H16.5004M16.5004 19.1605H16.4977M16.5004 19.1605H16.4977M16.4977 19.1605H16.495M16.4977 19.1605H16.495M16.495 19.1605H16.4923M16.495 19.1605H16.4923M16.4923 19.1605H16.4896M16.4923 19.1605H16.4896M16.4896 19.1605H16.4869M16.4896 19.1605H16.4869M16.4869 19.1605H16.4842M16.4869 19.1605H16.4842M16.4842 19.1605H16.4814M16.4842 19.1605H16.4814M16.4814 19.1605H16.4786M16.4814 19.1605H16.4786M16.4786 19.1605H16.4758M16.4786 19.1605H16.4758M16.4758 19.1605H16.473M16.4758 19.1605H16.473M16.473 19.1605H16.4701M16.473 19.1605H16.4701M16.4701 19.1605H16.4673M16.4701 19.1605H16.4673M16.4673 19.1605H16.4644M16.4673 19.1605H16.4644M16.4644 19.1605H16.4615M16.4644 19.1605H16.4615M16.4615 19.1605H16.4586M16.4615 19.1605H16.4586M16.4586 19.1605H16.4557M16.4586 19.1605H16.4557M16.4557 19.1605H16.4527M16.4557 19.1605H16.4527M16.4527 19.1605H16.4497M16.4527 19.1605H16.4497M16.4497 19.1605H16.4467M16.4497 19.1605H16.4467M16.4467 19.1605H16.4437M16.4467 19.1605H16.4437M16.4437 19.1605H16.4407M16.4437 19.1605H16.4407M16.4407 19.1605H16.4376M16.4407 19.1605H16.4376M16.4376 19.1605H16.4346M16.4376 19.1605H16.4346M16.4346 19.1605H16.4315M16.4346 19.1605H16.4315M16.4315 19.1605H16.4283M16.4315 19.1605H16.4283M16.4283 19.1605H16.4252M16.4283 19.1605H16.4252M16.4252 19.1605H16.422M16.4252 19.1605H16.422M16.422 19.1605H16.4189M16.422 19.1605H16.4189M16.4189 19.1605H16.4157M16.4189 19.1605H16.4157M16.4157 19.1605H16.4125M16.4157 19.1605H16.4125M16.4125 19.1605H16.4092M16.4125 19.1605H16.4092M16.4092 19.1605H16.406M16.4092 19.1605H16.406M16.406 19.1605H16.4027H16.406Z" fill="#FFAA48" stroke="white"/>
<path d="M6.63786 6.30031C6.63786 7.29592 5.8312 8.10288 4.83525 8.10288C3.83894 8.10288 3.03268 7.29595 3.03268 6.30031C3.03268 5.30418 3.839 4.49731 4.83525 4.49731C5.83114 4.49731 6.63786 5.30421 6.63786 6.30031Z" fill="#FFAA48" stroke="white"/>
<path d="M23.2942 6.30031C23.2942 7.296 22.488 8.10288 21.4917 8.10288C20.4962 8.10288 19.6891 7.29582 19.6891 6.30031C19.6891 5.30431 20.4962 4.49731 21.4917 4.49731C22.4879 4.49731 23.2942 5.30413 23.2942 6.30031Z" fill="#FFAA48" stroke="white"/>
<path d="M2.67685 20.7448L2.64945 20.2738H2.1777H2.17358H2.16948H2.16541H2.16136H2.15733H2.15333H2.14934H2.14538H2.14144H2.13752H2.13362H2.12975H2.1259H2.12206H2.11825H2.11446H2.1107H2.10695H2.10322H2.09952H2.09583H2.09217H2.08853H2.08491H2.08131H2.07773H2.07417H2.07063H2.06712H2.06362H2.06014H2.05669H2.05325H2.04983H2.04644H2.04306H2.03971H2.03637H2.03305H2.02976H2.02648H2.02322H2.01998H2.01677H2.01357H2.01039H2.00723H2.00409H2.00096H1.99786H1.99478H1.99171H1.98866H1.98564H1.98263H1.97964H1.97667H1.97371H1.97078H1.96786H1.96497H1.96209H1.95923H1.95638H1.95356H1.95075H1.94796H1.94519H1.94243H1.9397H1.93698H1.93428H1.9316H1.92893H1.92628H1.92365H1.92104H1.91844H1.91586H1.9133H1.91075H1.90822H1.90571H1.90321H1.90073H1.89827H1.89583H1.8934H1.89098H1.88859H1.88621H1.88384H1.8815H1.87916H1.87685H1.87455H1.87226H1.86999H1.86774H1.86551H1.86328H1.86108H1.85889H1.85671H1.85455H1.85241H1.85028H1.84816H1.84607H1.84398H1.84191H1.83986H1.83782H1.83579H1.83378H1.83179H1.8298H1.82784H1.82588H1.82395H1.82202H1.82011H1.81822H1.81633H1.81447H1.81261H1.81077H1.80894H1.80713H1.80533H1.80355H1.80177H1.80001H1.79827H1.79654H1.79482H1.79311H1.79142H1.78974H1.78807H1.78642H1.78478H1.78315H1.78153H1.77993H1.77834H1.77676H1.77519H1.77364H1.77209H1.77057H1.76905H1.76754H1.76605H1.76457H1.7631H1.76164H1.76019H1.75876H1.75733H1.75592H1.75452H1.75313H1.75176H1.75039H1.74903H1.74769H1.74636H1.74503H1.74372H1.74242H1.74113H1.73985H1.73858H1.73733H1.73608H1.73484H1.73361H1.7324H1.73119H1.72999H1.72881H1.72763H1.72646H1.72531H1.72416H1.72302H1.7219H1.72078H1.71967H1.71857H1.71748H1.7164H1.71533H1.71427H1.71321H1.71217H1.71114H1.71011H1.70909H1.70808H1.70708H1.70609H1.70511H1.70414H1.70317H1.70221H1.70126H1.70032H1.69939H1.69846H1.69755H1.69664H1.69574H1.69484H1.69396H1.69308H1.69221H1.69135H1.69049H1.68964H1.6888H1.68797H1.68714H1.68632H1.68551H1.68471H1.68391H1.68312H1.68233H1.68156H1.68078H1.68002H1.67926H1.67851H1.67776H1.67703H1.67629H1.67557H1.67484H1.67413H1.67342H1.67272H1.67202H1.67133H1.67064H1.66996H1.66929H1.66862H1.66796H1.6673H1.66665H1.666H1.66536H1.66472H1.66409H1.66346H1.66284H1.66222H1.6616H1.661H1.66039H1.65979H1.6592H1.65861H1.65802H1.65744H1.65686H1.65629H1.65572H1.65515H1.65459H1.65403H1.65347H1.65292H1.65238H1.65183H1.65129H1.65076H1.65022H1.64969H1.64917H1.64864H1.64812H1.6476H1.64709H1.64658H1.64607H1.64556H1.64506H1.64456H1.64406H1.64356H1.64307H1.64258H1.64209H1.6416H1.64112H1.64064H1.64016H1.63968H1.6392H1.63873H1.63825H1.63778H1.63731H1.63684H1.63637H1.63591H1.63544H1.63498H1.63452H1.63406H1.6336H1.63314H1.63268H1.63222H1.63177H1.63131H1.63086H1.6304H1.62995H1.62949H1.62904H1.62859H1.62813H1.62768H1.62723H1.62677H1.62632H1.62587H1.62542H1.62496H1.62451H1.62405H1.6236H1.62314H1.62269H1.62223H1.62178H1.62132H1.62086H1.6204H1.61994H1.61948H1.61901H1.61855H1.61808H1.61762H1.61715H1.61668H1.61621H1.61573H1.61526H1.61478H1.6143H1.61382H1.61334H1.61286H1.61237H1.61188H1.61139H1.6109H1.6104H1.6099H1.6094H1.6089H1.60839H1.60789H1.60737H1.60686H1.60634H1.60582H1.6053H1.60477H1.60424H1.60371H1.60318H1.60264H1.60209H1.60155H1.601H1.60044H1.59988H1.59932H1.59876H1.59819H1.59762H1.59704H1.59646H1.59587H1.59528H1.59469H1.59409H1.59348H1.59288H1.59226H1.59165H1.59102H1.5904H1.58976H1.58913H1.58849H1.58784H1.58719H1.58653H1.58587H1.5852H1.58452H1.58385H1.58316H1.58247H1.58177H1.58107H1.58036H1.57965H1.57893H1.57821H1.57747H1.57674H1.57599H1.57524H1.57448H1.57372H1.57295H1.57217H1.57139H1.5706H1.5698H1.569H1.56819H1.56737H1.56654H1.56571H1.56487H1.56402H1.56317H1.56231H1.56144H1.56056H1.55968H1.55879H1.55789H1.55698H1.55606H1.55514H1.55421H1.55327H1.55232H1.55136H1.5504H1.54943H1.54845H1.54746H1.54646H1.54545H1.54443H1.54341H1.54238H1.54133H1.54028H1.53922H1.53815H1.53707H1.53598H1.53489H1.53378H1.53266H1.53154H1.5304H1.52926H1.5281H1.52693H1.52576H1.52458H1.52338H1.52218H1.52096H1.51973H1.5185H1.51725H1.516H1.51473H1.51345H1.51216H1.51086H1.50955H1.50823H1.5069H1.50556H1.50421H1.50284H1.50146H1.50008H1.49868H1.49727H1.49585H1.49441H1.49297H1.49151H1.49005H1.48857H1.48707H1.48557H1.48406H1.48253H1.48099H1.47944H1.47787H1.47629H1.4747H1.4731C1.19136 20.2738 0.963135 20.0459 0.963135 19.7634V12.0237C0.963135 11.6378 1.18189 11.1751 1.56317 10.7937C1.94445 10.4122 2.40688 10.1934 2.79255 10.1934H4.81161H6.14627V18.5036C6.14627 19.3099 6.45133 20.0415 6.94503 20.5982V20.7593L6.56219 27.3458L6.56135 27.3603V27.3748C6.56135 27.6921 6.30381 27.9499 5.98586 27.9499H5.98439H5.98292H5.98144H5.97996H5.97847H5.97697H5.97548H5.97397H5.97247H5.97095H5.96944H5.96791H5.96639H5.96486H5.96332H5.96178H5.96023H5.95868H5.95713H5.95557H5.95401H5.95244H5.95086H5.94929H5.9477H5.94612H5.94452H5.94293H5.94133H5.93972H5.93811H5.93649H5.93488H5.93325H5.93162H5.92999H5.92835H5.92671H5.92506H5.92341H5.92176H5.9201H5.91843H5.91676H5.91509H5.91341H5.91173H5.91005H5.90835H5.90666H5.90496H5.90325H5.90155H5.89983H5.89812H5.8964H5.89467H5.89294H5.89121H5.88947H5.88772H5.88598H5.88422H5.88247H5.88071H5.87894H5.87718H5.8754H5.87363H5.87185H5.87006H5.86827H5.86648H5.86468H5.86288H5.86107H5.85926H5.85745H5.85563H5.85381H5.85198H5.85015H5.84831H5.84648H5.84463H5.84279H5.84093H5.83908H5.83722H5.83536H5.83349H5.83162H5.82974H5.82787H5.82598H5.8241H5.8222H5.82031H5.81841H5.81651H5.8146H5.81269H5.81078H5.80886H5.80694H5.80501H5.80308H5.80115H5.79921H5.79727H5.79532H5.79338H5.79142H5.78947H5.78751H5.78554H5.78358H5.7816H5.77963H5.77765H5.77567H5.77368H5.77169H5.7697H5.7677H5.7657H5.76369H5.76169H5.75967H5.75766H5.75564H5.75362H5.75159H5.74956H5.74753H5.74549H5.74345H5.74141H5.73936H5.73731H5.73525H5.73319H5.73113H5.72907H5.727H5.72493H5.72285H5.72077H5.71869H5.7166H5.71451H5.71242H5.71032H5.70822H5.70612H5.70401H5.7019H5.69979H5.69767H5.69555H5.69343H5.6913H5.68917H5.68704H5.68491H5.68277H5.68062H5.67848H5.67633H5.67417H5.67202H5.66986H5.6677H5.66553H5.66336H5.66119H5.65901H5.65684H5.65465H5.65247H5.65028H5.64809H5.6459H5.6437H5.6415H5.6393H5.63709H5.63488H5.63267H5.63045H5.62823H5.62601H5.62379H5.62156H5.61933H5.61709H5.61486H5.61262H5.61037H5.60813H5.60588H5.60363H5.60137H5.59912H5.59686H5.59459H5.59233H5.59006H5.58778H5.58551H5.58323H5.58095H5.57867H5.57638H5.57409H5.5718H5.56951H5.56721H5.56491H5.56261H5.5603H5.55799H5.55568H5.55337H5.55105H5.54873H5.54641H5.54408H5.54176H5.53943H5.53709H5.53476H5.53242H5.53008H5.52774H5.52539H5.52304H5.52069H5.51834H5.51598H5.51362H5.51126H5.5089H5.50653H5.50416H5.50179H5.49942H5.49704H5.49466H5.49228H5.48989H5.48751H5.48512H5.48273H5.48033H5.47794H5.47554H5.47314H5.47073H5.46833H5.46592H5.46351H5.4611H5.45868H5.45626H5.45384H5.45142H5.449H5.44657H5.44414H5.44171H5.43927H5.43684H5.4344H5.43196H5.42952H5.42707H5.42462H5.42217H5.41972H5.41727H5.41481H5.41235H5.40989H5.40743H5.40497H5.4025H5.40003H5.39756H5.39509H5.39261H5.39014H5.38766H5.38517H5.38269H5.38021H5.37772H5.37523H5.37274H5.37024H5.36775H5.36525H5.36275H5.36025H5.35775H5.35524H5.35273H5.35022H5.34771H5.3452H5.34268H5.34017H5.33765H5.33513H5.3326H5.33008H5.32755H5.32503H5.3225H5.31996H5.31743H5.31489H5.31236H5.30982H5.30728H5.30474H5.30219H5.29965H5.2971H5.29455H5.292H5.28944H5.28689H5.28433H5.28178H5.27922H5.27665H5.27409H5.27153H5.26896H5.26639H5.26382H5.26125H5.25868H5.25611H5.25353H5.25095H5.24838H5.24579H5.24321H5.24063H5.23804H5.23546H5.23287H5.23028H5.22769H5.2251H5.2225H5.21991H5.21731H5.21471H5.21211H5.20951H5.20691H5.20431H5.2017H5.1991H5.19649H5.19388H5.19127H5.18866H5.18604H5.18343H5.18081H5.1782H5.17558H5.17296H5.17034H5.16772H5.16509H5.16247H5.15984H5.15722H5.15459H5.15196H5.14933H5.1467H5.14406H5.14143H5.13879H5.13616H5.13352H5.13088H5.12824H5.1256H5.12296H5.12031H5.11767H5.11503H5.11238H5.10973H5.10708H5.10443H5.10178H5.09913H5.09648H5.09383H5.09117H5.08852H5.08586H5.0832H5.08054H5.07789H5.07523H5.07256H5.0699H5.06724H5.06458H5.06191H5.05925H5.05658H5.05391H5.05125H5.04858H5.04591H5.04324H5.04057H5.03789H5.03522H5.03255H5.02987H5.0272H5.02452H5.02185H5.01917H5.01649H5.01381H5.01113H5.00845H5.00577H5.00309H5.00041H4.99773H4.99504H4.99236H4.98967H4.98699H4.9843H4.98162H4.97893H4.97624H4.97356H4.97087H4.96818H4.96549H4.9628H4.96011H4.95742H4.95472H4.95203H4.94934H4.94665H4.94395H4.94126H4.93856H4.93587H4.93317H4.93048H4.92778H4.92509H4.92239H4.91969H4.91699H4.9143H4.9116H4.9089H4.9062H4.9035H4.9008H4.8981H4.8954H4.8927H4.89H4.8873H4.8846H4.8819H4.8792H4.87649H4.87379H4.87109H4.86839H4.86569H4.86298H4.86028H4.85758H4.85487H4.85217H4.84947H4.84676H4.84406H4.84136H4.83865H4.83595H4.83324H4.83054H4.82784H4.82513H4.82243H4.81972H4.81702H4.81432H4.81161H4.8089H4.8062H4.80349H4.80078H4.79807H4.79537H4.79266H4.78995H4.78725H4.78454H4.78183H4.77913H4.77642H4.77371H4.77101H4.7683H4.76559H4.76289H4.76018H4.75748H4.75477H4.75207H4.74936H4.74666H4.74395H4.74125H4.73854H4.73584H4.73314H4.73043H4.72773H4.72503H4.72233H4.71962H4.71692H4.71422H4.71152H4.70882H4.70612H4.70342H4.70072H4.69802H4.69532H4.69262H4.68993H4.68723H4.68453H4.68184H4.67914H4.67644H4.67375H4.67105H4.66836H4.66567H4.66297H4.66028H4.65759H4.6549H4.65221H4.64951H4.64682H4.64414H4.64145H4.63876H4.63607H4.63338H4.6307H4.62801H4.62533H4.62264H4.61996H4.61728H4.61459H4.61191H4.60923H4.60655H4.60387H4.60119H4.59852H4.59584H4.59316H4.59049H4.58781H4.58514H4.58246H4.57979H4.57712H4.57445H4.57178H4.56911H4.56644H4.56377H4.56111H4.55844H4.55578H4.55311H4.55045H4.54779H4.54512H4.54246H4.5398H4.53715H4.53449H4.53183H4.52918H4.52652H4.52387H4.52122H4.51857H4.51592H4.51327H4.51062H4.50797H4.50532H4.50268H4.50004H4.49739H4.49475H4.49211H4.48947H4.48683H4.48419H4.48156H4.47892H4.47629H4.47366H4.47103H4.4684H4.46577H4.46314H4.46051H4.45789H4.45526H4.45264H4.45002H4.4474H4.44478H4.44216H4.43955H4.43693H4.43432H4.4317H4.42909H4.42648H4.42388H4.42127H4.41866H4.41606H4.41346H4.41086H4.40826H4.40566H4.40306H4.40046H4.39787H4.39528H4.39269H4.3901H4.38751H4.38492H4.38234H4.37975H4.37717H4.37459H4.37201H4.36943H4.36686H4.36428H4.36171H4.35914H4.35657H4.354H4.35144H4.34887H4.34631H4.34375H4.34119H4.33863H4.33607H4.33352H4.33097H4.32842H4.32587H4.32332H4.32077H4.31823H4.31569H4.31315H4.31061H4.30807H4.30553H4.303H4.30047H4.29794H4.29541H4.29289H4.29036H4.28784H4.28532H4.2828H4.28028H4.27777H4.27525H4.27274H4.27023H4.26773H4.26522H4.26272H4.26022H4.25772H4.25522H4.25273H4.25023H4.24774H4.24525H4.24276H4.24028H4.2378H4.23531H4.23284H4.23036H4.22788H4.22541H4.22294H4.22047H4.21801H4.21554H4.21308H4.21062H4.20816H4.20571H4.20325H4.2008H4.19835H4.19591H4.19346H4.19102H4.18858H4.18614H4.18371H4.18127H4.17884H4.17641H4.17399H4.17156H4.16914H4.16672H4.1643H4.16189H4.15948H4.15707H4.15466H4.15225H4.14985H4.14745H4.14505H4.14266H4.14026H4.13787H4.13548H4.1331H4.13072H4.12833H4.12596H4.12358H4.12121H4.11884H4.11647H4.1141H4.11174H4.10938H4.10702H4.10466H4.10231H4.09996H4.09761H4.09527H4.09293H4.09058H4.08825H4.08591H4.08358H4.08125H4.07893H4.0766H4.07428H4.07196H4.06965H4.06733H4.06502H4.06271H4.06041H4.05811H4.05581H4.05351H4.05122H4.04893H4.04664H4.04435H4.04207H4.03979H4.03751H4.03524H4.03297H4.0307H4.02844H4.02617H4.02391H4.02166H4.0194H4.01715H4.01491H4.01266H4.01042H4.00818H4.00594H4.00371H4.00148H3.99925H3.99703H3.99481H3.99259H3.99038H3.98816H3.98596H3.98375H3.98155H3.97935H3.97715H3.97496H3.97277H3.97058H3.9684H3.96622H3.96404H3.96187H3.95969H3.95753H3.95536H3.9532H3.95104H3.94889H3.94674H3.94459H3.94244H3.9403H3.93816H3.93602H3.93389H3.93176H3.92964H3.92752H3.9254H3.92328H3.92117H3.91906H3.91695H3.91485H3.91275H3.91066H3.90857H3.90648H3.90439H3.90231H3.90023H3.89816H3.89609H3.89402H3.89195H3.88989H3.88784H3.88578H3.88373H3.88168H3.87964H3.8776H3.87557H3.87353H3.8715H3.86948H3.86746H3.86544H3.86342H3.86141H3.85941H3.8574H3.8554H3.8534H3.85141H3.84942H3.84744H3.84546H3.84348H3.8415H3.83953H3.83757H3.8356H3.83364H3.83169H3.82974H3.82779H3.82584H3.8239H3.82197H3.82003H3.81811H3.81618H3.81426H3.81234H3.81043H3.80852H3.80661H3.80471H3.80281H3.80092H3.79903H3.79714H3.79526H3.79338H3.79151H3.78964H3.78777H3.78591H3.78405H3.7822H3.78035H3.7785H3.77666H3.77482H3.77299H3.77116H3.76933H3.76751H3.76569H3.76388H3.76207H3.76026H3.75846H3.75666H3.75487H3.75308H3.7513H3.74952H3.74774H3.74597H3.7442H3.74244H3.74068H3.73892H3.73717H3.73543H3.73368H3.73195H3.73021H3.72848H3.72676H3.72504H3.72332H3.72161H3.7199H3.7182H3.7165H3.7148H3.71311H3.71142H3.70974H3.70807H3.70639H3.70472H3.70306H3.7014H3.69975H3.6981H3.69645H3.69481H3.69317H3.69154H3.68991H3.68829H3.68667H3.68505H3.68344H3.68184H3.68024H3.67864H3.67705H3.67546H3.67388H3.6723H3.67073H3.66916H3.6676H3.66604H3.66448H3.66293H3.66139H3.65985H3.65831H3.65678H3.65525H3.65373H3.65221H3.6507H3.64919H3.64769H3.64619H3.6447H3.64321H3.64173H3.64025H3.63878H3.63731C3.31937 27.9499 3.06182 27.692 3.06182 27.3748V27.3603L3.06098 27.3458L2.67685 20.7448Z" fill="#FFAA48" stroke="white"/>
<path d="M19.7183 27.3748V27.3603L19.7174 27.3458L19.3345 20.7593V20.5984C19.8287 20.0416 20.1338 19.3099 20.1338 18.5036V10.1934H21.468H23.4875C23.8732 10.1934 24.3356 10.4122 24.7169 10.7937C25.0982 11.1751 25.3169 11.6378 25.3169 12.0237V19.7634C25.3169 20.0458 25.0887 20.2738 24.807 20.2738H24.8054H24.8038H24.8022H24.8006H24.7991H24.7975H24.796H24.7945H24.793H24.7915H24.79H24.7885H24.7871H24.7856H24.7842H24.7828H24.7814H24.78H24.7786H24.7772H24.7759H24.7745H24.7732H24.7718H24.7705H24.7692H24.7679H24.7666H24.7653H24.7641H24.7628H24.7616H24.7603H24.7591H24.7579H24.7567H24.7555H24.7543H24.7531H24.752H24.7508H24.7497H24.7485H24.7474H24.7463H24.7452H24.7441H24.743H24.7419H24.7408H24.7398H24.7387H24.7377H24.7366H24.7356H24.7346H24.7336H24.7326H24.7316H24.7306H24.7297H24.7287H24.7277H24.7268H24.7259H24.7249H24.724H24.7231H24.7222H24.7213H24.7204H24.7195H24.7186H24.7178H24.7169H24.716H24.7152H24.7143H24.7135H24.7127H24.7119H24.7111H24.7103H24.7095H24.7087H24.7079H24.7071H24.7063H24.7056H24.7048H24.7041H24.7033H24.7026H24.7019H24.7011H24.7004H24.6997H24.699H24.6983H24.6976H24.6969H24.6962H24.6955H24.6949H24.6942H24.6935H24.6929H24.6922H24.6916H24.6909H24.6903H24.6897H24.689H24.6884H24.6878H24.6872H24.6866H24.686H24.6854H24.6848H24.6842H24.6836H24.683H24.6824H24.6819H24.6813H24.6807H24.6802H24.6796H24.6791H24.6785H24.678H24.6774H24.6769H24.6763H24.6758H24.6753H24.6748H24.6742H24.6737H24.6732H24.6727H24.6722H24.6717H24.6712H24.6707H24.6702H24.6697H24.6692H24.6687H24.6682H24.6677H24.6672H24.6667H24.6662H24.6658H24.6653H24.6648H24.6643H24.6639H24.6634H24.6629H24.6624H24.662H24.6615H24.661H24.6606H24.6601H24.6597H24.6592H24.6587H24.6583H24.6578H24.6574H24.6569H24.6565H24.656H24.6556H24.6551H24.6546H24.6542H24.6537H24.6533H24.6528H24.6524H24.6519H24.6515H24.651H24.6506H24.6501H24.6497H24.6492H24.6488H24.6483H24.6478H24.6474H24.6469H24.6465H24.646H24.6455H24.6451H24.6446H24.6442H24.6437H24.6432H24.6428H24.6423H24.6418H24.6413H24.6409H24.6404H24.6399H24.6394H24.6389H24.6385H24.638H24.6375H24.637H24.6365H24.636H24.6355H24.635H24.6345H24.634H24.6335H24.633H24.6325H24.6319H24.6314H24.6309H24.6304H24.6298H24.6293H24.6288H24.6282H24.6277H24.6271H24.6266H24.626H24.6255H24.6249H24.6243H24.6238H24.6232H24.6226H24.622H24.6215H24.6209H24.6203H24.6197H24.6191H24.6185H24.6178H24.6172H24.6166H24.616H24.6153H24.6147H24.6141H24.6134H24.6128H24.6121H24.6114H24.6108H24.6101H24.6094H24.6087H24.608H24.6073H24.6066H24.6059H24.6052H24.6045H24.6038H24.603H24.6023H24.6016H24.6008H24.6H24.5993H24.5985H24.5977H24.597H24.5962H24.5954H24.5946H24.5937H24.5929H24.5921H24.5913H24.5904H24.5896H24.5887H24.5879H24.587H24.5861H24.5852H24.5843H24.5834H24.5825H24.5816H24.5807H24.5797H24.5788H24.5779H24.5769H24.5759H24.575H24.574H24.573H24.572H24.571H24.57H24.5689H24.5679H24.5669H24.5658H24.5647H24.5637H24.5626H24.5615H24.5604H24.5593H24.5582H24.557H24.5559H24.5548H24.5536H24.5524H24.5513H24.5501H24.5489H24.5477H24.5465H24.5452H24.544H24.5427H24.5415H24.5402H24.5389H24.5377H24.5364H24.535H24.5337H24.5324H24.531H24.5297H24.5283H24.5269H24.5256H24.5242H24.5227H24.5213H24.5199H24.5184H24.517H24.5155H24.514H24.5125H24.511H24.5095H24.508H24.5064H24.5049H24.5033H24.5017H24.5002H24.4985H24.4969H24.4953H24.4937H24.492H24.4903H24.4887H24.487H24.4853H24.4835H24.4818H24.4801H24.4783H24.4765H24.4747H24.4729H24.4711H24.4693H24.4675H24.4656H24.4637H24.4619H24.46H24.4581H24.4561H24.4542H24.4522H24.4503H24.4483H24.4463H24.4443H24.4423H24.4402H24.4382H24.4361H24.434H24.4319H24.4298H24.4277H24.4255H24.4234H24.4212H24.419H24.4168H24.4146H24.4123H24.4101H24.4078H24.4055H24.4032H24.4009H24.3986H24.3962H24.3939H24.3915H24.3891H24.3867H24.3843H24.3818H24.3794H24.3769H24.3744H24.3719H24.3693H24.3668H24.3642H24.3617H24.3591H24.3564H24.3538H24.3512H24.3485H24.3458H24.3431H24.3404H24.3377H24.3349H24.3321H24.3293H24.3265H24.3237H24.3209H24.318H24.3151H24.3122H24.3093H24.3064H24.3034H24.3005H24.2975H24.2945H24.2914H24.2884H24.2853H24.2822H24.2791H24.276H24.2729H24.2697H24.2665H24.2633H24.2601H24.2569H24.2536H24.2503H24.247H24.2437H24.2404H24.237H24.2337H24.2303H24.2269H24.2234H24.22H24.2165H24.213H24.2095H24.2059H24.2024H24.1988H24.1952H24.1916H24.1879H24.1843H24.1806H24.1769H24.1732H24.1694H24.1656H24.1619H24.158H24.1542H24.1504H24.1465H24.1426H24.1387H24.1347H24.1308H24.1268H24.1228H24.1187H24.1147H24.1106H24.1065H24.1024H23.6307L23.6033 20.7447L23.2187 27.3457L23.2179 27.3603V27.3748C23.2179 27.6923 22.9605 27.9499 22.6428 27.9499H22.6413H22.6398H22.6383H22.6368H22.6354H22.6339H22.6324H22.6309H22.6294H22.6278H22.6263H22.6248H22.6233H22.6217H22.6202H22.6187H22.6171H22.6156H22.614H22.6125H22.6109H22.6093H22.6078H22.6062H22.6046H22.603H22.6014H22.5998H22.5982H22.5966H22.595H22.5934H22.5918H22.5901H22.5885H22.5869H22.5853H22.5836H22.582H22.5803H22.5787H22.577H22.5753H22.5737H22.572H22.5703H22.5686H22.5669H22.5653H22.5636H22.5619H22.5602H22.5585H22.5567H22.555H22.5533H22.5516H22.5498H22.5481H22.5464H22.5446H22.5429H22.5411H22.5394H22.5376H22.5359H22.5341H22.5323H22.5305H22.5288H22.527H22.5252H22.5234H22.5216H22.5198H22.518H22.5162H22.5144H22.5125H22.5107H22.5089H22.5071H22.5052H22.5034H22.5016H22.4997H22.4979H22.496H22.4941H22.4923H22.4904H22.4885H22.4867H22.4848H22.4829H22.481H22.4791H22.4772H22.4753H22.4734H22.4715H22.4696H22.4677H22.4658H22.4639H22.4619H22.46H22.4581H22.4561H22.4542H22.4523H22.4503H22.4484H22.4464H22.4444H22.4425H22.4405H22.4385H22.4366H22.4346H22.4326H22.4306H22.4286H22.4266H22.4246H22.4226H22.4206H22.4186H22.4166H22.4146H22.4126H22.4106H22.4085H22.4065H22.4045H22.4024H22.4004H22.3984H22.3963H22.3943H22.3922H22.3901H22.3881H22.386H22.384H22.3819H22.3798H22.3777H22.3756H22.3736H22.3715H22.3694H22.3673H22.3652H22.3631H22.361H22.3589H22.3568H22.3546H22.3525H22.3504H22.3483H22.3461H22.344H22.3419H22.3397H22.3376H22.3354H22.3333H22.3311H22.329H22.3268H22.3247H22.3225H22.3203H22.3182H22.316H22.3138H22.3116H22.3094H22.3073H22.3051H22.3029H22.3007H22.2985H22.2963H22.2941H22.2919H22.2896H22.2874H22.2852H22.283H22.2808H22.2785H22.2763H22.2741H22.2718H22.2696H22.2674H22.2651H22.2629H22.2606H22.2584H22.2561H22.2538H22.2516H22.2493H22.247H22.2448H22.2425H22.2402H22.2379H22.2357H22.2334H22.2311H22.2288H22.2265H22.2242H22.2219H22.2196H22.2173H22.215H22.2127H22.2104H22.208H22.2057H22.2034H22.2011H22.1987H22.1964H22.1941H22.1918H22.1894H22.1871H22.1847H22.1824H22.18H22.1777H22.1753H22.173H22.1706H22.1683H22.1659H22.1635H22.1612H22.1588H22.1564H22.154H22.1517H22.1493H22.1469H22.1445H22.1421H22.1397H22.1373H22.1349H22.1325H22.1301H22.1277H22.1253H22.1229H22.1205H22.1181H22.1157H22.1133H22.1108H22.1084H22.106H22.1036H22.1011H22.0987H22.0963H22.0938H22.0914H22.0889H22.0865H22.0841H22.0816H22.0792H22.0767H22.0743H22.0718H22.0693H22.0669H22.0644H22.062H22.0595H22.057H22.0545H22.0521H22.0496H22.0471H22.0446H22.0422H22.0397H22.0372H22.0347H22.0322H22.0297H22.0272H22.0247H22.0222H22.0197H22.0172H22.0147H22.0122H22.0097H22.0072H22.0047H22.0022H21.9997H21.9971H21.9946H21.9921H21.9896H21.987H21.9845H21.982H21.9795H21.9769H21.9744H21.9719H21.9693H21.9668H21.9642H21.9617H21.9591H21.9566H21.9541H21.9515H21.9489H21.9464H21.9438H21.9413H21.9387H21.9362H21.9336H21.931H21.9285H21.9259H21.9233H21.9208H21.9182H21.9156H21.913H21.9105H21.9079H21.9053H21.9027H21.9001H21.8976H21.895H21.8924H21.8898H21.8872H21.8846H21.882H21.8794H21.8768H21.8742H21.8716H21.869H21.8664H21.8638H21.8612H21.8586H21.856H21.8534H21.8508H21.8482H21.8456H21.8429H21.8403H21.8377H21.8351H21.8325H21.8298H21.8272H21.8246H21.822H21.8193H21.8167H21.8141H21.8115H21.8088H21.8062H21.8036H21.8009H21.7983H21.7956H21.793H21.7904H21.7877H21.7851H21.7824H21.7798H21.7772H21.7745H21.7719H21.7692H21.7666H21.7639H21.7613H21.7586H21.756H21.7533H21.7506H21.748H21.7453H21.7427H21.74H21.7373H21.7347H21.732H21.7294H21.7267H21.724H21.7214H21.7187H21.716H21.7134H21.7107H21.708H21.7053H21.7027H21.7H21.6973H21.6946H21.692H21.6893H21.6866H21.6839H21.6813H21.6786H21.6759H21.6732H21.6705H21.6679H21.6652H21.6625H21.6598H21.6571H21.6544H21.6517H21.6491H21.6464H21.6437H21.641H21.6383H21.6356H21.6329H21.6302H21.6275H21.6248H21.6221H21.6195H21.6168H21.6141H21.6114H21.6087H21.606H21.6033H21.6006H21.5979H21.5952H21.5925H21.5898H21.5871H21.5844H21.5817H21.579H21.5763H21.5736H21.5709H21.5682H21.5655H21.5628H21.5601H21.5574H21.5547H21.552H21.5493H21.5465H21.5438H21.5411H21.5384H21.5357H21.533H21.5303H21.5276H21.5249H21.5222H21.5195H21.5168H21.5141H21.5114H21.5086H21.5059H21.5032H21.5005H21.4978H21.4951H21.4924H21.4897H21.487H21.4843H21.4816H21.4788H21.4761H21.4734H21.4707H21.468H21.4653H21.4626H21.4599H21.4572H21.4545H21.4518H21.4491H21.4464H21.4437H21.441H21.4383H21.4356H21.4329H21.4302H21.4275H21.4247H21.422H21.4193H21.4166H21.4139H21.4112H21.4085H21.4058H21.4031H21.4004H21.3977H21.395H21.3923H21.3896H21.3869H21.3842H21.3815H21.3788H21.3761H21.3734H21.3707H21.368H21.3653H21.3626H21.3599H21.3572H21.3545H21.3518H21.3492H21.3465H21.3438H21.3411H21.3384H21.3357H21.333H21.3303H21.3276H21.3249H21.3222H21.3195H21.3168H21.3141H21.3115H21.3088H21.3061H21.3034H21.3007H21.298H21.2953H21.2927H21.29H21.2873H21.2846H21.2819H21.2792H21.2766H21.2739H21.2712H21.2685H21.2658H21.2632H21.2605H21.2578H21.2551H21.2525H21.2498H21.2471H21.2444H21.2418H21.2391H21.2364H21.2338H21.2311H21.2284H21.2257H21.2231H21.2204H21.2178H21.2151H21.2124H21.2098H21.2071H21.2044H21.2018H21.1991H21.1965H21.1938H21.1912H21.1885H21.1858H21.1832H21.1805H21.1779H21.1752H21.1726H21.1699H21.1673H21.1647H21.162H21.1594H21.1567H21.1541H21.1514H21.1488H21.1462H21.1435H21.1409H21.1383H21.1356H21.133H21.1304H21.1277H21.1251H21.1225H21.1199H21.1172H21.1146H21.112H21.1094H21.1067H21.1041H21.1015H21.0989H21.0963H21.0937H21.0911H21.0884H21.0858H21.0832H21.0806H21.078H21.0754H21.0728H21.0702H21.0676H21.065H21.0624H21.0598H21.0572H21.0546H21.052H21.0494H21.0469H21.0443H21.0417H21.0391H21.0365H21.0339H21.0314H21.0288H21.0262H21.0236H21.0211H21.0185H21.0159H21.0134H21.0108H21.0082H21.0057H21.0031H21.0005H20.998H20.9954H20.9929H20.9903H20.9878H20.9852H20.9827H20.9801H20.9776H20.975H20.9725H20.9699H20.9674H20.9649H20.9623H20.9598H20.9573H20.9548H20.9522H20.9497H20.9472H20.9447H20.9421H20.9396H20.9371H20.9346H20.9321H20.9296H20.9271H20.9246H20.922H20.9195H20.917H20.9145H20.9121H20.9096H20.9071H20.9046H20.9021H20.8996H20.8971H20.8946H20.8922H20.8897H20.8872H20.8847H20.8823H20.8798H20.8773H20.8749H20.8724H20.8699H20.8675H20.865H20.8626H20.8601H20.8577H20.8552H20.8528H20.8503H20.8479H20.8454H20.843H20.8406H20.8381H20.8357H20.8333H20.8308H20.8284H20.826H20.8236H20.8212H20.8188H20.8163H20.8139H20.8115H20.8091H20.8067H20.8043H20.8019H20.7995H20.7971H20.7947H20.7924H20.79H20.7876H20.7852H20.7828H20.7805H20.7781H20.7757H20.7733H20.771H20.7686H20.7663H20.7639H20.7615H20.7592H20.7568H20.7545H20.7522H20.7498H20.7475H20.7451H20.7428H20.7405H20.7381H20.7358H20.7335H20.7312H20.7289H20.7265H20.7242H20.7219H20.7196H20.7173H20.715H20.7127H20.7104H20.7081H20.7058H20.7035H20.7012H20.699H20.6967H20.6944H20.6921H20.6899H20.6876H20.6853H20.6831H20.6808H20.6786H20.6763H20.6741H20.6718H20.6696H20.6673H20.6651H20.6628H20.6606H20.6584H20.6562H20.6539H20.6517H20.6495H20.6473H20.6451H20.6429H20.6407H20.6385H20.6363H20.6341H20.6319H20.6297H20.6275H20.6253H20.6231H20.6209H20.6188H20.6166H20.6144H20.6123H20.6101H20.608H20.6058H20.6036H20.6015H20.5994H20.5972H20.5951H20.5929H20.5908H20.5887H20.5865H20.5844H20.5823H20.5802H20.5781H20.576H20.5739H20.5718H20.5697H20.5676H20.5655H20.5634H20.5613H20.5592H20.5571H20.5551H20.553H20.5509H20.5489H20.5468H20.5447H20.5427H20.5406H20.5386H20.5366H20.5345H20.5325H20.5304H20.5284H20.5264H20.5244H20.5224H20.5203H20.5183H20.5163H20.5143H20.5123H20.5103H20.5083H20.5063H20.5044H20.5024H20.5004H20.4984H20.4964H20.4945H20.4925H20.4906H20.4886H20.4867H20.4847H20.4828H20.4808H20.4789H20.4769H20.475H20.4731H20.4712H20.4693H20.4673H20.4654H20.4635H20.4616H20.4597H20.4578H20.4559H20.4541H20.4522H20.4503H20.4484H20.4466H20.4447H20.4428H20.441H20.4391H20.4373H20.4354H20.4336H20.4317H20.4299H20.4281H20.4262H20.4244H20.4226H20.4208H20.419H20.4172H20.4154H20.4136H20.4118H20.41H20.4082H20.4064H20.4047H20.4029H20.4011H20.3993H20.3976H20.3958H20.3941H20.3923H20.3906H20.3889H20.3871H20.3854H20.3837H20.3819H20.3802H20.3785H20.3768H20.3751H20.3734H20.3717H20.37H20.3683H20.3666H20.365H20.3633H20.3616H20.36H20.3583H20.3566H20.355H20.3534H20.3517H20.3501H20.3484H20.3468H20.3452H20.3436H20.342H20.3403H20.3387H20.3371H20.3355H20.3339H20.3324H20.3308H20.3292H20.3276H20.3261H20.3245H20.3229H20.3214H20.3198H20.3183H20.3167H20.3152H20.3137H20.3121H20.3106H20.3091H20.3076H20.3061H20.3046H20.3031H20.3016H20.3001H20.2986H20.2971H20.2957H20.2942C19.976 27.9499 19.7183 27.6917 19.7183 27.3748Z" fill="#FFAA48" stroke="white"/>
</svg>
