<svg width="111" height="143" viewBox="0 0 111 143" fill="none" xmlns="http://www.w3.org/2000/svg">
<circle cx="51" cy="45.0002" r="5" fill="#FFAA48"/>
<circle cx="71" cy="25.0002" r="5" fill="#ED7424"/>
<circle cx="91" cy="5.00024" r="5" fill="#ED7424"/>
<path fill-rule="evenodd" clip-rule="evenodd" d="M12.0156 123.898C10.0321 123.898 8.15099 124.577 6.65377 126.05C3.7745 128.88 3.7745 133.568 6.65377 136.501C8.1382 137.871 10.0321 138.652 12.0156 138.652C13.9991 138.652 15.8802 137.871 17.2751 136.501C20.2567 133.568 20.2567 128.88 17.2751 126.05C15.8802 124.59 13.9991 123.898 12.0156 123.898ZM12.0156 142.161C9.03397 142.161 6.25708 141.086 4.17121 138.934C-0.192486 134.733 -0.192486 127.804 4.17121 123.514C6.25708 121.465 9.03397 120.389 12.0156 120.389C14.9973 120.389 17.7742 121.465 19.86 123.514C24.1213 127.804 24.1213 134.746 19.86 138.934C17.7742 141.086 14.9973 142.161 12.0156 142.161Z" fill="#0B4761"/>
<path fill-rule="evenodd" clip-rule="evenodd" d="M109.864 44.5524C108.137 46.0637 105.769 45.4105 103.606 44.7702C101.444 44.117 99.5115 43.4766 98.2063 44.7702C96.9138 46.0637 97.5536 48.0104 98.2063 49.9571C98.8589 52.3393 99.7163 54.4909 97.9887 56.2199C96.2612 57.9489 94.0985 57.078 91.9487 56.4377C89.786 55.7845 87.8537 55.1441 86.5484 56.4377C85.256 57.7312 85.8958 59.6779 86.5484 61.8424C87.2011 64.0068 87.8409 66.3762 86.3309 67.8874C84.6033 69.6164 82.2359 68.9633 80.0733 68.1052C78.1282 67.452 75.9783 67.0294 74.8906 68.3229C73.5981 69.3987 74.0332 71.5632 74.673 73.5099C75.5304 75.6743 76.183 78.0437 74.4555 79.7727C72.9455 81.2839 70.5653 80.6308 68.4154 79.9904C66.2528 79.3372 64.3204 78.6969 63.0152 79.9904C61.7227 81.284 62.3625 83.2307 63.0152 85.3951C63.6678 87.5596 64.5252 89.7112 62.7977 91.4402C61.0701 93.1692 58.9074 92.2983 56.54 91.6579C54.5949 91.0047 52.6498 90.3644 51.3574 91.6579C50.0649 92.9515 50.7047 94.8982 51.3574 97.0626C52.01 99.2271 52.6498 101.596 51.1398 103.108C49.4122 104.837 47.0448 104.184 44.8822 103.543C42.7195 102.89 40.7872 102.25 39.482 103.543L39.0469 102.89C40.5569 101.161 42.9371 102.032 45.0869 102.672C47.2496 103.325 49.1819 103.966 50.4872 102.672C51.7797 101.379 51.1398 99.432 50.4872 97.2675C49.8345 95.1031 48.9771 92.7337 50.7047 91.0047C52.4323 89.4935 54.5949 90.1467 56.9623 90.787C58.9074 91.4402 60.8525 92.0806 62.145 90.787C63.4375 89.4935 62.7976 87.5468 62.145 85.6C61.4924 83.2179 60.8526 81.0662 62.3626 79.3372C64.0901 77.6082 66.4575 78.4791 68.6202 79.1195C70.7828 79.7727 72.7151 80.4131 74.0204 79.1195C75.3129 77.826 74.673 75.8792 74.0204 73.7148C73.163 71.5504 72.5104 69.181 74.238 67.6697C75.748 65.9407 78.1282 66.5939 80.278 67.452C82.4407 68.1052 84.373 68.7455 85.6783 67.452C86.9707 66.1585 86.3309 64.2117 85.6783 62.0473C85.0256 59.8828 84.1682 57.5135 85.8958 55.7845C87.6234 54.2732 89.786 54.9264 92.1534 55.5668C94.0985 56.2199 96.0436 56.8603 97.3361 55.5668C98.6286 54.2732 97.9887 52.3265 97.3361 50.3798C96.6835 47.9976 96.0436 45.846 97.5537 44.117C99.2812 42.388 101.649 43.2589 103.811 43.8992C105.974 44.5524 107.906 45.1928 109.211 43.8992C110.504 42.6057 109.864 40.659 109.211 38.4945C108.559 36.3301 107.701 33.9607 109.429 32.4495L110.082 32.8849C108.789 34.1785 109.429 36.1252 110.082 38.2896C110.734 40.4541 111.374 42.8234 109.864 44.5524Z" fill="#0B4761"/>
</svg>
