<svg width="140" height="76" viewBox="0 0 140 76" fill="none" xmlns="http://www.w3.org/2000/svg">
<path opacity="0.8" fill-rule="evenodd" clip-rule="evenodd" d="M90.5242 48.9422C93.5308 51.8954 93.5308 56.6044 90.5242 59.5576C87.5983 62.4301 82.7258 62.4301 79.7998 59.5576C76.7933 56.6044 76.7933 51.8954 79.7998 48.9422C82.7258 45.989 87.5983 45.989 90.5242 48.9422Z" fill="#F7921E"/>
<path opacity="0.8" fill-rule="evenodd" clip-rule="evenodd" d="M116.057 26.4109C119.064 29.3641 119.064 34.0731 116.057 37.0263C113.131 39.8989 108.259 39.8989 105.333 37.0263C102.326 34.0731 102.326 29.3641 105.333 26.4109C108.259 23.4577 113.131 23.4577 116.057 26.4109Z" fill="#F7921E"/>
<path opacity="0.8" fill-rule="evenodd" clip-rule="evenodd" d="M137.745 2.72149C140.751 5.6747 140.751 10.3837 137.745 13.3369C134.819 16.2094 129.946 16.2094 127.021 13.3369C124.014 10.3837 124.014 5.6747 127.021 2.72149C129.946 -0.231709 134.819 -0.231709 137.745 2.72149Z" fill="#F7921E"/>
<path opacity="0.8" fill-rule="evenodd" clip-rule="evenodd" d="M60.9188 16.4427C59.1913 17.9411 56.8238 17.3007 54.6612 16.6604C52.4985 16.02 50.5662 15.3796 49.261 16.6604C47.9685 17.9411 48.6083 19.875 49.261 21.7961C49.9136 24.1527 50.771 26.2915 49.0434 28.0077C47.3159 29.7239 45.1532 28.8658 43.0034 28.2254C40.8407 27.5851 38.9084 26.9447 37.6031 28.2254C36.3106 29.5062 36.9505 31.4401 37.6031 33.5789C38.2558 35.7177 38.8956 38.0743 37.3856 39.5728C35.658 41.289 33.2906 40.6486 31.128 39.7905C29.1829 39.1501 27.033 38.7147 25.9453 40.0082C24.6528 41.084 25.0879 43.2228 25.7277 45.1439C26.5851 47.2828 27.2377 49.6393 25.5102 51.3555C24.0002 52.854 21.62 52.2136 19.4701 51.5733C17.3074 50.9329 15.3751 50.2925 14.0699 51.5733C12.7774 52.854 13.4172 54.7879 14.0699 56.9267C14.7225 59.0656 15.5799 61.2044 13.8523 62.9206C12.1248 64.6368 9.96211 63.7787 7.59471 63.1383C5.6496 62.498 3.70451 61.8576 2.41204 63.1383C1.11957 64.4191 1.7594 66.353 2.41204 68.4918C3.06467 70.6306 3.70449 72.9872 2.19448 74.4856C0.466913 76.2018 -1.90047 75.5615 -4.06312 74.9083C-6.22577 74.2679 -8.15808 73.6276 -9.46335 74.9083L-9.89844 74.2679C-8.38842 72.5517 -6.00822 73.4098 -3.85837 74.0502C-1.69571 74.6906 0.236598 75.3309 1.54187 74.0502C2.83434 72.7694 2.1945 70.8355 1.54187 68.6967C0.889233 66.5579 0.0318279 64.2013 1.75939 62.4851C3.48695 60.9867 5.64962 61.6271 8.01702 62.2674C9.96213 62.9078 11.9072 63.5482 13.1997 62.2674C14.4922 60.9867 13.8523 59.0528 13.1997 57.1317C12.5471 54.7751 11.9072 52.6363 13.4173 50.9201C15.1448 49.2039 17.5122 50.062 19.6749 50.7024C21.8375 51.3428 23.7698 51.9831 25.0751 50.7024C26.3676 49.4216 25.7277 47.4877 25.0751 45.3489C24.2177 43.21 23.5651 40.8535 25.2926 39.355C26.8027 37.6388 29.1829 38.2792 31.3327 39.1373C33.4954 39.7777 35.4277 40.4181 36.733 39.1373C38.0254 37.8566 37.3856 35.9227 36.733 33.7838C36.0803 31.645 35.2229 29.2884 36.9505 27.5722C38.678 26.0738 40.8407 26.7142 43.2081 27.3545C45.1532 27.9949 47.0983 28.6353 48.3908 27.3545C49.6833 26.0738 49.0434 24.1399 48.3908 22.2188C47.7381 19.8622 47.0983 17.7234 48.6083 16.0072C50.3359 14.291 52.7033 15.1491 54.8659 15.7895C57.0286 16.4299 58.9609 17.0702 60.2662 15.7895C61.5586 14.5087 60.9188 12.5748 60.2662 10.436C59.6135 8.29719 58.7562 5.9406 60.4837 4.44214L61.1363 4.8648C59.8439 6.14554 60.4837 8.07944 61.1363 10.2183C61.789 12.3571 62.4288 14.7137 60.9188 16.4299V16.4427Z" fill="#F7921E"/>
</svg>
