<svg width="130" height="80" viewBox="0 0 130 80" fill="none" xmlns="http://www.w3.org/2000/svg">
<path opacity="0.8" fill-rule="evenodd" clip-rule="evenodd" d="M109.644 47.0628C106.113 47.0628 102.745 48.29 100.097 50.9407C94.9629 56.0459 94.9629 64.5053 100.097 69.7905C102.745 72.2612 106.113 73.6684 109.644 73.6684C113.176 73.6684 116.544 72.2612 119.012 69.7905C124.31 64.5053 124.31 56.0622 119.012 50.9407C116.544 48.3064 113.176 47.0628 109.644 47.0628ZM109.644 80.0007C104.347 80.0007 99.3936 78.0699 95.6823 74.192C87.9002 66.6161 87.9002 54.1151 95.6823 46.3756C99.3936 42.6776 104.347 40.7468 109.644 40.7468C114.941 40.7468 119.895 42.6776 123.606 46.3756C131.209 54.1314 131.209 66.6325 123.606 74.192C119.895 78.0699 114.941 80.0007 109.644 80.0007Z" fill="#F7921E"/>
<path fill-rule="evenodd" clip-rule="evenodd" d="M70.8641 12.5529C69.1366 14.0642 66.7691 13.411 64.6065 12.7706C62.4438 12.1175 60.5115 11.4771 59.2063 12.7706C57.9138 14.0642 58.5536 16.0109 59.2063 17.9576C59.8589 20.3398 60.7163 22.4914 58.9887 24.2204C57.2612 25.9494 55.0985 25.0785 52.9487 24.4382C50.786 23.785 48.8537 23.1446 47.5484 24.4382C46.256 25.7317 46.8958 27.6784 47.5484 29.8429C48.2011 32.0073 48.8409 34.3767 47.3309 35.8879C45.6033 37.6169 43.2359 36.9638 41.0733 36.1057C39.1282 35.4525 36.9783 35.0298 35.8906 36.3234C34.5981 37.3992 35.0332 39.5636 35.673 41.5104C36.5304 43.6748 37.183 46.0442 35.4555 47.7732C33.9455 49.2844 31.5653 48.6313 29.4154 47.9909C27.2528 47.3377 25.3204 46.6974 24.0152 47.9909C22.7227 49.2844 23.3625 51.2312 24.0152 53.3956C24.6678 55.5601 25.5252 57.7117 23.7977 59.4407C22.0701 61.1697 19.9074 60.2988 17.54 59.6584C15.5949 59.0052 13.6498 58.3649 12.3574 59.6584C11.0649 60.952 11.7047 62.8987 12.3574 65.0631C13.01 67.2276 13.6498 69.5969 12.1398 71.1082C10.4122 72.8372 8.04485 72.184 5.88219 71.5436C3.71954 70.8905 1.78723 70.2501 0.48196 71.5436L0.046875 70.8905C1.55689 69.1615 3.93709 70.0324 6.08695 70.6727C8.2496 71.3259 10.1819 71.9663 11.4872 70.6727C12.7797 69.3792 12.1398 67.4325 11.4872 65.268C10.8345 63.1036 9.97714 60.7342 11.7047 59.0052C13.4323 57.494 15.5949 58.1471 17.9623 58.7875C19.9074 59.4407 21.8525 60.0811 23.145 58.7875C24.4375 57.494 23.7976 55.5472 23.145 53.6005C22.4924 51.2184 21.8526 49.0667 23.3626 47.3377C25.0901 45.6087 27.4575 46.4796 29.6202 47.12C31.7828 47.7732 33.7151 48.4135 35.0204 47.12C36.3129 45.8265 35.673 43.8797 35.0204 41.7153C34.163 39.5508 33.5104 37.1815 35.238 35.6702C36.748 33.9412 39.1282 34.5944 41.278 35.4525C43.4407 36.1057 45.373 36.746 46.6783 35.4525C47.9707 34.1589 47.3309 32.2122 46.6783 30.0478C46.0256 27.8833 45.1682 25.514 46.8958 23.785C48.6234 22.2737 50.786 22.9269 53.1534 23.5672C55.0985 24.2204 57.0436 24.8608 58.3361 23.5672C59.6286 22.2737 58.9887 20.327 58.3361 18.3803C57.6835 15.9981 57.0436 13.8465 58.5537 12.1175C60.2812 10.3885 62.6486 11.2594 64.8112 11.8997C66.9739 12.5529 68.9062 13.1933 70.2115 11.8997C71.504 10.6062 70.8641 8.65948 70.2115 6.49503C69.5589 4.33058 68.7015 1.96122 70.429 0.449951L71.0817 0.885402C69.7892 2.17895 70.429 4.12567 71.0817 6.29011C71.7343 8.45456 72.3741 10.8239 70.8641 12.5529Z" fill="#0B4761"/>
</svg>
