<svg width="121" height="72" viewBox="0 0 121 72" fill="none" xmlns="http://www.w3.org/2000/svg">
<circle cx="101" cy="51.0001" r="18" stroke="#F7921E" stroke-width="4"/>
<path opacity="0.8" fill-rule="evenodd" clip-rule="evenodd" d="M71.8056 12.6628C70.078 14.1612 67.7106 13.5208 65.5479 12.8805C63.3853 12.2401 61.453 11.5997 60.1477 12.8805C58.8552 14.1612 59.4951 16.0951 60.1477 18.0162C60.8003 20.3728 61.6577 22.5116 59.9302 24.2278C58.2026 25.944 56.0399 25.0859 53.8901 24.4455C51.7274 23.8052 49.7951 23.1648 48.4898 24.4455C47.1974 25.7263 47.8372 27.6602 48.4898 29.799C49.1425 31.9378 49.7823 34.2944 48.2723 35.7929C46.5447 37.5091 44.1773 36.8687 42.0147 36.0106C40.0696 35.3702 37.9197 34.9348 36.832 36.2283C35.5395 37.3041 35.9746 39.4429 36.6145 41.364C37.4718 43.5029 38.1245 45.8594 36.3969 47.5756C34.8869 49.0741 32.5067 48.4337 30.3568 47.7934C28.1942 47.153 26.2619 46.5126 24.9566 47.7934C23.6641 49.0741 24.304 51.008 24.9566 53.1468C25.6092 55.2857 26.4666 57.4245 24.7391 59.1407C23.0115 60.8569 20.8488 59.9988 18.4814 59.3584C16.5363 58.718 14.5912 58.0777 13.2988 59.3584C12.0063 60.6392 12.6461 62.5731 13.2988 64.7119C13.9514 66.8507 14.5912 69.2073 13.0812 70.7057C11.3537 72.4219 8.98625 71.7816 6.8236 71.1284C4.66095 70.488 2.72864 69.8477 1.42337 71.1284L0.988281 70.488C2.4983 68.7718 4.87849 69.6299 7.02834 70.2703C9.191 70.9106 11.1233 71.551 12.4286 70.2703C13.7211 68.9895 13.0812 67.0556 12.4286 64.9168C11.7759 62.778 10.9186 60.4214 12.6461 58.7052C14.3737 57.2068 16.5363 57.8472 18.9037 58.4875C20.8489 59.1279 22.794 59.7683 24.0864 58.4875C25.3789 57.2068 24.7391 55.2729 24.0864 53.3518C23.4338 50.9952 22.794 48.8564 24.304 47.1402C26.0315 45.424 28.3989 46.2821 30.5616 46.9225C32.7242 47.5628 34.6565 48.2032 35.9618 46.9225C37.2543 45.6417 36.6145 43.7078 35.9618 41.569C35.1044 39.4301 34.4518 37.0736 36.1794 35.5751C37.6894 33.8589 40.0696 34.4993 42.2194 35.3574C44.3821 35.9978 46.3144 36.6382 47.6197 35.3574C48.9121 34.0767 48.2723 32.1427 47.6197 30.0039C46.967 27.8651 46.1096 25.5085 47.8372 23.7923C49.5648 22.2939 51.7274 22.9343 54.0948 23.5746C56.0399 24.215 57.985 24.8554 59.2775 23.5746C60.57 22.2939 59.9302 20.36 59.2775 18.4389C58.6249 16.0823 57.985 13.9435 59.4951 12.2273C61.2226 10.5111 63.59 11.3692 65.7527 12.0096C67.9153 12.6499 69.8476 13.2903 71.1529 12.0096C72.4454 10.7288 71.8055 8.79494 71.1529 6.65611C70.5003 4.51728 69.6429 2.16069 71.3704 0.662231L72.0231 1.0849C70.7306 2.36563 71.3705 4.29954 72.0231 6.43837C72.6757 8.5772 73.3156 10.9338 71.8056 12.6499V12.6628Z" fill="#F7921E"/>
</svg>
