<svg width="50" height="42" viewBox="0 0 50 42" fill="none" xmlns="http://www.w3.org/2000/svg">
<path opacity="0.8" fill-rule="evenodd" clip-rule="evenodd" d="M9.03075 26.8969C7.41998 26.8969 5.88378 27.4597 4.6757 28.6752C2.33412 31.0162 2.33412 34.8953 4.6757 37.3188C5.88378 38.4518 7.41998 39.097 9.03075 39.097C10.6415 39.097 12.1777 38.4518 13.3038 37.3188C15.7199 34.8953 15.7199 31.0237 13.3038 28.6752C12.1777 27.4672 10.6415 26.8969 9.03075 26.8969ZM9.03075 42.0007C6.61459 42.0007 4.35505 41.1154 2.66225 39.3371C-0.887416 35.8632 -0.887416 30.1308 2.66225 26.5818C4.35505 24.8861 6.61459 24.0007 9.03075 24.0007C11.4469 24.0007 13.7065 24.8861 15.3993 26.5818C18.8669 30.1383 18.8669 35.8707 15.3993 39.3371C13.7065 41.1154 11.4469 42.0007 9.03075 42.0007Z" fill="#F7921E"/>
<path opacity="0.8" fill-rule="evenodd" clip-rule="evenodd" d="M26.1022 2.93129C24.9387 2.93129 23.8291 3.33562 22.9565 4.20897C21.2651 5.89098 21.2651 8.67815 22.9565 10.4195C23.8291 11.2335 24.9387 11.6971 26.1022 11.6971C27.2658 11.6971 28.3754 11.2335 29.1888 10.4195C30.934 8.67815 30.934 5.89637 29.1888 4.20897C28.3754 3.34101 27.2658 2.93129 26.1022 2.93129ZM26.1022 13.7835C24.357 13.7835 22.7249 13.1473 21.5021 11.8697C18.9381 9.3736 18.9381 5.25483 21.5021 2.70486C22.7249 1.48649 24.357 0.850342 26.1022 0.850342C27.8475 0.850342 29.4796 1.48649 30.7024 2.70486C33.2072 5.26022 33.2072 9.37899 30.7024 11.8697C29.4796 13.1473 27.8475 13.7835 26.1022 13.7835Z" fill="#F7921E"/>
<path opacity="0.8" fill-rule="evenodd" clip-rule="evenodd" d="M43.5212 27.5133C42.3577 27.5133 41.2481 27.9176 40.3754 28.791C38.684 30.473 38.684 33.2602 40.3754 35.0015C41.2481 35.8155 42.3577 36.2792 43.5212 36.2792C44.6847 36.2792 45.7943 35.8155 46.6077 35.0015C48.353 33.2602 48.353 30.4784 46.6077 28.791C45.7943 27.923 44.6847 27.5133 43.5212 27.5133ZM43.5212 38.3655C41.7759 38.3655 40.1438 37.7294 38.9211 36.4517C36.357 33.9556 36.357 29.8369 38.9211 27.2869C40.1438 26.0685 41.7759 25.4324 43.5212 25.4324C45.2664 25.4324 46.8986 26.0685 48.1213 27.2869C50.6261 29.8423 50.6261 33.961 48.1213 36.4517C46.8986 37.7294 45.2664 38.3655 43.5212 38.3655Z" fill="#F7921E"/>
</svg>
