<svg width="55" height="56" viewBox="0 0 55 56" fill="none" xmlns="http://www.w3.org/2000/svg">
<path opacity="0.8" fill-rule="evenodd" clip-rule="evenodd" d="M12.8628 43.0416C15.7124 45.8935 15.7124 50.4448 12.8628 53.2967C10.087 56.0748 5.46569 56.0748 2.68993 53.2967C-0.159663 50.4448 -0.159663 45.8935 2.68993 43.0416C5.46569 40.1896 10.087 40.1896 12.8628 43.0416Z" fill="#F7921E"/>
<path opacity="0.8" fill-rule="evenodd" clip-rule="evenodd" d="M32.8628 23.0416C35.7124 25.8935 35.7124 30.4448 32.8628 33.2967C30.087 36.0748 25.4657 36.0748 22.6899 33.2967C19.8403 30.4448 19.8403 25.8935 22.6899 23.0416C25.4657 20.1896 30.087 20.1896 32.8628 23.0416Z" fill="#F7921E"/>
<path opacity="0.8" fill-rule="evenodd" clip-rule="evenodd" d="M52.8628 3.04155C55.7124 5.8935 55.7124 10.4448 52.8628 13.2967C50.087 16.0748 45.4657 16.0748 42.6899 13.2967C39.8403 10.4448 39.8403 5.8935 42.6899 3.04155C45.4657 0.1896 50.087 0.1896 52.8628 3.04155Z" fill="#F7921E"/>
</svg>
