<svg width="115" height="147" viewBox="0 0 115 147" fill="none" xmlns="http://www.w3.org/2000/svg">
<path opacity="0.8" fill-rule="evenodd" clip-rule="evenodd" d="M51.5422 46.9729C53.4852 48.9175 53.4852 52.0209 51.5422 53.9655C49.6495 55.8598 46.4984 55.8598 44.6057 53.9655C42.6627 52.0209 42.6627 48.9175 44.6057 46.9729C46.4984 45.0282 49.6495 45.0282 51.5422 46.9729Z" fill="#F7921E"/>
<path opacity="0.8" fill-rule="evenodd" clip-rule="evenodd" d="M74.5422 21.9729C76.4852 23.9175 76.4852 27.0209 74.5422 28.9655C72.6495 30.8598 69.4984 30.8598 67.6057 28.9655C65.6627 27.0209 65.6627 23.9175 67.6057 21.9729C69.4984 20.0282 72.6495 20.0282 74.5422 21.9729Z" fill="#F7921E"/>
<path opacity="0.8" fill-rule="evenodd" clip-rule="evenodd" d="M94.5422 1.97288C96.4852 3.91752 96.4852 7.02086 94.5422 8.9655C92.6495 10.8598 89.4984 10.8598 87.6057 8.9655C85.6627 7.02086 85.6627 3.91752 87.6057 1.97288C89.4984 0.0282455 92.6495 0.0282455 94.5422 1.97288Z" fill="#F7921E"/>
<path opacity="0.8" fill-rule="evenodd" clip-rule="evenodd" d="M14.0664 124.755C11.6606 124.755 9.38281 125.574 7.57846 127.342C4.09775 130.761 4.09775 136.409 7.57846 139.944C9.38281 141.596 11.6606 142.531 14.0664 142.531C16.4722 142.531 18.75 141.583 20.4392 139.944C24.0479 136.409 24.0479 130.761 20.4392 127.342C18.7628 125.574 16.4722 124.755 14.0664 124.755ZM14.0664 146.77C10.4577 146.77 7.10498 145.477 4.57122 142.89C-0.713843 137.831 -0.713843 129.468 4.57122 124.293C7.09218 121.822 10.4577 120.528 14.0664 120.528C17.6751 120.528 21.0279 121.822 23.5616 124.293C28.7315 129.468 28.7315 137.831 23.5616 142.89C21.0407 145.477 17.6751 146.77 14.0664 146.77Z" fill="#F7921E"/>
<path opacity="0.8" fill-rule="evenodd" clip-rule="evenodd" d="M113.792 53.6095C112.064 55.1208 109.697 54.4676 107.534 53.8273C105.372 53.1741 103.439 52.5337 102.134 53.8273C100.842 55.1208 101.481 57.0675 102.134 59.0143C102.787 61.3964 103.644 63.5481 101.916 65.2771C100.189 67.0061 98.0263 66.1352 95.8764 65.4948C93.7138 64.8416 91.7814 64.2012 90.4762 65.4948C89.1837 66.7883 89.8235 68.735 90.4762 70.8995C91.1288 73.0639 91.7687 75.4333 90.2586 76.9446C88.5311 78.6736 86.1637 78.0204 84.001 77.1623C82.0559 76.5091 79.9061 76.0865 78.8183 77.38C77.5259 78.4559 77.961 80.6203 78.6008 82.567C79.4582 84.7315 80.1108 87.1008 78.3832 88.8298C76.8732 90.3411 74.493 89.6879 72.3432 89.0475C70.1805 88.3944 68.2482 87.754 66.9429 89.0475C65.6505 90.3411 66.2903 92.2878 66.9429 94.4522C67.5956 96.6167 68.453 98.7683 66.7254 100.497C64.9978 102.226 62.8352 101.355 60.4678 100.715C58.5227 100.062 56.5776 99.4215 55.2851 100.715C53.9926 102.009 54.6325 103.955 55.2851 106.12C55.9377 108.284 56.5776 110.654 55.0675 112.165C53.34 113.894 50.9726 113.241 48.8099 112.6C46.6473 111.947 44.715 111.307 43.4097 112.6L42.9746 111.947C44.4846 110.218 46.8648 111.089 49.0147 111.729C51.1773 112.383 53.1096 113.023 54.4149 111.729C55.7074 110.436 55.0675 108.489 54.4149 106.325C53.7623 104.16 52.9049 101.791 54.6325 100.062C56.36 98.5506 58.5227 99.2038 60.8901 99.8442C62.8352 100.497 64.7803 101.138 66.0728 99.8442C67.3652 98.5506 66.7254 96.6039 66.0728 94.6572C65.4201 92.275 64.7803 90.1234 66.2903 88.3944C68.0179 86.6654 70.3853 87.5363 72.5479 88.1766C74.7106 88.8298 76.6429 89.4702 77.9482 88.1766C79.2406 86.8831 78.6008 84.9364 77.9482 82.7719C77.0908 80.6075 76.4381 78.2381 78.1657 76.7269C79.6757 74.9979 82.0559 75.651 84.2058 76.5091C86.3684 77.1623 88.3007 77.8027 89.606 76.5091C90.8985 75.2156 90.2586 73.2689 89.606 71.1044C88.9534 68.94 88.096 66.5706 89.8235 64.8416C91.5511 63.3303 93.7138 63.9835 96.0812 64.6239C98.0263 65.2771 99.9714 65.9174 101.264 64.6239C102.556 63.3303 101.916 61.3836 101.264 59.4369C100.611 57.0547 99.9714 54.9031 101.481 53.1741C103.209 51.4451 105.576 52.316 107.739 52.9564C109.902 53.6096 111.834 54.2499 113.139 52.9564C114.432 51.6628 113.792 49.7161 113.139 47.5517C112.487 45.3872 111.629 43.0179 113.357 41.5066L114.009 41.942C112.717 43.2356 113.357 45.1823 114.009 47.3467C114.662 49.5112 115.302 51.8806 113.792 53.6095Z" fill="#F7921E"/>
</svg>
