<svg width="61" height="60" viewBox="0 0 61 60" fill="none" xmlns="http://www.w3.org/2000/svg">
<path opacity="0.8" fill-rule="evenodd" clip-rule="evenodd" d="M10.5569 43.8443C8.82475 43.8443 7.1728 44.4462 5.8737 45.7464C3.35568 48.2505 3.35568 52.3998 5.8737 54.9921C7.1728 56.204 8.82475 56.8943 10.5569 56.8943C12.289 56.8943 13.941 56.204 15.1519 54.9921C17.7501 52.3998 17.7501 48.2585 15.1519 45.7464C13.941 44.4543 12.289 43.8443 10.5569 43.8443ZM10.5569 60.0002C7.95868 60.0002 5.52889 59.0532 3.70854 57.1511C-0.108577 53.4351 -0.108577 47.3034 3.70854 43.5072C5.52889 41.6934 7.95868 40.7463 10.5569 40.7463C13.1551 40.7463 15.5849 41.6934 17.4053 43.5072C21.1342 47.3114 21.1342 53.4432 17.4053 57.1511C15.5849 59.0532 13.1551 60.0002 10.5569 60.0002Z" fill="#F7921E"/>
<path opacity="0.8" fill-rule="evenodd" clip-rule="evenodd" d="M30.5569 23.8443C28.8247 23.8443 27.1728 24.4462 25.8737 25.7464C23.3557 28.2505 23.3557 32.3998 25.8737 34.9921C27.1728 36.204 28.8247 36.8943 30.5569 36.8943C32.289 36.8943 33.941 36.204 35.1519 34.9921C37.7501 32.3998 37.7501 28.2585 35.1519 25.7464C33.941 24.4543 32.289 23.8443 30.5569 23.8443ZM30.5569 40.0002C27.9587 40.0002 25.5289 39.0532 23.7085 37.1511C19.8914 33.4351 19.8914 27.3034 23.7085 23.5072C25.5289 21.6934 27.9587 20.7463 30.5569 20.7463C33.1551 20.7463 35.5849 21.6934 37.4053 23.5072C41.1342 27.3114 41.1342 33.4432 37.4053 37.1511C35.5849 39.0532 33.1551 40.0002 30.5569 40.0002Z" fill="#F7921E"/>
<path opacity="0.8" fill-rule="evenodd" clip-rule="evenodd" d="M50.5569 3.8443C48.8247 3.8443 47.1728 4.44623 45.8737 5.74642C43.3557 8.25047 43.3557 12.3998 45.8737 14.9921C47.1728 16.204 48.8247 16.8943 50.5569 16.8943C52.289 16.8943 53.941 16.204 55.1519 14.9921C57.7501 12.3998 57.7501 8.25849 55.1519 5.74642C53.941 4.45426 52.289 3.8443 50.5569 3.8443ZM50.5569 20.0002C47.9587 20.0002 45.5289 19.0532 43.7085 17.1511C39.8914 13.4351 39.8914 7.30342 43.7085 3.50722C45.5289 1.69338 47.9587 0.746338 50.5569 0.746338C53.1551 0.746338 55.5849 1.69338 57.4053 3.50722C61.1342 7.31145 61.1342 13.4432 57.4053 17.1511C55.5849 19.0532 53.1551 20.0002 50.5569 20.0002Z" fill="#F7921E"/>
</svg>
