<svg width="122" height="83" viewBox="0 0 122 83" fill="none" xmlns="http://www.w3.org/2000/svg">
<path opacity="0.8" fill-rule="evenodd" clip-rule="evenodd" d="M106.343 45.69C103.578 45.69 100.942 46.6505 98.8692 48.7253C94.8511 52.7212 94.8511 59.3426 98.8692 63.4794C100.942 65.4133 103.578 66.5148 106.343 66.5148C109.107 66.5148 111.743 65.4133 113.675 63.4794C117.821 59.3426 117.821 52.734 113.675 48.7253C111.743 46.6633 109.107 45.69 106.343 45.69ZM106.343 71.4712C102.196 71.4712 98.319 69.9599 95.4141 66.9246C89.3229 60.9948 89.3229 51.21 95.4141 45.1521C98.319 42.2576 102.196 40.7463 106.343 40.7463C110.489 40.7463 114.366 42.2576 117.271 45.1521C123.221 51.2228 123.221 61.0076 117.271 66.9246C114.366 69.9599 110.489 71.4712 106.343 71.4712Z" fill="#F7921E"/>
<path opacity="0.8" fill-rule="evenodd" clip-rule="evenodd" d="M81.9399 14.3434C79.9647 16.0712 77.2581 15.3244 74.7855 14.5923C72.313 13.8455 70.1038 13.1134 68.6115 14.5923C67.1338 16.0712 67.8653 18.2969 68.6115 20.5226C69.3576 23.2461 70.3379 25.7061 68.3627 27.6828C66.3876 29.6596 63.9151 28.6639 61.4571 27.9318C58.9846 27.185 56.7754 26.4529 55.2831 27.9318C53.8054 29.4107 54.5369 31.6363 55.2831 34.111C56.0292 36.5856 56.7607 39.2944 55.0343 41.0223C53.0592 42.999 50.3526 42.2523 47.88 41.2712C45.6562 40.5244 43.1983 40.0412 41.9547 41.5201C40.477 42.7501 40.9744 45.2247 41.706 47.4504C42.6862 49.925 43.4324 52.6339 41.4572 54.6106C39.7308 56.3385 37.0096 55.5917 34.5516 54.8596C32.0791 54.1128 29.8699 53.3807 28.3776 54.8596C26.8999 56.3385 27.6314 58.5642 28.3776 61.0388C29.1237 63.5134 30.104 65.9733 28.1288 67.9501C26.1537 69.9268 23.6812 68.9311 20.9745 68.199C18.7507 67.4522 16.5268 66.7201 15.0492 68.199C13.5715 69.6779 14.303 71.9036 15.0492 74.3782C15.7953 76.8528 16.5268 79.5617 14.8004 81.2895C12.8253 83.2663 10.1187 82.5195 7.64612 81.7874C5.17357 81.0406 2.96436 80.3085 1.47205 81.7874L0.974609 81.0406C2.70101 79.0639 5.42228 80.0596 7.88021 80.7917C10.3528 81.5385 12.562 82.2706 14.0543 80.7917C15.532 79.3128 14.8004 77.0871 14.0543 74.6125C13.3081 72.1379 12.3279 69.429 14.303 67.4522C16.2781 65.7244 18.7507 66.4712 21.4573 67.2033C23.6812 67.9501 25.905 68.6822 27.3827 67.2033C28.8604 65.7244 28.1288 63.4987 27.3827 61.2731C26.6365 58.5495 25.905 56.0896 27.6314 54.1128C29.6065 52.136 32.3132 53.1317 34.7857 53.8639C37.2583 54.6107 39.4675 55.3428 40.9598 53.8639C42.4375 52.385 41.706 50.1593 40.9598 47.6847C39.9795 45.2101 39.2334 42.5012 41.2085 40.7734C42.9349 38.7966 45.6562 39.5434 48.1141 40.5244C50.5867 41.2712 52.7959 42.0033 54.2882 40.5244C55.7659 39.0455 55.0343 36.8198 54.2882 34.3452C53.542 31.8706 52.5618 29.1617 54.5369 27.185C56.512 25.4572 58.9846 26.2039 61.6912 26.9361C63.9151 27.6828 66.1389 28.415 67.6166 26.9361C69.0943 25.4572 68.3627 23.2315 67.6166 21.0058C66.8704 18.2823 66.1389 15.8223 67.8653 13.8455C69.8404 11.8688 72.5471 12.8645 75.0196 13.5966C77.4922 14.3434 79.7014 15.0755 81.1937 13.5966C82.6714 12.1177 81.9399 9.89204 81.1937 7.41743C80.4475 4.94282 79.4673 2.23393 81.4424 0.506104L82.1886 1.00395C80.7109 2.48285 81.4424 4.70854 82.1886 7.18314C82.9347 9.65775 83.6663 12.3666 81.9399 14.3434Z" fill="#F7921E"/>
</svg>
