<svg width="97" height="100" viewBox="0 0 97 100" fill="none" xmlns="http://www.w3.org/2000/svg">
<circle cx="33" cy="14.0007" r="14" fill="#FFAA48"/>
<path opacity="0.8" fill-rule="evenodd" clip-rule="evenodd" d="M95.5422 48.9729C97.4852 50.9175 97.4852 54.0209 95.5422 55.9655C93.6495 57.8598 90.4984 57.8598 88.6057 55.9655C86.6627 54.0209 86.6627 50.9175 88.6057 48.9729C90.4984 47.0282 93.6495 47.0282 95.5422 48.9729Z" fill="#F7921E"/>
<path opacity="0.8" fill-rule="evenodd" clip-rule="evenodd" d="M71.7919 39.6095C70.0643 41.1208 67.6969 40.4676 65.5343 39.8273C63.3716 39.1741 61.4393 38.5337 60.134 39.8273C58.8416 41.1208 59.4814 43.0675 60.134 45.0143C60.7867 47.3964 61.644 49.5481 59.9165 51.2771C58.1889 53.0061 56.0263 52.1352 53.8764 51.4948C51.7138 50.8416 49.7814 50.2012 48.4762 51.4948C47.1837 52.7883 47.8235 54.7351 48.4762 56.8995C49.1288 59.0639 49.7687 61.4333 48.2586 62.9446C46.5311 64.6736 44.1637 64.0204 42.001 63.1623C40.0559 62.5091 37.9061 62.0865 36.8183 63.38C35.5259 64.4559 35.9609 66.6203 36.6008 68.567C37.4582 70.7315 38.1108 73.1008 36.3832 74.8298C34.8732 76.3411 32.493 75.6879 30.3432 75.0475C28.1805 74.3944 26.2482 73.754 24.9429 75.0475C23.6505 76.3411 24.2903 78.2878 24.9429 80.4522C25.5956 82.6167 26.453 84.7683 24.7254 86.4973C22.9978 88.2263 20.8352 87.3554 18.4678 86.715C16.5227 86.0619 14.5776 85.4215 13.2851 86.715C11.9926 88.0086 12.6325 89.9553 13.2851 92.1198C13.9377 94.2842 14.5776 96.6536 13.0675 98.1648C11.34 99.8938 8.97258 99.2407 6.80993 98.6003C4.64728 97.9471 2.71497 97.3068 1.4097 98.6003L0.974609 97.9471C2.48463 96.2181 4.86482 97.089 7.01468 97.7294C9.17733 98.3826 11.1096 99.0229 12.4149 97.7294C13.7074 96.4358 13.0675 94.4891 12.4149 92.3247C11.7623 90.1602 10.9049 87.7909 12.6325 86.0619C14.36 84.5506 16.5227 85.2038 18.8901 85.8442C20.8352 86.4973 22.7803 87.1377 24.0728 85.8442C25.3652 84.5506 24.7254 82.6039 24.0728 80.6572C23.4201 78.275 22.7803 76.1234 24.2903 74.3944C26.0179 72.6654 28.3853 73.5363 30.5479 74.1766C32.7106 74.8298 34.6429 75.4702 35.9482 74.1766C37.2406 72.8831 36.6008 70.9364 35.9482 68.7719C35.0908 66.6075 34.4381 64.2381 36.1657 62.7269C37.6757 60.9979 40.0559 61.651 42.2058 62.5091C44.3684 63.1623 46.3007 63.8027 47.606 62.5091C48.8985 61.2156 48.2586 59.2689 47.606 57.1044C46.9534 54.94 46.096 52.5706 47.8235 50.8416C49.5511 49.3303 51.7138 49.9835 54.0812 50.6239C56.0263 51.2771 57.9714 51.9174 59.2638 50.6239C60.5563 49.3303 59.9165 47.3836 59.2638 45.4369C58.6112 43.0547 57.9714 40.9031 59.4814 39.1741C61.209 37.4451 63.5764 38.316 65.739 38.9564C67.9017 39.6096 69.834 40.2499 71.1392 38.9564C72.4317 37.6628 71.7919 35.7161 71.1392 33.5517C70.4866 31.3872 69.6292 29.0179 71.3568 27.5066L72.0094 27.942C70.7169 29.2356 71.3568 31.1823 72.0094 33.3467C72.6621 35.5112 73.3019 37.8806 71.7919 39.6095Z" fill="#F7921E"/>
</svg>
