<svg width="75" height="172" viewBox="0 0 75 172" fill="none" xmlns="http://www.w3.org/2000/svg">
<rect x="-34" y="151.712" width="125.119" height="28.5714" rx="14.2857" transform="rotate(-45 -34 151.712)" fill="#F7921E"/>
<path opacity="0.8" fill-rule="evenodd" clip-rule="evenodd" d="M53.3425 5.69047C50.5784 5.69047 47.9423 6.65102 45.8692 8.72582C41.8511 12.7217 41.8511 19.3431 45.8692 23.4799C47.9423 25.4138 50.5784 26.5152 53.3425 26.5152C56.1066 26.5152 58.7428 25.4138 60.6751 23.4799C64.8213 19.3431 64.8213 12.7345 60.6751 8.72582C58.7428 6.66383 56.1066 5.69047 53.3425 5.69047ZM53.3425 31.4717C49.1964 31.4717 45.319 29.9604 42.4141 26.9251C36.3229 20.9953 36.3229 11.2104 42.4141 5.15256C45.319 2.2581 49.1964 0.746826 53.3425 0.746826C57.4887 0.746826 61.3661 2.2581 64.271 5.15256C70.2215 11.2233 70.2215 21.0081 64.271 26.9251C61.3661 29.9604 57.4887 31.4717 53.3425 31.4717Z" fill="#F7921E"/>
</svg>
