<svg width="215" height="108" viewBox="0 0 215 108" fill="none" xmlns="http://www.w3.org/2000/svg">
<path opacity="0.8" fill-rule="evenodd" clip-rule="evenodd" d="M161.523 61.1923C164.826 64.4973 164.826 69.7648 161.523 73.0698C158.31 76.2862 152.958 76.2862 149.744 73.0698C146.442 69.7648 146.442 64.4973 149.744 61.1923C152.958 57.8874 158.31 57.8874 161.523 61.1923Z" fill="#F7921E"/>
<path opacity="0.8" fill-rule="evenodd" clip-rule="evenodd" d="M190.523 32.1923C193.826 35.4973 193.826 40.7648 190.523 44.0698C187.31 47.2862 181.958 47.2862 178.744 44.0698C175.442 40.7648 175.442 35.4973 178.744 32.1923C181.958 28.8874 187.31 28.8874 190.523 32.1923Z" fill="#F7921E"/>
<path opacity="0.8" fill-rule="evenodd" clip-rule="evenodd" d="M219.523 3.19235C222.826 6.49731 222.826 11.7648 219.523 15.0698C216.31 18.2862 210.958 18.2862 207.744 15.0698C204.442 11.7648 204.442 6.49731 207.744 3.19235C210.958 -0.112618 216.31 -0.112618 219.523 3.19235Z" fill="#F7921E"/>
<path opacity="0.8" fill-rule="evenodd" clip-rule="evenodd" d="M101.127 23.623C98.6834 25.7602 95.3353 24.8365 92.2769 23.9309C89.2184 23.0071 86.4856 22.1015 84.6397 23.9309C82.8118 25.7602 83.7167 28.5134 84.6397 31.2665C85.5627 34.6354 86.7752 37.6783 84.332 40.1235C81.8888 42.5687 78.8304 41.3371 75.79 40.4314C72.7315 39.5077 69.9987 38.6021 68.1528 40.4314C66.3249 42.2608 67.2298 45.0139 68.1528 48.0749C69.0758 51.136 69.9806 54.4868 67.8451 56.6241C65.402 59.0693 62.0539 58.1455 58.9954 56.932C56.2446 56.0082 53.2042 55.4105 51.6659 57.2399C49.838 58.7614 50.4534 61.8224 51.3582 64.5755C52.5708 67.6365 53.4938 70.9873 51.0506 73.4325C48.9151 75.5698 45.5489 74.6461 42.5085 73.7404C39.45 72.8167 36.7173 71.9111 34.8714 73.7404C33.0435 75.5698 33.9484 78.3229 34.8714 81.3839C35.7943 84.445 37.0069 87.4879 34.5637 89.9331C32.1205 92.3783 29.062 91.1466 25.714 90.241C22.9632 89.3173 20.2123 88.4116 18.3845 90.241C16.5566 92.0704 17.4615 94.8235 18.3845 97.8845C19.3074 100.946 20.2123 104.296 18.0768 106.434C15.6336 108.879 12.2856 107.955 9.2271 107.049C6.16861 106.126 3.43588 105.22 1.58993 107.049L0.974609 106.126C3.11012 103.681 6.47627 104.912 9.51666 105.818C12.5752 106.742 15.3079 107.647 17.1538 105.818C18.9817 103.988 18.0768 101.235 17.1538 98.1743C16.2309 95.1133 15.0183 91.7625 17.4615 89.3173C19.9047 87.18 22.9632 88.1037 26.3112 89.0094C29.062 89.9331 31.8129 90.8387 33.6407 89.0094C35.4686 87.18 34.5637 84.4269 33.6407 81.6738C32.7177 78.3048 31.8129 75.2619 33.9484 72.8167C36.3916 70.3715 39.7396 71.6032 42.7981 72.5088C45.8566 73.4325 48.5893 74.3382 50.4353 72.5088C52.2631 70.6794 51.3582 67.9263 50.4353 64.8653C49.2227 61.8043 48.2998 58.4534 50.7429 56.3162C52.8784 53.871 56.2446 54.7947 59.285 56.0082C62.3435 56.932 65.0762 57.8376 66.9222 56.0082C68.75 54.1789 67.8451 51.4258 66.9222 48.3647C65.9992 45.3037 64.7866 41.9529 67.2298 39.5077C69.673 37.3704 72.7315 38.2942 76.0795 39.1998C78.8304 40.1235 81.5812 41.0292 83.409 39.1998C85.2369 37.3704 84.332 34.6173 83.409 31.8642C82.4861 28.4953 81.5812 25.4523 83.7167 23.0071C86.1599 20.5619 89.5079 21.7936 92.5664 22.6992C95.6249 23.623 98.3576 24.5286 100.204 22.6992C102.031 20.8699 101.127 18.1168 100.204 15.0557C99.2806 11.9947 98.0681 8.64387 100.511 6.50659L101.434 7.12241C99.6064 8.95178 100.511 11.7049 101.434 14.7659C102.357 17.8269 103.262 21.1778 101.127 23.623Z" fill="#F7921E"/>
</svg>
